<svg width="16" height="16" viewBox="0 0 16 16" fill="none" xmlns="http://www.w3.org/2000/svg">
    <path fill-rule="evenodd" clip-rule="evenodd" d="M4.12301 13.8801C4.69421 13.8801 5.15902 14.355 5.15902 14.9397C5.15902 15.5243 4.69421 16 4.12301 16C3.55181 16 3.08781 15.5243 3.08781 14.9397C3.08781 14.355 3.55181 13.8801 4.12301 13.8801ZM13.1473 13.8801C13.7193 13.8801 14.1841 14.355 14.1841 14.9397C14.1841 15.5243 13.7193 16 13.1473 16C12.5761 16 12.1121 15.5243 12.1121 14.9397C12.1121 14.355 12.5761 13.8801 13.1473 13.8801ZM0.702359 0.00776795L2.36637 0.302535C2.63437 0.350843 2.83837 0.578469 2.86157 0.856859L3.04957 3.15031L3.74865 3.15062C3.86273 3.15067 3.9756 3.15072 4.08727 3.15077L5.37072 3.15139C5.47302 3.15145 5.57418 3.1515 5.67421 3.15155L7.09133 3.15235C7.18036 3.1524 7.26832 3.15245 7.35523 3.15251L8.34829 3.15316C8.42697 3.15321 8.50464 3.15327 8.58132 3.15332L9.45477 3.15398C9.52373 3.15403 9.59176 3.15409 9.65886 3.15415L10.4204 3.15481C10.4803 3.15487 10.5393 3.15493 10.5975 3.15498L11.098 3.15549C11.1512 3.15555 11.2034 3.15561 11.2549 3.15566L11.8346 3.15635C11.8798 3.15641 11.9242 3.15647 11.9679 3.15653L12.4573 3.15723C12.4953 3.15728 12.5325 3.15734 12.5691 3.1574L12.8801 3.15793C12.9127 3.15799 12.9447 3.15805 12.976 3.15811L13.3225 3.15883C13.349 3.15889 13.3749 3.15895 13.4003 3.15901L13.6135 3.15956C13.6356 3.15962 13.6571 3.15968 13.6782 3.15974L13.9068 3.16048C13.9239 3.16054 13.9406 3.1606 13.9568 3.16066L14.091 3.16122C14.1047 3.16129 14.1179 3.16135 14.1307 3.16141L14.2665 3.16217C14.2764 3.16223 14.2859 3.1623 14.2951 3.16236L14.3691 3.16293C14.3764 3.163 14.3834 3.16306 14.3901 3.16313L14.4434 3.16371C14.4486 3.16377 14.4535 3.16384 14.4581 3.1639L14.4944 3.16449C14.4978 3.16456 14.501 3.16462 14.5041 3.16469L14.527 3.16528C14.5291 3.16535 14.531 3.16541 14.5329 3.16548L14.5495 3.16628C14.5505 3.16635 14.5514 3.16642 14.5523 3.16648C14.5601 3.16723 14.5613 3.16737 14.5624 3.1675C15.008 3.23382 15.4 3.47209 15.6672 3.83891C15.9344 4.20492 16.0464 4.65607 15.9824 5.10805L15.2232 10.4777C15.08 11.4996 14.2128 12.2701 13.2048 12.2701H4.46797C3.41437 12.2701 2.52237 11.4283 2.43677 10.3516L1.70396 1.43165L0.498358 1.21877C0.171157 1.15981 -0.0472441 0.84294 0.00875608 0.508052C0.0663563 0.173165 0.382357 -0.044635 0.702359 0.00776795ZM3.58816 4.37878L3.15037 4.3785L3.63277 10.2509C3.66797 10.7029 4.02877 11.0419 4.46957 11.0419H13.2032C13.62 11.0419 13.976 10.7242 14.0352 10.3025L14.7952 4.93201C14.8128 4.80428 14.7816 4.67654 14.7056 4.57337C14.6304 4.46939 14.52 4.40225 14.3952 4.38423C14.3894 4.38446 14.3756 4.38467 14.3542 4.38485L14.2671 4.38536C14.2489 4.38544 14.2289 4.38551 14.2071 4.38558L13.7539 4.38628C13.7157 4.38631 13.6759 4.38633 13.6347 4.38635L12.5691 4.38631C12.5097 4.38629 12.4491 4.38626 12.3874 4.38623L11.1713 4.38548C11.0985 4.38542 11.0248 4.38537 10.9504 4.38531L10.2623 4.38474C10.1839 4.38468 10.105 4.38461 10.0254 4.38454L9.29658 4.38388C9.21427 4.38381 9.13156 4.38373 9.04851 4.38365L8.54644 4.38318C8.4622 4.3831 8.37771 4.38302 8.29303 4.38294L7.52686 4.38221C7.44143 4.38213 7.35596 4.38204 7.27047 4.38196L6.75795 4.38147C6.67266 4.38139 6.58747 4.38131 6.50241 4.38123L5.99425 4.38076C5.90997 4.38068 5.82594 4.38061 5.74221 4.38053L4.9978 4.37988C4.91626 4.37981 4.83516 4.37974 4.75455 4.37967L3.8138 4.37894C3.73789 4.37888 3.66265 4.37883 3.58816 4.37878ZM11.9183 6.17682C12.2495 6.17682 12.5183 6.45194 12.5183 6.79092C12.5183 7.1299 12.2495 7.40502 11.9183 7.40502H9.70071C9.36871 7.40502 9.10071 7.1299 9.10071 6.79092C9.10071 6.45194 9.36871 6.17682 9.70071 6.17682H11.9183Z" fill="white"/>
</svg>
