<svg width="18" height="20" viewBox="0 0 18 20" fill="none" xmlns="http://www.w3.org/2000/svg">
    <path fill-rule="evenodd" clip-rule="evenodd" d="M12.7324 0C13.1146 0 13.4247 0.312557 13.4247 0.697671L13.4251 1.48633C14.7729 1.57945 15.8923 2.04469 16.6846 2.84473C17.5495 3.72008 18.0045 4.97867 18 6.48844V14.9749C18 18.0744 16.0467 20 12.9036 20H5.09629C1.95322 20 0 18.0475 0 14.9042V6.48658C0 3.56305 1.74189 1.68645 4.58277 1.48665L4.58334 0.697671C4.58334 0.312557 4.89349 0 5.27564 0C5.65779 0 5.96795 0.312557 5.96795 0.697671L5.96767 1.46883H12.0396L12.0401 0.697671C12.0401 0.312557 12.3503 0 12.7324 0ZM16.6153 8.28275H1.38461V14.9042C1.38461 17.2912 2.70276 18.6047 5.09629 18.6047H12.9036C15.2972 18.6047 16.6154 17.3154 16.6154 14.9749L16.6153 8.28275ZM13.1087 14.136C13.4909 14.136 13.8011 14.4486 13.8011 14.8337C13.8011 15.2188 13.4909 15.5314 13.1087 15.5314C12.7266 15.5314 12.4128 15.2188 12.4128 14.8337C12.4128 14.4486 12.7183 14.136 13.1004 14.136H13.1087ZM9.01261 14.136C9.39476 14.136 9.70492 14.4486 9.70492 14.8337C9.70492 15.2188 9.39476 15.5314 9.01261 15.5314C8.63046 15.5314 8.31661 15.2188 8.31661 14.8337C8.31661 14.4486 8.62215 14.136 9.0043 14.136H9.01261ZM4.90789 14.136C5.29004 14.136 5.60019 14.4486 5.60019 14.8337C5.60019 15.2188 5.29004 15.5314 4.90789 15.5314C4.52574 15.5314 4.21097 15.2188 4.21097 14.8337C4.21097 14.4486 4.51743 14.136 4.89958 14.136H4.90789ZM12.0396 2.86417H5.96767L5.96795 3.75905C5.96795 4.14417 5.65779 4.45672 5.27564 4.45672C4.89349 4.45672 4.58334 4.14417 4.58334 3.75905L4.58285 2.88529C2.51495 3.06035 1.38461 4.32357 1.38461 6.48658V6.88741H16.6153L16.6154 6.48658C16.619 5.33774 16.3126 4.44472 15.7042 3.83077C15.1703 3.29106 14.3897 2.96873 13.4255 2.88574L13.4247 3.75905C13.4247 4.14417 13.1146 4.45672 12.7324 4.45672C12.3503 4.45672 12.0401 4.14417 12.0401 3.75905L12.0396 2.86417Z" fill="black"/>
    <rect x="3" y="10" width="12" height="6" rx="1" fill="#25282B"/>
</svg>
