<svg height="24" viewBox="0 0 24 24" width="24" xmlns="http://www.w3.org/2000/svg"><path d="m10 0c5.514 0 10 4.486 10 10s-4.486 10-10 10-10-4.486-10-10 4.486-10 10-10zm0 1.5c-4.687 0-8.5 3.813-8.5 8.5s3.813 8.5 8.5 8.5 8.5-3.813 8.5-8.5-3.813-8.5-8.5-8.5zm.0039 11.2959c.553 0 1 .447 1 1s-.447 1-1 1-1.005-.447-1.005-1 .443-1 .995-1zm-.0098-7.3419c.414 0 .75.336.75.75v4.419c0 .414-.336.75-.75.75s-.75-.336-.75-.75v-4.419c0-.414.336-.75.75-.75z" fill-rule="evenodd" transform="translate(2 2)"/></svg>