<svg width="10" height="10" viewBox="0 0 10 10" fill="none" xmlns="http://www.w3.org/2000/svg">
<g clip-path="url(#clip0)">
<path d="M7.88602 4.47267L7.44668 3.97267C7.32535 3.83467 7.11535 3.82133 6.97668 3.942L5.66668 5.09V0.333333C5.66668 0.149333 5.51735 0 5.33335 0H4.66668C4.48268 0 4.33335 0.149333 4.33335 0.333333V5.09L3.02335 3.942C2.88535 3.82133 2.67535 3.83467 2.55335 3.97267L2.11402 4.472C1.99202 4.61067 2.00602 4.822 2.14468 4.94333L4.78068 7.25067C4.90668 7.36067 5.09402 7.36067 5.22002 7.25067L7.85535 4.94333C7.99402 4.822 8.00802 4.61067 7.88602 4.47267Z" fill="white"/>
<path d="M8.66667 8.66602H1.33333C1.14933 8.66602 1 8.81535 1 8.99935V9.66601C1 9.85001 1.14933 9.99935 1.33333 9.99935H8.66667C8.85066 9.99935 9 9.85001 9 9.66601V8.99935C9 8.81535 8.85066 8.66602 8.66667 8.66602Z" fill="white"/>
</g>
<defs>
<clipPath id="clip0">
<rect width="10" height="10" fill="white"/>
</clipPath>
</defs>
</svg>
