<svg width="11" height="10" viewBox="0 0 11 10" fill="none" xmlns="http://www.w3.org/2000/svg">
    <path d="M6.17572 4.99929L9.7561 1.42723C9.91289 1.27044 10.001 1.05779 10.001 0.836054C10.001 0.614319 9.91289 0.401665 9.7561 0.244875C9.59931 0.0880841 9.38666 0 9.16492 0C8.94319 0 8.73053 0.0880841 8.57374 0.244875L5.00169 3.82526L1.42963 0.244875C1.27284 0.0880841 1.06019 -1.65206e-09 0.838452 0C0.616716 1.65206e-09 0.404063 0.0880841 0.247272 0.244875C0.0904816 0.401665 0.00239756 0.614319 0.00239756 0.836054C0.00239756 1.05779 0.0904816 1.27044 0.247272 1.42723L3.82766 4.99929L0.247272 8.57135C0.169229 8.64875 0.107285 8.74084 0.0650131 8.84231C0.0227407 8.94377 0.000976562 9.05261 0.000976562 9.16253C0.000976562 9.27244 0.0227407 9.38128 0.0650131 9.48274C0.107285 9.58421 0.169229 9.6763 0.247272 9.7537C0.324678 9.83175 0.416769 9.89369 0.518235 9.93596C0.619701 9.97824 0.728532 10 0.838452 10C0.948371 10 1.0572 9.97824 1.15867 9.93596C1.26013 9.89369 1.35223 9.83175 1.42963 9.7537L5.00169 6.17332L8.57374 9.7537C8.65115 9.83175 8.74324 9.89369 8.84471 9.93596C8.94617 9.97824 9.055 10 9.16492 10C9.27484 10 9.38367 9.97824 9.48514 9.93596C9.58661 9.89369 9.6787 9.83175 9.7561 9.7537C9.83414 9.6763 9.89609 9.58421 9.93836 9.48274C9.98063 9.38128 10.0024 9.27244 10.0024 9.16253C10.0024 9.05261 9.98063 8.94377 9.93836 8.84231C9.89609 8.74084 9.83414 8.64875 9.7561 8.57135L6.17572 4.99929Z" fill="#FF6600"/>
</svg>
