<svg width="20" height="21" viewBox="0 0 20 21" fill="none" xmlns="http://www.w3.org/2000/svg">
    <path fill-rule="evenodd" clip-rule="evenodd" d="M3.81511 10.9566L2.16443 17.9118C2.0919 18.2164 2.27539 18.3955 2.3588 18.4586C2.4422 18.5217 2.6634 18.653 2.94118 18.5028L17.4593 10.6179C17.7154 10.4779 17.7436 10.2364 17.7436 10.1406C17.7451 10.0464 17.7146 9.81138 17.468 9.67358L2.97599 1.74654C2.70112 1.59641 2.47629 1.72841 2.39288 1.79151C2.30803 1.85605 2.12019 2.03809 2.18981 2.34415L3.82019 9.41829L11.5514 9.37768C11.9757 9.3755 12.3224 9.71782 12.3253 10.1428C12.3282 10.5678 11.9844 10.9145 11.5601 10.9167L3.81511 10.9566ZM1.20999 19.4943C0.705215 18.9895 0.499243 18.27 0.667502 17.5564L2.41827 10.182L0.691434 2.68937C0.505769 1.88144 0.800222 1.0677 1.46311 0.565825C2.12526 0.0632227 2.98759 0.000125419 3.71357 0.39684L18.2056 8.32388C18.8721 8.68869 19.2819 9.38421 19.2834 10.1428C19.2812 10.9051 18.8642 11.6049 18.1926 11.969L3.67514 19.8533C2.94553 20.2507 2.0832 20.1847 1.42467 19.6814C1.34779 19.6219 1.27672 19.561 1.20999 19.4943Z" fill="black"/>
</svg>

