<svg width="14" height="13" viewBox="0 0 14 13" fill="none" xmlns="http://www.w3.org/2000/svg">
<path d="M13.3 7.15H7.70004V12.35C7.70004 12.7088 7.3864 13 6.99996 13C6.61364 13 6.3 12.7088 6.3 12.35V7.15H0.699957C0.313641 7.15 0 6.85876 0 6.50004C0 6.1412 0.313641 5.84996 0.699957 5.84996H6.3V0.650039C6.3 0.291198 6.61364 -4.00543e-05 6.99996 -4.00543e-05C7.3864 -4.00543e-05 7.70004 0.291198 7.70004 0.650039V5.84996H13.3C13.6864 5.84996 14 6.1412 14 6.50004C14 6.85876 13.6864 7.15 13.3 7.15Z" fill="#25282B"/>
</svg>
