<svg width="4" height="14" viewBox="0 0 4 14" fill="none" xmlns="http://www.w3.org/2000/svg">
<path d="M2.00003 3.11114C2.85914 3.11114 3.55559 2.41468 3.55559 1.55557C3.55559 0.696451 2.85914 0 2.00003 0C1.14091 0 0.444458 0.696451 0.444458 1.55557C0.444458 2.41468 1.14091 3.11114 2.00003 3.11114Z" fill="#25282B"/>
<path d="M2.00003 8.55645C2.85914 8.55645 3.55559 7.86 3.55559 7.00088C3.55559 6.14176 2.85914 5.44531 2.00003 5.44531C1.14091 5.44531 0.444458 6.14176 0.444458 7.00088C0.444458 7.86 1.14091 8.55645 2.00003 8.55645Z" fill="#25282B"/>
<path d="M2.00003 13.9998C2.85914 13.9998 3.55559 13.3034 3.55559 12.4442C3.55559 11.5851 2.85914 10.8887 2.00003 10.8887C1.14091 10.8887 0.444458 11.5851 0.444458 12.4442C0.444458 13.3034 1.14091 13.9998 2.00003 13.9998Z" fill="#25282B"/>
</svg>
