<svg width="15" height="24" viewBox="0 0 15 24" fill="none" xmlns="http://www.w3.org/2000/svg">
    <path d="M7.96709 17.2903C8.65849 17.8407 9.35122 18.3478 9.97692 18.7849C9.60598 19.1238 9.32047 19.5547 9.15644 20.0415C8.49978 19.5837 7.76703 19.0483 7.03291 18.4639C5.88953 17.5538 4.71989 16.5069 3.8293 15.4347C3.70194 15.2813 3.57791 15.1247 3.45898 14.9652C3.98921 14.8838 4.47369 14.6636 4.87414 14.3428C4.90966 14.387 4.94601 14.4315 4.9832 14.4763C5.78011 15.4358 6.86047 16.4094 7.96709 17.2903Z" fill="black"/>
    <path d="M9.15651 3.95898C8.49983 4.41684 7.76704 4.95236 7.03289 5.53681C5.88952 6.44701 4.71989 7.49387 3.82931 8.56606C3.70206 8.71926 3.57813 8.87576 3.4593 9.03506C3.9895 9.11652 4.47396 9.3368 4.87438 9.65761C4.90981 9.61353 4.94608 9.56915 4.98319 9.52448C5.78011 8.56504 6.86048 7.59131 7.96711 6.71036C8.65857 6.1599 9.35136 5.65268 9.97709 5.21549C9.60613 4.87657 9.32058 4.44571 9.15651 3.95898Z" fill="black"/>
    <circle cx="12" cy="21" r="2.5" stroke="black"/>
    <circle cx="12" cy="3" r="2.5" stroke="black"/>
    <circle cx="3" cy="12" r="2.5" stroke="black"/>
</svg>
