<svg width="264" height="264" viewBox="0 0 264 264" fill="none" xmlns="http://www.w3.org/2000/svg">
<path d="M244.464 123.256C244.464 123.256 244.464 123.209 244.464 123.13V122.781C244.464 122.464 244.464 122.016 244.464 121.445C244.464 120.273 244.464 118.589 244.422 116.461L244.501 116.54L218.814 116.593L218.946 116.461V118.188C218.946 118.763 218.946 119.333 218.946 119.904V123.246L218.819 123.119L237.125 123.177L242.526 123.214H243.989H244.369H244.506H244.39H244.021H242.59L237.215 123.251L218.819 123.309H218.692V123.182C218.692 122.091 218.692 120.977 218.692 119.84V116.398L218.824 116.266L244.512 116.318H244.591V116.398C244.591 118.541 244.559 120.247 244.549 121.429C244.549 121.994 244.549 122.433 244.549 122.749V123.082C244.533 123.146 244.505 123.205 244.464 123.256Z" fill="#E0E0E0"/>
<path d="M247.949 116.461C247.945 116.417 247.945 116.373 247.949 116.329C247.949 116.234 247.949 116.112 247.949 115.97C247.949 115.637 247.949 115.183 247.949 114.608C247.949 113.414 247.917 111.735 247.896 109.666L247.991 109.761L232.558 109.792L232.684 109.666V113.156C232.684 114.291 232.684 115.394 232.684 116.45L232.563 116.324L243.603 116.382L246.819 116.419H247.685H247.996C247.903 116.426 247.81 116.426 247.717 116.419H246.872L243.704 116.45L232.579 116.508H232.452V116.382C232.452 115.326 232.452 114.222 232.452 113.087V109.597L232.584 109.465L248.018 109.502H248.113V109.597C248.113 111.709 248.07 113.393 248.06 114.597C248.06 115.162 248.06 115.611 248.06 115.938C248.06 116.266 247.954 116.466 247.949 116.461Z" fill="#E0E0E0"/>
<path d="M52.447 51.0682H26.7598V57.8635H52.447V51.0682Z" fill="#EBEBEB"/>
<path d="M41.5858 65.0232C41.5811 64.9829 41.5811 64.9421 41.5858 64.9018V64.5533C41.5858 64.2312 41.5858 63.7877 41.5858 63.2174C41.5858 62.04 41.5858 60.3557 41.5435 58.2278L41.6227 58.307L15.9355 58.3598C15.9936 58.3018 15.8035 58.4918 16.0622 58.2278V65.0126L15.9355 64.8859L34.2413 64.944L39.6427 64.981H41.1053H41.4854H41.6227H41.5013H41.137H39.7061L34.3205 65.0971L15.925 65.1552H15.793V58.2384C16.057 57.9797 15.8669 58.1645 15.925 58.1064L41.6122 58.1592H41.6914V58.2384C41.6914 60.3874 41.6597 62.0875 41.6491 63.2755C41.6491 63.8352 41.6491 64.2787 41.6491 64.5902C41.6491 64.7275 41.6491 64.8384 41.6491 64.9282C41.6308 64.9616 41.6096 64.9934 41.5858 65.0232Z" fill="#E0E0E0"/>
<path d="M70.7897 150.828H45.1025V157.624H70.7897V150.828Z" fill="#EBEBEB"/>
<path d="M59.9286 164.784C59.9246 164.743 59.9246 164.702 59.9286 164.662V164.314C59.9286 163.992 59.9286 163.548 59.9286 162.972C59.9286 161.8 59.9022 160.116 59.8863 157.988L59.9655 158.067L34.2783 158.12C34.3364 158.062 34.1463 158.247 34.4051 157.988V164.773L34.2731 164.646L52.5841 164.704L57.9855 164.741H59.4481H59.8283H59.9655H59.8441H59.4798H58.0436L52.6686 164.778L34.2731 164.836H34.1094V157.999L34.2414 157.867L59.9286 157.92H60.0078V157.999C60.0078 160.142 59.9708 161.848 59.9603 163.031C59.9603 163.595 59.9603 164.034 59.9603 164.351C59.9603 164.488 59.9603 164.599 59.9603 164.688C59.9519 164.721 59.9413 164.753 59.9286 164.784Z" fill="#E0E0E0"/>
<path d="M242.722 188.063H217.035V194.858H242.722V188.063Z" fill="#EBEBEB"/>
<path d="M231.861 202.018C231.859 201.978 231.859 201.937 231.861 201.897V201.548C231.861 201.226 231.861 200.783 231.861 200.212C231.861 199.035 231.835 197.351 231.813 195.223L231.893 195.302L206.205 195.355L206.337 195.223V198.665C206.337 199.801 206.337 200.915 206.337 202.008L206.211 201.881L224.516 201.939L229.923 201.976H231.38H231.766H231.898C231.898 201.976 231.861 201.976 231.782 201.976H231.412H229.981L224.606 202.008L206.211 202.071H206.084V201.939C206.084 200.844 206.084 199.73 206.084 198.597V195.154L206.216 195.022L231.903 195.075H231.988V195.154C231.988 197.303 231.956 199.003 231.945 200.191C231.945 200.751 231.945 201.194 231.945 201.506C231.945 201.643 231.945 201.754 231.945 201.844C231.945 201.934 231.866 202.023 231.861 202.018Z" fill="#E0E0E0"/>
<path d="M132.76 25.6503C132.756 25.6099 132.756 25.5692 132.76 25.5288V25.1803C132.76 24.8583 132.76 24.4147 132.76 23.8445C132.76 22.6723 132.734 20.9827 132.718 18.8549L132.797 18.9341L107.11 18.9869L107.242 18.8549V25.6503L107.115 25.5235L125.421 25.5816L130.823 25.6186H132.285H132.665H132.803C132.803 25.6186 132.766 25.6186 132.681 25.6186H132.317H130.886L125.511 25.6555L107.115 25.7136H106.983V18.8602L107.115 18.7335L132.803 18.781H132.882V18.8602C132.882 21.0091 132.85 22.7093 132.84 23.8973C132.84 24.4623 132.84 24.9005 132.84 25.2173V25.5499C132.817 25.5859 132.79 25.6195 132.76 25.6503Z" fill="#E0E0E0"/>
<path d="M136.225 18.8549C136.217 18.813 136.217 18.7701 136.225 18.7282C136.225 18.6278 136.225 18.5117 136.225 18.3691C136.225 18.0312 136.225 17.5771 136.198 17.0069C136.198 15.8136 136.172 14.1293 136.151 12.0595L136.225 12.144L120.791 12.181C120.67 12.2971 120.95 12.0226 120.918 12.049V15.5443C120.918 16.6848 120.918 17.783 120.918 18.839L120.791 18.7176L131.837 18.7757L135.052 18.8074H135.918H136.23C136.137 18.8146 136.043 18.8146 135.95 18.8074H135.105L131.937 18.8443L120.807 19.008H120.686V18.8813C120.686 17.8253 120.686 16.727 120.686 15.5866V12.0648L120.818 11.9328L136.251 11.9698H136.346V12.0648C136.346 14.1768 136.309 15.8611 136.298 17.065C136.298 17.6299 136.298 18.0787 136.272 18.4061C136.264 18.5564 136.248 18.7062 136.225 18.8549Z" fill="#E0E0E0"/>
<path d="M39.8696 221.195C39.8673 221.155 39.8673 221.114 39.8696 221.074V220.725C39.8696 220.403 39.8696 219.96 39.8696 219.384C39.8696 218.212 39.8696 216.528 39.8221 214.4L39.9013 214.479L14.2141 214.532L14.3461 214.4V217.842C14.3461 218.976 14.3461 220.09 14.3461 221.185L14.2193 221.058L32.5251 221.116L37.9318 221.153H39.3891H39.7745H39.9065C39.9065 221.153 39.8696 221.153 39.7904 221.153H39.3891H37.9529L32.5779 221.19L14.1824 221.248H14.0557V217.853C14.0557 217.288 14.0557 216.712 14.0557 216.137V214.41L14.1877 214.278L39.8749 214.331H39.9593V214.41C39.9593 216.559 39.9224 218.259 39.9118 219.442C39.9118 220.007 39.9118 220.451 39.9118 220.762V221.1C39.8749 221.163 39.8749 221.2 39.8696 221.195Z" fill="#E0E0E0"/>
<path d="M43.3544 214.4C43.3544 214.4 43.3544 214.352 43.3544 214.273C43.3544 214.194 43.3544 214.056 43.3544 213.909C43.3544 213.576 43.3544 213.122 43.3544 212.546C43.3544 211.358 43.3227 209.674 43.3016 207.604L43.3966 207.699L27.9632 207.736L28.0952 207.604V209.363C28.0952 209.949 28.0952 210.524 28.0952 211.094C28.0952 212.23 28.0952 213.333 28.0952 214.389L27.9738 214.262L39.0142 214.326L42.2298 214.357H43.0957H43.4072C43.3141 214.365 43.2205 214.365 43.1274 214.357H42.2878L39.1198 214.389L27.9949 214.452H27.8682V214.326C27.8682 213.27 27.8682 212.166 27.8682 211.031V207.541L28.0002 207.409L43.4336 207.446H43.5286V207.541C43.5286 209.653 43.4917 211.337 43.4758 212.541C43.4758 213.106 43.4758 213.555 43.4758 213.882C43.4485 214.058 43.4079 214.23 43.3544 214.4Z" fill="#E0E0E0"/>
<path d="M235.167 25.6608H209.479V32.4562H235.167V25.6608Z" fill="#EBEBEB"/>
<path d="M224.305 39.6C224.3 39.5596 224.3 39.5189 224.305 39.4786V39.1301C224.305 38.808 224.305 38.3645 224.305 37.789C224.305 36.6168 224.279 34.9325 224.263 32.8046L224.342 32.8838L198.655 32.9366C198.713 32.8786 198.523 33.0634 198.781 32.8046V39.6L198.655 39.4733L216.96 39.5314L222.362 39.5683H223.824H224.205H224.342C224.302 39.5733 224.261 39.5733 224.22 39.5683H223.856H222.42L217.008 39.6845L198.612 39.7426H198.48V32.831L198.612 32.699L224.3 32.7518H224.4V32.831C224.4 34.9747 224.363 36.6802 224.358 37.8629C224.358 38.4278 224.358 38.8661 224.358 39.1829C224.358 39.3202 224.358 39.431 224.358 39.5208C224.342 39.5485 224.324 39.5749 224.305 39.6Z" fill="#E0E0E0"/>
<path d="M252.384 250.7C252.384 250.779 198.481 250.842 132 250.842C65.5197 250.842 11.6162 250.8 11.6162 250.7C11.6162 250.599 65.5039 250.562 132 250.562C198.497 250.562 252.384 250.626 252.384 250.7Z" fill="#263238"/>
<path d="M125.12 37.4827L100.415 129.228V250.7H211.453V38.0054L125.12 37.4827Z" fill="#E0E0E0"/>
<path d="M104.164 131.435L123.177 57.647L133.695 71.4014L119.941 125.4L104.164 131.435Z" fill="#E0E0E0"/>
<path d="M123.177 57.647H175.539L173.015 71.3433L133.695 71.4014L123.177 57.647Z" fill="#E0E0E0"/>
<g opacity="0.3">
<path opacity="0.3" d="M104.164 131.435L123.177 57.647L133.695 71.4014L119.941 125.4L104.164 131.435Z" fill="black"/>
</g>
<g opacity="0.3">
<path opacity="0.3" d="M123.177 57.647H175.539L173.015 71.3433L133.695 71.4014L123.177 57.647Z" fill="black"/>
</g>
<path d="M119.94 125.4H163.284L173.015 71.3434L133.695 71.4015L119.94 125.4Z" fill="#E0E0E0"/>
<path d="M104.164 131.435H163.311V125.4H119.941L104.164 131.435Z" fill="#E0E0E0"/>
<path d="M108.652 239.137H109.592H112.317L122.734 239.11L160.692 239.052L160.586 239.158C160.586 215.45 160.586 184.652 160.555 151.103L160.692 151.24H108.652L108.779 151.114C108.753 176.922 108.731 198.924 108.716 214.474C108.716 222.256 108.689 228.423 108.684 232.653C108.684 234.765 108.684 236.391 108.684 237.494C108.684 238.022 108.684 238.461 108.684 238.746C108.684 239.031 108.684 239.173 108.684 239.173C108.684 239.173 108.684 239.036 108.684 238.762C108.684 238.487 108.684 238.065 108.684 237.526C108.684 236.428 108.684 234.807 108.684 232.711C108.684 228.487 108.684 222.33 108.652 214.558C108.652 198.987 108.615 176.959 108.589 151.114V150.982H160.829V151.119C160.829 184.668 160.829 215.466 160.798 239.173V239.284H160.692L122.676 239.226L112.274 239.184H109.566L108.652 239.137Z" fill="#263238"/>
<g opacity="0.3">
<path opacity="0.3" d="M168.606 250.7V125.4L184.499 37.8418L211.454 38.0055V250.7H168.606Z" fill="black"/>
</g>
<path d="M127.195 53.196L129.566 44.2358H177.614L175.301 53.196H127.195Z" fill="#FF6600"/>
<path d="M104.164 131.435C104.164 131.435 104.259 131.388 104.444 131.314L105.262 130.981L108.43 129.745L119.925 125.3L119.861 125.374C121.741 118.029 124.175 108.546 126.826 98.2186C129.408 88.2447 131.784 79.0575 133.653 71.8186V71.9083L126.023 61.5331C125.126 60.3029 124.439 59.3367 123.911 58.6714C123.684 58.3493 123.505 58.0959 123.383 57.9163C123.262 57.7368 123.209 57.6523 123.209 57.6523C123.209 57.6523 123.283 57.7315 123.41 57.8952C123.536 58.0589 123.737 58.3176 123.975 58.6344L126.087 61.4592L133.827 71.808L133.859 71.845V71.8978C132.005 79.1314 129.635 88.3239 127.085 98.2978C124.413 108.62 121.963 118.098 120.062 125.437V125.49H120.009L108.451 129.888L105.283 131.065L104.454 131.366C104.264 131.409 104.164 131.435 104.164 131.435Z" fill="#263238"/>
<path d="M132.728 89.5118C132.57 90.0662 129.782 100.663 129.782 100.663H136.308L139.202 89.5118H132.728Z" fill="#455A64"/>
<path d="M139.778 88.3027H132.734L133.136 86.9299H140.179L139.778 88.3027Z" fill="#455A64"/>
<path d="M140.031 87.5793C138.862 87.7153 137.685 87.7612 136.509 87.7166C135.333 87.7609 134.156 87.715 132.987 87.5793C134.156 87.4436 135.333 87.3977 136.509 87.4421C137.685 87.3975 138.862 87.4434 140.031 87.5793Z" fill="#263238"/>
<path d="M134.989 105.199H127.945L128.341 103.826H135.385L134.989 105.199Z" fill="#455A64"/>
<path d="M135.242 104.475C134.073 104.614 132.896 104.66 131.72 104.613C130.544 104.66 129.367 104.615 128.198 104.475C129.367 104.339 130.544 104.294 131.72 104.338C132.896 104.294 134.073 104.34 135.242 104.475Z" fill="#263238"/>
<path d="M145.39 121.551H125.12L125.754 118.135H146.029L145.39 121.551Z" fill="#455A64"/>
<path d="M144.709 119.856C144.709 119.93 140.617 119.993 135.574 119.993C130.532 119.993 126.435 119.93 126.435 119.856C126.435 119.782 130.527 119.719 135.574 119.719C140.622 119.719 144.709 119.766 144.709 119.856Z" fill="#263238"/>
<path d="M132.987 93.72H136.873L135.458 91.4549L132.987 93.72Z" fill="#263238"/>
<path d="M133.695 93.72L132.29 98.7412H135.025L136.155 93.72H133.695Z" fill="#263238"/>
<path d="M144.888 78.1968L137.301 109.248H166.193L171.922 78.3341L144.888 78.1968Z" fill="#263238"/>
<path d="M148.136 81.2698L142.265 105.875L166.811 105.917L171.394 81.1694L148.136 81.2698Z" fill="#455A64"/>
<path d="M144.952 78.3869C145.571 78.7711 146.139 79.2324 146.642 79.7597C147.206 80.2232 147.709 80.7553 148.141 81.3437C147.524 80.9574 146.956 80.4963 146.452 79.9709C145.89 79.5054 145.386 78.9736 144.952 78.3869Z" fill="#455A64"/>
<path d="M142.122 105.711C141.477 106.505 140.723 107.203 139.883 107.786C139.093 108.436 138.215 108.969 137.275 109.37C137.232 109.301 138.383 108.573 139.714 107.559C141.044 106.545 142.064 105.653 142.122 105.711Z" fill="#455A64"/>
<g opacity="0.1">
<path opacity="0.1" d="M104.164 131.435H163.311V125.4H119.941L104.164 131.435Z" fill="black"/>
</g>
<path d="M153.247 91.8245C153.459 91.9135 153.678 91.9859 153.902 92.041C154.178 92.1048 154.45 92.1877 154.715 92.2891C154.929 92.3764 155.12 92.5141 155.269 92.6904C155.428 92.8874 155.51 93.1347 155.502 93.3874C155.508 93.6145 155.464 93.8403 155.372 94.0484C155.281 94.2565 155.145 94.4419 154.974 94.5912C154.561 94.9315 154.051 95.1329 153.516 95.1667L153.358 95.9534H152.492L152.651 95.1667C152.326 95.1429 152.005 95.0808 151.695 94.9819C151.434 94.9071 151.186 94.7913 150.961 94.6387L151.531 93.5827C151.782 93.7471 152.056 93.8718 152.344 93.9523C152.625 94.0361 152.917 94.0788 153.21 94.079C153.431 94.091 153.652 94.0512 153.854 93.9629C153.92 93.9357 153.976 93.8904 154.016 93.8324C154.056 93.7744 154.079 93.7061 154.081 93.6355C154.079 93.573 154.058 93.5125 154.022 93.4618C153.985 93.411 153.934 93.3723 153.875 93.3504C153.666 93.2588 153.449 93.1864 153.226 93.1339C152.949 93.0648 152.678 92.9766 152.413 92.8699C152.197 92.777 152.006 92.6362 151.853 92.4581C151.688 92.2563 151.603 92.0005 151.616 91.74C151.609 91.5059 151.657 91.2734 151.754 91.0603C151.85 90.8471 151.995 90.6588 152.175 90.5098C152.609 90.1642 153.142 89.9679 153.696 89.9501L153.849 89.1686H154.704L154.546 89.9659C155.011 89.9968 155.461 90.1379 155.861 90.3778L155.333 91.4338C155.133 91.3083 154.916 91.2123 154.689 91.1486C154.449 91.0853 154.202 91.0533 153.955 91.0536C153.723 91.0403 153.492 91.0877 153.284 91.1909C153.215 91.222 153.155 91.2714 153.111 91.3336C153.068 91.3959 153.042 91.4688 153.036 91.5446C153.04 91.6069 153.062 91.6667 153.099 91.7164C153.137 91.7662 153.188 91.8038 153.247 91.8245Z" fill="white"/>
<path d="M157.925 91.8245C158.139 91.9133 158.36 91.9857 158.585 92.041C158.861 92.1055 159.133 92.1884 159.398 92.2891C159.602 92.3807 159.783 92.518 159.926 92.6904C160.089 92.885 160.172 93.134 160.158 93.3874C160.162 93.6141 160.116 93.839 160.025 94.0466C159.934 94.2543 159.799 94.44 159.63 94.5912C159.216 94.9297 158.707 95.1308 158.173 95.1667L158.009 95.9534H157.144L157.302 95.1667C156.977 95.1422 156.657 95.0801 156.346 94.9819C156.086 94.9049 155.838 94.7892 155.612 94.6387L156.183 93.5827C156.686 93.9036 157.27 94.0756 157.867 94.079C158.086 94.0906 158.305 94.0508 158.506 93.9629C158.572 93.9368 158.628 93.8918 158.669 93.8336C158.709 93.7753 158.732 93.7064 158.733 93.6355C158.73 93.573 158.71 93.5125 158.673 93.4618C158.636 93.411 158.586 93.3723 158.527 93.3504C158.319 93.2586 158.104 93.1861 157.883 93.1339C157.604 93.0648 157.331 92.9766 157.064 92.8699C156.85 92.7758 156.658 92.6351 156.505 92.4581C156.341 92.2555 156.259 91.9998 156.272 91.74C156.266 91.5064 156.313 91.2745 156.409 91.0615C156.505 90.8485 156.648 90.6599 156.827 90.5098C157.262 90.1641 157.797 89.9679 158.353 89.9501L158.506 89.1686H159.372L159.213 89.9659C159.678 89.9968 160.129 90.1379 160.528 90.3778L160 91.4338C159.798 91.3092 159.579 91.2133 159.351 91.1486C159.111 91.0849 158.864 91.053 158.617 91.0536C158.387 91.0403 158.157 91.0876 157.951 91.1909C157.881 91.2211 157.821 91.2701 157.777 91.3326C157.733 91.3951 157.708 91.4685 157.703 91.5446C157.708 91.6082 157.731 91.6689 157.771 91.7188C157.81 91.7687 157.864 91.8055 157.925 91.8245Z" fill="white"/>
<path d="M162.624 91.8245C162.836 91.9135 163.055 91.9859 163.278 92.041C163.555 92.1048 163.826 92.1877 164.091 92.2891C164.306 92.3764 164.496 92.5141 164.646 92.6904C164.804 92.8874 164.887 93.1347 164.878 93.3874C164.881 93.6141 164.836 93.839 164.745 94.0466C164.654 94.2543 164.519 94.44 164.35 94.5912C163.934 94.9307 163.423 95.1319 162.888 95.1667L162.729 95.9534H161.863L162.022 95.1667C161.697 95.1429 161.376 95.0808 161.066 94.9819C160.805 94.906 160.558 94.7902 160.332 94.6387L160.902 93.5827C161.153 93.7462 161.427 93.8708 161.715 93.9523C161.998 94.0364 162.292 94.0791 162.587 94.079C162.806 94.0906 163.024 94.0508 163.225 93.9629C163.291 93.9368 163.348 93.8918 163.389 93.8336C163.429 93.7753 163.451 93.7064 163.453 93.6355C163.45 93.573 163.429 93.5125 163.393 93.4618C163.356 93.411 163.305 93.3723 163.247 93.3504C163.037 93.2588 162.82 93.1864 162.597 93.1339C162.32 93.0648 162.049 92.9766 161.784 92.8699C161.569 92.7758 161.378 92.6351 161.224 92.4581C161.059 92.2563 160.975 92.0005 160.987 91.74C160.98 91.5059 161.028 91.2734 161.125 91.0603C161.222 90.8471 161.366 90.6588 161.546 90.5098C161.98 90.1642 162.513 89.9679 163.067 89.9501L163.22 89.1686H164.086L163.928 89.9659C164.393 89.9958 164.844 90.137 165.242 90.3778L164.714 91.4338C164.514 91.3083 164.298 91.2123 164.07 91.1486C163.831 91.0853 163.584 91.0533 163.336 91.0536C163.105 91.0403 162.874 91.0877 162.666 91.1909C162.596 91.222 162.537 91.2714 162.493 91.3336C162.449 91.3959 162.423 91.4688 162.418 91.5446C162.421 91.6063 162.442 91.6656 162.479 91.7153C162.515 91.765 162.566 91.803 162.624 91.8245Z" fill="white"/>
<g opacity="0.3">
<path opacity="0.3" d="M155.332 189.837C155.332 190.319 155.189 190.789 154.922 191.189C154.654 191.59 154.274 191.902 153.829 192.086C153.385 192.27 152.895 192.318 152.423 192.224C151.951 192.131 151.517 191.899 151.177 191.558C150.836 191.218 150.605 190.784 150.511 190.312C150.417 189.84 150.465 189.35 150.649 188.906C150.833 188.461 151.145 188.081 151.546 187.813C151.946 187.546 152.417 187.403 152.898 187.403C153.218 187.402 153.535 187.465 153.83 187.587C154.126 187.709 154.394 187.888 154.621 188.114C154.847 188.341 155.026 188.609 155.148 188.905C155.27 189.2 155.333 189.517 155.332 189.837Z" fill="black"/>
</g>
<path d="M163.284 125.4C163.284 125.474 153.601 125.537 141.636 125.537C129.672 125.537 119.988 125.474 119.988 125.4C119.988 125.326 129.672 125.263 141.636 125.263C153.601 125.263 163.284 125.326 163.284 125.4Z" fill="#263238"/>
<path d="M173.512 71.354C173.512 71.4279 164.599 71.4912 153.601 71.4912C142.602 71.4912 133.685 71.4279 133.685 71.354C133.685 71.28 142.597 71.2167 153.601 71.2167C164.604 71.2167 173.512 71.28 173.512 71.354Z" fill="#263238"/>
<path d="M122.929 140.754C122.923 140.64 122.923 140.525 122.929 140.411C122.929 140.168 122.929 139.846 122.929 139.44C122.929 138.584 122.903 137.37 122.887 135.849L122.966 135.934C118.827 135.965 112.242 135.986 104.84 135.986C104.898 135.928 104.697 136.124 104.972 135.849V140.744L104.835 140.612L117.744 140.67L121.562 140.712H122.618H122.987C122.876 140.719 122.765 140.719 122.655 140.712H121.646L117.86 140.749L104.856 140.812H104.724V138.336C104.724 137.924 104.724 137.512 104.724 137.095V135.849C104.998 135.575 104.803 135.775 104.866 135.712C112.258 135.712 118.853 135.712 122.992 135.765H123.024V135.844C123.024 137.386 122.992 138.616 122.982 139.487C122.982 139.883 122.982 140.2 122.982 140.438C122.979 140.545 122.961 140.652 122.929 140.754Z" fill="#263238"/>
<path d="M121.641 138.157C121.641 138.23 118.246 138.294 114.054 138.294C109.861 138.294 106.472 138.23 106.472 138.157C106.472 138.083 109.867 138.019 114.054 138.019C118.241 138.019 121.641 138.077 121.641 138.157Z" fill="#263238"/>
<path d="M101.704 56.9871C98.5038 57.1719 96.3443 56.5805 93.377 55.0546L88.361 56.7548L89.8077 51.686C88.0019 49.5212 87.5267 47.2296 87.3525 44.1989C87.1982 41.5155 87.8431 38.8465 89.2056 36.5296C90.5682 34.2127 92.5871 32.3518 95.0072 31.1822C97.4273 30.0127 100.14 29.587 102.802 29.959C105.464 30.331 107.956 31.484 109.962 33.2722C111.969 35.0604 113.401 37.4035 114.076 40.0052C114.751 42.6069 114.639 45.3504 113.755 47.8887C112.871 50.4271 111.255 52.6463 109.109 54.2658C106.964 55.8853 104.387 56.8323 101.704 56.9871Z" fill="white"/>
<path d="M101.704 56.9871C101.781 56.9651 101.861 56.951 101.941 56.9448L102.623 56.8551C102.776 56.8551 102.945 56.8234 103.151 56.7917L103.747 56.6597L104.449 56.5013L105.22 56.2479C105.826 56.045 106.417 55.7997 106.989 55.514L107.94 54.9859C108.267 54.7906 108.578 54.5477 108.916 54.3207C110.567 53.1031 111.918 51.5245 112.866 49.7054C113.814 47.8863 114.334 45.8747 114.386 43.824C114.402 43.2122 114.376 42.6001 114.307 41.9919C114.26 41.6803 114.254 41.3688 114.18 41.0573C114.107 40.7458 114.048 40.4395 113.985 40.1227C113.653 38.8526 113.141 37.6364 112.464 36.5112C111.741 35.3339 110.852 34.267 109.824 33.3432C108.733 32.3941 107.5 31.621 106.171 31.0517C103.35 29.8587 100.206 29.6614 97.2581 30.492C96.0929 30.8257 94.9764 31.3103 93.937 31.9335C92.9253 32.5512 91.9987 33.2985 91.1808 34.1564L90.8746 34.4732L90.6 34.8111L90.072 35.4869L89.5915 36.205L89.3592 36.5587L89.1586 36.9389C89.0213 37.1871 88.8893 37.4405 88.7573 37.6887C88.6253 37.9368 88.5408 38.2167 88.4352 38.4648C88.2235 38.9803 88.0471 39.5095 87.9072 40.0488C87.411 42.125 87.3374 44.2797 87.6907 46.3848C87.8203 47.3686 88.074 48.3319 88.4458 49.2519C88.8087 50.1194 89.3 50.9274 89.903 51.649L89.9453 51.6965V51.7493C89.4173 53.5656 88.9368 55.25 88.4827 56.8181L88.356 56.6967L93.3773 55.0176H93.409H93.4406C94.5159 55.5946 95.6417 56.0718 96.804 56.4432C97.6631 56.7113 98.5479 56.8883 99.444 56.9712C100.183 57.0346 100.748 57.0293 101.134 57.0293H101.567C101.616 57.0233 101.665 57.0233 101.714 57.0293C100.957 57.0995 100.196 57.0995 99.4387 57.0293C98.528 56.9681 97.6267 56.8069 96.7512 56.5488C95.5774 56.1852 94.4392 55.715 93.3509 55.1444H93.4142L88.4035 56.8551L88.2293 56.9184L88.2768 56.7336C88.7203 55.1707 89.199 53.4811 89.713 51.6648V51.7652C89.0922 51.027 88.5833 50.2015 88.2029 49.3152C87.8229 48.3783 87.5621 47.3973 87.4267 46.3954C87.0707 44.2566 87.1461 42.0683 87.6485 39.9591C87.7919 39.4208 87.9682 38.8918 88.1765 38.3751C88.2874 38.1111 88.3982 37.8471 88.5038 37.5778C88.6094 37.3085 88.7784 37.0498 88.9104 36.8122L89.1163 36.4267L89.3592 36.0624C89.5176 35.8196 89.6813 35.5767 89.8397 35.3285L90.3994 34.6421L90.6792 34.2936L90.9907 33.9768C91.8236 33.0928 92.7678 32.3208 93.7997 31.68C94.8602 31.0463 95.9977 30.5513 97.1842 30.2069C100.195 29.3603 103.404 29.5671 106.282 30.793C107.637 31.3731 108.893 32.1623 110.004 33.132C111.052 34.0789 111.957 35.1727 112.692 36.3792C113.375 37.5314 113.889 38.7762 114.217 40.0752C114.286 40.3973 114.349 40.7141 114.418 41.0256C114.487 41.3371 114.497 41.6645 114.54 41.976C114.795 44.3577 114.416 46.7646 113.441 48.9523C112.465 51.14 110.928 53.0304 108.985 54.4315C108.642 54.6586 108.325 54.9015 107.992 55.0915L107.026 55.6195C106.444 55.8972 105.845 56.1354 105.231 56.3324L104.449 56.5752L103.747 56.7231L103.14 56.8445C102.955 56.8445 102.781 56.8815 102.612 56.8973L101.92 56.9554C101.849 56.9719 101.777 56.9825 101.704 56.9871Z" fill="#263238"/>
<path d="M103.288 45.7829C102.803 46.2313 102.186 46.5094 101.529 46.5749V47.7048H100.32V46.6119C99.8296 46.582 99.344 46.4952 98.8735 46.3531C98.47 46.237 98.0871 46.0588 97.7383 45.8251L98.3877 44.352C98.7289 44.5823 99.1027 44.7603 99.4965 44.88C99.9002 45.0055 100.32 45.0713 100.743 45.0754C101.519 45.0754 101.904 44.88 101.904 44.4946C101.904 44.3933 101.872 44.2947 101.812 44.213C101.753 44.1313 101.668 44.0709 101.572 44.0405C101.231 43.9022 100.877 43.7979 100.516 43.729C100.059 43.635 99.6089 43.5097 99.1692 43.3541C98.8094 43.225 98.4892 43.0049 98.2399 42.7152C97.9661 42.3838 97.8267 41.9618 97.8492 41.5325C97.8463 41.2517 97.901 40.9733 98.01 40.7144C98.119 40.4556 98.2799 40.2219 98.4828 40.0277C98.9882 39.5645 99.6362 39.2871 100.32 39.241V38.1163H101.545V39.2199C101.922 39.2506 102.295 39.3178 102.659 39.4205C102.993 39.5149 103.314 39.6496 103.615 39.8218L102.96 41.3213C102.357 40.9731 101.676 40.7825 100.98 40.7669C100.677 40.7466 100.374 40.8087 100.104 40.9464C100.02 40.992 99.9509 41.0592 99.9026 41.141C99.8543 41.2228 99.8289 41.3161 99.8292 41.4111C99.8318 41.5077 99.8648 41.6011 99.9236 41.6779C99.9824 41.7547 100.064 41.811 100.157 41.8387C100.498 41.9711 100.852 42.0702 101.213 42.1344C101.671 42.2278 102.123 42.3531 102.564 42.5093C102.917 42.6432 103.234 42.8585 103.488 43.1376C103.762 43.469 103.901 43.8911 103.879 44.3203C103.884 44.5913 103.834 44.8605 103.732 45.1118C103.631 45.3631 103.479 45.5914 103.288 45.7829Z" fill="#263238"/>
<path d="M229.31 219.326C230.03 219.669 230.673 220.154 231.2 220.752C231.727 221.35 232.128 222.048 232.378 222.805C232.873 224.323 233.014 225.934 232.79 227.515C232.441 230.572 230.704 233.656 228.835 236.1C226.258 233.856 225.667 229.933 225.493 227.927C225.213 224.759 226.638 218.851 229.31 219.326Z" fill="#FF6600"/>
<path d="M231.829 241.148C231.654 240.275 231.713 239.37 231.999 238.526C232.286 237.683 232.79 236.93 233.461 236.343C234.142 235.769 234.931 235.337 235.781 235.071C236.632 234.805 237.527 234.712 238.414 234.796C238.825 234.791 239.232 234.876 239.607 235.045C239.982 235.213 240.315 235.462 240.584 235.773C240.784 236.102 240.893 236.479 240.899 236.864C240.904 237.25 240.807 237.63 240.615 237.964C240.224 238.626 239.665 239.173 238.994 239.548C236.766 240.948 234.348 241.893 231.829 241.132" fill="#FF6600"/>
<path d="M228.523 250.52C228.537 250.308 228.568 250.098 228.618 249.892C228.698 249.454 228.803 248.883 228.93 248.197C229.217 246.307 229.809 244.475 230.683 242.774C231.589 241.073 232.932 239.644 234.574 238.635C235.073 238.339 235.605 238.104 236.158 237.933C236.354 237.869 236.512 237.843 236.618 237.816C236.672 237.808 236.727 237.808 236.781 237.816C236.045 238.067 235.337 238.394 234.669 238.793C233.084 239.823 231.784 241.236 230.889 242.901C230.032 244.586 229.429 246.388 229.099 248.25C228.941 248.963 228.814 249.538 228.719 249.934C228.673 250.135 228.608 250.332 228.523 250.52Z" fill="#263238"/>
<path d="M228.624 223.914C228.642 224.005 228.652 224.097 228.656 224.189C228.656 224.395 228.683 224.653 228.698 224.981C228.735 225.662 228.778 226.655 228.815 227.879C228.899 230.329 228.957 233.714 228.941 237.452C228.925 241.19 228.836 244.58 228.735 247.03C228.683 248.255 228.635 249.248 228.593 249.929C228.593 250.251 228.551 250.515 228.54 250.715C228.54 250.808 228.527 250.901 228.503 250.99C228.495 250.899 228.495 250.807 228.503 250.715C228.503 250.51 228.503 250.251 228.503 249.923C228.503 249.211 228.54 248.229 228.572 247.025C228.63 244.575 228.698 241.19 228.714 237.452C228.73 233.714 228.714 230.335 228.656 227.885C228.656 226.681 228.619 225.694 228.609 224.981C228.609 224.659 228.609 224.395 228.609 224.194C228.6 224.1 228.605 224.006 228.624 223.914Z" fill="#263238"/>
<path d="M227.373 243.007C227.062 241.154 226.314 239.402 225.191 237.896C224.068 236.391 222.602 235.174 220.915 234.348C220.055 233.936 218.93 233.666 218.228 234.305C217.526 234.944 217.673 236.095 218.022 236.988C218.778 238.833 220.063 240.414 221.716 241.53C223.369 242.646 225.315 243.248 227.309 243.26" fill="#FF6600"/>
<path d="M221.332 237.246C221.514 237.312 221.691 237.392 221.86 237.484C222.073 237.582 222.279 237.693 222.478 237.816C222.705 237.959 223.006 238.102 223.26 238.308C223.574 238.514 223.876 238.74 224.163 238.983C224.497 239.256 224.816 239.547 225.118 239.855C225.81 240.561 226.419 241.344 226.935 242.188C227.439 243.041 227.841 243.95 228.133 244.897C228.259 245.309 228.36 245.729 228.434 246.154C228.509 246.522 228.562 246.894 228.592 247.268C228.623 247.576 228.638 247.887 228.635 248.197C228.649 248.429 228.649 248.662 228.635 248.894C228.634 249.095 228.611 249.295 228.566 249.491C228.519 249.491 228.603 248.64 228.455 247.289C228.417 246.92 228.357 246.553 228.276 246.191C228.194 245.775 228.088 245.364 227.959 244.96C227.371 243.097 226.355 241.397 224.991 239.997C224.697 239.691 224.386 239.401 224.062 239.126C223.767 238.857 223.466 238.64 223.191 238.434C222.087 237.642 221.311 237.288 221.332 237.246Z" fill="#263238"/>
<path d="M58.5345 219.241L44.4844 232.088L60.3825 249.649C61.9665 248.028 57.1089 235.895 57.1089 235.895L65.8842 227.404L58.5345 219.241Z" fill="#455A64"/>
<path d="M52.953 229.775C52.748 229.654 52.5057 229.612 52.2722 229.658C52.0386 229.704 51.8299 229.834 51.6858 230.023C51.5564 230.223 51.5084 230.464 51.5516 230.698C51.5948 230.932 51.726 231.14 51.9181 231.28C52.1349 231.41 52.3927 231.455 52.6409 231.405C52.8891 231.356 53.1096 231.215 53.2592 231.011C53.373 230.789 53.3964 230.532 53.3245 230.294C53.2526 230.056 53.091 229.854 52.8738 229.733" fill="white"/>
<path d="M44.4844 232.088L45.9364 230.736L60.5778 248.208C60.5778 248.208 60.9369 249.3 60.3033 249.707L44.4844 232.088Z" fill="#263238"/>
<path d="M57.4571 236.1C57.3674 236.174 56.9291 235.778 56.285 235.609C55.6408 235.44 55.06 235.536 55.0231 235.43C54.9861 235.324 55.5986 234.997 56.3906 235.219C57.1826 235.44 57.5522 236.048 57.4571 236.1Z" fill="white"/>
<path d="M58.3601 238.656C58.2967 238.751 57.8321 238.513 57.1879 238.55C56.5438 238.587 56.1003 238.851 56.0263 238.762C55.9524 238.672 56.3484 238.181 57.1299 238.154C57.9113 238.128 58.4393 238.556 58.3601 238.656Z" fill="white"/>
<path d="M57.1039 241.671C56.9983 241.597 57.2518 241.143 58.0068 240.9C58.6721 240.689 59.2265 240.926 59.1842 241.027C59.142 241.127 58.6562 241.106 58.1282 241.285C57.6002 241.465 57.1884 241.75 57.1039 241.671Z" fill="white"/>
<path d="M59.3843 234.073C59.2734 234.105 59.0358 233.603 58.5659 233.149C58.096 232.695 57.5996 232.457 57.6313 232.346C57.663 232.235 58.2966 232.32 58.8457 232.874C59.3948 233.429 59.4899 234.052 59.3843 234.073Z" fill="white"/>
<path d="M61.0898 231.792C61.0581 231.824 60.6938 231.533 60.2978 230.91C60.0759 230.54 59.8986 230.145 59.7698 229.733C59.6879 229.488 59.6244 229.237 59.5797 228.983C59.5462 228.836 59.5355 228.685 59.5481 228.534C59.5562 228.423 59.6018 228.317 59.6776 228.235C59.7533 228.152 59.8546 228.098 59.9652 228.08C60.0627 228.07 60.1612 228.084 60.2528 228.118C60.3444 228.153 60.4267 228.209 60.4932 228.281C60.5958 228.391 60.6812 228.515 60.7466 228.65C60.8708 228.88 60.9733 229.12 61.0529 229.368C61.1894 229.784 61.2571 230.219 61.2535 230.657C61.293 231.061 61.2082 231.468 61.0106 231.824C60.9473 231.824 61.0106 231.37 60.9684 230.673C60.9299 230.267 60.8412 229.868 60.7044 229.485C60.6206 229.263 60.5199 229.047 60.4034 228.84C60.282 228.613 60.1394 228.45 60.0127 228.476C59.886 228.503 59.9494 228.476 59.9335 228.587C59.9254 228.699 59.9343 228.811 59.9599 228.92C59.9955 229.157 60.0467 229.391 60.113 229.622C60.2244 230.017 60.3729 230.401 60.5566 230.768C60.7586 231.096 60.9368 231.438 61.0898 231.792Z" fill="white"/>
<path d="M60.868 231.792C60.8257 231.792 60.9788 231.327 61.5068 230.789C61.8142 230.481 62.1712 230.228 62.5628 230.039C62.7979 229.928 63.0438 229.841 63.2968 229.78C63.4564 229.723 63.6279 229.708 63.7951 229.736C63.9623 229.763 64.1197 229.833 64.2524 229.939C64.3246 230.017 64.3713 230.116 64.3864 230.221C64.4014 230.327 64.3842 230.434 64.3369 230.53C64.276 230.669 64.194 230.797 64.094 230.91C63.8682 231.188 63.5894 231.417 63.2739 231.586C62.9585 231.754 62.6127 231.859 62.2566 231.892C61.8512 231.972 61.4306 231.891 61.0844 231.665C61.4618 231.668 61.8389 231.65 62.2144 231.612C62.8388 231.498 63.4012 231.163 63.7984 230.667C63.9568 230.472 64.0465 230.266 63.962 230.213C63.8772 230.164 63.7825 230.135 63.6849 230.126C63.5872 230.118 63.4889 230.132 63.3971 230.166C63.1665 230.218 62.9405 230.288 62.7212 230.377C62.3423 230.535 61.9869 230.745 61.6652 231C61.1584 231.417 60.9208 231.792 60.868 231.792Z" fill="white"/>
<path d="M55.1396 231.623L55.3192 250.663L79.0053 250.562C78.8574 248.297 66.5867 243.809 66.5867 243.809L66.9721 231.607L55.1396 231.623Z" fill="#455A64"/>
<path d="M59.2523 242.811C59.0247 242.886 58.8328 243.042 58.7137 243.25C58.5947 243.457 58.5571 243.702 58.6082 243.936C58.6681 244.166 58.815 244.364 59.0178 244.488C59.2207 244.612 59.4637 244.653 59.6959 244.601C59.9377 244.529 60.1434 244.368 60.2725 244.151C60.4015 243.934 60.4445 243.676 60.3928 243.429C60.3047 243.196 60.1293 243.006 59.9037 242.899C59.678 242.793 59.4198 242.778 59.1837 242.859" fill="white"/>
<path d="M55.3188 250.7L55.2871 248.662L78.0703 249.438C78.0703 249.438 79.1263 249.897 79.0049 250.642L55.3188 250.7Z" fill="#263238"/>
<path d="M66.9669 243.688C66.9669 243.804 66.3861 243.857 65.8211 244.216C65.2562 244.575 64.9499 245.076 64.8443 245.034C64.7387 244.992 64.9077 244.316 65.5994 243.878C66.291 243.44 66.9933 243.582 66.9669 243.688Z" fill="#263238"/>
<path d="M69.4587 244.702C69.4587 244.818 68.9835 245.013 68.5927 245.504C68.202 245.995 68.0911 246.513 67.975 246.507C67.8588 246.502 67.7849 245.853 68.2812 245.251C68.7775 244.649 69.4534 244.591 69.4587 244.702Z" fill="#263238"/>
<path d="M70.8792 247.669C70.7736 247.695 70.6099 247.141 70.8792 246.486C71.1484 245.831 71.7134 245.594 71.7609 245.689C71.8084 245.784 71.4811 246.127 71.2329 246.65C70.9848 247.173 70.9953 247.658 70.8792 247.669Z" fill="#263238"/>
<path d="M66.7449 240.895C66.6973 241 66.1693 240.842 65.5146 240.895C64.8599 240.948 64.353 241.153 64.2897 241.053C64.2263 240.953 64.7173 240.525 65.4882 240.493C66.2591 240.462 66.8029 240.805 66.7449 240.895Z" fill="#263238"/>
<path d="M54.5849 123.024C54.5849 123.024 53.0749 128.336 52.9006 128.716C51.3483 132.158 47.2457 140.67 47.2457 140.67C47.2457 140.67 44.1252 151.758 44.8222 156.974C45.5192 162.191 50.1867 197.926 50.1867 197.926C50.1867 197.926 49.268 226.248 53.2597 238.851L53.9988 242.194L67.352 239.823L70.3141 169.71L78.4611 123.357L54.5849 123.024Z" fill="#263238"/>
<path d="M87.9122 129.36C87.9122 129.36 93.7835 177.102 94.5122 184.737C95.2408 192.371 67.5102 233.075 67.5102 233.075L55.8203 219.263L73.6562 186.109L67.6475 153.083L75.5675 123.288L86.8086 123.42L87.9122 129.36Z" fill="#263238"/>
<path d="M51.216 228.122C51.2296 228.448 51.2613 228.772 51.3111 229.094C51.3956 229.733 51.5487 230.678 51.7704 231.882C52.214 234.3 52.9373 237.806 53.8824 242.188V242.278H53.9722L67.3306 239.939H67.4362V239.839C67.8111 230.673 68.2546 219.717 68.7298 207.969C69.2208 195.328 69.6802 183.607 70.0551 173.992C71.053 166.267 71.882 159.878 72.4628 155.406C72.7426 153.189 72.9591 151.446 73.1122 150.242C73.1808 149.656 73.2336 149.186 73.2759 148.885C73.3181 148.584 73.3181 148.421 73.3181 148.421C73.3181 148.421 73.2812 148.574 73.2336 148.88C73.1861 149.186 73.1228 149.651 73.0383 150.232C72.8693 151.43 72.6317 153.173 72.3202 155.39C71.7183 159.857 70.8524 166.241 69.8069 173.96C69.4162 183.575 68.941 195.297 68.4288 207.937C67.9695 219.685 67.5418 230.641 67.1828 239.807L67.2884 239.686L53.9405 242.088L54.0514 242.162C53.0588 237.785 52.309 234.284 51.8338 231.876C51.5962 230.667 51.422 229.738 51.3058 229.104C51.253 228.788 51.2213 228.545 51.2002 228.386C51.2103 228.299 51.2156 228.211 51.216 228.122Z" fill="#455A64"/>
<path d="M62.7423 40.4025C62.7274 39.4291 62.3873 38.4886 61.776 37.7309C61.1348 36.8647 60.2669 36.1924 59.268 35.7878C58.3425 35.4274 57.3332 35.3393 56.3592 35.5338C55.3852 35.7284 54.4872 36.1975 53.7711 36.8858C53.0551 37.5741 52.5509 38.4529 52.318 39.4184C52.0851 40.384 52.1333 41.396 52.4568 42.335C53.101 44.2041 55.4559 46.105 57.42 46.3003L60.3874 44.0457C61.6229 43.2115 62.7106 41.9126 62.7423 40.4025Z" fill="#263238"/>
<path d="M54.7646 36.3422C54.7646 36.3422 54.8702 36.2366 55.1131 36.1363C55.4654 35.9964 55.8431 35.9316 56.2219 35.9462C56.7782 35.9672 57.3214 36.1211 57.8059 36.395C58.4046 36.7443 58.9043 37.2404 59.2579 37.8365C59.8742 38.9175 60.145 40.1611 60.0341 41.4005C60.0244 41.908 59.9335 42.4107 59.7648 42.8894C59.712 42.8894 59.8018 42.3086 59.8123 41.3952C59.8658 40.2172 59.5916 39.0475 59.0203 38.016C58.6939 37.4621 58.2371 36.9963 57.6898 36.659C57.2391 36.3903 56.7339 36.2261 56.2114 36.1786C55.7235 36.155 55.235 36.2103 54.7646 36.3422Z" fill="#455A64"/>
<path d="M53.0586 43.3752C52.9201 42.9714 52.9072 42.5351 53.0216 42.1238C53.2542 41.1139 53.8381 40.2194 54.669 39.6C55.4944 39.0049 56.4409 38.5993 57.441 38.412C57.8425 38.2989 58.2604 38.2561 58.6765 38.2853C58.2904 38.4301 57.8931 38.5432 57.4885 38.6232C56.5398 38.8632 55.6443 39.2786 54.8485 39.8481C54.0712 40.428 53.5011 41.2425 53.2223 42.1713C53.1433 42.5689 53.0886 42.971 53.0586 43.3752Z" fill="#455A64"/>
<path d="M67.7002 40.9411C64.7645 40.4976 62.209 41.6697 59.7802 43.3646C57.3483 45.1108 55.5065 47.5568 54.5002 50.3765C53.3803 53.328 53.2505 56.5636 54.1306 59.5953C54.5814 61.0987 55.3323 62.4951 56.3378 63.7003C57.3433 64.9054 58.5825 65.8943 59.9808 66.6072C63.8247 68.471 68.6875 67.7054 72.0456 65.0707C75.4037 62.436 77.2781 58.1328 77.3679 53.8613C77.4663 50.8933 76.6296 47.9695 74.976 45.503C74.1415 44.2849 73.0655 43.2513 71.8148 42.4666C70.564 41.6818 69.1653 41.1626 67.7055 40.9411" fill="#263238"/>
<path d="M59.5535 51.0523C59.96 49.9224 59.7752 48.6763 59.9231 47.483C60.2452 44.843 62.3149 42.731 64.7332 41.675C66.9824 40.6877 69.7597 40.8408 72.5053 41.675C74.4121 42.215 76.1249 43.2885 77.4421 44.7691C78.2825 45.7743 78.8705 46.9657 79.157 48.2442C79.4436 49.5227 79.4204 50.8512 79.0895 52.1189L65.673 50.4134C64.4943 51.5378 63.1408 52.4632 61.6655 53.1537C61.2301 53.3555 60.7498 53.441 60.2716 53.4019C60.0339 53.3768 59.8084 53.2846 59.6214 53.1359C59.4343 52.9872 59.2936 52.7882 59.2156 52.5624C59.0836 52.0449 59.3792 51.5433 59.5535 51.0523Z" fill="#263238"/>
<path d="M72.8642 45.3552L61.2482 48.048C60.7038 48.0942 60.1964 48.3426 59.826 48.7442C59.4556 49.1459 59.2491 49.6717 59.2471 50.2181L59.8226 75.504C59.8607 77.2355 60.4695 78.906 61.5544 80.256L62.6949 81.671C65.2979 84.9024 70.4354 84.48 72.3098 80.7787C72.4249 80.5699 72.5102 80.3459 72.5632 80.1134C72.6089 79.9257 72.6424 79.7352 72.6635 79.5432C72.8444 78.2738 72.8905 76.9889 72.8008 75.7099C72.8695 73.4553 72.8906 72.5419 72.8906 72.5419C72.8906 72.5419 77.6426 71.8502 78.7725 65.6779C79.3269 62.6049 79.3005 57.5467 79.0999 53.4072C78.9415 49.632 76.5602 45.0384 72.8642 45.3552Z" fill="#B5675E"/>
<path d="M77.4106 58.08C77.4078 58.2878 77.3241 58.4863 77.1771 58.6332C77.0302 58.7802 76.8316 58.864 76.6238 58.8667C76.5225 58.8731 76.4209 58.859 76.3252 58.8253C76.2294 58.7916 76.1415 58.7389 76.0665 58.6703C75.9916 58.6018 75.9313 58.5189 75.8891 58.4265C75.847 58.3342 75.8239 58.2343 75.8213 58.1328C75.824 57.9259 75.907 57.7281 76.0528 57.5813C76.1987 57.4345 76.3958 57.3501 76.6027 57.346C76.7042 57.3404 76.8057 57.3549 76.9014 57.3889C76.9972 57.4228 77.0852 57.4755 77.1604 57.5438C77.2356 57.6121 77.2964 57.6947 77.3394 57.7867C77.3823 57.8788 77.4065 57.9785 77.4106 58.08Z" fill="#263238"/>
<path d="M77.9492 55.968C77.8489 56.0683 77.2575 55.6089 76.4022 55.5931C75.5468 55.5773 74.9079 55.9944 74.8182 55.8888C74.7284 55.7832 74.8763 55.6565 75.1561 55.4611C75.5318 55.214 75.9737 55.0869 76.4233 55.0968C76.8682 55.1062 77.2988 55.2559 77.6535 55.5245C77.9123 55.7515 78.002 55.968 77.9492 55.968Z" fill="#263238"/>
<path d="M69.7592 58.08C69.7579 58.2873 69.6753 58.4858 69.5291 58.6329C69.383 58.78 69.1851 58.8639 68.9778 58.8667C68.8763 58.8724 68.7748 58.8578 68.6791 58.8239C68.5833 58.7899 68.4953 58.7373 68.4201 58.6689C68.3449 58.6006 68.2841 58.5181 68.2411 58.426C68.1982 58.3339 68.174 58.2343 68.1699 58.1328C68.174 57.9254 68.2582 57.7276 68.4048 57.581C68.5515 57.4343 68.7493 57.3501 68.9567 57.346C69.0578 57.3404 69.1591 57.355 69.2545 57.389C69.35 57.423 69.4376 57.4757 69.5124 57.5441C69.5872 57.6125 69.6475 57.6951 69.6899 57.7871C69.7323 57.8791 69.7559 57.9787 69.7592 58.08Z" fill="#263238"/>
<path d="M69.8233 55.9258C69.7229 56.0261 69.1316 55.572 68.2762 55.5562C67.4209 55.5403 66.782 55.9522 66.6922 55.8466C66.6024 55.741 66.7503 55.6143 67.0301 55.4242C67.4036 55.1723 67.8471 55.0448 68.2973 55.0599C68.7422 55.0648 69.1735 55.2129 69.5276 55.4823C69.7863 55.6935 69.8761 55.8835 69.8233 55.9258Z" fill="#263238"/>
<path d="M72.5108 62.3832C72.9648 62.2532 73.4328 62.1787 73.9047 62.1614C74.1212 62.1614 74.3324 62.1033 74.3694 61.9555C74.3936 61.7306 74.3475 61.5037 74.2374 61.306C74.042 60.778 73.8414 60.2131 73.6249 59.627C72.7801 57.2404 72.1676 55.2816 72.2627 55.2446C72.3577 55.2076 73.1286 57.119 73.9787 59.5108L74.5595 61.1952C74.6935 61.4613 74.7272 61.7668 74.6545 62.0558C74.6226 62.1328 74.573 62.2012 74.5097 62.2553C74.4464 62.3094 74.3712 62.3478 74.2902 62.3673C74.1695 62.399 74.0453 62.415 73.9206 62.4148C73.4513 62.4674 72.9772 62.4567 72.5108 62.3832Z" fill="#263238"/>
<path d="M72.8907 72.5261C69.9701 72.5114 67.111 71.6851 64.6328 70.1395C64.6328 70.1395 66.6287 74.4744 72.8485 74.0256L72.8907 72.5261Z" fill="#894943"/>
<path d="M72.1036 64.4424C71.9452 64.2332 71.7359 64.0681 71.4956 63.9627C71.2553 63.8573 70.992 63.8153 70.7308 63.8405C70.5397 63.8565 70.3539 63.9116 70.1849 64.0024C70.016 64.0933 69.8675 64.2179 69.7487 64.3685C69.6318 64.509 69.5605 64.6819 69.5445 64.864C69.5284 65.0461 69.5684 65.2287 69.659 65.3875C69.7953 65.5423 69.9739 65.6538 70.1728 65.7082C70.3717 65.7626 70.5822 65.7576 70.7783 65.6938C71.1858 65.5572 71.5626 65.3419 71.8871 65.0602C71.9849 64.9941 72.0692 64.9098 72.1353 64.812C72.166 64.7649 72.1823 64.7099 72.1823 64.6536C72.1823 64.5974 72.166 64.5424 72.1353 64.4952" fill="#894943"/>
<path d="M69.9758 62.927C70.1184 62.927 70.0973 63.851 70.8787 64.511C71.6601 65.171 72.6528 65.1024 72.6581 65.2344C72.6633 65.3664 72.4363 65.4086 72.0139 65.4139C71.4732 65.4147 70.9489 65.2281 70.5302 64.8859C70.1311 64.5475 69.8808 64.0659 69.8333 63.5448C69.8069 63.1488 69.9125 62.9165 69.9758 62.927Z" fill="#263238"/>
<path d="M69.7281 53.3861C69.6436 53.6184 68.7882 53.4917 67.785 53.592C66.7818 53.6923 65.9581 53.951 65.8261 53.7398C65.7733 53.6342 65.9159 53.423 66.2485 53.2118C66.6915 52.945 67.1894 52.7826 67.7044 52.7369C68.2195 52.6911 68.7382 52.7633 69.2212 52.9478C69.5855 53.0904 69.7703 53.2805 69.7281 53.3861Z" fill="#263238"/>
<path d="M77.78 52.2403C77.6268 52.4304 77.0408 52.2403 76.328 52.1928C75.6152 52.1453 75.0185 52.2984 74.8865 52.0925C74.8232 51.9921 74.9235 51.7968 75.1928 51.6173C75.5475 51.4006 75.9607 51.2991 76.3755 51.3269C76.7914 51.339 77.1928 51.4832 77.5212 51.7387C77.7694 51.9446 77.8486 52.1453 77.78 52.2403Z" fill="#263238"/>
<path d="M57.3778 49.2888C58.5236 45.7089 63.7138 40.7668 67.4732 41.0308L73.4554 44.6371C73.2588 45.6578 72.79 46.6064 72.0985 47.3825C71.407 48.1586 70.5185 48.7334 69.5271 49.0459C68.4711 49.368 67.1933 49.4524 66.565 50.3659C65.9367 51.2793 66.2904 52.6468 65.6938 53.6025C64.8596 54.9331 62.5944 54.8644 61.9978 56.3006C61.7232 56.9289 61.8658 57.6787 61.5807 58.3017C61.2005 59.1307 59.0991 60.1814 58.2279 59.8857C57.3567 59.59 57.362 58.1328 57.0768 57.3566C56.7232 56.4786 56.6804 55.5061 56.9554 54.6004C57.3144 52.8633 56.834 50.9942 57.3778 49.2888Z" fill="#263238"/>
<path d="M60.7682 60.6408C60.7682 60.1761 60.2402 59.0568 59.8073 58.9987C58.5929 58.7822 56.3964 58.835 56.3119 61.9291C56.1957 66.1531 60.4673 65.398 60.4778 65.2766C60.4884 65.1552 60.7207 62.2353 60.7682 60.6408Z" fill="#B5675E"/>
<path d="M59.2312 63.6398C59.2312 63.6398 59.152 63.6927 59.0253 63.7455C58.8555 63.812 58.667 63.812 58.4973 63.7455C58.0537 63.5712 57.7 62.8531 57.7 62.0875C57.6987 61.7227 57.778 61.3621 57.9323 61.0315C57.9796 60.9052 58.0559 60.7916 58.1549 60.7C58.2539 60.6083 58.3729 60.541 58.5025 60.5035C58.5879 60.484 58.6774 60.4949 58.7555 60.5345C58.8336 60.574 58.8954 60.6397 58.9302 60.72C58.9883 60.8362 58.9566 60.9207 58.9777 60.9312C58.9989 60.9418 59.0728 60.8626 59.0411 60.6883C59.0197 60.582 58.9641 60.4855 58.8827 60.4138C58.7668 60.3249 58.6215 60.2833 58.4761 60.2976C58.3025 60.3291 58.1395 60.4036 58.0021 60.5142C57.8647 60.6249 57.7572 60.7683 57.6894 60.9312C57.5018 61.2934 57.404 61.6955 57.4043 62.1034C57.4043 62.9587 57.8214 63.7666 58.4286 63.9566C58.5407 63.9937 58.6598 64.0049 58.7768 63.9894C58.8939 63.9738 59.0059 63.9319 59.1045 63.8669C59.2206 63.7454 59.2417 63.6504 59.2312 63.6398Z" fill="#894943"/>
<path d="M72.2047 43.3805C72.6271 45.0912 75.2777 47.2507 76.4287 48.5707C78.6674 51.084 79.1162 51.9235 79.1954 57.6365C80.1934 55.6459 80.9484 53.6976 80.8322 51.4747C80.7413 49.2247 79.8305 47.0857 78.2714 45.4608C77.4888 44.6638 76.5309 44.0607 75.4739 43.6995C74.417 43.3384 73.2903 43.2291 72.1836 43.3805" fill="#263238"/>
<path d="M53.7297 55.3608C54.0452 55.4099 54.3574 55.4787 54.6643 55.5667C55.4937 55.7926 56.3496 55.9062 57.2093 55.9046C57.7974 55.8931 58.3773 55.7638 58.9147 55.5245C59.5626 55.2523 60.1142 54.7926 60.4987 54.2045C60.9158 53.5814 61.0267 52.7208 61.3963 51.8971C61.5701 51.4882 61.8298 51.1215 62.1578 50.8218C62.4857 50.5221 62.8743 50.2964 63.2971 50.16C64.1525 49.9329 64.992 50.16 65.6995 49.8801C66.407 49.6003 66.7977 48.8241 67.1145 48.1325C67.3879 47.426 67.7868 46.7749 68.292 46.2105C68.7311 45.765 69.2507 45.4067 69.8232 45.1545C70.6267 44.779 71.5266 44.661 72.3998 44.8166C72.6372 44.8573 72.8692 44.9246 73.0915 45.0173C73.1723 45.0425 73.2489 45.0799 73.3185 45.1281C73.3185 45.1598 72.9912 45.0173 72.3893 44.9381C71.5351 44.8313 70.6684 44.9782 69.8971 45.3605C69.3528 45.6184 68.862 45.9767 68.4504 46.4165C67.9725 46.9666 67.597 47.5978 67.3416 48.2803C67.1826 48.662 66.9881 49.0279 66.7608 49.3733C66.5238 49.7275 66.1851 50.0018 65.7893 50.16C64.9814 50.4557 64.1366 50.2392 63.3657 50.4557C62.9765 50.5775 62.6183 50.7822 62.3157 51.0556C62.0131 51.329 61.7733 51.6647 61.6128 52.0397C61.2696 52.7947 61.1376 53.687 60.6782 54.3734C60.2708 54.9945 59.6857 55.4784 58.9992 55.7621C58.4345 56.001 57.8277 56.1249 57.2145 56.1264C56.3389 56.1063 55.4709 55.9586 54.6379 55.6881C54.3422 55.5984 54.1099 55.5192 53.9568 55.4611C53.8037 55.403 53.7245 55.3713 53.7297 55.3608Z" fill="#455A64"/>
<path d="M56.3008 47.5517C56.4108 47.1378 56.5893 46.7452 56.8288 46.3901C57.9026 44.598 59.5487 43.2198 61.5016 42.4776C61.8923 42.303 62.3103 42.1976 62.7371 42.1661C61.4048 42.6779 60.1584 43.3901 59.0411 44.2781C57.1773 45.7723 56.3853 47.6045 56.3008 47.5517Z" fill="#FF6600"/>
<path d="M101.693 101.049L84.29 108.119L84.9553 116.577L102.807 108.816L104.359 104.386L101.693 101.049Z" fill="#B5675E"/>
<path d="M97.2628 102.068L98.5617 112.812L87.6321 119.56L86.6553 105.526L97.2628 102.068Z" fill="#455A64"/>
<path d="M77.1622 80.3193C77.5318 81.0533 85.8373 92.6323 86.6926 98.039C87.2682 101.677 88.2027 114.18 88.6462 122.369C88.7043 123.425 89.623 124.55 89.4435 125.389C88.7941 128.404 87.2259 128.114 85.1931 127.94L62.4891 127.296L52.399 128.41L57.452 113.34C57.452 113.34 53.0907 93.5299 52.399 92.9174C51.7074 92.3049 55.2978 76.032 55.2978 76.032L59.395 75.6571C59.395 75.6571 66.993 79.3795 70.8632 78.7829C71.4273 78.7008 71.9496 78.4384 72.3522 78.0349C72.7548 77.6314 73.0159 77.1084 73.0966 76.5441L77.1622 80.3193Z" fill="#455A64"/>
<path d="M111.445 101.814V101.049H121.947V101.814" fill="#263238"/>
<path d="M101.693 101.049L108.029 99.0106L114.74 99.8395C114.74 99.8395 114.925 100.8 113.684 101.049C112.443 101.297 109.587 101.049 109.587 101.049C109.587 101.049 109.529 104.301 105.659 105.22L103.145 105.526L101.693 101.049Z" fill="#B5675E"/>
<path d="M111.825 101.154C111.825 101.154 112.11 101.112 112.301 101.92C112.38 102.586 112.299 103.261 112.063 103.889C112.063 103.889 112.39 105.093 111.825 105.526L111.266 105.959C111.266 105.959 111.229 107.786 110.669 108.277C110.109 108.768 105.468 110.389 105.468 110.389L101.957 108.953L103.293 105.051L108.842 101.608L109.608 101.054L111.825 101.154Z" fill="#B5675E"/>
<path d="M111.234 105.526C110.995 105.411 110.771 105.265 110.569 105.093C110.168 104.797 109.597 104.364 108.932 103.847H109.064C108.928 103.915 108.81 104.013 108.719 104.134C108.627 104.255 108.565 104.395 108.536 104.544C108.504 104.893 108.581 105.244 108.758 105.547C108.864 105.751 108.988 105.945 109.127 106.128L109.465 106.55L108.969 106.339C108.681 106.22 108.37 106.169 108.059 106.191C107.748 106.213 107.447 106.307 107.179 106.466L107.052 106.545L107.005 106.403C106.921 106.147 106.783 105.913 106.601 105.715C106.419 105.518 106.196 105.361 105.949 105.257C105.59 105.098 105.357 105.104 105.357 105.072C105.573 105.023 105.798 105.044 106.002 105.13C106.281 105.226 106.535 105.384 106.745 105.593C106.954 105.802 107.113 106.055 107.211 106.334L107.036 106.271C107.335 106.079 107.675 105.963 108.028 105.93C108.381 105.898 108.736 105.951 109.064 106.086L108.906 106.302C108.748 106.108 108.612 105.897 108.499 105.674C108.294 105.318 108.209 104.905 108.256 104.496C108.294 104.307 108.377 104.129 108.499 103.978C108.62 103.827 108.776 103.708 108.953 103.631L109.027 103.594L109.085 103.641C109.74 104.169 110.284 104.634 110.669 104.966C110.881 105.127 111.071 105.315 111.234 105.526Z" fill="#894943"/>
<path d="M109.006 103.747C108.779 103.552 108.617 103.292 108.541 103.002C108.483 102.839 108.461 102.666 108.476 102.493C108.492 102.321 108.545 102.154 108.631 102.004C108.871 101.652 109.232 101.4 109.645 101.297H109.714L109.772 101.35L109.898 101.466C110.71 102.13 111.46 102.865 112.142 103.662C111.276 103.069 110.464 102.401 109.714 101.666L109.587 101.556L109.714 101.587C109.366 101.671 109.058 101.872 108.842 102.157C108.769 102.279 108.721 102.414 108.701 102.555C108.681 102.695 108.69 102.839 108.726 102.976C108.848 103.446 109.054 103.726 109.006 103.747Z" fill="#894943"/>
<path d="M37.6308 87.912C38.0849 88.44 71.2011 112.506 71.2011 112.506L54.6641 145.052C54.6641 145.052 43.2963 139.772 33.882 134.45C24.4678 129.128 14.874 115.885 14.874 115.885L37.6308 87.912Z" fill="#FF6600"/>
<path d="M54.9118 76.2643C54.5633 76.2168 48.7184 75.599 45.1966 83.4346C43.3275 87.5952 37.604 100.589 36.4793 103.747C35.7296 105.859 33.3958 114.201 35.5764 117.712C37.567 120.917 39.7635 121.477 44.3729 120.479C49.1672 119.423 60.5825 112.622 60.5825 112.622L55.5929 102.395L52.3035 103.541L55.1916 96.492C57.0555 91.212 58.2012 84.2371 58.2699 84.1632C58.3385 84.0893 60.9732 77.088 54.9118 76.2643Z" fill="#455A64"/>
<path d="M52.1504 117.264C52.1504 117.264 52.1979 117.221 52.2983 117.158L52.7471 116.894L54.4578 115.912L60.5298 112.512L60.477 112.675L57.1611 105.912L55.4768 102.432L55.6352 102.506C51.9867 103.631 48.8293 104.692 46.5959 105.484C45.4765 105.88 44.5895 106.223 43.9559 106.45L43.2589 106.719C43.1788 106.753 43.0957 106.78 43.0107 106.799C43.0107 106.799 43.0847 106.746 43.2378 106.672L43.9189 106.366C44.5208 106.107 45.3973 105.743 46.5114 105.31C48.7395 104.465 51.8864 103.372 55.5349 102.231L55.6458 102.2L55.6933 102.3C56.2213 103.404 56.8021 104.56 57.3829 105.753L60.7199 112.564L60.7727 112.675L60.6671 112.728L54.5475 116.039L52.8051 116.963L52.3405 117.195C52.2815 117.228 52.2172 117.252 52.1504 117.264Z" fill="#263238"/>
<path d="M76.5606 96.265L79.7286 90.9216C79.9787 90.4987 80.3798 90.1862 80.851 90.0471C81.3222 89.908 81.8286 89.9526 82.2683 90.1718L90.1144 94.5595C90.3981 94.6784 90.65 94.8622 90.8499 95.096C91.0498 95.3298 91.1922 95.6072 91.2656 95.9059C91.339 96.2047 91.3414 96.5164 91.2726 96.8163C91.2038 97.1161 91.0657 97.3956 90.8694 97.6325L80.9008 113.267C80.6348 113.686 80.2181 113.986 79.7367 114.107C79.2554 114.228 78.746 114.16 78.3136 113.916L70.6682 109.618C70.4403 109.489 70.2408 109.316 70.0816 109.108C69.9224 108.901 69.8068 108.663 69.7417 108.41C69.6766 108.156 69.6634 107.892 69.7029 107.633C69.7423 107.375 69.8336 107.127 69.9712 106.904L76.5606 96.265Z" fill="#263238"/>
<path d="M54.041 76.2326L55.1709 75.8313C55.9677 75.5356 56.8396 75.5097 57.6525 75.7574C58.263 75.9504 58.8101 76.3042 59.2365 76.7818C62.2884 80.2243 62.3306 90.1032 62.4045 92.4792C62.4785 94.8552 63.5028 108.525 63.5028 108.525H59.4794C59.4794 108.525 59.9229 89.6913 59.9705 86.8771C60.1236 77.8483 54.041 76.2326 54.041 76.2326Z" fill="#FF6600"/>
<path d="M57.5153 91.872C57.3696 92.457 57.1717 93.0278 56.9239 93.5774C56.5226 94.6334 55.9207 96.0274 55.2026 97.5639C54.4845 99.1003 53.777 100.473 53.2437 101.445C52.9771 101.975 52.6663 102.482 52.3145 102.96C52.531 102.399 52.7832 101.852 53.0695 101.323C53.5605 100.331 54.2364 98.9525 54.9545 97.416C55.6725 95.8795 56.2956 94.4856 56.7444 93.4718C56.9663 92.9224 57.2238 92.388 57.5153 91.872Z" fill="#263238"/>
<path d="M109.788 101.592C109.761 101.592 109.56 101.371 109.497 100.885C109.461 100.601 109.488 100.312 109.576 100.04C109.607 99.9439 109.662 99.8568 109.735 99.7867C109.784 99.7469 109.844 99.7206 109.907 99.7104C109.97 99.7003 110.034 99.7065 110.094 99.7286C110.262 99.8053 110.418 99.9048 110.558 100.024C111.276 100.5 111.885 101.122 112.343 101.851C112.28 101.904 111.514 101.07 110.395 100.267C110.274 100.166 110.143 100.078 110.004 100.003C109.951 100.003 109.93 100.003 109.904 100.003C109.865 100.042 109.834 100.089 109.814 100.14C109.727 100.379 109.684 100.631 109.687 100.885C109.703 101.313 109.824 101.577 109.788 101.592Z" fill="#894943"/>
<path d="M109.75 100.948C109.75 100.948 109.676 101.043 109.491 101.028C109.307 101.012 109.08 100.922 108.963 101.16C108.674 101.874 108.261 102.531 107.744 103.103C107.219 103.678 106.588 104.146 105.885 104.481C105.605 104.641 105.293 104.74 104.972 104.771C105.923 104.296 106.792 103.67 107.543 102.918C108.043 102.355 108.466 101.728 108.8 101.054C108.843 100.985 108.904 100.93 108.977 100.893C109.049 100.857 109.131 100.841 109.212 100.848C109.314 100.864 109.414 100.889 109.512 100.922C109.66 100.964 109.74 100.927 109.75 100.948Z" fill="#894943"/>
<path d="M88.4453 123.093C88.3787 122.858 88.338 122.618 88.3238 122.375C88.2605 121.915 88.1866 121.245 88.0968 120.416C87.9278 118.752 87.7272 116.456 87.5688 113.916C87.4104 111.376 87.3153 109.074 87.2731 107.406C87.2731 106.571 87.2414 105.901 87.2467 105.431C87.2342 105.19 87.243 104.948 87.2731 104.708C87.3258 104.945 87.3523 105.188 87.3523 105.431C87.384 105.959 87.4209 106.608 87.4685 107.4C87.5688 109.116 87.7008 111.387 87.8433 113.9C87.9859 116.413 88.176 118.679 88.2974 120.395C88.3502 121.187 88.3978 121.847 88.4347 122.364C88.4591 122.606 88.4626 122.85 88.4453 123.093Z" fill="#263238"/>
<path d="M65.3245 109.153C65.2754 109.27 65.2153 109.381 65.145 109.486L64.617 110.415L62.5472 113.81L55.7044 124.999C53.0591 129.36 50.6884 133.325 48.9196 136.224L46.8551 139.619C46.6228 139.999 46.4327 140.305 46.2848 140.538C46.224 140.649 46.1514 140.753 46.0684 140.849C46.1164 140.733 46.1728 140.62 46.2373 140.511C46.3693 140.269 46.5488 139.957 46.7653 139.566C47.2511 138.727 47.9269 137.56 48.7506 136.124C50.4455 133.23 52.8109 129.26 55.4668 124.861C58.1226 120.463 60.5672 116.545 62.3624 113.71L64.4744 110.363C64.7226 109.993 64.9232 109.692 65.0711 109.46C65.1449 109.349 65.2298 109.247 65.3245 109.153Z" fill="#263238"/>
<path d="M70.4248 107.944C70.4633 107.839 70.5129 107.738 70.5726 107.643C70.6888 107.427 70.8472 107.152 71.032 106.814L72.785 103.784C74.3003 101.212 76.3595 97.7117 78.6405 93.8467L79.4958 92.4105C79.7415 91.9095 80.0802 91.4598 80.4938 91.0853C80.7178 90.9058 80.9825 90.7843 81.2646 90.7315C81.5485 90.6873 81.8391 90.7354 82.0936 90.8688C82.5582 91.1011 82.9912 91.344 83.4242 91.5816C85.1296 92.532 86.645 93.4243 87.9122 94.1846C88.5458 94.5648 89.116 94.9185 89.607 95.2406C89.8481 95.3886 90.0698 95.5659 90.267 95.7686C90.4289 95.9467 90.5385 96.1659 90.5838 96.4022C90.6381 96.724 90.6034 97.0544 90.4835 97.3579C90.4514 97.4662 90.3975 97.5668 90.3251 97.6536C90.3251 97.6536 90.3674 97.548 90.4307 97.3421C90.5206 97.0443 90.5387 96.7294 90.4835 96.4233C90.4308 96.2099 90.3213 96.0147 90.1667 95.8584C89.9712 95.6769 89.755 95.5192 89.5226 95.3885C89.0262 95.0822 88.4666 94.7443 87.8118 94.3747C86.5394 93.6355 85.0134 92.759 83.3027 91.8245C82.875 91.5921 82.4315 91.3493 81.9827 91.1275C81.7688 91.0242 81.5289 90.9871 81.2937 91.0209C81.0585 91.0548 80.8388 91.1581 80.6627 91.3176C80.2774 91.6729 79.9621 92.0973 79.7334 92.5689L78.8781 93.984L72.9486 103.884L71.127 106.867L70.599 107.67C70.5514 107.767 70.4929 107.86 70.4248 107.944Z" fill="#E0E0E0"/>
<path d="M55.7305 102.67C55.7305 102.67 64.4372 98.4456 66.961 98.0285C69.4849 97.6114 77.5791 97.6325 77.5791 97.6325C77.5791 97.6325 82.215 99.4699 82.9225 101.049C83.63 102.627 82.9225 103.219 82.9225 103.219C83.0632 103.745 83.0204 104.304 82.801 104.803C82.6004 105.199 81.7028 105.357 81.7028 105.357L81.7926 105.743C81.7926 105.743 81.7926 106.065 81.0428 106.355C80.8243 106.444 80.5854 106.47 80.353 106.429C80.1206 106.389 79.9041 106.285 79.7281 106.128L77.331 105.072L74.3689 104.718L76.8822 105.616C76.8822 105.616 79.0681 106.413 79.3373 107.052C79.385 107.164 79.3997 107.287 79.3796 107.408C79.3595 107.528 79.3055 107.64 79.2239 107.73C79.1423 107.82 79.0366 107.886 78.9192 107.918C78.8018 107.95 78.6776 107.949 78.5612 107.913C77.8589 107.797 68.5873 106.149 68.5873 106.149L67.0613 105.727C67.0613 105.727 59.7697 110.737 59.7749 110.764C59.7802 110.79 55.7305 102.67 55.7305 102.67Z" fill="#B5675E"/>
<path d="M74.3848 102.237C74.7705 102.076 75.1872 102.004 75.6044 102.025C76.614 102.026 77.6116 102.244 78.5296 102.664C79.4523 103.065 80.2867 103.645 80.9848 104.37C81.2881 104.655 81.5321 104.998 81.7028 105.378C81.6659 105.378 81.3913 105.019 80.8475 104.507C80.1304 103.849 79.3098 103.314 78.4187 102.923C77.5279 102.525 76.5729 102.291 75.5992 102.231C74.8547 102.184 74.3953 102.284 74.3848 102.237Z" fill="#894943"/>
<path d="M82.9599 103.356C82.9282 103.388 82.5639 103.066 81.9039 102.638C81.2439 102.21 80.3199 101.619 79.3167 100.943C78.865 100.612 78.3903 100.314 77.8964 100.051C77.477 99.8876 77.0357 99.7879 76.5869 99.755C75.8055 99.6917 75.3197 99.755 75.3145 99.755C75.7227 99.5976 76.1621 99.538 76.5975 99.5808C77.0752 99.5823 77.5488 99.6681 77.9967 99.8342C78.5122 100.091 79.005 100.392 79.4698 100.732C80.473 101.408 81.3759 102.02 82.0148 102.495C82.3793 102.723 82.6995 103.014 82.9599 103.356Z" fill="#894943"/>
<path d="M148.992 48.7705L148.726 50.4639C148.599 50.6182 148.44 50.7393 148.251 50.8271C148.063 50.9131 147.865 50.9736 147.656 51.0088C147.447 51.0439 147.248 51.0596 147.059 51.0557C146.768 51.0518 146.52 50.9932 146.314 50.8799C146.111 50.7646 145.949 50.6104 145.828 50.417C145.709 50.2236 145.629 50.0059 145.588 49.7637C145.547 49.5195 145.543 49.2656 145.576 49.002L145.614 48.7354C145.651 48.4619 145.723 48.2012 145.828 47.9531C145.934 47.7031 146.071 47.4814 146.241 47.2881C146.411 47.0928 146.614 46.9404 146.851 46.8311C147.087 46.7197 147.355 46.667 147.656 46.6729C147.957 46.6787 148.213 46.7373 148.424 46.8486C148.635 46.96 148.799 47.1201 148.916 47.3291C149.035 47.5361 149.104 47.7881 149.124 48.085L148.298 48.082C148.288 47.9414 148.26 47.8174 148.213 47.71C148.166 47.6025 148.096 47.5186 148.002 47.458C147.908 47.3975 147.785 47.3643 147.633 47.3584C147.445 47.3506 147.284 47.3877 147.149 47.4697C147.015 47.5518 146.901 47.6621 146.81 47.8008C146.72 47.9375 146.648 48.0879 146.596 48.252C146.543 48.4141 146.506 48.5732 146.484 48.7295L146.446 49.0049C146.429 49.1475 146.42 49.2979 146.42 49.4561C146.422 49.6123 146.444 49.7598 146.487 49.8984C146.532 50.0352 146.606 50.1475 146.71 50.2354C146.813 50.3213 146.958 50.3662 147.144 50.3701C147.233 50.3721 147.321 50.3662 147.407 50.3525C147.493 50.3389 147.576 50.3164 147.656 50.2852C147.736 50.252 147.812 50.209 147.882 50.1562L148.028 49.3975H147.249L147.357 48.7705H148.992ZM150.94 46.7344L150.202 51H149.344L150.085 46.7344H150.94ZM153.621 49.5879L154.459 49.5762C154.422 49.8906 154.315 50.1602 154.14 50.3848C153.966 50.6074 153.747 50.7773 153.483 50.8945C153.22 51.0098 152.934 51.0645 152.625 51.0586C152.34 51.0527 152.1 50.9922 151.904 50.877C151.709 50.7598 151.556 50.6035 151.444 50.4082C151.333 50.2129 151.26 49.9951 151.225 49.7549C151.189 49.5146 151.188 49.2686 151.219 49.0166L151.26 48.7207C151.299 48.4551 151.37 48.1982 151.474 47.9502C151.579 47.7021 151.717 47.4814 151.887 47.2881C152.057 47.0947 152.258 46.9424 152.49 46.8311C152.723 46.7197 152.986 46.667 153.281 46.6729C153.59 46.6787 153.851 46.7451 154.063 46.8721C154.278 46.9971 154.443 47.1719 154.559 47.3965C154.676 47.6191 154.741 47.8799 154.755 48.1787L153.902 48.1758C153.904 48.0176 153.885 47.8789 153.844 47.7598C153.805 47.6387 153.736 47.5449 153.639 47.4785C153.541 47.4102 153.406 47.373 153.234 47.3672C153.047 47.3613 152.888 47.3984 152.757 47.4785C152.626 47.5586 152.518 47.666 152.432 47.8008C152.348 47.9355 152.281 48.083 152.232 48.2432C152.186 48.4033 152.15 48.5605 152.127 48.7148L152.086 49.0195C152.07 49.1465 152.06 49.2871 152.054 49.4414C152.048 49.5938 152.061 49.7393 152.092 49.8779C152.123 50.0166 152.184 50.1318 152.273 50.2236C152.363 50.3135 152.497 50.3613 152.675 50.3672C152.851 50.373 153.002 50.3457 153.129 50.2852C153.258 50.2246 153.362 50.1348 153.442 50.0156C153.524 49.8965 153.584 49.7539 153.621 49.5879Z" fill="white"/>
</svg>
