<svg width="360" height="162" viewBox="0 0 360 162" fill="none" xmlns="http://www.w3.org/2000/svg">
<g clip-path="url(#clip0)">
<path d="M396.727 84.7773C396.727 109.524 396.613 134.172 396.727 158.92C396.727 161.404 396.159 162.001 393.205 162.001H330.378L315.04 158.423C304.702 155.839 295.045 158.025 285.842 162.001H62.8236C60.7786 160.311 60.5514 157.926 59.7561 155.739C50.44 127.414 28.3994 111.512 -3.86611 105.648C-7.50167 104.953 -11.5917 106.145 -14.8864 103.859C-14.8864 70.068 -14.7728 36.376 -15 2.684C-15 -1.19208 -13.7503 -1.49023 -9.8875 -1.49023C75.0179 -1.35772 159.848 -1.35772 244.601 -1.49023C253.009 1.49136 261.075 4.8705 269.482 7.75271C270.223 7.92222 270.916 8.22089 271.522 8.63079C272.127 9.04068 272.631 9.55334 273.004 10.138C274.027 13.219 273.686 16.2999 273.231 19.3809C272.777 22.4619 272.55 23.8533 272.55 26.1392V45.5196C272.714 48.9307 273.402 52.307 274.595 55.5576C275.162 57.8416 276.079 60.0481 277.321 62.1171C278.357 63.8985 279.574 65.5948 280.957 67.1858C283.343 69.2729 285.274 71.857 288.455 73.149C289.649 73.533 290.707 74.1841 291.523 75.0374C293.153 76.339 295.155 77.2317 297.317 77.6214C300.044 78.6153 303.111 78.9134 305.611 80.603C308.11 82.2926 307.315 84.976 307.883 87.2619C309.121 92.8135 311.633 98.0879 315.268 102.766C325.265 114.891 341.398 117.873 355.94 110.021C363.439 105.947 369.801 100.778 376.049 95.511C380.348 91.7363 385.155 88.4323 390.364 85.6717C392.296 84.7772 394.227 83.2865 396.727 84.7773Z" fill="#FEFEFE"/>
<path d="M387.524 -1.49023C396.727 -1.49023 396.727 -1.49023 396.727 6.56007V55.657C393.546 58.9368 388.774 59.5331 384.797 61.2226C370.823 67.1858 357.531 74.2423 342.534 78.4165L332.764 80.9012C325.918 82.0591 318.928 82.4266 311.973 81.9944C309.718 81.857 307.535 81.2431 305.611 80.2055C302.997 78.5159 303.793 76.0312 303.679 73.7453C303.338 65.2975 303.679 56.8496 302.77 48.3024C301.066 32.003 293.454 19.6791 275.617 13.0202C274.524 12.7233 273.543 12.1739 272.777 11.43C271.641 8.24964 271.868 4.8705 271.073 1.69013C270.98 1.12695 271.023 0.552993 271.199 0.00523162C271.375 -0.542529 271.68 -1.05195 272.095 -1.49023H342.989C345.261 0.994428 344.011 4.27418 345.829 6.95762C347.315 9.4567 349.188 11.7644 351.396 13.8153C352.173 14.5076 352.859 15.2744 353.441 16.1012C358.667 22.1638 365.484 25.4435 374.232 23.5552C382.98 21.6668 387.297 16.6975 389.001 9.24351C389.796 5.46682 386.729 2.28645 387.524 -1.49023Z" fill="#FE6600"/>
<path d="M396.727 84.7761C388.319 87.1614 382.071 92.3295 375.822 97.3982C369.574 102.467 365.711 105.945 359.803 109.424C339.807 121.152 319.017 115.785 309.473 96.2056C307.154 91.4749 305.771 86.4338 305.383 81.2976C309.36 80.3037 313.222 81.397 317.199 81.2976C322.677 81.3327 328.15 80.9671 333.559 80.2043C352.077 76.3283 368.21 67.5822 385.138 60.5258C388.774 59.1344 392.182 56.5503 396.727 57.6436V84.7761Z" fill="#FE6600"/>
<path d="M-14.8868 103.76C17.0379 102.169 50.6668 123.935 60.4373 152.658C61.4598 155.739 62.0279 158.82 62.8232 161.901H25.1043C19.9918 157.528 17.0379 151.465 10.7893 147.987L9.53955 147.191C7.36845 145.298 4.92409 143.661 2.26844 142.322C-3.07129 139.34 -9.43351 137.849 -14.8868 134.868V103.76Z" fill="#FE6600"/>
<path d="M23.9691 161.9H-12.0457C-14.4315 161.9 -14.9995 161.503 -14.8859 159.316C-14.7723 151.465 -14.8859 143.613 -14.8859 135.762C-8.29649 136.06 -2.95677 139.24 2.49656 141.924C5.45045 143.216 7.72268 145.203 10.3357 146.794H10.2221C16.0163 151.067 21.2424 155.639 23.9691 161.9Z" fill="#FE6600"/>
<path d="M354.918 1.98828H385.82C388.32 4.87049 387.07 7.85208 386.161 10.8337C383.889 16.5981 379.344 20.2754 372.414 21.3686C370.028 21.2693 367.756 22.2631 365.484 21.8656C363.211 21.468 357.304 20.4742 354.35 17.6913C353.017 16.9898 352.011 15.8984 351.509 14.6104C350.828 10.0386 350.26 5.46681 354.918 1.98828Z" fill="#FEFDFD"/>
<path d="M369.346 16.5981C375.822 15.9024 379.571 12.4239 381.957 7.35517C385.252 5.06928 382.98 1.09382 385.252 -1.49023H387.524C392.864 7.25578 390.592 16.5981 382.071 21.965C373.55 27.3319 362.871 26.4374 355.145 19.5797C354.123 18.6852 353.214 17.6914 352.191 16.6975C355.599 14.9085 358.213 17.8901 361.28 17.6914C362.622 18.1142 364.063 18.2357 365.473 18.0447C366.882 17.8537 368.214 17.3563 369.346 16.5981Z" fill="#FDFDFC"/>
<path d="M285.842 161.902C290.728 156.933 297.658 156.038 304.588 155.939C313.648 155.816 322.571 157.879 330.378 161.902H285.842Z" fill="#031469"/>
<path d="M272.095 -1.49023V1.39197C272.55 4.1748 273.345 6.95762 271.868 9.74044C262.552 6.46069 252.781 3.97602 244.601 -1.49023H272.095Z" fill="#FD6603"/>
<path d="M352.078 -1.49023C350.086 2.61482 349.305 7.09155 349.805 11.5294C345.147 9.14412 343.102 4.37357 344.125 -1.49023H352.078Z" fill="#FA6604"/>
<path d="M273.686 10.9336C292.432 16.8968 301.975 28.9225 304.134 46.017C305.611 57.1483 304.361 68.2796 305.156 79.4109C302.316 80.3054 300.044 78.9139 297.544 78.2182C295.045 77.5225 293.113 75.9324 290.387 75.833L288.683 73.7458C285.047 72.4538 283.002 69.5716 280.503 67.1863C279.121 65.4705 277.869 63.6778 276.753 61.8195C275.497 59.5847 274.47 57.2565 273.686 54.8624C272.55 51.2845 272.209 47.5078 271.527 43.8305C270.846 40.1532 271.414 33.9913 271.527 29.0219C272.436 26.6367 271.982 24.2514 272.095 21.8661C272.209 19.4808 271.3 14.3127 273.686 10.9336Z" fill="#FEFEFE"/>
<path d="M270.505 0C270.391 10.2368 270.05 20.3742 269.369 30.611C268.687 40.8479 267.551 54.265 273.913 64.2037C281.639 76.3288 298.908 81.9939 314.699 81.1988C330.491 80.4037 345.374 74.4405 359.576 68.1791C373.777 61.9178 387.979 55.1595 403.543 52.6748" stroke="black" stroke-width="2" stroke-miterlimit="10"/>
<path d="M340.943 -1.29218C340.764 2.15521 341.65 5.58122 343.51 8.62475C345.369 11.6683 348.133 14.2166 351.509 16.0011C354.988 17.6538 358.909 18.4609 362.865 18.3386C366.821 18.2162 370.668 17.1689 374.004 15.3054C377.243 13.3113 379.801 10.5833 381.402 7.41414C383.003 4.24496 383.588 0.754201 383.093 -2.68359" stroke="black" stroke-width="2" stroke-miterlimit="10"/>
<path d="M-19.3173 136.556C-18.4303 136.327 -17.5146 136.194 -16.5906 136.159C-6.74476 135.673 2.93709 138.52 10.4489 144.11C17.9337 149.712 22.6887 157.605 23.7414 166.173" stroke="black" stroke-width="2" stroke-miterlimit="10"/>
</g>
<defs>
<clipPath id="clip0">
<rect width="409" height="162" fill="white" transform="translate(-15)"/>
</clipPath>
</defs>
</svg>
