<svg width="156" height="190" viewBox="0 0 156 190" fill="none" xmlns="http://www.w3.org/2000/svg">
<g clip-path="url(#clip0)">
<path d="M81.7999 110.9C83.4155 112.563 84.6149 114.585 85.2999 116.8C86.0999 119.2 86.7999 121.8 87.3999 124.3C88.58 129.481 89.1174 134.788 88.9999 140.1C88.9999 140.498 89.1579 140.88 89.4392 141.161C89.7205 141.442 90.1021 141.6 90.4999 141.6C90.8977 141.6 91.2792 141.442 91.5605 141.161C91.8418 140.88 91.9999 140.498 91.9999 140.1C92.0997 134.381 91.4952 128.672 90.1999 123.1C89.0999 118.1 87.6999 112.4 83.9999 108.7C83.6935 108.513 83.3328 108.434 82.9761 108.476C82.6193 108.518 82.2871 108.679 82.0331 108.933C81.779 109.188 81.6179 109.52 81.5756 109.876C81.5333 110.233 81.6123 110.594 81.7999 110.9Z" fill="#FDFDFD"/>
<path d="M98.6 106.4C100.382 117.507 100.818 128.789 99.9 140L102.2 138.7L100.6 137.8C100.255 137.601 99.8455 137.547 99.461 137.651C99.0766 137.754 98.7489 138.005 98.55 138.35C98.351 138.695 98.2972 139.105 98.4004 139.489C98.5035 139.873 98.7552 140.201 99.1 140.4L100.7 141.3C100.927 141.42 101.18 141.479 101.436 141.473C101.692 141.467 101.943 141.395 102.163 141.265C102.384 141.135 102.567 140.95 102.696 140.728C102.825 140.507 102.895 140.256 102.9 140C103.785 128.518 103.315 116.972 101.5 105.6C101.2 103.7 98.4 104.5 98.6 106.4Z" fill="#FDFDFD"/>
<path d="M98.7998 92.3991C98.4048 105.238 96.8991 118.019 94.2998 130.599L96.4998 129.699C93.9998 128.399 92.9998 125.799 92.4998 123.099C91.9998 120.399 91.8998 116.199 91.5998 112.699L89.9998 87.9991H86.9998C88.7998 105.599 90.4998 123.599 86.8998 140.999L89.5998 140.699C87.7998 138.199 88.2998 134.999 88.7998 132.199C89.2998 129.399 90.0998 124.899 90.5998 121.299C91.6999 113.881 92.3013 106.398 92.3998 98.8991H89.3998C89.6025 111.164 87.7086 123.372 83.7998 134.999L86.4998 134.599C85.2998 132.099 85.3998 129.099 85.4998 126.299C85.5998 123.499 85.7998 119.799 85.8998 116.499L86.7998 96.7991H83.7998C84.8887 111.179 83.81 125.64 80.5998 139.699L83.2998 139.299C81.6998 135.899 81.6998 132.099 81.8998 128.399C82.0998 124.699 82.5998 120.399 83.1998 116.399C84.409 108.427 86.3848 100.591 89.0998 92.9991H86.1998C89.6778 111.113 91.0203 129.572 90.1998 147.999L92.9998 147.199C91.5998 144.199 91.9998 140.699 92.3998 137.499C92.7998 134.299 93.4998 129.899 94.0998 126.099C95.1998 118.499 96.4998 110.999 97.8998 103.499H95.0998C98.3998 119.699 96.4998 136.299 93.4998 152.399C92.6998 157.099 91.6998 161.599 90.7998 166.199L93.4998 165.899C91.2998 162.699 92.0998 158.199 92.2998 154.499C92.4998 150.799 92.8998 145.199 93.2998 140.499C94.0998 131.199 95.1998 121.899 96.5998 112.699L93.6998 112.299C95.2654 130.22 95.7329 148.221 95.0998 166.199H98.0998C97.3864 154.918 99.736 143.654 104.9 133.599L102.1 133.299C103.652 141.245 103.24 149.449 100.9 157.199H103.8C102.012 148.054 102.286 138.625 104.6 129.599L101.6 129.199C102.617 137.965 101.378 146.846 97.9998 154.999L99.4998 153.899C98.7998 153.899 100.2 133.699 100.3 131.699L101.6 106.799C101.653 106.401 101.546 105.999 101.302 105.68C101.058 105.361 100.698 105.152 100.3 105.099C99.9019 105.046 99.4993 105.153 99.1805 105.397C98.8617 105.641 98.6528 106.001 98.5998 106.399C95.2832 122.648 92.9126 139.076 91.4998 155.599L93.3998 154.099C92.1998 153.699 92.5998 150.799 92.4998 149.999C92.3998 149.199 92.4998 145.399 92.3998 143.099C92.2998 138.499 92.2998 133.899 92.1998 129.299C92.0998 121.299 91.8998 112.799 95.7998 105.499L92.9998 104.799C94.4164 120.164 94.4833 135.623 93.1998 150.999L96.1998 150.599C93.6 136.154 92.7939 121.442 93.7998 106.799H90.7998C91.4 119.467 88.4195 132.047 82.1998 143.099L84.8998 143.499C81.7147 132.037 82.3823 119.845 86.7998 108.799H83.8998C86.1998 119.299 83.3998 129.999 80.7998 140.199L82.9998 139.299C82.1998 138.699 82.4998 136.999 82.6998 136.199C83.0059 134.676 83.4067 133.173 83.8998 131.699C84.6998 128.699 85.5998 125.599 86.5998 122.599C88.6998 116.599 91.3998 110.599 95.2998 105.599L92.7998 104.499C91.2869 117.645 88.2325 130.567 83.6998 142.999L86.5998 143.399C85.1098 131.096 86.5842 118.616 90.8998 106.999L87.8998 106.599C87.1199 122.221 85.1813 137.764 82.0998 153.099H84.9998C82.8998 138.299 84.4998 123.099 88.3998 108.699H85.5998C89.5998 123.499 93.2998 138.499 96.4998 153.599C96.8998 155.399 99.2998 154.799 99.4998 153.199C100.704 142.892 103.61 132.855 108.1 123.499C108.9 121.799 106.4 120.299 105.5 121.999C100.3 132.099 94.5998 141.799 88.4998 151.299L91.2998 152.099C91.2609 142.203 94.263 132.533 99.8998 124.399L97.0998 123.299C94.5041 133.189 90.5676 142.677 85.3998 151.499C84.3998 153.199 86.8998 154.499 87.9998 152.999C94.3192 144.208 102.262 136.706 111.4 130.899C111.745 130.7 111.996 130.372 112.099 129.988C112.202 129.604 112.149 129.194 111.95 128.849C111.751 128.504 111.423 128.253 111.039 128.15C110.654 128.046 110.245 128.1 109.9 128.299C100.829 132.995 91.0769 136.234 80.9998 137.899L82.1998 140.599C92.1347 132.999 103.71 127.828 116 125.499L114.6 122.999C107.8 129.899 97.8998 131.899 88.7998 133.599L90.2998 136.099C96.8622 128.705 106.042 124.151 115.9 123.399L115.1 120.599C105.609 125.81 95.3979 129.584 84.7998 131.799L86.2998 134.299C88.488 132.164 91.1522 130.578 94.0731 129.674C96.9939 128.77 100.088 128.573 103.1 129.099L102.2 126.899C97.4411 134.975 90.4177 141.476 81.9998 145.599L83.7998 147.999L101.3 134.399L99.1998 132.299C95.3537 136.496 91.0235 140.222 86.2998 143.399C84.6998 144.399 86.1998 146.999 87.7998 145.899C92.764 142.647 97.2995 138.783 101.3 134.399C102.7 132.899 100.7 131.099 99.1998 132.299L81.6998 145.899C80.2998 146.999 82.0998 148.899 83.4998 148.199C92.3545 143.782 99.7494 136.908 104.8 128.399C104.897 128.197 104.951 127.977 104.958 127.753C104.964 127.529 104.924 127.306 104.839 127.099C104.754 126.891 104.627 126.704 104.465 126.549C104.303 126.394 104.111 126.275 103.9 126.199C100.384 125.529 96.7579 125.716 93.3291 126.743C89.9002 127.77 86.7689 129.607 84.1998 132.099C84.0009 132.344 83.8791 132.643 83.8495 132.957C83.82 133.271 83.8841 133.587 84.0338 133.865C84.1834 134.143 84.412 134.371 84.6906 134.519C84.9693 134.667 85.2856 134.73 85.5998 134.699C96.4569 132.411 106.907 128.5 116.6 123.099C117.9 122.499 117.4 120.199 115.9 120.399C105.207 121.106 95.2207 125.991 88.0998 133.999C87.8603 134.235 87.7071 134.545 87.6648 134.879C87.6226 135.212 87.6937 135.551 87.8667 135.839C88.0397 136.127 88.3047 136.349 88.619 136.469C88.9333 136.589 89.2787 136.599 89.5998 136.499C99.1998 134.699 109.6 132.399 116.7 125.099C116.939 124.863 117.092 124.553 117.135 124.219C117.177 123.886 117.106 123.548 116.933 123.259C116.76 122.971 116.495 122.749 116.181 122.629C115.866 122.51 115.521 122.499 115.2 122.599C102.668 125.009 90.8611 130.279 80.6998 137.999C80.427 138.196 80.2282 138.479 80.1354 138.802C80.0426 139.125 80.0612 139.47 80.1881 139.782C80.3149 140.093 80.5428 140.353 80.8351 140.519C81.1274 140.686 81.4672 140.749 81.7998 140.699C92.1213 139.013 102.111 135.706 111.4 130.899L109.9 128.299C100.325 134.396 92.0087 142.271 85.3998 151.499L87.9998 152.999C93.2682 143.943 97.3039 134.224 99.9998 124.099C100.085 123.757 100.047 123.395 99.8922 123.078C99.7374 122.761 99.4758 122.509 99.1535 122.366C98.8311 122.223 98.4685 122.197 98.1295 122.295C97.7905 122.392 97.4967 122.606 97.2998 122.899C91.3624 131.472 88.2191 141.671 88.2998 152.099C88.31 152.425 88.4264 152.739 88.6313 152.994C88.8363 153.248 89.1185 153.428 89.4352 153.507C89.7519 153.586 90.0858 153.56 90.3863 153.432C90.6867 153.305 90.9372 153.082 91.0998 152.799C97.1998 143.399 102.9 133.599 108.1 123.499L105.5 121.999C100.786 131.826 97.7439 142.371 96.4998 153.199L99.3998 152.799C96.1998 137.699 92.4998 122.699 88.3998 107.899C88.3998 107.528 88.2523 107.172 87.9897 106.909C87.7272 106.647 87.3711 106.499 86.9998 106.499C86.6285 106.499 86.2724 106.647 86.0098 106.909C85.7473 107.172 85.5998 107.528 85.5998 107.899C81.4998 122.799 79.8998 138.499 82.0998 153.899C82.2998 155.399 84.6998 155.299 84.9998 153.899C88.1145 138.297 90.0864 122.488 90.8998 106.599C90.9998 104.799 88.4998 104.699 87.9998 106.199C83.5985 118.073 82.0902 130.826 83.5998 143.399C83.6654 143.726 83.8315 144.024 84.0748 144.252C84.3181 144.48 84.6266 144.626 84.957 144.67C85.2874 144.714 85.6233 144.654 85.9179 144.498C86.2124 144.342 86.4508 144.097 86.5998 143.799C91.2027 131.107 94.2907 117.916 95.7998 104.499C95.7958 104.199 95.7021 103.908 95.5308 103.661C95.3594 103.415 95.1182 103.226 94.8384 103.119C94.5585 103.011 94.2528 102.99 93.9607 103.058C93.6686 103.125 93.4036 103.279 93.1998 103.499C88.5998 109.299 85.5998 115.999 83.2998 122.999C82.1998 126.499 81.1998 129.999 80.1998 133.599C79.1998 137.199 78.6998 139.799 81.4998 141.899C81.6983 142.014 81.9208 142.083 82.1499 142.098C82.379 142.114 82.6087 142.077 82.8212 141.99C83.0338 141.903 83.2235 141.769 83.3758 141.597C83.5282 141.425 83.639 141.221 83.6998 140.999C86.4998 130.199 89.1998 119.099 86.7998 107.999C86.4998 106.399 84.3998 106.799 83.8998 107.999C79.3363 119.571 78.6693 132.314 81.9998 144.299C82.109 144.566 82.2885 144.799 82.5192 144.972C82.7499 145.146 83.0233 145.254 83.3103 145.284C83.5973 145.315 83.8872 145.268 84.1495 145.147C84.4117 145.026 84.6364 144.837 84.7998 144.599C91.2464 133.077 94.3625 119.99 93.7998 106.799C93.7998 104.899 90.9998 104.899 90.7998 106.799C89.7801 121.712 90.6199 136.694 93.2998 151.399C93.5998 153.199 96.0998 152.599 96.1998 150.999C97.4833 135.623 97.4164 120.164 95.9998 104.799C95.7998 103.399 93.8998 102.599 93.1998 103.999C88.7998 112.199 89.0998 121.699 89.1998 130.799L89.4998 145.999C89.3649 148.367 89.4318 150.742 89.6998 153.099C89.9998 154.899 90.7998 156.399 92.5998 156.999C92.8188 157.06 93.0488 157.07 93.2724 157.029C93.496 156.988 93.7072 156.896 93.8903 156.761C94.0733 156.626 94.2232 156.452 94.3288 156.25C94.4344 156.049 94.4929 155.826 94.4998 155.599C95.8792 139.309 98.2166 123.114 101.5 107.099L98.5998 106.799L97.0998 134.699L96.3998 148.599C96.2998 151.399 95.3998 156.699 99.4998 156.899C99.8245 156.907 100.142 156.801 100.397 156.6C100.653 156.4 100.83 156.116 100.9 155.799C104.41 147.401 105.684 138.236 104.6 129.199C104.4 127.599 102.1 126.999 101.7 128.799C99.2854 138.355 99.0123 148.326 100.9 157.999C101.2 159.499 103.4 159.299 103.8 157.999C106.244 149.719 106.655 140.972 105 132.499C104.92 132.223 104.762 131.975 104.546 131.786C104.329 131.596 104.063 131.473 103.778 131.431C103.494 131.389 103.203 131.429 102.941 131.548C102.679 131.666 102.456 131.858 102.3 132.099C96.8924 142.617 94.406 154.393 95.0998 166.199C95.0998 166.597 95.2578 166.978 95.5391 167.26C95.8204 167.541 96.2019 167.699 96.5998 167.699C96.9976 167.699 97.3791 167.541 97.6604 167.26C97.9417 166.978 98.0998 166.597 98.0998 166.199C98.7329 148.221 98.2654 130.22 96.6998 112.299C96.5998 110.799 93.9998 110.099 93.6998 111.899C92.1998 121.599 91.0998 131.299 90.1998 140.999C89.7998 145.799 89.4998 150.599 89.1998 155.499C88.8998 160.399 88.4998 163.899 90.8998 167.399C91.0708 167.634 91.3027 167.819 91.5706 167.932C91.8385 168.045 92.1323 168.083 92.4202 168.042C92.7082 168.001 92.9795 167.882 93.2049 167.698C93.4304 167.515 93.6014 167.273 93.6998 166.999C97.0998 150.599 100.5 133.799 99.6998 116.799C99.5007 112.057 98.8985 107.34 97.8998 102.699C97.8998 102.328 97.7523 101.972 97.4897 101.709C97.2272 101.447 96.8711 101.299 96.4998 101.299C96.1285 101.299 95.7724 101.447 95.5098 101.709C95.2473 101.972 95.0998 102.328 95.0998 102.699C93.4998 110.699 92.1998 118.699 90.9998 126.699C90.3998 130.599 89.7998 134.499 89.2998 138.399C88.7998 142.299 88.7998 145.399 90.3998 148.699C90.9998 150.199 93.0998 149.299 93.1998 147.999C94.0911 129.302 92.7144 110.565 89.0998 92.1991C88.7998 90.5991 86.5998 90.8991 86.1998 92.1991C83.3702 100.249 81.3273 108.555 80.0998 116.999C79.4572 121.139 79.0565 125.313 78.8998 129.499C78.5839 133.356 79.2013 137.232 80.6998 140.799C80.8357 141.074 81.053 141.301 81.322 141.449C81.5911 141.597 81.8991 141.659 82.2045 141.626C82.5098 141.594 82.7977 141.468 83.0294 141.266C83.261 141.065 83.4252 140.797 83.4998 140.499C86.7922 126.181 87.9047 111.449 86.7998 96.7991C86.7998 96.4013 86.6417 96.0197 86.3604 95.7384C86.0791 95.4571 85.6976 95.2991 85.2998 95.2991C84.9019 95.2991 84.5204 95.4571 84.2391 95.7384C83.9578 96.0197 83.7998 96.4013 83.7998 96.7991L82.8998 117.499C82.7998 120.799 82.5998 124.099 82.4998 127.399C82.2442 130.412 82.7604 133.441 83.9998 136.199C84.5998 137.399 86.2998 136.899 86.6998 135.799C90.6829 123.912 92.6105 111.434 92.3998 98.8991C92.3998 98.5013 92.2417 98.1197 91.9604 97.8384C91.6791 97.5571 91.2976 97.3991 90.8998 97.3991C90.5019 97.3991 90.1204 97.5571 89.8391 97.8384C89.5578 98.1197 89.3998 98.5013 89.3998 98.8991C89.218 106.762 88.5836 114.609 87.4998 122.399C86.8998 126.099 86.0998 129.699 85.5998 133.299C85.0998 136.899 85.0998 139.599 86.9998 142.199C87.6998 143.099 89.4998 143.199 89.7998 141.799C93.4998 124.099 91.7998 105.899 89.9998 87.9991C89.7998 86.1991 86.8998 86.0991 86.9998 87.9991L88.7998 114.699C89.0998 120.599 88.7998 129.099 94.9998 132.299C95.1983 132.414 95.4208 132.483 95.6499 132.499C95.879 132.514 96.1087 132.477 96.3212 132.39C96.5338 132.303 96.7235 132.169 96.8758 131.997C97.0282 131.825 97.139 131.621 97.1998 131.399C99.8816 118.56 101.421 105.509 101.8 92.3991C101.9 90.4991 98.8998 90.4991 98.7998 92.3991Z" fill="#FDFDFD"/>
<path d="M0 122.4V-4.3C0.267763 -4.68132 0.654737 -4.96275 1.1 -5.1C4.96904 -6.72372 8.98838 -7.96302 13.1 -8.8C19.2 -10.1 25.3 -11 31.3 -12.5C38.7643 -14.3656 45.6844 -17.9627 51.5 -23C58.9382 -29.4826 64.3827 -37.9441 67.2 -47.4C68.8423 -52.8415 69.5523 -58.5216 69.3 -64.2C69.0919 -70.0874 67.9092 -75.8995 65.8 -81.4C65.3694 -82.2011 65.1298 -83.091 65.1 -84H99.1C99.6 -83.1 99.9 -82 100.4 -81.1C102.598 -76.8753 105.319 -72.9444 108.5 -69.4C111.979 -65.5605 115.186 -61.484 118.1 -57.2C120.439 -53.7135 121.976 -49.7518 122.6 -45.6C123.068 -41.8557 122.831 -38.0568 121.9 -34.4C120.6 -28.6 118.1 -23.1 115.6 -17.7C113.52 -13.4071 111.683 -9.00003 110.1 -4.5C108.585 -0.132523 107.907 4.48129 108.1 9.1C108.5 14.4 109.8 19.4 113.5 23.5C116.073 26.4998 119.676 28.4265 123.6 28.9C129.71 29.6945 135.918 28.6134 141.4 25.8C145.8 23.6 149.9 21.1 154.1 18.5C159.744 14.9275 166.026 12.4824 172.6 11.3C173.1 11.3 173.6 11.1 174.1 11.5V88.4C171.634 88.858 169.196 89.459 166.8 90.2C161.299 91.8249 156.216 94.6224 151.9 98.4C147.897 102.028 144.754 106.503 142.7 111.5C141.2 114.8 140 118.2 138.5 121.5C138.3 121.9 138.2 122.4 137.7 122.6C135.903 122.733 134.1 122.767 132.3 122.7L123.7 122.1C121 121.9 118.3 121.9 115.6 121.9C110.814 121.911 106.071 122.792 101.6 124.5C98.4286 125.76 95.5595 127.677 93.1812 130.124C90.8028 132.571 88.969 135.494 87.8 138.7C87.2622 140.031 86.8276 141.402 86.5 142.8C86.4393 143.206 86.2661 143.587 86 143.9C84.6 144.3 83.2 144.3 81.8 144.6C76.0146 145.486 70.6584 148.181 66.5 152.3C63.7636 155.021 61.9158 158.508 61.2 162.3C60.525 165.883 60.9793 169.587 62.5 172.9C64.2832 176.875 66.7165 180.525 69.7 183.7C72.7 187.1 76 190.2 78.8 193.8C82.6619 198.692 85.1475 204.526 86 210.7C86.0012 211.378 86.1023 212.052 86.3 212.7C86.7 214.6 86.3 216.5 86.4 218.5C86.566 220.231 86.5324 221.976 86.3 223.7C86.2 223.8 86.2 223.9 86.1 223.9H20L19.6 223.3C16.6026 216.311 14.5835 208.941 13.6 201.4C12.5429 193.832 13.5805 186.119 16.6 179.1C18.4 175.1 20.6 171.2 22.7 167.4C25.3057 163.09 27.4827 158.535 29.2 153.8C30.2886 150.677 30.8956 147.406 31 144.1C31 136 27.7 129.7 20.6 125.6C15.6123 122.901 9.95606 121.687 4.3 122.1L1.2 122.5C1.00674 122.581 0.796677 122.615 0.587724 122.597C0.37877 122.58 0.177128 122.512 0 122.4H0Z" fill="#FDFDFD"/>
<path d="M174.1 107V223.7C173.714 223.831 173.302 223.865 172.9 223.8H108.9C108.2 223.7 108.4 223.1 108.4 222.6C108.372 218.068 107.733 213.561 106.5 209.2C105.024 203.892 103.048 198.736 100.6 193.8C96.9 186.3 92.8 179.1 89.8 171.3C87.8018 166.439 86.4892 161.323 85.9 156.1C85.5169 152.263 85.6853 148.39 86.4 144.6C86.5 144.2 86.5 143.8 86.9 143.5C87.6404 143.254 88.4212 143.152 89.2 143.2C93.8 142.7 98.4 143.2 103 143.2C107.43 143.164 111.848 142.729 116.2 141.9C120.258 141.111 124.077 139.391 127.357 136.875C130.636 134.358 133.287 131.115 135.1 127.4C135.695 125.995 136.432 124.655 137.3 123.4C138.275 123.12 139.286 122.985 140.3 123C146.12 122.787 151.849 121.498 157.2 119.2C163.335 116.535 168.8 112.538 173.2 107.5C173.4 107.2 173.6 106.9 174.1 107Z" fill="#FE6600"/>
<path d="M174.1 11.5C171.056 11.7614 168.063 12.4342 165.2 13.5C161.283 14.892 157.528 16.7025 154 18.9C149.802 21.5967 145.462 24.0669 141 26.3C136.009 28.7595 130.448 29.8303 124.9 29.4C122.156 29.2193 119.496 28.3796 117.146 26.9521C114.796 25.5246 112.825 23.5515 111.4 21.2C109.748 18.4413 108.661 15.3822 108.2 12.2C107.914 10.381 107.78 8.54127 107.8 6.7C107.993 2.2494 108.905 -2.14065 110.5 -6.3C112.6 -12.3 115.6 -17.9 118 -23.8C120.144 -28.5061 121.625 -33.4869 122.4 -38.6C123.122 -44.4009 121.89 -50.277 118.9 -55.3C116.855 -58.8439 114.441 -62.1623 111.7 -65.2C108.607 -68.6748 105.702 -72.3134 103 -76.1C101.443 -78.2994 100.166 -80.6845 99.1999 -83.2C99.1097 -83.4564 99.0756 -83.7293 99.0999 -84H173.2C173.9 -84 174.1 -83.8 174.1 -83V11.5Z" fill="#9FA2A7"/>
<path d="M0 122.4C2.93085 121.836 5.92433 121.667 8.9 121.9C14.8095 122.22 20.4421 124.508 24.9 128.4C28.6331 131.816 30.8922 136.55 31.2 141.6C31.6 147.4 30.1 152.8 27.9 158C25.7 163.2 23 167.3 20.5 171.9C18 176.5 15.4 181.9 14.3 187.5C13.5026 191.583 13.3006 195.76 13.7 199.9C14.4 208.1 16.9 215.7 19.8 223.3C20 223.5 19.9 223.7 19.7 223.8H0V122.4Z" fill="#001469"/>
<path d="M137.9 122.4C140 117.4 141.8 112.3 144.4 107.5C148.287 100.278 154.587 94.6509 162.2 91.6001C165.674 90.0505 169.34 88.9742 173.1 88.4001C173.257 88.3282 173.427 88.291 173.6 88.291C173.772 88.291 173.943 88.3282 174.1 88.4001V105.7C173.819 106.342 173.41 106.92 172.9 107.4C166.947 114.096 159.158 118.895 150.5 121.2C147.272 122.097 143.948 122.601 140.6 122.7L138.9 122.9C138.5 122.9 138 123 137.9 122.4Z" fill="#FE6600"/>
<path d="M137.9 122.399C140.037 122.6 142.191 122.499 144.3 122.099C152.174 121.162 159.66 118.16 166 113.399C168.658 111.422 171.075 109.14 173.2 106.599C173.5 106.299 173.7 105.899 174.1 105.699V106.999C172.426 108.89 170.622 110.661 168.7 112.299C162.961 117.212 156.087 120.615 148.7 122.199C144.979 122.95 141.196 123.352 137.4 123.399C137.191 123.563 136.946 123.675 136.686 123.727C136.425 123.78 136.156 123.77 135.9 123.699C133.6 123.399 131.3 123.599 129 123.299L120.3 122.799C113 122.499 105.9 123.099 99.3002 126.699C96.5306 128.211 94.0938 130.265 92.1352 132.739C90.1766 135.213 88.7363 138.057 87.9002 141.099C87.7675 141.984 87.4617 142.833 87.0002 143.599C86.4072 145.749 86.1045 147.969 86.1002 150.199C85.6002 159.099 88.2002 167.399 91.8002 175.399C94.3002 180.899 97.1002 186.099 99.7002 191.399C103.021 197.599 105.573 204.181 107.3 210.999C108.215 215.171 108.685 219.428 108.7 223.699C108.4 223.999 108.1 223.799 107.8 223.799C107.676 223.647 107.585 223.471 107.533 223.281C107.481 223.092 107.47 222.893 107.5 222.699C107.6 214.499 105.4 206.799 102.2 199.399C99.0002 191.999 96.5002 187.599 93.5002 181.699C90.8332 176.489 88.5925 171.071 86.8002 165.499C85.1876 159.884 84.6115 154.021 85.1002 148.199C84.9675 146.72 85.2443 145.232 85.9002 143.899C86.627 140.276 88.017 136.818 90.0002 133.699C93.7002 127.899 99.1002 124.599 105.6 122.899C110.542 121.724 115.63 121.286 120.7 121.599C126.1 121.799 131.4 122.399 136.8 122.499L137.9 122.399Z" fill="#010101"/>
<path d="M107.7 223.7H86.0999C85.6999 223.2 85.9999 222.7 86.0999 222.2C86.3333 219.674 86.3667 217.132 86.1999 214.6C85.7973 205.937 82.3641 197.69 76.4999 191.3C73.2999 187.9 69.8999 184.5 66.8999 180.8C64.3049 177.613 62.3675 173.942 61.1999 170C59.4999 163.3 61.2999 157.4 65.9999 152.4C70.6999 147.4 76.3999 145 82.8999 144C83.8676 143.685 84.8989 143.616 85.8999 143.8C85.5999 145.9 85.2999 148 85.1999 150.2C85.0418 157.767 86.5437 165.277 89.5999 172.2C92.1999 178.6 95.4999 184.7 98.5999 190.9C101.7 197.1 105.3 205.1 106.8 212.8C107.604 216.374 107.907 220.043 107.7 223.7Z" fill="#FE6600"/>
<path d="M87 143.6C89 134.4 94.1 127.9 103.1 124.7C108.8 122.6 114.8 122.3 120.8 122.6L134.7 123.3H137.4C135.6 127.2 133.7 131 130.7 134.2C126.784 138.302 121.676 141.066 116.1 142.1C112.674 142.796 109.195 143.197 105.7 143.3C102.7 143.4 99.8 143.3 96.8 143.2L87 143.6Z" fill="#FEFEFE"/>
<path d="M149 194.2C147.768 195.554 146.248 196.616 144.553 197.308C142.857 198 141.028 198.305 139.2 198.2C132 197.8 126.7 192.5 126.6 185.3C126.498 182.917 127.085 180.556 128.291 178.498C129.498 176.441 131.271 174.775 133.4 173.7L134 173.5C134.017 173.701 133.99 173.904 133.921 174.094C133.852 174.284 133.742 174.456 133.6 174.6C132.561 176.46 131.985 178.542 131.918 180.672C131.852 182.801 132.299 184.916 133.22 186.837C134.141 188.758 135.51 190.429 137.212 191.71C138.914 192.992 140.899 193.846 143 194.2C144.592 194.467 146.221 194.433 147.8 194.1C148.2 194 148.6 193.8 149 194.2Z" fill="#FEFEFE"/>
<path d="M149 194.199C146.878 194.768 144.653 194.836 142.5 194.399C140.364 193.978 138.361 193.047 136.662 191.684C134.964 190.322 133.62 188.569 132.746 186.575C131.872 184.581 131.493 182.405 131.641 180.232C131.79 178.06 132.462 175.956 133.6 174.099C133.767 173.924 133.902 173.721 134 173.499C136.055 170.724 139.034 168.774 142.4 167.999C145.693 167.387 149.096 168.02 151.948 169.776C154.801 171.533 156.898 174.287 157.833 177.503C158.768 180.72 158.474 184.169 157.008 187.18C155.542 190.192 153.008 192.551 149.9 193.799L149 194.199Z" fill="#020101"/>
<path d="M150.7 192.501C145.3 195.501 137.8 193.401 134.4 187.901C131 182.401 132.1 176.101 136.3 172.301C139.588 171.397 143.098 171.81 146.086 173.454C149.073 175.097 151.303 177.84 152.3 181.101C152.922 182.936 153.119 184.889 152.877 186.812C152.634 188.735 151.958 190.577 150.9 192.201C150.9 192.301 150.8 192.401 150.7 192.501Z" fill="#FEFEFE"/>
<path d="M150.7 192.501C150.928 191.661 151.264 190.855 151.7 190.101C153.5 185.201 152.9 180.601 149.5 176.601C146.1 172.601 142.1 171.601 137.3 172.301C136.9 172.301 136.6 172.501 136.3 172.301C138.029 170.498 140.266 169.265 142.713 168.765C145.16 168.265 147.702 168.521 150 169.501C152.219 170.38 154.131 171.891 155.499 173.846C156.868 175.802 157.633 178.115 157.7 180.501C158 185.501 155.8 189.401 151.5 192.101C151.3 192.301 150.9 192.301 150.7 192.501Z" fill="#FE6600"/>
</g>
<rect x="0.5" y="0.5" width="155" height="189" rx="14.5" stroke="#E8E8E8"/>
<defs>
<clipPath id="clip0">
</clipPath>
</defs>
</svg>
