<svg width="150" height="80" viewBox="0 0 150 80" fill="none" xmlns="http://www.w3.org/2000/svg">
<g clip-path="url(#clip0)">
<path d="M67.5999 154.999H5.89994C5.70904 154.804 5.57134 154.563 5.49994 154.299C2.65078 147.801 0.731901 140.933 -0.200058 133.899C-1.09836 126.832 -0.0973625 119.652 2.69994 113.099C4.39994 109.299 6.39994 105.699 8.39994 102.099C10.8394 98.088 12.8504 93.8313 14.3999 89.3994C15.4553 86.4781 16.0294 83.4048 16.0999 80.2994C16.0999 72.6994 12.9999 66.8994 6.39994 63.0994C1.77091 60.521 -3.51857 59.3726 -8.80006 59.7994C-9.77774 59.8346 -10.7494 59.9686 -11.7001 60.1994C-12.1001 60.2994 -12.5001 60.3994 -12.8001 60.0994V-58.4006C-12.6655 -58.6 -12.4878 -58.7664 -12.28 -58.8876C-12.0722 -59.0088 -11.8398 -59.0816 -11.6001 -59.1006C-8.01758 -60.6116 -4.30132 -61.7834 -0.500058 -62.6006C5.09994 -63.8006 10.6999 -64.6006 16.1999 -66.0006C23.2152 -67.6753 29.7291 -71.0008 35.1999 -75.7006C39.5094 -79.4555 43.1011 -83.962 45.7999 -89.0006C48.6993 -94.1301 50.5995 -99.763 51.3999 -105.601C52.3509 -112.247 51.9427 -119.017 50.1999 -125.501C49.6721 -127.467 49.0379 -129.403 48.2999 -131.301C48.2268 -131.682 48.0089 -132.02 47.6919 -132.243C47.3749 -132.467 46.9835 -132.559 46.5999 -132.501H-11.0001C-11.6001 -132.501 -12.3001 -132.301 -12.8001 -132.801C-13.3001 -133.301 -12.9001 -133.001 -12.7001 -133.001H149C149.9 -133.001 150 -132.801 150 -132.001C149.933 -36.6673 149.9 58.6994 149.9 154.099C149.9 154.399 150.2 154.699 149.8 154.999L149.5 154.599C149.417 154.138 149.383 153.668 149.4 153.199V47.0994C149.4 46.6994 149.5 46.2994 149.5 45.8994C149.45 45.4675 149.45 45.0313 149.5 44.5994V29.5994C149.5 28.4994 149.4 28.3994 148.3 28.5994C141.682 29.7749 135.441 32.518 130.1 36.5994C125.873 40.1519 122.577 44.6832 120.5 49.7994C119.1 52.7994 117.9 55.8994 116.6 58.9994C116.49 59.4597 116.246 59.8772 115.9 60.1994C114.176 60.4319 112.431 60.4654 110.7 60.2994C108 60.1994 105.4 59.8994 102.7 59.6994H95.0999C90.6558 59.6924 86.2486 60.506 82.0999 62.0994C79.122 63.234 76.4261 65.0021 74.1988 67.2812C71.9714 69.5604 70.2658 72.2962 69.1999 75.2994C68.6918 76.5733 68.2578 77.8755 67.8999 79.1994C67.7999 79.4994 67.7999 79.8994 67.4999 80.0994C67.1999 80.2994 64.7999 80.4994 63.4999 80.7994C58.1323 81.6619 53.1679 84.1791 49.2999 87.9994C46.6884 90.4901 44.9372 93.7473 44.2999 97.2994C43.7371 100.646 44.1538 104.084 45.4999 107.199C47.1489 110.973 49.4509 114.426 52.2999 117.399C55.0999 120.499 58.0999 123.399 60.6999 126.799C64.3526 131.344 66.672 136.814 67.3999 142.599L67.6999 144.399C67.933 146.19 67.9665 148.001 67.7999 149.799C67.9676 151.431 67.934 153.076 67.6999 154.699C67.7045 154.754 67.698 154.808 67.6808 154.86C67.6637 154.911 67.6361 154.959 67.5999 154.999Z" fill="#FDFDFD"/>
<path d="M-12.8 60.0993C-10.0721 59.532 -7.27634 59.3636 -4.50005 59.5993C1.09995 60.0993 6.19995 61.7993 10.4 65.6993C13.8869 68.8793 16.0024 73.2895 16.2999 77.9993C16.6999 83.3993 15.3 88.4993 13.2 93.3993C11.1 98.2993 8.69995 101.999 6.29995 106.299C3.68657 110.868 1.73382 115.783 0.499951 120.899C-0.214795 124.723 -0.383142 128.628 -4.86374e-05 132.499C0.599952 140.099 2.89995 147.299 5.69995 154.299C5.79995 154.599 5.79995 154.699 5.59995 154.799H-12.8V60.0993Z" fill="#001469"/>
<path d="M149.7 154.699H88.6C88.3 154.399 88.4 154.099 88.4 153.699C88.3 145.999 86.3 138.799 83.4 131.799C80.5 124.799 77.6 120.099 74.8 114.299C72.0661 108.947 69.9203 103.314 68.4 97.4994C67.7817 94.8057 67.4135 92.0607 67.3 89.2994C67.1675 86.5892 67.3352 83.8727 67.8 81.1994C67.7638 80.943 67.7904 80.6816 67.8775 80.4378C67.9646 80.1939 68.1096 79.9749 68.3 79.7994C69.0059 79.5535 69.754 79.4515 70.5 79.4994C74.8 79.0994 79.1 79.4994 83.3 79.4994C87.4624 79.5017 91.6152 79.0998 95.7 78.2994C99.5022 77.5588 103.08 75.9447 106.152 73.5845C109.224 71.2243 111.705 68.1826 113.4 64.6994C113.928 63.3958 114.598 62.1549 115.4 60.9994C116.315 60.7614 117.255 60.6272 118.2 60.5994C123.569 60.3907 128.856 59.2046 133.8 57.0994C139.594 54.7077 144.736 50.9714 148.8 46.1994C149.1 45.9994 149.2 45.5994 149.7 45.6994C150.2 45.7994 149.8 46.2994 149.8 46.5994V154.099C149.8 154.299 149.7 154.499 149.7 154.699Z" fill="#FE6600"/>
<path d="M115.9 60.0992C118 55.1992 119.7 50.0992 122.4 45.4992C126.1 38.7992 131.7 34.2992 138.7 31.1992C141.971 29.8267 145.396 28.8531 148.9 28.2992C149.4 28.1992 149.8 28.0992 149.8 28.7992C149.7 33.9992 149.7 39.1992 149.7 44.3992C149.523 44.9873 149.175 45.5093 148.7 45.8992C144.97 50.1711 140.411 53.6411 135.3 56.0992C131.191 58.075 126.809 59.4233 122.3 60.0992L116.8 60.4992C116.5 60.4992 116 60.5992 115.9 60.0992Z" fill="#FE6600"/>
<path d="M115.9 60.1004C117.938 60.2501 119.987 60.1493 122 59.8004C129.321 58.8949 136.282 56.1038 142.2 51.7004C144.964 49.5539 147.48 47.1054 149.7 44.4004C149.802 44.8277 149.802 45.2731 149.7 45.7004C148.1 47.4004 146.5 49.1004 144.8 50.6004C139.442 55.2147 133.013 58.4121 126.1 59.9004C122.611 60.6125 119.061 60.9809 115.5 61.0004C115.3 61.1435 115.072 61.244 114.831 61.2956C114.59 61.3472 114.341 61.3488 114.1 61.3004C111.9 61.0004 109.8 61.2004 107.7 61.0004C105.6 60.8004 102.2 60.5004 99.5 60.4004C92.7 60.2004 86 60.7004 79.9 64.1004C73.8 67.5004 71.1 71.7004 69.3 77.6004C69.1328 78.4126 68.8285 79.1904 68.4 79.9004C67.8563 81.8902 67.5541 83.9383 67.5 86.0004C67.1 94.4004 69.6 102.1 72.9 109.6C75.2 114.7 77.8 119.6 80.3 124.5C83.4222 130.304 85.7754 136.489 87.3 142.9C88.2314 146.763 88.6682 150.728 88.6 154.7C88.3428 154.801 88.0572 154.801 87.8 154.7C87.9355 152.156 87.7677 149.605 87.3 147.1C86.3 139.6 83.4 132.8 80.2 126.1C77 119.4 73.3 113 70.6 106.2C67.7055 99.4187 66.4055 92.0634 66.8 84.7004C66.9 83.2004 67.2 81.7004 67.4 80.2004C68.1138 76.8083 69.3987 73.5621 71.2 70.6004C74.6 65.2004 79.7 62.1004 85.8 60.5004C90.423 59.4573 95.1672 59.0535 99.9 59.3004C104.9 59.5004 109.9 60.1004 114.9 60.1004H115.9Z" fill="#020101"/>
<path d="M68.4 79.899C70.2 71.299 75 65.199 83.4 62.199C88.8 60.199 94.3 59.899 100 60.199L112.9 60.899H115.5C113.968 64.6189 111.841 68.0641 109.2 71.099C105.5 75.099 100.8 77.299 95.5 78.499C92.3418 79.1669 89.1275 79.5352 85.9 79.599C83.1 79.699 80.4 79.599 77.7 79.499C75 79.399 71.5 79.699 68.4 79.899Z" fill="#FEFEFE"/>
</g>
<rect x="0.5" y="0.5" width="149" height="79" rx="5.5" stroke="#E8E8E8"/>
<defs>
<clipPath id="clip0">
</clipPath>
</defs>
</svg>
