<svg width="150" height="80" viewBox="0 0 150 80" fill="none" xmlns="http://www.w3.org/2000/svg">
<g clip-path="url(#clip0)">
<path d="M73.3999 79.5C73.7846 89.0737 73.5173 98.6625 72.5999 108.2L75.4999 107.8C73.0999 99.1 74.7999 89.9 72.6999 81.1C72.5807 80.7807 72.3562 80.5115 72.0636 80.3368C71.7709 80.1621 71.4274 80.0923 71.0898 80.1389C70.7521 80.1854 70.4404 80.3456 70.206 80.593C69.9715 80.8404 69.8283 81.1603 69.7999 81.5C69.4501 92.0033 69.6504 102.518 70.3999 113C70.5999 114.9 73.5999 115 73.3999 113C72.4666 100.953 72.4332 88.8524 73.2999 76.8C73.3999 74.9 70.3999 74.9 70.2999 76.8C69.4332 88.8524 69.4666 100.953 70.3999 113H73.3999C72.6504 102.518 72.4501 92.0033 72.7999 81.5L69.7999 81.9C71.8999 90.7 70.1999 99.9 72.5999 108.6C73.0999 110.4 75.3999 109.9 75.5999 108.2C76.5173 98.6625 76.7846 89.0737 76.3999 79.5C76.2999 77.6 73.2999 77.6 73.3999 79.5Z" fill="white"/>
<path d="M74.4 85.0992L75.5 108.899C75.6 110.799 78.5 110.899 78.5 108.899L78.7 79.3992L75.7 79.7992C78.7 89.3992 81.7 99.2992 82.1 109.499C82.2836 112.033 82.2166 114.579 81.9 117.099C81.8598 117.512 81.7587 117.916 81.6 118.299L81.4 118.499C81.4 118.799 82 118.999 82.1 118.699C82.127 118.191 82.0592 117.682 81.9 117.199V115.199C81.8 110.299 82.3 105.399 82.6 100.599C82.9 95.7992 82.8 89.5992 81.2 84.3992C80.7 82.8992 78 82.9992 78.3 84.7992L80.4 100.999C81.2207 106.46 81.5886 111.978 81.5 117.499C81.4 118.999 83.5 119.399 84.3 118.199C85.4168 116.508 86.1863 114.611 86.564 112.62C86.9417 110.629 86.9199 108.582 86.5 106.599L84 107.999C85.7 110.199 84.5 113.599 83.6 115.799C82.7 117.999 85.3 119.099 86.2 117.299L88.2 113.199L85.4 112.399C85.427 114.001 85.0486 115.583 84.3 116.999C83.3 118.699 85.8 120.099 86.9 118.499C92.6 109.299 90.6 97.7992 87.3 88.0992C87.2153 87.7793 87.0271 87.4964 86.7649 87.2946C86.5026 87.0927 86.1809 86.9833 85.85 86.9833C85.5191 86.9833 85.1974 87.0927 84.9352 87.2946C84.6729 87.4964 84.4847 87.7793 84.4 88.0992C81.6 98.4992 78.8 108.899 77.8 119.599H80.8L83.2 75.4992H80.2L80.5 110.599L83.5 110.199C81.6 104.699 79.7 99.1992 78.2 93.5992C77.4509 91.1215 76.9485 88.5758 76.7 85.9992C76.6 84.5992 76.5 82.1992 78.1 81.5992L76.3 80.5992C78.0182 89.8053 76.684 99.3207 72.5 107.699C72.3 108.199 71.6 110.099 70.9 110.099C70.2 110.099 70.2 108.099 70.1 107.699C69.6308 105.562 69.3629 103.386 69.3 101.199C69.3019 96.8662 70.1866 92.5791 71.9 88.5992C72.7 86.8992 73.6 84.3992 75.1 83.1992C76.6 81.9992 78.9 85.0992 79.8 86.2992C82.1737 89.6427 83.3055 93.7102 83 97.7992C82.6508 101.314 81.0962 104.6 78.6 107.099C77.4016 108.356 75.8786 109.256 74.2 109.699C73.1 109.799 72.9 108.599 72.7 107.699C72.4684 106.613 72.3346 105.509 72.3 104.399C72 93.9992 79.7 85.9992 88.1 81.0992L85.9 80.1992C87.3201 86.6939 86.9542 93.4521 84.8414 99.7555C82.7285 106.059 78.9474 111.672 73.9 115.999C73.7 116.199 73.4 116.099 73.7 116.299C74 116.499 73.8 116.099 73.8 115.999L73.4 114.699C73.2507 113.839 73.1506 112.971 73.1 112.099C72.8197 108.554 73.2991 104.989 74.5062 101.644C75.7134 98.2983 77.6204 95.2489 80.1 92.6992C81.2671 91.4119 82.6144 90.3004 84.1 89.3992C84.7992 88.8232 85.6197 88.4129 86.5 88.1992C87.4 88.1992 87.7 88.9992 87.9 89.7992C88.3008 91.8403 88.4019 93.929 88.2 95.9992C88.0815 98.2478 87.8143 100.486 87.4 102.699C86.6175 106.964 85.0218 111.038 82.7 114.699C81.7253 116.255 80.4297 117.584 78.9 118.599C77.8 119.199 75.1 120.499 74.1 119.299C73.589 118.465 73.2175 117.553 73 116.599C72.7685 115.615 72.6345 114.61 72.6 113.599C72.5095 111.445 72.8847 109.296 73.7 107.299C75.1652 103.804 77.9238 101.009 81.4 99.4992C82.9 98.7992 85.2 97.9992 86.9 98.3992C88.6 98.7992 89.3 100.699 89.5 102.299C89.9 106.399 88 110.499 85.3 113.499C82.3102 116.498 78.782 118.907 74.9 120.599C74.5 120.799 72.6 121.799 72.2 121.399C71.8 120.999 72.2 119.999 72.3 119.599C72.9693 117.747 73.95 116.022 75.2 114.499C75.7543 113.732 76.3915 113.027 77.1 112.399L78.1 111.399L78.7 110.899C79.3 110.299 78.8 110.799 78.8 110.699C78.5673 112.396 77.7961 113.973 76.6 115.199C75.4078 116.6 73.8996 117.696 72.2 118.399L71.1 118.799C70.7 118.899 70.7 119.099 70.8 118.599C71.2402 117.699 71.7414 116.831 72.3 115.999C73.5112 114.243 74.9205 112.633 76.5 111.199C77.1723 110.515 77.9485 109.941 78.8 109.499C79.6 109.199 79.9 109.599 79.6 110.299C79.0761 111.073 78.2977 111.639 77.4 111.899L76.4 112.199C76.2 112.399 75.9 111.499 76.4 112.599C76.9 113.699 76.6 112.999 77.2 112.999C77.5678 112.986 77.9346 113.045 78.2794 113.174C78.6242 113.302 78.9404 113.497 79.2097 113.748C79.479 113.999 79.6963 114.3 79.8491 114.635C80.0018 114.97 80.0871 115.331 80.1 115.699C80.1 117.399 78.3 118.499 76.8 118.399L78.2 120.299C78.9 115.599 82.4 112.399 86.2 109.999C87.9 108.999 89.9 107.599 91.9 107.299C93.9 106.999 93.5 110.099 92.7 111.499C91.4714 113.362 89.7839 114.877 87.8 115.899C86 116.899 82.7 118.899 80.7 117.799C78.7 116.699 78.8 112.899 79.1 110.699C79.4455 108.006 79.9464 105.335 80.6 102.699C82 97.6992 85.4 92.0992 91.1 91.4992L89.7 90.3992C90.3195 94.0638 90.1208 97.82 89.118 101.399C88.1153 104.977 86.3334 108.29 83.9 111.099L82 112.899C81.4 113.499 80.8 114.299 80 113.499C79.2 112.699 77.9 109.899 77.3 108.199C75.8692 104.21 75.7293 99.8722 76.9 95.7992C77.9527 92.2914 80.2687 89.2985 83.4 87.3992L85.7 86.2992C86.7 85.9992 87 86.1992 87.2 87.0992C87.5826 89.0781 87.6164 91.1087 87.3 93.0992C86.8231 97.1213 84.9888 100.86 82.1 103.699C80.7786 104.982 79.1819 105.945 77.4316 106.517C75.6813 107.089 73.8236 107.254 72 106.999C68.3 106.399 64.7 103.599 64.1 99.6992C63.5 95.7992 65.5 92.3992 68.9 91.2992C70.7 90.6992 69.9 87.7992 68.1 88.3992C66.1231 89.1107 64.4022 90.3936 63.1558 92.0851C61.9095 93.7766 61.1939 95.8003 61.1 97.8992C60.7 102.399 63.6 106.599 67.5 108.599C69.5938 109.641 71.9125 110.15 74.2502 110.08C76.5879 110.01 78.8721 109.364 80.9 108.199C83.053 106.947 84.9324 105.275 86.4269 103.282C87.9214 101.289 89.0004 99.0168 89.6 96.5992C90.2711 94.0227 90.541 91.358 90.4 88.6992C90.3 86.5992 89.9 83.8992 87.5 83.2992C85.1 82.6992 82.7 84.1992 81 85.3992C79.1101 86.7209 77.4824 88.3824 76.2 90.2992C73.5419 94.6341 72.547 99.7863 73.4 104.799C73.8491 107.398 74.6568 109.922 75.8 112.299C76.7 114.299 78.1 116.999 80.7 116.999C81.9644 116.768 83.1212 116.137 84 115.199C85.0342 114.298 85.9725 113.293 86.8 112.199C88.4689 110.129 89.8482 107.841 90.9 105.399C93.0174 100.415 93.5752 94.9066 92.5 89.5992C92.4305 89.2819 92.2528 88.9987 91.9974 88.798C91.742 88.5973 91.4247 88.4917 91.1 88.4992C84.6 89.1992 80.2 94.4992 78.2 100.399C77.0984 103.909 76.394 107.532 76.1 111.199C75.7 114.299 75.9 117.799 78.6 119.899C81.3 121.999 85.1 120.599 88 119.199C90.6182 117.983 92.9134 116.167 94.7 113.899C96.2 111.699 97.5 108.199 95.8 105.899C94.1 103.599 90.5 104.299 88.2 105.499C82.5 108.299 76.3 112.699 75.3 119.499C75.2567 119.725 75.2625 119.957 75.3169 120.18C75.3714 120.403 75.4732 120.612 75.6155 120.792C75.7578 120.972 75.9373 121.12 76.1417 121.225C76.346 121.329 76.5706 121.389 76.8 121.399C78.0985 121.473 79.3858 121.123 80.468 120.401C81.5501 119.68 82.3686 118.626 82.8 117.399C83.1578 116.252 83.137 115.02 82.7409 113.886C82.3447 112.751 81.5941 111.774 80.6 111.099C78.8 109.799 75.5 109.299 74 111.399C73.6866 111.847 73.5356 112.389 73.572 112.934C73.6084 113.48 73.8299 113.997 74.2 114.399C74.64 114.761 75.1595 115.013 75.7158 115.134C76.2721 115.256 76.8493 115.244 77.4 115.099C79.8 114.599 82.5 112.699 82.7 110.099C82.9 107.499 80.2 105.699 77.6 106.799C75 107.899 72.9 110.399 71.2 112.499C69.5 114.599 67.4 116.999 67.9 119.499C68.4 121.999 72 121.899 74.1 120.899C76.4996 119.73 78.5383 117.933 80 115.699C81.2 113.899 82.6 110.999 81.3 108.899C80 106.799 76.3 108.799 74.8 110.399C72.7656 112.441 71.1368 114.85 70 117.499C69.1 119.499 68.4 122.399 70.5 123.899C72.6 125.399 76.2 123.299 78.3 122.199C80.9222 120.907 83.3742 119.295 85.6 117.399C90 113.499 93.1 107.799 92.4 101.899C92.1 99.4992 91.1 96.9992 88.9 95.8992C86.7 94.7992 83.3 95.4992 80.9 96.4992C78.3633 97.4926 76.0884 99.0551 74.2507 101.066C72.4129 103.077 71.0613 105.483 70.3 108.099C69.5025 110.865 69.3995 113.784 70 116.599C70.5 119.199 71.4 122.299 74.4 122.699C79.9 123.399 84.2 118.499 86.5 114.199C89.3484 108.681 90.9527 102.605 91.2 96.3992C91.3 93.6992 91.5 90.5992 90.5 87.9992C89.5 85.3992 86.5 84.6992 83.9 85.9992C79.494 88.4692 75.8856 92.1469 73.5 96.5992C71.0448 101.064 69.8359 106.107 70 111.199C70.1 112.399 70.2 113.599 70.4 114.799C70.6 115.999 70.8 117.499 71.7 118.399C72.6 119.299 76.6 117.699 78.1 116.199C81.8706 112.384 84.8394 107.852 86.8316 102.872C88.8238 97.8913 89.7991 92.5625 89.7 87.1992C89.7031 84.5731 89.4011 81.9556 88.8 79.3992C88.7392 79.1778 88.6284 78.9732 88.4761 78.8013C88.3238 78.6295 88.134 78.4949 87.9214 78.4079C87.7089 78.321 87.4792 78.284 87.2501 78.2998C87.021 78.3156 86.7986 78.3839 86.6 78.4992C77.3 83.8992 68.9 92.9992 69.3 104.399C69.4 106.699 69.6 110.199 71.4 111.799C73.2 113.399 76.2 112.299 78.1 111.199C80.0121 109.996 81.6618 108.419 82.9505 106.563C84.2392 104.708 85.1403 102.611 85.6 100.399C86.6439 95.4562 85.7489 90.3011 83.1 85.9992C81.9 83.8992 80.1 81.2992 77.8 80.2992C75.5 79.2992 73 80.5992 71.6 82.7992C68.71 87.349 66.9605 92.5289 66.5 97.8992C66.2168 100.63 66.284 103.386 66.7 106.099C67.1 108.199 67.3 111.799 69.5 112.899C71.7 113.999 74.6 110.399 75.6 108.299C77.007 105.362 78.0803 102.276 78.8 99.0992C80.282 92.7647 80.4182 86.1897 79.2 79.7992C79.0833 79.4081 78.8216 79.0764 78.4684 78.8719C78.1152 78.6674 77.6973 78.6057 77.3 78.6992C72.1 80.6992 73.7 87.4992 74.7 91.5992C76.317 98.1671 78.2865 104.643 80.6 110.999C80.7193 111.319 80.9437 111.588 81.2364 111.762C81.5291 111.937 81.8725 112.007 82.2102 111.96C82.5478 111.914 82.8595 111.754 83.094 111.506C83.3285 111.259 83.4716 110.939 83.5 110.599L83.2 75.4992C83.2 73.5992 80.3 73.5992 80.2 75.4992L77.8 119.599C77.6 121.599 80.6 121.499 80.8 119.599C81.8 109.199 84.6 98.9992 87.3 88.8992H84.4C87.4 97.7992 89.5 108.499 84.3 116.999L86.9 118.499C87.8989 116.622 88.4145 114.526 88.4 112.399C88.3 110.999 86.2 110.199 85.6 111.599L83.6 115.799L86.2 117.299C87.8 113.599 88.9 109.299 86.1 105.899C85.1 104.599 83.3 105.999 83.6 107.399C84.182 110.628 83.5018 113.957 81.7 116.699L84.5 117.499C84.5886 111.978 84.2207 106.46 83.4 100.999L81.3 84.7992L78.3 85.1992C81.7 95.8992 78 107.199 79 118.099C79.1 119.299 79.2 120.399 80.2 121.099C80.5779 121.364 81.0241 121.514 81.4853 121.532C81.9464 121.55 82.4029 121.434 82.8 121.199C84.9 119.999 85 117.299 85.1 115.199C85.3343 109.463 84.8641 103.721 83.7 98.0992C82.3999 91.6325 80.6965 85.2533 78.6 78.9992C78.4807 78.6799 78.2563 78.4107 77.9636 78.236C77.671 78.0613 77.3275 77.9915 76.9899 78.0381C76.6522 78.0847 76.3405 78.2448 76.106 78.4923C75.8716 78.7397 75.7284 79.0595 75.7 79.3992L75.5 108.899H78.5L77.4 85.0992C77.3 83.0992 74.3 83.0992 74.4 85.0992Z" fill="white"/>
<path d="M1 85.2998V-23.5002C1.18411 -23.8383 1.46189 -24.1161 1.8 -24.3002C2.87476 -25.0618 4.01217 -25.7308 5.2 -26.3002C6.30839 -26.0218 7.38184 -25.6192 8.4 -25.1002C12.9501 -23.0397 17.6261 -21.2695 22.4 -19.8002C26.2866 -18.6187 30.3397 -18.0783 34.4 -18.2002C39.457 -18.4868 44.3819 -19.9233 48.8 -22.4002C50.4 -23.3002 51.9 -24.5002 53.5 -25.4002C56.5973 -24.8157 59.7503 -24.5809 62.9 -24.7002C68 -24.8002 73 -25.5002 77.5 -28.0002C84.4 -31.8002 88 -37.7002 88.3 -45.6002C88.3743 -49.8662 87.4136 -54.0867 85.5 -57.9002C83.0063 -63.3578 79.665 -68.3866 75.6 -72.8002C72.3 -76.5002 68.9 -80.1002 65.5 -83.7002C62.1 -87.3002 59.8 -89.4002 57.2 -92.4002C57 -92.7002 56.3 -92.9002 57.1 -93.4002C57.5194 -93.5354 57.9648 -93.5696 58.4 -93.5002H126.7C128.5 -93.5002 128.6 -93.4002 129.1 -91.7002C130.363 -87.1675 131.332 -82.5579 132 -77.9002C132 -77.3002 132.1 -76.7002 132.1 -76.1002C131.933 -75.472 131.968 -74.8074 132.2 -74.2002C132.2 -71.4002 132.3 -68.5002 132.1 -65.7002C132.1 -65.2002 131.9 -64.7002 131.9 -64.1002C131.34 -58.9127 130.165 -53.8102 128.4 -48.9002C126.485 -43.6976 123.86 -38.7845 120.6 -34.3002C117.9 -30.6002 115.1 -27.1002 112.6 -23.3002C109.707 -19.4855 107.6 -15.1348 106.4 -10.5002C105.419 -6.69987 105.384 -2.71686 106.3 1.09982C106.856 3.3263 107.873 5.41129 109.286 7.21998C110.698 9.02866 112.475 10.5208 114.5 11.5998C117.871 13.3842 121.591 14.4082 125.4 14.5998C130.62 14.9719 135.866 14.4304 140.9 12.9998C143.5 12.3998 146.1 11.5998 148.8 10.7998C151.5 9.99981 150.5 10.4998 150.5 12.1998V34.6998C150.58 34.8891 150.615 35.0947 150.6 35.2998V55.4998C150.5 55.9998 150.1 55.9998 149.7 56.0998C146.573 56.9881 143.349 57.4918 140.1 57.5998C134.1 57.7998 128.3 56.9998 122.4 56.3998L114.5 55.7998C109.54 55.5677 104.576 56.1418 99.8 57.4998C92.4 59.9998 86.9 64.6998 83.9 71.9998C83.5 72.9998 83.4 73.9998 83 74.8998C82.7244 75.163 82.3759 75.3372 82 75.3998C79.4936 76.2756 77.1833 77.6346 75.2 79.3998C73.0339 81.2906 71.4405 83.7501 70.6 86.4998C68.8 92.2998 69.5 97.8998 71.6 103.4C73.7 108.9 76.4 112.5 79.7 116.6C81.2 118.4 82.8 120.1 84.2 121.9C84.4 122.2 84.7 122.4 84.6 122.9C83.4577 124.225 82.1845 125.431 80.8 126.5C78.387 128.58 76.1153 130.818 74 133.2C70.8511 137.031 68.6576 141.555 67.6 146.4C66.0318 152.877 66.0661 159.639 67.7 166.1C68 167.2 68.4 168.3 68.8 169.4C69.2 170.5 69.2 170.5 70.4 170.5H149C149.502 170.433 150.012 170.467 150.5 170.6L150.8 170.8C150.8 170.8 150.9 171 150.7 171H1.8C1.5 171 1.2 171.2 1 170.9C1.15204 170.775 1.32856 170.684 1.51808 170.633C1.70759 170.581 1.90586 170.57 2.1 170.6H7.2C7.9 170.7 8.2 170.4 8.4 169.8C10.3001 163.437 13.0947 157.376 16.7 151.8C18.2 149.4 19.7 147.1 21.3 144.8C21.4757 144.459 21.713 144.154 22 143.9C22.1011 143.87 22.2075 143.864 22.3114 143.881C22.4153 143.899 22.514 143.939 22.6 144C22.7336 144.075 22.891 144.096 23.0398 144.059C23.1886 144.022 23.3175 143.929 23.4 143.8C23.4538 143.739 23.492 143.666 23.5113 143.587C23.5306 143.508 23.5304 143.426 23.5107 143.347C23.491 143.268 23.4524 143.196 23.3983 143.135C23.3441 143.075 23.2761 143.028 23.2 143C23.1379 142.953 23.0875 142.893 23.0528 142.823C23.0181 142.754 23 142.677 23 142.6C22.9 142.2 23.2 142 23.4 141.7C25.8 137.9 28.3 134.2 30.4 130.3C33.4863 124.851 35.6807 118.943 36.9 112.8C38.0246 106.373 37.0791 99.7548 34.2 93.8998C32.0649 89.2447 28.3925 85.4664 23.8 83.1998C21.9092 82.319 19.8783 81.7775 17.8 81.5998C14.3779 81.2259 10.9159 81.6715 7.7 82.8998L7 83.1998L1.9 85.0998C1.6 85.1998 1.3 85.3998 1 85.2998Z" fill="#FDFDFD"/>
<path d="M132 -65.5C131.6 -65.9 132 -66.4 132 -66.9C131.9 -69.4 132 -71.9 132 -74.4L132.3 -74.6C132.6 -74.6 132.9 -74.6 132.9 -75C132.9 -75.4 132.7 -75.5 132.4 -75.6L132 -75.8C131.762 -76.6133 131.628 -77.4532 131.6 -78.3C131.133 -82.1872 130.364 -86.0321 129.3 -89.8L128.6 -92.6C128.59 -92.7029 128.557 -92.8023 128.503 -92.8909C128.45 -92.9796 128.378 -93.0553 128.292 -93.1127C128.206 -93.17 128.108 -93.2076 128.006 -93.2227C127.903 -93.2378 127.799 -93.2301 127.7 -93.2H56.8C55.7365 -93.0327 54.651 -93.0667 53.6 -93.3C53.3 -93.6 53.5 -93.8 53.7 -94H150C150.7 -94 150.8 -93.8 150.8 -93.1V34.7C150.5 34.9 150.4 34.8 150.3 34.5V11.7C150.3 10.7 150.3 10.7 149.3 10.9L140.2 13.5C137.505 14.1686 134.764 14.6365 132 14.9C130.303 15.0333 128.601 15.0667 126.9 15C121.8 14.7 116.9 13.7 112.7 10.7C110.916 9.48925 109.389 7.93867 108.205 6.13697C107.021 4.33527 106.204 2.3178 105.8 0.199997C105.335 -2.17231 105.267 -4.60551 105.6 -7C106.07 -11.0383 107.327 -14.9454 109.3 -18.5C111.187 -21.8891 113.327 -25.1316 115.7 -28.2C118.568 -31.7276 121.206 -35.4352 123.6 -39.3C126.241 -43.784 128.291 -48.5905 129.7 -53.6C130.5 -56.6 131 -59.7 131.6 -62.8C131.7 -63.3 131.5 -63.8 131.8 -64.2H132.1C132.4 -64.2 132.8 -64.2 132.9 -64.6C133 -65 132.5 -65.1 132.2 -65.2C132.163 -65.1947 132.125 -65.2001 132.09 -65.2155C132.056 -65.2309 132.027 -65.2558 132.006 -65.2871C131.985 -65.3185 131.973 -65.3551 131.972 -65.3927C131.971 -65.4304 131.981 -65.4676 132 -65.5Z" fill="#9FA2A7"/>
<path d="M150.5 75.6001H150.6V170.7H104.9C104.564 169.842 104.428 168.919 104.5 168C104.33 162.927 103.558 157.891 102.2 153C100.253 145.382 96.969 138.17 92.5 131.7C90.534 128.872 88.3966 126.167 86.1 123.6C85.6224 123.172 85.2757 122.617 85.1 122C85.2 121.4 85.7 121 86.1 120.5C88.8492 117.022 90.1399 112.612 89.7 108.2C89.1617 104.261 88.1546 100.4 86.7 96.7001C85.2574 93.0052 84.0222 89.2327 83 85.4001C82.3671 82.6817 82.1313 79.886 82.3 77.1001C82.2411 76.613 82.3467 76.1203 82.6 75.7001C83.7315 75.1382 84.9477 74.7665 86.2 74.6001C92.3 73.6001 98.2 74.5001 104 76.0001L116.1 79.5001C121.244 81.0768 126.629 81.7203 132 81.4001C137.759 80.9851 143.357 79.3125 148.4 76.5001C148.96 75.9437 149.711 75.6218 150.5 75.6001Z" fill="#FE6600"/>
<path d="M150.6 74.7009H150.5C150.164 75.169 149.717 75.5469 149.2 75.8009C144.072 78.8291 138.332 80.674 132.4 81.2009C128.069 81.4813 123.721 81.1105 119.5 80.1009C115 79.1009 110.6 77.7009 106.2 76.4009C102.534 75.3378 98.7886 74.5686 95 74.1009C91.3862 73.729 87.7356 73.9656 84.2 74.8009C83.8 74.9009 83.3 75.2009 82.8 74.9009C83.4769 71.3965 85.1026 68.1451 87.5 65.5009C93.1 58.9009 100.5 56.2009 108.9 55.7009C113.977 55.4847 119.064 55.7189 124.1 56.4009C129.408 57.0495 134.753 57.3502 140.1 57.3009C143.589 57.2249 147.052 56.6869 150.4 55.7009H150.6V74.7009Z" fill="#FE6600"/>
<path d="M82.8 74.8995L87.6 73.9995C91.9802 73.5145 96.4113 73.7851 100.7 74.7995C106 75.8995 111.1 77.6995 116.3 79.0995C121.519 80.6431 126.969 81.2525 132.4 80.8995C138.55 80.3881 144.485 78.3983 149.7 75.0995L150.5 74.6995V75.5995C146.489 78.0006 142.141 79.7871 137.6 80.8995C132.732 81.9484 127.707 82.0503 122.8 81.1995C117 80.2995 111.6 78.3995 106 76.8995C101.717 75.5529 97.2827 74.7467 92.8 74.4995C89.4584 74.3988 86.1207 74.8034 82.9 75.6995H82.6C82.4 76.0995 82 76.1995 81.6 76.3995C77.1 78.1995 73.6 81.0995 71.7 85.5995C70.3525 88.9603 69.9379 92.6226 70.5 96.1995C71.4707 101.982 73.8394 107.441 77.4 112.1C79.6712 115.255 82.143 118.261 84.8 121.1C85 121.4 85.2 121.6 85.2 121.9C87.3 124.6 89.7 127.2 91.7 130C97.3674 137.856 101.32 146.817 103.3 156.3C104.144 160.249 104.646 164.264 104.8 168.3C104.8 169.1 104.9 169.9 104.9 170.6H104.1C103.9 155.1 99.3 141 89.7 128.7L85.2 123.2L84.6 122.6L78.3 115C74.486 110.534 71.7185 105.272 70.2 99.5995C69.0512 95.5121 69.0512 91.187 70.2 87.0995C71.9 81.0995 76 77.1995 81.8 75.0995L82.8 74.8995Z" fill="#010001"/>
<path d="M85.2 122.001C81.1 117.401 77 112.801 74 107.401C71.5164 103.075 70.1743 98.1883 70.1 93.2008C70.1 85.0008 74.2 79.0008 81.9 76.1008L82.6 75.8008C82 80.7008 83 85.3008 84.5 89.8008C86 94.3008 88 98.9008 89.1 103.601C89.741 105.741 90.0447 107.967 90 110.201C89.9353 113.901 88.672 117.48 86.4 120.401L85.2 122.001Z" fill="#FEFEFE"/>
</g>
<rect x="0.5" y="0.5" width="149" height="79" rx="5.5" stroke="#E8E8E8"/>
<defs>
<clipPath id="clip0">
</clipPath>
</defs>
</svg>
