<svg width="150" height="80" viewBox="0 0 150 80" fill="none" xmlns="http://www.w3.org/2000/svg">
<g clip-path="url(#clip0)">
<path d="M155 140.5V149.3C155 149.9 154.9 150 154.3 150H0.899976C0.199976 150 0.0999756 149.8 0.0999756 149.1V0.100006C0.12624 0.100006 0.152247 0.0948334 0.176512 0.0847778C0.200777 0.0747223 0.222825 0.0599976 0.241397 0.0414276C0.259969 0.0228577 0.274701 0.000793457 0.284752 -0.023468C0.294802 -0.0477295 0.299976 -0.0737457 0.299976 -0.100006C0.999976 -1.90001 1.49998 -3.7 2.09998 -5.5C4.29998 -12.8 6.39998 -20 8.59998 -27.2L18.2 -59.2C20.1606 -65.3407 21.6319 -71.627 22.6 -78C22.9671 -81.5547 23.034 -85.134 22.8 -88.7C22.3 -95 20.4 -100.9 18.8 -107C17.6848 -110.976 16.8165 -115.017 16.2 -119.1C15.9002 -121.992 15.9002 -124.908 16.2 -127.8C16.24 -128.225 16.3769 -128.636 16.6 -129H105.8L107.4 -128C111.6 -124.7 115.8 -121.6 120.2 -118.5C122.031 -117.29 123.8 -115.988 125.5 -114.6C129.4 -111.2 133.4 -107.9 136.7 -103.8C141.545 -97.7327 144.686 -90.4841 145.8 -82.8C146.384 -79.0965 146.519 -75.3358 146.2 -71.6C145.559 -64.4431 144.048 -57.3911 141.7 -50.6C140.4 -47 138.9 -43.4 137.4 -39.9C134.4 -32.8 131 -25.8 128.1 -18.6C125.427 -12.1704 123.482 -5.46203 122.3 1.39999C121.636 6.10275 121.469 10.8622 121.8 15.6C121.9 16.7 122 17.8 122.2 18.9C122.4 20 122.1 20 121.9 20.6C120.281 24.5576 119.107 28.683 118.4 32.9C117.694 37.563 118.106 42.3269 119.6 46.8C121.123 51.1255 124.283 54.6805 128.4 56.7C131.243 57.9857 133.928 59.5964 136.4 61.5C138.683 63.3476 140.327 65.8664 141.1 68.7C142.023 72.0195 142.461 75.4551 142.4 78.9C142.4 81 142.4 83 142.5 85C142.6 87 142.2 88.2 142.2 89.9C142.283 96.986 143.02 104.049 144.4 111C145.805 118.246 147.984 125.32 150.9 132.1C152 134.6 153.3 137.1 154.5 139.5L155 140.5Z" fill="#FDFDFD"/>
<path d="M119.2 -129H154.1C154.8 -129 155 -128.9 155 -128.2V63.5C154.4 63.5 154.5 62.9 154.4 62.5C153.843 60.0484 152.934 57.6905 151.7 55.5C149.986 52.9847 147.815 50.8137 145.3 49.1C142.1 46.7 138.6 44.8 135.3 42.5C133.082 41.1956 131.117 39.5018 129.5 37.5C126.617 34.1132 124.471 30.1625 123.2 25.9C122.666 24.3141 122.33 22.6683 122.2 21C123.3 17.8 124.7 14.7 126.1 11.6C128.9 5.40001 131.7 -0.800003 134.4 -7.1C137.1 -13.4 138.8 -17.5 140.8 -22.8C143.943 -31.1752 146.352 -39.8077 148 -48.6C148.7 -53 149.3 -57.4 149.6 -61.8C149.833 -65.6624 149.867 -69.5342 149.7 -73.4C149.362 -82.2098 147.536 -90.899 144.3 -99.1C142.339 -103.712 139.784 -108.049 136.7 -112C135.029 -114.236 133.19 -116.342 131.2 -118.3C129.5 -120 127.6 -121.6 125.8 -123.2C124 -124.8 121.8 -126.6 119.7 -128.3C119.4 -128.4 119.1 -128.6 119.2 -129Z" fill="#00146A"/>
<path d="M122.3 21.1003C123 25.1711 124.387 29.0935 126.4 32.7003C129 37.5003 132.9 40.9003 137.4 43.7003C139.1 44.7003 140.8 45.6003 142.3 46.7003C144.516 48.1871 146.652 49.7893 148.7 51.5003C151.856 54.5696 153.957 58.5611 154.7 62.9003C154.7 63.1003 154.6 63.5003 155 63.5003V71.5003C154.5 77.5003 152.7 83.3003 151.6 89.2003C150.836 93.5897 150.568 98.051 150.8 102.5C151.129 108.122 152.344 113.657 154.4 118.9C154.7 119.5 154.7 120.1 155 120.7V139.4C154.4 139.4 154.3 138.9 154.1 138.5C152.165 135.045 150.525 131.432 149.2 127.7C146.14 119.859 144.09 111.659 143.1 103.3C142.436 99.1686 142.168 94.9829 142.3 90.8003C142.5 86.5003 142.5 82.2003 142.5 77.9003C142.516 74.0257 141.768 70.1859 140.3 66.6003C139.051 63.6225 136.83 61.1553 134 59.6003L126.7 55.4003C123.643 53.7796 121.267 51.1195 120 47.9003C118.904 45.056 118.295 42.0471 118.2 39.0003C118.11 33.1434 119.198 27.3282 121.4 21.9003C121.6 21.5003 121.6 20.9003 122.3 21.1003Z" fill="#FEFEFE"/>
<path d="M122 18.9C121.268 14.5386 121.133 10.0977 121.6 5.7C122.309 -1.84854 124.093 -9.25691 126.9 -16.3C128.3 -20 129.9 -23.6 131.5 -27.1C134.5 -34.1 137.8 -40.9 140.5 -48C143.213 -55.0034 144.995 -62.3327 145.8 -69.8C146.673 -77.1951 145.817 -84.6919 143.3 -91.7C141.813 -95.4798 139.829 -99.0446 137.4 -102.3C134.4 -106.5 130.6 -109.8 126.8 -113.1C123 -116.4 117.5 -120 112.8 -123.5L106.1 -128.6L105.8 -129H117.5C120.789 -126.629 123.928 -124.057 126.9 -121.3C129.011 -119.555 130.984 -117.65 132.8 -115.6C135.962 -112.14 138.744 -108.352 141.1 -104.3C144.036 -98.8376 146.158 -92.9757 147.4 -86.9C148.3 -82.681 148.902 -78.4037 149.2 -74.1C149.3 -70.7 149.4 -67.4 149.3 -64.1C149.063 -59.4373 148.529 -54.7945 147.7 -50.2C146.375 -42.8473 144.537 -35.5963 142.2 -28.5C139.7 -21.2 136.7 -14 133.6 -6.9C132.1 -3.3 130.4 0.299988 128.8 3.89999C127.2 7.5 124.6 13.2 122.8 17.9C122.6 18.3 122.6 18.8 122 18.9Z" fill="#00146A"/>
<path d="M122 18.9C122.642 17.8347 123.146 16.6922 123.5 15.5C124.1 14 124.8 12.6 125.4 11.1C127.6 6.10001 129.8 1.10001 132.1 -3.9C134.4 -8.9 135.8 -12.4 137.6 -16.8C140.447 -23.775 142.852 -30.9225 144.8 -38.2C145.7 -41.5 146.5 -44.9 147.1 -48.3C147.7 -51.7 148.2 -54.6 148.5 -57.8C149.018 -62.3136 149.185 -66.8606 149 -71.4C148.978 -74.7816 148.711 -78.1572 148.2 -81.5C147.517 -86.2321 146.379 -90.887 144.8 -95.4C142.824 -101.155 139.882 -106.532 136.1 -111.3C133.69 -114.457 130.977 -117.371 128 -120C126.7 -121.3 125.1 -122.4 123.8 -123.7C121.856 -125.442 119.82 -127.078 117.7 -128.6C117.6 -128.7 117.6 -128.8 117.5 -129H119.2L124.3 -124.8L129.1 -120.6C130.6 -119.2 132.1 -117.8 133.4 -116.4C136.283 -113.179 138.86 -109.697 141.1 -106C144.71 -99.5994 147.212 -92.6346 148.5 -85.4C149.1 -81.9 149.5 -78.4 149.8 -74.8C150.033 -70.9043 150.067 -66.9991 149.9 -63.1C149.647 -58.5759 149.147 -54.0692 148.4 -49.6C147.062 -42.3813 145.224 -35.2641 142.9 -28.3C140.9 -22.3 138.7 -16.5 136.2 -10.7C133.7 -4.89999 132 -0.900009 129.8 3.89999C127.6 8.7 124.5 15.2 122.3 21.1C121.9 21 121.9 21.3 121.8 21.5C119.5 27.5 118 33.7 118.5 40.2C118.8 44.2 119.7 47.9 122.2 51.2C124.7 54.5 126.8 55.3 129.6 56.7C131.556 57.7369 133.458 58.8717 135.3 60.1C139 62.6 140.8 66.2 141.8 70.5C142.584 74.6857 142.919 78.9431 142.8 83.2C142.534 88.7644 142.567 94.3392 142.9 99.9C143.686 107.148 145.125 114.311 147.2 121.3C148.4 125.1 149.9 128.8 151.4 132.5C152.3 134.6 153.4 136.7 154.5 138.7C154.6 139 154.6 139.3 155 139.4V140.5C154.6 140.5 154.6 140.1 154.4 139.8C153 137.2 151.7 134.5 150.5 131.8C147.79 125.453 145.713 118.855 144.3 112.1C143.119 106.298 142.383 100.414 142.1 94.5C141.9 88.8 142.4 83.2 142.2 77.6C142.157 74.4434 141.652 71.31 140.7 68.3C139.5 64.3 136.8 61.7 133.3 59.7C131.4 58.6 129.6 57.5 127.7 56.6C122.7 54 119.9 49.8 118.6 44.5C117.3 39.2 117.8 32.9 119.4 27.2C120.083 24.7832 120.918 22.4118 121.9 20.1C122 19.7 121.9 19.3 122 18.9Z" fill="#010001"/>
<path d="M0.300061 -1C0.532964 -2.68003 0.969508 -4.32547 1.60006 -5.9C3.60006 -13 5.80006 -20 7.90006 -27L11.2001 -38C13.4001 -45.3 15.6001 -52.5 17.7001 -59.8C18.8315 -63.1764 19.7664 -66.6155 20.5001 -70.1C21.1118 -72.7056 21.5792 -75.3429 21.9001 -78C22.2658 -80.7511 22.4329 -83.5249 22.4001 -86.3C21.9861 -91.7517 21.0143 -97.1465 19.5001 -102.4C18.5001 -106.1 17.3001 -109.7 16.6001 -113.4C16.0573 -115.766 15.7227 -118.175 15.6001 -120.6C15.417 -122.193 15.3835 -123.8 15.5001 -125.4C15.3852 -126.615 15.5214 -127.84 15.9001 -129H16.6001C16.6167 -128.132 16.5833 -127.264 16.5001 -126.4C16.1521 -122.378 16.456 -118.325 17.4001 -114.4C18.5001 -108.5 20.5001 -102.8 21.8001 -97C22.4025 -94.3677 22.8037 -91.6933 23.0001 -89C23.2835 -86.2086 23.317 -83.3974 23.1001 -80.6C22.8939 -77.328 22.3919 -74.0814 21.6001 -70.9C20.2001 -64.4 18.2001 -58.1 16.3001 -51.8C13.9001 -43.9 11.5001 -36 9.20006 -28.1C8.10006 -24.7 7.10006 -21.3 6.10006 -17.8C4.40006 -12 2.60006 -6.3 0.900061 -0.5C0.800061 -0.300003 1.10006 0.5 0.300061 0.100006C0.22579 -0.0738525 0.1875 -0.260941 0.1875 -0.449997C0.1875 -0.639053 0.22579 -0.826141 0.300061 -1Z" fill="#010101"/>
<path d="M0.299976 -1V0.1H0.0999756V-1H0.299976Z" fill="#878787"/>
<path d="M72.6 149.8H20.7C20.1 149.8 20.2 149.6 20.4 149.2C20.7053 148.721 20.9728 148.22 21.2 147.7C24.0436 141.897 26.224 135.792 27.7 129.5C29.4 122.9 30.6 116.3 32 109.7C33.2592 103.548 34.8617 97.4723 36.8 91.4999C38.2007 87.4604 39.9402 83.5465 42 79.7999C44.2224 75.7857 47.0564 72.1421 50.4 68.9999C53.8311 65.784 58.222 63.7817 62.9 63.2999C66.5241 62.7555 70.2278 63.3495 73.5 64.9999C77.0496 66.8537 79.9462 69.7503 81.8 73.2999C83.4754 76.5063 84.5274 80.0014 84.9 83.5999C85.3 86.3999 85.5 89.1999 85.7 91.9999L86 99.1999C86.2461 103.978 87.0516 108.71 88.4 113.3C89.5008 116.727 91.5879 119.753 94.4 122C96.2792 123.592 98.6385 124.508 101.1 124.6C102.352 124.596 103.585 124.295 104.698 123.721C105.811 123.148 106.771 122.318 107.5 121.3C109.9 118.1 110.8 114.4 111.6 110.6C112.4 106.8 112.8 102.7 114.1 98.9999C114.814 96.6644 116.083 94.5369 117.8 92.7999C120.8 89.8999 124.1 90.0999 127.2 92.5999C130.3 95.0999 131.9 98.7999 132.4 102.8C132.649 104.622 132.75 106.461 132.7 108.3C132.5 111 132.3 113.7 131.9 116.4C131.5 119.1 131.1 121.5 130.7 124C129.8 129.2 128.9 134.3 127.6 139.3C126.8 142.5 126.2 145.7 125.4 148.8C125.2 149.6 124.9 149.8 124.1 149.8H72.6Z" fill="#9FA2A7"/>
</g>
<rect x="0.5" y="0.5" width="149" height="79" rx="5.5" stroke="#E8E8E8"/>
<defs>
<clipPath id="clip0">
</clipPath>
</defs>
</svg>
