<svg width="264" height="264" viewBox="0 0 264 264" fill="none" xmlns="http://www.w3.org/2000/svg">
<path d="M145.459 200.128L239.395 201.406L234.3 167.656L145.459 200.128Z" fill="#F5F5F5"/>
<path d="M234.324 168.336L144.594 171.031L145.488 200.812L235.218 198.118L234.324 168.336Z" fill="#EBEBEB"/>
<path d="M222.816 178.612C222.816 178.691 207.789 179.203 189.246 179.758C170.702 180.312 155.67 180.703 155.665 180.629C155.66 180.555 170.692 180.037 189.24 179.483C207.789 178.929 222.816 178.538 222.816 178.612Z" fill="#E0E0E0"/>
<path d="M223.529 186.331C223.529 186.41 208.497 186.923 189.959 187.477C171.421 188.031 156.378 188.422 156.378 188.348C156.378 188.274 171.405 187.762 189.948 187.202C208.491 186.643 223.524 186.257 223.529 186.331Z" fill="#E0E0E0"/>
<path d="M170.702 166.008L205.471 164.963L203.829 166.705L206.427 168.49L203.766 170.095L206.532 172.049L170.09 173.142L172.128 170.977L170.776 169.06L172.598 167.856L170.702 166.008Z" fill="#F5F5F5"/>
<path d="M15.0638 112.765L21.7747 138.204C24.9744 139.297 28.2427 140.216 32.2608 139.17L51.2688 133.531L41.8968 104.38L15.0638 112.765Z" fill="#FAFAFA"/>
<path d="M13.3584 111.841L20.0693 137.275L30.5554 138.246L49.5845 132.607L41.7912 104.016L13.3584 111.841Z" fill="#F5F5F5"/>
<path d="M22.704 134.418L20.064 137.28C21.3989 138.083 22.8856 138.601 24.4305 138.801C26.4854 139.013 28.5619 138.834 30.5501 138.273C30.5501 138.273 25.7875 138.251 22.704 134.418Z" fill="#E0E0E0"/>
<path d="M13.163 118.114L23.2742 108.446L21.2572 106.313L10.8662 115.896L13.163 118.114Z" fill="#EBEBEB"/>
<path d="M46.9604 109.206L34.3095 103.235L33.037 105.885L45.7143 112.147L46.9604 109.206Z" fill="#EBEBEB"/>
<path d="M41.1047 113.916C41.1047 113.99 36.3052 115.384 30.3388 117.026C24.3724 118.668 19.5359 119.946 19.4937 119.856C19.4514 119.766 24.2932 118.388 30.2649 116.741C36.2366 115.093 41.0836 113.842 41.1047 113.916Z" fill="#E0E0E0"/>
<path d="M42.0869 117.839C42.0869 117.913 37.2821 119.307 31.3157 120.954C25.3492 122.602 20.4916 123.874 20.4705 123.8C20.4494 123.726 25.2753 122.332 31.2417 120.685C37.2081 119.038 42.0657 117.744 42.0869 117.839Z" fill="#E0E0E0"/>
<path d="M43.1587 121.261C43.1587 121.334 38.3592 122.728 32.3875 124.376C26.4158 126.023 21.5688 127.296 21.5477 127.248C21.5266 127.201 26.3472 125.78 32.3189 124.133C38.2906 122.485 43.1376 121.187 43.1587 121.261Z" fill="#E0E0E0"/>
<path d="M44.0511 124.608C44.0511 124.677 39.2515 126.071 33.2851 127.718C27.3187 129.365 22.4611 130.638 22.44 130.564C22.4189 130.49 27.2395 129.096 33.2112 127.454C39.1829 125.812 44.0352 124.524 44.0511 124.608Z" fill="#E0E0E0"/>
<path d="M230.087 204.479C229.311 204.558 228.559 204.793 227.876 205.17C227.193 205.546 226.592 206.056 226.111 206.67C225.153 207.911 224.494 209.357 224.184 210.894C223.492 213.824 224.078 217.23 224.991 220.107C228.107 218.888 229.944 215.472 230.768 213.682C232.072 210.852 232.705 204.943 230.087 204.5" fill="#EBEBEB"/>
<path d="M220.572 223.751C221.023 223.003 221.267 222.15 221.281 221.277C221.295 220.404 221.078 219.543 220.651 218.782C220.213 218.029 219.63 217.37 218.934 216.846C218.239 216.321 217.446 215.94 216.601 215.725C216.224 215.586 215.821 215.53 215.419 215.562C215.018 215.594 214.629 215.712 214.278 215.91C213.986 216.147 213.762 216.458 213.63 216.811C213.498 217.164 213.463 217.545 213.528 217.916C213.667 218.659 214 219.351 214.495 219.923C216.079 221.95 218.001 223.619 220.572 223.751Z" fill="#EBEBEB"/>
<path d="M220.525 233.471C220.582 233.273 220.623 233.069 220.646 232.864C220.715 232.431 220.81 231.871 220.921 231.195C221.278 229.36 221.337 227.479 221.095 225.625C220.818 223.76 220.051 222.001 218.872 220.53C218.51 220.093 218.097 219.702 217.642 219.363C217.519 219.269 217.39 219.182 217.256 219.104C217.166 219.046 217.119 219.02 217.114 219.03C217.714 219.499 218.262 220.03 218.75 220.614C219.869 222.086 220.595 223.817 220.862 225.646C221.097 227.479 221.06 229.336 220.752 231.158C220.657 231.866 220.588 232.441 220.546 232.837C220.515 233.047 220.508 233.26 220.525 233.471Z" fill="#E0E0E0"/>
<path d="M229.205 208.935C229.157 209.011 229.118 209.093 229.089 209.178L228.782 209.885C228.524 210.503 228.159 211.406 227.726 212.525C226.845 214.753 225.672 217.853 224.453 221.306C223.233 224.759 222.203 227.906 221.485 230.192C221.132 231.338 220.847 232.267 220.662 232.911C220.577 233.218 220.503 233.439 220.451 233.656C220.422 233.74 220.402 233.826 220.392 233.915C220.436 233.836 220.47 233.753 220.493 233.666L220.741 232.938L221.633 230.24C222.388 227.964 223.439 224.828 224.659 221.375C225.878 217.921 227.024 214.822 227.869 212.583C228.286 211.48 228.624 210.577 228.867 209.943L229.136 209.22C229.174 209.129 229.197 209.033 229.205 208.935Z" fill="#E0E0E0"/>
<path d="M224.062 226.934C224.957 225.332 226.22 223.965 227.748 222.948C229.276 221.93 231.024 221.292 232.848 221.084C233.777 220.989 234.902 221.084 235.34 221.934C235.778 222.784 235.256 223.766 234.643 224.469C233.338 225.92 231.633 226.952 229.743 227.435C227.852 227.918 225.861 227.83 224.02 227.183" fill="#EBEBEB"/>
<path d="M231.523 223.619C231.328 223.612 231.134 223.624 230.942 223.655C230.715 223.676 230.489 223.71 230.266 223.756C230.007 223.814 229.701 223.851 229.379 223.951C229.021 224.04 228.669 224.15 228.323 224.279C227.925 224.417 227.535 224.579 227.156 224.764C225.4 225.599 223.875 226.852 222.716 228.413C222.463 228.751 222.231 229.104 222.019 229.469C221.822 229.783 221.646 230.109 221.491 230.446C221.358 230.718 221.242 230.999 221.142 231.285C221.06 231.498 220.99 231.714 220.931 231.935C220.868 232.118 220.824 232.307 220.799 232.5C220.847 232.5 221.042 231.708 221.628 230.509C221.786 230.183 221.963 229.865 222.156 229.559C222.368 229.202 222.601 228.858 222.853 228.529C224.011 227.009 225.508 225.779 227.225 224.939C227.923 224.597 228.649 224.314 229.395 224.094C230.699 223.735 231.533 223.666 231.523 223.619Z" fill="#E0E0E0"/>
<path d="M244.411 233.582C244.411 233.656 194.082 233.719 132.005 233.719C69.9284 233.719 19.5889 233.656 19.5889 233.582C19.5889 233.508 69.9073 233.445 132.005 233.445C194.103 233.445 244.411 233.503 244.411 233.582Z" fill="#263238"/>
<path d="M128.658 43.296L128.885 47.52C129.511 46.9164 130.334 46.5584 131.203 46.5115C132.135 46.5317 133.024 46.9033 133.694 47.5516C134.363 48.2 134.763 49.0774 134.813 50.0081C134.863 50.9387 134.56 51.854 133.964 52.5704C133.368 53.2869 132.523 53.7517 131.599 53.8718C130.73 53.9172 129.874 53.6493 129.186 53.1168L129.413 57.3778C130.039 56.7741 130.862 56.4162 131.731 56.3693C132.663 56.3895 133.552 56.761 134.222 57.4094C134.891 58.0578 135.291 58.9352 135.341 59.8658C135.391 60.7965 135.088 61.7117 134.492 62.4282C133.896 63.1447 133.051 63.6095 132.127 63.7296C131.258 63.775 130.402 63.507 129.714 62.9746L129.941 67.2355C130.568 66.6334 131.391 66.2773 132.259 66.2323C133.184 66.2617 134.065 66.6375 134.727 67.2853C135.389 67.9331 135.783 68.8057 135.832 69.7304C135.881 70.6551 135.582 71.5646 134.992 72.2788C134.403 72.9931 133.567 73.46 132.65 73.5873C131.782 73.6343 130.927 73.3661 130.242 72.8323L130.469 77.0933C131.096 76.4912 131.919 76.1351 132.787 76.0901C133.712 76.1195 134.593 76.4953 135.255 77.1431C135.917 77.7908 136.311 78.6634 136.36 79.5881C136.409 80.5129 136.11 81.4223 135.52 82.1366C134.931 82.8508 134.095 83.3178 133.178 83.4451C132.31 83.493 131.455 83.2248 130.77 82.6901L130.997 86.9563C131.622 86.3507 132.446 85.9924 133.315 85.9478C134.24 85.9772 135.121 86.353 135.783 87.0008C136.445 87.6486 136.839 88.5212 136.888 89.4459C136.937 90.3706 136.638 91.2801 136.048 91.9943C135.459 92.7086 134.623 93.1756 133.706 93.3029C132.839 93.3523 131.983 93.0859 131.298 92.5531L131.525 96.8141C132.151 96.2105 132.974 95.8525 133.843 95.8056C134.774 95.8269 135.663 96.1993 136.332 96.8481C137.001 97.4969 137.399 98.3743 137.449 99.3047C137.498 100.235 137.194 101.15 136.598 101.866C136.002 102.582 135.157 103.046 134.234 103.166C133.366 103.211 132.512 102.943 131.826 102.411L131.968 105.051L245.52 102.348L239.765 36.205L128.658 43.296Z" fill="#EBEBEB"/>
<path d="M126.15 40.5609L126.377 44.8114C127.005 44.2166 127.825 43.8664 128.689 43.824C129.621 43.8442 130.511 44.2157 131.18 44.8641C131.85 45.5125 132.25 46.3899 132.3 47.3206C132.35 48.2512 132.047 49.1664 131.451 49.8829C130.854 50.5994 130.01 51.0642 129.085 51.1843C128.218 51.2293 127.364 50.9614 126.678 50.4293L126.905 54.6902C127.416 54.2009 128.056 53.8685 128.75 53.7323C129.444 53.5962 130.163 53.6621 130.821 53.9222C131.478 54.1823 132.048 54.6258 132.461 55.1998C132.874 55.7739 133.114 56.4545 133.152 57.1608C133.19 57.8671 133.025 58.5695 132.675 59.1845C132.326 59.7996 131.808 60.3015 131.181 60.6307C130.555 60.9598 129.848 61.1024 129.143 61.0415C128.439 60.9806 127.766 60.7187 127.206 60.287L127.433 64.548C128.058 63.9459 128.879 63.5896 129.745 63.5448C130.671 63.5731 131.553 63.9481 132.215 64.5955C132.878 65.2428 133.273 66.1154 133.323 67.0403C133.373 67.9653 133.073 68.8753 132.484 69.59C131.895 70.3048 131.059 70.7722 130.141 70.8998C129.272 70.9466 128.416 70.6786 127.729 70.1448L127.961 74.411C128.584 73.8054 129.406 73.4469 130.273 73.4025C131.199 73.4309 132.081 73.8059 132.743 74.4532C133.406 75.1006 133.801 75.9731 133.851 76.8981C133.901 77.8231 133.601 78.733 133.012 79.4478C132.423 80.1625 131.587 80.63 130.669 80.7576C129.8 80.8053 128.943 80.5372 128.257 80.0025L128.489 84.2688C129.113 83.6651 129.934 83.307 130.801 83.2603C131.733 83.2805 132.623 83.652 133.292 84.3004C133.962 84.9488 134.362 85.8262 134.412 86.7569C134.462 87.6875 134.159 88.6028 133.563 89.3192C132.966 90.0357 132.122 90.5005 131.197 90.6206C130.329 90.666 129.472 90.3981 128.785 89.8656L129.012 94.1265C129.638 93.5229 130.461 93.165 131.329 93.1181C132.261 93.1383 133.151 93.5098 133.82 94.1582C134.49 94.8066 134.89 95.684 134.94 96.6146C134.99 97.5453 134.687 98.4605 134.091 99.177C133.494 99.8935 132.65 100.358 131.725 100.478C130.857 100.524 130 100.256 129.313 99.7233L129.455 102.363L242.975 96.2861L239.67 34.5101L126.15 40.5609Z" fill="#F5F5F5"/>
<path d="M240.33 46.7121C240.33 46.786 214.922 48.2064 183.575 49.8801C152.228 51.5539 126.804 52.8633 126.804 52.8C126.804 52.7366 152.207 51.3057 183.559 49.632C214.912 47.9582 240.324 46.6382 240.33 46.7121Z" fill="#E0E0E0"/>
<path d="M240.858 56.5963C240.858 56.6702 215.45 58.0958 184.103 59.7643C152.756 61.4328 127.338 62.7422 127.333 62.6683C127.327 62.5944 152.735 61.1688 184.093 59.5003C215.45 57.8318 240.853 56.5224 240.858 56.5963Z" fill="#E0E0E0"/>
<path d="M241.386 66.4805C241.386 66.5597 215.978 67.98 184.631 69.6484C153.284 71.3169 127.866 72.6264 127.86 72.5524C127.855 72.4785 153.263 71.0529 184.62 69.3844C215.978 67.716 241.38 66.4065 241.386 66.4805Z" fill="#E0E0E0"/>
<path d="M241.914 76.3646C241.914 76.4438 216.506 77.8641 185.164 79.5326C153.822 81.2011 128.394 82.5053 128.389 82.4313C128.383 82.3574 153.791 80.9318 185.149 79.2633C216.506 77.5949 241.909 76.2907 241.914 76.3646Z" fill="#E0E0E0"/>
<path d="M242.442 86.2541C242.442 86.328 217.034 87.7483 185.692 89.4221C154.35 91.0959 128.922 92.4 128.917 92.3261C128.911 92.2522 154.324 90.8319 185.677 89.1581C217.029 87.4843 242.442 86.1749 242.442 86.2541Z" fill="#E0E0E0"/>
<path d="M142.06 39.7124L141.796 39.7265L145.099 101.515L145.363 101.501L142.06 39.7124Z" fill="#FF6600"/>
<path d="M155.522 100.954C155.448 100.954 154.646 87.1252 153.732 70.0656C152.819 53.0059 152.148 39.167 152.217 39.167C152.286 39.167 153.094 52.9847 154.007 70.055C154.92 87.1252 155.602 100.948 155.522 100.954Z" fill="#E0E0E0"/>
<path d="M135.316 102.031C135.237 102.031 134.434 88.2077 133.521 71.148C132.607 54.0883 131.937 40.2494 132.005 40.2441C132.074 40.2389 132.887 54.0672 133.795 71.1321C134.703 88.1971 135.39 102.031 135.316 102.031Z" fill="#E0E0E0"/>
<path d="M166.589 100.357C166.515 100.357 165.713 86.5339 164.799 69.4742C163.886 52.4145 163.215 38.5757 163.284 38.5704C163.353 38.5651 164.16 52.3934 165.074 69.4584C165.987 86.5233 166.668 100.357 166.589 100.357Z" fill="#E0E0E0"/>
<path d="M177.661 99.792C177.582 99.792 176.785 85.9689 175.872 68.9093C174.958 51.8496 174.288 38.0107 174.356 38.0054C174.425 38.0002 175.233 51.8285 176.146 68.8934C177.059 85.9584 177.735 99.792 177.661 99.792Z" fill="#E0E0E0"/>
<path d="M188.728 99.1743C188.654 99.1743 187.852 85.3512 186.938 68.2915C186.025 51.2319 185.354 37.393 185.423 37.3877C185.492 37.3824 186.3 51.2107 187.213 68.2757C188.126 85.3407 188.802 99.169 188.728 99.1743Z" fill="#E0E0E0"/>
<path d="M199.795 98.5829C199.721 98.5829 198.919 84.7598 198.005 67.7002C197.092 50.6405 196.421 36.8016 196.49 36.7963C196.559 36.791 197.366 50.6194 198.28 67.6843C199.193 84.7493 199.874 98.5776 199.795 98.5829Z" fill="#E0E0E0"/>
<path d="M210.867 97.9915C210.788 97.9915 209.986 84.1632 209.078 67.1035C208.169 50.0438 207.494 36.2102 207.562 36.205C207.631 36.1997 208.439 50.028 209.352 67.093C210.266 84.1579 210.941 97.9862 210.867 97.9915Z" fill="#E0E0E0"/>
<path d="M221.934 97.4002C221.86 97.4002 221.058 83.5718 220.144 66.5122C219.231 49.4525 218.56 35.6136 218.629 35.6136C218.698 35.6136 219.505 49.4313 220.419 66.5016C221.332 83.5718 222.008 97.3949 221.934 97.4002Z" fill="#E0E0E0"/>
<path d="M233.001 96.8035C232.927 96.8035 232.125 82.9804 231.211 65.9208C230.298 48.8611 229.627 35.0222 229.696 35.0169C229.765 35.0116 230.572 48.84 231.486 65.9049C232.399 82.9699 233.08 96.8035 233.001 96.8035Z" fill="#E0E0E0"/>
<path d="M231.623 59.3894C231.555 59.3974 231.486 59.3974 231.417 59.3894L230.815 59.4317L228.492 59.5795L219.954 60.0706C212.742 60.4718 202.778 60.9998 191.77 61.5437C180.761 62.0875 170.792 62.5416 163.574 62.8162C159.963 62.9534 157.043 63.0432 155.021 63.0802C152.999 63.1171 151.853 63.0802 151.895 63.0062C152.16 63.0483 152.43 63.0571 152.698 63.0326C153.226 63.0326 154.012 63.0062 155.021 62.9746C157.038 62.9059 159.958 62.7845 163.564 62.6208L191.759 61.2691L219.944 59.8805L228.487 59.4739L230.81 59.3789H231.417C231.486 59.3765 231.555 59.3801 231.623 59.3894Z" fill="#263238"/>
<path d="M233.904 70.678C233.904 70.7572 215.588 71.6548 192.989 72.695C170.391 73.7352 152.064 74.5113 152.064 74.448C152.064 74.3846 170.38 73.4712 192.984 72.4363C215.588 71.4014 233.904 70.6041 233.904 70.678Z" fill="#263238"/>
<path d="M235.134 80.5622C235.134 80.6414 216.818 81.5443 194.22 82.5792C171.621 83.6141 153.289 84.3955 153.284 84.3163C153.278 84.2371 171.6 83.3395 194.204 82.3046C216.807 81.2697 235.129 80.4883 235.134 80.5622Z" fill="#263238"/>
<path d="M138.864 47.0395C139.36 49.4947 140.448 51.9868 142.491 53.4072C143.374 54.0171 144.395 54.3986 145.461 54.5173C146.528 54.6361 147.607 54.4885 148.603 54.0878C149.598 53.687 150.479 53.0456 151.166 52.221C151.853 51.3964 152.324 50.4144 152.538 49.3628C152.752 48.3112 152.702 47.2229 152.393 46.1954C152.083 45.1679 151.523 44.2333 150.764 43.4752C150.004 42.7171 149.068 42.1592 148.04 41.8515C147.012 41.5437 145.924 41.4958 144.873 41.712" fill="#E0E0E0"/>
<path d="M138.584 47.0237C138.64 48.0433 138.997 49.0234 139.609 49.8403C140.222 50.6571 141.063 51.274 142.027 51.6128C142.99 51.9517 144.032 51.9974 145.021 51.7441C146.01 51.4909 146.902 50.95 147.584 50.1899C148.266 49.4298 148.707 48.4846 148.852 47.4738C148.997 46.463 148.839 45.432 148.397 44.5111C147.956 43.5901 147.252 42.8206 146.374 42.2999C145.496 41.7791 144.482 41.5304 143.463 41.5853C142.785 41.6217 142.122 41.7914 141.51 42.0844C140.898 42.3775 140.35 42.7884 139.896 43.2934C139.443 43.7985 139.094 44.3879 138.869 45.028C138.644 45.668 138.547 46.3462 138.584 47.0237Z" fill="#455A64"/>
<path d="M135.617 45.1123C135.65 45.7243 135.864 46.3126 136.232 46.803C136.599 47.2934 137.104 47.6638 137.682 47.8675C138.26 48.0711 138.885 48.0989 139.479 47.9472C140.073 47.7954 140.608 47.4711 141.018 47.0152C141.427 46.5592 141.692 45.9921 141.779 45.3855C141.867 44.7789 141.772 44.16 141.508 43.6072C141.243 43.0543 140.821 42.5922 140.294 42.2793C139.767 41.9664 139.159 41.8168 138.547 41.8493C138.141 41.8709 137.742 41.9724 137.375 42.1482C137.007 42.3239 136.678 42.5703 136.406 42.8734C136.134 43.1764 135.924 43.5302 135.788 43.9143C135.653 44.2985 135.595 44.7056 135.617 45.1123Z" fill="#455A64"/>
<path d="M138.505 47.9793C138.896 47.9784 139.286 47.9342 139.667 47.8473C140.114 47.7216 140.526 47.4928 140.869 47.1792C141.212 46.8656 141.476 46.4759 141.641 46.0415C141.786 45.5991 141.83 45.1304 141.773 44.6686C141.716 44.2069 141.557 43.7634 141.309 43.3699C141.081 43.0483 140.823 42.7494 140.538 42.4775C140.538 42.4775 140.659 42.5092 140.834 42.6254C141.081 42.7973 141.295 43.0118 141.467 43.259C141.76 43.67 141.952 44.1443 142.027 44.6434C142.102 45.1424 142.059 45.6522 141.9 46.1313C141.709 46.6579 141.372 47.1193 140.929 47.4619C140.572 47.7416 140.157 47.9382 139.714 48.0374C139.42 48.1053 139.115 48.1178 138.817 48.0744C138.611 48.048 138.5 47.9952 138.505 47.9793Z" fill="#263238"/>
<path d="M141.097 43.0479C141.683 43.2443 142.311 43.2753 142.913 43.1374C143.515 42.9995 144.067 42.6981 144.508 42.2664C144.535 42.2664 144.445 42.4882 144.191 42.7416C143.856 43.0715 143.436 43.3019 142.977 43.4072C142.518 43.5126 142.04 43.4887 141.594 43.3383C141.256 43.2221 141.082 43.0795 141.097 43.0479Z" fill="#263238"/>
<path d="M141.895 50.8992C141.803 50.6963 141.729 50.4861 141.673 50.2708C141.496 49.781 141.206 49.3396 140.827 48.982C140.449 48.6244 139.991 48.3605 139.492 48.2116C139.112 48.0902 138.853 48.0691 138.859 48.0268C138.864 47.9846 139.123 47.9476 139.54 48.0268C140.093 48.1349 140.605 48.3976 141.015 48.7844C141.425 49.1713 141.718 49.6666 141.858 50.2128C141.958 50.6299 141.932 50.8939 141.895 50.8992Z" fill="#263238"/>
<path d="M226.121 43.3963C226.623 45.8515 227.705 48.3384 229.749 49.7323C230.931 50.5444 232.348 50.9422 233.78 50.8635C235.212 50.7848 236.577 50.2341 237.663 49.2974C238.748 48.3607 239.493 47.0907 239.781 45.6859C240.069 44.2811 239.883 42.8206 239.253 41.5325C238.595 40.2652 237.548 39.2417 236.267 38.6118C234.985 37.982 233.535 37.7787 232.13 38.0318" fill="#E0E0E0"/>
<path d="M236.095 41.9971C236.147 42.9825 235.906 43.961 235.401 44.8092C234.897 45.6573 234.153 46.3369 233.262 46.762C232.372 47.1872 231.375 47.3387 230.399 47.1976C229.422 47.0565 228.51 46.629 227.776 45.9692C227.042 45.3093 226.521 44.4468 226.277 43.4906C226.034 42.5344 226.079 41.5275 226.408 40.5972C226.737 39.6668 227.334 38.8548 228.124 38.2638C228.914 37.6728 229.862 37.3293 230.847 37.2768C231.502 37.2419 232.157 37.3363 232.775 37.5547C233.393 37.7731 233.962 38.1111 234.449 38.5495C234.937 38.9878 235.333 39.5179 235.615 40.1095C235.898 40.7011 236.061 41.3425 236.095 41.9971Z" fill="#FF6600"/>
<path d="M235.763 43.0108C237.416 43.0108 238.756 41.6705 238.756 40.0171C238.756 38.3637 237.416 37.0233 235.763 37.0233C234.109 37.0233 232.769 38.3637 232.769 40.0171C232.769 41.6705 234.109 43.0108 235.763 43.0108Z" fill="#FF6600"/>
<path d="M236.275 42.9053C236.275 42.9053 236.18 42.9792 235.979 43.032C235.697 43.1054 235.403 43.1251 235.113 43.0901C234.678 43.0424 234.26 42.8981 233.888 42.6677C233.432 42.3807 233.066 41.9708 232.832 41.4849C232.63 41.0413 232.535 40.5563 232.555 40.0692C232.576 39.5821 232.71 39.1066 232.948 38.6813C233.12 38.3156 233.408 38.0169 233.767 37.8312C233.526 38.1258 233.31 38.4402 233.123 38.771C232.925 39.1743 232.819 39.6162 232.812 40.0652C232.804 40.5142 232.896 40.9592 233.08 41.3688C233.284 41.7676 233.577 42.1136 233.937 42.3793C234.297 42.6451 234.714 42.8234 235.155 42.9C235.527 42.9416 235.902 42.9434 236.275 42.9053Z" fill="#263238"/>
<path d="M233.27 38.4384C233.27 38.4384 233.138 38.6232 232.827 38.771C232.414 38.9631 231.955 39.0363 231.503 38.9822C231.051 38.9281 230.622 38.7489 230.266 38.4648C229.997 38.2483 229.891 38.0582 229.918 38.0371C230.409 38.3647 230.96 38.5926 231.539 38.7077C232.128 38.7274 232.715 38.6361 233.27 38.4384Z" fill="#263238"/>
<path d="M233.313 46.0627C233.234 45.8516 233.221 45.6214 233.276 45.4027C233.356 44.8623 233.586 44.3554 233.941 43.9402C234.293 43.5245 234.756 43.2185 235.277 43.0584C235.678 42.937 235.937 42.9581 235.937 42.9898C235.937 43.0214 235.699 43.0848 235.346 43.2379C234.884 43.4352 234.474 43.7366 234.148 44.1185C233.822 44.5005 233.588 44.9526 233.466 45.4397C233.376 45.8146 233.376 46.0627 233.313 46.0627Z" fill="#263238"/>
<path d="M49.801 32.6462L38.3486 90.0082C43.6656 95.3251 49.2994 100.346 58.3493 102.194L101.867 109.518L111.588 42.1186L49.801 32.6462Z" fill="#E0E0E0"/>
<path d="M47.2983 29.1298L35.8459 86.4917L55.8466 98.6779L99.3643 106.001L111.73 41.279L47.2983 29.1298Z" fill="#FF6600"/>
<path d="M43.9244 83.3765L35.8459 86.4917C35.8459 86.4917 38.808 91.2437 43.0901 93.7886C46.9941 96.2119 51.3231 97.8711 55.8466 98.6779C55.8466 98.6779 46.3215 94.0262 43.9244 83.3765Z" fill="#FF6600"/>
<g opacity="0.3">
<path opacity="0.3" d="M43.9244 83.3765C40.8092 85.4885 37.3877 88.1285 35.8459 86.4917C35.8459 86.4917 38.808 91.2437 43.0901 93.7886C46.9941 96.2119 51.3231 97.8711 55.8466 98.6779C55.8466 98.6779 46.3215 94.0262 43.9244 83.3765Z" fill="black"/>
</g>
<path d="M40.7827 41.4744L70.4193 32.0443L68.4763 25.8033L38.3486 34.8005L40.7827 41.4744Z" fill="#E0E0E0"/>
<path d="M116.984 56.6966L97.5533 32.4139L92.4211 36.4636L111.625 61.3641L116.984 56.6966Z" fill="#E0E0E0"/>
<path d="M100.69 60.3874C100.69 60.4613 89.6967 58.4602 76.1693 55.9152C62.642 53.3703 51.686 51.2477 51.7018 51.1632C51.7176 51.0787 62.6895 53.0904 76.2221 55.6354C89.7548 58.1803 100.705 60.3135 100.69 60.3874Z" fill="#263238"/>
<path d="M98.8153 69.168C98.8153 69.2419 87.8223 67.2408 74.295 64.6959C60.7676 62.1509 49.8116 60.0283 49.8222 59.9439C49.8327 59.8594 60.8151 61.8711 74.3425 64.416C87.8698 66.961 98.8258 69.1099 98.8153 69.168Z" fill="#263238"/>
<path d="M97.6114 77.088C97.6114 77.1619 86.6184 75.1608 73.0964 72.6158C59.5743 70.0709 48.6077 67.9483 48.6236 67.8638C48.6394 67.7794 59.6165 69.791 73.1439 72.336C86.6712 74.881 97.6272 76.9929 97.6114 77.088Z" fill="#263238"/>
<path d="M96.1435 84.5962C96.1435 84.6701 85.1505 82.669 71.6232 80.124C58.0958 77.5791 47.1398 75.4565 47.1557 75.372C47.1715 75.2875 58.1433 77.2992 71.676 79.8442C85.2086 82.3891 96.1593 84.5223 96.1435 84.5962Z" fill="#263238"/>
<path d="M142.27 145.881L235.087 157.714L233.841 123.742L142.27 145.881Z" fill="#E0E0E0"/>
<path d="M233.783 124.422L144.682 116.987L142.214 146.558L231.316 153.993L233.783 124.422Z" fill="#455A64"/>
<path d="M221.232 133.294C221.232 133.368 206.295 132.185 187.884 130.654C169.472 129.122 154.551 127.813 154.556 127.734C154.561 127.655 169.493 128.843 187.91 130.374C206.327 131.905 221.258 133.22 221.232 133.294Z" fill="#263238"/>
<path d="M221.079 141.013C221.079 141.087 206.142 139.904 187.73 138.373C169.319 136.842 154.393 135.532 154.403 135.453C154.414 135.374 169.335 136.562 187.752 138.093C206.168 139.624 221.084 140.939 221.079 141.013Z" fill="#263238"/>
<path d="M171.093 114.951L205.619 117.834L203.797 119.376L206.163 121.435L203.349 122.723L205.867 124.962L169.683 121.942L171.943 120.036L170.819 117.987L172.762 117L171.093 114.951Z" fill="#EBEBEB"/>
<path d="M128.542 124.117C128.902 124.725 129.095 125.419 129.101 126.126C129.107 126.833 128.926 127.529 128.576 128.144C128.225 128.758 127.719 129.269 127.107 129.625C126.496 129.98 125.801 130.167 125.094 130.167C124.387 130.167 123.692 129.98 123.08 129.625C122.469 129.269 121.962 128.758 121.612 128.144C121.262 127.529 121.08 126.833 121.086 126.126C121.092 125.419 121.285 124.725 121.646 124.117H117C117.36 124.725 117.553 125.419 117.559 126.126C117.565 126.833 117.384 127.529 117.034 128.144C116.683 128.758 116.177 129.269 115.565 129.625C114.954 129.98 114.259 130.167 113.552 130.167C112.844 130.167 112.15 129.98 111.538 129.625C110.927 129.269 110.42 128.758 110.07 128.144C109.72 127.529 109.538 126.833 109.544 126.126C109.55 125.419 109.743 124.725 110.104 124.117H105.457C105.818 124.725 106.011 125.419 106.017 126.126C106.023 126.833 105.842 127.529 105.491 128.144C105.141 128.758 104.635 129.269 104.023 129.625C103.412 129.98 102.717 130.167 102.01 130.167C101.302 130.167 100.608 129.98 99.9961 129.625C99.3846 129.269 98.878 128.758 98.5278 128.144C98.1776 127.529 97.9963 126.833 98.0023 126.126C98.0082 125.419 98.2013 124.725 98.5618 124.117H93.9154C94.2759 124.725 94.469 125.419 94.4749 126.126C94.4809 126.833 94.2996 127.529 93.9494 128.144C93.5992 128.758 93.0926 129.269 92.4811 129.625C91.8695 129.98 91.1748 130.167 90.4676 130.167C89.7603 130.167 89.0656 129.98 88.454 129.625C87.8425 129.269 87.3359 128.758 86.9857 128.144C86.6355 127.529 86.4542 126.833 86.4602 126.126C86.4662 125.419 86.6592 124.725 87.0197 124.117H82.368C82.7286 124.725 82.9216 125.419 82.9276 126.126C82.9335 126.833 82.7522 127.529 82.402 128.144C82.0518 128.758 81.5452 129.269 80.9337 129.625C80.3222 129.98 79.6275 130.167 78.9202 130.167C78.2129 130.167 77.5182 129.98 76.9067 129.625C76.2951 129.269 75.7886 128.758 75.4384 128.144C75.0882 127.529 74.9068 126.833 74.9128 126.126C74.9188 125.419 75.1118 124.725 75.4724 124.117H70.826C71.1865 124.725 71.3795 125.419 71.3855 126.126C71.3915 126.833 71.2101 127.529 70.86 128.144C70.5098 128.758 70.0032 129.269 69.3916 129.625C68.7801 129.98 68.0854 130.167 67.3781 130.167C66.6708 130.167 65.9761 129.98 65.3646 129.625C64.7531 129.269 64.2465 128.758 63.8963 128.144C63.5461 127.529 63.3648 126.833 63.3707 126.126C63.3767 125.419 63.5698 124.725 63.9303 124.117H61.021V207.013L133.531 210.983L130.073 124.122L128.542 124.117Z" fill="#E0E0E0"/>
<path d="M127.486 121.852C127.854 122.46 128.055 123.156 128.066 123.868C128.077 124.579 127.899 125.281 127.55 125.901C127.201 126.521 126.693 127.037 126.078 127.396C125.464 127.755 124.765 127.944 124.054 127.944C123.342 127.944 122.643 127.755 122.029 127.396C121.414 127.037 120.907 126.521 120.557 125.901C120.208 125.281 120.03 124.579 120.041 123.868C120.053 123.156 120.253 122.46 120.622 121.852H115.97C116.284 122.382 116.472 122.979 116.518 123.594C116.565 124.209 116.468 124.826 116.237 125.398C116.006 125.97 115.645 126.48 115.184 126.89C114.723 127.3 114.174 127.598 113.579 127.76C112.984 127.923 112.359 127.946 111.754 127.828C111.149 127.71 110.579 127.453 110.089 127.079C109.599 126.704 109.202 126.221 108.929 125.668C108.656 125.115 108.514 124.507 108.515 123.89C108.514 123.172 108.709 122.467 109.08 121.852H104.428C104.742 122.382 104.93 122.979 104.976 123.594C105.023 124.209 104.926 124.826 104.695 125.398C104.463 125.97 104.103 126.48 103.642 126.89C103.181 127.3 102.632 127.598 102.037 127.76C101.442 127.923 100.817 127.946 100.212 127.828C99.6066 127.71 99.0367 127.453 98.5466 127.079C98.0565 126.704 97.6595 126.221 97.3865 125.668C97.1134 125.115 96.9718 124.507 96.9725 123.89C96.9715 123.172 97.1668 122.467 97.5374 121.852H92.8858C93.2463 122.46 93.4393 123.153 93.4453 123.861C93.4513 124.568 93.27 125.264 92.9198 125.879C92.5696 126.493 92.063 127.004 91.4514 127.359C90.8399 127.715 90.1452 127.902 89.4379 127.902C88.7306 127.902 88.0359 127.715 87.4244 127.359C86.8129 127.004 86.3063 126.493 85.9561 125.879C85.6059 125.264 85.4246 124.568 85.4305 123.861C85.4365 123.153 85.6296 122.46 85.9901 121.852H81.312C81.6725 122.46 81.8656 123.153 81.8715 123.861C81.8775 124.568 81.6962 125.264 81.346 125.879C80.9958 126.493 80.4892 127.004 79.8777 127.359C79.2661 127.715 78.5715 127.902 77.8642 127.902C77.1569 127.902 76.4622 127.715 75.8506 127.359C75.2391 127.004 74.7325 126.493 74.3823 125.879C74.0321 125.264 73.8508 124.568 73.8568 123.861C73.8628 123.153 74.0558 122.46 74.4163 121.852H69.7699C70.1304 122.46 70.3235 123.153 70.3295 123.861C70.3354 124.568 70.1541 125.264 69.8039 125.879C69.4537 126.493 68.9471 127.004 68.3356 127.359C67.7241 127.715 67.0294 127.902 66.3221 127.902C65.6148 127.902 64.9201 127.715 64.3086 127.359C63.697 127.004 63.1904 126.493 62.8402 125.879C62.4901 125.264 62.3087 124.568 62.3147 123.861C62.3207 123.153 62.5137 122.46 62.8742 121.852H59.965V204.748H129.022V121.852H127.486Z" fill="#F5F5F5"/>
<path d="M55.7567 208.56C55.6828 208.56 55.4135 188.47 55.1601 163.68C54.9067 138.89 54.7641 118.8 54.8433 118.8C54.9225 118.8 55.1812 138.864 55.4347 163.68C55.6881 188.496 55.8359 208.56 55.7567 208.56Z" fill="#E0E0E0"/>
<path d="M66.8395 208.444C66.7656 208.444 66.5016 188.38 66.2482 163.564C65.9947 138.748 65.8469 118.684 65.9261 118.684C66.0053 118.684 66.2693 138.748 66.5227 163.564C66.7762 188.38 66.9187 208.444 66.8395 208.444Z" fill="#E0E0E0"/>
<path d="M72.3359 208.444C72.262 208.444 71.9927 188.38 71.7393 163.564C71.4858 138.748 71.3433 118.684 71.4172 118.684C71.4911 118.684 71.7604 138.748 72.0138 163.564C72.2673 188.38 72.4204 208.444 72.3359 208.444Z" fill="#E0E0E0"/>
<path d="M83.5455 208.444C83.4715 208.444 83.2075 188.38 82.9541 163.564C82.7007 138.748 82.5528 118.684 82.632 118.684C82.7112 118.684 82.9752 138.748 83.2287 163.564C83.4821 188.38 83.6247 208.444 83.5455 208.444Z" fill="#E0E0E0"/>
<path d="M94.7496 208.444C94.6757 208.444 94.4064 188.38 94.153 163.564C93.8995 138.748 93.757 118.684 93.8309 118.684C93.9048 118.684 94.1741 138.748 94.4275 163.564C94.681 188.38 94.8235 208.444 94.7496 208.444Z" fill="#E0E0E0"/>
<path d="M105.948 208.444C105.875 208.444 105.605 188.38 105.352 163.564C105.098 138.748 104.956 118.684 105.035 118.684C105.114 118.684 105.378 138.748 105.632 163.564C105.885 188.38 106.028 208.444 105.948 208.444Z" fill="#E0E0E0"/>
<path d="M116.577 208.444C116.503 208.444 116.234 188.38 115.981 163.564C115.727 138.748 115.585 118.684 115.664 118.684C115.743 118.684 116.002 138.748 116.255 163.564C116.509 188.38 116.656 208.444 116.577 208.444Z" fill="#E0E0E0"/>
<path d="M127.206 208.444C127.132 208.444 126.863 188.38 126.609 163.564C126.356 138.748 126.213 118.684 126.292 118.684C126.371 118.684 126.635 138.748 126.889 163.564C127.142 188.38 127.285 208.444 127.206 208.444Z" fill="#E0E0E0"/>
<path d="M77.9275 208.333C77.8483 208.333 77.5843 188.243 77.3308 163.453C77.0774 138.663 76.9348 118.573 77.0087 118.573C77.0827 118.573 77.3519 138.637 77.6054 163.453C77.8588 188.269 78.0014 208.333 77.9275 208.333Z" fill="#E0E0E0"/>
<path d="M89.0102 208.217C88.931 208.217 88.667 188.153 88.4136 163.337C88.1602 138.521 88.0176 118.457 88.0915 118.457C88.1654 118.457 88.4347 138.521 88.6882 163.337C88.9416 188.153 89.0842 208.217 89.0102 208.217Z" fill="#E0E0E0"/>
<path d="M100.093 208.106C100.019 208.106 99.7497 188.015 99.4962 163.226C99.2428 138.436 99.1002 118.346 99.1742 118.346C99.2481 118.346 99.5174 138.41 99.7708 163.226C100.024 188.042 100.167 208.106 100.093 208.106Z" fill="#E0E0E0"/>
<path d="M111.176 207.99C111.102 207.99 110.832 187.926 110.579 163.11C110.326 138.294 110.183 118.23 110.257 118.23C110.331 118.23 110.6 138.294 110.854 163.11C111.107 187.926 111.255 207.99 111.176 207.99Z" fill="#E0E0E0"/>
<path d="M121.804 208.56C121.725 208.56 121.461 188.47 121.208 163.68C120.954 138.89 120.806 118.8 120.886 118.8C120.965 118.8 121.229 138.864 121.482 163.68C121.736 188.496 121.878 208.56 121.804 208.56Z" fill="#E0E0E0"/>
<path d="M133.346 207.763C133.267 207.763 133.003 187.699 132.75 162.883C132.496 138.067 132.348 118.003 132.428 118.003C132.507 118.003 132.771 138.067 133.024 162.883C133.278 187.699 133.42 207.763 133.346 207.763Z" fill="#E0E0E0"/>
<path d="M145.237 197.25C145.237 197.324 125.173 197.588 100.357 197.836C75.5409 198.084 55.4769 198.222 55.4769 198.148C55.4769 198.074 75.5409 197.81 100.357 197.562C125.173 197.314 145.237 197.171 145.237 197.25Z" fill="#E0E0E0"/>
<path d="M145.728 202.916C145.728 202.995 125.664 203.254 100.848 203.502C76.032 203.75 55.968 203.887 55.968 203.813C55.968 203.739 76.032 203.475 100.848 203.227C125.664 202.979 145.728 202.842 145.728 202.916Z" fill="#E0E0E0"/>
<path d="M145.126 186.168C145.126 186.241 125.036 186.505 100.246 186.754C75.4565 187.002 55.3661 187.139 55.3661 187.06C55.3661 186.981 75.4301 186.722 100.246 186.474C125.062 186.226 145.126 186.088 145.126 186.168Z" fill="#E0E0E0"/>
<path d="M145.015 175.079C145.015 175.159 124.951 175.417 100.135 175.666C75.3192 175.914 55.2552 176.056 55.2552 175.977C55.2552 175.898 75.3192 175.639 100.135 175.391C124.951 175.143 145.015 175.006 145.015 175.079Z" fill="#E0E0E0"/>
<path d="M144.904 163.997C144.904 164.076 124.814 164.335 100.024 164.583C75.2347 164.831 55.1443 164.968 55.1443 164.894C55.1443 164.82 75.2083 164.556 100.024 164.308C124.84 164.06 144.904 163.923 144.904 163.997Z" fill="#E0E0E0"/>
<path d="M144.793 152.914C144.793 152.988 124.703 153.252 99.9134 153.5C75.1238 153.748 55.0334 153.886 55.0334 153.812C55.0334 153.738 75.0974 153.474 99.9134 153.226C124.729 152.977 144.793 152.84 144.793 152.914Z" fill="#E0E0E0"/>
<path d="M144.672 141.831C144.672 141.905 124.608 142.169 99.792 142.417C74.976 142.666 54.912 142.803 54.912 142.729C54.912 142.655 74.976 142.391 99.792 142.143C124.608 141.895 144.672 141.752 144.672 141.831Z" fill="#E0E0E0"/>
<path d="M144.572 130.749C144.572 130.823 124.508 131.087 99.6916 131.335C74.8756 131.583 54.8116 131.72 54.8116 131.641C54.8116 131.562 74.8756 131.303 99.6916 131.06C124.508 130.817 144.572 130.669 144.572 130.749Z" fill="#E0E0E0"/>
<path d="M144.572 126.308C144.572 126.382 124.508 126.646 99.6916 126.894C74.8756 127.142 54.8116 127.28 54.8116 127.206C54.8116 127.132 74.8756 126.868 99.6916 126.62C124.508 126.371 144.572 126.229 144.572 126.308Z" fill="#E0E0E0"/>
<path d="M144.572 136.409C144.572 136.488 124.508 136.747 99.6916 136.995C74.8756 137.243 54.8116 137.38 54.8116 137.306C54.8116 137.232 74.8756 136.968 99.6916 136.72C124.508 136.472 144.572 136.335 144.572 136.409Z" fill="#E0E0E0"/>
<path d="M144.572 147.407C144.572 147.481 124.508 147.745 99.6916 147.993C74.8756 148.241 54.8116 148.379 54.8116 148.299C54.8116 148.22 74.8756 147.961 99.6916 147.719C124.508 147.476 144.572 147.312 144.572 147.407Z" fill="#E0E0E0"/>
<path d="M144.572 158.4C144.572 158.474 124.508 158.738 99.6916 158.986C74.8756 159.234 54.8116 159.371 54.8116 159.298C54.8116 159.224 74.8756 158.96 99.6916 158.711C124.508 158.463 144.572 158.326 144.572 158.4Z" fill="#E0E0E0"/>
<path d="M144.572 169.398C144.572 169.472 124.508 169.736 99.6916 169.979C74.8756 170.222 54.8116 170.37 54.8116 170.291C54.8116 170.211 74.8756 169.953 99.6916 169.704C124.508 169.456 144.572 169.319 144.572 169.398Z" fill="#E0E0E0"/>
<path d="M144.572 180.391C144.572 180.465 124.508 180.729 99.6916 180.977C74.8756 181.225 54.8116 181.363 54.8116 181.289C54.8116 181.215 74.8756 180.951 99.6916 180.703C124.508 180.454 144.572 180.317 144.572 180.391Z" fill="#E0E0E0"/>
<path d="M144.572 191.384C144.572 191.463 124.508 191.722 99.6916 191.97C74.8756 192.218 54.8116 192.361 54.8116 192.282C54.8116 192.203 74.8756 191.944 99.6916 191.696C124.508 191.447 144.572 191.31 144.572 191.384Z" fill="#E0E0E0"/>
<path d="M89.76 133.859C90.2563 136.308 91.344 138.801 93.3874 140.195C94.2703 140.803 95.2904 141.184 96.3564 141.302C97.4223 141.42 98.5009 141.272 99.4957 140.871C100.491 140.471 101.37 139.829 102.057 139.005C102.743 138.181 103.215 137.2 103.429 136.149C103.643 135.098 103.594 134.011 103.285 132.984C102.976 131.957 102.418 131.022 101.659 130.264C100.901 129.505 99.9665 128.947 98.9394 128.638C97.9124 128.329 96.8248 128.28 95.7739 128.494" fill="#E0E0E0"/>
<path d="M89.628 133.837C89.6827 134.857 90.0384 135.838 90.6503 136.655C91.2622 137.473 92.1027 138.09 93.0656 138.43C94.0286 138.77 95.0706 138.817 96.0601 138.565C97.0496 138.312 97.9421 137.773 98.6248 137.013C99.3074 136.254 99.7496 135.309 99.8954 134.298C100.041 133.288 99.8841 132.256 99.4439 131.335C99.0037 130.414 98.3002 129.643 97.4224 129.122C96.5445 128.6 95.5317 128.35 94.512 128.404C93.8345 128.44 93.1707 128.609 92.5585 128.902C91.9463 129.194 91.3977 129.604 90.9442 130.109C90.4906 130.613 90.1409 131.202 89.9151 131.842C89.6892 132.482 89.5917 133.16 89.628 133.837Z" fill="#FF6600"/>
<path d="M86.6607 131.926C86.6929 132.538 86.9059 133.127 87.2728 133.618C87.6398 134.109 88.1441 134.481 88.7221 134.685C89.3001 134.89 89.9257 134.918 90.5199 134.767C91.114 134.616 91.65 134.292 92.06 133.836C92.47 133.38 92.7356 132.813 92.8233 132.206C92.9109 131.6 92.8166 130.98 92.5523 130.427C92.288 129.874 91.8656 129.412 91.3385 129.099C90.8114 128.785 90.2033 128.636 89.591 128.668C88.7705 128.712 88.0009 129.08 87.4514 129.691C86.9019 130.301 86.6175 131.106 86.6607 131.926Z" fill="#FF6600"/>
<path d="M89.5488 134.793C89.9397 134.792 90.3292 134.748 90.7104 134.661C91.1578 134.535 91.5694 134.307 91.9124 133.993C92.2553 133.679 92.52 133.29 92.6851 132.855C92.8285 132.413 92.8725 131.944 92.8141 131.482C92.7557 131.02 92.5963 130.577 92.3472 130.184C92.1204 129.863 91.8641 129.564 91.5816 129.291C91.6901 129.317 91.7913 129.368 91.8772 129.439C92.1244 129.613 92.3389 129.829 92.5108 130.078C92.8041 130.489 92.9962 130.963 93.0714 131.462C93.1467 131.962 93.1029 132.471 92.9438 132.95C92.7498 133.476 92.4134 133.936 91.9723 134.281C91.6138 134.557 91.1993 134.752 90.7579 134.851C90.4636 134.919 90.1592 134.932 89.8603 134.888C89.6544 134.857 89.5435 134.809 89.5488 134.793Z" fill="#263238"/>
<path d="M92.1413 129.888C92.7346 130.039 93.3522 130.07 93.9576 129.978C94.5376 129.794 95.0758 129.498 95.5416 129.107C95.568 129.107 95.4729 129.334 95.2248 129.587C94.888 129.914 94.4679 130.142 94.0104 130.247C93.552 130.355 93.0724 130.331 92.627 130.178C92.2997 130.036 92.1254 129.888 92.1413 129.888Z" fill="#263238"/>
<path d="M92.928 137.713C92.8858 137.713 92.8488 137.465 92.7063 137.09C92.5226 136.604 92.2342 136.164 91.8615 135.802C91.4803 135.447 91.0236 135.183 90.5256 135.031C90.1455 134.909 89.8868 134.883 89.892 134.841C89.8973 134.798 90.1508 134.761 90.5732 134.841C91.1256 134.951 91.6359 135.214 92.0458 135.601C92.4556 135.988 92.7485 136.481 92.8911 137.027C93.002 137.444 92.9756 137.713 92.928 137.713Z" fill="#263238"/>
<path d="M121.282 151.462C121.282 151.541 110.262 151.599 96.6769 151.599C83.0914 151.599 72.0668 151.541 72.0668 151.462C72.0668 151.383 83.0809 151.325 96.6769 151.325C110.273 151.325 121.282 151.388 121.282 151.462Z" fill="#263238"/>
<path d="M121.282 156.578C121.282 156.652 110.262 156.716 96.6769 156.716C83.0914 156.716 72.0668 156.652 72.0668 156.578C72.0668 156.504 83.0809 156.441 96.6769 156.441C110.273 156.441 121.282 156.504 121.282 156.578Z" fill="#263238"/>
<path d="M121.282 161.695C121.282 161.769 110.262 161.832 96.6769 161.832C83.0914 161.832 72.0668 161.769 72.0668 161.695C72.0668 161.621 83.0809 161.557 96.6769 161.557C110.273 161.557 121.282 161.621 121.282 161.695Z" fill="#263238"/>
<path d="M121.282 166.811C121.282 166.885 110.262 166.948 96.6769 166.948C83.0914 166.948 72.0668 166.885 72.0668 166.811C72.0668 166.737 83.0809 166.674 96.6769 166.674C110.273 166.674 121.282 166.737 121.282 166.811Z" fill="#263238"/>
<path d="M121.282 171.927C121.282 172.001 110.262 172.065 96.6769 172.065C83.0914 172.065 72.0668 172.001 72.0668 171.927C72.0668 171.853 83.0809 171.79 96.6769 171.79C110.273 171.79 121.282 171.853 121.282 171.927Z" fill="#263238"/>
<path d="M121.282 177.044C121.282 177.118 110.262 177.181 96.6769 177.181C83.0914 177.181 72.0668 177.118 72.0668 177.044C72.0668 176.97 83.0809 176.906 96.6769 176.906C110.273 176.906 121.282 176.964 121.282 177.044Z" fill="#263238"/>
<path d="M121.282 182.16C121.282 182.234 110.262 182.297 96.6769 182.297C83.0914 182.297 72.0668 182.234 72.0668 182.16C72.0668 182.086 83.0809 182.023 96.6769 182.023C110.273 182.023 121.282 182.081 121.282 182.16Z" fill="#263238"/>
<path d="M182.815 233.196C195.561 228.972 186.822 212.113 186.822 212.113L131.108 217.356C130.045 217.349 128.991 217.552 128.006 217.953C127.022 218.354 126.127 218.947 125.373 219.696C124.618 220.445 124.02 221.335 123.611 222.317C123.203 223.298 122.992 224.351 122.992 225.414C122.992 227.552 123.842 229.603 125.354 231.115C126.866 232.627 128.917 233.476 131.055 233.476L182.799 233.196" fill="#263238"/>
<path d="M195.856 233.181C208.28 228.988 199.716 212.113 199.716 212.113L145.406 217.23C140.126 217.298 137.512 219.87 137.512 225.271C137.512 229.722 139.165 233.476 145.39 233.35L195.856 233.181Z" fill="#263238"/>
<path d="M183.248 214.959H183.095H182.64L180.903 215.033L174.515 215.35L153.437 216.506C152.381 216.554 151.393 216.644 150.39 216.654C149.387 216.665 148.394 216.712 147.423 216.77C146.451 216.828 145.496 216.902 144.566 217.003C143.639 217.068 142.725 217.256 141.847 217.562C141.003 217.884 140.233 218.377 139.587 219.009C138.978 219.634 138.512 220.383 138.22 221.206C137.946 221.975 137.758 222.771 137.66 223.582C137.56 224.327 137.511 225.079 137.512 225.831C137.493 227.127 137.737 228.413 138.23 229.611C138.605 230.501 139.184 231.289 139.92 231.913C140.369 232.302 140.892 232.596 141.456 232.779C141.842 232.901 141.847 232.864 141.456 232.727C140.912 232.517 140.409 232.212 139.973 231.824C139.267 231.197 138.715 230.416 138.357 229.543C137.89 228.368 137.664 227.111 137.692 225.847C137.7 225.105 137.757 224.364 137.861 223.629C137.961 222.838 138.148 222.061 138.42 221.311C138.704 220.521 139.154 219.8 139.74 219.199C140.366 218.596 141.108 218.127 141.921 217.821C142.774 217.528 143.661 217.35 144.561 217.293C145.485 217.198 146.435 217.129 147.407 217.071C148.379 217.013 149.361 216.976 150.364 216.96C151.367 216.945 152.386 216.855 153.416 216.807L174.493 215.567L180.877 215.155L182.614 215.028L183.063 214.991C183.126 214.992 183.188 214.981 183.248 214.959Z" fill="#455A64"/>
<path d="M195.513 220.276C195.382 220.376 195.233 220.452 195.075 220.498C194.651 220.653 194.206 220.744 193.755 220.767C193.003 220.825 192.247 220.718 191.542 220.452C190.836 220.186 190.197 219.768 189.67 219.228C189.144 218.688 188.742 218.04 188.493 217.328C188.245 216.615 188.156 215.858 188.232 215.107C188.268 214.657 188.369 214.214 188.533 213.793C188.654 213.497 188.749 213.349 188.765 213.36C188.601 213.934 188.493 214.523 188.443 215.118C188.396 215.831 188.499 216.545 188.746 217.216C188.992 217.886 189.377 218.498 189.875 219.01C190.372 219.523 190.972 219.925 191.635 220.192C192.298 220.458 193.009 220.582 193.723 220.556C194.328 220.522 194.927 220.429 195.513 220.276Z" fill="#455A64"/>
<path d="M179.156 166.357C172.244 167.133 171.125 171.827 167.904 176.447L163.242 185.048L171.811 190.302L171.515 203.502L168.01 215.181L200.286 213.359L196.691 202.271L200.988 185.323C201.316 183.01 202.203 178.717 201.601 176.442C199.721 169.34 192.34 167.265 187.26 165.945C186.204 165.676 181.157 165.692 180.28 165.903" fill="#FF6600"/>
<path d="M175.512 202.477C175.924 202.401 176.349 202.49 176.695 202.726C177.092 202.955 177.411 203.297 177.614 203.708C177.86 204.22 177.902 204.808 177.73 205.35C177.573 205.896 177.217 206.363 176.732 206.659C176.336 206.89 175.88 206.996 175.423 206.965C175.005 206.973 174.6 206.816 174.298 206.527C174.659 206.669 175.041 206.753 175.428 206.775C175.842 206.772 176.247 206.657 176.6 206.443C177.026 206.17 177.339 205.753 177.483 205.269C177.628 204.784 177.593 204.264 177.387 203.803C177.212 203.43 176.938 203.112 176.595 202.884C176.258 202.691 175.893 202.554 175.512 202.477Z" fill="#FAFAFA"/>
<path d="M183.216 188.221C183.216 188.274 186.511 189.42 190.608 190.777C194.705 192.134 198.053 193.195 198.074 193.142C198.095 193.09 194.779 191.944 190.682 190.582C186.585 189.219 183.216 188.169 183.216 188.221Z" fill="#263238"/>
<g opacity="0.3">
<path opacity="0.3" d="M196.479 195.307C195.87 198.115 195.075 200.879 194.098 203.581C193.48 205.297 192.602 206.909 191.495 208.359C189.858 210.246 187.675 211.578 185.249 212.172C182.83 212.757 180.322 212.881 177.857 212.536L190.133 205.603L193.396 194.256L196.479 195.307Z" fill="black"/>
</g>
<path d="M171.521 203.143C171.573 202.839 171.6 202.532 171.6 202.224C171.632 201.569 171.674 200.709 171.721 199.668C171.816 197.509 171.922 194.52 172.022 191.22C172.123 187.92 172.197 184.932 172.234 182.772C172.234 181.716 172.234 180.866 172.265 180.212C172.281 179.896 172.271 179.58 172.234 179.266C172.18 179.577 172.152 179.891 172.149 180.206C172.117 180.861 172.075 181.722 172.022 182.762C171.933 184.921 171.822 187.91 171.727 191.21C171.632 194.51 171.552 197.493 171.51 199.658C171.51 200.714 171.51 201.559 171.484 202.219C171.472 202.527 171.485 202.836 171.521 203.143Z" fill="#263238"/>
<path d="M164.498 182.762C165.65 183.609 166.859 184.376 168.115 185.059C169.324 185.824 170.584 186.507 171.885 187.102C170.736 186.25 169.527 185.481 168.268 184.8C167.062 184.031 165.802 183.35 164.498 182.762Z" fill="#263238"/>
<path d="M180.629 177.408C180.4 177.76 180.041 178.007 179.631 178.094C179.251 178.203 178.849 178.211 178.465 178.119C178.081 178.026 177.727 177.836 177.437 177.567C177.148 177.298 176.933 176.959 176.813 176.582C176.693 176.205 176.673 175.804 176.753 175.417C176.85 174.969 177.078 174.559 177.408 174.24C177.546 174.084 177.714 173.958 177.902 173.867C178.089 173.777 178.293 173.724 178.501 173.712C178.15 173.876 177.827 174.096 177.545 174.361C177.265 174.656 177.069 175.021 176.98 175.417C176.889 175.911 176.979 176.421 177.234 176.854C177.476 177.295 177.873 177.631 178.348 177.799C178.74 177.926 179.16 177.947 179.562 177.857C179.939 177.764 180.299 177.613 180.629 177.408Z" fill="#FAFAFA"/>
<path d="M173.833 186.5C173.586 186.161 173.484 185.737 173.548 185.323C173.582 184.928 173.716 184.55 173.94 184.223C174.163 183.896 174.467 183.633 174.822 183.459C175.177 183.284 175.571 183.205 175.966 183.228C176.361 183.251 176.743 183.376 177.075 183.591C177.455 183.852 177.749 184.219 177.92 184.647C178.108 185.021 178.14 185.453 178.01 185.851C177.982 185.464 177.891 185.084 177.741 184.726C177.561 184.354 177.284 184.039 176.938 183.813C176.507 183.557 176 183.46 175.504 183.538C175.009 183.616 174.556 183.864 174.224 184.24C173.964 184.56 173.796 184.946 173.738 185.354C173.706 185.739 173.738 186.126 173.833 186.5Z" fill="#FAFAFA"/>
<path d="M173.833 198.153C173.586 197.814 173.484 197.39 173.548 196.976C173.582 196.581 173.716 196.203 173.94 195.876C174.163 195.549 174.467 195.286 174.822 195.112C175.177 194.937 175.571 194.858 175.966 194.881C176.361 194.904 176.743 195.029 177.075 195.244C177.455 195.505 177.749 195.872 177.92 196.3C178.108 196.674 178.14 197.106 178.01 197.504C177.982 197.117 177.891 196.737 177.741 196.379C177.561 196.007 177.284 195.692 176.938 195.466C176.509 195.213 176.006 195.118 175.514 195.195C175.022 195.272 174.572 195.517 174.24 195.888C173.98 196.208 173.812 196.593 173.754 197.002C173.716 197.387 173.743 197.777 173.833 198.153Z" fill="#FAFAFA"/>
<path d="M184.024 183.623C183.605 183.635 183.199 183.481 182.894 183.195C182.535 182.911 182.269 182.527 182.128 182.091C181.965 181.547 182.012 180.961 182.26 180.449C182.501 179.933 182.924 179.525 183.448 179.304C183.876 179.139 184.342 179.102 184.789 179.198C184.996 179.224 185.196 179.29 185.377 179.394C185.559 179.497 185.718 179.635 185.845 179.8C185.516 179.611 185.16 179.472 184.789 179.388C184.38 179.326 183.961 179.379 183.58 179.541C183.122 179.747 182.753 180.11 182.538 180.563C182.323 181.017 182.277 181.533 182.408 182.017C182.527 182.413 182.751 182.77 183.058 183.047C183.347 183.29 183.673 183.484 184.024 183.623Z" fill="#FAFAFA"/>
<path d="M179.89 188.279C180.25 188.495 180.51 188.844 180.613 189.251C180.779 189.737 180.775 190.265 180.603 190.748C180.43 191.232 180.098 191.643 179.662 191.914C179.226 192.185 178.71 192.299 178.2 192.24C177.69 192.18 177.216 191.949 176.854 191.585C176.538 191.318 176.339 190.94 176.299 190.529C176.475 190.876 176.707 191.192 176.986 191.463C177.296 191.738 177.676 191.921 178.084 191.991C178.58 192.061 179.085 191.955 179.51 191.69C179.936 191.426 180.255 191.02 180.412 190.545C180.523 190.146 180.523 189.724 180.412 189.325C180.3 188.949 180.123 188.595 179.89 188.279Z" fill="#FAFAFA"/>
<path d="M171.505 172.461C171.709 172.421 171.918 172.422 172.121 172.465C172.325 172.507 172.517 172.59 172.688 172.709C173.085 172.937 173.406 173.277 173.612 173.686C173.785 174.044 173.862 174.441 173.834 174.838C173.806 175.236 173.674 175.618 173.451 175.949C173.229 176.279 172.924 176.545 172.567 176.72C172.21 176.896 171.812 176.975 171.415 176.949C170.997 176.957 170.593 176.799 170.291 176.51C170.652 176.649 171.034 176.731 171.42 176.753C171.834 176.754 172.24 176.641 172.593 176.426C173.013 176.151 173.322 175.736 173.464 175.254C173.61 174.773 173.58 174.257 173.379 173.796C173.206 173.423 172.932 173.104 172.587 172.878C172.253 172.678 171.887 172.537 171.505 172.461Z" fill="#FAFAFA"/>
<path d="M186.057 186.458C185.846 186.096 185.787 185.665 185.893 185.259C185.975 184.809 186.186 184.393 186.5 184.061C186.905 183.661 187.442 183.424 188.01 183.395C188.522 183.361 189.031 183.503 189.45 183.8C189.869 184.096 190.174 184.527 190.312 185.022C190.462 185.413 190.451 185.848 190.281 186.231C190.291 185.841 190.24 185.453 190.128 185.08C189.987 184.692 189.742 184.35 189.42 184.092C189.018 183.793 188.524 183.643 188.023 183.67C187.522 183.697 187.047 183.899 186.68 184.24C186.388 184.531 186.182 184.896 186.083 185.296C186.014 185.68 186.005 186.072 186.057 186.458Z" fill="#FAFAFA"/>
<path d="M180.829 195.017C181.241 194.94 181.666 195.029 182.012 195.265C182.409 195.495 182.73 195.837 182.936 196.247C183.175 196.762 183.216 197.347 183.052 197.891C182.889 198.435 182.532 198.9 182.049 199.199C181.654 199.426 181.2 199.533 180.745 199.505C180.325 199.514 179.919 199.357 179.615 199.067C179.979 199.205 180.362 199.287 180.75 199.309C181.162 199.31 181.566 199.197 181.917 198.982C182.342 198.709 182.656 198.292 182.8 197.808C182.944 197.324 182.91 196.803 182.704 196.342C182.529 195.969 182.255 195.651 181.912 195.423C181.577 195.227 181.211 195.089 180.829 195.017Z" fill="#FAFAFA"/>
<path d="M189.251 210.265C189.251 209.845 189.418 209.443 189.716 209.146C189.975 208.847 190.307 208.621 190.68 208.488C191.053 208.356 191.454 208.322 191.844 208.391C192.233 208.46 192.599 208.628 192.904 208.88C193.209 209.131 193.444 209.458 193.586 209.827C193.74 210.258 193.764 210.724 193.654 211.168C193.584 211.582 193.354 211.951 193.016 212.198C193.22 211.872 193.372 211.515 193.464 211.142C193.535 210.736 193.495 210.318 193.348 209.933C193.152 209.472 192.8 209.095 192.355 208.866C191.909 208.638 191.398 208.572 190.909 208.681C190.508 208.786 190.143 208.997 189.853 209.294C189.605 209.586 189.402 209.914 189.251 210.265Z" fill="#FAFAFA"/>
<path d="M195.36 201.875C195.567 201.901 195.767 201.968 195.948 202.071C196.129 202.174 196.288 202.312 196.416 202.477C196.766 202.854 196.975 203.34 197.008 203.853C197.04 204.365 196.895 204.874 196.596 205.292C196.278 205.764 195.793 206.098 195.239 206.226C194.793 206.325 194.328 206.288 193.903 206.121C193.502 205.999 193.166 205.724 192.968 205.355C193.268 205.601 193.604 205.797 193.966 205.936C194.359 206.062 194.779 206.078 195.18 205.983C195.663 205.847 196.083 205.547 196.367 205.134C196.651 204.722 196.783 204.223 196.738 203.723C196.69 203.314 196.527 202.926 196.268 202.604C196.008 202.312 195.701 202.066 195.36 201.875Z" fill="#FAFAFA"/>
<path d="M195.36 185.724C195.777 185.782 196.156 186 196.416 186.331C196.722 186.671 196.923 187.093 196.991 187.546C197.059 188.109 196.919 188.678 196.596 189.145C196.273 189.612 195.79 189.945 195.238 190.08C194.791 190.175 194.325 190.139 193.897 189.974C193.496 189.851 193.16 189.574 192.963 189.204C193.262 189.454 193.601 189.652 193.966 189.79C194.359 189.917 194.78 189.931 195.18 189.832C195.666 189.703 196.089 189.405 196.374 188.991C196.66 188.578 196.789 188.077 196.738 187.577C196.687 187.168 196.525 186.781 196.268 186.458C196.006 186.167 195.699 185.919 195.36 185.724Z" fill="#FAFAFA"/>
<path d="M198.84 182.757C198.422 182.786 198.009 182.651 197.689 182.382C197.32 182.117 197.037 181.75 196.875 181.326C196.693 180.788 196.714 180.202 196.933 179.679C197.153 179.156 197.557 178.731 198.069 178.485C198.487 178.298 198.952 178.239 199.405 178.316C199.816 178.358 200.195 178.559 200.461 178.876C200.118 178.692 199.746 178.567 199.362 178.506C198.951 178.466 198.537 178.537 198.164 178.712C197.719 178.943 197.37 179.323 197.177 179.785C196.984 180.247 196.96 180.763 197.108 181.241C197.242 181.631 197.481 181.977 197.799 182.239C198.116 182.466 198.467 182.641 198.84 182.757Z" fill="#FAFAFA"/>
<path d="M192.963 173.855C192.547 173.885 192.135 173.751 191.817 173.48C191.449 173.215 191.166 172.848 191.004 172.424C190.822 171.886 190.842 171.3 191.062 170.777C191.282 170.254 191.686 169.829 192.197 169.583C192.616 169.395 193.081 169.337 193.533 169.414C193.945 169.456 194.324 169.656 194.589 169.974C194.244 169.796 193.874 169.673 193.491 169.609C193.081 169.564 192.666 169.633 192.292 169.81C191.848 170.041 191.499 170.421 191.306 170.883C191.113 171.345 191.088 171.861 191.236 172.339C191.372 172.73 191.611 173.077 191.928 173.342C192.245 173.565 192.594 173.738 192.963 173.855Z" fill="#FAFAFA"/>
<path d="M169.488 184.114C169.071 184.143 168.659 184.006 168.342 183.733C167.923 183.437 167.619 183.005 167.481 182.511C167.344 182.016 167.381 181.49 167.587 181.019C167.802 180.493 168.208 180.067 168.722 179.826C169.141 179.639 169.606 179.58 170.058 179.657C170.263 179.676 170.461 179.735 170.643 179.831C170.824 179.927 170.984 180.058 171.114 180.217C170.771 180.033 170.4 179.908 170.016 179.847C169.605 179.807 169.191 179.878 168.817 180.053C168.373 180.284 168.024 180.664 167.831 181.126C167.638 181.589 167.613 182.104 167.761 182.582C167.897 182.972 168.136 183.317 168.453 183.58C168.768 183.811 169.117 183.991 169.488 184.114Z" fill="#FAFAFA"/>
<path d="M193.031 175.893C193.239 175.919 193.439 175.986 193.62 176.091C193.801 176.195 193.96 176.334 194.087 176.5C194.396 176.838 194.597 177.261 194.663 177.714C194.73 178.277 194.589 178.845 194.268 179.311C193.946 179.778 193.465 180.111 192.915 180.249C192.468 180.344 192.002 180.308 191.574 180.143C191.173 180.02 190.837 179.743 190.64 179.372C190.939 179.622 191.278 179.82 191.643 179.958C192.036 180.085 192.456 180.1 192.857 180C193.342 179.871 193.764 179.571 194.045 179.156C194.332 178.744 194.463 178.245 194.415 177.746C194.362 177.336 194.198 176.949 193.94 176.626C193.677 176.336 193.37 176.089 193.031 175.893Z" fill="#FAFAFA"/>
<path d="M200.439 185.207C200.412 185.266 200.389 185.328 200.371 185.391C200.328 185.523 200.265 185.703 200.191 185.919C200.033 186.41 199.811 187.107 199.531 188L197.182 195.534L197.292 195.481L182.941 190.201L182.582 190.054L182.646 190.17C183.514 186.941 184.637 183.786 186.004 180.734C187.067 178.226 188.505 175.894 190.27 173.818C190.961 173.039 191.777 172.381 192.683 171.869C193.363 171.476 194.127 171.25 194.911 171.209C195.062 171.199 195.214 171.199 195.365 171.209L195.766 171.252C195.888 171.252 196.004 171.252 196.104 171.294L196.384 171.368L196.759 171.463L196.886 171.489L196.764 171.447L196.395 171.325L196.115 171.246C196.015 171.22 195.899 171.215 195.772 171.193L195.37 171.141C195.216 171.13 195.061 171.13 194.906 171.141C194.107 171.167 193.326 171.386 192.63 171.78C191.704 172.286 190.87 172.947 190.164 173.733C188.372 175.808 186.911 178.149 185.835 180.671C184.452 183.729 183.318 186.893 182.445 190.133V190.217L182.524 190.249L182.889 190.397C188.264 192.408 193.248 194.198 197.255 195.677L197.335 195.708L197.361 195.624L199.642 188.068C199.906 187.171 200.112 186.484 200.26 185.956C200.323 185.719 200.376 185.539 200.413 185.402C200.429 185.338 200.438 185.272 200.439 185.207Z" fill="#263238"/>
<path d="M173.353 193.86L170.576 202.557C170.045 204.326 169.036 205.915 167.66 207.147C166.284 208.38 164.594 209.209 162.777 209.542L144.218 213.027L139.165 212.863L144.218 206.612L158.168 201.86C158.837 201.716 159.453 201.39 159.95 200.919C160.446 200.448 160.803 199.849 160.982 199.188L166.536 187.107L173.575 191.421L173.353 193.86Z" fill="#FFBE9D"/>
<path d="M195.075 194.679L192.049 204.579C191.528 206.358 190.526 207.96 189.154 209.208C187.782 210.456 186.093 211.302 184.272 211.654L165.713 215.181L160.665 215.017L162.381 210.709L179.668 203.871C180.34 203.72 180.958 203.388 181.454 202.911C181.95 202.433 182.306 201.828 182.482 201.163L185.064 191.199L195.075 194.679Z" fill="#FFBE9D"/>
<path d="M178.628 215.313L178.469 214.109L164.213 213.55L157.212 195.904L130.553 197.71L139.55 217.298L178.628 215.313Z" fill="#455A64"/>
<path d="M146.721 207.351C146.868 207.585 147.082 207.77 147.335 207.883C147.588 207.995 147.869 208.03 148.142 207.983C148.415 207.936 148.668 207.809 148.868 207.618C149.069 207.428 149.209 207.181 149.269 206.911C149.33 206.641 149.309 206.359 149.209 206.1C149.11 205.842 148.935 205.619 148.709 205.46C148.482 205.301 148.214 205.212 147.937 205.206C147.66 205.199 147.387 205.275 147.154 205.424C146.842 205.623 146.622 205.937 146.541 206.298C146.46 206.659 146.524 207.037 146.721 207.351Z" fill="white"/>
<path d="M186.833 135.696C188.924 135.836 190.93 136.581 192.606 137.84C194.282 139.099 195.556 140.818 196.273 142.787C196.527 143.526 196.701 144.292 197.023 145.005C197.316 145.738 197.863 146.342 198.565 146.705C199.093 146.942 199.684 146.969 200.223 147.169C200.676 147.348 201.079 147.633 201.398 148.001C201.716 148.369 201.942 148.808 202.055 149.281C202.16 149.757 202.171 150.248 202.085 150.727C202 151.207 201.821 151.665 201.559 152.075C201.243 152.447 201.029 152.894 200.936 153.373C200.957 153.703 201.023 154.028 201.131 154.34C201.264 154.888 201.218 155.465 200.999 155.985C200.781 156.505 200.401 156.942 199.916 157.23C199.432 157.519 198.867 157.645 198.305 157.589C197.744 157.534 197.215 157.3 196.796 156.922C196.518 157.756 195.958 158.467 195.212 158.933C194.42 159.308 193.253 158.97 193.1 158.11C192.89 158.511 192.556 158.834 192.148 159.031C191.74 159.228 191.28 159.289 190.835 159.204C190.39 159.119 189.984 158.894 189.677 158.561C189.37 158.228 189.178 157.805 189.13 157.355" fill="#263238"/>
<path d="M174.177 148.685C172.455 146.673 172.429 143.516 173.649 141.161C174.868 138.806 177.186 137.185 179.626 136.224C182.984 134.904 186.991 134.767 190.011 136.752C191.331 137.641 192.39 138.866 193.078 140.3C193.767 141.735 194.061 143.327 193.93 144.912C193.798 146.498 193.247 148.02 192.332 149.322C191.416 150.623 190.171 151.657 188.723 152.317" fill="#FF6600"/>
<path d="M194.056 143.78C193.651 143.878 193.236 143.926 192.82 143.922C192.412 144.006 191.996 144.039 191.579 144.023C191.954 143.817 192.367 143.69 192.793 143.648C193.218 143.606 193.648 143.651 194.056 143.78Z" fill="#FAFAFA"/>
<path d="M192.44 139.392C192.081 139.518 191.709 139.603 191.331 139.645C190.729 139.777 190.275 139.973 190.223 139.899C190.503 139.606 190.876 139.42 191.279 139.371C191.656 139.242 192.067 139.249 192.44 139.392Z" fill="#FAFAFA"/>
<path d="M189.288 136.435C189.288 136.514 188.57 136.609 187.704 136.895C187.207 137.107 186.7 137.294 186.183 137.454C186.575 137.05 187.073 136.765 187.62 136.631C188.145 136.405 188.725 136.337 189.288 136.435Z" fill="#FAFAFA"/>
<path d="M184.034 135.268C184.034 135.342 183.38 135.559 182.693 136.066C182.007 136.572 181.59 137.122 181.521 137.09C181.705 136.569 182.063 136.127 182.535 135.839C182.952 135.478 183.483 135.276 184.034 135.268Z" fill="#FAFAFA"/>
<path d="M177.984 137.206C178.026 137.269 177.809 137.481 177.619 137.782C177.487 137.987 177.403 138.188 177.334 138.31L177.213 138.494V138.315C177.213 138.257 177.213 138.22 177.244 138.209C177.276 138.199 177.302 138.209 177.339 138.273H177.213C177.206 138.051 177.269 137.833 177.392 137.65C177.614 137.28 177.936 137.143 177.984 137.206Z" fill="#FAFAFA"/>
<path d="M192.947 148.394C192.947 148.468 192.472 148.511 191.917 148.342C191.363 148.173 190.999 147.866 191.036 147.814C191.073 147.761 191.484 147.924 191.997 148.083C192.509 148.241 192.952 148.32 192.947 148.394Z" fill="#FAFAFA"/>
<path d="M201.274 144.144C201.274 144.144 201.179 144.492 200.629 144.672C200.464 144.722 200.291 144.738 200.119 144.719C199.948 144.7 199.782 144.646 199.632 144.561C199.435 144.439 199.272 144.271 199.156 144.071C199.04 143.871 198.975 143.646 198.966 143.415C198.956 143.134 199.021 142.855 199.155 142.607C199.289 142.359 199.486 142.152 199.727 142.006C200.001 141.837 200.313 141.741 200.635 141.727C200.957 141.713 201.276 141.782 201.564 141.926C201.883 142.078 202.162 142.303 202.378 142.583C202.593 142.862 202.74 143.189 202.805 143.537C202.869 143.906 202.856 144.285 202.765 144.649C202.674 145.013 202.508 145.353 202.277 145.649C202.034 145.939 201.726 146.169 201.379 146.32C201.032 146.471 200.654 146.54 200.276 146.52C199.584 146.498 198.913 146.282 198.338 145.897C197.423 145.216 196.646 144.369 196.046 143.399C195.632 142.769 195.173 142.169 194.674 141.604C194.309 141.219 194.077 141.034 194.093 141.018C194.109 141.002 194.161 141.045 194.278 141.129C194.443 141.254 194.602 141.388 194.753 141.53C195.288 142.072 195.774 142.661 196.205 143.289C196.813 144.216 197.582 145.028 198.475 145.686C199.014 146.035 199.639 146.231 200.281 146.251C200.617 146.269 200.953 146.209 201.262 146.076C201.571 145.942 201.844 145.738 202.06 145.48C202.266 145.213 202.414 144.906 202.495 144.579C202.576 144.252 202.588 143.911 202.53 143.579C202.475 143.271 202.348 142.98 202.159 142.73C201.97 142.481 201.724 142.279 201.443 142.143C201.196 142.018 200.921 141.957 200.645 141.965C200.368 141.973 200.098 142.051 199.859 142.19C199.646 142.31 199.469 142.485 199.349 142.697C199.228 142.909 199.167 143.15 199.172 143.394C199.173 143.595 199.221 143.792 199.312 143.97C199.404 144.148 199.537 144.302 199.7 144.419C199.832 144.499 199.978 144.552 200.13 144.575C200.282 144.599 200.438 144.592 200.587 144.556C200.854 144.496 201.095 144.351 201.274 144.144Z" fill="#263238"/>
<path d="M189.14 141.356C189.604 141.405 190.034 141.626 190.342 141.976C190.651 142.326 190.818 142.78 190.809 143.246L189.753 168.448C189.71 171.426 184.314 174.942 181.125 174.879C177.91 174.81 178.855 171.394 178.807 168.543C178.728 163.791 178.733 162.038 178.728 162.064C178.723 162.091 174.662 161.388 173.823 156.082C173.4 153.442 173.532 149.118 173.76 145.58C173.955 142.412 176.067 138.494 179.235 138.827L189.14 141.356Z" fill="#FFBE9D"/>
<path d="M175.138 149.038C175.135 149.216 175.202 149.387 175.324 149.516C175.447 149.644 175.615 149.719 175.792 149.725C175.879 149.732 175.966 149.722 176.049 149.695C176.131 149.668 176.208 149.624 176.273 149.567C176.338 149.51 176.392 149.44 176.43 149.362C176.468 149.284 176.49 149.199 176.495 149.112C176.496 148.932 176.427 148.759 176.301 148.629C176.176 148.5 176.004 148.425 175.824 148.421C175.651 148.412 175.482 148.472 175.353 148.588C175.225 148.704 175.147 148.866 175.138 149.038Z" fill="#263238"/>
<path d="M174.694 147.84C174.779 147.93 175.296 147.55 176.03 147.55C176.764 147.55 177.297 147.919 177.376 147.829C177.456 147.74 177.329 147.629 177.097 147.46C176.778 147.241 176.4 147.125 176.014 147.127C175.635 147.128 175.265 147.248 174.958 147.47C174.731 147.655 174.652 147.84 174.694 147.84Z" fill="#263238"/>
<path d="M182.292 149.038C182.291 149.216 182.358 149.386 182.48 149.514C182.602 149.643 182.77 149.718 182.947 149.725C183.033 149.732 183.12 149.722 183.203 149.695C183.286 149.668 183.362 149.624 183.427 149.567C183.493 149.51 183.546 149.44 183.584 149.362C183.622 149.284 183.644 149.199 183.649 149.112C183.652 148.934 183.585 148.762 183.463 148.633C183.34 148.504 183.172 148.428 182.994 148.421C182.908 148.415 182.821 148.426 182.738 148.454C182.656 148.482 182.58 148.526 182.515 148.584C182.45 148.641 182.396 148.711 182.358 148.789C182.32 148.867 182.297 148.952 182.292 149.038Z" fill="#263238"/>
<path d="M181.891 147.988C181.975 148.078 182.493 147.697 183.226 147.697C183.96 147.697 184.494 148.067 184.573 147.977C184.652 147.888 184.525 147.777 184.293 147.608C183.975 147.389 183.597 147.273 183.211 147.275C182.831 147.273 182.461 147.393 182.155 147.618C181.928 147.787 181.848 147.951 181.891 147.988Z" fill="#263238"/>
<path d="M179.235 153.421C178.85 153.299 178.45 153.226 178.047 153.204C177.857 153.204 177.683 153.146 177.651 153.02C177.635 152.826 177.679 152.633 177.778 152.465L178.306 151.045C179.076 149.017 179.631 147.349 179.546 147.317C178.94 148.481 178.426 149.69 178.01 150.934L177.482 152.365C177.365 152.599 177.338 152.868 177.408 153.12C177.435 153.187 177.478 153.246 177.532 153.294C177.586 153.341 177.65 153.376 177.719 153.395C177.823 153.423 177.929 153.437 178.036 153.437C178.435 153.482 178.838 153.477 179.235 153.421Z" fill="#263238"/>
<path d="M178.728 162.096C181.235 162.133 183.702 161.473 185.856 160.19C185.856 160.19 184.129 163.833 178.823 163.358L178.728 162.096Z" fill="#EB996E"/>
<path d="M179.546 155.184C179.686 155.009 179.868 154.872 180.074 154.787C180.281 154.701 180.506 154.669 180.729 154.693C180.89 154.709 181.047 154.757 181.189 154.834C181.331 154.911 181.457 155.016 181.558 155.142C181.656 155.264 181.714 155.413 181.725 155.569C181.735 155.725 181.697 155.88 181.616 156.013C181.499 156.146 181.345 156.24 181.173 156.284C181.002 156.327 180.821 156.318 180.655 156.256C180.31 156.132 179.993 155.942 179.721 155.697C179.638 155.639 179.568 155.566 179.515 155.48C179.486 155.44 179.471 155.392 179.471 155.343C179.471 155.294 179.486 155.246 179.515 155.206" fill="#EB996E"/>
<path d="M181.389 153.928C181.273 153.928 181.268 154.715 180.587 155.279C179.905 155.844 179.061 155.755 179.055 155.866C179.05 155.976 179.245 156.019 179.583 156.029C180.048 156.035 180.5 155.878 180.861 155.586C181.208 155.303 181.429 154.895 181.479 154.451C181.532 154.118 181.442 153.922 181.389 153.928Z" fill="#263238"/>
<path d="M181.563 146.71C181.637 146.905 182.366 146.81 183.227 146.916C184.087 147.022 184.779 147.254 184.895 147.074C184.943 146.99 184.821 146.805 184.541 146.61C184.169 146.37 183.746 146.221 183.306 146.177C182.867 146.123 182.421 146.175 182.007 146.33C181.69 146.457 181.532 146.615 181.563 146.71Z" fill="#263238"/>
<path d="M174.963 145.728C175.095 145.897 175.597 145.728 176.204 145.728C176.811 145.728 177.323 145.844 177.445 145.67C177.492 145.585 177.413 145.416 177.191 145.258C176.888 145.071 176.537 144.978 176.181 144.989C175.826 145 175.481 145.116 175.19 145.321C174.979 145.48 174.905 145.654 174.963 145.728Z" fill="#263238"/>
<path d="M190.223 149.841C190.438 149.723 190.681 149.667 190.927 149.679C191.172 149.691 191.409 149.771 191.611 149.91C192.102 150.195 192.479 150.642 192.679 151.174C192.878 151.706 192.887 152.291 192.704 152.829C192.521 153.366 192.158 153.825 191.676 154.125C191.194 154.425 190.622 154.55 190.059 154.477" fill="#FFBE9D"/>
<path d="M181.88 137.085C180.076 137.175 178.323 137.72 176.785 138.669C175.047 139.571 173.739 141.127 173.147 142.993C173.072 143.184 173.038 143.389 173.045 143.594C173.052 143.799 173.101 144.001 173.189 144.186C173.356 144.4 173.593 144.549 173.858 144.607C174.123 144.665 174.4 144.628 174.641 144.503C175.117 144.235 175.522 143.859 175.824 143.405C175.953 143.894 176.241 144.326 176.643 144.633C177.045 144.94 177.539 145.103 178.044 145.098C178.55 145.092 179.04 144.918 179.435 144.603C179.831 144.287 180.11 143.849 180.228 143.357C180.268 143.866 180.503 144.339 180.884 144.678C181.264 145.017 181.761 145.197 182.271 145.179C182.779 145.132 183.263 144.94 183.664 144.624C184.066 144.308 184.366 143.883 184.531 143.399C184.658 144.317 184.975 145.198 185.46 145.987C185.713 146.376 186.078 146.678 186.507 146.854C186.937 147.029 187.41 147.069 187.862 146.969C187.674 147.749 187.687 148.565 187.899 149.339C188.179 150.089 189.013 150.696 189.768 150.438C190.524 150.179 190.788 149.313 190.962 148.553C191.341 147.101 191.532 145.607 191.532 144.107C191.58 142.563 191.078 141.052 190.116 139.843C189.154 138.634 187.794 137.806 186.278 137.507C184.765 137.158 183.21 137.016 181.658 137.085" fill="#263238"/>
<path d="M190.608 152.893C190.608 152.856 190.814 152.94 191.073 152.819C191.228 152.729 191.354 152.596 191.435 152.436C191.516 152.275 191.548 152.095 191.527 151.916C191.524 151.735 191.47 151.559 191.37 151.408C191.269 151.257 191.128 151.138 190.962 151.066C190.692 150.955 190.497 151.008 190.487 150.966C190.476 150.924 190.666 150.802 191.015 150.881C191.222 150.926 191.408 151.04 191.543 151.203C191.702 151.402 191.795 151.646 191.807 151.9C191.833 152.132 191.782 152.366 191.662 152.565C191.541 152.765 191.358 152.919 191.141 153.004C190.761 153.12 190.566 152.914 190.608 152.893Z" fill="#EB996E"/>
<path d="M192.609 153.167C192.683 153.18 192.756 153.201 192.826 153.231C193.032 153.297 193.23 153.386 193.417 153.495C194.133 153.869 194.732 154.434 195.149 155.126C195.435 155.607 195.599 156.151 195.624 156.71C195.639 157.358 195.486 157.998 195.18 158.569C194.847 159.204 194.363 159.748 193.771 160.153C193.134 160.594 192.38 160.836 191.606 160.85C190.862 160.836 190.136 160.621 189.506 160.226C188.875 159.832 188.364 159.274 188.026 158.611C187.727 158.032 187.595 157.381 187.646 156.731C187.708 156.172 187.888 155.632 188.174 155.147C188.578 154.447 189.193 153.893 189.932 153.563C190.129 153.473 190.337 153.408 190.55 153.368C190.625 153.356 190.702 153.356 190.777 153.368C190.777 153.4 190.471 153.437 189.974 153.68C189.392 153.978 188.896 154.42 188.531 154.963C188.166 155.506 187.945 156.133 187.889 156.784C187.852 157.388 187.982 157.991 188.264 158.527C188.586 159.142 189.067 159.66 189.658 160.026C190.249 160.392 190.927 160.593 191.622 160.607C192.316 160.579 192.992 160.369 193.58 159.998C194.168 159.628 194.649 159.109 194.975 158.495C195.252 157.999 195.398 157.44 195.398 156.871C195.398 156.303 195.252 155.744 194.975 155.248C194.585 154.573 194.028 154.01 193.359 153.611C192.894 153.299 192.599 153.194 192.609 153.167Z" fill="#FF6600"/>
<path d="M49.104 221.58C49.1263 221.515 49.1527 221.452 49.1832 221.39C49.2518 221.253 49.3363 221.068 49.4472 220.836C49.7613 220.119 50.0156 219.377 50.2075 218.618C50.8241 215.795 50.8079 212.87 50.16 210.054C49.7554 208.106 49.2263 206.185 48.576 204.304C47.9054 202.266 47.124 200.08 46.464 197.757C45.7341 195.315 45.378 192.776 45.408 190.228C45.503 187.588 46.2898 184.906 47.1557 182.26C48.0216 179.615 48.9192 177.023 49.1885 174.414C49.4851 171.908 48.9805 169.372 47.747 167.17C46.6013 165.058 45.1546 163.247 44.0511 161.362C43.0414 159.624 42.2975 157.745 41.844 155.786C41.1914 152.952 41.1428 150.013 41.7015 147.159C41.9207 146.125 42.2408 145.115 42.6571 144.144C42.6454 144.214 42.6278 144.283 42.6043 144.35C42.5568 144.492 42.4987 144.688 42.4195 144.931C42.1934 145.681 42.0066 146.442 41.8599 147.212C41.3481 150.046 41.4254 152.956 42.0869 155.76C42.5472 157.694 43.2928 159.548 44.2992 161.262C45.3552 163.11 46.8283 164.91 47.9952 167.07C49.2584 169.315 49.7778 171.903 49.4789 174.462C49.2096 177.102 48.3067 179.715 47.4461 182.382C46.5854 185.048 45.7987 187.662 45.7037 190.27C45.6639 192.79 46.0021 195.301 46.7069 197.72C47.3352 200.054 48.1061 202.219 48.7714 204.267C49.426 206.158 49.9551 208.089 50.3554 210.049C51.0037 212.888 51.0037 215.837 50.3554 218.676C50.151 219.437 49.877 220.178 49.537 220.889L49.2518 221.417C49.2107 221.478 49.1609 221.533 49.104 221.58Z" fill="#263238"/>
<path d="M45.5717 163.221C45.5717 163.221 43.3752 156.209 47.3141 152.101C47.3444 152.068 47.3832 152.044 47.4263 152.032C47.4694 152.019 47.5151 152.019 47.5583 152.031C47.6014 152.043 47.6404 152.067 47.671 152.1C47.7015 152.133 47.7223 152.173 47.7312 152.217C47.9371 153.379 48.2011 156.906 45.5717 163.221Z" fill="#FF6600"/>
<path d="M46.8865 154.435C46.8804 154.871 46.8308 155.307 46.7387 155.734C46.5908 156.621 46.4218 157.671 46.2106 158.828C45.9994 159.984 45.8622 161.029 45.7196 161.922C45.6795 162.354 45.6018 162.781 45.4873 163.199C45.4469 162.765 45.4593 162.327 45.5242 161.895C45.5982 161.093 45.7407 159.995 45.9361 158.78C46.1314 157.566 46.3479 156.483 46.5169 155.697C46.5934 155.264 46.7174 154.841 46.8865 154.435Z" fill="#263238"/>
<path d="M48.1484 179.773C48.1484 179.773 49.4896 172.545 54.9121 170.755C54.9545 170.74 55.0001 170.738 55.0439 170.748C55.0877 170.757 55.128 170.779 55.1602 170.81C55.1925 170.841 55.2155 170.881 55.2267 170.924C55.2379 170.968 55.2368 171.013 55.2236 171.056C54.8435 172.175 53.4284 175.417 48.1484 179.773Z" fill="#FF6600"/>
<path d="M53.4178 172.619C53.2096 172.995 52.9637 173.349 52.6838 173.675L50.7936 176.194C50.0914 177.133 49.4525 177.978 48.9086 178.702C48.6742 179.068 48.4054 179.411 48.1061 179.726C48.273 179.322 48.4894 178.941 48.7502 178.591C49.1885 177.915 49.8062 177.007 50.5718 176.03C51.3374 175.053 52.0133 174.187 52.5307 173.575C52.789 173.223 53.0866 172.903 53.4178 172.619Z" fill="#263238"/>
<path d="M46.6858 197.905C46.6858 197.905 45.8726 190.608 50.519 187.313C50.5556 187.287 50.5987 187.271 50.6437 187.268C50.6887 187.264 50.7338 187.274 50.7738 187.294C50.8138 187.315 50.8472 187.347 50.8703 187.386C50.8934 187.424 50.9052 187.469 50.9045 187.514C50.8939 188.691 50.4768 192.192 46.6858 197.905Z" fill="#FF6600"/>
<path d="M49.6321 189.552C49.5437 189.978 49.4128 190.393 49.2413 190.793C48.9298 191.638 48.5655 192.636 48.1853 193.734C47.8052 194.832 47.425 195.846 47.1293 196.68C47.009 197.096 46.8517 197.501 46.6594 197.889C46.7019 197.455 46.7977 197.028 46.9445 196.617C47.1663 195.846 47.5201 194.79 47.9425 193.639C48.3649 192.488 48.782 191.458 49.1041 190.719C49.2385 190.312 49.4155 189.921 49.6321 189.552Z" fill="#263238"/>
<path d="M50.7567 216.142C50.7567 216.142 50.2287 208.808 54.9807 205.698C55.018 205.673 55.0616 205.658 55.1067 205.656C55.1519 205.654 55.1967 205.664 55.2362 205.686C55.2757 205.708 55.3083 205.741 55.3303 205.78C55.3523 205.819 55.3629 205.864 55.3609 205.909C55.287 207.087 54.7431 210.582 50.7567 216.142Z" fill="#FF6600"/>
<path d="M54.0197 207.879C53.9175 208.302 53.7705 208.712 53.5814 209.104C53.2435 209.943 52.8422 210.925 52.3987 212.008C51.9552 213.09 51.5592 214.072 51.216 214.896C51.0771 215.309 50.9003 215.709 50.688 216.089C50.7506 215.657 50.8622 215.234 51.0206 214.827C51.2741 214.062 51.6595 213.022 52.1294 211.886C52.5994 210.751 53.0429 209.737 53.3914 209.014C53.5591 208.614 53.7697 208.233 54.0197 207.879Z" fill="#263238"/>
<path d="M42.4143 157.059C42.4143 157.059 35.904 153.648 35.772 147.967C35.771 147.922 35.7823 147.878 35.8048 147.839C35.8272 147.801 35.8599 147.769 35.8992 147.748C35.9385 147.726 35.9829 147.716 36.0275 147.719C36.0722 147.721 36.1153 147.736 36.1522 147.761C37.1237 148.426 39.806 150.733 42.4143 157.059Z" fill="#FF6600"/>
<path d="M37.1237 149.92C37.4278 150.232 37.7002 150.574 37.9368 150.939L39.7742 153.479L41.6169 156.013C41.8969 156.342 42.1461 156.695 42.3614 157.069C42.0257 156.789 41.7243 156.47 41.4638 156.119C40.9358 155.501 40.2705 154.619 39.5525 153.627C38.8344 152.634 38.2113 151.71 37.7784 151.034C37.5189 150.689 37.2993 150.315 37.1237 149.92Z" fill="#263238"/>
<path d="M49.4156 172.128C49.4156 172.128 42.7047 169.124 42.24 163.458C42.2352 163.413 42.2431 163.367 42.263 163.326C42.2828 163.285 42.3137 163.251 42.3523 163.227C42.3908 163.202 42.4354 163.19 42.4809 163.189C42.5264 163.189 42.571 163.202 42.6096 163.226C43.6023 163.833 46.4218 165.972 49.4156 172.128Z" fill="#FF6600"/>
<path d="M43.6973 165.322C44.0217 165.625 44.3153 165.959 44.5737 166.32L46.559 168.744L48.576 171.135C48.8751 171.449 49.1438 171.79 49.3785 172.154C49.0261 171.897 48.7069 171.598 48.4281 171.262C47.8737 170.676 47.1451 169.842 46.3689 168.891C45.5928 167.941 44.9117 167.059 44.4417 166.41C44.1543 166.076 43.9047 165.711 43.6973 165.322Z" fill="#263238"/>
<path d="M45.5506 188.934C45.5506 188.934 40.9464 183.216 43.1059 177.936C43.1226 177.894 43.1506 177.858 43.1868 177.831C43.223 177.804 43.266 177.787 43.311 177.784C43.3559 177.78 43.4011 177.789 43.4413 177.809C43.4816 177.829 43.5154 177.861 43.5389 177.899C44.1567 178.902 45.6931 182.091 45.5506 188.934Z" fill="#FF6600"/>
<path d="M43.5653 180.275C43.7179 180.682 43.8294 181.103 43.898 181.532C44.0933 182.419 44.3151 183.454 44.5632 184.599C44.8114 185.745 45.0437 186.775 45.2391 187.656C45.3622 188.074 45.447 188.501 45.4925 188.934C45.2927 188.545 45.1437 188.131 45.049 187.704C44.8272 186.933 44.5527 185.856 44.294 184.657C44.0352 183.459 43.8346 182.366 43.7079 181.569C43.6121 181.144 43.5642 180.71 43.5653 180.275Z" fill="#263238"/>
<path d="M50.1178 208.713C50.1178 208.713 43.4598 205.598 43.0796 199.922C43.0758 199.877 43.0846 199.832 43.1049 199.792C43.1251 199.752 43.1562 199.718 43.1945 199.695C43.2328 199.671 43.2769 199.659 43.3219 199.659C43.3669 199.659 43.4109 199.671 43.4492 199.695C44.4471 200.323 47.2297 202.509 50.1178 208.713Z" fill="#FF6600"/>
<path d="M44.5157 201.817C44.8362 202.112 45.1231 202.442 45.3711 202.8L47.3194 205.255L49.273 207.705C49.5678 208.031 49.8312 208.385 50.0597 208.761C49.7042 208.491 49.3832 208.179 49.1041 207.831C48.5761 207.235 47.8421 206.39 47.0818 205.424C46.3215 204.457 45.6615 203.57 45.1969 202.916C44.9312 202.575 44.7028 202.207 44.5157 201.817Z" fill="#263238"/>
<path d="M63.3601 179.81C63.3686 179.865 63.3686 179.92 63.3601 179.974V180.444C63.3601 180.882 63.3179 181.5 63.2809 182.223C63.1964 183.807 63.075 185.977 62.9324 188.591C62.4572 191.231 61.1003 194.198 59.2839 197.039C57.9481 199.151 56.5489 201.062 55.3398 202.847C54.2442 204.405 53.258 206.037 52.3882 207.731C51.8167 208.88 51.3536 210.081 51.0049 211.316C50.8887 211.754 50.799 212.098 50.7514 212.33C50.7313 212.451 50.6977 212.57 50.6511 212.684C50.6521 212.561 50.6663 212.439 50.6934 212.319C50.7303 212.082 50.799 211.733 50.8993 211.29C51.2111 210.033 51.6517 208.813 52.214 207.647C53.0626 205.929 54.0386 204.277 55.1338 202.704C56.3324 200.909 57.721 199.008 59.0516 196.896C60.8626 194.051 62.2196 191.147 62.7001 188.528C62.8849 185.914 63.038 183.733 63.1436 182.192C63.207 181.447 63.2545 180.851 63.2915 180.412C63.2915 180.222 63.3231 180.069 63.339 179.942C63.3404 179.898 63.3475 179.853 63.3601 179.81Z" fill="#263238"/>
<path d="M59.4158 196.527C59.4158 196.527 62.2354 189.742 58.6872 185.291C58.6597 185.255 58.6226 185.227 58.5801 185.211C58.5377 185.195 58.4916 185.191 58.4471 185.2C58.4025 185.209 58.3614 185.23 58.3282 185.261C58.2951 185.292 58.2713 185.332 58.2595 185.376C57.948 186.511 57.3672 190.001 59.4158 196.527Z" fill="#FF6600"/>
<path d="M58.9038 187.662C59.0239 188.08 59.0983 188.51 59.1255 188.945C59.2258 189.742 59.3367 190.846 59.4265 192.071C59.5162 193.295 59.5532 194.404 59.5532 195.207C59.5813 195.643 59.5547 196.081 59.474 196.511C59.397 196.084 59.3581 195.651 59.3578 195.217C59.2998 194.315 59.2258 193.259 59.1519 192.092C59.078 190.925 58.9935 189.863 58.9302 188.961C58.878 188.53 58.8691 188.094 58.9038 187.662Z" fill="#263238"/>
<g opacity="0.3">
<path opacity="0.3" d="M59.4158 196.527C59.4158 196.527 62.2354 189.742 58.6872 185.291C58.6597 185.255 58.6226 185.227 58.5801 185.211C58.5377 185.195 58.4916 185.191 58.4471 185.2C58.4025 185.209 58.3614 185.23 58.3282 185.261C58.2951 185.292 58.2713 185.332 58.2595 185.376C57.948 186.511 57.3672 190.001 59.4158 196.527Z" fill="black"/>
</g>
<path d="M50.6881 212.89C50.6881 212.89 52.9479 205.894 49.0513 201.749C49.0204 201.716 48.9811 201.692 48.9378 201.68C48.8944 201.668 48.8486 201.668 48.8052 201.68C48.7618 201.692 48.7225 201.716 48.6914 201.748C48.6604 201.781 48.6387 201.821 48.6289 201.865C48.4071 203.021 48.1114 206.548 50.6881 212.89Z" fill="#FF6600"/>
<path d="M49.4473 204.088C49.6028 204.495 49.7125 204.918 49.7746 205.35C49.9383 206.136 50.1389 207.229 50.3026 208.444C50.4663 209.658 50.6194 210.762 50.6828 211.559C50.7361 211.994 50.7361 212.434 50.6828 212.868C50.5741 212.448 50.5016 212.019 50.4663 211.585C50.3343 210.693 50.1759 209.642 50.0017 208.486C49.8274 207.33 49.669 206.279 49.5317 205.387C49.46 204.958 49.4317 204.523 49.4473 204.088Z" fill="#263238"/>
<g opacity="0.3">
<path opacity="0.3" d="M50.6881 212.89C50.6881 212.89 52.9479 205.894 49.0513 201.749C49.0204 201.716 48.9811 201.692 48.9378 201.68C48.8944 201.668 48.8486 201.668 48.8052 201.68C48.7618 201.692 48.7225 201.716 48.6914 201.748C48.6604 201.781 48.6387 201.821 48.6289 201.865C48.4071 203.021 48.1114 206.548 50.6881 212.89Z" fill="black"/>
</g>
<path d="M63.0063 188.232C63.0063 188.232 69.0308 184.008 68.4236 178.358C68.418 178.314 68.4006 178.272 68.3731 178.237C68.3456 178.202 68.3091 178.174 68.2675 178.158C68.2259 178.142 68.1806 178.137 68.1365 178.145C68.0924 178.152 68.0512 178.171 68.0171 178.2C67.1459 178.992 64.7804 181.632 63.0063 188.232Z" fill="#FF6600"/>
<g opacity="0.3">
<path opacity="0.3" d="M63.0063 188.232C63.0063 188.232 69.0308 184.008 68.4236 178.358C68.418 178.314 68.4006 178.272 68.3731 178.237C68.3456 178.202 68.3091 178.174 68.2675 178.158C68.2259 178.142 68.1806 178.137 68.1365 178.145C68.0924 178.152 68.0512 178.171 68.0171 178.2C67.1459 178.992 64.7804 181.632 63.0063 188.232Z" fill="black"/>
</g>
<path d="M67.3306 180.47C67.2147 180.89 67.048 181.295 66.8343 181.674C66.4858 182.403 65.9895 183.395 65.4087 184.473C64.8279 185.55 64.2629 186.516 63.8247 187.192C63.6154 187.575 63.3582 187.93 63.0591 188.248C63.2255 187.845 63.4269 187.459 63.661 187.091L65.1605 184.346C65.7202 183.29 66.2165 182.382 66.6548 181.59C66.8422 181.195 67.0686 180.82 67.3306 180.47Z" fill="#263238"/>
<path d="M53.1063 205.952C53.1063 205.952 60.3716 204.822 62.3199 199.473C62.3354 199.431 62.3388 199.385 62.3299 199.341C62.321 199.297 62.3 199.257 62.2694 199.224C62.2388 199.191 62.1997 199.167 62.1564 199.155C62.1131 199.144 62.0674 199.144 62.0242 199.156C60.8943 199.478 57.6102 200.804 53.1063 205.952Z" fill="#FF6600"/>
<g opacity="0.3">
<path opacity="0.3" d="M53.1063 205.952C53.1063 205.952 60.3716 204.822 62.3199 199.473C62.3354 199.431 62.3388 199.385 62.3299 199.341C62.321 199.297 62.3 199.257 62.2694 199.224C62.2388 199.191 62.1997 199.167 62.1564 199.155C62.1131 199.144 62.0674 199.144 62.0242 199.156C60.8943 199.478 57.6102 200.804 53.1063 205.952Z" fill="black"/>
</g>
<path d="M60.4086 200.893C60.1166 201.215 59.7889 201.502 59.4318 201.749C58.8034 202.25 57.9164 202.926 56.9185 203.634C55.9206 204.341 54.9913 204.964 54.2785 205.381C53.922 205.633 53.5353 205.839 53.1274 205.994C53.4556 205.706 53.809 205.448 54.1834 205.223L56.7442 203.412L59.2998 201.596C59.6439 201.324 60.0155 201.088 60.4086 200.893Z" fill="#263238"/>
<path d="M46.1789 219.321L44.0616 233.582H57.2669L55.5509 219.321H46.1789Z" fill="#455A64"/>
<path d="M56.0789 223.74C54.3083 223.876 52.5319 223.922 50.7567 223.877C48.9814 223.922 47.2051 223.876 45.4344 223.74C47.2049 223.601 48.9814 223.555 50.7567 223.603C52.5319 223.555 54.3085 223.601 56.0789 223.74Z" fill="#263238"/>
<path d="M56.343 224.875C56.343 224.949 53.8825 225.012 50.8465 225.012C47.8105 225.012 45.3447 224.949 45.3447 224.875C47.1751 224.736 49.0114 224.69 50.8465 224.738C52.6798 224.69 54.5143 224.736 56.343 224.875Z" fill="#263238"/>
</svg>
