<svg width="261" height="264" viewBox="0 0 261 264" fill="none" xmlns="http://www.w3.org/2000/svg">
    <path d="M56.0785 229.86V245.979H79.3858H105.089V229.86H56.0785Z" fill="#F5F5F5"/>
    <path d="M54.0217 225.356V229.86H106.806V225.356H79.3857H54.0217Z" fill="#E0E0E0"/>
    <path d="M80.4141 245.979H105.089V229.86H106.806V225.356H79.3857V229.442L80.4141 245.979Z" fill="#E0E0E0"/>
    <path d="M72.8711 232.457H62.9323V234.886H72.8711V232.457Z" fill="#E0E0E0"/>
    <path d="M74.4163 237.922H61.6534V243.044H74.4163V237.922Z" fill="white"/>
    <path d="M63.6213 209.257V225.377H86.9286H112.632V209.257H63.6213Z" fill="#F5F5F5"/>
    <path d="M61.5647 204.748V209.257H114.344V204.748H86.9287H61.5647Z" fill="#E0E0E0"/>
    <path d="M87.9569 225.377H112.632V209.257H114.344V204.748H86.9286V208.84L87.9569 225.377Z" fill="#E0E0E0"/>
    <path d="M80.4141 211.855H70.4752V214.284H80.4141V211.855Z" fill="#E0E0E0"/>
    <path d="M81.9592 217.314H69.1963V222.436H81.9592V217.314Z" fill="white"/>
    <path d="M63.8771 31.5427C65.1994 30.7374 66.6211 30.1125 68.1053 29.6842L68.9719 25.4602L76.0345 25.344L77.0785 29.5363C78.5755 29.9101 80.0167 30.4836 81.3641 31.2418L84.9346 28.8763L90.0189 33.8395L87.8056 37.5355C88.6039 38.8719 89.2219 40.3102 89.6431 41.8123L93.8191 42.6888L93.9391 49.8379L89.784 50.8464C89.4144 52.3606 88.8474 53.8183 88.0979 55.1813L90.4365 58.7928L85.5297 63.9355L81.8757 61.6968C80.5545 62.5042 79.1325 63.1293 77.6475 63.5554L76.781 67.7794L69.7183 67.9008L68.6743 63.7085C67.1774 63.3347 65.7362 62.7611 64.3887 62.003L60.8182 64.3685L55.7339 59.4053L57.9472 55.7093C57.149 54.3747 56.5311 52.9381 56.1098 51.4378L51.9338 50.556L51.8137 43.4122L55.9584 42.3826C56.328 40.8684 56.895 39.4107 57.6445 38.0477L55.332 34.4467L60.2388 29.304L63.8928 31.5427H63.8771ZM67.646 41.0467C66.6046 42.1375 65.9065 43.5161 65.6398 45.0083C65.3731 46.5004 65.5498 48.0391 66.1476 49.4296C66.7455 50.8202 67.7375 52.0002 68.9984 52.8204C70.2593 53.6406 71.7323 54.0642 73.2312 54.0376C74.7301 54.011 76.1875 53.5355 77.4191 52.671C78.6508 51.8066 79.6014 50.5922 80.1506 49.1813C80.6999 47.7704 80.8232 46.2264 80.5049 44.7446C80.1867 43.2629 79.4412 41.9098 78.3626 40.8566C76.9145 39.4465 74.9719 38.6761 72.9622 38.7147C70.9524 38.7533 69.0401 39.5979 67.646 41.0626V41.0467Z" fill="#EBEBEB"/>
    <path d="M177.522 23.0261C179.094 22.0653 180.787 21.3213 182.554 20.8137L183.598 15.7766L192.007 15.6288L193.218 20.6237C195.002 21.0682 196.719 21.7519 198.323 22.6565L202.578 19.8369L208.633 25.7505L205.997 30.1488C206.948 31.7389 207.683 33.4508 208.184 35.2387L213.164 36.2947L213.31 44.8061L208.372 46.031C207.93 47.8344 207.254 49.5708 206.362 51.1949L209.15 55.4981L203.303 61.6176L198.955 58.9512C197.384 59.9149 195.691 60.6591 193.923 61.1635L192.879 66.2006L184.464 66.3537L183.253 61.3536C181.469 60.9114 179.752 60.2276 178.148 59.3208L173.894 62.1403L167.844 56.232L170.48 51.8337C169.528 50.2443 168.792 48.5322 168.293 46.7438L163.313 45.6878L163.161 37.1765L168.105 35.9515C168.544 34.1472 169.22 32.4105 170.115 30.7877L167.327 26.4897L173.168 20.3649L177.517 23.0049L177.522 23.0261ZM182.011 34.3622C180.771 35.6613 179.94 37.303 179.623 39.0797C179.306 40.8565 179.516 42.6885 180.228 44.3441C180.94 45.9997 182.122 47.4046 183.623 48.3811C185.125 49.3576 186.879 49.8619 188.663 49.8301C190.448 49.7984 192.183 49.2321 193.65 48.2028C195.116 47.1735 196.248 45.7274 196.902 44.0475C197.556 42.3676 197.703 40.5292 197.324 38.7648C196.945 37.0005 196.058 35.3893 194.774 34.1352C193.051 32.4545 190.739 31.5343 188.346 31.5769C185.953 31.6195 183.674 32.6213 182.011 34.3622Z" fill="#EBEBEB"/>
    <path d="M178.795 92.1253C180.024 91.3748 181.345 90.7941 182.726 90.3988L183.535 86.4652L190.107 86.3438L191.052 90.2509C192.445 90.5978 193.786 91.1305 195.04 91.8349L198.365 89.6332L203.089 94.2532L201.033 97.6852C201.775 98.9274 202.349 100.265 202.74 101.661L206.628 102.479L206.749 109.127L202.886 110.088C202.542 111.497 202.016 112.853 201.32 114.122L203.496 117.48L198.929 122.264L195.536 120.178C194.307 120.928 192.985 121.51 191.605 121.91L190.796 125.843L184.224 125.96L183.274 122.058C181.881 121.711 180.54 121.178 179.286 120.474L175.966 122.675L171.216 118.05L173.278 114.618C172.536 113.375 171.961 112.038 171.566 110.642L167.698 109.824L167.562 103.176L171.42 102.221C171.763 100.812 172.289 99.4553 172.986 98.1868L170.809 94.8234L175.371 90.0398L178.769 92.1253H178.795ZM182.298 100.98C181.329 101.995 180.679 103.277 180.43 104.665C180.181 106.054 180.345 107.486 180.901 108.78C181.457 110.074 182.38 111.172 183.553 111.935C184.726 112.699 186.096 113.093 187.491 113.069C188.886 113.045 190.242 112.603 191.388 111.798C192.534 110.994 193.419 109.865 193.931 108.552C194.442 107.239 194.557 105.803 194.261 104.424C193.965 103.045 193.272 101.786 192.268 100.806C190.923 99.4917 189.117 98.772 187.247 98.8047C185.378 98.8373 183.598 99.6198 182.298 100.98Z" fill="#E0E0E0"/>
    <path d="M213.879 71.6707C214.561 71.2549 215.295 70.9317 216.061 70.7097L216.51 68.5238L220.164 68.4604L220.686 70.6305C221.46 70.8208 222.205 71.1175 222.899 71.5123L224.747 70.2873L227.357 72.8534L226.214 74.7595C226.627 75.4505 226.947 76.1946 227.164 76.9718L229.325 77.4259L229.388 81.1219L227.242 81.6499C227.053 82.4317 226.761 83.1845 226.376 83.8886L227.582 85.7577L225.045 88.3977L223.16 87.2414C222.478 87.6572 221.744 87.9803 220.978 88.2024L220.524 90.3883L216.87 90.4516L216.348 88.2816C215.575 88.088 214.831 87.7915 214.135 87.3998L212.287 88.6248L209.677 86.0587L210.82 84.1526C210.409 83.4605 210.09 82.7167 209.87 81.9403L207.709 81.4862L207.646 77.7902L209.792 77.2622C209.983 76.4802 210.276 75.7274 210.664 75.0235L209.452 73.1544L211.989 70.5144L213.879 71.6707ZM215.821 76.5916C215.284 77.1557 214.925 77.8679 214.789 78.6384C214.652 79.4088 214.744 80.203 215.054 80.9204C215.363 81.6379 215.876 82.2465 216.527 82.6694C217.178 83.0923 217.938 83.3106 218.712 83.2966C219.486 83.2826 220.238 83.0369 220.874 82.5907C221.51 82.1445 222.001 81.5177 222.284 80.7896C222.568 80.0614 222.632 79.2644 222.469 78.4994C222.305 77.7344 221.921 77.0356 221.365 76.4913C220.994 76.129 220.557 75.8442 220.078 75.6531C219.599 75.4621 219.087 75.3685 218.572 75.3778C218.057 75.3871 217.549 75.4992 217.077 75.7074C216.605 75.9157 216.178 76.2162 215.821 76.5916Z" fill="#F5F5F5"/>
    <path d="M109.563 23.0367C110.244 22.6187 110.978 22.2955 111.745 22.0757L112.193 19.8898L115.847 19.8264L116.369 21.9912C117.142 22.1862 117.886 22.4827 118.583 22.873L120.431 21.648L123.041 24.2141L121.897 26.1202C122.311 26.8094 122.63 27.5517 122.847 28.3272L125.009 28.7813L125.071 32.4773L122.926 33.0053C122.736 33.7871 122.445 34.5399 122.059 35.244L123.265 37.1131L120.728 39.7531L118.844 38.5968C118.169 39.0282 117.441 39.3656 116.677 39.6L116.223 41.7859L112.569 41.8546L112.047 39.6845C111.274 39.4909 110.53 39.1944 109.834 38.8027L107.986 40.0277L105.376 37.4616L106.488 35.5291C106.077 34.8388 105.757 34.0968 105.538 33.3221L103.382 32.868L103.314 29.172L105.46 28.644C105.655 27.8593 105.953 27.1046 106.347 26.4L105.136 24.5362L107.673 21.8962L109.563 23.0525V23.0367ZM111.504 27.984C110.968 28.5481 110.609 29.2603 110.472 30.0308C110.336 30.8012 110.428 31.5953 110.737 32.3128C111.047 33.0302 111.559 33.6389 112.21 34.0618C112.862 34.4847 113.622 34.7029 114.396 34.6889C115.169 34.6749 115.922 34.4293 116.557 33.9831C117.193 33.5369 117.684 32.9101 117.968 32.1819C118.252 31.4537 118.316 30.6568 118.152 29.8918C117.988 29.1268 117.604 28.428 117.048 27.8837C116.678 27.5221 116.24 27.2378 115.761 27.0471C115.282 26.8564 114.77 26.7631 114.256 26.7724C113.741 26.7817 113.233 26.8935 112.761 27.1014C112.289 27.3093 111.862 27.6092 111.504 27.984Z" fill="#F5F5F5"/>
    <path d="M76.6818 82.6741C77.3631 82.2561 78.0971 81.9329 78.8637 81.7131L79.3127 79.5272L82.9667 79.4639L83.4887 81.6339C84.2644 81.8242 85.0108 82.1209 85.7072 82.5157L87.5498 81.2908L90.1598 83.8568L89.0114 85.7629C89.4256 86.4535 89.7452 87.1977 89.9614 87.9752L92.1225 88.4293L92.1852 92.1253L90.045 92.6533C89.8536 93.4353 89.5605 94.1881 89.1732 94.892L90.379 96.7612L87.8473 99.4012L85.9577 98.2448C85.2753 98.6607 84.5416 98.9838 83.7758 99.2058L83.3268 101.392L79.6728 101.455L79.1508 99.285C78.3758 99.0924 77.6297 98.7958 76.9323 98.4032L75.0897 99.6282L72.4797 97.0621L73.6281 95.156C73.2148 94.465 72.8952 93.7209 72.678 92.9437L70.517 92.4896L70.4491 88.7936L72.5945 88.2656C72.785 87.4834 73.0782 86.7304 73.4663 86.0269L72.2552 84.1578L74.7921 81.5178L76.6818 82.6741ZM78.6288 87.5951C78.0916 88.1589 77.7316 88.8711 77.5945 89.6418C77.4574 90.4124 77.5492 91.2069 77.8584 91.9248C78.1676 92.6427 78.6802 93.2518 79.3316 93.675C79.9829 94.0982 80.7437 94.3166 81.5177 94.3026C82.2917 94.2886 83.0443 94.0428 83.6802 93.5962C84.3161 93.1497 84.8069 92.5224 85.0905 91.7938C85.374 91.0652 85.4377 90.2679 85.2734 89.5027C85.109 88.7375 84.7241 88.0387 84.1673 87.4948C83.7972 87.1333 83.3604 86.8491 82.8817 86.6585C82.403 86.4679 81.8918 86.3746 81.3775 86.3839C80.8631 86.3932 80.3556 86.505 79.884 86.7128C79.4124 86.9206 78.9859 87.2204 78.6288 87.5951Z" fill="#F5F5F5"/>
    <path d="M241.514 246.497C241.514 246.571 191.809 246.634 130.505 246.634C69.2016 246.634 19.4863 246.576 19.4863 246.497C19.4863 246.417 69.1807 246.359 130.505 246.359C191.83 246.359 241.514 246.423 241.514 246.497Z" fill="#263238"/>
    <path d="M168.215 246.396L100.522 246.354C92.3784 246.354 85.7803 239.332 85.7855 230.678L85.8168 50.2761C85.8168 41.6169 92.4254 34.5998 100.574 34.6051L168.267 34.6473C176.41 34.6473 183.008 41.6697 183.003 50.3237L182.971 230.736C182.971 239.385 176.363 246.402 168.215 246.396Z" fill="#263238"/>
    <path d="M168.194 41.0257H155.071C153.312 41.0257 151.881 42.6097 151.881 44.5633V47.0924C151.881 49.0513 150.456 50.6353 148.697 50.6353H123.119C121.355 50.6353 119.93 49.0513 119.93 47.0924V44.558C119.93 42.6044 118.505 41.0151 116.745 41.0151H112.126H100.642C94.9362 41.0151 90.3061 45.9255 90.3061 51.9923L90.2748 228.08C90.2748 234.142 94.8945 239.057 100.595 239.057L168.157 239.1C173.863 239.1 178.488 234.189 178.488 228.122L178.524 52.0081C178.524 45.9361 173.899 41.031 168.194 41.0257Z" fill="white"/>
    <path d="M146.807 127.496C146.807 128.436 146.532 129.355 146.016 130.136C145.499 130.918 144.766 131.527 143.907 131.886C143.049 132.246 142.104 132.34 141.193 132.157C140.281 131.973 139.444 131.521 138.787 130.856C138.13 130.192 137.683 129.345 137.502 128.423C137.32 127.501 137.413 126.546 137.769 125.678C138.124 124.809 138.727 124.067 139.499 123.545C140.272 123.023 141.18 122.744 142.109 122.744C143.355 122.744 144.55 123.245 145.431 124.136C146.312 125.027 146.807 126.236 146.807 127.496Z" fill="#FF6600"/>
    <path d="M128.13 132.575C130.898 132.575 133.141 130.301 133.141 127.496C133.141 124.691 130.898 122.417 128.13 122.417C125.362 122.417 123.119 124.691 123.119 127.496C123.119 130.301 125.362 132.575 128.13 132.575Z" fill="#FF6600"/>
    <path d="M117.393 123.9C120.33 123.9 122.712 121.487 122.712 118.51C122.712 115.532 120.33 113.119 117.393 113.119C114.455 113.119 112.073 115.532 112.073 118.51C112.073 121.487 114.455 123.9 117.393 123.9Z" fill="#FF6600"/>
    <path d="M115.216 110.32C118.283 110.32 120.77 107.798 120.77 104.686C120.77 101.575 118.283 99.0527 115.216 99.0527C112.149 99.0527 109.662 101.575 109.662 104.686C109.662 107.798 112.149 110.32 115.216 110.32Z" fill="#FF6600"/>
    <path d="M122.018 98.4138C125.189 98.4138 127.76 95.8064 127.76 92.59C127.76 89.3735 125.189 86.7661 122.018 86.7661C118.846 86.7661 116.276 89.3735 116.276 92.59C116.276 95.8064 118.846 98.4138 122.018 98.4138Z" fill="#FF6600"/>
    <path d="M135.094 94.1531C138.55 94.1531 141.352 91.3116 141.352 87.8065C141.352 84.3014 138.55 81.46 135.094 81.46C131.637 81.46 128.835 84.3014 128.835 87.8065C128.835 91.3116 131.637 94.1531 135.094 94.1531Z" fill="#FF6600"/>
    <path d="M157.028 118.399C157.026 119.308 156.758 120.196 156.257 120.951C155.756 121.706 155.045 122.294 154.214 122.64C153.383 122.986 152.469 123.076 151.588 122.897C150.707 122.719 149.898 122.28 149.263 121.636C148.628 120.993 148.196 120.173 148.021 119.282C147.847 118.39 147.937 117.466 148.282 116.626C148.626 115.786 149.209 115.068 149.957 114.564C150.704 114.059 151.583 113.789 152.481 113.789C153.079 113.79 153.671 113.91 154.223 114.142C154.775 114.374 155.276 114.714 155.699 115.142C156.121 115.57 156.455 116.078 156.684 116.636C156.912 117.195 157.029 117.794 157.028 118.399Z" fill="#FF6600"/>
    <path d="M154.914 108.81C157.243 108.81 159.132 106.895 159.132 104.533C159.132 102.171 157.243 100.257 154.914 100.257C152.585 100.257 150.696 102.171 150.696 104.533C150.696 106.895 152.585 108.81 154.914 108.81Z" fill="#FF6600"/>
    <path d="M147.898 96.3334C150.026 96.3334 151.751 94.5841 151.751 92.4262C151.751 90.2684 150.026 88.519 147.898 88.519C145.771 88.519 144.046 90.2684 144.046 92.4262C144.046 94.5841 145.771 96.3334 147.898 96.3334Z" fill="#FF6600"/>
    <g opacity="0.5">
        <path opacity="0.5" d="M146.807 127.496C146.807 128.436 146.532 129.355 146.016 130.136C145.499 130.918 144.766 131.527 143.907 131.886C143.049 132.246 142.104 132.34 141.193 132.157C140.281 131.973 139.444 131.521 138.787 130.856C138.13 130.192 137.683 129.345 137.502 128.423C137.32 127.501 137.413 126.546 137.769 125.678C138.124 124.809 138.727 124.067 139.499 123.545C140.272 123.023 141.18 122.744 142.109 122.744C143.355 122.744 144.55 123.245 145.431 124.136C146.312 125.027 146.807 126.236 146.807 127.496Z" fill="white"/>
    </g>
    <g opacity="0.4">
        <path opacity="0.4" d="M128.13 132.575C130.898 132.575 133.141 130.301 133.141 127.496C133.141 124.691 130.898 122.417 128.13 122.417C125.362 122.417 123.119 124.691 123.119 127.496C123.119 130.301 125.362 132.575 128.13 132.575Z" fill="white"/>
    </g>
    <g opacity="0.3">
        <path opacity="0.3" d="M117.393 123.9C120.33 123.9 122.712 121.487 122.712 118.51C122.712 115.532 120.33 113.119 117.393 113.119C114.455 113.119 112.073 115.532 112.073 118.51C112.073 121.487 114.455 123.9 117.393 123.9Z" fill="white"/>
    </g>
    <g opacity="0.2">
        <path opacity="0.2" d="M115.216 110.32C118.283 110.32 120.77 107.798 120.77 104.686C120.77 101.575 118.283 99.0527 115.216 99.0527C112.149 99.0527 109.662 101.575 109.662 104.686C109.662 107.798 112.149 110.32 115.216 110.32Z" fill="white"/>
    </g>
    <g opacity="0.1">
        <path opacity="0.1" d="M122.018 98.4138C125.189 98.4138 127.76 95.8064 127.76 92.59C127.76 89.3735 125.189 86.7661 122.018 86.7661C118.846 86.7661 116.276 89.3735 116.276 92.59C116.276 95.8064 118.846 98.4138 122.018 98.4138Z" fill="white"/>
    </g>
    <g opacity="0.2">
        <path opacity="0.2" d="M135.094 94.1531C138.55 94.1531 141.352 91.3116 141.352 87.8065C141.352 84.3014 138.55 81.46 135.094 81.46C131.637 81.46 128.835 84.3014 128.835 87.8065C128.835 91.3116 131.637 94.1531 135.094 94.1531Z" fill="white"/>
    </g>
    <g opacity="0.6">
        <path opacity="0.6" d="M157.028 118.399C157.026 119.308 156.758 120.196 156.257 120.951C155.756 121.706 155.045 122.294 154.214 122.64C153.383 122.986 152.469 123.076 151.588 122.897C150.707 122.719 149.898 122.28 149.263 121.636C148.628 120.993 148.196 120.173 148.021 119.282C147.847 118.39 147.937 117.466 148.282 116.626C148.626 115.786 149.209 115.068 149.957 114.564C150.704 114.059 151.583 113.789 152.481 113.789C153.079 113.79 153.671 113.91 154.223 114.142C154.775 114.374 155.276 114.714 155.699 115.142C156.121 115.57 156.455 116.078 156.684 116.636C156.912 117.195 157.029 117.794 157.028 118.399Z" fill="white"/>
    </g>
    <g opacity="0.7">
        <path opacity="0.7" d="M154.914 108.81C157.243 108.81 159.132 106.895 159.132 104.533C159.132 102.171 157.243 100.257 154.914 100.257C152.585 100.257 150.696 102.171 150.696 104.533C150.696 106.895 152.585 108.81 154.914 108.81Z" fill="white"/>
    </g>
    <g opacity="0.8">
        <path opacity="0.8" d="M147.898 96.3334C150.026 96.3334 151.751 94.5841 151.751 92.4262C151.751 90.2684 150.026 88.519 147.898 88.519C145.771 88.519 144.046 90.2684 144.046 92.4262C144.046 94.5841 145.771 96.3334 147.898 96.3334Z" fill="white"/>
    </g>
    <path d="M120.091 173.184C120.088 172.955 120.13 172.728 120.216 172.516C120.303 172.304 120.431 172.112 120.593 171.953C120.756 171.793 120.949 171.668 121.16 171.587C121.372 171.505 121.598 171.469 121.824 171.479C122.049 171.47 122.273 171.51 122.481 171.594C122.69 171.679 122.879 171.807 123.035 171.97L122.811 172.191C122.684 172.061 122.531 171.959 122.363 171.891C122.196 171.823 122.016 171.79 121.835 171.795C121.654 171.795 121.476 171.831 121.309 171.901C121.143 171.971 120.992 172.073 120.864 172.202C120.737 172.331 120.635 172.484 120.566 172.653C120.497 172.821 120.462 173.002 120.462 173.184C120.462 173.367 120.497 173.547 120.566 173.716C120.635 173.884 120.737 174.037 120.864 174.166C120.992 174.295 121.143 174.397 121.309 174.467C121.476 174.537 121.654 174.573 121.835 174.573C122.016 174.578 122.197 174.545 122.365 174.476C122.533 174.407 122.685 174.303 122.811 174.172L123.035 174.393C122.878 174.557 122.689 174.686 122.479 174.772C122.27 174.857 122.045 174.897 121.819 174.89C121.593 174.899 121.368 174.862 121.157 174.78C120.946 174.698 120.753 174.573 120.592 174.414C120.43 174.254 120.302 174.063 120.216 173.851C120.13 173.64 120.088 173.413 120.091 173.184Z" fill="#263238"/>
    <path d="M126.543 171.479V174.831H126.199V173.284H124.111V174.831H123.761V171.479H124.111V172.978H126.199V171.479H126.543Z" fill="#263238"/>
    <path d="M129.978 174.525V174.831H127.639V171.479H129.905V171.785H127.989V172.978H129.701V173.284H127.989V174.525H129.978Z" fill="#263238"/>
    <path d="M130.469 173.184C130.465 172.955 130.508 172.728 130.594 172.516C130.68 172.304 130.809 172.112 130.971 171.953C131.133 171.793 131.326 171.668 131.538 171.587C131.75 171.505 131.976 171.469 132.202 171.479C132.426 171.47 132.65 171.51 132.859 171.594C133.067 171.679 133.256 171.807 133.413 171.97L133.188 172.191C133.061 172.061 132.909 171.959 132.741 171.891C132.573 171.823 132.393 171.79 132.212 171.795C132.032 171.795 131.853 171.831 131.687 171.901C131.52 171.971 131.369 172.073 131.241 172.202C131.114 172.331 131.013 172.484 130.944 172.653C130.875 172.821 130.839 173.002 130.839 173.184C130.839 173.367 130.875 173.547 130.944 173.716C131.013 173.884 131.114 174.037 131.241 174.166C131.369 174.295 131.52 174.397 131.687 174.467C131.853 174.537 132.032 174.573 132.212 174.573C132.394 174.578 132.574 174.545 132.742 174.476C132.91 174.407 133.062 174.303 133.188 174.172L133.413 174.393C133.256 174.557 133.066 174.686 132.857 174.772C132.647 174.857 132.422 174.897 132.197 174.89C131.971 174.899 131.745 174.862 131.534 174.78C131.323 174.698 131.131 174.573 130.969 174.414C130.807 174.254 130.68 174.063 130.593 173.851C130.507 173.64 130.465 173.413 130.469 173.184Z" fill="#263238"/>
    <path d="M135.198 173.258L134.519 173.955V174.831H134.154V171.479H134.504V173.506L136.446 171.479H136.848L135.417 172.999L136.947 174.831H136.534L135.198 173.258Z" fill="#263238"/>
    <path d="M137.516 171.479H137.865V174.831H137.516V171.479Z" fill="#263238"/>
    <path d="M141.702 171.479V174.831H141.415L139.291 172.128V174.847H138.941V171.494H139.228L141.358 174.219V171.494L141.702 171.479Z" fill="#263238"/>
    <path d="M145.116 173.184H145.45V174.462C145.112 174.749 144.681 174.901 144.239 174.89C144.018 174.89 143.798 174.845 143.594 174.76C143.389 174.674 143.203 174.548 143.047 174.39C142.89 174.232 142.766 174.044 142.681 173.837C142.597 173.63 142.553 173.408 142.553 173.184C142.553 172.96 142.597 172.738 142.681 172.532C142.766 172.325 142.89 172.137 143.047 171.978C143.203 171.82 143.389 171.694 143.594 171.609C143.798 171.523 144.018 171.479 144.239 171.479C144.467 171.468 144.694 171.506 144.906 171.59C145.118 171.674 145.31 171.801 145.471 171.964L145.252 172.186C145.092 172.015 144.893 171.887 144.672 171.814C144.452 171.74 144.216 171.724 143.988 171.765C143.759 171.807 143.544 171.905 143.362 172.052C143.181 172.198 143.038 172.388 142.947 172.605C142.856 172.821 142.82 173.057 142.842 173.291C142.864 173.525 142.943 173.75 143.072 173.945C143.201 174.14 143.377 174.3 143.582 174.41C143.788 174.519 144.017 174.575 144.249 174.573C144.558 174.582 144.862 174.492 145.116 174.314V173.184Z" fill="#263238"/>
    <path d="M146.191 174.594C146.191 174.56 146.197 174.526 146.209 174.495C146.221 174.464 146.24 174.435 146.263 174.411C146.286 174.387 146.314 174.368 146.345 174.355C146.376 174.342 146.409 174.335 146.442 174.335C146.51 174.335 146.575 174.362 146.623 174.411C146.671 174.459 146.698 174.525 146.698 174.594C146.698 174.663 146.671 174.729 146.623 174.779C146.575 174.828 146.51 174.856 146.442 174.858C146.408 174.857 146.375 174.85 146.345 174.836C146.314 174.822 146.286 174.803 146.263 174.778C146.239 174.754 146.221 174.725 146.209 174.693C146.197 174.661 146.191 174.628 146.191 174.594Z" fill="#263238"/>
    <path d="M147.204 174.594C147.203 174.56 147.209 174.526 147.222 174.495C147.234 174.464 147.252 174.435 147.276 174.411C147.299 174.387 147.327 174.368 147.358 174.355C147.388 174.342 147.421 174.335 147.455 174.335C147.488 174.335 147.521 174.342 147.553 174.355C147.584 174.368 147.612 174.387 147.636 174.411C147.659 174.435 147.678 174.463 147.691 174.495C147.704 174.526 147.71 174.56 147.71 174.594C147.71 174.663 147.684 174.729 147.636 174.779C147.588 174.828 147.523 174.856 147.455 174.858C147.421 174.858 147.387 174.851 147.356 174.837C147.325 174.824 147.297 174.804 147.274 174.78C147.25 174.755 147.232 174.726 147.22 174.694C147.208 174.662 147.203 174.628 147.204 174.594Z" fill="#263238"/>
    <path d="M148.196 174.594C148.195 174.56 148.201 174.526 148.213 174.495C148.226 174.464 148.244 174.435 148.267 174.411C148.291 174.387 148.318 174.368 148.349 174.355C148.38 174.342 148.413 174.335 148.446 174.335C148.48 174.335 148.513 174.342 148.543 174.355C148.574 174.368 148.602 174.387 148.625 174.411C148.649 174.435 148.667 174.464 148.679 174.495C148.692 174.526 148.698 174.56 148.697 174.594C148.698 174.628 148.692 174.661 148.679 174.693C148.667 174.725 148.649 174.754 148.626 174.778C148.602 174.803 148.575 174.822 148.544 174.836C148.513 174.85 148.48 174.857 148.446 174.858C148.413 174.858 148.379 174.851 148.348 174.837C148.317 174.824 148.289 174.804 148.265 174.78C148.242 174.755 148.224 174.726 148.212 174.694C148.2 174.662 148.194 174.628 148.196 174.594Z" fill="#263238"/>
    <path d="M160.426 152.08H108.419C105.185 152.08 102.563 154.732 102.563 158.004V158.986C102.563 162.258 105.185 164.91 108.419 164.91H160.426C163.661 164.91 166.283 162.258 166.283 158.986V158.004C166.283 154.732 163.661 152.08 160.426 152.08Z" fill="#F5F5F5"/>
    <path d="M132.129 152.08H108.419C105.185 152.08 102.563 154.732 102.563 158.004V158.986C102.563 162.258 105.185 164.91 108.419 164.91H132.129C135.363 164.91 137.986 162.258 137.986 158.986V158.004C137.986 154.732 135.363 152.08 132.129 152.08Z" fill="#FF6600"/>
    <path d="M153.217 159.456C153.217 160.121 152.763 160.628 151.845 160.628C151.592 160.639 151.339 160.598 151.102 160.507C150.865 160.416 150.649 160.278 150.467 160.1L150.613 159.878C150.773 160.041 150.964 160.169 151.175 160.254C151.386 160.338 151.613 160.378 151.839 160.369C152.565 160.369 152.936 160 152.936 159.472C152.936 158.944 152.591 158.558 151.526 158.558H150.733L150.942 156.631H153.03V156.895H151.192L151.041 158.294H151.599C152.784 158.268 153.217 158.727 153.217 159.456Z" fill="#FF6600"/>
    <path d="M156.318 159.456C156.318 160.121 155.864 160.628 154.945 160.628C154.692 160.639 154.44 160.598 154.203 160.507C153.966 160.416 153.75 160.278 153.567 160.1L153.713 159.878C153.873 160.041 154.065 160.169 154.276 160.254C154.487 160.338 154.713 160.378 154.94 160.369C155.666 160.369 156.031 160 156.031 159.472C156.031 158.944 155.692 158.558 154.627 158.558H153.833L154.037 156.631H156.125V156.895H154.282L154.136 158.294H154.695C155.88 158.268 156.318 158.727 156.318 159.456Z" fill="#FF6600"/>
    <path d="M156.746 157.655C156.746 157.011 157.101 156.599 157.608 156.599C158.114 156.599 158.479 157.027 158.479 157.655C158.479 158.284 158.119 158.711 157.608 158.711C157.096 158.711 156.746 158.305 156.746 157.655ZM158.265 157.655C158.265 157.127 157.999 156.779 157.608 156.779C157.216 156.779 156.96 157.112 156.96 157.655C156.96 158.199 157.221 158.537 157.608 158.537C157.994 158.537 158.265 158.204 158.265 157.655ZM159.998 156.599H160.254L157.576 160.575H157.336L159.998 156.599ZM159.09 159.525C159.09 158.875 159.445 158.468 159.957 158.468C160.468 158.468 160.818 158.891 160.818 159.525C160.818 160.158 160.468 160.581 159.957 160.581C159.445 160.581 159.09 160.179 159.09 159.53V159.525ZM160.604 159.525C160.604 158.996 160.343 158.643 159.957 158.643C159.57 158.643 159.299 158.975 159.299 159.525C159.299 160.074 159.565 160.406 159.957 160.406C160.348 160.406 160.604 160.074 160.604 159.53V159.525Z" fill="#FF6600"/>
    <g opacity="0.2">
        <path opacity="0.2" d="M117.967 152.08L113.206 164.757H116.704L121.146 152.08H117.967Z" fill="white"/>
    </g>
    <g opacity="0.2">
        <path opacity="0.2" d="M126.559 152.08L121.793 164.757H125.296L129.733 152.08H126.559Z" fill="white"/>
    </g>
    <g opacity="0.2">
        <path opacity="0.2" d="M134.974 153.035L130.537 164.836H132.625C133.177 164.717 133.716 164.54 134.232 164.308L137.286 155.565C136.74 154.536 135.944 153.666 134.974 153.035Z" fill="white"/>
    </g>
    <g opacity="0.2">
        <path opacity="0.2" d="M109.62 152.064L105.24 163.722C106.176 164.338 107.257 164.69 108.372 164.741L112.815 152.069L109.62 152.064Z" fill="white"/>
    </g>
    <path d="M160.311 164.91C160.792 164.881 161.268 164.81 161.736 164.699C163.081 164.352 164.263 163.539 165.077 162.402C165.666 161.589 166.038 160.636 166.158 159.635C166.217 159.062 166.231 158.485 166.2 157.909C166.177 157.29 166.057 156.679 165.845 156.098C165.487 155.102 164.872 154.221 164.064 153.546C163.257 152.871 162.285 152.427 161.251 152.259C160.473 152.176 159.689 152.15 158.907 152.18L108.534 152.222C107.935 152.231 107.339 152.324 106.765 152.497C106.199 152.688 105.663 152.96 105.173 153.305C104.212 154.002 103.484 154.978 103.085 156.103C102.38 158.326 102.61 161.008 104.129 162.73C104.868 163.596 105.84 164.227 106.926 164.546C107.97 164.873 109.135 164.752 110.252 164.778H116.798L139.442 164.805L154.71 164.852H158.886H159.962H160.332H159.962H158.886L154.71 164.878L139.442 164.921L116.798 164.952H108.576C107.997 164.948 107.422 164.866 106.864 164.71C105.715 164.376 104.689 163.709 103.911 162.791C103.133 161.873 102.639 160.745 102.489 159.546C102.429 158.94 102.415 158.331 102.448 157.724C102.473 157.105 102.595 156.494 102.808 155.913C103.235 154.729 104.009 153.705 105.026 152.977C105.539 152.619 106.1 152.336 106.692 152.138C107.293 151.955 107.917 151.857 108.545 151.847L158.918 151.884C159.714 151.885 160.51 151.945 161.298 152.064C162.361 152.24 163.357 152.701 164.183 153.4C165.01 154.098 165.636 155.008 165.996 156.034C166.758 158.548 166.309 161.003 165.171 162.455C164.338 163.604 163.128 164.416 161.757 164.746C161.553 164.799 161.346 164.836 161.136 164.857C160.986 164.883 160.834 164.896 160.682 164.894C160.437 164.915 160.311 164.91 160.311 164.91Z" fill="#263238"/>
    <path d="M108.728 222.452V226.76C108.727 226.845 108.705 226.928 108.662 227.001C108.619 227.074 108.558 227.135 108.484 227.176C108.411 227.217 108.328 227.237 108.244 227.234C108.16 227.232 108.078 227.207 108.007 227.161L104.656 225.007C104.59 224.963 104.536 224.904 104.499 224.834C104.462 224.764 104.442 224.685 104.442 224.606C104.442 224.526 104.462 224.448 104.499 224.378C104.536 224.308 104.59 224.248 104.656 224.205L108.007 222.05C108.078 222.005 108.16 221.98 108.244 221.977C108.328 221.975 108.411 221.995 108.484 222.036C108.558 222.077 108.619 222.137 108.662 222.21C108.705 222.283 108.727 222.367 108.728 222.452Z" fill="#E0E0E0"/>
    <path d="M136.242 224.564C136.241 225.152 136.068 225.726 135.744 226.214C135.421 226.702 134.961 227.082 134.424 227.306C133.887 227.531 133.296 227.589 132.727 227.473C132.157 227.358 131.634 227.075 131.223 226.659C130.813 226.243 130.533 225.713 130.42 225.137C130.307 224.56 130.366 223.963 130.588 223.42C130.811 222.877 131.188 222.413 131.671 222.087C132.154 221.76 132.722 221.586 133.303 221.586C133.69 221.586 134.072 221.663 134.429 221.813C134.786 221.962 135.11 222.182 135.383 222.458C135.656 222.735 135.872 223.063 136.02 223.425C136.167 223.786 136.243 224.173 136.242 224.564Z" fill="#E0E0E0"/>
    <path d="M161.794 221.976H158.328C157.789 221.976 157.352 222.418 157.352 222.964V226.485C157.352 227.031 157.789 227.473 158.328 227.473H161.794C162.333 227.473 162.77 227.031 162.77 226.485V222.964C162.77 222.418 162.333 221.976 161.794 221.976Z" fill="#E0E0E0"/>
    <path d="M224.225 151.478C224.528 149.315 224.647 147.13 224.58 144.947C224.51 142.753 223.902 140.612 222.81 138.716C222.638 138.436 221.276 136.604 220.962 136.689C220.738 136.757 221.709 138.537 221.631 138.764C220.986 140.942 221.008 143.267 221.693 145.432C222.311 147.537 223.161 149.565 224.225 151.478Z" fill="#263238"/>
    <path d="M214.735 165.792C214.417 164.282 214.161 163.094 214.15 163.099C214.14 163.104 208.93 163.627 207.552 158.553C206.895 156.103 205.945 150.95 205.136 146.277C204.717 143.853 205.216 141.359 206.533 139.29C207.851 137.222 209.89 135.731 212.245 135.115L212.731 134.988C218.039 133.932 221.897 137.898 222.8 143.294L226.548 162.054L218.306 170.898L214.735 165.792Z" fill="#FFBE9D"/>
    <path d="M214.15 163.073C216.473 162.451 218.571 161.168 220.195 159.377C220.195 159.377 219.59 163.564 214.453 164.419L214.15 163.073Z" fill="#EB996E"/>
    <path d="M207.756 150.274C207.807 150.46 207.928 150.619 208.092 150.717C208.257 150.816 208.452 150.846 208.638 150.802C208.731 150.786 208.821 150.75 208.9 150.698C208.98 150.646 209.048 150.579 209.101 150.499C209.154 150.42 209.191 150.331 209.209 150.237C209.227 150.143 209.227 150.046 209.207 149.952C209.157 149.766 209.037 149.608 208.874 149.509C208.71 149.411 208.515 149.38 208.33 149.424C208.237 149.44 208.147 149.476 208.068 149.528C207.988 149.58 207.919 149.647 207.866 149.726C207.812 149.806 207.775 149.895 207.756 149.989C207.737 150.083 207.737 150.18 207.756 150.274Z" fill="#263238"/>
    <path d="M206.749 148.078C206.863 148.152 207.302 147.602 208.074 147.402C208.847 147.201 209.515 147.444 209.578 147.323C209.64 147.201 209.473 147.122 209.176 147.006C208.783 146.859 208.354 146.839 207.949 146.948C207.541 147.051 207.176 147.282 206.905 147.608C206.712 147.84 206.712 148.046 206.749 148.078Z" fill="#263238"/>
    <path d="M214.745 148.859C214.797 149.045 214.917 149.204 215.082 149.302C215.246 149.401 215.442 149.431 215.628 149.387C215.721 149.371 215.81 149.337 215.89 149.285C215.97 149.234 216.038 149.167 216.092 149.088C216.146 149.009 216.183 148.92 216.202 148.826C216.221 148.733 216.221 148.636 216.202 148.542C216.155 148.352 216.036 148.188 215.872 148.084C215.707 147.981 215.509 147.946 215.32 147.988C215.224 148.005 215.133 148.041 215.052 148.095C214.971 148.148 214.902 148.218 214.848 148.299C214.794 148.381 214.758 148.472 214.74 148.568C214.722 148.665 214.724 148.764 214.745 148.859Z" fill="#263238"/>
    <path d="M214.401 146.409C214.516 146.483 214.954 145.934 215.727 145.733C216.499 145.533 217.168 145.775 217.225 145.659C217.282 145.543 217.121 145.459 216.828 145.342C216.434 145.191 216.003 145.171 215.596 145.284C215.188 145.383 214.822 145.613 214.552 145.939C214.385 146.187 214.344 146.383 214.401 146.409Z" fill="#263238"/>
    <path d="M213.169 153.12C212.728 153.102 212.287 153.136 211.854 153.22C211.65 153.252 211.452 153.263 211.384 153.136C211.323 152.931 211.323 152.712 211.384 152.508C211.446 151.98 211.514 151.42 211.582 150.834C211.838 148.458 211.968 146.525 211.874 146.52C211.781 146.515 211.493 148.426 211.238 150.802C211.18 151.388 211.123 151.943 211.071 152.476C211.009 152.75 211.044 153.038 211.17 153.289C211.217 153.351 211.277 153.401 211.345 153.437C211.414 153.473 211.489 153.492 211.566 153.495C211.684 153.496 211.802 153.482 211.916 153.453C212.346 153.395 212.767 153.283 213.169 153.12Z" fill="#263238"/>
    <path d="M215.586 153.088C215.455 153.115 215.675 153.965 215.111 154.751C214.547 155.538 213.628 155.686 213.655 155.807C213.681 155.929 213.895 155.924 214.276 155.834C214.768 155.71 215.201 155.417 215.502 155.005C215.792 154.607 215.915 154.111 215.847 153.622C215.784 153.252 215.633 153.067 215.586 153.088Z" fill="#263238"/>
    <path d="M213.629 143.23C213.759 143.421 214.506 143.12 215.44 142.993C216.374 142.866 217.173 142.924 217.246 142.702C217.277 142.597 217.095 142.428 216.75 142.301C216.292 142.146 215.803 142.105 215.325 142.18C214.847 142.248 214.391 142.429 213.994 142.708C213.696 142.924 213.571 143.135 213.629 143.23Z" fill="#263238"/>
    <path d="M206.404 145.395C206.587 145.538 207.072 145.216 207.709 145.036C208.346 144.857 208.92 144.846 208.998 144.63C209.03 144.524 208.899 144.371 208.617 144.265C208.248 144.145 207.852 144.14 207.479 144.25C207.107 144.36 206.776 144.58 206.529 144.883C206.352 145.126 206.32 145.327 206.404 145.395Z" fill="#263238"/>
    <path d="M223.353 147.143C223.432 147.085 226.543 145.205 227.326 148.727C228.109 152.249 224.465 152.302 224.434 152.201C224.403 152.101 223.353 147.143 223.353 147.143Z" fill="#FFBE9D"/>
    <path d="M225.196 150.617C225.196 150.617 225.269 150.644 225.379 150.67C225.536 150.698 225.699 150.664 225.833 150.575C226.026 150.382 226.164 150.14 226.233 149.874C226.302 149.609 226.299 149.329 226.224 149.065C226.165 148.761 226.04 148.475 225.859 148.225C225.803 148.123 225.722 148.036 225.625 147.973C225.527 147.909 225.416 147.871 225.3 147.861C225.227 147.859 225.156 147.883 225.098 147.928C225.04 147.973 224.999 148.037 224.982 148.109C224.956 148.22 224.982 148.284 224.982 148.294C224.982 148.305 224.893 148.252 224.893 148.099C224.891 148.005 224.922 147.913 224.982 147.84C225.022 147.793 225.07 147.754 225.125 147.726C225.179 147.698 225.239 147.681 225.3 147.676C225.449 147.672 225.595 147.706 225.727 147.776C225.858 147.845 225.97 147.947 226.052 148.072C226.266 148.342 226.411 148.662 226.475 149.002C226.611 149.714 226.402 150.459 225.953 150.718C225.866 150.768 225.769 150.797 225.669 150.802C225.57 150.808 225.47 150.79 225.379 150.749C225.222 150.702 225.186 150.628 225.196 150.617Z" fill="#EB996E"/>
    <path d="M206.138 139.92C205.511 139.73 206.806 137.518 208.048 136.583C209.933 135.168 212.997 133.88 215.038 134.012C217.497 134.17 219.668 134.92 221.302 136.794C222.885 138.723 223.933 141.043 224.34 143.516C224.526 144.257 224.515 145.035 224.309 145.77C223.99 146.652 223.16 147.354 223.432 148.41C223.486 148.601 223.503 148.801 223.48 148.999C223.458 149.197 223.397 149.388 223.301 149.561C222.81 150.385 221.897 149.915 221.401 149.345C220.357 148.136 219.908 146.515 219.506 144.952C219.158 143.857 218.991 142.712 219.01 141.562C219.057 140.939 219.209 140.327 219.224 139.704C219.248 139.392 219.205 139.078 219.098 138.785C218.991 138.491 218.822 138.225 218.603 138.003C218.494 137.919 218.379 137.844 218.259 137.776C217.683 137.455 217.032 137.294 216.375 137.311C215.717 137.327 215.075 137.521 214.516 137.871C212.71 138.996 209.593 140.77 208.581 140.29C207.869 140.01 207.223 139.582 206.686 139.033L206.138 139.92Z" fill="#263238"/>
    <path d="M214.286 132.079C214.526 132.053 220.404 131.9 222.842 135.733C225.279 139.566 225.191 140.955 225.191 140.955C225.442 141.039 225.681 141.158 225.901 141.309C226.198 141.525 226.193 142.935 225.431 142.972C219.391 141.916 212.903 143.331 205.798 145.385L200.296 146.721C198.809 147.296 198.167 147.022 198.73 146.462C199.153 146.04 203.068 143.157 203.068 143.157L203.763 142.301L205.235 138.547C205.235 138.547 204.843 138.178 205.308 137.671C205.772 137.164 209.593 132.602 214.286 132.079Z" fill="#FF6600"/>
    <path d="M203.747 142.301C203.82 142.289 203.891 142.271 203.961 142.248L204.572 142.079C205.094 141.921 205.866 141.731 206.822 141.509C209.317 140.965 211.855 140.642 214.406 140.543C216.958 140.454 219.513 140.511 222.059 140.712C223.04 140.781 223.828 140.854 224.377 140.902L225.003 140.955H225.222L225.008 140.923L224.377 140.854C223.855 140.796 223.045 140.712 222.064 140.638C219.518 140.411 216.961 140.344 214.406 140.437C211.848 140.535 209.304 140.867 206.806 141.43C204.895 141.895 203.747 142.301 203.747 142.301Z" fill="#263238"/>
    <g opacity="0.3">
        <path opacity="0.3" d="M219.981 133.246C219.981 133.246 213.743 133.774 211.389 135.791L211.661 135.553L209.405 137.333C209.239 137.509 209.036 137.645 208.811 137.732C208.587 137.818 208.346 137.853 208.106 137.834C209.018 136.609 210.15 135.567 211.441 134.761C213.733 133.262 217.622 131.873 219.981 133.246Z" fill="black"/>
    </g>
    <path d="M220.075 133.257C219.872 133.169 219.663 133.097 219.449 133.04C218.868 132.875 218.271 132.779 217.669 132.755C216.772 132.72 215.876 132.816 215.007 133.04C213.934 133.292 212.927 133.773 212.052 134.45C211.61 134.811 211.192 135.201 210.799 135.617C210.418 136.013 210.032 136.377 209.698 136.763C209.405 137.144 209.078 137.498 208.722 137.819C208.4 138.076 208.025 138.256 207.625 138.347C206.159 138.743 205.177 138.663 205.219 138.552C205.236 138.577 205.257 138.598 205.283 138.613C205.308 138.629 205.336 138.639 205.365 138.642C205.526 138.677 205.691 138.69 205.856 138.679C206.459 138.656 207.058 138.565 207.641 138.41C208.054 138.326 208.442 138.145 208.774 137.882C209.135 137.56 209.466 137.207 209.766 136.826C210.095 136.451 210.486 136.081 210.867 135.685C211.258 135.276 211.672 134.892 212.109 134.534C212.974 133.864 213.968 133.385 215.027 133.13C215.888 132.903 216.775 132.802 217.664 132.829C218.264 132.846 218.861 132.931 219.444 133.082L219.913 133.214C219.966 133.232 220.02 133.246 220.075 133.257Z" fill="#263238"/>
    <g opacity="0.3">
        <path opacity="0.3" d="M223.797 137.349C222.78 137.538 221.746 137.616 220.712 137.581C219.511 137.618 218.337 137.708 217.136 137.692C216.228 137.692 215.168 137.729 214.458 137.248C214.473 137.468 214.542 137.68 214.66 137.865C214.778 138.049 214.94 138.201 215.132 138.304C215.783 138.533 216.468 138.651 217.157 138.653C219.54 138.778 221.93 138.638 224.283 138.236C224.142 137.922 223.98 137.618 223.797 137.327" fill="black"/>
    </g>
    <path d="M222.555 135.316C223.306 135.442 223.776 135.537 223.943 136.118C224.079 136.599 224.131 137.222 223.677 137.428C223.536 137.483 223.385 137.51 223.233 137.507L215.44 137.898C215.177 137.943 214.907 137.893 214.678 137.755C214.536 137.608 214.457 137.411 214.457 137.206C214.457 137.001 214.536 136.804 214.678 136.657C214.976 136.379 215.348 136.196 215.748 136.129C217.964 135.556 220.247 135.288 222.534 135.332" fill="#FF6600"/>
    <path d="M214.819 137.835C214.702 137.77 214.605 137.675 214.537 137.56C214.454 137.4 214.416 137.219 214.428 137.038C214.44 136.857 214.501 136.683 214.605 136.536C214.98 136.141 215.477 135.888 216.014 135.818C216.614 135.696 217.282 135.569 217.982 135.464C219.177 135.266 220.388 135.178 221.599 135.2C222.064 135.2 222.435 135.242 222.696 135.263L222.993 135.295H223.098L222.998 135.268L222.701 135.221C222.44 135.189 222.064 135.142 221.599 135.126C220.377 135.084 219.153 135.163 217.945 135.363C217.246 135.469 216.578 135.601 215.977 135.728C215.423 135.804 214.912 136.073 214.532 136.488C214.422 136.646 214.36 136.832 214.351 137.025C214.343 137.218 214.389 137.409 214.485 137.576C214.539 137.664 214.614 137.736 214.704 137.787L214.819 137.835Z" fill="#263238"/>
    <path d="M204.76 139.725L209.395 138.431L209.338 139.862L204.238 141.055L204.76 139.725Z" fill="white"/>
    <path d="M212.861 142.106C212.861 142.08 210.705 142.312 208.048 142.634C205.391 142.956 203.246 143.225 203.246 143.252C203.246 143.278 205.407 143.046 208.059 142.724C210.71 142.402 212.866 142.132 212.861 142.106Z" fill="#263238"/>
    <path d="M199.467 170.898L204.165 182.429L206.253 173.564C206.68 171.856 207.526 170.283 208.711 168.992C209.13 168.546 209.584 168.137 210.068 167.767L213.759 184.863C213.759 184.863 210.627 194.6 203.188 194.827C201.027 194.89 197.734 193.501 196.705 191.067C196.183 189.863 189.569 173.981 189.569 173.981L199.467 170.898Z" fill="#E0E0E0"/>
    <path d="M201.476 180.117L201.743 178.411L196.204 173.659L195.223 174.773L192.065 178.432L203.998 188.221L206.874 184.726L201.476 180.117Z" fill="#263238"/>
    <path d="M246.222 201.48C246.379 199.104 243.529 171.912 243.529 171.912L237.416 162.777L225.76 160.702C225.582 162.138 224.669 165.887 219.861 167.27C217.387 167.983 214.698 165.486 214.698 165.486L210.068 167.762L211.827 180.497L214.098 195.027L246.342 204.299C246.342 204.299 246.065 203.861 246.222 201.48Z" fill="#E0E0E0"/>
    <path d="M215.544 196.537L214.098 179.008L230.959 175.555L246.113 198.238L246.556 205.989L223.254 205.255L215.544 196.537Z" fill="#FF6600"/>
    <path d="M211.191 173.76C211.281 174.027 211.346 174.303 211.384 174.583C211.493 175.111 211.629 175.893 211.786 176.848C212.094 178.77 212.438 181.437 212.783 184.383C213.127 187.329 213.435 189.99 213.696 191.917C213.827 192.841 213.931 193.607 214.009 194.193C214.063 194.47 214.093 194.751 214.098 195.033C214.014 194.763 213.949 194.488 213.905 194.209C213.795 193.681 213.66 192.905 213.508 191.944C213.195 190.022 212.851 187.361 212.511 184.415C212.172 181.468 211.854 178.802 211.593 176.88C211.467 175.956 211.363 175.185 211.279 174.599C211.229 174.322 211.199 174.041 211.191 173.76Z" fill="#263238"/>
    <path d="M201.492 180.085C201.492 180.085 203.752 180.375 204.546 180.792C205.339 181.21 207.652 182.757 207.652 182.757L212.308 183.649L211.196 191.432L208.064 189.848L201.194 190.539C201.194 190.539 199.696 190.191 199.696 189.108C199.339 188.889 199.035 188.593 198.805 188.24C198.575 187.888 198.425 187.488 198.365 187.07C197.644 186.139 196.975 185.168 196.361 184.161C196.194 183.691 197.128 182.577 197.128 182.577C197.128 182.577 199.091 184.261 200.26 184.525C201.429 184.789 202.531 184.314 202.635 183.538C202.87 181.98 201.492 180.085 201.492 180.085Z" fill="#FFBE9D"/>
    <g opacity="0.3">
        <path opacity="0.3" d="M213.842 193.512C213.842 193.512 229.502 199.183 234.722 198.845C239.165 198.56 241.352 196.453 241.707 193.512C242.062 190.571 242.547 178.063 242.547 178.063L234.169 192.778L213.759 192.129L213.842 193.512Z" fill="black"/>
    </g>
    <path d="M239.233 192.72C240.36 189.468 241.597 183.216 241.597 183.216L243.544 172.799C243.614 170.082 242.713 167.432 241.007 165.333C239.729 163.78 237.938 162.455 235.547 162.466C230.489 162.466 230.667 171.922 230.667 171.922L229.289 185.434L209.484 182.16L208.226 191.791L231.517 196.875C232.497 197.123 233.518 197.151 234.51 196.959C235.502 196.767 236.44 196.358 237.259 195.761C238.206 194.973 238.895 193.913 239.233 192.72Z" fill="#E0E0E0"/>
    <path d="M236.106 163.295C236.106 163.337 235.704 163.358 235.088 163.527C234.28 163.737 233.53 164.131 232.896 164.681C232.263 165.23 231.763 165.919 231.434 166.695C231.178 167.291 231.1 167.693 231.058 167.687C231.039 167.325 231.105 166.963 231.251 166.631C231.545 165.8 232.047 165.06 232.707 164.483C233.368 163.906 234.164 163.511 235.02 163.337C235.373 163.235 235.746 163.221 236.106 163.295Z" fill="#263238"/>
    <path d="M243.544 172.793C243.544 172.793 243.544 172.883 243.513 173.047C243.482 173.21 243.44 173.464 243.388 173.775L242.892 176.584C242.667 177.804 242.396 179.298 242.083 181.025C241.769 182.751 241.399 184.721 240.903 186.88C240.658 187.963 240.381 189.093 240.078 190.26C239.927 190.846 239.754 191.437 239.556 192.039C239.376 192.66 239.147 193.266 238.872 193.85C238.587 194.462 238.197 195.018 237.719 195.492C237.208 195.961 236.624 196.341 235.991 196.617C234.661 197.189 233.192 197.346 231.773 197.066L213.357 193.058L208.184 191.928L208.059 191.902V191.78C208.492 188.454 208.915 185.233 209.317 182.144V182.012H209.447L229.304 185.328L229.194 185.413C229.638 181.226 229.998 177.852 230.238 175.513C230.364 174.362 230.468 173.464 230.536 172.841C230.572 172.545 230.599 172.313 230.619 172.149C230.64 171.986 230.656 171.912 230.656 171.912C230.656 171.912 230.656 171.996 230.656 172.149C230.656 172.302 230.625 172.55 230.599 172.846C230.541 173.469 230.458 174.367 230.348 175.523C230.124 177.867 229.789 181.241 229.382 185.434V185.534H229.283L209.447 182.303L209.593 182.192C209.197 185.275 208.779 188.496 208.346 191.822L208.278 191.664L213.451 192.789L231.857 196.817C233.225 197.093 234.644 196.946 235.928 196.395C236.539 196.142 237.102 195.785 237.593 195.339C238.056 194.883 238.435 194.346 238.71 193.755C238.979 193.182 239.204 192.589 239.384 191.981C239.567 191.384 239.739 190.793 239.906 190.212C240.224 189.045 240.496 187.921 240.746 186.843C241.268 184.689 241.644 182.73 241.963 180.998C242.281 179.267 242.584 177.788 242.819 176.569C243.053 175.349 243.236 174.425 243.367 173.77C243.429 173.464 243.482 173.242 243.518 173.047C243.555 172.851 243.544 172.793 243.544 172.793Z" fill="#263238"/>
    <path d="M231.59 188.855C231.084 188.32 230.64 187.726 230.27 187.086C229.936 186.558 229.649 186.088 229.445 185.772C229.329 185.606 229.167 185.477 228.98 185.402C228.98 185.402 229.043 185.354 229.168 185.376C229.334 185.42 229.482 185.516 229.591 185.65C229.914 186.062 230.216 186.49 230.494 186.933C230.937 187.526 231.305 188.171 231.59 188.855Z" fill="#263238"/>
    <path d="M228.203 176.484C228.203 176.484 224.679 167.445 228.354 163.025C228.784 162.52 229.325 162.124 229.935 161.871C230.545 161.617 231.205 161.514 231.862 161.568C233.021 161.658 234.561 161.885 235.547 162.46C235.547 162.46 232.415 161.895 231.115 163.295C230.155 164.351 227.842 167.682 230.28 175.692L228.203 176.484Z" fill="#FF6600"/>
    <path d="M214.161 179.43L210.57 167.519C210.777 167.139 211.097 166.835 211.486 166.651C211.874 166.467 212.31 166.412 212.731 166.494L216.197 179.43H214.161Z" fill="#FF6600"/>
    <path d="M202.452 183.644C202.405 183.702 200.458 182.218 198.099 180.328C196.65 179.223 195.256 178.046 193.923 176.801C193.97 176.743 195.917 178.226 198.276 180.117C199.726 181.221 201.12 182.398 202.452 183.644Z" fill="#455A64"/>
    <path d="M193.088 177.25L192.018 176.252L192.529 175.613L193.772 176.458L193.088 177.25Z" fill="#455A64"/>
    <path d="M183.024 161.674C182.904 161.203 182.97 160.703 183.208 160.281C183.445 159.858 183.836 159.545 184.297 159.408C186.239 158.828 189.235 158.104 190.039 158.88C191.276 160.026 194.215 162.798 194.215 162.798L198.297 171.368L191.689 173.337L189.81 166.816C189.81 166.816 186.803 166.98 187.069 165.348C187.069 165.348 185.566 164.752 185.78 163.828C185.994 162.904 187.231 162.687 187.231 162.687L186.965 161.056L183.013 161.758L183.024 161.674Z" fill="#FFBE9D"/>
    <path d="M186.276 163.939H182.945V159.984H186.276C186.796 159.984 187.295 160.193 187.664 160.565C188.032 160.938 188.238 161.443 188.238 161.969C188.233 162.493 188.024 162.993 187.657 163.361C187.289 163.73 186.793 163.937 186.276 163.939Z" fill="#455A64"/>
    <path d="M188.813 161.879L183.812 160.575C183.812 160.575 182.47 160.195 183.17 161.663C183.869 163.131 185.962 162.803 186.766 163.675C187.57 164.546 188.03 166.014 191.365 166.558" fill="#FFBE9D"/>
    <path d="M191.365 166.558C191.142 166.557 190.92 166.533 190.702 166.484C190.105 166.373 189.524 166.185 188.974 165.924C188.595 165.737 188.244 165.497 187.93 165.211C187.581 164.876 187.263 164.508 186.98 164.113C186.458 163.2 185.226 163.247 184.141 162.746C183.863 162.618 183.612 162.439 183.399 162.218C183.202 161.993 183.048 161.734 182.945 161.452C182.893 161.311 182.859 161.164 182.846 161.014C182.84 160.927 182.852 160.84 182.883 160.759C182.914 160.677 182.962 160.604 183.024 160.544C183.151 160.464 183.295 160.416 183.445 160.401C183.594 160.386 183.744 160.406 183.885 160.459L186.464 161.162L188.197 161.658C188.412 161.71 188.622 161.782 188.823 161.874C188.602 161.864 188.383 161.826 188.171 161.763L186.411 161.346L183.801 160.702C183.701 160.664 183.593 160.648 183.486 160.656C183.379 160.663 183.275 160.693 183.18 160.744C183.05 160.845 183.086 161.119 183.18 161.357C183.271 161.605 183.405 161.834 183.577 162.033C183.77 162.223 183.995 162.378 184.24 162.492C184.76 162.7 185.291 162.876 185.832 163.02C186.104 163.097 186.362 163.214 186.599 163.369C186.814 163.534 187.002 163.732 187.158 163.955C187.428 164.343 187.732 164.707 188.066 165.042C188.364 165.319 188.696 165.557 189.053 165.75C189.798 166.088 190.572 166.359 191.365 166.558Z" fill="#EB996E"/>
    <path d="M191.052 191.194C190.461 191.176 189.885 191.007 189.377 190.701C188.869 190.395 188.447 189.963 188.15 189.446C187.765 188.743 187.546 187.959 187.51 187.156C187.474 186.353 187.621 185.552 187.941 184.816C187.983 184.721 188.024 184.621 188.071 184.531L188.024 184.409C187.722 183.517 187.564 182.581 187.555 181.637C187.367 178.543 187.189 175.666 187.032 172.793C186.876 169.921 186.688 167.028 186.51 163.928H186.771C186.959 167.028 187.137 169.91 187.294 172.793C187.45 175.676 187.638 178.543 187.816 181.637C187.822 182.534 187.964 183.424 188.238 184.277C188.559 183.677 189.101 183.229 189.747 183.031C189.972 182.981 190.205 182.98 190.431 183.027C190.657 183.074 190.87 183.169 191.057 183.306C191.239 183.431 191.391 183.594 191.504 183.785C191.617 183.975 191.687 184.188 191.71 184.409C191.725 184.646 191.69 184.883 191.608 185.105C191.526 185.327 191.399 185.529 191.234 185.697C191.069 185.866 190.871 185.997 190.653 186.083C190.434 186.169 190.2 186.206 189.966 186.194C189.591 186.13 189.237 185.976 188.933 185.745C188.63 185.513 188.386 185.211 188.223 184.863L188.181 184.958C187.877 185.655 187.736 186.414 187.769 187.174C187.802 187.935 188.007 188.678 188.369 189.346C188.701 189.956 189.227 190.434 189.862 190.704C190.497 190.973 191.203 191.017 191.866 190.83C193.083 190.386 194.033 188.903 194.173 187.213C194.237 185.613 193.877 184.025 193.129 182.614C192.795 181.907 192.409 181.215 192.039 180.544C191.668 179.874 191.266 179.15 190.927 178.432C190.644 177.907 190.482 177.324 190.452 176.727C190.432 176.419 190.502 176.113 190.652 175.844C190.802 175.576 191.026 175.358 191.297 175.217C191.444 175.168 191.601 175.157 191.754 175.184C191.906 175.211 192.05 175.275 192.172 175.37C192.295 175.466 192.392 175.591 192.456 175.733C192.52 175.876 192.549 176.032 192.54 176.188H192.284C192.291 176.076 192.269 175.964 192.222 175.863C192.175 175.761 192.102 175.673 192.012 175.608C191.927 175.537 191.825 175.49 191.717 175.468C191.608 175.447 191.497 175.453 191.391 175.486C191.172 175.612 190.992 175.797 190.872 176.021C190.752 176.245 190.697 176.499 190.713 176.753C190.746 177.308 190.9 177.849 191.162 178.337C191.496 179.061 191.887 179.763 192.268 180.449C192.649 181.136 193.025 181.817 193.364 182.535C194.129 183.995 194.489 185.637 194.408 187.287C194.283 188.797 193.469 190.571 191.934 191.131C191.646 191.201 191.347 191.222 191.052 191.194ZM188.364 184.536C188.502 184.882 188.723 185.188 189.008 185.425C189.292 185.663 189.63 185.826 189.992 185.898C190.187 185.908 190.381 185.875 190.561 185.801C190.741 185.727 190.903 185.614 191.036 185.471C191.177 185.336 191.286 185.172 191.356 184.989C191.425 184.806 191.454 184.61 191.438 184.415C191.421 184.233 191.366 184.058 191.276 183.9C191.186 183.743 191.063 183.607 190.916 183.501C190.761 183.385 190.582 183.304 190.393 183.263C190.204 183.222 190.009 183.222 189.82 183.264C189.508 183.367 189.219 183.533 188.971 183.751C188.724 183.97 188.522 184.237 188.379 184.536H188.364Z" fill="#455A64"/>
    <path d="M221.453 239.76L233.522 235.583C233.522 235.583 241.769 246.576 244.077 246.048L236.915 222.077L217.841 227.8L221.453 239.76Z" fill="#455A64"/>
    <path d="M230.28 228.487C230.28 228.235 230.373 227.991 230.539 227.804C230.706 227.617 230.936 227.499 231.183 227.473C231.432 227.464 231.674 227.551 231.86 227.717C232.047 227.883 232.163 228.115 232.186 228.365C232.181 228.629 232.08 228.883 231.903 229.077C231.726 229.272 231.485 229.394 231.225 229.421C230.963 229.403 230.719 229.283 230.543 229.086C230.368 228.889 230.275 228.63 230.285 228.365" fill="#E0E0E0"/>
    <path d="M237.405 221.908L235.558 222.436L242.589 245.435C242.589 245.435 243.372 246.365 244.077 246.016L237.405 221.908Z" fill="#E0E0E0"/>
    <path d="M233.517 236.016C233.632 235.979 233.517 235.377 233.71 234.691C233.903 234.004 234.305 233.545 234.232 233.45C234.159 233.355 233.538 233.735 233.308 234.575C233.078 235.414 233.417 236.064 233.517 236.016Z" fill="#263238"/>
    <path d="M235.297 238.207C235.417 238.207 235.464 237.632 235.819 237.082C236.174 236.533 236.669 236.264 236.633 236.148C236.596 236.032 235.913 236.148 235.464 236.85C235.015 237.552 235.187 238.239 235.297 238.207Z" fill="#263238"/>
    <path d="M238.695 238.725C238.695 238.608 238.063 238.624 237.52 239.121C236.978 239.617 236.889 240.235 236.998 240.256C237.108 240.277 237.348 239.833 237.802 239.437C238.256 239.041 238.721 238.846 238.695 238.725Z" fill="#263238"/>
    <path d="M230.661 236.65C230.755 236.57 230.432 236.079 230.28 235.404C230.129 234.728 230.181 234.152 230.061 234.121C229.941 234.089 229.68 234.712 229.873 235.504C230.066 236.296 230.588 236.734 230.661 236.65Z" fill="#263238"/>
    <path d="M219.986 207.203C219.522 207.076 199.08 229.252 198.616 232.922C198.151 236.591 198.892 239.786 201.309 241.845C203.726 243.904 231.225 237.146 231.225 237.146L228.615 225.493L238.533 222.114L229.659 205.667L219.986 207.203Z" fill="#FF6600"/>
    <g opacity="0.3">
        <path opacity="0.3" d="M215.147 212.119L214.495 212.831C214.495 212.831 226.209 225.266 229.805 225.092L235.547 223.122L216.108 211.042L215.147 212.119Z" fill="black"/>
    </g>
    <path d="M228.693 225.799C228.693 225.873 224.45 227.204 219.172 228.772C213.895 230.34 209.588 231.554 209.567 231.48C209.546 231.406 213.811 230.081 219.094 228.508C224.376 226.934 228.673 225.725 228.693 225.799Z" fill="#263238"/>
    <path d="M203.168 227.082L207.14 239.828C207.14 239.828 195.656 248.197 196.178 250.626L220.895 243.719L215.513 223.597L203.168 227.082Z" fill="#455A64"/>
    <path d="M214.484 236.613C214.742 236.618 214.989 236.72 215.177 236.898C215.364 237.077 215.481 237.319 215.502 237.579C215.512 237.845 215.419 238.104 215.243 238.302C215.066 238.499 214.82 238.619 214.558 238.635C214.286 238.62 214.029 238.504 213.836 238.309C213.643 238.114 213.529 237.854 213.514 237.579C213.55 237.051 214.109 236.523 214.61 236.623" fill="#E0E0E0"/>
    <path d="M221.046 244.242L220.524 242.289L196.794 249.084C196.794 249.084 195.823 249.876 196.162 250.626L221.046 244.242Z" fill="#E0E0E0"/>
    <path d="M206.712 239.812C206.754 239.934 207.37 239.812 208.069 240.05C208.769 240.288 209.228 240.699 209.327 240.62C209.426 240.541 209.051 239.886 208.2 239.628C207.349 239.369 206.649 239.712 206.712 239.812Z" fill="#263238"/>
    <path d="M204.41 241.623C204.41 241.75 204.989 241.808 205.543 242.209C206.096 242.611 206.362 243.128 206.477 243.086C206.592 243.044 206.477 242.336 205.793 241.85C205.109 241.365 204.379 241.507 204.41 241.623Z" fill="#263238"/>
    <path d="M203.794 245.171C203.909 245.171 203.909 244.511 203.418 243.931C202.927 243.35 202.291 243.239 202.265 243.355C202.238 243.471 202.687 243.73 203.084 244.216C203.481 244.702 203.669 245.193 203.794 245.171Z" fill="#263238"/>
    <path d="M206.117 236.808C206.195 236.903 206.707 236.581 207.401 236.438C208.095 236.296 208.685 236.365 208.722 236.238C208.758 236.111 208.127 235.826 207.307 236.005C206.488 236.185 206.033 236.729 206.117 236.808Z" fill="#263238"/>
    <g opacity="0.3">
        <path opacity="0.3" d="M221.062 239.469L219.537 233.424L220.675 232.89L213.759 213.851L212.438 215.012L217.872 232.452L219.819 239.733L221.062 239.469Z" fill="black"/>
    </g>
    <path d="M204.744 192.34C203.403 192.049 202.017 192.049 200.676 192.34C199.335 192.631 198.071 193.207 196.966 194.03C195.85 194.825 194.982 195.928 194.468 197.208C193.953 198.487 193.813 199.889 194.064 201.247C195.176 209.167 205.151 236.095 205.151 236.095L218.953 231.898C219.031 231.898 219.11 231.644 219.063 231.713C218.953 231.898 212.063 209.452 212.235 209.716C212.407 209.98 226.162 221.232 231.872 223.27C234.429 224.208 237.216 224.289 239.821 223.502C242.427 222.715 244.713 221.101 246.342 218.898C247.679 217.008 247.773 208.697 246.342 204.304C246.342 204.304 206.514 192.884 205.767 192.604C205.432 192.494 205.09 192.406 204.744 192.34Z" fill="#FF6600"/>
    <path d="M204.18 200.555C206.385 202.061 208.247 204.024 209.642 206.315C211.037 208.606 211.934 211.171 212.271 213.84" fill="#FF6600"/>
    <path d="M246.906 218.624L246.739 218.893C246.566 219.148 246.38 219.393 246.18 219.627C245.386 220.522 244.471 221.299 243.461 221.934C241.857 222.972 240.058 223.663 238.178 223.967C236.995 224.161 235.79 224.177 234.602 224.015C233.261 223.851 231.958 223.454 230.75 222.842C230.092 222.563 229.471 222.182 228.808 221.839C228.145 221.496 227.498 221.084 226.84 220.662C225.521 219.835 224.168 218.933 222.779 217.958C219.995 216.015 217.1 213.829 214.093 211.401L212.965 210.477L212.402 210.001L212.25 209.859L212.177 209.79C212.224 209.79 212.047 209.727 212.276 209.822C212.459 209.627 212.329 209.727 212.37 209.706V209.743L212.47 210.102C212.762 211.052 213.054 212.018 213.357 213C213.969 214.954 214.594 216.955 215.231 219.004C216.526 223.101 217.872 227.378 219.266 231.797L219.308 231.924L219.177 231.966L205.203 236.222L205.078 236.259L205.036 236.137C204.144 233.719 203.22 231.148 202.296 228.534C200.291 222.863 198.386 217.309 196.71 211.886C195.87 209.178 195.087 206.501 194.461 203.834C194.382 203.502 194.294 203.174 194.231 202.836C194.168 202.499 194.111 202.166 194.048 201.833C193.911 201.168 193.846 200.49 193.855 199.811C193.857 198.458 194.241 197.134 194.962 195.994C195.691 194.932 196.633 194.038 197.727 193.369C198.82 192.701 200.041 192.272 201.309 192.113C202.526 191.935 203.765 191.987 204.963 192.266L205.835 192.493L206.675 192.746L208.341 193.248L220.561 196.944L238.256 202.308L243.064 203.782L244.312 204.167C244.593 204.257 244.734 204.31 244.734 204.31C244.734 204.31 244.588 204.278 244.301 204.193L243.048 203.834L238.225 202.409L220.477 197.129L208.241 193.464L206.576 192.968L205.72 192.72L204.88 192.509C203.717 192.243 202.516 192.193 201.335 192.361C200.102 192.517 198.915 192.934 197.852 193.586C196.789 194.237 195.873 195.108 195.165 196.141C194.473 197.246 194.111 198.529 194.121 199.837C194.113 200.503 194.178 201.167 194.314 201.817C194.372 202.145 194.434 202.477 194.497 202.81C194.56 203.143 194.649 203.47 194.722 203.803C195.348 206.443 196.131 209.125 196.977 211.834C198.652 217.246 200.558 222.8 202.562 228.471C203.486 231.079 204.41 233.656 205.297 236.069L205.135 235.984L219.115 231.76L219.026 231.924C217.637 227.505 216.296 223.228 215.007 219.131C214.37 217.078 213.747 215.074 213.138 213.117C212.84 212.14 212.548 211.168 212.256 210.213L212.156 209.848V209.795C212.198 209.764 212.062 209.838 212.245 209.642C212.49 209.743 212.323 209.674 212.381 209.706L212.443 209.759L212.569 209.869L213.127 210.345L214.25 211.269C217.251 213.692 220.148 215.894 222.91 217.842C224.288 218.824 225.64 219.722 226.955 220.556C227.608 220.973 228.271 221.348 228.907 221.734C229.544 222.119 230.186 222.457 230.834 222.742C232.026 223.351 233.313 223.747 234.639 223.914C235.812 224.081 237.003 224.071 238.173 223.883C240.04 223.592 241.829 222.919 243.429 221.903C244.439 221.281 245.358 220.521 246.159 219.643C246.364 219.414 246.555 219.174 246.734 218.925C246.817 218.708 246.906 218.624 246.906 218.624Z" fill="#263238"/>
    <path d="M205.929 203.528C206.337 203.685 206.724 203.897 207.077 204.156C207.961 204.735 208.79 205.396 209.552 206.131C210.316 206.864 211.002 207.676 211.598 208.555C211.868 208.904 212.083 209.295 212.235 209.711C211.948 209.376 211.683 209.024 211.441 208.655C210.809 207.819 210.111 207.037 209.353 206.316C208.599 205.593 207.799 204.921 206.957 204.304C206.597 204.07 206.253 203.811 205.929 203.528Z" fill="#263238"/>
    <path d="M210.643 201.97C210.865 202.296 211.041 202.651 211.165 203.026C211.503 203.902 211.773 204.802 211.974 205.719C212.178 206.635 212.309 207.565 212.365 208.502C212.415 208.889 212.415 209.281 212.365 209.669C212.282 209.669 212.193 207.9 211.718 205.777C211.243 203.655 210.564 202.002 210.643 201.97Z" fill="#263238"/>
    <path d="M241.164 201.421L246.206 199.954L249.5 200.556L251.066 206.121C252.632 211.042 252.283 213.861 249.057 216.021C248.112 216.654 247.214 217.003 246.561 216.723C244.296 215.751 241.164 201.421 241.164 201.421Z" fill="#455A64"/>
    <path d="M246.206 199.954L214.025 194.6L214.098 195.033L246.206 204.748V199.954Z" fill="#455A64"/>
    <path d="M45.3513 225.282L42.188 236.544C42.188 236.544 52.2678 243.614 51.8815 245.747L30.4012 240.24L34.6347 222.526L45.3513 225.282Z" fill="#455A64"/>
    <path d="M35.778 233.856C35.5545 233.87 35.3439 233.967 35.1861 234.127C35.0283 234.288 34.9342 234.502 34.9219 234.728C34.9242 234.954 35.0119 235.172 35.167 235.336C35.3221 235.499 35.5331 235.597 35.7571 235.609C35.9943 235.594 36.2176 235.491 36.3842 235.319C36.5508 235.148 36.6491 234.92 36.6601 234.68C36.6184 234.226 36.1381 233.756 35.6944 233.867" fill="#E0E0E0"/>
    <g opacity="0.6">
        <path opacity="0.6" d="M30.4012 240.24L30.8971 238.471L51.3073 244.411C51.3073 244.411 52.1582 245.087 51.8815 245.747L30.4012 240.24Z" fill="white"/>
    </g>
    <path d="M42.564 236.491C42.5327 236.597 42.0002 236.491 41.3999 236.729C40.7996 236.966 40.4133 237.32 40.3246 237.257C40.2359 237.193 40.5491 236.607 41.2799 236.359C42.0107 236.111 42.611 236.401 42.564 236.491Z" fill="#263238"/>
    <path d="M44.5841 238.028C44.5841 238.133 44.0621 238.202 43.6184 238.556C43.1747 238.909 42.9293 239.374 42.8249 239.342C42.7205 239.311 42.8249 238.682 43.3939 238.244C43.9629 237.806 44.605 237.922 44.5841 238.028Z" fill="#263238"/>
    <path d="M45.1895 241.116C45.0851 241.116 45.0747 240.541 45.4871 240.023C45.8995 239.506 46.4476 239.395 46.4684 239.495C46.4893 239.596 46.1083 239.833 45.7794 240.261C45.4505 240.689 45.2939 241.132 45.1895 241.116Z" fill="#263238"/>
    <path d="M43.0076 233.851C42.9398 233.936 42.4856 233.666 41.8905 233.555C41.2955 233.444 40.7787 233.518 40.7474 233.413C40.716 233.307 41.2694 233.033 41.9636 233.175C42.6579 233.318 43.0807 233.777 43.0076 233.851Z" fill="#263238"/>
    <path d="M37.8241 227.927L37.3021 239.606C37.3021 239.606 48.7235 244.052 48.8383 246.222L26.7212 246.048L26.7682 227.811L37.8241 227.927Z" fill="#455A64"/>
    <path d="M30.4848 238.572C30.27 238.639 30.0871 238.784 29.9707 238.978C29.8543 239.173 29.8125 239.404 29.8532 239.628C29.9078 239.847 30.0431 240.036 30.2312 240.158C30.4194 240.28 30.6464 240.324 30.8659 240.282C31.0892 240.211 31.2795 240.061 31.4014 239.859C31.5233 239.657 31.5686 239.417 31.5288 239.184C31.4517 238.961 31.2908 238.777 31.0809 238.672C30.871 238.567 30.6288 238.55 30.4065 238.624" fill="#E0E0E0"/>
    <g opacity="0.6">
        <path opacity="0.6" d="M26.7212 246.048L26.7943 244.21L47.9927 245.066C47.9927 245.066 48.974 245.515 48.8592 246.227L26.7212 246.048Z" fill="white"/>
    </g>
    <path d="M37.6832 239.495C37.6832 239.606 37.1612 239.654 36.6026 240.023C36.0441 240.393 35.7831 240.842 35.6839 240.794C35.5847 240.747 35.7518 240.113 36.4043 239.701C37.0568 239.289 37.7093 239.395 37.6832 239.495Z" fill="#263238"/>
    <path d="M40.0009 240.499C40.0009 240.604 39.552 240.789 39.1814 241.259C38.8108 241.729 38.7011 242.22 38.5967 242.209C38.4923 242.199 38.4245 241.581 38.8943 241.011C39.3641 240.441 39.9957 240.393 40.0009 240.499Z" fill="#263238"/>
    <path d="M41.2954 243.361C41.1962 243.361 41.0501 242.833 41.3319 242.22C41.6138 241.608 42.1254 241.381 42.1671 241.47C42.2089 241.56 41.9009 241.887 41.6765 242.389C41.452 242.891 41.405 243.35 41.2954 243.361Z" fill="#263238"/>
    <path d="M37.5109 236.819C37.464 236.919 36.9889 236.766 36.3573 236.819C35.7257 236.871 35.2716 237.051 35.2141 236.956C35.1567 236.861 35.6213 236.465 36.3417 236.428C37.062 236.391 37.584 236.734 37.5109 236.819Z" fill="#263238"/>
    <path d="M24.1269 142.428V151.668L26.5489 187.656C26.5489 187.656 25.056 205.117 24.1164 214.975C23.3125 223.534 24.6384 238.439 24.6384 238.439H38.7324L43.7749 188.728L46.9069 157.724L52.3357 143.616L24.1269 142.428Z" fill="#263238"/>
    <path d="M58.7407 142.428L60.1032 179.942C60.0092 186.981 58.0935 200.123 55.6035 206.686L44.2813 231.845L43.6288 234.11L35.209 232.024L41.4678 143.088L58.7407 142.428Z" fill="#263238"/>
    <path d="M48.9897 152.365C48.9968 152.441 48.9968 152.517 48.9897 152.592C48.9897 152.75 48.9897 152.967 48.9897 153.247C48.9897 153.843 48.9897 154.693 48.9897 155.781C48.9897 157.983 48.9897 161.167 48.9219 165.1C48.854 169.034 48.734 173.717 48.4573 178.913C48.1806 184.108 47.81 189.837 46.6042 195.73C45.5445 201.627 44.37 207.224 43.326 212.314C42.282 217.404 41.3529 221.992 40.6586 225.863C39.9644 229.733 39.458 232.874 39.15 235.055C38.9882 236.143 38.9047 236.993 38.8264 237.563C38.7899 237.843 38.7585 238.059 38.7377 238.218C38.7316 238.293 38.7176 238.367 38.6959 238.44C38.6889 238.364 38.6889 238.288 38.6959 238.213C38.6959 238.054 38.7272 237.838 38.7533 237.558C38.816 236.982 38.8838 236.132 39.03 235.039C39.2858 232.853 39.7503 229.706 40.4185 225.826C41.0867 221.945 41.9845 217.378 43.0285 212.261C44.0725 207.145 45.2418 201.575 46.3536 195.677C47.5542 189.8 47.9196 184.061 48.2224 178.897C48.5252 173.733 48.6504 169.029 48.7444 165.095C48.8384 161.161 48.8749 157.983 48.901 155.781C48.901 154.693 48.901 153.843 48.901 153.247C48.901 152.967 48.901 152.75 48.901 152.592C48.9255 152.514 48.9551 152.439 48.9897 152.365Z" fill="#455A64"/>
    <path d="M66.7325 132.839C66.9232 133.542 66.9938 134.272 66.9413 134.999C66.8369 136.103 66.7847 138.827 63.8719 139.751C60.9592 140.675 58.2082 138.468 57.3208 137.47C56.4334 136.472 56.5326 133.204 56.5326 133.204L61.3193 131.05L66.7325 132.839Z" fill="#FF6600"/>
    <path d="M33.6429 91.27L31.2208 95.2089L21.402 99.4329L23.8606 140.2L25.625 147.592L58.3178 146.493L59.1269 140.77V113.277C58.3857 106.223 55.0188 101.841 51.892 100.103L49.851 98.6884L49.068 96.0959L46.1865 93.3661L36.9524 90.9426L33.6429 91.27Z" fill="#FF6600"/>
    <g opacity="0.3">
        <path opacity="0.3" d="M22.7749 137.1C23.8284 138.719 25.3187 139.999 27.0693 140.786C28.8198 141.574 30.757 141.838 32.6511 141.546C35.9345 140.986 38.7063 138.795 41.854 137.702C47.3298 135.791 53.5781 137.312 58.9756 135.184C59.08 134.244 59.0174 133.072 59.08 132.449C56.3813 132.306 53.505 132.153 51.1195 130.865L48.9532 130.057L22.7749 137.1Z" fill="black"/>
    </g>
    <path d="M21.402 99.4382C21.402 99.4382 16.7406 103.472 18.0926 113.99C19.3454 123.758 21.5691 137.37 24.534 138.948C27.499 140.527 33.8987 139.735 38.5811 137.053C43.2634 134.371 56.8511 127.105 56.8511 127.105L51.2291 117L33.1209 124.106C33.1209 124.106 30.7772 107.897 29.373 105.098" fill="#FF6600"/>
    <path d="M29.373 105.109C29.373 105.109 29.4252 105.209 29.5139 105.415C29.5557 105.521 29.6183 105.648 29.6757 105.806L29.8532 106.36C30.1194 107.195 30.4378 108.472 30.7824 110.093C31.4819 113.372 32.3484 118.145 33.2149 124.091L33.0844 124.011L51.1821 116.883L51.2813 116.841L51.3387 116.936C53.1135 120.131 54.9927 123.526 56.9607 127.037L57.0285 127.158L56.898 127.248L45.2888 133.584L39.5937 136.683C38.6593 137.211 37.725 137.739 36.7593 138.141C35.7966 138.558 34.8079 138.911 33.7995 139.197C31.835 139.749 29.7973 139.988 27.76 139.904C26.7651 139.865 25.7838 139.656 24.8577 139.286L24.5184 139.133C24.4047 139.072 24.2948 139.003 24.1895 138.927C23.9983 138.77 23.8234 138.593 23.6675 138.399C23.371 138.011 23.1139 137.594 22.9002 137.153C22.1265 135.458 21.5198 133.689 21.0888 131.873C20.6295 130.115 20.2693 128.389 19.9456 126.72C19.3036 123.373 18.8286 120.236 18.4318 117.369C18.0351 114.502 17.6854 111.889 17.7898 109.581C17.8432 107.603 18.1953 105.644 18.8338 103.773C19.2422 102.594 19.8209 101.481 20.5512 100.473C20.7413 100.213 20.9488 99.9657 21.1723 99.734C21.2461 99.6534 21.3265 99.5792 21.4125 99.5122L21.188 99.7498C21.0471 99.9135 20.8383 100.162 20.5929 100.505C19.8908 101.523 19.3322 102.636 18.933 103.81C18.3208 105.673 17.9917 107.619 17.9568 109.581C17.8681 111.873 18.2283 114.47 18.6354 117.337C19.0426 120.205 19.5333 123.33 20.2014 126.667C20.5303 128.336 20.8957 130.057 21.355 131.805C21.7838 133.61 22.3888 135.368 23.1612 137.053C23.3689 137.478 23.6172 137.881 23.9024 138.257C24.0468 138.437 24.2095 138.602 24.3879 138.748C24.4789 138.815 24.5749 138.875 24.675 138.927L24.9986 139.075C25.8981 139.433 26.8514 139.633 27.8174 139.667C29.8217 139.715 31.821 139.444 33.7421 138.864C34.7378 138.588 35.7144 138.246 36.6653 137.84C37.6206 137.423 38.5289 136.9 39.4685 136.393L45.1687 133.288L56.7832 126.952L56.731 127.137L51.1195 117.063L51.2709 117.116L33.1522 124.196L33.0426 124.244V124.117C32.1761 118.177 31.3618 113.393 30.6989 110.12C30.37 108.478 30.0672 107.216 29.8219 106.376C29.7593 106.165 29.7071 105.98 29.6549 105.817L29.5087 105.426C29.4095 105.22 29.373 105.109 29.373 105.109Z" fill="#263238"/>
    <path d="M30.9337 111.096L42.6944 110.315L45.2939 115.262L32.1134 117.659L30.9337 111.096Z" fill="#FF6600"/>
    <path d="M30.9338 111.096C30.9791 111.253 31.0157 111.411 31.0434 111.572C31.106 111.904 31.1948 112.342 31.3044 112.892C31.5236 114.048 31.8264 115.664 32.2127 117.644L32.0926 117.559L43.9577 115.368L45.2731 115.13L45.1739 115.326C44.2656 113.583 43.3887 111.92 42.5639 110.378L42.684 110.442L34.2589 110.938L31.8159 111.07H31.1582H30.9181C30.9876 111.064 31.0574 111.064 31.1269 111.07L31.7533 111.012L34.1649 110.817L42.6683 110.188H42.7518L42.7884 110.262L45.3984 115.204L45.4871 115.368L45.3044 115.405L43.9942 115.642L32.1135 117.754H32.0143V117.654C31.6802 115.637 31.4036 113.99 31.2052 112.812C31.1165 112.284 31.0486 111.836 30.9964 111.514C30.9677 111.376 30.9468 111.237 30.9338 111.096Z" fill="#263238"/>
    <path d="M33.121 124.106C33.1941 124.165 32.1396 125.416 31.2627 127.201C30.3857 128.985 30.0099 130.59 29.9159 130.564C29.9303 130.204 29.9971 129.848 30.1143 129.508C30.3349 128.67 30.6374 127.856 31.0173 127.079C31.4006 126.304 31.8605 125.569 32.3902 124.888C32.5931 124.591 32.8395 124.328 33.121 124.106Z" fill="#263238"/>
    <path d="M44.9337 101.439C44.7014 101.305 44.4829 101.147 44.2812 100.969L42.5743 99.5966H42.7204C42.0614 100.674 41.2782 101.668 40.3871 102.559L40.3036 102.643L40.2096 102.564L38.4087 101.049C36.4773 99.4646 34.6712 98.0707 33.3558 97.0886L31.7898 95.9217C31.5914 95.7906 31.4061 95.6403 31.2365 95.4729C31.453 95.5739 31.6592 95.6959 31.8524 95.8372C32.2387 96.0854 32.792 96.455 33.4654 96.9302C34.8121 97.8753 36.6391 99.2375 38.5758 100.837C39.2074 101.365 39.8181 101.893 40.3767 102.363H40.194C41.0773 101.491 41.8649 100.524 42.543 99.4804L42.6056 99.3801L42.6891 99.4593L44.37 100.88C44.5709 101.052 44.7593 101.239 44.9337 101.439Z" fill="#263238"/>
    <path d="M49.7674 98.9418C49.837 99.1545 49.8688 99.3779 49.8614 99.6018C49.8956 100.19 49.8764 100.781 49.804 101.365L49.7674 101.677L49.59 101.413C49.1561 100.779 48.6891 100.169 48.191 99.586C47.9822 99.3378 47.7682 99.1055 47.5594 98.8837C47.4637 98.7748 47.3627 98.6708 47.2566 98.5722C47.1522 98.5036 47.1679 98.5036 47.0739 98.6039L46.2074 99.8236C45.9589 100.216 45.6721 100.582 45.3513 100.917C45.545 100.493 45.7793 100.09 46.0508 99.7127L46.8756 98.4508C46.9007 98.4063 46.9354 98.368 46.9771 98.3388C47.0188 98.3096 47.0665 98.2902 47.1166 98.2821C47.1666 98.274 47.2179 98.2774 47.2665 98.292C47.3151 98.3065 47.3599 98.3319 47.3976 98.3663C47.5333 98.4825 47.6168 98.5775 47.7316 98.6937C47.9457 98.9154 48.1649 99.153 48.3789 99.4065C48.8852 99.9971 49.3492 100.623 49.7674 101.281L49.5482 101.334C49.7831 99.9133 49.71 98.9418 49.7674 98.9418Z" fill="#263238"/>
    <path d="M28.8353 103.488C28.5667 103.218 28.3222 102.925 28.1045 102.611C27.5546 101.892 26.906 101.255 26.1783 100.721C25.4277 100.238 24.5844 99.9214 23.704 99.792C23.328 99.7606 22.9547 99.7024 22.5869 99.6177C22.9652 99.5522 23.3518 99.5522 23.7301 99.6177C24.6633 99.7124 25.5595 100.037 26.3401 100.563C27.0938 101.109 27.7474 101.785 28.2715 102.559C28.5013 102.84 28.691 103.153 28.8353 103.488Z" fill="#263238"/>
    <path d="M54.3872 110.806C53.9926 109.996 53.6812 109.146 53.458 108.272C53.1466 107.417 52.921 106.532 52.7847 105.632C53.1807 106.444 53.4938 107.295 53.719 108.171C54.0294 109.024 54.2533 109.907 54.3872 110.806Z" fill="#263238"/>
    <path d="M59.0121 134.112C59.0873 134.459 59.1224 134.813 59.1165 135.168C59.1583 135.812 59.2314 136.699 59.2731 137.686C59.3199 138.533 59.3024 139.382 59.2209 140.226C59.2109 140.589 59.1349 140.947 58.9965 141.282C58.9788 140.93 58.9893 140.577 59.0278 140.226C59.0278 139.582 59.0278 138.695 59.0278 137.713C59.0278 136.731 58.9443 135.838 58.9547 135.189C58.9156 134.829 58.935 134.465 59.0121 134.112Z" fill="#263238"/>
    <path d="M37.6728 114.576C37.5633 114.693 37.5013 114.847 37.4991 115.007C37.4969 115.168 37.5547 115.324 37.661 115.443C37.7673 115.563 37.9143 115.637 38.0725 115.652C38.2308 115.667 38.3888 115.621 38.5149 115.523C38.6411 115.425 38.7261 115.283 38.7531 115.125C38.7801 114.966 38.747 114.803 38.6605 114.668C38.5739 114.533 38.4403 114.437 38.2863 114.397C38.1322 114.357 37.9691 114.378 37.8294 114.455" fill="#E0E0E0"/>
    <g opacity="0.3">
        <path opacity="0.3" d="M30.1508 107.532L33.4498 117.417L44.3231 115.442L33.8413 119.597L32.9591 123.024L30.1508 107.532Z" fill="black"/>
    </g>
    <g opacity="0.3">
        <path opacity="0.3" d="M31.5183 95.6472L41.2379 104.544L42.7413 100.383L44.3073 100.911L42.6212 99.4963C42.6212 99.4963 40.7734 102.369 40.2827 102.421L31.5183 95.6472Z" fill="black"/>
    </g>
    <path d="M50.0441 116.957C49.9562 116.766 49.8896 116.566 49.8458 116.361C49.7257 115.917 49.5691 115.363 49.3864 114.708C49.0001 113.314 48.4416 111.397 47.7578 109.296C47.074 107.194 46.3849 105.325 45.8734 103.968C45.6385 103.335 45.4349 102.802 45.2731 102.384C45.1869 102.191 45.1205 101.989 45.0747 101.782C45.1928 101.957 45.2908 102.145 45.367 102.342C45.5393 102.706 45.7742 103.245 46.0561 103.926C46.6094 105.262 47.3245 107.136 48.0136 109.238C48.7026 111.339 49.235 113.277 49.5796 114.687C49.7518 115.389 49.8771 115.965 49.9554 116.361C50.0079 116.555 50.0377 116.755 50.0441 116.957Z" fill="#263238"/>
    <path d="M49.9032 105.98C51.7407 107.833 56.3969 112.67 56.3969 112.67L57.6445 111.91L51.0829 104.824C50.9507 104.683 50.7741 104.594 50.5835 104.57C50.3929 104.547 50.2004 104.592 50.0389 104.697C49.9361 104.764 49.8494 104.854 49.7852 104.959C49.721 105.064 49.6809 105.183 49.6679 105.306C49.6548 105.429 49.6692 105.553 49.71 105.67C49.7507 105.787 49.8167 105.893 49.9032 105.98Z" fill="#263238"/>
    <path d="M51.2291 117L52.7951 112.543C52.9545 112.059 53.2564 111.636 53.6604 111.33C54.0644 111.024 54.5511 110.851 55.0554 110.833C55.1335 110.825 55.2122 110.825 55.2903 110.833C56.2299 110.938 61.0323 111.255 61.0323 111.255L62.8854 113.367C63.0357 113.544 63.1183 113.77 63.1183 114.003C63.1183 114.237 63.0357 114.462 62.8854 114.639L63.4074 118.425L62.3634 119.149L62.4678 121.789C62.4678 121.789 61.5282 122.422 61.1158 122.211L60.6982 122L60.0718 121.366L58.3022 123.895L55.854 125.326L51.2291 117Z" fill="#FFBE9D"/>
    <path d="M62.8906 114.835C62.6808 114.575 62.4559 114.328 62.2172 114.095C61.9501 113.872 61.6486 113.693 61.3246 113.567C60.8997 113.466 60.4662 113.406 60.0301 113.388C58.8804 113.324 57.7373 113.17 56.611 112.929C57.7624 112.895 58.9146 112.957 60.0562 113.113C60.5136 113.133 60.9672 113.205 61.4081 113.33C61.7602 113.478 62.0797 113.695 62.3477 113.969C62.6143 114.192 62.8043 114.495 62.8906 114.835Z" fill="#EB996E"/>
    <path d="M62.7862 118.319C62.6799 117.987 62.5509 117.662 62.3999 117.348C61.9761 116.626 61.3255 116.068 60.552 115.764C59.7661 115.482 58.9376 115.341 58.1038 115.347C57.7556 115.371 57.4059 115.361 57.0598 115.315C57.396 115.201 57.7493 115.147 58.1038 115.157C58.9699 115.087 59.8406 115.208 60.6564 115.51C61.4847 115.831 62.1681 116.447 62.5774 117.242C62.7659 117.567 62.8395 117.947 62.7862 118.319Z" fill="#EB996E"/>
    <path d="M62.3164 121.572C62.1393 121.25 62.0526 120.885 62.0659 120.516C62.0456 120.143 61.9663 119.776 61.8309 119.428C61.7381 119.232 61.6001 119.061 61.4284 118.929C61.2568 118.798 61.0565 118.71 60.8444 118.673C60.0236 118.495 59.1917 118.373 58.3544 118.309C57.994 118.299 57.6392 118.216 57.3104 118.066C57.6592 118.061 58.0079 118.078 58.3544 118.119C59.2113 118.124 60.0653 118.221 60.9018 118.409C61.1555 118.471 61.3948 118.582 61.6065 118.737C61.8008 118.892 61.9519 119.096 62.045 119.328C62.1795 119.704 62.245 120.101 62.2381 120.5C62.259 121.171 62.3477 121.556 62.3164 121.572Z" fill="#EB996E"/>
    <path d="M64.9211 113.203L44.2812 134.767L45.0747 135.58L59.8629 133.895L79.7616 114.718L79.7407 113.8L64.9211 113.203Z" fill="#455A64"/>
    <g opacity="0.3">
        <path opacity="0.3" d="M66.2575 126.752C65.8574 126.383 65.3857 126.103 64.8724 125.929C64.3592 125.756 63.8158 125.692 63.2769 125.743C62.1955 125.857 61.1723 126.295 60.338 127C59.6344 127.522 59.1207 128.264 58.8764 129.112C58.5319 130.606 59.5133 132.169 60.8496 132.892L61.0323 132.676L66.1166 128.547C66.3936 128.369 66.6018 128.101 66.7064 127.787C66.7211 127.59 66.6878 127.393 66.6095 127.212C66.5312 127.032 66.4104 126.874 66.2575 126.752Z" fill="black"/>
    </g>
    <path d="M64.0808 124.735C64.0808 124.735 66.0801 124.777 66.7326 125.104C67.3851 125.432 69.1807 127.369 69.1807 127.369C69.1807 127.369 69.1807 128.684 68.6587 128.737C68.7201 129.031 68.755 129.329 68.7631 129.629C68.8153 130.368 68.9197 130.791 67.9279 131.419C67.9279 131.419 68.0323 132.633 67.6669 132.945C67.4211 133.156 67.1612 133.35 66.8892 133.526C66.8892 133.526 65.746 134.946 65.0674 134.841C64.3888 134.735 63.4126 135.58 63.4126 135.58C63.4126 135.58 59.7586 134.038 60.124 133.6L61.3977 132.174C61.3977 132.174 58.8765 130.316 58.9287 129.735C58.9809 129.154 59.1897 129.106 59.1897 129.106C59.1897 129.106 59.0853 127.998 59.9674 127.892C59.9674 127.892 60.646 126.525 61.3194 126.472C61.9928 126.419 66.576 128.103 66.576 128.103L64.8586 126.63C64.8586 126.63 63.1412 126.366 63.1934 125.791C63.2456 125.215 64.0808 124.735 64.0808 124.735Z" fill="#FFBE9D"/>
    <path d="M63.7728 131.673C63.731 131.736 62.7288 131.145 61.4551 130.532C60.6593 130.197 59.8822 129.818 59.127 129.397C59.9826 129.56 60.8072 129.859 61.5699 130.284C62.3744 130.622 63.1185 131.091 63.7728 131.673Z" fill="#EB996E"/>
    <path d="M66.1584 130.057C65.1365 129.821 64.1373 129.494 63.1725 129.08C62.1742 128.754 61.2064 128.339 60.2806 127.839C61.3017 128.085 62.3006 128.417 63.2665 128.832C64.2628 129.157 65.2301 129.567 66.1584 130.057Z" fill="#EB996E"/>
    <path d="M79.6834 114.681C79.5931 114.689 79.5022 114.689 79.4119 114.681H78.6237L75.664 114.644L65.3753 114.444L65.4693 114.407L60.2963 119.856C56.1203 124.212 52.3358 128.145 49.5744 131.023L46.3015 134.381L45.4141 135.279C45.3124 135.388 45.2024 135.488 45.0852 135.58C45.1736 135.458 45.2713 135.343 45.3775 135.236L46.2388 134.297L49.4491 130.875L60.1136 119.655L65.297 114.243L65.3336 114.201H65.391L75.6796 114.502L78.6341 114.613L79.4224 114.65C79.5104 114.648 79.5982 114.659 79.6834 114.681Z" fill="#263238"/>
    <path d="M54.3925 71.7393C53.7411 70.9923 52.8352 70.5209 51.8556 70.4193C51.3092 70.2714 50.7292 70.3161 50.2113 70.5461C49.9069 70.7546 49.6664 71.0451 49.5169 71.3848C49.3675 71.7245 49.3151 72.0997 49.3656 72.468C49.479 73.1981 49.6915 73.9088 49.9973 74.58C50.3039 75.2584 50.4074 76.0128 50.2948 76.7501L52.1688 81.2645C52.4907 81.142 52.7823 80.95 53.0234 80.7018C53.2644 80.4537 53.449 80.1553 53.5643 79.8275C53.6796 79.4998 53.7228 79.1505 53.691 78.8041C53.6591 78.4577 53.5529 78.1225 53.3798 77.8219C53.6766 77.6592 53.9341 77.4321 54.1337 77.1568C54.3334 76.8815 54.4704 76.5649 54.5348 76.2297C54.5991 75.8946 54.5893 75.5491 54.5061 75.2183C54.4228 74.8874 54.2682 74.5792 54.0532 74.316C54.9093 73.8513 54.9771 72.5261 54.3925 71.7393Z" fill="#263238"/>
    <path d="M37.1038 83.5243L36.8846 74.4005L31.1739 74.1365C30.8257 74.2253 30.5094 74.4118 30.2614 74.6746C30.0135 74.9373 29.844 75.2656 29.7725 75.6216C29.701 75.9776 29.7305 76.3468 29.8574 76.6865C29.9844 77.0263 30.2037 77.3229 30.4901 77.5421C30.0497 77.7428 29.6812 78.076 29.4348 78.4963C29.1884 78.9166 29.076 79.4035 29.1131 79.8907C29.1502 80.3779 29.3349 80.8417 29.642 81.2188C29.9492 81.596 30.3638 81.8682 30.8294 81.9984C30.5675 82.3268 30.3966 82.7197 30.3341 83.1368C30.2717 83.554 30.3199 83.9805 30.4739 84.3726C30.6279 84.7647 30.8821 85.1084 31.2106 85.3685C31.539 85.6285 31.9299 85.7957 32.3432 85.8528C32.3432 86.9088 32.9383 88.0915 33.9614 88.3872C34.9845 88.6829 36.1851 87.8962 36.6653 86.8718C37.1456 85.8475 37.1299 84.6595 37.1038 83.5243Z" fill="#263238"/>
    <path d="M31.0173 73.1279C31.0173 73.1279 31.5811 80.6783 32.3119 82.9804C32.9079 84.6602 33.6925 86.2653 34.6505 87.7641L52.0644 82.294C52.6542 78.2178 53.265 74.1205 53.0144 70.9103L47.4603 68.9092L31.0173 73.1279Z" fill="#263238"/>
    <path d="M34.7025 82.9804C33.9641 80.9612 33.3965 78.8822 33.006 76.7658C32.62 74.6411 32.7635 72.4526 33.4236 70.3981C33.528 70.0866 34.4676 68.0221 34.7808 68.0538C35.0105 68.0538 34.4467 69.9916 34.5668 70.1922C35.639 72.1518 36.0995 74.3939 35.8875 76.6233C35.7236 78.7729 35.3262 80.8977 34.7025 82.9593" fill="#263238"/>
    <path d="M46.7921 97.115V92.004C46.7921 92.004 51.9391 91.4021 52.2001 86.233C52.3306 83.7355 52.2001 78.5717 51.986 73.9042C51.8868 71.4826 50.8895 69.1877 49.1928 67.4764C47.4961 65.7651 45.2245 64.7629 42.8302 64.6694H42.3395C37.0099 64.7698 34.118 69.4214 34.3685 74.7965V92.305L44.8921 99.9715L46.7921 97.115Z" fill="#FFBE9D"/>
    <path d="M46.8025 92.004C44.4431 91.9074 42.1606 91.1286 40.2253 89.76C40.2253 89.76 41.7026 93.588 46.8234 93.324L46.8025 92.004Z" fill="#EB996E"/>
    <path d="M50.326 78.3235C50.3205 78.5168 50.2404 78.7002 50.1028 78.8345C49.9652 78.9687 49.7811 79.0431 49.59 79.0416C49.4971 79.0459 49.4043 79.0312 49.3171 78.9985C49.2299 78.9658 49.1501 78.9157 49.0824 78.8511C49.0147 78.7866 48.9606 78.709 48.9231 78.6229C48.8857 78.5368 48.8657 78.444 48.8644 78.3499C48.8657 78.1557 48.9426 77.9698 49.0784 77.8325C49.2142 77.6952 49.3979 77.6174 49.59 77.616C49.685 77.6102 49.7802 77.6243 49.8697 77.6573C49.9592 77.6903 50.041 77.7416 50.11 77.808C50.1791 77.8743 50.2338 77.9543 50.271 78.043C50.3082 78.1317 50.3269 78.2272 50.326 78.3235Z" fill="#263238"/>
    <path d="M50.8219 76.0318C50.7279 76.1216 50.1902 75.6886 49.402 75.6569C48.6138 75.6253 48.0239 76.0054 47.9456 75.9051C47.8673 75.8048 48.0031 75.6886 48.2641 75.5144C48.6118 75.2885 49.0205 75.1777 49.4333 75.1976C49.8419 75.212 50.2351 75.3581 50.5556 75.6147C50.7905 75.7837 50.8689 75.9632 50.8219 76.0318Z" fill="#263238"/>
    <path d="M43.2842 78.4501C43.2788 78.6425 43.1994 78.8251 43.0629 78.9592C42.9265 79.0933 42.7437 79.1683 42.5534 79.1682C42.46 79.1718 42.3668 79.1564 42.2793 79.1232C42.1918 79.0899 42.1117 79.0394 42.0437 78.9745C41.9757 78.9097 41.9211 78.8318 41.8832 78.7454C41.8452 78.659 41.8246 78.5658 41.8226 78.4713C41.8294 78.2784 41.9099 78.0958 42.0472 77.9618C42.1845 77.8279 42.3679 77.7531 42.5586 77.7532C42.6518 77.7497 42.7447 77.765 42.8319 77.7983C42.9191 77.8316 42.9989 77.8822 43.0665 77.9472C43.1341 78.0121 43.1882 78.09 43.2256 78.1764C43.263 78.2628 43.2829 78.3559 43.2842 78.4501Z" fill="#263238"/>
    <path d="M43.112 76.032C43.0181 76.1271 42.4804 75.6888 41.6922 75.6624C40.904 75.636 40.3193 76.0056 40.2358 75.9053C40.1523 75.805 40.2932 75.6888 40.5542 75.5146C40.9025 75.2899 41.3108 75.1793 41.7235 75.1978C42.1331 75.2146 42.5273 75.3605 42.851 75.6149C43.0807 75.805 43.159 75.9792 43.112 76.032Z" fill="#263238"/>
    <path d="M45.6959 82.2413C46.1143 82.1244 46.5459 82.0623 46.98 82.0565C47.1784 82.0565 47.3715 82.0143 47.4133 81.877C47.4357 81.6676 47.3957 81.4561 47.2984 81.2698C47.1314 80.77 46.9574 80.242 46.7764 79.6858C46.0404 77.4524 45.5132 75.6202 45.6019 75.5885C45.6906 75.5569 46.364 77.3468 47.1001 79.5802C47.2775 80.1082 47.4498 80.6362 47.6221 81.1642C47.7386 81.4147 47.7663 81.6981 47.7004 81.9668C47.6673 82.0371 47.6192 82.0991 47.5596 82.1484C47.5001 82.1976 47.4305 82.233 47.3558 82.2519C47.2428 82.277 47.127 82.2876 47.0113 82.2836C46.5728 82.3236 46.131 82.3094 45.6959 82.2413Z" fill="#263238"/>
    <path d="M43.3626 82.7006C43.4879 82.7006 43.4566 83.5612 44.1613 84.2001C44.866 84.839 45.7795 84.7809 45.7847 84.9023C45.7899 85.0238 45.5759 85.0607 45.1896 85.0554C44.6911 85.0484 44.2115 84.8611 43.8376 84.5274C43.4773 84.2059 43.2546 83.7553 43.2164 83.2708C43.2008 82.8959 43.3261 82.69 43.3626 82.7006Z" fill="#263238"/>
    <path d="M43.4722 73.2917C43.3887 73.5029 42.6057 73.3709 41.6817 73.4448C40.7578 73.5187 40.0009 73.7458 39.886 73.5504C39.8338 73.4554 39.9696 73.2547 40.2775 73.0594C40.6873 72.814 41.149 72.6711 41.6243 72.6422C42.0981 72.601 42.5746 72.6771 43.0128 72.864C43.326 73.0118 43.5087 73.1914 43.4722 73.2917Z" fill="#263238"/>
    <path d="M50.5975 73.3498C50.4514 73.524 49.9189 73.3181 49.2664 73.2811C48.6139 73.2442 48.0606 73.3551 47.9406 73.1597C47.8884 73.0699 47.9823 72.8904 48.2329 72.732C48.561 72.5332 48.9429 72.4444 49.3239 72.4786C49.7042 72.5012 50.0686 72.6413 50.3679 72.8799C50.5923 73.0752 50.6602 73.2653 50.5975 73.3498Z" fill="#263238"/>
    <path d="M34.6451 78.6244C34.5616 78.5821 31.1738 77.4311 31.1477 80.974C31.1216 84.5169 34.6399 83.8093 34.6503 83.709C34.6608 83.6087 34.6451 78.6244 34.6451 78.6244Z" fill="#FFBE9D"/>
    <path d="M33.5907 82.3679C33.5907 82.3679 33.5281 82.4102 33.4237 82.4577C33.3519 82.4886 33.2747 82.5046 33.1966 82.5046C33.1186 82.5046 33.0413 82.4886 32.9696 82.4577C32.7435 82.3124 32.5603 82.1083 32.4391 81.8668C32.3178 81.6253 32.2631 81.3552 32.2805 81.0849C32.2745 80.7813 32.3351 80.4802 32.458 80.2031C32.4918 80.0933 32.5511 79.9933 32.6311 79.9115C32.711 79.8298 32.8092 79.7686 32.9174 79.7332C32.9881 79.7153 33.0627 79.723 33.1284 79.7548C33.1942 79.7866 33.2469 79.8406 33.2775 79.9075C33.3245 80.0025 33.2775 80.0764 33.3193 80.0817C33.3611 80.087 33.3976 80.0236 33.3663 79.8758C33.3492 79.7876 33.3009 79.7088 33.2306 79.654C33.1353 79.5804 33.0157 79.5464 32.8965 79.559C32.7542 79.5854 32.6209 79.6476 32.5086 79.7399C32.3964 79.8322 32.309 79.9515 32.2544 80.087C32.1033 80.3933 32.0281 80.7321 32.0352 81.0743C32.017 81.3897 32.0909 81.7036 32.2478 81.9768C32.4047 82.25 32.6375 82.4705 32.9174 82.6108C33.0114 82.6374 33.1099 82.6431 33.2063 82.6276C33.3027 82.6121 33.3946 82.5758 33.4759 82.5211C33.5803 82.4419 33.6012 82.3679 33.5907 82.3679Z" fill="#EB996E"/>
    <path d="M49.7205 68.0433C50.2895 67.7265 48.5878 65.8732 47.194 65.2343C45.106 64.2733 41.8748 63.682 39.933 64.2417C37.5997 64.9175 35.663 66.0949 34.4938 68.2492C33.3668 70.4399 32.837 72.8948 32.9591 75.3613C32.9393 76.1154 33.1196 76.8611 33.4811 77.5209C33.9718 78.3023 34.9114 78.7933 34.8696 79.8757C34.8522 80.2622 34.9831 80.6406 35.235 80.9317C35.8771 81.6234 36.6601 80.974 37.0202 80.3245C37.7876 78.9359 37.8711 77.278 37.9337 75.6887C38.0401 74.5627 37.9643 73.4267 37.7093 72.3253C37.537 71.734 37.2604 71.1796 37.1194 70.5777C37.0329 70.2822 37.01 69.9715 37.0523 69.6663C37.0946 69.3612 37.2012 69.0688 37.3648 68.8089C37.4523 68.7042 37.5484 68.6071 37.6519 68.5185C38.1382 68.097 38.7255 67.8123 39.3549 67.6927C39.9843 67.5732 40.6337 67.6231 41.238 67.8373C43.2112 68.5396 46.5781 69.585 47.455 68.8933C48.079 68.4797 48.6121 67.9405 49.021 67.3093L49.7205 68.0433Z" fill="#263238"/>
    <path d="M39.8234 60.5827C39.5781 60.6091 33.5907 61.7654 31.9516 66.1953C30.3126 70.6252 30.7093 72.0033 30.7093 72.0033C30.4722 72.1463 30.2576 72.3243 30.0724 72.5313C29.8167 72.8164 30.1299 74.2367 30.9076 74.1153C36.801 71.7129 43.681 71.6865 51.3283 72.1828L57.1903 72.3095C58.8242 72.5577 59.4193 72.1353 58.7563 71.6971C58.2343 71.3591 53.6407 69.3105 53.6407 69.3105L52.722 68.5924L50.4148 65.1182C50.4148 65.1182 50.728 64.6535 50.1486 64.2417C49.5691 63.8299 44.6937 60.0652 39.8234 60.5827Z" fill="#FF6600"/>
    <path d="M52.722 68.5924C52.6456 68.5971 52.5688 68.5971 52.4924 68.5924L51.8399 68.5554C51.2709 68.5132 50.4513 68.492 49.4334 68.4815C46.7896 68.479 44.1506 68.7086 41.546 69.1679C38.941 69.6451 36.365 70.2726 33.8309 71.0476C32.8547 71.3327 32.0717 71.5756 31.5288 71.7551L30.9024 71.9452L30.678 72.0085L30.892 71.9293L31.5132 71.7181C32.0352 71.5386 32.8391 71.2746 33.81 70.9789C36.3426 70.185 38.9209 69.5484 41.5304 69.0729C44.1419 68.5993 46.7907 68.3677 49.4439 68.3812C51.4797 68.434 52.722 68.5924 52.722 68.5924Z" fill="#263238"/>
    <g opacity="0.3">
        <path opacity="0.3" d="M34.311 63.038C34.311 63.038 40.7473 62.209 43.5713 63.7033L43.2424 63.5238L45.936 64.8174C46.1432 64.9594 46.379 65.053 46.6264 65.0913C46.8738 65.1297 47.1265 65.1118 47.3663 65.0391C46.1721 64.0001 44.7965 63.1961 43.3103 62.6684C40.6429 61.6599 36.399 61.1214 34.311 63.038Z" fill="black"/>
    </g>
    <path d="M34.2172 63.0695C34.4018 62.9336 34.5974 62.8135 34.8018 62.7104C35.3539 62.4122 35.9392 62.1818 36.5453 62.024C37.4446 61.7887 38.3731 61.6873 39.3014 61.7231C40.4449 61.7363 41.572 61.9993 42.6057 62.4939C43.1321 62.7602 43.6412 63.06 44.1299 63.3915C44.5997 63.7083 45.0695 63.9935 45.4924 64.3103C45.8757 64.6215 46.2824 64.9022 46.7086 65.1498C47.0925 65.3389 47.5136 65.4381 47.9405 65.4402C49.5065 65.5194 50.4879 65.2184 50.4253 65.1181C50.3955 65.1715 50.3498 65.214 50.2948 65.2396C50.137 65.3067 49.9725 65.3563 49.8041 65.3874C49.1876 65.4982 48.5609 65.5407 47.9353 65.5141C47.4978 65.5163 47.0657 65.4169 46.6721 65.2237C46.2395 64.9783 45.8275 64.6975 45.4402 64.3842C45.0226 64.0727 44.5475 63.7875 44.0777 63.4707C43.591 63.1449 43.0855 62.8487 42.5639 62.5837C41.5435 62.0937 40.4309 61.8308 39.3014 61.8128C38.3794 61.7734 37.4566 61.8676 36.5609 62.0927C35.9584 62.2451 35.3738 62.4628 34.8175 62.7421C34.6191 62.8424 34.4729 62.9269 34.3738 62.985L34.2172 63.0695Z" fill="#263238"/>
    <g opacity="0.3">
        <path opacity="0.3" d="M31.3201 68.0432C32.3933 68.014 33.4598 67.8617 34.499 67.5892C35.7205 67.3621 36.9316 67.1932 38.153 66.9081C39.0718 66.6916 40.1575 66.5015 40.763 65.8521C40.7999 66.0812 40.7779 66.3162 40.6993 66.5343C40.6207 66.7525 40.4881 66.9466 40.3141 67.0981C39.7047 67.4739 39.0379 67.7451 38.341 67.9007C35.9543 68.5587 33.5038 68.9517 31.033 69.0729C31.1049 68.7141 31.2026 68.3612 31.3253 68.0169" fill="black"/>
    </g>
    <path d="M32.1552 65.7095C31.4192 66.0052 30.965 66.2058 30.9233 66.8289C30.8867 67.3569 30.9702 67.9957 31.4766 68.1013C31.6321 68.1276 31.7909 68.1276 31.9464 68.1013L39.9225 66.7549C40.1984 66.7392 40.4603 66.6272 40.6638 66.4381C40.7764 66.2592 40.8149 66.0425 40.771 65.835C40.727 65.6276 40.6042 65.4459 40.4289 65.3293C40.0657 65.108 39.6468 64.998 39.2231 65.0125C36.8461 64.9276 34.4687 65.1673 32.1552 65.7253" fill="#FF6600"/>
    <path d="M40.5385 66.5281C40.6425 66.4362 40.7201 66.3176 40.763 66.1849C40.8138 66.0035 40.8133 65.8115 40.7616 65.6304C40.7099 65.4494 40.6092 65.2866 40.4707 65.1605C40.0092 64.8492 39.4576 64.7041 38.9047 64.7487C38.2678 64.7487 37.5684 64.7804 36.8167 64.8279C35.5631 64.8923 34.3176 65.069 33.0948 65.3559C32.6302 65.4668 32.2544 65.5882 31.9986 65.6674L31.7011 65.7625L31.5967 65.7941C31.5967 65.7941 31.628 65.7941 31.6959 65.7466L31.9882 65.6305C32.3455 65.4963 32.7097 65.3818 33.0792 65.2872C34.3017 64.9736 35.5519 64.7826 36.8115 64.717C37.5475 64.6695 38.2522 64.6536 38.8995 64.6484C39.4773 64.6034 40.0527 64.7619 40.5281 65.0972C40.6716 65.2332 40.7742 65.4075 40.8241 65.5999C40.8739 65.7923 40.8691 65.9951 40.81 66.1849C40.7734 66.2866 40.7145 66.3787 40.6377 66.4541L40.5385 66.5281Z" fill="#263238"/>
    <path d="M51.1457 66.2057L46.1658 65.9312L46.5364 67.3673L51.9652 67.436L51.1457 66.2057Z" fill="white"/>
    <path d="M43.4565 70.4245C43.4565 70.4245 45.6855 70.1553 48.4416 69.8965C51.1978 69.6378 53.4424 69.4213 53.4424 69.4477C53.4424 69.4741 51.2135 69.717 48.4521 69.9757C45.6907 70.2345 43.4565 70.4509 43.4565 70.4245Z" fill="#263238"/>
    <path d="M60.1032 141.673H21.7518V148.151H60.1032V141.673Z" fill="#455A64"/>
    <path d="M22.9263 144.804H40.6743V163.009C40.6743 163.978 40.2937 164.908 39.6163 165.593C38.9388 166.278 38.0201 166.663 37.062 166.663H26.5385C26.0641 166.663 25.5944 166.569 25.1562 166.385C24.7179 166.201 24.3197 165.932 23.9843 165.593C23.6488 165.254 23.3828 164.851 23.2012 164.408C23.0197 163.964 22.9263 163.489 22.9263 163.009V144.804Z" fill="#455A64"/>
    <path d="M40.6848 150.723C40.6334 150.35 40.609 149.974 40.6117 149.598C40.5976 148.581 40.4662 147.569 40.2202 146.583C40.1343 146.272 39.9769 145.986 39.7608 145.749C39.5065 145.499 39.2265 145.278 38.9256 145.089C38.2461 144.687 37.4864 144.443 36.7019 144.376C35.0315 144.249 33.1575 144.307 31.2052 144.323C29.253 144.339 27.3685 144.165 25.7347 144.529C24.9603 144.647 24.2453 145.018 23.6989 145.585C23.3036 146.147 23.0787 146.813 23.0516 147.502C22.9315 148.785 22.9576 149.836 22.9368 150.559C22.9368 150.897 22.9368 151.172 22.9368 151.393C22.9444 151.49 22.9444 151.587 22.9368 151.684C22.9131 151.589 22.9025 151.491 22.9054 151.393C22.9054 151.172 22.9054 150.897 22.8793 150.559C22.8793 149.836 22.8167 148.79 22.9107 147.486C22.9308 146.754 23.1612 146.044 23.5736 145.443C24.1484 144.829 24.9086 144.426 25.7347 144.297C26.6138 144.116 27.5106 144.038 28.4073 144.065C29.326 144.065 30.2813 144.065 31.2574 144.065C33.2149 144.065 35.068 143.996 36.7802 144.139C37.5984 144.217 38.3887 144.481 39.0927 144.909C39.4065 145.112 39.6971 145.349 39.9592 145.617C40.2068 145.876 40.3863 146.194 40.4812 146.541C40.7171 147.545 40.8224 148.577 40.7944 149.609C40.7944 149.947 40.7944 150.221 40.7944 150.443C40.7662 150.539 40.7296 150.633 40.6848 150.723Z" fill="#263238"/>
    <path d="M40.5541 152.639C40.5541 152.719 36.6496 152.777 31.8315 152.777C27.0134 152.777 23.1089 152.719 23.1089 152.639C23.1089 152.56 27.0134 152.502 31.8315 152.502C36.6496 152.502 40.5541 152.592 40.5541 152.639Z" fill="#263238"/>
    <path d="M28.0106 166.848C27.9323 166.848 27.8749 163.654 27.8749 159.715C27.8749 155.776 27.9323 152.576 28.0106 152.576C28.0889 152.576 28.1463 155.771 28.1463 159.715C28.1463 163.659 28.0837 166.848 28.0106 166.848Z" fill="#263238"/>
    <path d="M36.018 166.8C35.945 166.8 35.8823 163.632 35.8823 159.736C35.8823 155.839 35.945 152.666 36.018 152.666C36.0911 152.666 36.1538 155.834 36.1538 159.736C36.1538 163.638 36.0911 166.8 36.018 166.8Z" fill="#263238"/>
    <path d="M60.1031 141.673L62.3164 144.804C62.3164 144.804 64.2948 163.463 63.4126 164.34C62.5304 165.216 59.5654 165.195 59.5654 165.195L58.7563 142.856L60.1031 141.673Z" fill="#455A64"/>
    <path d="M53.1553 147.893C52.8075 145.812 52.7793 143.689 53.0717 141.599C53.1525 142.653 53.1768 143.711 53.1448 144.767C53.2038 145.808 53.2073 146.852 53.1553 147.893Z" fill="#263238"/>
    <path d="M60.1448 141.779C60.2732 142.117 60.3523 142.473 60.3797 142.835C60.4841 143.489 60.5885 144.419 60.646 145.416C60.6905 145.899 60.6712 146.386 60.5885 146.863C60.5134 147.274 60.3016 147.647 59.9882 147.919C59.7804 148.103 59.5175 148.211 59.2418 148.225C59.0434 148.225 58.9495 148.178 58.9495 148.167C59.2877 148.143 59.6078 148.003 59.8577 147.771C60.118 147.517 60.2885 147.183 60.3432 146.821C60.407 146.361 60.4175 145.895 60.3745 145.432C60.2701 143.41 60.0665 141.789 60.1448 141.779Z" fill="#263238"/>
    <path d="M236.21 144.725L238.653 142.391C241.298 142.793 243.995 142.18 246.216 140.673C248.437 139.165 250.02 136.873 250.655 134.245C251.29 131.617 250.931 128.844 249.648 126.471C248.364 124.097 246.25 122.295 243.721 121.417C241.191 120.54 238.428 120.651 235.975 121.729C233.522 122.807 231.556 124.773 230.464 127.242C229.371 129.711 229.23 132.504 230.07 135.073C230.909 137.641 232.667 139.8 234.999 141.124L236.21 144.725Z" fill="white"/>
    <path d="M236.21 144.725L236.132 144.482C236.08 144.324 236.006 144.091 235.913 143.79C235.714 143.178 235.422 142.28 235.046 141.108L235.004 141.15C235.01 141.155 235.017 141.158 235.025 141.158C235.033 141.158 235.04 141.155 235.046 141.15C235.05 141.145 235.052 141.138 235.052 141.132C235.052 141.125 235.05 141.119 235.046 141.113C233.492 140.222 232.184 138.952 231.241 137.417C230.948 136.944 230.694 136.448 230.478 135.934C230.264 135.38 230.09 134.812 229.956 134.233C229.298 131.517 229.71 128.649 231.106 126.235C232.503 123.821 234.773 122.052 237.437 121.302C240.101 120.553 242.948 120.881 245.376 122.219C247.804 123.556 249.622 125.798 250.445 128.468C250.92 129.967 251.057 131.554 250.847 133.114C250.487 135.89 249.074 138.416 246.906 140.158L246.54 140.437C246.426 140.534 246.304 140.621 246.175 140.696L245.429 141.166C244.935 141.424 244.428 141.655 243.91 141.858C242.24 142.471 240.446 142.652 238.69 142.386H238.663C237.88 143.146 237.275 143.727 236.868 144.128L236.398 144.582L236.241 144.741L236.398 144.598L236.863 144.16L238.705 142.433H238.679C240.448 142.718 242.26 142.545 243.946 141.932C244.47 141.735 244.981 141.504 245.476 141.24L246.232 140.775C246.365 140.7 246.491 140.614 246.608 140.517L246.974 140.232C248.689 138.862 249.953 136.998 250.598 134.886C251.243 132.774 251.239 130.514 250.586 128.404C250.073 126.791 249.201 125.317 248.039 124.096C246.814 122.82 245.3 121.866 243.628 121.319C243.422 121.241 243.211 121.179 242.996 121.134L242.364 120.981L241.728 120.886C241.516 120.844 241.301 120.822 241.086 120.817L240.449 120.785C240.235 120.772 240.02 120.772 239.807 120.785C239.598 120.785 239.384 120.785 239.175 120.822L238.554 120.917C236.931 121.181 235.39 121.823 234.054 122.792C232.3 124.052 230.96 125.817 230.21 127.858C229.46 129.898 229.333 132.119 229.847 134.233C229.99 134.818 230.175 135.392 230.4 135.949C230.62 136.467 230.878 136.966 231.173 137.444C232.133 138.984 233.462 140.255 235.036 141.14V141.076C235.027 141.075 235.017 141.076 235.01 141.081C235.002 141.086 234.996 141.094 234.994 141.103L235.907 143.796L236.137 144.477C236.179 144.672 236.21 144.725 236.21 144.725Z" fill="#263238"/>
    <path d="M234.691 131.498L236.304 130.036L239.113 132.845L244.207 128.04L245.544 129.661L238.737 135.817L234.691 131.498Z" fill="#263238"/>
</svg>
