<svg width="264" height="214" viewBox="0 0 264 214" fill="none" xmlns="http://www.w3.org/2000/svg">
    <g clip-path="url(#clip0)">
        <path d="M207.857 166.582C207.799 166.485 207.708 166.417 207.599 166.389C207.49 166.361 207.376 166.376 207.28 166.434L205.882 167.261L205.056 165.862C204.998 165.765 204.906 165.697 204.798 165.669C204.689 165.641 204.575 165.657 204.478 165.714C204.382 165.772 204.314 165.864 204.285 165.973C204.257 166.081 204.273 166.196 204.331 166.292L205.157 167.691L203.759 168.518C203.663 168.576 203.594 168.668 203.566 168.776C203.538 168.885 203.554 168.999 203.612 169.096C203.67 169.193 203.761 169.261 203.87 169.289C203.979 169.317 204.093 169.301 204.189 169.243L205.587 168.417L206.413 169.816C206.506 169.974 206.687 170.048 206.857 170.014C206.903 170.005 206.947 169.988 206.989 169.963C207.189 169.846 207.255 169.586 207.138 169.386L206.312 167.986L207.71 167.159C207.908 167.04 207.975 166.782 207.857 166.582Z" fill="#DEDEDE"/>
        <path d="M211.399 175.84C210.387 175.84 209.564 175.016 209.564 174.003C209.564 172.99 210.387 172.167 211.399 172.167C212.411 172.167 213.234 172.99 213.234 174.003C213.234 175.016 212.411 175.84 211.399 175.84ZM211.399 173.15C210.929 173.15 210.545 173.533 210.545 174.005C210.545 174.477 210.927 174.86 211.399 174.86C211.869 174.86 212.253 174.477 212.253 174.005C212.253 173.533 211.871 173.15 211.399 173.15Z" fill="#DEDEDE"/>
        <path d="M26.1102 202.786C25.098 202.786 24.2753 201.963 24.2753 200.95C24.2753 199.937 25.098 199.113 26.1102 199.113C27.1224 199.113 27.9452 199.937 27.9452 200.95C27.9452 201.963 27.1207 202.786 26.1102 202.786ZM26.1102 200.095C25.6401 200.095 25.2559 200.478 25.2559 200.95C25.2559 201.42 25.6383 201.805 26.1102 201.805C26.5803 201.805 26.9645 201.422 26.9645 200.95C26.9645 200.479 26.5803 200.095 26.1102 200.095Z" fill="#DEDEDE"/>
        <path d="M229.259 5.34966C228.247 5.34966 227.424 4.52623 227.424 3.51318C227.424 2.50014 228.247 1.67671 229.259 1.67671C230.271 1.67671 231.094 2.50014 231.094 3.51318C231.094 4.52623 230.271 5.34966 229.259 5.34966ZM229.259 2.65991C228.789 2.65991 228.405 3.04265 228.405 3.51494C228.405 3.98547 228.787 4.36997 229.259 4.36997C229.729 4.36997 230.113 3.98723 230.113 3.51494C230.113 3.04265 229.731 2.65991 229.259 2.65991Z" fill="#DEDEDE"/>
        <path d="M260.662 51.8496C260.56 51.8988 260.484 51.9848 260.448 52.0919C260.411 52.199 260.418 52.3131 260.467 52.4132L261.177 53.874L259.718 54.585C259.616 54.6342 259.541 54.7202 259.504 54.8273C259.467 54.9344 259.474 55.0485 259.523 55.1486C259.572 55.2504 259.658 55.3259 259.765 55.3628C259.872 55.3997 259.986 55.3927 260.086 55.3435L261.546 54.6324L262.256 56.0932C262.305 56.195 262.391 56.2705 262.498 56.3074C262.605 56.3443 262.719 56.3372 262.819 56.2881C262.921 56.2389 262.997 56.1529 263.033 56.0458C263.07 55.9387 263.063 55.8246 263.014 55.7245L262.304 54.2637L263.763 53.5527C263.928 53.4719 264.017 53.2981 263.996 53.126C263.991 53.0804 263.979 53.0347 263.956 52.9908C263.854 52.7819 263.602 52.6941 263.393 52.796L261.933 53.507L261.223 52.0463C261.123 51.8356 260.87 51.7478 260.662 51.8496Z" fill="#DEDEDE"/>
        <path d="M234.157 86.7918C233.145 86.7918 232.322 85.9684 232.322 84.9553C232.322 83.9423 233.145 83.1189 234.157 83.1189C235.169 83.1189 235.992 83.9423 235.992 84.9553C235.992 85.9684 235.169 86.7918 234.157 86.7918ZM234.157 84.1003C233.687 84.1003 233.302 84.483 233.302 84.9553C233.302 85.4276 233.685 85.8103 234.157 85.8103C234.629 85.8103 235.011 85.4276 235.011 84.9553C235.011 84.483 234.629 84.1003 234.157 84.1003Z" fill="#DEDEDE"/>
        <path d="M0.224556 112.388C0.142106 112.466 0.0947414 112.569 0.0912329 112.681C0.0877244 112.794 0.128072 112.901 0.205259 112.983L1.3157 114.169L0.131581 115.28C0.049131 115.357 0.00176633 115.461 -0.00174216 115.573C-0.00525066 115.685 0.035097 115.793 0.112284 115.875C0.189471 115.958 0.292971 116.005 0.405243 116.009C0.517515 116.012 0.624524 115.972 0.706973 115.894L1.89109 114.783L3.00153 115.968C3.07871 116.051 3.18221 116.098 3.29449 116.102C3.40676 116.105 3.51377 116.065 3.59622 115.987C3.67867 115.91 3.72603 115.807 3.72954 115.694C3.73305 115.582 3.6927 115.475 3.61551 115.392L2.50508 114.207L3.68919 113.096C3.82251 112.971 3.85584 112.778 3.78567 112.618C3.76638 112.576 3.74182 112.536 3.70673 112.501C3.5471 112.33 3.28045 112.323 3.11204 112.481L1.92793 113.593L0.817491 112.408C0.661363 112.237 0.394717 112.228 0.224556 112.388Z" fill="#DEDEDE"/>
        <path d="M18.3021 132.575C17.2899 132.575 16.4672 131.752 16.4672 130.739C16.4672 129.726 17.2899 128.902 18.3021 128.902C19.3143 128.902 20.137 129.726 20.137 130.739C20.1353 131.752 19.3125 132.575 18.3021 132.575ZM18.3021 129.884C17.832 129.884 17.4478 130.267 17.4478 130.739C17.4478 131.211 17.8302 131.594 18.3021 131.594C18.7722 131.594 19.1564 131.211 19.1564 130.739C19.1564 130.267 18.7722 129.884 18.3021 129.884Z" fill="#DEDEDE"/>
        <path d="M49.8855 190.286C49.6891 190.286 49.5242 190.131 49.5136 189.933C49.5014 189.727 49.6592 189.55 49.8662 189.539C51.0977 189.471 52.3432 189.346 53.5695 189.174C53.7729 189.146 53.9624 189.288 53.9905 189.492C54.0185 189.696 53.8764 189.885 53.673 189.913C52.4257 190.089 51.1591 190.215 49.9066 190.286C49.8996 190.286 49.8926 190.286 49.8855 190.286ZM44.6351 190.27C44.6281 190.27 44.6193 190.27 44.6105 190.27C43.3562 190.191 42.0897 190.057 40.8477 189.873C40.6442 189.843 40.5038 189.652 40.5336 189.448C40.5635 189.244 40.7547 189.104 40.9582 189.134C42.1791 189.316 43.4246 189.446 44.6579 189.524C44.8631 189.536 45.0193 189.713 45.007 189.92C44.9947 190.119 44.8298 190.27 44.6351 190.27ZM58.769 188.881C58.6041 188.881 58.4515 188.77 58.4077 188.602C58.355 188.402 58.4743 188.198 58.6743 188.145C59.8707 187.831 61.0671 187.462 62.2302 187.05C62.4249 186.981 62.6371 187.083 62.7073 187.276C62.7757 187.471 62.674 187.684 62.481 187.754C61.2987 188.174 60.083 188.549 58.8655 188.869C58.8322 188.878 58.8006 188.881 58.769 188.881ZM35.7621 188.795C35.7288 188.795 35.6972 188.792 35.6639 188.781C34.4517 188.449 33.2395 188.063 32.0589 187.629C31.8659 187.559 31.7659 187.343 31.8361 187.15C31.9063 186.957 32.122 186.857 32.315 186.927C33.4763 187.352 34.6674 187.733 35.8603 188.059C36.0586 188.114 36.1761 188.319 36.1217 188.518C36.0761 188.686 35.927 188.795 35.7621 188.795ZM67.1912 185.73C67.0543 185.73 66.921 185.654 66.8561 185.522C66.7649 185.338 66.8403 185.113 67.0245 185.022C68.1314 184.472 69.2279 183.87 70.2857 183.229C70.4628 183.122 70.6909 183.179 70.7979 183.356C70.9049 183.533 70.8488 183.761 70.6716 183.869C69.598 184.52 68.4823 185.133 67.3561 185.691C67.3034 185.716 67.2473 185.73 67.1912 185.73ZM27.3698 185.556C27.3136 185.556 27.2558 185.543 27.2014 185.515C26.0822 184.947 24.9717 184.323 23.9016 183.663C23.7262 183.554 23.6718 183.324 23.7806 183.149C23.8894 182.973 24.1192 182.919 24.2946 183.028C25.3471 183.677 26.4383 184.292 27.5399 184.85C27.7241 184.943 27.7978 185.168 27.7048 185.352C27.6382 185.482 27.5066 185.556 27.3698 185.556ZM74.7976 180.936C74.6871 180.936 74.5766 180.887 74.5029 180.793C74.3766 180.629 74.4046 180.396 74.5678 180.268C75.5414 179.506 76.4939 178.693 77.3991 177.852C77.55 177.711 77.7868 177.72 77.9272 177.871C78.0675 178.022 78.0587 178.259 77.9079 178.399C76.9869 179.255 76.0185 180.081 75.0291 180.856C74.959 180.912 74.8783 180.936 74.7976 180.936ZM19.8002 180.699C19.7195 180.699 19.6371 180.673 19.5687 180.619C18.5845 179.837 17.6214 179.003 16.7057 178.141C16.5549 177.999 16.5478 177.764 16.6899 177.613C16.832 177.462 17.0671 177.455 17.218 177.597C18.1179 178.443 19.0652 179.263 20.0335 180.032C20.1949 180.16 20.2212 180.396 20.0932 180.557C20.0177 180.65 19.909 180.699 19.8002 180.699ZM81.283 174.705C81.1971 174.705 81.1111 174.676 81.0409 174.616C80.8831 174.482 80.8655 174.247 80.9988 174.089C81.7988 173.146 82.5689 172.16 83.2881 171.154C83.4074 170.985 83.6407 170.946 83.8092 171.068C83.9776 171.187 84.0161 171.421 83.8951 171.589C83.1636 172.613 82.3812 173.617 81.5672 174.574C81.4953 174.662 81.39 174.705 81.283 174.705ZM13.3569 174.425C13.2499 174.425 13.1446 174.379 13.0709 174.291C12.2622 173.327 11.4868 172.318 10.7641 171.289C10.6448 171.12 10.6851 170.887 10.8553 170.767C11.0237 170.648 11.257 170.688 11.3763 170.859C12.0868 171.87 12.8499 172.862 13.6446 173.81C13.7779 173.968 13.7568 174.203 13.5989 174.337C13.5253 174.395 13.4411 174.425 13.3569 174.425ZM86.3914 167.298C86.33 167.298 86.2686 167.282 86.2125 167.252C86.0318 167.152 85.9669 166.926 86.0651 166.745C86.6616 165.662 87.2176 164.54 87.7211 163.409C87.8053 163.221 88.0264 163.135 88.2141 163.22C88.4018 163.304 88.4877 163.525 88.4035 163.713C87.893 164.861 87.3264 166.002 86.7194 167.105C86.651 167.228 86.523 167.298 86.3914 167.298ZM8.30814 166.977C8.17482 166.977 8.04676 166.905 7.97834 166.78C7.3819 165.674 6.82756 164.528 6.3276 163.372C6.24515 163.183 6.33286 162.963 6.52232 162.881C6.71178 162.798 6.93106 162.886 7.01351 163.076C7.5047 164.21 8.05027 165.337 8.63619 166.426C8.73443 166.608 8.66601 166.835 8.48532 166.931C8.42919 166.963 8.36779 166.977 8.30814 166.977ZM89.9122 159.015C89.8753 159.015 89.8385 159.009 89.8017 158.997C89.6052 158.936 89.4947 158.727 89.5561 158.53C89.9227 157.349 90.242 156.137 90.5069 154.929C90.5507 154.727 90.7507 154.601 90.9507 154.645C91.1524 154.689 91.2787 154.889 91.2349 155.089C90.9665 156.316 90.6402 157.549 90.2683 158.75C90.2192 158.911 90.0718 159.015 89.9122 159.015ZM4.87158 158.66C4.71018 158.66 4.56283 158.555 4.51371 158.393C4.15409 157.192 3.84183 155.958 3.5822 154.724C3.5401 154.522 3.66992 154.323 3.87165 154.281C4.07339 154.239 4.27162 154.369 4.31372 154.571C4.56809 155.784 4.87684 156.999 5.22944 158.179C5.28909 158.377 5.17681 158.585 4.97858 158.644C4.9435 158.655 4.90666 158.66 4.87158 158.66ZM91.691 150.189C91.6787 150.189 91.6664 150.189 91.6541 150.187C91.4489 150.168 91.298 149.985 91.3191 149.78C91.4384 148.549 91.5068 147.299 91.5208 146.061C91.5226 145.856 91.6927 145.687 91.898 145.692C92.105 145.694 92.2699 145.864 92.2664 146.07C92.2523 147.329 92.1822 148.6 92.0611 149.852C92.0436 150.045 91.8804 150.189 91.691 150.189ZM3.16996 149.822C2.97874 149.822 2.8156 149.676 2.79806 149.481C2.68403 148.228 2.62263 146.955 2.61561 145.698C2.61386 145.492 2.78051 145.324 2.98751 145.322H2.98927C3.19452 145.322 3.36117 145.487 3.36292 145.694C3.36994 146.93 3.42958 148.18 3.54186 149.414C3.56115 149.62 3.40853 149.801 3.20329 149.82C3.19276 149.822 3.18048 149.822 3.16996 149.822ZM91.6436 141.189C91.4559 141.189 91.2928 141.047 91.2735 140.855C91.1419 139.628 90.9577 138.389 90.7244 137.172L90.7156 137.124C90.677 136.923 90.8086 136.726 91.0103 136.687C91.2138 136.649 91.4085 136.78 91.4471 136.982L91.4559 137.031C91.6945 138.271 91.8822 139.53 92.0155 140.778C92.0383 140.984 91.8892 141.168 91.684 141.189C91.6717 141.187 91.6576 141.189 91.6436 141.189ZM3.27346 140.818C3.25942 140.818 3.24539 140.818 3.23135 140.817C3.02611 140.794 2.87875 140.608 2.90331 140.404C3.0454 139.154 3.24363 137.895 3.49098 136.663C3.53133 136.461 3.72781 136.329 3.9313 136.37C4.13304 136.41 4.26461 136.607 4.22426 136.81C3.98042 138.023 3.7857 139.261 3.64711 140.488C3.6208 140.678 3.45941 140.818 3.27346 140.818ZM89.7859 132.333C89.628 132.333 89.4806 132.231 89.4298 132.073C89.0543 130.893 88.6263 129.717 88.1544 128.576C88.0755 128.385 88.1667 128.167 88.3562 128.088C88.5474 128.009 88.7649 128.1 88.8438 128.29C89.3245 129.45 89.7613 130.646 90.142 131.847C90.2051 132.043 90.0964 132.254 89.8999 132.316C89.8613 132.328 89.8245 132.333 89.7859 132.333ZM5.19436 132.024C5.15576 132.024 5.11717 132.019 5.07858 132.005C4.8821 131.94 4.77685 131.729 4.84 131.533C5.2312 130.339 5.68028 129.145 6.17147 127.988C6.25217 127.798 6.47145 127.709 6.66091 127.789C6.85036 127.87 6.93983 128.09 6.85914 128.279C6.37496 129.419 5.93465 130.591 5.55047 131.764C5.49784 131.926 5.35224 132.024 5.19436 132.024ZM86.2055 124.078C86.0756 124.078 85.9476 124.009 85.8792 123.886C85.2739 122.808 84.6161 121.743 83.9214 120.721C83.8056 120.551 83.8495 120.317 84.0197 120.201C84.1898 120.085 84.4231 120.129 84.5389 120.3C85.2441 121.341 85.9142 122.424 86.53 123.519C86.6317 123.699 86.5668 123.927 86.3879 124.029C86.3318 124.062 86.2686 124.078 86.2055 124.078ZM8.85021 123.8C8.78705 123.8 8.7239 123.785 8.66601 123.751C8.48708 123.649 8.42568 123.421 8.52742 123.242C9.15018 122.15 9.82907 121.072 10.5413 120.036C10.6588 119.866 10.8904 119.824 11.0606 119.941C11.2307 120.059 11.2728 120.291 11.1553 120.461C10.4536 121.479 9.78697 122.54 9.17474 123.614C9.10457 123.734 8.98002 123.8 8.85021 123.8ZM81.0304 116.723C80.9269 116.723 80.8217 116.679 80.748 116.595C79.9375 115.663 79.0779 114.751 78.1921 113.889C78.0447 113.745 78.0412 113.508 78.185 113.361C78.3289 113.213 78.5657 113.21 78.7131 113.354C79.6147 114.23 80.4884 115.157 81.3129 116.105C81.4479 116.261 81.4321 116.497 81.276 116.632C81.2058 116.692 81.1181 116.723 81.0304 116.723ZM14.0761 116.477C13.9884 116.477 13.9007 116.447 13.8305 116.384C13.6761 116.247 13.6603 116.012 13.7972 115.858C14.6269 114.913 15.5076 113.991 16.4128 113.12C16.5619 112.976 16.7969 112.982 16.9408 113.131C17.0829 113.28 17.0794 113.515 16.9303 113.659C16.0391 114.516 15.1743 115.422 14.3585 116.351C14.2831 116.433 14.1796 116.477 14.0761 116.477ZM74.4783 110.559C74.3994 110.559 74.3187 110.534 74.252 110.482C73.2714 109.73 72.2452 109.01 71.2049 108.343C71.0312 108.233 70.9803 108.001 71.0926 107.827C71.2031 107.653 71.4347 107.602 71.6084 107.715C72.6662 108.392 73.7082 109.124 74.7064 109.888C74.8695 110.013 74.9011 110.248 74.7765 110.411C74.7029 110.508 74.5906 110.559 74.4783 110.559ZM20.6633 110.353C20.551 110.353 20.4388 110.303 20.3651 110.206C20.2405 110.041 20.2739 109.807 20.437 109.683C21.4404 108.924 22.486 108.199 23.549 107.53C23.7227 107.42 23.9543 107.472 24.0648 107.648C24.1753 107.822 24.1227 108.053 23.9472 108.164C22.9017 108.822 21.872 109.535 20.8878 110.281C20.8194 110.329 20.7405 110.353 20.6633 110.353ZM66.8245 105.832C66.7701 105.832 66.714 105.82 66.6614 105.796C65.5492 105.255 64.4019 104.756 63.2494 104.312C63.0564 104.238 62.9617 104.022 63.0354 103.829C63.109 103.636 63.3248 103.541 63.5178 103.615C64.6896 104.066 65.8579 104.575 66.9877 105.125C67.1736 105.214 67.2508 105.439 67.1596 105.624C67.0964 105.755 66.9631 105.832 66.8245 105.832ZM28.3504 105.685C28.2101 105.685 28.0767 105.606 28.0136 105.471C27.9259 105.285 28.0048 105.062 28.1908 104.972C29.3258 104.433 30.4976 103.936 31.6747 103.496C31.8677 103.424 32.0834 103.522 32.1554 103.715C32.2273 103.908 32.1291 104.124 31.9361 104.196C30.7783 104.63 29.6257 105.118 28.51 105.648C28.4592 105.673 28.403 105.685 28.3504 105.685ZM58.3796 102.741C58.3498 102.741 58.3182 102.737 58.2866 102.728C57.0885 102.423 55.864 102.167 54.6448 101.965C54.4413 101.931 54.3045 101.738 54.3378 101.534C54.3711 101.331 54.5641 101.194 54.7676 101.227C56.0061 101.433 57.2534 101.694 58.4708 102.005C58.6708 102.056 58.7918 102.26 58.741 102.46C58.6971 102.627 58.5462 102.741 58.3796 102.741ZM36.8217 102.67C36.6533 102.67 36.5006 102.556 36.4585 102.386C36.4094 102.186 36.5322 101.984 36.7322 101.935C37.4742 101.752 38.2321 101.587 38.9864 101.441C39.4671 101.348 39.9565 101.262 40.4407 101.187C40.6442 101.155 40.8354 101.294 40.8687 101.498C40.9003 101.701 40.7617 101.893 40.5582 101.926C40.0828 102.001 39.6004 102.086 39.1267 102.177C38.3847 102.319 37.6391 102.483 36.9094 102.662C36.8813 102.667 36.8515 102.67 36.8217 102.67ZM49.4803 101.42C49.475 101.42 49.4698 101.42 49.4628 101.42C48.8084 101.391 48.1453 101.376 47.491 101.376C46.9103 101.376 46.3227 101.389 45.742 101.412C45.5385 101.42 45.3631 101.259 45.3543 101.053C45.3455 100.848 45.5069 100.674 45.7122 100.665C46.3034 100.643 46.9016 100.63 47.491 100.63C48.1558 100.63 48.8312 100.646 49.4961 100.676C49.7013 100.685 49.861 100.86 49.8522 101.066C49.8434 101.262 49.6785 101.42 49.4803 101.42Z" fill="#DEDEDE"/>
        <path d="M184.084 156.344C183.868 156.358 183.654 156.371 183.44 156.383C183.234 156.395 183.057 156.237 183.047 156.032C183.034 155.826 183.191 155.651 183.396 155.638C183.398 155.638 183.398 155.638 183.399 155.638C184.62 155.57 185.855 155.47 187.075 155.343C187.28 155.321 187.464 155.472 187.485 155.677C187.506 155.882 187.357 156.067 187.152 156.088C186.132 156.191 185.101 156.278 184.084 156.344ZM178.261 156.504C178.252 156.504 178.242 156.506 178.233 156.504C176.998 156.492 175.747 156.45 174.514 156.378C174.309 156.365 174.151 156.19 174.163 155.983C174.176 155.777 174.353 155.619 174.558 155.631C175.779 155.702 177.017 155.744 178.24 155.756C178.445 155.758 178.612 155.926 178.61 156.134C178.607 156.332 178.454 156.492 178.261 156.504ZM192.269 155.382C192.081 155.394 191.909 155.263 191.878 155.071C191.843 154.868 191.979 154.675 192.183 154.639C193.392 154.434 194.607 154.195 195.8 153.934C196.002 153.89 196.2 154.016 196.246 154.218C196.29 154.42 196.163 154.618 195.962 154.662C194.758 154.927 193.53 155.166 192.311 155.375C192.295 155.38 192.283 155.38 192.269 155.382ZM169.399 155.905C169.376 155.907 169.351 155.905 169.329 155.904C168.102 155.749 166.864 155.565 165.65 155.352C165.446 155.317 165.311 155.124 165.346 154.92C165.382 154.717 165.576 154.581 165.778 154.617C166.981 154.827 168.208 155.01 169.422 155.163C169.627 155.189 169.771 155.375 169.746 155.581C169.722 155.76 169.574 155.895 169.399 155.905ZM200.926 153.393C200.756 153.403 200.593 153.296 200.544 153.124C200.486 152.926 200.6 152.719 200.798 152.661C201.973 152.32 203.154 151.944 204.312 151.548C204.506 151.481 204.719 151.585 204.785 151.779C204.852 151.974 204.749 152.187 204.554 152.253C203.385 152.654 202.193 153.033 201.007 153.377C200.979 153.388 200.952 153.391 200.926 153.393ZM160.656 154.292C160.619 154.294 160.58 154.292 160.543 154.281C159.343 153.988 158.133 153.66 156.945 153.309C156.747 153.251 156.635 153.042 156.693 152.845C156.751 152.647 156.959 152.534 157.156 152.592C158.331 152.94 159.531 153.265 160.72 153.556C160.92 153.605 161.043 153.807 160.994 154.007C160.956 154.171 160.815 154.281 160.656 154.292ZM209.299 150.429C209.145 150.44 208.994 150.352 208.931 150.201C208.85 150.011 208.939 149.792 209.131 149.711C210.259 149.237 211.39 148.73 212.494 148.203C212.679 148.113 212.902 148.192 212.992 148.379C213.081 148.565 213.002 148.788 212.816 148.877C211.702 149.409 210.56 149.922 209.422 150.401C209.38 150.417 209.339 150.427 209.299 150.429ZM152.153 151.683C152.102 151.686 152.049 151.679 151.998 151.66C150.841 151.23 149.676 150.766 148.537 150.282C148.348 150.201 148.26 149.982 148.341 149.792C148.421 149.602 148.641 149.513 148.83 149.595C149.958 150.076 151.111 150.535 152.258 150.961C152.451 151.033 152.549 151.247 152.479 151.442C152.426 151.583 152.295 151.674 152.153 151.683ZM217.272 146.526C217.134 146.535 216.995 146.467 216.923 146.337C216.821 146.158 216.886 145.929 217.065 145.828C218.128 145.229 219.191 144.597 220.226 143.947C220.402 143.838 220.631 143.891 220.74 144.065C220.849 144.24 220.796 144.47 220.623 144.579C219.579 145.234 218.505 145.873 217.432 146.479C217.381 146.507 217.326 146.523 217.272 146.526ZM144.006 148.119C143.941 148.122 143.874 148.11 143.813 148.078C142.711 147.518 141.608 146.925 140.533 146.316C140.354 146.214 140.291 145.986 140.392 145.806C140.494 145.627 140.722 145.564 140.901 145.666C141.964 146.272 143.057 146.858 144.15 147.413C144.334 147.506 144.408 147.731 144.315 147.915C144.253 148.036 144.134 148.11 144.006 148.119ZM224.742 141.738C224.617 141.747 224.493 141.693 224.415 141.584C224.294 141.417 224.331 141.184 224.498 141.063C225.487 140.344 226.471 139.595 227.426 138.831C227.587 138.703 227.822 138.727 227.95 138.889C228.078 139.05 228.054 139.286 227.892 139.414C226.929 140.185 225.935 140.943 224.936 141.667C224.877 141.71 224.808 141.733 224.742 141.738ZM136.322 143.652C136.243 143.657 136.163 143.638 136.093 143.591C135.061 142.91 134.033 142.195 133.035 141.466C132.868 141.345 132.831 141.112 132.954 140.945C133.075 140.778 133.309 140.741 133.475 140.864C134.463 141.586 135.482 142.293 136.503 142.967C136.675 143.082 136.722 143.313 136.608 143.485C136.543 143.585 136.435 143.645 136.322 143.652ZM231.618 136.124C231.51 136.131 231.397 136.09 231.318 136.003C231.18 135.85 231.19 135.615 231.341 135.474C232.243 134.649 233.136 133.79 233.999 132.921C234.144 132.776 234.381 132.774 234.527 132.92C234.672 133.065 234.674 133.302 234.529 133.448C233.659 134.324 232.757 135.191 231.846 136.025C231.781 136.087 231.701 136.118 231.618 136.124ZM129.197 138.343C129.104 138.348 129.009 138.32 128.934 138.257C127.986 137.465 127.046 136.638 126.137 135.802C125.986 135.662 125.976 135.427 126.116 135.274C126.257 135.123 126.492 135.112 126.644 135.251C127.544 136.08 128.476 136.898 129.414 137.683C129.572 137.814 129.593 138.051 129.462 138.21C129.39 138.292 129.295 138.336 129.197 138.343ZM237.818 129.761C237.723 129.766 237.627 129.736 237.549 129.67C237.393 129.535 237.378 129.298 237.513 129.143C238.316 128.22 239.107 127.264 239.865 126.304C239.993 126.143 240.228 126.114 240.39 126.243C240.551 126.371 240.579 126.606 240.451 126.768C239.686 127.737 238.886 128.701 238.076 129.633C238.007 129.712 237.914 129.754 237.818 129.761ZM122.72 132.263C122.613 132.27 122.504 132.231 122.425 132.147C121.574 131.252 120.734 130.325 119.927 129.392C119.792 129.236 119.81 129.001 119.966 128.866C120.122 128.73 120.357 128.748 120.492 128.904C121.292 129.829 122.124 130.748 122.966 131.634C123.108 131.784 123.102 132.021 122.953 132.163C122.887 132.223 122.804 132.258 122.72 132.263ZM243.258 122.733C243.177 122.738 243.095 122.717 243.023 122.668C242.852 122.55 242.81 122.319 242.926 122.148C243.619 121.139 244.298 120.099 244.942 119.06C245.051 118.884 245.28 118.83 245.456 118.939C245.631 119.048 245.686 119.278 245.577 119.453C244.926 120.503 244.242 121.553 243.542 122.571C243.474 122.671 243.368 122.726 243.258 122.733ZM116.977 125.488C116.856 125.495 116.733 125.444 116.654 125.34C115.912 124.355 115.182 123.339 114.487 122.32C114.372 122.15 114.415 121.918 114.586 121.801C114.756 121.685 114.989 121.729 115.105 121.899C115.794 122.908 116.515 123.915 117.25 124.891C117.375 125.056 117.341 125.289 117.177 125.414C117.117 125.46 117.047 125.484 116.977 125.488ZM247.87 115.131C247.803 115.134 247.735 115.122 247.671 115.087C247.489 114.99 247.421 114.764 247.517 114.581C248.092 113.498 248.649 112.388 249.171 111.282C249.259 111.096 249.482 111.015 249.668 111.103C249.854 111.191 249.934 111.414 249.847 111.6C249.32 112.717 248.757 113.838 248.177 114.931C248.112 115.053 247.994 115.124 247.87 115.131ZM112.045 118.107C111.909 118.115 111.774 118.049 111.7 117.924C111.075 116.862 110.467 115.77 109.895 114.678C109.798 114.495 109.868 114.269 110.051 114.174C110.233 114.077 110.46 114.147 110.554 114.33C111.123 115.412 111.724 116.493 112.344 117.545C112.449 117.722 112.389 117.952 112.212 118.056C112.159 118.086 112.102 118.103 112.045 118.107ZM251.589 107.051C251.536 107.054 251.482 107.046 251.429 107.026C251.238 106.951 251.143 106.735 251.219 106.542C251.668 105.401 252.094 104.233 252.485 103.072C252.552 102.878 252.762 102.772 252.959 102.839C253.153 102.906 253.259 103.118 253.192 103.313C252.796 104.484 252.366 105.662 251.913 106.816C251.857 106.954 251.729 107.042 251.589 107.051ZM107.991 110.206C107.84 110.216 107.691 110.132 107.626 109.985C107.127 108.856 106.648 107.697 106.202 106.545C106.128 106.352 106.223 106.136 106.416 106.062C106.609 105.987 106.825 106.084 106.898 106.277C107.341 107.418 107.814 108.564 108.309 109.683C108.393 109.871 108.307 110.092 108.119 110.176C108.077 110.194 108.033 110.204 107.991 110.206ZM254.362 98.5954C254.324 98.5972 254.283 98.5937 254.243 98.5831C254.043 98.5305 253.925 98.325 253.978 98.1266C254.292 96.9398 254.583 95.7318 254.839 94.5327C254.883 94.3308 255.081 94.2026 255.283 94.2465C255.485 94.2904 255.613 94.4888 255.569 94.6907C255.309 95.9004 255.016 97.1206 254.699 98.3198C254.655 98.476 254.516 98.5849 254.362 98.5954ZM104.865 101.886C104.697 101.896 104.537 101.793 104.485 101.624C104.118 100.444 103.774 99.2398 103.464 98.0441C103.411 97.844 103.532 97.6403 103.73 97.5876C103.93 97.535 104.134 97.6561 104.186 97.8545C104.495 99.0396 104.835 100.232 105.199 101.401C105.26 101.598 105.149 101.807 104.953 101.868C104.925 101.879 104.895 101.884 104.865 101.886ZM256.146 89.8783C256.12 89.8801 256.094 89.8783 256.067 89.8748C255.864 89.845 255.722 89.6553 255.751 89.4517C255.927 88.242 256.076 87.0095 256.194 85.791C256.213 85.5856 256.397 85.4346 256.601 85.4557C256.806 85.475 256.957 85.6576 256.936 85.863C256.816 87.0938 256.665 88.3368 256.488 89.5588C256.465 89.7361 256.318 89.8678 256.146 89.8783ZM102.711 93.2616C102.525 93.2739 102.357 93.1457 102.32 92.9578C102.09 91.7464 101.885 90.5104 101.709 89.2849C101.68 89.0812 101.822 88.8916 102.027 88.8618C102.232 88.8337 102.42 88.9741 102.45 89.1795C102.622 90.3927 102.825 91.6182 103.053 92.8191C103.092 93.021 102.958 93.2177 102.757 93.2563C102.743 93.2598 102.727 93.2616 102.711 93.2616ZM256.916 81.0225C256.904 81.0225 256.893 81.0243 256.881 81.0225C256.676 81.0173 256.513 80.8434 256.52 80.638C256.557 79.4143 256.564 78.1748 256.541 76.951C256.537 76.7439 256.702 76.5753 256.908 76.57C257.115 76.5665 257.285 76.7298 257.288 76.937C257.311 78.173 257.304 79.4248 257.267 80.6608C257.26 80.8557 257.108 81.0102 256.916 81.0225ZM101.545 84.4479C101.341 84.4619 101.164 84.3074 101.148 84.1038C101.125 83.8123 101.106 83.5209 101.087 83.2312C101.025 82.2866 100.981 81.3298 100.955 80.3852C100.95 80.1798 101.109 80.0077 101.318 80.0007C101.523 79.9954 101.695 80.157 101.702 80.3641C101.729 81.2999 101.773 82.248 101.834 83.182C101.853 83.47 101.873 83.7579 101.895 84.0458C101.911 84.2513 101.757 84.4303 101.552 84.4462C101.546 84.4479 101.545 84.4479 101.545 84.4479ZM256.672 72.1369C256.471 72.1492 256.294 71.9982 256.276 71.7963C256.174 70.5795 256.041 69.3453 255.88 68.1286L255.864 68.0109C255.836 67.8073 255.98 67.6194 256.185 67.5913C256.39 67.5632 256.578 67.7072 256.604 67.9126L256.62 68.032C256.781 69.2593 256.916 70.5041 257.02 71.7331C257.037 71.9385 256.885 72.1193 256.679 72.1369C256.678 72.1351 256.674 72.1369 256.672 72.1369ZM101.376 75.5605C101.364 75.5605 101.35 75.5623 101.338 75.5605C101.132 75.5517 100.971 75.3797 100.978 75.1725C101.025 73.9365 101.102 72.6864 101.209 71.4556C101.227 71.2502 101.408 71.0975 101.613 71.115C101.818 71.1326 101.971 71.3134 101.953 71.5189C101.848 72.7373 101.771 73.9768 101.725 75.1988C101.718 75.3937 101.566 75.5482 101.376 75.5605ZM255.406 63.2143C255.222 63.2266 255.053 63.1002 255.016 62.9159C254.776 61.715 254.502 60.5053 254.206 59.3184C254.155 59.1183 254.278 58.9146 254.478 58.8655C254.678 58.8145 254.881 58.9374 254.93 59.1376C255.23 60.335 255.506 61.557 255.75 62.7701C255.79 62.9721 255.66 63.1687 255.457 63.2108C255.437 63.2126 255.422 63.2143 255.406 63.2143ZM102.225 66.7117C102.199 66.7135 102.171 66.7117 102.144 66.7082C101.941 66.6766 101.801 66.4852 101.832 66.2816C102.022 65.0578 102.243 63.8218 102.49 62.6069C102.53 62.405 102.729 62.275 102.93 62.3154C103.132 62.3558 103.262 62.5542 103.222 62.7561C102.976 63.9588 102.757 65.1825 102.571 66.3957C102.541 66.5713 102.395 66.6994 102.225 66.7117ZM253.164 54.6149C252.997 54.6254 252.838 54.5236 252.785 54.3568C252.41 53.191 252.001 52.0199 251.569 50.8752C251.497 50.6821 251.594 50.4661 251.787 50.3941C251.98 50.3222 252.196 50.4187 252.268 50.6119C252.703 51.7689 253.115 52.9505 253.496 54.1268C253.559 54.3234 253.452 54.5341 253.255 54.5973C253.225 54.6061 253.194 54.6114 253.164 54.6149ZM104.086 58.0034C104.046 58.0052 104.004 58.0016 103.964 57.9911C103.765 57.9367 103.648 57.7313 103.702 57.5311C104.03 56.3372 104.392 55.1363 104.776 53.96C104.841 53.7634 105.051 53.6563 105.246 53.7212C105.442 53.7862 105.549 53.9969 105.485 54.1917C105.104 55.3575 104.746 56.5479 104.421 57.7295C104.378 57.8858 104.241 57.9929 104.086 58.0034ZM249.955 46.3262C249.805 46.3367 249.657 46.2542 249.592 46.1085C249.085 44.9936 248.545 43.8769 247.985 42.7902C247.891 42.6076 247.963 42.3811 248.147 42.2863C248.331 42.1915 248.556 42.2635 248.65 42.4478C249.215 43.5469 249.761 44.674 250.273 45.7995C250.359 45.9873 250.275 46.2085 250.089 46.2946C250.043 46.3121 249.999 46.3227 249.955 46.3262ZM106.932 49.5707C106.877 49.5742 106.821 49.5655 106.769 49.5444C106.577 49.4671 106.484 49.2494 106.562 49.0581C107.023 47.9116 107.519 46.7598 108.037 45.6344C108.123 45.4466 108.344 45.364 108.532 45.4518C108.719 45.5379 108.802 45.7591 108.714 45.9469C108.202 47.0601 107.711 48.2013 107.253 49.3372C107.2 49.4759 107.072 49.5619 106.932 49.5707ZM245.819 38.4659C245.684 38.4746 245.549 38.4097 245.475 38.285C244.845 37.2386 244.182 36.194 243.502 35.1774C243.388 35.0053 243.433 34.7736 243.603 34.6595C243.775 34.5454 244.007 34.591 244.121 34.7613C244.807 35.7866 245.477 36.8418 246.112 37.8988C246.219 38.0761 246.161 38.3043 245.986 38.4114C245.935 38.4448 245.877 38.4623 245.819 38.4659ZM110.721 41.5225C110.653 41.5278 110.582 41.512 110.519 41.4786C110.339 41.3803 110.27 41.1538 110.37 40.9713C110.96 39.8845 111.582 38.7977 112.224 37.7407C112.331 37.5652 112.561 37.5072 112.737 37.6143C112.914 37.7214 112.97 37.9514 112.863 38.127C112.228 39.1752 111.61 40.2514 111.028 41.3277C110.963 41.4453 110.846 41.5155 110.721 41.5225ZM240.814 31.1358C240.695 31.1428 240.572 31.0936 240.495 30.9918C239.749 30.0226 238.969 29.0605 238.179 28.1282C238.046 27.9702 238.065 27.735 238.221 27.6015C238.379 27.4681 238.614 27.4874 238.748 27.6437C239.546 28.5847 240.332 29.5574 241.086 30.5353C241.212 30.6986 241.182 30.9339 241.018 31.0585C240.956 31.1059 240.884 31.1305 240.814 31.1358ZM115.4 33.9607C115.317 33.966 115.233 33.9449 115.161 33.894C114.993 33.7764 114.95 33.5428 115.07 33.3743C115.778 32.363 116.521 31.3535 117.277 30.3755C117.403 30.2123 117.638 30.1824 117.801 30.3088C117.964 30.4352 117.994 30.6705 117.868 30.8338C117.119 31.8012 116.384 32.8019 115.682 33.8044C115.614 33.8993 115.508 33.9537 115.4 33.9607ZM235.002 24.4202C234.897 24.4272 234.79 24.3886 234.709 24.3078C233.858 23.43 232.974 22.5609 232.081 21.7252C231.931 21.5847 231.924 21.3477 232.064 21.1967C232.204 21.0457 232.441 21.0387 232.592 21.1791C233.492 22.0236 234.385 22.9015 235.244 23.7864C235.388 23.9338 235.385 24.1709 235.237 24.3148C235.171 24.3798 235.086 24.4149 235.002 24.4202ZM120.901 26.98C120.804 26.987 120.706 26.9554 120.629 26.8869C120.475 26.75 120.461 26.5147 120.597 26.3602C121.415 25.435 122.267 24.5167 123.129 23.6319C123.273 23.4844 123.509 23.4809 123.657 23.6248C123.804 23.7688 123.808 24.0058 123.664 24.1533C122.811 25.0294 121.967 25.9389 121.157 26.8553C121.089 26.9326 120.996 26.9747 120.901 26.98ZM228.464 18.4051C228.373 18.4104 228.28 18.384 228.203 18.3208C227.257 17.5448 226.28 16.7811 225.298 16.0507C225.133 15.9278 225.098 15.6943 225.221 15.5275C225.343 15.3625 225.577 15.3274 225.743 15.4503C226.734 16.1876 227.72 16.9584 228.676 17.7415C228.836 17.8714 228.859 18.1084 228.729 18.2664C228.659 18.3524 228.562 18.3981 228.464 18.4051ZM127.155 20.6717C127.044 20.6788 126.932 20.6366 126.853 20.5488C126.714 20.3961 126.728 20.1591 126.881 20.0204C127.799 19.1952 128.748 18.3805 129.704 17.5992C129.863 17.4693 130.098 17.4921 130.228 17.6519C130.358 17.8117 130.335 18.0469 130.176 18.1769C129.23 18.9494 128.29 19.757 127.381 20.5752C127.316 20.6349 127.235 20.6665 127.155 20.6717ZM221.284 13.1696C221.207 13.1749 221.128 13.1555 221.058 13.1099C220.03 12.4462 218.972 11.7984 217.914 11.1839C217.735 11.0803 217.676 10.852 217.779 10.673C217.883 10.4939 218.111 10.4342 218.29 10.5378C219.358 11.1575 220.426 11.8124 221.465 12.4831C221.638 12.5955 221.688 12.8255 221.575 12.9993C221.507 13.1029 221.398 13.1626 221.284 13.1696ZM134.082 15.1184C133.958 15.1272 133.831 15.071 133.754 14.9622C133.635 14.7936 133.674 14.5601 133.842 14.4407C134.847 13.7261 135.882 13.0256 136.919 12.3584C137.093 12.2461 137.324 12.297 137.435 12.4708C137.545 12.6446 137.496 12.8764 137.322 12.987C136.294 13.6471 135.27 14.3406 134.275 15.0482C134.216 15.0921 134.149 15.1149 134.082 15.1184ZM213.555 8.78031C213.492 8.78382 213.427 8.77328 213.365 8.74168C212.269 8.19917 211.143 7.67421 210.02 7.18437C209.831 7.10185 209.745 6.88238 209.827 6.69277C209.91 6.50315 210.129 6.41712 210.318 6.49964C211.452 6.99475 212.587 7.52322 213.695 8.071C213.879 8.1623 213.957 8.38703 213.864 8.57138C213.804 8.69779 213.683 8.77153 213.555 8.78031ZM141.594 10.3956C141.454 10.4043 141.315 10.3341 141.243 10.2024C141.143 10.0216 141.21 9.79511 141.39 9.69503C142.473 9.09809 143.583 8.52046 144.692 7.97619C144.878 7.88489 145.101 7.96215 145.192 8.1465C145.283 8.3326 145.206 8.55558 145.022 8.64687C143.924 9.18588 142.824 9.75824 141.752 10.3482C141.699 10.378 141.647 10.392 141.594 10.3956ZM205.373 5.29873C205.324 5.30225 205.273 5.29522 205.222 5.27767C204.07 4.86332 202.891 4.47179 201.721 4.11363C201.524 4.05394 201.412 3.84501 201.473 3.64661C201.533 3.44997 201.742 3.33761 201.94 3.39906C203.122 3.76073 204.312 4.15577 205.477 4.57538C205.671 4.64561 205.771 4.85981 205.701 5.05293C205.648 5.1969 205.517 5.28996 205.373 5.29873ZM149.606 6.56109C149.449 6.57162 149.299 6.48208 149.235 6.32934C149.156 6.13796 149.249 5.92026 149.439 5.84125C150.581 5.37423 151.751 4.92652 152.914 4.51393C153.109 4.44546 153.321 4.54729 153.391 4.74042C153.46 4.9353 153.358 5.14774 153.165 5.21797C152.012 5.62705 150.853 6.06949 149.723 6.533C149.685 6.5488 149.646 6.55758 149.606 6.56109ZM196.844 2.77753C196.809 2.77929 196.772 2.77753 196.735 2.76876C195.54 2.4896 194.325 2.23502 193.12 2.0138C192.916 1.97693 192.783 1.78205 192.82 1.57838C192.857 1.37472 193.051 1.24129 193.255 1.27816C194.472 1.50113 195.7 1.75747 196.905 2.04014C197.105 2.08754 197.232 2.28769 197.184 2.4896C197.144 2.65463 197.004 2.767 196.844 2.77753ZM158.005 3.67119C157.833 3.68173 157.67 3.57287 157.622 3.39906C157.566 3.20066 157.682 2.99349 157.88 2.93906C159.068 2.60547 160.28 2.29471 161.485 2.01731C161.687 1.97166 161.887 2.09632 161.933 2.29823C161.978 2.50013 161.854 2.70028 161.652 2.74593C160.459 3.01982 159.257 3.32707 158.082 3.6589C158.058 3.66592 158.031 3.66944 158.005 3.67119ZM188.085 1.25358C188.062 1.25533 188.041 1.25533 188.018 1.25182C186.804 1.11137 185.569 1.00076 184.348 0.918237C184.143 0.904192 183.987 0.726865 184.001 0.519691C184.015 0.314273 184.192 0.158015 184.399 0.172061C185.633 0.254579 186.878 0.366944 188.104 0.509157C188.31 0.531981 188.457 0.718086 188.432 0.923505C188.41 1.1061 188.262 1.24304 188.085 1.25358ZM166.678 1.75922C166.488 1.77151 166.317 1.63808 166.285 1.44671C166.252 1.24304 166.39 1.05167 166.594 1.01831C167.353 0.895413 168.127 0.781292 168.892 0.681216C169.353 0.619767 169.82 0.563584 170.279 0.510913C170.483 0.488088 170.669 0.635568 170.693 0.83923C170.716 1.04465 170.569 1.229 170.365 1.25358C169.909 1.30625 169.448 1.36243 168.992 1.42213C168.234 1.5222 167.467 1.63457 166.715 1.75571C166.702 1.75747 166.69 1.75747 166.678 1.75922ZM179.217 0.746178C179.208 0.746178 179.201 0.746178 179.193 0.746178C177.972 0.746178 176.731 0.776025 175.509 0.833963C175.304 0.844498 175.128 0.684728 175.118 0.47931C175.107 0.275647 175.263 0.101832 175.467 0.0877865C175.468 0.0877865 175.47 0.0877865 175.474 0.0877865C176.709 0.0280923 177.959 -0.00175476 179.193 -0.00175476C179.4 -0.00175476 179.566 0.165038 179.566 0.372211C179.566 0.572362 179.412 0.733888 179.217 0.746178Z" fill="#DEDEDE"/>
        <path d="M191.481 46.4578V175H191.144L181.421 165.53L171.697 175H170.683L160.959 165.53L151.234 175H150.235L140.527 165.548L130.821 175H129.827L120.11 165.537L110.391 175H109.367L99.6483 165.537L89.9297 175H88.9175L79.2183 165.555L69.5191 175H68.8788V10.7327H155.786L191.481 46.4578Z" fill="#F2F2F2"/>
        <path d="M191.481 46.4578H155.786V10.7327L191.481 46.4578Z" fill="#DEDEDE"/>
        <path d="M101.871 113.329V108.522H88.907C87.272 108.522 86.0441 108.152 85.2266 107.411C84.4091 106.67 84.0004 105.662 84.0004 104.387C84.0004 104.061 84.06 103.729 84.1811 103.392C84.3021 103.057 84.4828 102.704 84.7231 102.332C84.9634 101.961 85.2143 101.605 85.4722 101.259C85.7301 100.915 86.0493 100.492 86.4282 99.993L100.115 81.6686C101.01 80.4624 101.746 79.5881 102.323 79.0456C102.901 78.5031 103.594 78.2309 104.402 78.2309C107.02 78.2309 108.328 79.7303 108.328 82.7273V102.732H109.439C110.765 102.732 111.828 102.913 112.628 103.274C113.428 103.636 113.83 104.43 113.83 105.652C113.83 106.651 113.502 107.379 112.849 107.836C112.195 108.292 111.214 108.52 109.905 108.52H108.33V113.328C108.33 114.655 108.037 115.64 107.453 116.286C106.867 116.932 106.085 117.255 105.102 117.255C104.137 117.255 103.358 116.923 102.766 116.26C102.169 115.599 101.871 114.622 101.871 113.329ZM90.7682 102.732H101.873V87.7153L90.7682 102.732Z" fill="#FF6600"/>
        <path d="M143.706 98.0283C143.706 100.855 143.534 103.283 143.19 105.316C142.847 107.349 142.21 109.193 141.28 110.847C140.11 112.88 138.594 114.448 136.735 115.55C134.875 116.653 132.809 117.204 130.537 117.204C127.92 117.204 125.574 116.463 123.501 114.981C121.425 113.5 119.864 111.449 118.813 108.831C118.28 107.402 117.887 105.82 117.638 104.089C117.389 102.358 117.264 100.485 117.264 98.4673C117.264 95.8653 117.401 93.5232 117.678 91.4374C117.954 89.3534 118.384 87.5608 118.97 86.0614C119.985 83.5806 121.462 81.6897 123.399 80.3887C125.336 79.0877 127.648 78.4381 130.332 78.4381C132.105 78.4381 133.714 78.726 135.161 79.3037C136.607 79.8813 137.877 80.7258 138.97 81.8372C140.063 82.9485 140.989 84.3232 141.745 85.9596C143.052 88.8021 143.706 92.8262 143.706 98.0283ZM136.63 97.5121C136.63 94.3589 136.44 91.7797 136.061 89.7712C135.682 87.7644 135.045 86.2475 134.151 85.2222C133.256 84.1968 132.016 83.6842 130.432 83.6842C128.16 83.6842 126.579 84.8306 125.694 87.1218C124.806 89.413 124.364 92.9455 124.364 97.7176C124.364 100.957 124.553 103.61 124.932 105.678C125.311 107.746 125.948 109.309 126.843 110.369C127.737 111.43 128.951 111.958 130.484 111.958C132.069 111.958 133.307 111.407 134.203 110.304C135.098 109.202 135.728 107.625 136.089 105.574C136.449 103.525 136.63 100.837 136.63 97.5121Z" fill="#FF6600"/>
        <path d="M164.725 113.329V108.522H151.762C150.127 108.522 148.899 108.152 148.081 107.411C147.264 106.67 146.855 105.662 146.855 104.387C146.855 104.061 146.915 103.729 147.036 103.392C147.157 103.057 147.337 102.704 147.578 102.332C147.818 101.961 148.069 101.605 148.327 101.259C148.585 100.915 148.904 100.492 149.283 99.993L162.969 81.6686C163.864 80.4624 164.601 79.5881 165.178 79.0456C165.755 78.5031 166.448 78.2309 167.257 78.2309C169.874 78.2309 171.183 79.7303 171.183 82.7273V102.732H172.293C173.62 102.732 174.683 102.913 175.483 103.274C176.282 103.636 176.684 104.43 176.684 105.652C176.684 106.651 176.356 107.379 175.704 107.836C175.049 108.292 174.069 108.52 172.76 108.52H171.185V113.328C171.185 114.655 170.892 115.64 170.306 116.286C169.72 116.932 168.937 117.255 167.955 117.255C166.99 117.255 166.211 116.923 165.618 116.26C165.022 115.599 164.725 114.622 164.725 113.329ZM153.621 102.732H164.725V87.7153L153.621 102.732Z" fill="#FF6600"/>
        <path d="M129.225 212.732C127.536 214.423 124.797 214.423 123.11 212.732L96.8538 186.455L93.5172 183.115C95.9468 181.511 98.0291 179.425 99.6325 176.995L129.225 206.612C130.914 208.301 130.914 211.042 129.225 212.732Z" fill="#9C9C9C"/>
        <path d="M100.962 178.324L107.804 185.173C106.2 187.605 104.118 189.689 101.688 191.293L98.1835 187.784L94.8469 184.444C97.2766 182.841 99.3606 180.756 100.962 178.324Z" fill="#5E5E5E"/>
        <path d="M107.781 164.064C107.735 162.956 107.618 161.866 107.437 160.797C106.409 154.722 103.285 149.36 98.8326 145.487C94.2522 141.498 88.2685 139.084 81.7217 139.084C67.3175 139.084 55.6395 150.772 55.6395 165.188C55.6395 166.185 55.6957 167.17 55.8044 168.139C56.1465 171.176 57.0078 174.056 58.3007 176.686C60.1567 180.466 62.8986 183.73 66.2562 186.209C66.8018 186.613 67.3649 186.994 67.9421 187.355C71.9417 189.85 76.6642 191.292 81.7217 191.292C87.3633 191.292 92.5857 189.499 96.852 186.453C99.2132 184.767 101.282 182.697 102.967 180.334C104.66 177.959 105.965 175.288 106.79 172.414C107.448 170.12 107.802 167.697 107.802 165.191C107.804 164.812 107.797 164.436 107.781 164.064ZM81.7217 186.65C77.0291 186.65 72.6908 185.141 69.1595 182.583C65.7335 180.101 63.0688 176.628 61.5847 172.583C60.7391 170.278 60.2795 167.788 60.2795 165.189C60.2795 164.212 60.3444 163.249 60.4725 162.307C61.5391 154.348 66.9649 147.773 74.2661 145.062C76.5887 144.2 79.1008 143.729 81.7234 143.729C82.6725 143.729 83.6057 143.791 84.5214 143.91C88.8685 144.476 92.8067 146.345 95.9328 149.116C100.371 153.047 103.167 158.792 103.167 165.189C103.167 165.516 103.16 165.841 103.145 166.164C103.074 167.739 102.834 169.27 102.443 170.739C101.843 172.992 100.885 175.097 99.636 176.993C98.0326 179.425 95.9503 181.511 93.5207 183.114C92.9243 183.507 92.3085 183.87 91.6717 184.204C90.314 184.917 88.8702 185.487 87.3598 185.898C85.5617 186.388 83.6724 186.65 81.7217 186.65Z" fill="#B8B8B8"/>
        <path d="M65.4844 167.549C64.3792 167.549 63.4828 166.652 63.4828 165.546C63.4828 160.575 65.4177 155.902 68.9297 152.387C72.4417 148.872 77.1115 146.935 82.0778 146.935C83.183 146.935 84.0794 147.833 84.0794 148.939C84.0794 150.045 83.183 150.942 82.0778 150.942C78.1799 150.942 74.517 152.461 71.7611 155.219C69.0052 157.977 67.4877 161.643 67.4877 165.544C67.4877 166.652 66.5913 167.549 65.4844 167.549Z" fill="white"/>
    </g>
    <defs>
        <clipPath id="clip0">
            <rect width="264" height="214" fill="white"/>
        </clipPath>
    </defs>
</svg>
