<svg width="27" height="21" viewBox="0 0 27 21" fill="none" xmlns="http://www.w3.org/2000/svg">
    <path fill-rule="evenodd" clip-rule="evenodd" d="M13.5007 12.7384L13.6352 12.7385L13.9361 12.7395C16.2358 12.7546 21.4911 12.9869 21.4911 16.549C21.4911 20.0877 16.4189 20.3184 13.9719 20.3335L13.0653 20.3335C10.7655 20.3184 5.5091 20.0863 5.5091 16.5287C5.5091 12.9856 10.7655 12.7545 13.0653 12.7395L13.3662 12.7385C13.4129 12.7384 13.4577 12.7384 13.5007 12.7384ZM13.5007 14.5252C10.6705 14.5252 7.29586 14.873 7.29586 16.5287C7.29586 18.147 10.469 18.5253 13.242 18.5468L13.5007 18.5478C16.3309 18.5478 19.7044 18.2011 19.7044 16.549C19.7044 14.8766 16.3309 14.5252 13.5007 14.5252ZM22.9748 12.255C25.8611 12.6874 26.4674 14.043 26.4674 15.1043C26.4674 15.7523 26.2125 16.9352 24.5091 17.5844C24.4043 17.6237 24.2971 17.6427 24.191 17.6427C23.8313 17.6427 23.4918 17.4235 23.356 17.0674C23.1797 16.6064 23.412 16.0894 23.873 15.9143C24.6806 15.607 24.6806 15.2675 24.6806 15.1043C24.6806 14.5826 24.0171 14.2181 22.7092 14.0227C22.222 13.9489 21.8849 13.495 21.9576 13.0055C22.0302 12.5171 22.4829 12.1919 22.9748 12.255ZM5.04263 13.0055C5.11529 13.495 4.77819 13.9489 4.291 14.0227C2.98309 14.2181 2.3196 14.5826 2.3196 15.1043C2.3196 15.2675 2.3196 15.6058 3.12841 15.9143C3.5894 16.0894 3.82168 16.6064 3.64538 17.0674C3.50959 17.4235 3.1701 17.6427 2.81037 17.6427C2.70435 17.6427 2.59715 17.6237 2.49232 17.5844C0.787749 16.934 0.532837 15.7511 0.532837 15.1043C0.532837 14.0442 1.13915 12.6874 4.02656 12.255C4.51851 12.1931 4.96878 12.5171 5.04263 13.0055ZM13.5007 0.333496C16.5025 0.333496 18.9432 2.77541 18.9432 5.77598C18.9432 8.77656 16.5025 11.2185 13.5007 11.2185H13.4685C12.0153 11.2137 10.6538 10.6443 9.63414 9.61515C8.61211 8.58716 8.05345 7.22207 8.05936 5.77241C8.05936 2.77541 10.5001 0.333496 13.5007 0.333496ZM13.5007 2.12026C11.4852 2.12026 9.84615 3.76051 9.84615 5.77598C9.8426 6.75275 10.2166 7.66638 10.9016 8.35607C11.5865 9.04576 12.4989 9.42813 13.4709 9.4317L13.5007 10.3251V9.4317C15.5162 9.4317 17.1564 7.79264 17.1564 5.77598C17.1564 3.76051 15.5162 2.12026 13.5007 2.12026ZM20.8729 1.50025C22.967 1.8445 24.4881 3.63603 24.4881 5.7599C24.4834 7.89806 22.886 9.73248 20.7716 10.0291C20.73 10.035 20.6883 10.0374 20.6478 10.0374C20.2094 10.0374 19.827 9.71461 19.7639 9.26792C19.696 8.77834 20.0355 8.32689 20.5251 8.25899C21.7639 8.08508 22.699 7.01064 22.7014 5.75752C22.7014 4.51512 21.8104 3.4645 20.5822 3.2632C20.0962 3.18339 19.7663 2.72359 19.8461 2.2364C19.9271 1.74921 20.3833 1.42283 20.8729 1.50025ZM7.1553 2.2364C7.23511 2.72359 6.90516 3.18339 6.41916 3.2632C5.19105 3.4645 4.30005 4.51512 4.30005 5.7599C4.30243 7.01064 5.23751 8.08627 6.47514 8.25899C6.96471 8.32689 7.3042 8.77834 7.2363 9.26792C7.17317 9.71461 6.7908 10.0374 6.35245 10.0374C6.31195 10.0374 6.27026 10.035 6.22857 10.0291C4.11423 9.73248 2.51805 7.89806 2.51329 5.76228C2.51329 3.63603 4.03442 1.8445 6.12851 1.50025C6.62999 1.42164 7.0743 1.75159 7.1553 2.2364Z" fill="#3893FD"/>
</svg>
