<svg width="180" height="180" viewBox="0 0 180 180" fill="none" xmlns="http://www.w3.org/2000/svg">
<g clip-path="url(#clip0)">
<path d="M85.5058 17.4043H10.3063V152.492H85.5058V17.4043Z" fill="#EBEBEB"/>
<path d="M81.7199 21.3145H13.3074V148.465H81.7199V21.3145Z" fill="#FAFAFA"/>
<path d="M81.7249 22.8199L13.3074 109.846V21.3145H81.7249V22.8199Z" fill="#F5F5F5"/>
<path d="M83.2106 57.9004H13.3074V59.2578H83.2106V57.9004Z" fill="#EBEBEB"/>
<path d="M83.2106 88.1777H13.3074V89.5351H83.2106V88.1777Z" fill="#EBEBEB"/>
<path d="M83.2106 118.455H13.3074V119.812H83.2106V118.455Z" fill="#EBEBEB"/>
<path d="M49.2412 58.5723H45.786V152.069H49.2412V58.5723Z" fill="#EBEBEB"/>
<path d="M28.0461 21.3145H26.4814V58.5711H28.0461V21.3145Z" fill="#EBEBEB"/>
<path d="M41.5559 21.3145H39.9912V58.5711H41.5559V21.3145Z" fill="#EBEBEB"/>
<path d="M55.0558 21.3145H53.4911V58.5711H55.0558V21.3145Z" fill="#EBEBEB"/>
<path d="M68.5606 21.3145H66.9958V58.5711H68.5606V21.3145Z" fill="#EBEBEB"/>
<path d="M10.3013 15.1152H7.12256V153.332H10.3013V15.1152Z" fill="#F5F5F5"/>
<path d="M88.6797 153.707L85.5059 152.493V15.1152H88.6797V153.707Z" fill="#E0E0E0"/>
<path d="M88.6845 13.7129H7.12256V17.3951H88.6845V13.7129Z" fill="#E0E0E0"/>
<path d="M90.8367 154.166H4.86194V157.601H90.8367V154.166Z" fill="#E0E0E0"/>
<path d="M85.5059 152.492L90.8367 154.165H4.86694L10.3064 152.492H85.5059Z" fill="#EBEBEB"/>
<path d="M60.2188 75.4265L75.0267 73.3879C75.0267 71.6504 74.5035 64.9277 74.5035 64.9277C74.5035 64.9277 80.6488 63.6098 80.3675 57.4052C80.0861 51.2007 78.2104 37.0542 78.2104 37.0542C74.6038 35.7429 70.7126 35.4175 66.9382 36.1116C63.1639 36.8058 59.6431 38.4943 56.739 41.003L55.8702 41.7681L60.2188 75.4265Z" fill="#FFBE9D"/>
<path d="M77.3912 47.7788C77.2982 47.7058 77.2211 47.6147 77.1646 47.511C77.1081 47.4072 77.0733 47.293 77.0624 47.1753C77.0515 47.0577 77.0647 46.9391 77.1013 46.8267C77.1378 46.7143 77.1969 46.6106 77.2749 46.5218C77.3529 46.4331 77.4482 46.3612 77.5549 46.3105C77.6616 46.2598 77.7776 46.2315 77.8957 46.2271C78.0138 46.2228 78.1315 46.2426 78.2416 46.2854C78.3518 46.3281 78.4521 46.3929 78.5363 46.4757C78.6961 46.6264 78.7929 46.832 78.8071 47.0512C78.8214 47.2703 78.7521 47.4868 78.6132 47.6569C78.4744 47.8271 78.2762 47.9383 78.0586 47.9682C77.8411 47.9982 77.6202 47.9446 77.4406 47.8183L77.3912 47.7788Z" fill="#263238"/>
<path d="M78.8029 46.2742C78.714 46.3877 78.0822 45.9533 77.2332 45.9978C76.3842 46.0422 75.782 46.521 75.6784 46.4173C75.5747 46.3137 75.6784 46.1705 75.9745 45.9533C76.3241 45.6696 76.7556 45.5059 77.2054 45.4864C77.6552 45.4668 78.0993 45.5925 78.4721 45.8447C78.7535 46.0323 78.8571 46.2248 78.8029 46.2742Z" fill="#263238"/>
<path d="M69.0246 47.5873C69.2096 47.7056 69.3408 47.8917 69.3902 48.1056C69.4395 48.3196 69.403 48.5444 69.2885 48.7317C69.174 48.9191 68.9907 49.0541 68.7778 49.1078C68.5649 49.1615 68.3394 49.1297 68.1497 49.019C67.96 48.9084 67.8213 48.7278 67.7633 48.516C67.7052 48.3043 67.7325 48.0782 67.8392 47.8863C67.946 47.6944 68.1237 47.552 68.3342 47.4896C68.5447 47.4273 68.7713 47.4499 68.9654 47.5527L69.0246 47.5873Z" fill="#263238"/>
<path d="M69.5972 47.5611C69.5083 47.6697 68.8765 47.2403 68.0177 47.2797C67.1588 47.3192 66.5764 47.8029 66.4727 47.6993C66.369 47.5956 66.4727 47.4525 66.7689 47.2057C67.1153 46.9108 67.5487 46.7375 68.0029 46.7121C68.4506 46.6974 68.892 46.8215 69.2665 47.0675C69.5281 47.3143 69.6317 47.5068 69.5972 47.5611Z" fill="#263238"/>
<path d="M73.4225 54.3598C73.8542 54.1671 74.3143 54.0454 74.7849 53.9995C75.0119 53.9551 75.1748 53.8959 75.1945 53.7725C75.1843 53.5499 75.1162 53.3339 74.9971 53.1456L74.2222 51.4131C73.4906 49.9971 72.9099 48.5081 72.4896 46.9707C73.3478 48.321 74.0703 49.7528 74.6467 51.2453L75.3871 52.9827C75.5443 53.2613 75.605 53.5841 75.5598 53.9008C75.5331 53.9884 75.4861 54.0685 75.4226 54.1345C75.3592 54.2006 75.281 54.2507 75.1945 54.2809C75.074 54.3238 74.9473 54.3471 74.8194 54.35C74.3582 54.4371 73.885 54.4405 73.4225 54.3598Z" fill="#263238"/>
<path d="M70.693 55.5C72.0575 56.023 73.4876 56.3552 74.9429 56.4872C74.6783 56.9523 74.2638 57.314 73.7671 57.513C73.2704 57.7121 72.7209 57.7367 72.2083 57.583C70.3179 56.966 70.693 55.5 70.693 55.5Z" fill="white"/>
<path d="M74.5332 64.8332C71.6775 65.0508 68.8217 64.4133 66.3296 63.002C66.3296 63.002 68.4866 67.3407 74.6368 66.4572L74.5332 64.8332Z" fill="#EB996E"/>
<path d="M78.4227 38.6087C78.4227 38.6087 74.9675 40.9089 69.7453 39.1023C66.3395 37.9226 62.5141 37.6215 61.7737 38.3866C61.0333 39.1517 61.2801 42.4489 58.2593 43.8162C58.2593 43.8162 59.3008 50.075 56.7785 50.1786C54.2562 50.2823 54.5326 40.3462 54.5326 40.3462L60.2682 36.5504L66.7788 34.4082L73.1955 34.4674L78.2549 35.1585L78.4227 38.6087Z" fill="#263238"/>
<path d="M56.9858 48.1347C56.8723 48.1347 52.6471 47.1179 53.037 51.3431C53.4269 55.5683 57.583 54.3047 57.583 54.1961C57.583 54.0875 56.9858 48.1347 56.9858 48.1347Z" fill="#FFBE9D"/>
<path d="M56.1368 52.7155C56.0792 52.7626 56.0181 52.8055 55.9542 52.8438C55.7815 52.9311 55.5818 52.9488 55.3964 52.8931C55.1102 52.7443 54.8683 52.5227 54.695 52.2506C54.5217 51.9785 54.4231 51.6655 54.4092 51.3433C54.3699 50.9806 54.4086 50.6137 54.5228 50.2672C54.5508 50.1328 54.6101 50.0069 54.6958 49.8997C54.7816 49.7925 54.8914 49.7071 55.0164 49.6502C55.099 49.6214 55.1892 49.6224 55.2713 49.653C55.3533 49.6837 55.422 49.742 55.4655 49.8181C55.5346 49.9266 55.5198 50.0155 55.5445 50.0254C55.5692 50.0352 55.6235 49.9464 55.5445 49.7736C55.5119 49.6697 55.4437 49.5806 55.352 49.5219C55.2912 49.4829 55.2231 49.4566 55.1518 49.4448C55.0805 49.4329 55.0076 49.4356 54.9374 49.4528C54.7667 49.5013 54.6116 49.5931 54.487 49.7194C54.3624 49.8457 54.2727 50.0022 54.2266 50.1734C54.0782 50.5564 54.024 50.9695 54.0687 51.3778C54.0802 51.7575 54.2047 52.1252 54.4263 52.4338C54.6478 52.7424 54.9564 52.978 55.3125 53.1103C55.4278 53.1348 55.5473 53.1319 55.6613 53.1019C55.7753 53.0719 55.8806 53.0156 55.969 52.9376C56.1368 52.8142 56.1516 52.7204 56.1368 52.7155Z" fill="#EB996E"/>
<path d="M74.5777 45.1242C74.7356 45.3661 75.5303 45.1242 76.5027 45.0255C77.4751 44.9268 78.2994 45.0255 78.403 44.7343C78.5067 44.4431 77.633 43.8655 76.399 44.0284C75.165 44.1913 74.4246 44.9169 74.5777 45.1242Z" fill="#263238"/>
<path d="M65.0808 45.6864C65.2338 45.9283 66.0334 45.6864 66.9959 45.5926C67.9584 45.4989 68.8025 45.5926 68.8963 45.3064C68.99 45.0201 68.1263 44.4376 66.9219 44.6005C65.7175 44.7634 64.9228 45.4544 65.0808 45.6864Z" fill="#263238"/>
<path d="M60.2584 39.3786C59.6204 40.4699 58.8476 41.4765 57.9582 42.3748C57.0509 43.269 55.8312 43.7753 54.5573 43.7865C53.9237 43.7797 53.309 43.5699 52.8035 43.1878C52.2979 42.8058 51.9283 42.2717 51.7488 41.664C51.6337 41.0985 51.748 40.5104 52.0664 40.0291C52.3848 39.5478 52.8813 39.2126 53.4467 39.0973C53.5331 39.0793 53.6205 39.0661 53.7083 39.0578C53.5388 39.0935 53.364 39.0954 53.1937 39.0634C53.0235 39.0315 52.8612 38.9664 52.7161 38.8717C52.5711 38.7771 52.4461 38.6548 52.3483 38.5118C52.2504 38.3688 52.1818 38.208 52.1461 38.0385C52.1105 37.869 52.1085 37.6942 52.1405 37.5239C52.1724 37.3537 52.2376 37.1914 52.3322 37.0463C52.4269 36.9012 52.5491 36.7762 52.6921 36.6784C52.8351 36.5806 52.9959 36.5119 53.1654 36.4763C53.4616 36.4159 53.7696 36.4577 54.0391 36.5948C52.9433 36.5948 52.5089 34.9461 53.2296 34.1268C53.6338 33.7592 54.1262 33.5025 54.659 33.3814C55.1917 33.2603 55.7467 33.279 56.2701 33.4357C57.3102 33.7557 58.3751 33.9885 59.4538 34.1317C61.1913 34.1317 62.7165 33.1791 64.0097 32.0586C65.2089 30.8387 66.5592 29.7771 68.0276 28.8996C69.9664 28.0584 72.1297 27.8848 74.1778 28.406C75.8976 28.7199 77.5026 29.4866 78.8275 30.6272C79.4857 31.2011 80.0054 31.9168 80.3473 32.7204C80.6893 33.524 80.8447 34.3947 80.8019 35.267C80.7393 36.1393 80.4024 36.9696 79.8394 37.6389C79.2765 38.3083 78.5163 38.7824 77.6675 38.9936C75.2238 39.6168 72.6414 39.3976 70.3376 38.3717C66.7689 36.6342 60.2386 38.1891 60.2386 38.1891L60.2584 39.3786Z" fill="#263238"/>
<path d="M42.8048 80.8801C42.8048 80.8801 48.8761 75.2136 52.8989 73.4761C54.9706 72.6013 57.165 72.0519 59.4045 71.8472C64.6577 73.196 70.199 72.8927 75.2736 70.9785C76.1818 71.0476 77.5639 71.0822 79.3952 71.2302C82.4807 71.4706 85.4869 72.3259 88.2369 73.7458C90.9868 75.1657 93.4249 77.1215 95.4074 79.498L108.004 94.6366L95.3038 107.357L92.4508 102.667C92.4508 102.667 96.6809 138.907 96.8537 144.046L50.0015 148.918L49.7448 107.366L42.8048 80.8801Z" fill="#455A64"/>
<path d="M47.6716 121.1C47.7611 120.998 47.8585 120.904 47.9629 120.818L48.8316 120.083L52.1979 117.482C55.0509 115.27 59.0095 112.274 63.3976 108.918L64.602 108.049L64.5576 108.365C62.0415 104.787 59.7247 101.073 57.6176 97.2393C56.813 95.8523 56.1368 94.717 55.6432 93.8582C55.3766 93.463 55.1454 93.0451 54.9522 92.6094C55.0426 92.6934 55.1207 92.7898 55.1842 92.8957C55.3224 93.0931 55.5346 93.3893 55.7864 93.7595C56.28 94.5245 57.0055 95.6499 57.8743 97.0764C59.6117 99.885 61.8625 103.918 64.9179 108.064L65.0462 108.242L64.8735 108.38L63.674 109.263C59.286 112.59 55.2829 115.581 52.4003 117.724L48.9451 120.246L47.9727 120.932C47.8766 120.995 47.776 121.051 47.6716 121.1Z" fill="#263238"/>
<path d="M41.5363 81.9672C41.7234 81.817 41.938 81.7047 42.1681 81.6365C42.7844 81.4089 43.4361 81.2919 44.0931 81.291C46.2843 81.3355 48.3796 82.1983 49.9669 83.7096C51.4929 85.2225 52.7203 87.0092 53.5849 88.9763C54.001 89.7615 54.3319 90.5888 54.5721 91.4443C54.0959 90.7091 53.6704 89.9422 53.2987 89.1491C52.3728 87.2653 51.142 85.5474 49.6559 84.065C48.1429 82.6265 46.1717 81.7668 44.0881 81.6365C43.2269 81.6376 42.3693 81.7487 41.5363 81.9672Z" fill="#263238"/>
<path d="M74.3949 71.9219C73.6964 72.3076 72.9494 72.5981 72.1738 72.7857C68.4502 73.8952 64.5018 74.016 60.7174 73.1361C59.928 72.9892 59.1624 72.7352 58.4419 72.3809C59.2274 72.4854 60.0068 72.632 60.7766 72.8202C62.6474 73.1571 64.5477 73.3027 66.448 73.2546C68.3505 73.1903 70.2413 72.929 72.0898 72.4747C72.8476 72.2486 73.6171 72.0641 74.3949 71.9219Z" fill="#263238"/>
<path d="M98.364 141.164L90.9157 299.406L66.764 299.885L70.772 171.264L43.6093 300.872H20.6472L51.3144 145.769" fill="#263238"/>
<path d="M61.1567 148.172C61.214 148.374 61.2324 148.585 61.211 148.794C61.1924 149.38 61.1114 149.962 60.9691 150.531C60.5001 152.391 59.4623 154.058 58.0005 155.299C56.5387 156.541 54.7258 157.295 52.8149 157.457C52.2389 157.516 51.6583 157.516 51.0823 157.457C50.8699 157.442 50.6613 157.392 50.4653 157.308C50.4653 157.22 51.3341 157.358 52.7655 157.17C54.5878 156.936 56.3023 156.176 57.6995 154.983C59.0968 153.79 60.1163 152.215 60.6334 150.452C61.0727 149.065 61.0728 148.162 61.1567 148.172Z" fill="#455A64"/>
<path d="M77.8156 146.598C77.8715 146.884 77.8881 147.176 77.865 147.466V149.91C77.8156 151.983 77.7169 154.846 77.5886 157.99C77.6192 159.494 77.4533 160.996 77.095 162.457C76.882 163.049 76.5545 163.594 76.131 164.06C75.7076 164.526 75.1965 164.903 74.627 165.172C73.8857 165.547 73.1041 165.837 72.2972 166.036C72.0156 166.125 71.7236 166.178 71.4285 166.193C71.7036 166.049 71.9953 165.937 72.2972 165.863C73.064 165.619 73.8073 165.307 74.5184 164.93C75.5727 164.386 76.3718 163.45 76.7445 162.324C77.0793 160.904 77.2336 159.448 77.2035 157.99C77.3368 154.841 77.4849 151.983 77.6132 149.92C77.6823 148.888 77.7416 148.054 77.7959 147.476C77.7679 147.184 77.7745 146.889 77.8156 146.598Z" fill="#455A64"/>
<path d="M73.0524 148.656C73.1215 148.559 73.2202 148.486 73.3337 148.449C73.6519 148.329 74.0028 148.329 74.3209 148.449C74.5991 148.532 74.8495 148.689 75.0453 148.903C75.241 149.117 75.3748 149.381 75.4323 149.665C75.4897 149.95 75.4687 150.245 75.3714 150.518C75.2741 150.792 75.1042 151.033 74.88 151.218C74.6557 151.402 74.3856 151.522 74.0985 151.564C73.8113 151.606 73.5181 151.57 73.2501 151.458C72.9822 151.347 72.7496 151.165 72.5774 150.931C72.4052 150.697 72.2998 150.421 72.2725 150.132C72.2177 149.808 72.2826 149.475 72.4551 149.194C72.5736 148.997 72.697 148.933 72.7167 148.953C72.5647 149.307 72.5184 149.698 72.5835 150.078C72.6251 150.269 72.7063 150.449 72.822 150.606C72.9376 150.763 73.0851 150.895 73.2548 150.991C73.4659 151.073 73.6951 151.097 73.9186 151.061C74.1421 151.025 74.352 150.929 74.5265 150.785C74.701 150.641 74.8339 150.452 74.9114 150.24C74.9889 150.027 75.0083 149.797 74.9675 149.575C74.9106 149.384 74.8132 149.209 74.682 149.059C74.5508 148.91 74.3889 148.791 74.2074 148.711C73.8351 148.585 73.4349 148.566 73.0524 148.656Z" fill="#455A64"/>
<path d="M53.037 185.291C52.424 184.206 52.052 183.003 51.9462 181.761C51.6942 180.54 51.7145 179.278 52.0054 178.064C52.1436 178.064 52.1041 179.713 52.3904 181.697C52.6767 183.682 53.1703 185.246 53.037 185.291Z" fill="#455A64"/>
<path d="M61.9908 168.08C61.6897 166.837 61.6897 165.541 61.9908 164.299C62.2919 165.541 62.2919 166.837 61.9908 168.08Z" fill="#455A64"/>
<path d="M83.2254 176.106C82.4693 175.551 81.888 174.792 81.5503 173.917C81.2127 173.042 81.1328 172.089 81.3201 171.17C81.4583 171.17 81.4385 172.384 81.9766 173.771C82.5146 175.158 83.3241 176.007 83.2254 176.106Z" fill="#455A64"/>
<path d="M91.2414 164.985C91.1967 164.266 91.3008 163.545 91.5475 162.867C91.6456 162.153 91.8928 161.467 92.2731 160.854C92.2318 162.289 91.8798 163.699 91.2414 164.985Z" fill="#455A64"/>
<path d="M162.721 79.8895L100.259 85.3652L105.984 150.669L168.446 145.194L162.721 79.8895Z" fill="#FF6600"/>
<path d="M133.05 82.4957L81.312 87.0312L87.0369 152.335L138.775 147.8L133.05 82.4957Z" fill="#FF6600"/>
<path d="M101.706 87.3175L107.683 150.513L115.852 149.802L109.05 86.6758L101.706 87.3175Z" fill="#FAFAFA"/>
<path d="M84.5088 122.906C84.5088 122.866 85.0024 122.906 85.8662 122.758C87.0707 122.584 88.2381 122.212 89.3213 121.657C90.9435 120.841 92.3262 119.618 93.3343 118.108C94.5478 116.246 95.0926 114.027 94.8793 111.815C94.7009 109.597 93.7527 107.513 92.199 105.921C90.8993 104.655 89.2746 103.774 87.5049 103.374C86.3105 103.097 85.0746 103.049 83.8622 103.231C82.9934 103.374 82.5442 103.547 82.5294 103.502C82.5146 103.458 82.6331 103.433 82.8503 103.354C83.1711 103.23 83.5012 103.131 83.8375 103.058C85.0736 102.806 86.3478 102.806 87.5839 103.058C89.6531 103.446 91.5359 104.508 92.9392 106.077C94.3426 107.647 95.1878 109.636 95.3432 111.736C95.5599 114.048 94.9781 116.365 93.6946 118.3C92.6267 119.849 91.1717 121.092 89.4744 121.904C88.3391 122.447 87.1152 122.782 85.8612 122.891C85.5226 122.911 85.1831 122.911 84.8444 122.891C84.6322 122.906 84.5088 122.906 84.5088 122.906Z" fill="#FAFAFA"/>
<path d="M138.484 110.2C138.405 109.451 138.281 108.708 138.113 107.974C137.583 105.988 136.401 104.237 134.757 103.003C133.551 102.097 132.137 101.507 130.645 101.287C129.152 101.067 127.629 101.224 126.213 101.744C124.543 102.358 123.09 103.45 122.037 104.884C120.904 106.424 120.293 108.285 120.293 110.197C120.293 112.109 120.904 113.971 122.037 115.511C122.559 116.25 123.202 116.898 123.937 117.426C124.627 117.953 125.395 118.369 126.213 118.66C127.629 119.178 129.152 119.334 130.644 119.112C132.135 118.891 133.548 118.299 134.752 117.391C136.395 116.161 137.577 114.414 138.108 112.431C138.276 111.695 138.4 110.95 138.479 110.2C138.539 110.964 138.473 111.733 138.281 112.475C137.971 113.746 137.397 114.937 136.596 115.972C135.795 117.006 134.785 117.86 133.632 118.478C132.48 119.097 131.21 119.465 129.905 119.56C128.6 119.656 127.29 119.475 126.06 119.03C124.307 118.4 122.781 117.263 121.677 115.762C120.477 114.15 119.829 112.194 119.829 110.185C119.829 108.175 120.477 106.219 121.677 104.607C122.222 103.838 122.889 103.163 123.651 102.608C124.378 102.064 125.183 101.635 126.04 101.335C127.271 100.892 128.581 100.712 129.885 100.808C131.19 100.905 132.459 101.274 133.612 101.892C134.764 102.511 135.774 103.365 136.575 104.399C137.376 105.433 137.95 106.624 138.261 107.895C138.466 108.645 138.541 109.424 138.484 110.2Z" fill="#FAFAFA"/>
<path d="M165.488 100.201C164.097 100.339 162.74 100.714 161.475 101.311C159.981 102.072 158.726 103.232 157.849 104.662C156.972 106.092 156.508 107.737 156.508 109.414C156.508 111.091 156.972 112.736 157.849 114.166C158.726 115.596 159.981 116.755 161.475 117.516C162.738 118.118 164.096 118.494 165.488 118.627H165.197C163.848 118.709 162.503 118.408 161.317 117.758C159.898 117.091 158.672 116.072 157.759 114.797C156.631 113.211 156.029 111.312 156.036 109.367C156.047 107.431 156.652 105.544 157.768 103.962C158.681 102.686 159.907 101.666 161.327 101.001C162.271 100.533 163.291 100.239 164.338 100.132C164.626 100.107 164.915 100.107 165.202 100.132C165.38 100.156 165.488 100.166 165.488 100.201Z" fill="#FAFAFA"/>
<path d="M160.32 135.497C160.231 134.748 160.099 134.005 159.925 133.271C159.393 131.283 158.208 129.532 156.559 128.301C155.354 127.397 153.942 126.808 152.452 126.589C150.961 126.369 149.44 126.525 148.025 127.042C147.207 127.336 146.438 127.752 145.744 128.276C145.016 128.807 144.377 129.452 143.854 130.186C142.719 131.725 142.107 133.587 142.107 135.5C142.107 137.412 142.719 139.274 143.854 140.813C144.905 142.252 146.361 143.347 148.035 143.958C149.159 144.365 150.353 144.546 151.548 144.492C152.743 144.438 153.915 144.149 154.998 143.641C156.081 143.134 157.054 142.418 157.86 141.535C158.667 140.652 159.291 139.618 159.698 138.493C159.787 138.242 159.866 138 159.935 137.733C160.102 136.997 160.228 136.252 160.31 135.502C160.364 136.265 160.296 137.032 160.108 137.773C159.693 139.507 158.785 141.085 157.494 142.316C156.204 143.547 154.585 144.38 152.832 144.713C151.183 145.03 149.478 144.899 147.897 144.333C147.039 144.038 146.234 143.608 145.512 143.059C144.743 142.503 144.066 141.829 143.508 141.06C142.314 139.446 141.67 137.491 141.67 135.482C141.67 133.474 142.314 131.519 143.508 129.905C144.619 128.409 146.145 127.273 147.897 126.637C149.478 126.071 151.183 125.939 152.832 126.257C154.581 126.589 156.197 127.417 157.487 128.642C158.777 129.867 159.687 131.439 160.108 133.167C160.304 133.928 160.376 134.714 160.32 135.497Z" fill="#FAFAFA"/>
<path d="M118.004 149.219C117.699 147.857 117.159 146.558 116.41 145.379C115.466 143.991 114.157 142.891 112.628 142.2C111.098 141.508 109.407 141.253 107.742 141.462C106.076 141.671 104.501 142.336 103.189 143.383C101.878 144.431 100.881 145.82 100.309 147.398C99.8713 148.732 99.6676 150.131 99.7067 151.534C99.6977 151.436 99.6727 151.339 99.6326 151.248C99.5873 150.96 99.5593 150.67 99.5487 150.379C99.5143 149.329 99.6664 148.281 99.9979 147.285C100.493 145.791 101.363 144.45 102.525 143.39C103.208 142.762 103.98 142.238 104.815 141.835C105.72 141.411 106.681 141.119 107.668 140.966C109.59 140.743 111.534 141.106 113.246 142.008C114.631 142.753 115.802 143.841 116.647 145.167C117.221 146.047 117.629 147.023 117.851 148.05C117.94 148.41 117.945 148.696 117.985 148.913C118.024 149.131 118.024 149.219 118.004 149.219Z" fill="#FAFAFA"/>
<path d="M150.004 82.4687C149.93 81.7177 149.807 80.9723 149.634 80.2376C149.106 78.2541 147.93 76.5044 146.292 75.2671C144.567 73.9606 142.429 73.3184 140.27 73.4579C138.11 73.5974 136.073 74.5093 134.53 76.0269C132.988 77.5445 132.042 79.5665 131.867 81.7235C131.692 83.8805 132.299 86.0284 133.577 87.7749C134.1 88.516 134.742 89.165 135.478 89.695C136.167 90.2188 136.933 90.6333 137.748 90.924C139.164 91.4455 140.689 91.6031 142.181 91.3823C143.674 91.1615 145.088 90.5695 146.292 89.6604C147.936 88.4284 149.118 86.6795 149.649 84.6948C149.821 83.9614 149.946 83.2179 150.024 82.4687C150.083 83.2315 150.014 83.9988 149.822 84.7392C149.406 86.472 148.499 88.0482 147.211 89.279C145.922 90.5099 144.306 91.3432 142.556 91.6792C140.697 92.0463 138.77 91.8414 137.029 91.0917C135.289 90.342 133.816 89.0826 132.806 87.4794C131.795 85.8762 131.294 84.0044 131.368 82.1108C131.443 80.2171 132.089 78.3904 133.222 76.8713C133.771 76.1121 134.437 75.4456 135.196 74.8969C135.927 74.3538 136.738 73.929 137.6 73.6382C139.079 73.1048 140.669 72.9532 142.222 73.1974C143.775 73.4415 145.241 74.0736 146.485 75.0351C148.164 76.3327 149.343 78.1706 149.822 80.2376C150.003 80.9665 150.065 81.72 150.004 82.4687Z" fill="#FAFAFA"/>
<path d="M110.403 84.5832C110.324 83.8345 110.2 83.0912 110.033 82.3571C109.495 80.3718 108.31 78.6226 106.666 77.3866C105.46 76.4804 104.047 75.8905 102.554 75.6706C101.062 75.4508 99.5382 75.608 98.1221 76.1279C97.3051 76.4186 96.5376 76.8331 95.8466 77.357C95.1195 77.8915 94.4801 78.536 93.9512 79.2672C93.1292 80.3944 92.5799 81.6969 92.3466 83.0724C92.1133 84.4478 92.2022 85.8586 92.6065 87.1939C93.0107 88.5291 93.7192 89.7523 94.6763 90.7673C95.6334 91.7824 96.8129 92.5615 98.1221 93.0435C99.6363 93.5946 101.269 93.736 102.856 93.4532C104.239 93.1987 105.544 92.6239 106.666 91.7749C108.311 90.5436 109.496 88.7973 110.033 86.8143C110.2 86.0786 110.324 85.3336 110.403 84.5832C110.458 85.3479 110.388 86.1165 110.195 86.8587C109.72 88.9262 108.543 90.7648 106.864 92.0612C105.613 93.0099 104.144 93.6296 102.592 93.8633C101.04 94.097 99.4535 93.9373 97.979 93.3989C97.1199 93.1007 96.3123 92.6711 95.585 92.1254C94.8283 91.5738 94.1622 90.9077 93.6106 90.151C92.4163 88.5366 91.7717 86.5815 91.7717 84.5734C91.7717 82.5652 92.4163 80.6101 93.6106 78.9957C94.1593 78.2365 94.8258 77.57 95.585 77.0213C96.3112 76.4737 97.119 76.044 97.979 75.7479C99.2085 75.3024 100.518 75.1211 101.823 75.2159C103.127 75.3106 104.397 75.6793 105.549 76.2978C106.701 76.9163 107.71 77.7708 108.51 78.8055C109.31 79.8402 109.882 81.0319 110.191 82.3028C110.384 83.0465 110.456 83.8166 110.403 84.5832Z" fill="#FAFAFA"/>
<path d="M146.751 83.3625L152.981 146.538L161.796 145.768L155.305 82.6172L146.751 83.3625Z" fill="#E0E0E0"/>
<path d="M121.716 65.9841C121.716 65.6731 122.585 65.3375 124.145 64.9969C125.704 64.6563 128.005 64.2763 130.754 63.7432C132.126 63.4766 133.612 63.1657 135.162 62.756C135.937 62.5388 136.731 62.3167 137.541 62.0452C138.331 61.7992 139.107 61.5108 139.866 61.1814C140.329 61.018 140.729 60.7143 141.011 60.3127C141.031 60.21 141.031 60.1044 141.011 60.0017C140.96 59.6748 140.875 59.354 140.759 59.0441C140.133 57.1514 139.372 55.3056 138.484 53.5208C138.054 52.7116 137.546 51.9462 136.968 51.2354C136.692 50.9146 136.376 50.579 136.1 50.3174C135.832 50.0852 135.541 49.8817 135.231 49.7102C135.052 49.5877 134.849 49.503 134.636 49.4615C134.423 49.4199 134.204 49.4222 133.992 49.4684C133.37 49.6949 132.804 50.0536 132.333 50.5197C129.954 52.5821 127.886 54.9778 126.193 57.6325C123.296 62.2278 122.506 65.7176 121.854 65.604C121.563 65.604 121.361 64.6168 121.499 62.9485C121.751 60.5757 122.393 58.2608 123.399 56.0974C124.895 52.8543 126.973 49.9131 129.53 47.4199C130.42 46.4948 131.506 45.7812 132.709 45.332C133.483 45.0716 134.306 44.9856 135.117 45.0803C135.889 45.1767 136.637 45.4125 137.324 45.7763C137.947 46.0973 138.529 46.4935 139.056 46.956C139.529 47.376 139.976 47.8243 140.394 48.2985C141.195 49.2434 141.89 50.2729 142.467 51.3687C143.471 53.3893 144.296 55.4934 144.935 57.6571C145.157 58.3146 145.291 58.9983 145.335 59.6908C145.399 60.5914 145.211 61.4922 144.792 62.292C144.397 63.0132 143.837 63.6306 143.158 64.0936C142.634 64.4441 142.073 64.7354 141.485 64.9624C140.54 65.3182 139.572 65.6084 138.587 65.8311C137.669 66.0631 136.776 66.2358 135.907 66.3839C132.034 67.0061 128.097 67.1239 124.194 66.7344C122.629 66.5517 121.726 66.3 121.716 65.9841Z" fill="#E0E0E0"/>
<path d="M122.817 66.3694C122.817 66.6803 121.785 66.9074 119.964 67.0258C117.4 67.1739 114.83 67.1541 112.269 66.9666C108.398 66.724 104.564 66.0788 100.827 65.0416C99.5929 64.7263 98.4085 64.2413 97.3077 63.6003C96.5498 63.1569 95.9006 62.5498 95.4074 61.8233C94.83 60.9346 94.5675 59.8778 94.6621 58.8223C94.7416 58.0436 94.9225 57.2786 95.2001 56.5468C95.4074 55.9841 95.6147 55.4115 95.8319 54.8142C96.2826 53.5855 96.8221 52.3912 97.4459 51.2406C98.1135 50.0051 98.9435 48.8646 99.9139 47.8496C100.404 47.3378 100.932 46.8642 101.493 46.433C102.092 45.9722 102.743 45.5845 103.433 45.278C104.904 44.6109 106.555 44.4495 108.127 44.8189C109.459 45.1931 110.698 45.8403 111.765 46.7193C114.857 49.2112 117.497 52.2166 119.569 55.604C120.982 57.8665 121.992 60.3564 122.555 62.9635C122.911 64.8096 122.787 65.8659 122.501 65.9251C121.825 66.088 120.768 62.2281 116.943 57.4155C114.717 54.6299 112.121 52.1606 109.228 50.0757C108.6 49.5866 107.877 49.2321 107.106 49.0342C106.451 48.9142 105.774 49.0186 105.186 49.3304C104.818 49.5051 104.471 49.7221 104.154 49.977C103.779 50.2775 103.429 50.6076 103.108 50.9642C102.427 51.7109 101.844 52.54 101.37 53.4322C100.842 54.4046 100.382 55.4123 99.9929 56.4481L99.366 58.0621C99.2149 58.4155 99.104 58.7847 99.0353 59.1628V59.4442C99.1775 59.6452 99.3609 59.8135 99.5733 59.9378C100.343 60.4154 101.173 60.7873 102.041 61.0434C105.507 62.194 109.048 63.106 112.639 63.773C115.749 64.3802 118.305 64.8343 120.067 65.2538C121.83 65.6734 122.871 66.0535 122.817 66.3694Z" fill="#FAFAFA"/>
<path d="M170.436 59.511L94.3882 66.1777L96.2827 87.7885L172.331 81.1217L170.436 59.511Z" fill="#FF6600"/>
<path d="M142.471 61.9656L73.7247 67.9922L75.6192 89.6029L144.365 83.5763L142.471 61.9656Z" fill="#FF6600"/>
<path d="M94.8151 66.1324L97.0363 87.831L105.042 87.0215L102.762 65.4414L94.8151 66.1324Z" fill="#FAFAFA"/>
<path d="M151.791 61.2491L154.284 82.7206L163.104 81.9456L160.903 60.3359L151.791 61.2491Z" fill="#E0E0E0"/>
<path d="M109.944 65.4411C110.235 66.8111 110.761 68.1203 111.499 69.3109C112.421 70.7123 113.713 71.8312 115.231 72.5435C116.75 73.2559 118.436 73.534 120.103 73.3469C121.77 73.1599 123.353 72.515 124.676 71.4838C125.999 70.4526 127.011 69.0752 127.6 67.5043C128.049 66.1772 128.271 64.7838 128.256 63.3828C128.263 63.4841 128.285 63.5839 128.32 63.679C128.365 63.9665 128.39 64.2568 128.394 64.5477C128.419 65.5975 128.252 66.643 127.901 67.6327C127.385 69.1268 126.488 70.4606 125.3 71.5025C124.604 72.1171 123.825 72.629 122.985 73.0227C122.074 73.4241 121.109 73.6918 120.122 73.8174C118.196 74.0285 116.252 73.6407 114.554 72.7068C113.178 71.9466 112.02 70.8452 111.193 69.5083C110.634 68.6205 110.241 67.6388 110.033 66.6109C109.974 66.3241 109.933 66.034 109.909 65.7422C109.91 65.6409 109.921 65.5399 109.944 65.4411Z" fill="#FAFAFA"/>
<path d="M118.231 85.5304C117.94 84.1652 117.418 82.8597 116.686 81.6705C115.761 80.2727 114.468 79.1573 112.95 78.4472C111.431 77.7372 109.746 77.4601 108.08 77.6464C106.414 77.8327 104.832 78.4752 103.508 79.5031C102.184 80.531 101.169 81.9044 100.575 83.4722C100.12 84.796 99.8997 86.1891 99.9238 87.5887C99.8913 87.4958 99.8682 87.3999 99.8547 87.3025C99.812 87.0148 99.7889 86.7245 99.7856 86.4337C99.766 85.3827 99.9332 84.3365 100.279 83.3438C100.802 81.8558 101.697 80.5268 102.88 79.4839C103.573 78.8774 104.349 78.3737 105.186 77.9883C106.095 77.5789 107.063 77.3109 108.053 77.1936C109.978 76.9807 111.921 77.3686 113.616 78.3042C114.992 79.067 116.15 80.1678 116.983 81.5027C117.536 82.3931 117.929 83.3738 118.142 84.4001C118.2 84.6868 118.238 84.977 118.256 85.2688C118.259 85.3567 118.251 85.4446 118.231 85.5304Z" fill="#FAFAFA"/>
<path d="M155.394 72.5575C155.311 71.8106 155.186 71.0691 155.019 70.3363C154.482 68.351 153.297 66.6017 151.653 65.3658C150.533 64.5173 149.229 63.9441 147.847 63.6925C146.259 63.411 144.624 63.5541 143.109 64.1071C142.293 64.396 141.528 64.8089 140.838 65.3312C140.108 65.8679 139.467 66.5158 138.938 67.2513C137.805 68.7903 137.194 70.6513 137.194 72.5624C137.194 74.4735 137.805 76.3345 138.938 77.8735C139.466 78.6071 140.107 79.252 140.838 79.7837C141.525 80.3119 142.292 80.7283 143.109 81.0177C144.624 81.5723 146.26 81.7121 147.847 81.4225C149.229 81.1765 150.533 80.6064 151.653 79.7591C153.296 78.522 154.48 76.7732 155.019 74.7885C155.186 74.0525 155.311 73.3076 155.394 72.5575C155.444 73.3221 155.374 74.0899 155.187 74.833C154.713 76.9009 153.535 78.7399 151.855 80.0355C150.613 80.9999 149.146 81.6338 147.593 81.8781C146.039 82.1223 144.449 81.969 142.97 81.4324C142.111 81.1342 141.304 80.7046 140.576 80.1589C139.817 79.6011 139.15 78.9264 138.602 78.1598C137.41 76.5463 136.767 74.5931 136.767 72.5871C136.767 70.581 137.41 68.6279 138.602 67.0144C139.149 66.2452 139.815 65.5686 140.576 65.0104C141.308 64.4711 142.114 64.0421 142.97 63.7369C144.553 63.1732 146.256 63.0403 147.906 63.3519C149.345 63.6298 150.697 64.2418 151.855 65.1387C153.541 66.433 154.723 68.2745 155.197 70.3462C155.376 71.0687 155.443 71.8146 155.394 72.5575Z" fill="#FAFAFA"/>
<path d="M95.6148 76.9174C95.5342 76.1669 95.409 75.4219 95.2396 74.6864C94.7962 73.0143 93.8865 71.5029 92.6167 70.3283C91.3468 69.1537 89.7691 68.3644 88.0677 68.0524C86.4836 67.7627 84.8508 67.9025 83.339 68.4572C82.5224 68.7476 81.7563 69.164 81.0684 69.6912C80.333 70.2176 79.6907 70.8632 79.1681 71.6014C78.0351 73.1404 77.424 75.0014 77.424 76.9125C77.424 78.8236 78.0351 80.6846 79.1681 82.2236C79.6918 82.9637 80.3338 83.6124 81.0684 84.1437C81.7583 84.6665 82.524 85.081 83.339 85.3727C84.528 85.8121 85.796 85.9974 87.061 85.9167C88.3261 85.8359 89.5602 85.491 90.6838 84.9041C91.8073 84.3172 92.7955 83.5014 93.5844 82.5092C94.3734 81.517 94.9456 80.3705 95.2643 79.1435C95.4313 78.4092 95.5565 77.6659 95.6394 76.9174C95.6974 77.6783 95.6307 78.4436 95.442 79.183C94.964 81.2634 93.7731 83.111 92.0757 84.4053C90.9192 85.3047 89.5659 85.9171 88.1269 86.1921C86.477 86.5069 84.7731 86.3757 83.1909 85.812C82.3322 85.511 81.5248 85.0798 80.797 84.5336C80.0337 83.9781 79.3667 83.3011 78.8226 82.5296C77.9511 81.3531 77.3671 79.9889 77.1175 78.5462C76.8679 77.1035 76.9595 75.6224 77.3851 74.2215C77.8107 72.8205 78.5583 71.5387 79.5682 70.4786C80.5781 69.4185 81.8221 68.6096 83.2008 68.1166C84.7826 67.552 86.4859 67.4174 88.1368 67.7266C89.5758 68.0017 90.9291 68.614 92.0855 69.5135C93.7712 70.8078 94.9529 72.6493 95.4272 74.7209C95.605 75.4386 95.6683 76.1799 95.6148 76.9174Z" fill="#FAFAFA"/>
<g opacity="0.3">
<path opacity="0.3" d="M162.912 81.9473L133.227 84.5485L81.4929 89.0896L133.864 91.7698L138.77 147.788L168.45 145.187L162.912 81.9473Z" fill="black"/>
</g>
<g opacity="0.4">
<path opacity="0.4" d="M170.436 59.5212L142.472 61.9727L144.367 83.5834L172.33 81.132L170.436 59.5212Z" fill="black"/>
</g>
<path d="M112.886 122.027C112.488 122.854 111.978 123.621 111.37 124.308C110.9 124.876 110.34 125.363 109.712 125.749L108.843 126.243C107.597 126.938 106.181 127.271 104.756 127.205C98.4874 126.934 79.5481 126.04 75.9251 125.167C71.5864 124.105 52.6224 98.2754 52.6224 98.2754L40.475 106.82C40.475 106.82 53.9107 130.512 65.0413 138.41C72.1096 143.444 109.1 137.822 109.124 137.813C111.966 138.321 114.833 138.675 117.713 138.874C121.765 138.977 121.775 138.622 121.711 138.143C121.529 136.87 114.598 137.684 115.985 136.662C117.372 135.641 124.574 136.662 124.332 135.325C124.011 133.592 116.775 134.589 116.153 134.629C115.531 134.668 115.457 133.765 116.02 133.765C116.829 133.765 125.285 133.479 124.984 131.791C124.816 130.843 123.162 131.297 123.162 131.297C123.162 131.297 115.265 132.161 115.156 131.297C115.048 130.433 119.658 129.816 121.227 129.718C122.797 129.619 123.36 128.849 122.743 128.182C122.318 127.738 117.496 127.955 115.941 128.103C114.386 128.252 110.141 128.72 112.047 126.786C113.952 124.851 114.653 122.639 114.47 121.899C114.361 121.696 114.176 121.545 113.956 121.478C113.736 121.412 113.498 121.435 113.295 121.544C113.101 121.645 112.954 121.819 112.886 122.027Z" fill="#FFBE9D"/>
<path d="M42.8048 80.8809C42.8048 80.8809 32.617 91.5672 39.0979 107.081L47.6717 121.099L65.0611 107.93L42.8048 80.8809Z" fill="#455A64"/>
<path d="M166.954 82.9241C166.461 81.9369 165.474 81.31 164.615 81.9369C164.462 82.1849 164.375 82.4675 164.361 82.7584C164.347 83.0493 164.407 83.339 164.536 83.6003L168.978 92.9293L165.133 86.473C164.639 85.4858 163.588 84.9922 163.015 85.6487C162.884 85.8974 162.815 86.1745 162.815 86.4557C162.815 86.737 162.884 87.0141 163.015 87.2628L166.791 94.9925L163.943 90.2293C163.336 89.1384 162.774 88.9114 162.211 89.2421C161.648 89.5728 161.767 90.4465 161.974 90.8808L164.629 96.6066C164.422 97.8011 163.642 101.621 165.187 103.468C165.271 103.561 165.123 103.927 165.187 104.04L164.694 104.82L165.849 111.997C168.963 110.21 171.589 98.038 171.772 95.0962C171.914 93.4296 171.595 91.756 170.849 90.2589L166.954 82.9241Z" fill="#FFBE9D"/>
</g>
<defs>
<clipPath id="clip0">
<rect width="180" height="180" fill="white"/>
</clipPath>
</defs>
</svg>
