<svg width="360" height="142" viewBox="0 0 360 142" fill="none" xmlns="http://www.w3.org/2000/svg">
    <g clip-path="url(#clip0)">
        <path d="M362.4 74.3104C362.4 96.0025 362.3 117.607 362.4 139.299C362.4 141.477 361.9 142 359.3 142H304L290.5 138.864C281.4 136.599 272.9 138.515 264.8 142H68.5C66.7 140.519 66.5 138.428 65.8 136.512C57.6 111.683 38.2 97.7448 9.8 92.6049C6.6 91.9951 3 93.0405 0.1 91.0368C0.1 61.4172 0.2 31.8847 0 2.35215C0 -1.0454 1.1 -1.30675 4.5 -1.30675C79.2333 -1.19059 153.9 -1.19059 228.5 -1.30675C235.9 1.30675 243 4.26871 250.4 6.79509C251.052 6.94368 251.662 7.20547 252.195 7.56476C252.728 7.92405 253.172 8.37342 253.5 8.88589C254.4 11.5865 254.1 14.2871 253.7 16.9877C253.3 19.6883 253.1 20.908 253.1 22.9117V39.8994C253.244 42.8894 253.85 45.8488 254.9 48.6982C255.399 50.7002 256.206 52.6342 257.3 54.4479C258.212 56.0093 259.283 57.4962 260.5 58.8908C262.6 60.7202 264.3 62.9853 267.1 64.1178C268.151 64.4543 269.082 65.0251 269.8 65.773C271.235 66.9139 272.997 67.6964 274.9 68.038C277.3 68.9092 280 69.1705 282.2 70.6515C284.4 72.1325 283.7 74.4847 284.2 76.4883C285.29 81.3546 287.501 85.9778 290.7 90.0785C299.5 100.707 313.7 103.32 326.5 96.438C333.1 92.8663 338.7 88.3362 344.2 83.719C347.984 80.4103 352.215 77.5143 356.8 75.0945C358.5 74.3104 360.2 73.0037 362.4 74.3104Z" fill="#FEFEFE"/>
        <path d="M354.3 -1.30675C362.4 -1.30675 362.4 -1.30675 362.4 5.74969V48.7853C359.6 51.6601 355.4 52.1828 351.9 53.6638C339.6 58.8908 327.9 65.0761 314.7 68.735L306.1 70.9129C300.074 71.9278 293.922 72.25 287.8 71.8712C285.815 71.7507 283.894 71.2126 282.2 70.3031C279.9 68.8221 280.6 66.6442 280.5 64.6405C280.2 57.2356 280.5 49.8307 279.7 42.3386C278.2 28.0515 271.5 17.2491 255.8 11.4123C254.838 11.152 253.974 10.6705 253.3 10.0184C252.3 7.23068 252.5 4.26871 251.8 1.48098C251.718 0.987325 251.756 0.48423 251.911 0.00409329C252.066 -0.476043 252.335 -0.922575 252.7 -1.30675H315.1C317.1 0.871167 316 3.74601 317.6 6.09816C318.908 8.28871 320.557 10.3115 322.5 12.1092C323.184 12.7161 323.788 13.3882 324.3 14.1129C328.9 19.427 334.9 22.3018 342.6 20.6466C350.3 18.9914 354.1 14.6356 355.6 8.10184C356.3 4.79141 353.6 2.00368 354.3 -1.30675Z" fill="#FE6600"/>
        <path d="M362.4 74.3104C355 76.4012 349.5 80.9313 344 85.3742C338.5 89.8172 335.1 92.8662 329.9 95.9153C312.3 106.195 294 101.491 285.6 84.3288C283.559 80.1822 282.341 75.7634 282 71.2613C285.5 70.3902 288.9 71.3485 292.4 71.2613C297.222 71.2922 302.039 70.9716 306.8 70.3031C323.1 66.9055 337.3 59.2393 352.2 53.054C355.4 51.8343 358.4 49.5693 362.4 50.5276V74.3104Z" fill="#FE6600"/>
        <path d="M0.0991669 90.9497C28.1992 89.5558 57.7992 108.634 66.3992 133.811C67.2992 136.512 67.7992 139.212 68.4992 141.913H35.2992C30.7992 138.08 28.1992 132.766 22.6992 129.717L21.5992 129.02C19.6882 127.36 17.5367 125.925 15.1992 124.751C10.4992 122.137 4.89917 120.831 0.0991669 118.217V90.9497Z" fill="#FE6600"/>
        <path d="M34.3 141.913H2.6C0.500002 141.913 2.30223e-06 141.564 0.100002 139.648C0.200002 132.766 0.100002 125.883 0.100002 119.001C5.9 119.263 10.6 122.05 15.4 124.402C18 125.535 20 127.277 22.3 128.671H22.2C27.3 132.417 31.9 136.425 34.3 141.913Z" fill="#FE6600"/>
        <path d="M325.6 1.74234H352.8C355 4.26872 353.9 6.88222 353.1 9.49571C351.1 14.5485 347.1 17.7718 341 18.7301C338.9 18.643 336.9 19.5141 334.9 19.1657C332.9 18.8172 327.7 17.946 325.1 15.5068C323.927 14.8918 323.041 13.9352 322.6 12.8061C322 8.79878 321.5 4.79142 325.6 1.74234Z" fill="#FEFDFD"/>
        <path d="M338.3 14.5485C344 13.9387 347.3 10.8896 349.4 6.44663C352.3 4.44295 350.3 0.958283 352.3 -1.30675H354.3C359 6.35951 357 14.5485 349.5 19.2528C342 23.9571 332.6 23.173 325.8 17.162C324.9 16.3779 324.1 15.5068 323.2 14.6356C326.2 13.0675 328.5 15.681 331.2 15.5068C332.381 15.8774 333.65 15.9839 334.89 15.8165C336.131 15.649 337.303 15.213 338.3 14.5485Z" fill="#FDFDFC"/>
        <path d="M264.8 141.913C269.1 137.557 275.2 136.773 281.3 136.686C289.274 136.578 297.128 138.387 304 141.913H264.8Z" fill="#031469"/>
        <path d="M252.7 -1.30675V1.21963C253.1 3.6589 253.8 6.09816 252.5 8.53743C244.3 5.66258 235.7 3.48466 228.5 -1.30675H252.7Z" fill="#FD6603"/>
        <path d="M323.1 -1.30675C321.347 2.29151 320.66 6.21556 321.1 10.1055C317 8.01472 315.2 3.83313 316.1 -1.30675H323.1Z" fill="#FA6604"/>
        <path d="M254.1 9.58282C270.6 14.8098 279 25.3509 280.9 40.335C282.2 50.092 281.1 59.8491 281.8 69.6061C279.3 70.3902 277.3 69.1706 275.1 68.5607C272.9 67.9509 271.2 66.5571 268.8 66.4699L267.3 64.6405C264.1 63.508 262.3 60.9816 260.1 58.8908C258.884 57.3868 257.781 55.8154 256.8 54.1865C255.694 52.2277 254.79 50.1869 254.1 48.0883C253.1 44.9521 252.8 41.6417 252.2 38.4184C251.6 35.1951 252.1 29.7939 252.2 25.438C253 23.3472 252.6 21.2564 252.7 19.1656C252.8 17.0748 252 12.5448 254.1 9.58282Z" fill="#FEFEFE"/>
        <path d="M251.3 0C251.2 8.97301 250.9 17.8589 250.3 26.8319C249.7 35.8049 248.7 47.5656 254.3 56.2773C261.1 66.9055 276.3 71.8712 290.2 71.1742C304.1 70.4773 317.2 65.2503 329.7 59.762C342.2 54.2736 354.7 48.3497 368.4 46.1718" stroke="black" stroke-width="2" stroke-miterlimit="10"/>
        <path d="M313.3 -1.13251C313.142 1.88927 313.922 4.89233 315.559 7.56011C317.195 10.2279 319.628 12.4616 322.6 14.0258C325.662 15.4744 329.113 16.182 332.595 16.0747C336.078 15.9675 339.463 15.0494 342.4 13.416C345.251 11.6681 347.502 9.27687 348.911 6.49896C350.321 3.72104 350.835 0.661234 350.4 -2.35214" stroke="black" stroke-width="2" stroke-miterlimit="10"/>
        <path d="M-3.8 119.698C-3.01927 119.497 -2.2133 119.38 -1.4 119.35C7.26625 118.924 15.7882 121.42 22.4 126.319C28.9881 131.23 33.1734 138.148 34.1 145.659" stroke="black" stroke-width="2" stroke-miterlimit="10"/>
    </g>
    <defs>
        <clipPath id="clip0">
            <rect width="360" height="142" fill="white"/>
        </clipPath>
    </defs>
</svg>
