<svg width="69" height="31" viewBox="0 0 69 31" fill="none" xmlns="http://www.w3.org/2000/svg">
    <path d="M15.5331 2.30468C15.5279 3.26234 15.5285 4.22001 15.5136 5.17898C15.5097 5.39716 15.6338 5.41349 15.7916 5.45073C18.7366 6.14056 20.9864 7.79024 22.5412 10.3998C22.9706 11.1216 22.7003 11.7539 21.9019 11.9937C21.7025 12.0538 21.6193 12.0015 21.531 11.8212C20.285 9.27355 18.2887 7.65153 15.5506 6.97803C10.7233 5.78911 5.7264 8.98416 4.81823 13.8208C3.78339 19.331 8.01696 24.3702 13.6115 24.2872C18.0081 24.2219 21.6356 21.0556 22.2716 16.7278C22.3365 16.2862 22.3365 16.2862 21.8876 16.2862C20.3396 16.2862 18.7916 16.2953 17.2435 16.2777C16.9505 16.2744 16.844 16.3718 16.7511 16.6403C16.5011 17.3841 16.0055 18.0196 15.3467 18.4411C14.6878 18.8626 13.9055 19.0448 13.1295 18.9573C12.3593 18.8702 11.6406 18.5252 11.0889 17.9778C10.5372 17.4305 10.1844 16.7125 10.0873 15.9393C9.86318 14.252 10.976 12.5914 12.6143 12.1701C14.3241 11.7298 16.0573 12.6006 16.6998 14.2232C16.8992 14.7256 16.8992 14.7256 17.439 14.7262C19.258 14.7262 21.0769 14.736 22.8959 14.7262C23.3928 14.723 23.7696 14.8445 23.9138 15.3716V16.3515C23.8229 16.8519 23.767 17.3621 23.6358 17.854C22.536 21.961 19.9108 24.5171 15.8241 25.5682C15.6013 25.6257 15.5058 25.6989 15.5116 25.9504C15.5298 26.7774 15.5116 27.6051 15.522 28.4327C15.522 28.6287 15.4798 28.7091 15.2719 28.694C14.9907 28.6773 14.7087 28.6773 14.4274 28.694C14.2169 28.7071 14.176 28.6215 14.178 28.4327C14.1877 27.6599 14.178 26.8871 14.1864 26.1143C14.1896 25.8975 14.1494 25.7988 13.9058 25.821C13.6361 25.8462 13.3647 25.8462 13.095 25.821C12.8644 25.7995 12.8222 25.8942 12.8241 26.0961C12.8319 26.8584 12.8189 27.6207 12.8319 28.3824C12.8358 28.6169 12.7832 28.7221 12.5279 28.6986C12.2796 28.677 12.0298 28.677 11.7815 28.6986C11.5418 28.7182 11.497 28.6169 11.5002 28.3994C11.5113 27.6155 11.4879 26.8316 11.5126 26.0477C11.5223 25.74 11.4359 25.6277 11.1306 25.5552C8.34632 24.8888 6.15775 23.3472 4.64413 20.904C1.32393 15.5532 3.58525 8.49226 9.37726 6.0367C9.95673 5.79107 10.5466 5.57419 11.165 5.46314C11.4638 5.40957 11.5139 5.28023 11.51 5.0124C11.4957 4.10895 11.5048 3.20551 11.5054 2.30206H12.8047C12.8118 3.05983 12.8215 3.81826 12.8261 4.57603C12.83 5.19596 12.8261 5.19531 13.4263 5.19335C13.6095 5.19335 13.7934 5.19008 13.9759 5.20249C14.1305 5.21295 14.1851 5.15546 14.1838 4.99999C14.1754 4.10111 14.1728 3.20159 14.1689 2.30206L15.5331 2.30468ZM16.017 15.4964C16.0137 14.9958 15.8627 14.5074 15.5833 14.093C15.3038 13.6787 14.9084 13.357 14.4471 13.1687C13.9858 12.9803 13.4793 12.9338 12.9917 13.035C12.5041 13.1362 12.0573 13.3806 11.7079 13.7372C11.3584 14.0938 11.122 14.5467 11.0286 15.0384C10.9351 15.5302 10.9888 16.0388 11.1829 16.4998C11.3769 16.9609 11.7026 17.3537 12.1187 17.6286C12.5348 17.9035 13.0227 18.0481 13.5205 18.0441C13.8511 18.0427 14.1782 17.9756 14.4829 17.8467C14.7876 17.7177 15.0639 17.5294 15.2959 17.2926C15.528 17.0558 15.7111 16.7752 15.8349 16.4669C15.9586 16.1587 16.0205 15.8288 16.017 15.4964Z" fill="#001469"/>
    <path d="M19.827 12.1505C18.3388 12.1877 17.0122 11.8376 15.7572 11.2085C15.0222 10.832 14.2069 10.6416 13.3822 10.6539C11.0773 10.6859 9.03947 12.4608 8.68867 14.7569C8.5623 15.6472 8.68143 16.5554 9.03307 17.3822C9.38471 18.2091 9.95537 18.9231 10.6828 19.4462C11.4103 19.9694 12.2666 20.2816 13.1584 20.349C14.0502 20.4163 14.9433 20.2362 15.7403 19.8281C16.8896 19.2384 18.1536 18.9094 19.4431 18.8646C19.5471 18.8607 19.6887 18.8143 19.7471 18.9129C19.8056 19.0116 19.6926 19.1089 19.6367 19.1945C18.0776 21.5886 15.8774 22.7416 13.0281 22.6123C9.92165 22.4712 7.15427 20.1234 6.4988 17.0276C5.67314 13.1317 8.15858 9.30556 12.0453 8.53538C14.9445 7.95856 17.8223 9.13311 19.4704 11.5678C19.5867 11.7337 19.6835 11.9127 19.827 12.1505Z" fill="#FF6600"/>
    <path d="M41.4997 22.1759C41.1814 22.5199 40.705 22.8831 40.0705 23.2655C39.436 23.6479 38.6426 23.9712 37.6903 24.2356C36.7354 24.5025 35.6128 24.636 34.3227 24.636C32.7229 24.636 31.3288 24.2974 30.1404 23.6202C28.952 22.943 28.0294 21.9505 27.3724 20.6427C26.715 19.3336 26.3865 17.7347 26.3869 15.8459V15.0326C26.3869 13.136 26.7176 11.531 27.3789 10.2175C28.0402 8.90401 28.9497 7.9065 30.1073 7.22494C31.2679 6.54556 32.5914 6.20587 34.0778 6.20587C35.7512 6.20587 37.1106 6.47066 38.1561 7.00022C39.2015 7.52979 39.9893 8.26666 40.5194 9.21082C41.0499 10.155 41.3726 11.2437 41.4873 12.4771H37.066C36.9924 11.9022 36.8495 11.426 36.6373 11.0484C36.4337 10.6793 36.1214 10.3826 35.7434 10.1992C35.3592 10.0102 34.8571 9.91568 34.2369 9.91568C33.6313 9.90301 33.0388 10.0938 32.5531 10.4579C32.0767 10.8193 31.7073 11.3755 31.4449 12.1263C31.1824 12.8771 31.0525 13.8398 31.0551 15.0143V15.8518C31.0551 17.0015 31.1796 17.952 31.4286 18.7032C31.6776 19.4544 32.0674 20.0128 32.5979 20.3781C33.1285 20.7431 33.8142 20.9258 34.6553 20.9262C35.0107 20.9316 35.3657 20.9005 35.7148 20.8335C35.9656 20.7825 36.21 20.7039 36.4437 20.5989C36.6065 20.5294 36.7594 20.4384 36.8984 20.3285V17.8899H34.1148V14.6139H41.4997V22.1759Z" fill="#001469"/>
    <path d="M48.6883 24.3924H44.1092V6.4613H48.6896L48.6883 24.3924Z" fill="#001469"/>
    <path d="M66.1157 18.2257C66.0672 19.4886 65.7324 20.6031 65.1114 21.569C64.4903 22.535 63.6311 23.2884 62.5337 23.8293C61.4354 24.3688 60.1444 24.6386 58.6606 24.6386C57.0522 24.6386 55.6765 24.2835 54.5336 23.5732C53.3907 22.8629 52.5181 21.8469 51.9156 20.5251C51.3154 19.2038 51.0153 17.6275 51.0153 15.7962V15.0698C51.0153 13.2303 51.3297 11.6496 51.9585 10.3279C52.5874 9.00614 53.4672 7.98816 54.5979 7.27394C55.7283 6.56189 57.057 6.20587 58.584 6.20587C60.1678 6.20587 61.5006 6.4933 62.5824 7.06816C63.6642 7.64302 64.5012 8.42692 65.0932 9.41986C65.6848 10.4137 66.0338 11.5344 66.1404 12.7821H61.5599C61.5439 11.8458 61.3193 11.1479 60.8862 10.6885C60.4532 10.229 59.6857 9.99777 58.584 9.99472C57.9227 9.99472 57.3777 10.1528 56.9489 10.469C56.5202 10.7852 56.2029 11.3108 55.9972 12.0459C55.7885 12.7811 55.6843 13.7807 55.6847 15.045V15.7962C55.6847 17.0688 55.7766 18.0724 55.9602 18.8071C56.1438 19.5418 56.4541 20.0644 56.8911 20.3749C57.3276 20.6871 57.9175 20.8433 58.6606 20.8433C59.273 20.8433 59.7914 20.7529 60.2158 20.5722C60.6251 20.4053 60.9678 20.1066 61.1903 19.7229C61.415 19.3371 61.5315 18.8363 61.5398 18.2205L66.1157 18.2257Z" fill="#001469"/>
</svg>
