<svg width="243" height="243" viewBox="0 0 243 243" fill="none" xmlns="http://www.w3.org/2000/svg">
<path d="M17.1752 206.015V218.213H19.9892C19.8416 216.93 19.8416 215.633 19.9892 214.35C20.2565 212.916 23.3134 209.213 23.2211 206.034L17.1752 206.015Z" fill="#EBEBEB"/>
<path d="M39.6867 206.015V218.213H42.5006C42.3531 216.93 42.3531 215.633 42.5006 214.35C42.7679 212.916 45.8249 209.213 45.7325 206.034L39.6867 206.015Z" fill="#E0E0E0"/>
<path d="M61.722 206.015V218.213H58.9032C59.0481 216.929 59.0481 215.633 58.9032 214.35C58.631 212.916 55.5789 209.213 55.6664 206.034L61.722 206.015Z" fill="#EBEBEB"/>
<path d="M81.2008 206.015V218.213H78.3869C78.5318 216.929 78.5318 215.633 78.3869 214.35C78.1196 212.916 75.0627 209.213 75.155 206.034L81.2008 206.015Z" fill="#E0E0E0"/>
<path d="M82.6783 145.863H15.2604V206.404H82.6783V145.863Z" fill="#F5F5F5"/>
<path d="M64.5165 145.863L65.0171 206.404H82.6783V145.863H64.5165Z" fill="#E0E0E0"/>
<path d="M61.5762 150.319H18.293V165.726H61.5762V150.319Z" fill="#EBEBEB"/>
<path d="M61.5762 168.792H18.293V184.198H61.5762V168.792Z" fill="#EBEBEB"/>
<path d="M61.5762 187.271H18.293V202.677H61.5762V187.271Z" fill="#EBEBEB"/>
<path d="M34.885 128.469L33.0188 145.795H56.9397L58.9226 128.469H34.885Z" fill="#E0E0E0"/>
<path d="M35.8717 129.713L34.054 144.871H55.6421L57.3869 129.713H35.8717Z" fill="white"/>
<path d="M39.5021 132.265L38.3843 142.325H52.0069L52.7067 132.265H39.5021Z" fill="#EBEBEB"/>
<path d="M58.0673 135.929L63.0099 145.863L56.9398 145.795L58.0673 135.929Z" fill="#EBEBEB"/>
<path d="M41.5189 158.825C41.5199 159.138 41.4278 159.445 41.2543 159.706C41.0808 159.967 40.8337 160.171 40.5443 160.292C40.2548 160.412 39.9361 160.445 39.6285 160.384C39.3208 160.323 39.0381 160.173 38.816 159.952C38.5939 159.73 38.4425 159.448 38.381 159.14C38.3195 158.833 38.3506 158.514 38.4704 158.224C38.5901 157.935 38.7932 157.687 39.0538 157.512C39.3145 157.338 39.621 157.245 39.9346 157.245C40.3539 157.245 40.7562 157.411 41.0532 157.707C41.3502 158.004 41.5177 158.405 41.5189 158.825Z" fill="#E0E0E0"/>
<path d="M41.5189 177.487C41.5189 177.8 41.426 178.106 41.2519 178.367C41.0778 178.627 40.8304 178.831 40.5409 178.95C40.2514 179.07 39.9328 179.102 39.6255 179.041C39.3182 178.979 39.0358 178.829 38.8143 178.607C38.5927 178.385 38.4418 178.103 38.3807 177.796C38.3195 177.488 38.3509 177.17 38.4708 176.88C38.5907 176.591 38.7938 176.343 39.0544 176.169C39.3149 175.995 39.6212 175.902 39.9346 175.902C40.1428 175.902 40.3491 175.942 40.5417 176.022C40.7342 176.101 40.9091 176.218 41.0563 176.365C41.2036 176.512 41.3203 176.687 41.3997 176.88C41.479 177.072 41.5196 177.278 41.5189 177.487Z" fill="#E0E0E0"/>
<path d="M41.5189 196.145C41.5189 196.458 41.426 196.765 41.2519 197.025C41.0778 197.286 40.8304 197.489 40.5409 197.609C40.2514 197.729 39.9328 197.76 39.6255 197.699C39.3182 197.638 39.0358 197.487 38.8143 197.265C38.5927 197.044 38.4418 196.761 38.3807 196.454C38.3195 196.147 38.3509 195.828 38.4708 195.539C38.5907 195.249 38.7938 195.002 39.0544 194.828C39.3149 194.653 39.6212 194.561 39.9346 194.561C40.3548 194.561 40.7578 194.727 41.0549 195.025C41.352 195.322 41.5189 195.725 41.5189 196.145Z" fill="#E0E0E0"/>
<path d="M61.5081 47.4475L23.2842 47.0781L24.3486 96.8931L62.5725 97.0341L61.5081 47.4475Z" fill="#E0E0E0"/>
<path d="M59.0441 49.6688L25.583 48.8037L26.5501 93.9823L60.0015 94.3954L59.0441 49.6688Z" fill="#FAFAFA"/>
<path d="M53.3336 56.4192L31.1283 56.0498L31.8087 87.6301L53.9897 87.1538L53.3336 56.4192Z" fill="#EBEBEB"/>
<path d="M31.8087 87.6301L53.6447 70.9311L31.1283 56.0498L31.8087 87.6301Z" fill="#F5F5F5"/>
<path d="M225.995 21.4809L192.456 21.1553L193.394 64.8612L226.923 64.9827L225.995 21.4809Z" fill="#E0E0E0"/>
<path d="M223.827 23.4349L194.473 22.6719L195.323 62.3052L224.668 62.6648L223.827 23.4349Z" fill="#FAFAFA"/>
<path d="M218.817 29.3539L199.343 29.0283L199.936 56.7303L219.395 56.3172L218.817 29.3539Z" fill="#EBEBEB"/>
<path d="M199.936 56.7303L219.094 42.0823L199.343 29.0283L199.936 56.7303Z" fill="#F5F5F5"/>
<path d="M188.427 185.798C188.286 186.226 193.287 205.238 193.287 205.238L196.718 204.523L191.999 185.798H188.427Z" fill="#EBEBEB"/>
<path d="M215.016 183.081L208.154 205.238H212.158L218.734 184.656L215.016 183.081Z" fill="#F5F5F5"/>
<path d="M221.305 179.649L213.441 205.237H217.446L225.023 181.224L221.305 179.649Z" fill="#EBEBEB"/>
<path d="M190.857 203.668L194.862 217.534H215.016L218.734 203.668H190.857Z" fill="#E0E0E0"/>
<path d="M201.253 203.667C201.235 203.62 201.22 203.571 201.209 203.522L201.102 203.099C201.01 202.71 200.883 202.161 200.718 201.461L199.333 195.405L194.808 175.212L194.93 175.314H191.401L191.523 175.159C193.316 183.105 194.925 190.225 196.077 195.367C196.64 197.928 197.097 199.993 197.418 201.442C197.564 202.146 197.685 202.695 197.768 203.089C197.802 203.269 197.831 203.41 197.851 203.517C197.858 203.567 197.858 203.618 197.851 203.667C197.833 203.62 197.818 203.571 197.807 203.522C197.778 203.415 197.744 203.274 197.7 203.099C197.603 202.71 197.472 202.161 197.301 201.461C196.966 200.003 196.485 197.957 195.887 195.405C194.706 190.264 193.078 183.153 191.26 175.212L191.222 175.062H195.012L195.037 175.159C196.781 183.105 198.351 190.225 199.484 195.367C200.033 197.928 200.48 199.993 200.791 201.442C200.937 202.146 201.048 202.695 201.131 203.089L201.214 203.517C201.235 203.565 201.248 203.616 201.253 203.667Z" fill="#E0E0E0"/>
<path d="M220.95 218.112C220.95 218.18 174.809 218.238 117.918 218.238C61.027 218.238 14.8862 218.18 14.8862 218.112C14.8862 218.044 61.0173 217.985 117.942 217.985C174.868 217.985 220.95 218.044 220.95 218.112Z" fill="#263238"/>
<path d="M207.682 85.463C207.571 85.4161 207.456 85.3803 207.337 85.3561C206.99 85.2779 206.63 85.2779 206.283 85.3561C205.72 85.5008 205.197 85.7699 204.752 86.1434C204.147 86.6674 203.622 87.2783 203.197 87.9562C202.2 89.4822 201.418 91.5915 200.504 94.0506C199.447 96.8588 198.532 99.7184 197.763 102.619C197.62 102.886 197.429 103.125 197.199 103.324C197.081 103.431 196.941 103.512 196.788 103.561C196.635 103.61 196.474 103.625 196.315 103.605C196.003 103.526 195.721 103.357 195.503 103.119C195.275 102.91 195.061 102.687 194.847 102.458C194.425 101.994 193.976 101.556 193.501 101.146C193.042 100.705 192.432 100.456 191.795 100.451C191.477 100.506 191.173 100.626 190.904 100.805C190.636 100.985 190.408 101.218 190.235 101.491C189.89 102.082 189.704 102.752 189.696 103.435C189.613 104.825 190.016 106.23 190.259 107.683C190.502 109.136 190.808 110.628 191.09 112.149C191.236 112.912 191.377 113.68 191.523 114.458L191.742 115.634C191.808 115.839 191.83 116.057 191.806 116.271C191.782 116.486 191.712 116.693 191.601 116.878C191.528 116.976 191.427 117.049 191.311 117.088C191.196 117.127 191.071 117.13 190.954 117.097C190.744 117.036 190.548 116.935 190.376 116.8L189.404 116.062C188.742 115.562 188.055 115.098 187.343 114.672C186.631 114.228 185.854 113.9 185.04 113.7C184.637 113.605 184.218 113.605 183.815 113.7C183.414 113.801 183.06 114.038 182.814 114.37C182.346 115.092 182.117 115.942 182.158 116.8C182.159 117.685 182.245 118.567 182.415 119.434C182.766 121.218 183.262 122.97 183.898 124.673C184.083 125.109 184.224 125.561 184.32 126.025C184.344 126.156 184.34 126.29 184.309 126.42C184.278 126.549 184.221 126.671 184.141 126.778C184.097 126.828 184.05 126.876 184 126.919C183.945 126.968 183.88 127.006 183.81 127.031C183.662 127.053 183.511 127.018 183.387 126.933C182.983 126.674 182.607 126.375 182.265 126.039L181.225 125.067C180.543 124.408 179.803 123.812 179.013 123.288C178.62 123.03 178.188 122.833 177.735 122.705C177.52 122.638 177.293 122.618 177.069 122.646C176.845 122.673 176.63 122.748 176.437 122.866C176.062 123.138 175.801 123.54 175.704 123.993C175.587 124.457 175.528 124.934 175.529 125.412C175.533 126.395 175.656 127.374 175.893 128.328C176.373 130.267 177.083 132.142 178.007 133.912C178.927 135.728 179.978 137.474 181.152 139.137C181.739 139.981 182.372 140.792 183.047 141.567C183.698 142.374 184.359 143.175 185.02 143.997V144.026L184.904 143.977L187.995 143.53C189.019 143.408 190.036 143.233 191.042 143.005C193.025 142.559 194.974 141.973 196.874 141.251C198.748 140.558 200.535 139.646 202.195 138.534C203.011 137.994 203.757 137.356 204.416 136.634C204.742 136.28 205.021 135.887 205.248 135.463C205.479 135.062 205.555 134.589 205.461 134.136C205.399 133.919 205.291 133.718 205.144 133.546C204.997 133.374 204.815 133.235 204.611 133.14C204.188 132.933 203.738 132.789 203.274 132.712C202.337 132.57 201.389 132.513 200.441 132.542H199.022C198.534 132.561 198.045 132.53 197.564 132.449C197.414 132.43 197.278 132.354 197.185 132.236C197.149 132.169 197.128 132.097 197.122 132.022C197.114 131.956 197.114 131.889 197.122 131.823C197.136 131.691 197.177 131.563 197.241 131.447C197.306 131.331 197.392 131.229 197.496 131.147C197.878 130.87 198.287 130.631 198.716 130.433C200.333 129.601 201.879 128.637 203.338 127.551C204.043 127.024 204.695 126.428 205.282 125.772C205.888 125.165 206.289 124.383 206.428 123.536C206.469 123.124 206.366 122.71 206.137 122.365C205.905 122.023 205.595 121.739 205.233 121.539C204.5 121.136 203.708 120.852 202.886 120.698C202.073 120.534 201.252 120.416 200.426 120.343L199.202 120.227C198.983 120.214 198.77 120.156 198.575 120.056C198.466 120 198.377 119.913 198.319 119.805C198.261 119.698 198.236 119.575 198.249 119.454C198.294 119.243 198.382 119.045 198.509 118.87C198.635 118.696 198.797 118.551 198.983 118.443L199.955 117.724L201.826 116.3L205.442 113.554C206.603 112.645 207.843 111.877 208.718 110.788C209.165 110.28 209.473 109.663 209.612 109C209.668 108.681 209.657 108.354 209.578 108.04C209.499 107.726 209.355 107.432 209.155 107.177C208.943 106.943 208.668 106.774 208.363 106.691C208.058 106.601 207.743 106.549 207.425 106.536C206.799 106.52 206.172 106.542 205.549 106.604C205.238 106.604 204.927 106.648 204.621 106.653C204.302 106.676 203.982 106.607 203.702 106.453C203.568 106.363 203.455 106.244 203.371 106.106C203.287 105.967 203.234 105.812 203.216 105.651C203.18 105.349 203.198 105.043 203.269 104.747C204.661 102.112 205.918 99.4081 207.036 96.6459C208.008 94.2159 208.849 92.1261 209.15 90.3279C209.297 89.5429 209.33 88.7408 209.247 87.9465C209.184 87.369 208.99 86.8137 208.679 86.3232C208.49 86.0231 208.234 85.7717 207.93 85.5894C207.827 85.5261 207.718 85.4724 207.605 85.429C207.722 85.4606 207.835 85.5081 207.94 85.5699C208.253 85.7487 208.519 85.9984 208.718 86.2989C209.035 86.7934 209.236 87.3534 209.306 87.9367C209.4 88.7379 209.376 89.5485 209.233 90.3424C208.941 92.1455 208.115 94.2304 207.148 96.6604C206.053 99.4543 204.817 102.191 203.444 104.859C203.377 105.133 203.361 105.416 203.396 105.695C203.409 105.833 203.451 105.966 203.52 106.086C203.589 106.205 203.682 106.309 203.794 106.39C204.048 106.524 204.335 106.583 204.621 106.56C204.922 106.56 205.228 106.531 205.539 106.507C206.17 106.443 206.805 106.419 207.439 106.434C207.769 106.447 208.095 106.501 208.411 106.594C208.745 106.683 209.048 106.863 209.286 107.114C209.498 107.387 209.651 107.7 209.734 108.035C209.818 108.37 209.831 108.718 209.772 109.058C209.631 109.755 209.309 110.402 208.839 110.934C207.94 112.052 206.691 112.83 205.539 113.743L201.928 116.494L200.062 117.913L199.114 118.637C198.954 118.744 198.809 118.872 198.682 119.016C198.565 119.155 198.487 119.323 198.458 119.502C198.45 119.583 198.466 119.665 198.505 119.736C198.544 119.807 198.604 119.865 198.677 119.901C198.849 119.984 199.035 120.032 199.226 120.042L200.451 120.159C201.283 120.229 202.111 120.348 202.929 120.513C203.78 120.67 204.6 120.96 205.359 121.374C205.747 121.596 206.079 121.904 206.331 122.273C206.585 122.659 206.701 123.119 206.662 123.58C206.517 124.476 206.098 125.305 205.461 125.952C204.858 126.619 204.19 127.226 203.469 127.764C202.001 128.862 200.445 129.837 198.818 130.68C198.404 130.868 198.01 131.096 197.642 131.361C197.561 131.423 197.494 131.5 197.443 131.589C197.393 131.677 197.362 131.775 197.35 131.876C197.345 131.924 197.345 131.973 197.35 132.022C197.35 132.061 197.35 132.153 197.384 132.148C197.446 132.204 197.524 132.24 197.608 132.25C198.064 132.324 198.526 132.353 198.988 132.338H200.407C201.369 132.303 202.333 132.36 203.284 132.508C203.775 132.584 204.25 132.737 204.693 132.96C204.928 133.072 205.136 133.233 205.303 133.431C205.471 133.63 205.594 133.862 205.665 134.112C205.776 134.622 205.693 135.156 205.432 135.608C205.197 136.051 204.907 136.461 204.567 136.828C203.895 137.567 203.134 138.22 202.302 138.772C200.627 139.899 198.822 140.821 196.927 141.518C195.012 142.249 193.047 142.84 191.047 143.287C190.038 143.516 189.017 143.691 187.99 143.812L184.894 144.264H184.821L184.777 144.206H184.753L182.78 141.776C182.105 140.999 181.47 140.188 180.879 139.346C179.697 137.671 178.638 135.912 177.711 134.082C176.782 132.292 176.069 130.398 175.587 128.44C175.341 127.473 175.215 126.478 175.213 125.48C175.213 124.979 175.275 124.479 175.397 123.993C175.512 123.484 175.809 123.034 176.233 122.729C176.455 122.593 176.703 122.504 176.961 122.471C177.219 122.437 177.481 122.459 177.73 122.535C178.206 122.67 178.658 122.876 179.072 123.147C179.875 123.679 180.626 124.284 181.317 124.955L182.357 125.927C182.688 126.248 183.049 126.537 183.436 126.788C183.505 126.838 183.588 126.865 183.674 126.865C183.674 126.865 183.747 126.822 183.781 126.797L183.888 126.69C183.947 126.608 183.988 126.515 184.01 126.417C184.032 126.318 184.033 126.216 184.014 126.117C183.922 125.672 183.785 125.237 183.606 124.819C182.967 123.104 182.47 121.338 182.119 119.541C181.946 118.659 181.86 117.762 181.861 116.863C181.823 115.955 182.071 115.057 182.571 114.297C182.848 113.928 183.242 113.665 183.689 113.549C184.125 113.447 184.579 113.447 185.015 113.549C185.85 113.746 186.649 114.074 187.382 114.521C188.102 114.948 188.797 115.417 189.462 115.925L190.434 116.664C190.579 116.781 190.744 116.872 190.92 116.932C190.999 116.954 191.082 116.953 191.159 116.927C191.237 116.901 191.304 116.851 191.353 116.786C191.449 116.641 191.504 116.473 191.513 116.3C191.518 116.107 191.497 115.914 191.45 115.726C191.377 115.333 191.309 114.944 191.236 114.555C191.09 113.777 190.949 113.005 190.808 112.246C190.531 110.72 190.254 109.233 189.987 107.78C189.72 106.327 189.346 104.918 189.428 103.484C189.442 102.773 189.64 102.079 190.002 101.467C190.189 101.171 190.437 100.918 190.729 100.726C191.022 100.533 191.352 100.405 191.698 100.349C192.042 100.321 192.387 100.39 192.694 100.548C192.992 100.693 193.272 100.874 193.525 101.088C194.006 101.503 194.46 101.948 194.886 102.42C195.093 102.646 195.307 102.865 195.528 103.076C195.725 103.285 195.978 103.435 196.257 103.508C196.394 103.524 196.533 103.509 196.665 103.467C196.796 103.424 196.917 103.354 197.02 103.26C197.232 103.077 197.41 102.856 197.544 102.609C198.323 99.7039 199.251 96.8408 200.324 94.0312C201.248 91.5769 202.045 89.4628 203.061 87.9367C203.495 87.2551 204.029 86.6424 204.645 86.1191C205.098 85.7434 205.632 85.4773 206.205 85.3415C206.557 85.2586 206.923 85.2586 207.274 85.3415C207.416 85.3585 207.554 85.3996 207.682 85.463Z" fill="#263238"/>
<path d="M205.131 92.0732C205.122 92.1288 205.106 92.1828 205.082 92.2336L204.917 92.6905C204.757 93.1036 204.533 93.6916 204.251 94.4352C203.658 95.9661 202.818 98.158 201.777 100.855L193.705 122.064C190.565 130.326 187.688 137.845 185.56 143.249C184.5 145.951 183.616 148.133 183.013 149.64C182.712 150.379 182.474 150.957 182.303 151.365C182.221 151.555 182.163 151.701 182.114 151.817L182.041 151.963C182.05 151.909 182.066 151.857 182.09 151.808C182.128 151.691 182.187 151.54 182.255 151.351C182.415 150.933 182.639 150.35 182.921 149.601C183.514 148.07 184.354 145.883 185.394 143.186L193.467 121.987C196.606 113.7 199.479 106.211 201.612 100.807C202.672 98.1045 203.556 95.9175 204.159 94.4158C204.46 93.677 204.698 93.0938 204.868 92.6856C204.951 92.5009 205.009 92.3503 205.058 92.2385L205.131 92.0732Z" fill="#263238"/>
<path d="M205.393 108.863C205.009 109.138 204.603 109.381 204.178 109.587L201.204 111.24C200.038 111.886 198.978 112.465 198.196 112.858C197.784 113.092 197.349 113.281 196.898 113.422C197.285 113.152 197.691 112.91 198.113 112.698L201.078 111.021C202.244 110.375 203.308 109.811 204.096 109.427C204.509 109.198 204.944 109.009 205.393 108.863Z" fill="#263238"/>
<path d="M196.504 113.112C196.441 113.141 195.285 110.935 193.924 108.184C192.563 105.433 191.494 103.178 191.567 103.144C191.64 103.11 192.786 105.321 194.152 108.072C195.518 110.823 196.568 113.078 196.504 113.112Z" fill="#263238"/>
<path d="M192.257 126.054C191.868 125.767 191.51 125.441 191.188 125.082C190.556 124.45 189.73 123.551 188.83 122.511C187.931 121.471 187.202 120.489 186.687 119.76C186.384 119.384 186.122 118.976 185.905 118.545C186.239 118.892 186.547 119.262 186.828 119.653C187.382 120.353 188.145 121.31 189.025 122.345C189.905 123.381 190.721 124.289 191.314 124.955C191.655 125.297 191.971 125.664 192.257 126.054Z" fill="#263238"/>
<path d="M201.146 123.964C200.731 124.13 200.301 124.257 199.863 124.343C199.066 124.542 197.957 124.8 196.733 125.072C195.508 125.344 194.39 125.558 193.584 125.733C193.15 125.842 192.708 125.909 192.262 125.932C192.677 125.768 193.106 125.642 193.545 125.558C194.342 125.359 195.45 125.072 196.679 124.824C197.909 124.576 199.017 124.338 199.824 124.168C200.257 124.059 200.7 123.991 201.146 123.964Z" fill="#263238"/>
<path d="M198.847 135.871C198.307 136.058 197.755 136.206 197.195 136.313C196.164 136.551 194.765 136.867 193.17 137.198C191.576 137.528 190.162 137.82 189.127 138.014C188.572 138.147 188.009 138.236 187.44 138.282C187.979 138.093 188.532 137.945 189.093 137.839C190.118 137.601 191.523 137.285 193.117 136.955C194.711 136.624 196.12 136.333 197.156 136.138C197.712 136.006 198.277 135.916 198.847 135.871Z" fill="#263238"/>
<path d="M187.693 138.146C187.558 138.052 187.435 137.941 187.329 137.815C187.105 137.592 186.794 137.261 186.41 136.843C185.647 136.007 184.622 134.826 183.543 133.48C182.464 132.134 181.536 130.87 180.889 129.942C180.564 129.48 180.311 129.101 180.141 128.834C180.039 128.702 179.958 128.556 179.898 128.401C180.02 128.513 180.127 128.638 180.219 128.776L181.035 129.84C181.715 130.739 182.663 131.978 183.742 133.32C184.821 134.661 185.817 135.861 186.546 136.722C186.959 137.171 187.343 137.646 187.693 138.146Z" fill="#263238"/>
<path d="M182.833 170.703C174.396 163.899 173.172 152.269 174.231 141.961C174.411 140.24 174.343 138.408 175.266 136.95C176.19 135.492 178.182 134.593 179.674 135.424C180.914 136.114 181.366 137.645 181.997 138.923C182.843 140.632 184.153 142.067 185.778 143.064C186.838 143.711 188.174 144.153 189.297 143.628C190.843 142.909 191.158 140.867 191.265 139.152L191.863 129.558C191.97 127.838 192.087 126.088 192.733 124.499C193.379 122.91 194.677 121.476 196.325 121.126C197.972 120.776 199.94 121.865 200.169 123.556C200.185 124.27 200.152 124.985 200.072 125.695C200.072 126.409 200.349 127.221 201.01 127.464C201.671 127.707 202.4 127.274 202.954 126.807C204.844 125.199 206.195 123.051 207.473 120.907C208.752 118.764 209.991 116.567 211.731 114.789C213.471 113.01 215.789 111.664 218.258 111.693C220.727 111.722 223.234 113.418 223.691 115.872C224.148 118.327 222.569 120.694 220.897 122.545C218.415 125.298 215.547 127.677 212.382 129.607C211.764 129.885 211.253 130.356 210.924 130.948C210.472 132.066 211.478 133.276 212.581 133.733C213.83 134.243 215.23 134.219 216.557 134.457C217.884 134.695 219.293 135.395 219.711 136.693C220.294 138.496 218.7 140.231 217.174 141.339C214.132 143.549 210.735 145.223 207.128 146.286C205.831 146.661 204.475 146.972 203.396 147.788C202.317 148.605 201.598 150.106 202.132 151.355C202.667 152.604 204.217 153.105 205.534 152.949C206.851 152.794 208.105 152.157 209.398 151.768C211.828 151.039 214.851 151.414 216.202 153.552C217.101 154.961 217.062 156.833 216.45 158.412C215.767 159.946 214.784 161.327 213.558 162.475C209.515 166.708 204.419 169.79 198.793 171.408C193.195 172.929 188.101 173.094 182.794 170.732" fill="#FF6600"/>
<g opacity="0.1">
<path opacity="0.1" d="M182.833 170.703C174.396 163.899 173.172 152.269 174.231 141.961C174.411 140.24 174.343 138.408 175.266 136.95C176.19 135.492 178.182 134.593 179.674 135.424C180.914 136.114 181.366 137.645 181.997 138.923C182.843 140.632 184.153 142.067 185.778 143.064C186.838 143.711 188.174 144.153 189.297 143.628C190.843 142.909 191.158 140.867 191.265 139.152L191.863 129.558C191.97 127.838 192.087 126.088 192.733 124.499C193.379 122.91 194.677 121.476 196.325 121.126C197.972 120.776 199.94 121.865 200.169 123.556C200.185 124.27 200.152 124.985 200.072 125.695C200.072 126.409 200.349 127.221 201.01 127.464C201.671 127.707 202.4 127.274 202.954 126.807C204.844 125.199 206.195 123.051 207.473 120.907C208.752 118.764 209.991 116.567 211.731 114.789C213.471 113.01 215.789 111.664 218.258 111.693C220.727 111.722 223.234 113.418 223.691 115.872C224.148 118.327 222.569 120.694 220.897 122.545C218.415 125.298 215.547 127.677 212.382 129.607C211.764 129.885 211.253 130.356 210.924 130.948C210.472 132.066 211.478 133.276 212.581 133.733C213.83 134.243 215.23 134.219 216.557 134.457C217.884 134.695 219.293 135.395 219.711 136.693C220.294 138.496 218.7 140.231 217.174 141.339C214.132 143.549 210.735 145.223 207.128 146.286C205.831 146.661 204.475 146.972 203.396 147.788C202.317 148.605 201.598 150.106 202.132 151.355C202.667 152.604 204.217 153.105 205.534 152.949C206.851 152.794 208.105 152.157 209.398 151.768C211.828 151.039 214.851 151.414 216.202 153.552C217.101 154.961 217.062 156.833 216.45 158.412C215.767 159.946 214.784 161.327 213.558 162.475C209.515 166.708 204.419 169.79 198.793 171.408C193.195 172.929 188.101 173.094 182.794 170.732" fill="black"/>
</g>
<path d="M182.172 178.362C182.982 173.605 184.245 168.936 185.944 164.419C188.046 158.908 190.462 153.522 193.18 148.288L195.294 144.157C195.994 142.801 196.684 141.46 197.442 140.187C198.902 137.749 200.493 135.394 202.21 133.13C203.838 130.957 205.456 128.955 206.987 127.094C208.518 125.232 209.986 123.531 211.386 122.035C213.584 119.662 215.966 117.466 218.51 115.469C219.41 114.764 220.124 114.239 220.615 113.889L221.174 113.495C221.235 113.449 221.3 113.406 221.368 113.369C221.317 113.427 221.258 113.478 221.193 113.52L220.654 113.943C220.168 114.307 219.473 114.847 218.588 115.571C216.08 117.598 213.728 119.81 211.551 122.19C210.166 123.692 208.713 125.402 207.177 127.264C205.641 129.125 204.042 131.152 202.429 133.31C200.721 135.566 199.141 137.915 197.695 140.347C196.942 141.615 196.237 142.947 195.562 144.303L193.447 148.434C190.736 153.658 188.317 159.029 186.201 164.521C184.497 169.018 183.217 173.665 182.376 178.401" fill="#263238"/>
<path d="M197.535 140.172C197.466 139.93 197.425 139.68 197.413 139.429C197.36 138.943 197.297 138.253 197.233 137.388C197.112 135.667 197.02 133.276 196.927 130.647C196.835 128.017 196.709 125.631 196.558 123.911C196.485 123.055 196.422 122.36 196.368 121.879C196.325 121.631 196.31 121.378 196.325 121.126C196.404 121.365 196.459 121.61 196.49 121.86C196.577 122.346 196.679 123.031 196.781 123.891C196.99 125.607 197.151 127.993 197.267 130.632C197.384 133.271 197.428 135.58 197.481 137.378C197.515 138.189 197.54 138.87 197.564 139.419C197.578 139.67 197.569 139.923 197.535 140.172Z" fill="#263238"/>
<path d="M219.871 137.562C219.577 137.608 219.279 137.624 218.982 137.611C218.413 137.611 217.592 137.611 216.552 137.679C214.52 137.761 211.692 137.965 208.625 138.335C205.559 138.704 202.759 139.156 200.757 139.545C199.756 139.73 198.949 139.905 198.39 140.031C198.103 140.107 197.811 140.157 197.515 140.182C197.789 140.066 198.072 139.975 198.361 139.909C198.91 139.754 199.712 139.55 200.713 139.331C202.706 138.889 205.491 138.398 208.586 138.024C211.229 137.701 213.886 137.515 216.547 137.465C217.568 137.465 218.394 137.465 218.977 137.494C219.277 137.49 219.576 137.513 219.871 137.562Z" fill="#263238"/>
<path d="M186.245 164.02C186.187 163.935 186.143 163.842 186.114 163.743L185.788 162.917C185.511 162.203 185.137 161.153 184.695 159.855C183.805 157.255 182.687 153.625 181.506 149.606C180.325 145.586 179.247 141.946 178.411 139.332C178.002 138.058 177.662 137.013 177.414 136.236L177.147 135.395C177.109 135.298 177.085 135.197 177.074 135.094C177.129 135.18 177.173 135.273 177.205 135.371C177.293 135.594 177.4 135.857 177.526 136.197C177.803 136.911 178.177 137.961 178.624 139.259C179.514 141.859 180.632 145.489 181.808 149.513C182.984 153.537 184.072 157.168 184.908 159.783C185.317 161.056 185.652 162.101 185.88 162.878L186.148 163.719C186.194 163.815 186.227 163.916 186.245 164.02Z" fill="#263238"/>
<path d="M216.202 156.584C216.108 156.634 216.006 156.669 215.901 156.686L215.031 156.914L211.823 157.716C209.111 158.392 205.384 159.369 201.262 160.457C197.141 161.546 193.399 162.489 190.672 163.111C189.312 163.422 188.208 163.665 187.44 163.816L186.556 163.986C186.454 164.011 186.35 164.023 186.245 164.02C186.339 163.975 186.439 163.942 186.541 163.923L187.416 163.694L190.624 162.892C193.331 162.217 197.063 161.235 201.185 160.146C205.306 159.058 209.048 158.115 211.77 157.493C213.13 157.182 214.239 156.944 215.002 156.793L215.886 156.623C215.99 156.598 216.096 156.585 216.202 156.584Z" fill="#263238"/>
<path d="M184.797 36.542H66.9368V198.04H184.797V36.542Z" fill="#455A64"/>
<path d="M180.136 188.437H158.31H76.754V43.0693H180.136V170.353V188.437Z" fill="#E0E0E0"/>
<path d="M178.503 185.739H156.871H76.0493V41.1494H178.503V167.752V185.739Z" fill="#EBEBEB"/>
<path d="M167.495 174.489L155.695 184.097H74.1393V41.5146H177.521V166.358L167.495 174.489Z" fill="#FAFAFA"/>
<path d="M167.495 174.474C167.495 174.474 167.704 174.294 168.127 173.949L170.017 172.404L177.497 166.314V166.343C177.497 145.834 177.458 100.247 177.424 41.4995L177.536 41.6161H75.053H74.1539L74.2802 41.4897C74.2802 95.0955 74.2802 144.546 74.2511 184.072L74.1539 183.97L155.71 184.029H155.68L164.545 176.841L166.766 175.047C167.252 174.649 167.51 174.454 167.51 174.454L166.781 175.062L164.56 176.904L155.724 184.126L74.1393 184.194H74.0372V184.092C74.0372 144.565 74.0372 95.115 74.0129 41.5092V41.3828H75.0384H177.521H177.638V41.4946C177.604 100.262 177.575 145.829 177.565 166.338L170.056 172.399L168.156 173.988L167.495 174.474Z" fill="#263238"/>
<path d="M111.882 31.5518H140.143C141.967 31.5518 143.716 32.2763 145.006 33.566C146.295 34.8556 147.02 36.6048 147.02 38.4287V46.054H104.709V38.7203C104.71 36.8186 105.466 34.9953 106.811 33.6511C108.157 32.3069 109.98 31.5518 111.882 31.5518Z" fill="#FF6600"/>
<path d="M115.075 31.5512L113.53 23.7266H137.893L136.537 31.5512H115.075Z" fill="#FF6600"/>
<path d="M102.366 81.6477H84.9528V64.2295H102.366V81.6477ZM85.4388 81.1617H101.88V64.7155H85.4388V81.1617Z" fill="#FF6600"/>
<path d="M163.918 68.4389C163.918 68.5069 151.792 68.5652 136.843 68.5652C121.894 68.5652 109.763 68.5069 109.763 68.4389C109.763 68.3708 121.884 68.3125 136.843 68.3125C151.802 68.3125 163.918 68.366 163.918 68.4389Z" fill="#263238"/>
<path d="M163.918 72.0541C163.918 72.127 151.792 72.1805 136.843 72.1805C121.894 72.1805 109.763 72.127 109.763 72.0541C109.763 71.9812 121.884 71.9277 136.843 71.9277C151.802 71.9277 163.918 71.9861 163.918 72.0541Z" fill="#263238"/>
<path d="M163.918 75.6752C163.918 75.7432 151.792 75.8016 136.843 75.8016C121.894 75.8016 109.763 75.7432 109.763 75.6752C109.763 75.6072 121.884 75.5488 136.843 75.5488C151.802 75.5488 163.918 75.6072 163.918 75.6752Z" fill="#263238"/>
<path d="M163.918 79.2953C163.918 79.3634 151.792 79.4217 136.843 79.4217C121.894 79.4217 109.763 79.3634 109.763 79.2953C109.763 79.2273 121.884 79.1689 136.843 79.1689C151.802 79.1689 163.918 79.2176 163.918 79.2953Z" fill="#263238"/>
<path d="M102.366 108.49H84.9528V91.0713H102.366V108.49ZM85.4388 108.004H101.88V91.5573H85.4388V108.004Z" fill="#FF6600"/>
<path d="M88.4131 100.14L90.7264 97.6569L94.5804 100.738L103.401 92.1748L105.515 94.668L94.4103 105.622L88.4131 100.14Z" fill="#FF6600"/>
<path d="M163.918 95.2807C163.918 95.3487 151.792 95.407 136.843 95.407C121.894 95.407 109.763 95.3487 109.763 95.2807C109.763 95.2126 121.884 95.1543 136.843 95.1543C151.802 95.1543 163.918 95.2126 163.918 95.2807Z" fill="#263238"/>
<path d="M163.918 98.9008C163.918 98.9688 151.792 99.0271 136.843 99.0271C121.894 99.0271 109.763 98.9688 109.763 98.9008C109.763 98.8327 121.884 98.7744 136.843 98.7744C151.802 98.7744 163.918 98.8279 163.918 98.9008Z" fill="#263238"/>
<path d="M163.918 102.517C163.918 102.59 151.792 102.643 136.843 102.643C121.894 102.643 109.763 102.59 109.763 102.517C109.763 102.444 121.884 102.391 136.843 102.391C151.802 102.391 163.918 102.449 163.918 102.517Z" fill="#263238"/>
<path d="M163.918 106.138C163.918 106.206 151.792 106.264 136.843 106.264C121.894 106.264 109.763 106.206 109.763 106.138C109.763 106.07 121.884 106.012 136.843 106.012C151.802 106.012 163.918 106.07 163.918 106.138Z" fill="#263238"/>
<path d="M102.366 134.467H84.9528V117.049H102.366V134.467ZM85.4388 133.981H101.88V117.535H85.4388V133.981Z" fill="#FF6600"/>
<path d="M88.4131 126.117L90.7264 123.633L94.5804 126.715L103.401 118.151L105.515 120.645L94.4103 131.599L88.4131 126.117Z" fill="#FF6600"/>
<path d="M163.918 121.257C163.918 121.325 151.792 121.384 136.843 121.384C121.894 121.384 109.763 121.325 109.763 121.257C109.763 121.189 121.884 121.131 136.843 121.131C151.802 121.131 163.918 121.184 163.918 121.257Z" fill="#263238"/>
<path d="M163.918 124.872C163.918 124.945 151.792 124.999 136.843 124.999C121.894 124.999 109.763 124.945 109.763 124.872C109.763 124.8 121.884 124.746 136.843 124.746C151.802 124.746 163.918 124.804 163.918 124.872Z" fill="#263238"/>
<path d="M163.918 128.494C163.918 128.566 151.792 128.62 136.843 128.62C121.894 128.62 109.763 128.566 109.763 128.494C109.763 128.421 121.884 128.367 136.843 128.367C151.802 128.367 163.918 128.426 163.918 128.494Z" fill="#263238"/>
<path d="M163.918 132.115C163.918 132.183 151.792 132.241 136.843 132.241C121.894 132.241 109.763 132.183 109.763 132.115C109.763 132.047 121.884 131.988 136.843 131.988C151.802 131.988 163.918 132.047 163.918 132.115Z" fill="#263238"/>
<path d="M102.366 159.549H84.9528V142.131H102.366V159.549ZM85.4388 159.063H101.88V142.617H85.4388V159.063Z" fill="#FF6600"/>
<path d="M88.4131 151.199L90.7264 148.715L94.5804 151.797L103.401 143.233L105.515 145.722L94.4103 156.676L88.4131 151.199Z" fill="#FF6600"/>
<path d="M163.918 146.335C163.918 146.408 151.792 146.462 136.843 146.462C121.894 146.462 109.763 146.408 109.763 146.335C109.763 146.262 121.884 146.209 136.843 146.209C151.802 146.209 163.918 146.287 163.918 146.335Z" fill="#263238"/>
<path d="M163.918 149.955C163.918 150.023 151.792 150.082 136.843 150.082C121.894 150.082 109.763 150.023 109.763 149.955C109.763 149.887 121.884 149.829 136.843 149.829C151.802 149.829 163.918 149.887 163.918 149.955Z" fill="#263238"/>
<path d="M163.918 153.576C163.918 153.644 151.792 153.702 136.843 153.702C121.894 153.702 109.763 153.644 109.763 153.576C109.763 153.508 121.884 153.449 136.843 153.449C151.802 153.449 163.918 153.503 163.918 153.576Z" fill="#263238"/>
<path d="M163.918 157.192C163.918 157.265 151.792 157.318 136.843 157.318C121.894 157.318 109.763 157.265 109.763 157.192C109.763 157.119 121.884 157.065 136.843 157.065C151.802 157.065 163.918 157.124 163.918 157.192Z" fill="#263238"/>
<path d="M158.937 160.492L147.603 183.966H155.695L158.937 160.492Z" fill="#E0E0E0"/>
<path d="M155.695 184.097L158.937 160.623L177.521 166.358L155.695 184.097Z" fill="#FAFAFA"/>
<path d="M155.695 184.097L161.945 178.95L177.443 166.261L177.487 166.475L170.309 164.268L158.922 160.735L159.073 160.638C158.101 167.442 157.27 173.298 156.682 177.449C156.093 181.487 155.792 183.572 155.71 184.097C155.708 184.061 155.708 184.026 155.71 183.99L155.753 183.669C155.792 183.363 155.846 182.935 155.919 182.391C156.069 181.249 156.283 179.611 156.555 177.531C157.119 173.347 157.906 167.461 158.825 160.584V160.448L158.956 160.487L170.372 164.006L177.546 166.222L177.769 166.29L177.589 166.436C171.315 171.495 165.828 175.918 161.901 179.072L157.318 182.751L156.093 183.723L155.782 183.971L155.695 184.097Z" fill="#263238"/>
<g opacity="0.3">
<path opacity="0.3" d="M136.206 23.7266L134.865 31.5512H136.537L137.893 23.7266H135.759" fill="black"/>
</g>
<path d="M64.847 106.25C65.4329 106.294 66.0218 106.219 66.5784 106.031C67.135 105.843 67.6479 105.544 68.0865 105.153C68.5252 104.762 68.8805 104.287 69.1314 103.755C69.3822 103.224 69.5235 102.647 69.5466 102.06C69.639 99.6788 69.7216 97.2731 69.7216 97.2731C69.7216 97.2731 73.3277 96.9378 73.6096 93.3851C73.8914 89.8324 73.7505 81.5802 73.7505 81.5802C71.7737 80.5828 69.5664 80.1317 67.3568 80.2736C65.1472 80.4154 63.0156 81.145 61.1826 82.3869L61.4013 94.9452V101.705C61.4061 103.951 62.5871 106.079 64.847 106.25Z" fill="#FFBE9D"/>
<path d="M70.0326 89.0104C69.7692 88.6318 69.3727 88.3665 68.9223 88.2674C68.4718 88.1683 68.0006 88.2427 67.6026 88.4758C67.1987 88.7564 66.9076 89.1714 66.7812 89.6467C66.6548 90.122 66.7013 90.6268 66.9125 91.071C67.0965 91.4007 67.347 91.6884 67.6483 91.916C67.9495 92.1436 68.2947 92.306 68.6621 92.3929C68.9878 92.4638 69.2765 92.6509 69.4742 92.9193C69.6719 93.1876 69.765 93.5189 69.7361 93.8509C69.5865 94.789 69.1482 95.6571 68.4823 96.3344C67.3814 97.4546 65.9161 98.1441 64.3513 98.2784C62.8301 98.4582 61.0902 98.1423 60.2057 96.8933C59.5593 95.9845 59.5156 94.7938 59.4913 93.6808C59.4362 91.05 59.3811 88.4191 59.326 85.7882C59.2688 84.8399 59.3292 83.8882 59.5058 82.9548C59.692 82.0133 60.2265 81.1768 61.0027 80.6123C61.8727 80.0388 62.971 79.9902 63.9576 79.6743C65.1969 79.2709 66.2467 78.4545 67.4033 77.8615C68.56 77.2686 69.9743 76.9138 71.1358 77.497C71.9717 77.915 72.5306 78.7461 73.3374 79.2078C74.4941 79.8639 76.0639 79.6938 76.6228 81.4142C76.8195 82.0024 76.8195 82.6387 76.6228 83.227C75.8403 85.5355 72.9826 86.4686 70.922 85.4723C70.8831 85.8611 71.267 86.731 70.8539 87.9655C70.7227 88.364 70.679 88.9618 70.0618 88.9764" fill="#263238"/>
<path d="M60.1814 81.6478C60.7478 80.5191 61.1347 79.309 61.3283 78.0611C61.42 77.4361 61.3664 76.7984 61.1717 76.1974C60.977 75.5965 60.6464 75.0485 60.2057 74.5959C59.5551 74.0311 58.7145 73.734 57.8534 73.7649C57.0355 73.8115 56.2519 74.1096 55.6099 74.6185C54.9679 75.1274 54.4988 75.8223 54.2668 76.608C54.0666 77.4002 54.0975 78.2331 54.3559 79.0083C54.6143 79.7834 55.0893 80.4683 55.7248 80.982C56.3745 81.481 57.1446 81.7996 57.9571 81.9054C58.7695 82.0113 59.5955 81.9006 60.3515 81.5846" fill="#263238"/>
<path d="M60.8812 80.3599C60.855 80.7962 60.6672 81.2071 60.3546 81.5126C60.0419 81.818 59.6267 81.9962 59.1899 82.0123C59.1899 81.9394 59.7148 81.7985 60.1619 81.3319C60.6091 80.8653 60.8132 80.3405 60.8812 80.3599Z" fill="#FF6600"/>
<path d="M59.71 81.2348C59.4314 81.5267 59.102 81.7655 58.738 81.9395C58.3489 82.1612 57.9122 82.2863 57.4646 82.304C57.1805 82.3193 56.8968 82.2664 56.6372 82.1498C56.3777 82.0331 56.1498 81.856 55.9726 81.6333C55.8158 81.3988 55.7113 81.1334 55.666 80.8551C55.6207 80.5767 55.6358 80.2918 55.7102 80.0198C55.823 79.588 56.0268 79.1853 56.308 78.8388C56.5407 78.5103 56.8265 78.2229 57.1536 77.9883C56.9373 78.3242 56.7037 78.6486 56.4538 78.9603C56.2098 79.2987 56.0348 79.6818 55.9386 80.0878C55.878 80.3271 55.8678 80.5765 55.9088 80.82C55.9498 81.0635 56.0411 81.2958 56.1767 81.5021C56.3321 81.6918 56.5291 81.8431 56.7525 81.9442C56.9759 82.0454 57.2196 82.0937 57.4646 82.0853C57.8799 82.0786 58.2885 81.979 58.6602 81.7937C59.292 81.468 59.6857 81.1959 59.71 81.2348Z" fill="#263238"/>
<path d="M53.6447 85.2633C53.718 85.3868 53.7751 85.519 53.8148 85.657C53.9408 86.0211 54.1192 86.365 54.3445 86.6776C54.4944 86.9037 54.7043 87.0835 54.9507 87.1968C55.1971 87.3101 55.4702 87.3525 55.7394 87.3191C56.0615 87.2281 56.3547 87.0555 56.5905 86.818C56.8264 86.5804 56.9969 86.286 57.0856 85.9632C57.2602 85.2835 57.382 84.5913 57.4501 83.8928C57.5187 83.2938 57.7545 82.7263 58.1305 82.255C58.3998 81.945 58.7666 81.7359 59.1705 81.6621C59.3166 81.6263 59.4704 81.64 59.6079 81.7009C59.6079 81.7009 59.4475 81.7009 59.19 81.7593C58.825 81.8602 58.5015 82.0747 58.2666 82.3716C57.9354 82.8283 57.7324 83.3653 57.6785 83.9268C57.6224 84.6422 57.5037 85.3512 57.3237 86.0458C57.2234 86.4104 57.0279 86.7417 56.7571 87.0056C56.4863 87.2696 56.1501 87.4566 55.7831 87.5475C55.4475 87.6011 55.1037 87.5358 54.8111 87.3628C54.5684 87.2155 54.3597 87.0184 54.1987 86.7845C53.9759 86.4502 53.8116 86.0804 53.7127 85.691C53.6629 85.5541 53.6398 85.4089 53.6447 85.2633Z" fill="#263238"/>
<path d="M51.8902 115.245C51.8902 115.245 50.0677 128.571 51.8902 130.262C53.7127 131.954 55.4574 131.39 55.4574 131.39L58.9226 128.474L59.603 115.226L51.8902 115.245Z" fill="#FFBE9D"/>
<path d="M89.5309 77.8376L91.8443 75.3541L95.6983 78.4354L104.519 69.8721L106.633 72.3652L95.5282 83.3197L89.5309 77.8376Z" fill="#FF6600"/>
<path d="M100.398 78.5127L97.0445 80.6657C96.8938 79.3389 95.883 78.0267 95.9316 78.6925C95.9802 79.3583 95.9316 82.8138 95.9316 82.8138L89.9586 95.3963C89.147 97.3889 87.4995 98.6428 86.2699 98.9393L80.676 100.601L82.8582 107.984L90.6342 105.408C91.6267 105.079 92.5283 104.522 93.2668 103.782C94.0053 103.042 94.5601 102.139 94.8867 101.146L100.233 84.855C100.588 83.8057 100.873 82.7342 101.088 81.6474C101.321 80.2817 100.398 78.5127 100.398 78.5127Z" fill="#FFBE9D"/>
<path d="M72.9243 216.134L72.8368 212.406L65.8481 212.518L65.9113 217.976L66.3487 218C68.2927 218.073 76.1708 218.248 77.4538 217.84C78.8827 217.378 72.9243 216.134 72.9243 216.134Z" fill="#FF6600"/>
<g opacity="0.5">
<path opacity="0.5" d="M68.4482 217.883C68.3304 217.301 68.0037 216.783 67.5297 216.425C67.0629 216.062 66.4763 215.889 65.887 215.939L65.9162 217.883H68.4482Z" fill="white"/>
</g>
<g opacity="0.4">
<path opacity="0.4" d="M75.816 216.849C75.816 216.849 77.9058 217.412 77.6531 217.762C77.4004 218.112 69.4203 218.248 65.8919 217.976V217.821L75.2037 217.757C75.2037 217.757 75.4321 216.873 75.816 216.849Z" fill="white"/>
</g>
<path d="M65.8093 217.815H65.9308H66.2758L67.5491 217.85C68.6232 217.874 70.1055 217.884 71.7433 217.85C73.3811 217.815 74.8683 217.772 75.9375 217.718L77.2108 217.645L77.5559 217.621H77.6725H77.551H77.206L75.9375 217.67C74.8634 217.704 73.3811 217.752 71.7433 217.777C70.1055 217.801 68.6232 217.777 67.5491 217.777H66.2807H65.7947L65.8093 217.815Z" fill="#263238"/>
<path d="M75.2328 217.864C75.2834 217.653 75.3601 217.449 75.4612 217.257C75.5836 217.079 75.7254 216.916 75.8841 216.771C75.6772 216.868 75.5045 217.025 75.3883 217.222C75.2721 217.418 75.218 217.646 75.2328 217.874V217.864Z" fill="#263238"/>
<path d="M73.1527 216.848C73.1527 216.848 73.2694 216.742 73.3714 216.581C73.4735 216.421 73.5318 216.275 73.5124 216.265C73.4929 216.255 73.3957 216.372 73.2985 216.533C73.2013 216.693 73.1333 216.839 73.1527 216.848Z" fill="#263238"/>
<path d="M72.5841 216.561C72.5841 216.561 72.7056 216.503 72.8271 216.391C72.9486 216.28 73.0264 216.178 73.0118 216.163C72.9972 216.148 72.8855 216.221 72.7688 216.328C72.6522 216.435 72.5647 216.542 72.5841 216.561Z" fill="#263238"/>
<path d="M72.2147 215.905C72.3313 215.948 72.4564 215.961 72.5792 215.944C72.7025 215.958 72.8274 215.943 72.9437 215.9C72.8261 215.863 72.7021 215.85 72.5792 215.861C72.456 215.848 72.3312 215.863 72.2147 215.905Z" fill="#263238"/>
<path d="M72.0836 215.443C72.2063 215.519 72.3479 215.557 72.4918 215.555C72.6359 215.576 72.7829 215.554 72.9146 215.492C72.7756 215.479 72.6357 215.479 72.4967 215.492C72.3607 215.463 72.2225 215.447 72.0836 215.443Z" fill="#263238"/>
<path d="M73.386 216.236C73.5338 216.263 73.6853 216.263 73.8331 216.236C73.9983 216.214 74.161 216.176 74.3191 216.124C74.4135 216.094 74.5047 216.055 74.5913 216.007C74.6186 215.993 74.6427 215.973 74.662 215.948C74.6812 215.924 74.6952 215.896 74.703 215.866C74.7088 215.832 74.705 215.798 74.6921 215.766C74.6792 215.734 74.6578 215.707 74.6301 215.686C74.457 215.606 74.2615 215.588 74.0766 215.635C73.8916 215.682 73.7284 215.791 73.6144 215.944C73.549 216.035 73.5012 216.137 73.4735 216.245C73.4649 216.285 73.4649 216.327 73.4735 216.367C73.5199 216.229 73.5871 216.1 73.6727 215.983C73.773 215.864 73.9041 215.775 74.0518 215.725C74.2285 215.664 74.4222 215.674 74.5913 215.754C74.6593 215.808 74.635 215.89 74.5572 215.939C74.4767 215.984 74.3921 216.022 74.3045 216.051C74.1461 216.106 73.9836 216.148 73.8185 216.177C73.5512 216.221 73.386 216.221 73.386 216.236Z" fill="#263238"/>
<path d="M73.4978 216.27C73.5525 216.176 73.5698 216.065 73.5464 215.959C73.5281 215.842 73.4832 215.731 73.4152 215.634C73.3767 215.568 73.3222 215.513 73.2568 215.474C73.1914 215.435 73.1171 215.413 73.041 215.41C73.0182 215.415 72.9966 215.424 72.9774 215.437C72.9582 215.45 72.9418 215.467 72.9292 215.486C72.9165 215.506 72.9078 215.527 72.9037 215.55C72.8995 215.573 72.8999 215.596 72.9049 215.619C72.9157 215.691 72.9423 215.759 72.9826 215.818C73.0417 215.918 73.1154 216.008 73.2013 216.086C73.2707 216.166 73.3593 216.228 73.4589 216.266C73.4589 216.266 73.3714 216.188 73.2451 216.047C73.1723 215.964 73.1072 215.874 73.0507 215.78C72.9875 215.687 72.9438 215.517 73.0507 215.493C73.1576 215.468 73.2791 215.59 73.3471 215.677C73.4122 215.764 73.4586 215.863 73.4832 215.969C73.4966 216.069 73.5015 216.17 73.4978 216.27Z" fill="#263238"/>
<path d="M65.9259 215.9C65.9259 215.9 66.1252 215.9 66.4411 215.9C66.8531 215.939 67.2457 216.094 67.5734 216.347C67.9011 216.6 68.1505 216.94 68.2927 217.329C68.4045 217.625 68.4191 217.815 68.4337 217.815C68.4432 217.768 68.4432 217.72 68.4337 217.674C68.4178 217.547 68.3902 217.422 68.351 217.3C68.2163 216.894 67.9625 216.538 67.6228 216.278C67.2831 216.018 66.8731 215.866 66.4459 215.842C66.3183 215.828 66.1896 215.828 66.062 215.842C66.0132 215.852 65.9669 215.872 65.9259 215.9Z" fill="#263238"/>
<path d="M66.6063 212.984C66.5629 213.461 66.5499 213.94 66.5675 214.418C66.5519 214.905 66.5665 215.391 66.6112 215.876C66.6554 215.391 66.6684 214.904 66.6501 214.418C66.6618 213.94 66.6472 213.461 66.6063 212.984Z" fill="#263238"/>
<path d="M69.3134 217.188C69.6505 217.258 69.9949 217.286 70.3388 217.271C70.6819 217.286 71.0253 217.253 71.3594 217.174C71.3594 217.15 70.8734 217.174 70.3388 217.174C69.8042 217.174 69.3182 217.164 69.3134 217.188Z" fill="#263238"/>
<path d="M67.9477 217.203C67.9477 217.203 67.9866 217.301 68.0303 217.407C68.0741 217.514 68.1081 217.602 68.1324 217.602C68.1567 217.602 68.1664 217.49 68.1081 217.369C68.0498 217.247 67.9623 217.189 67.9477 217.203Z" fill="#263238"/>
<path d="M67.4179 216.571C67.4179 216.571 67.4471 216.659 67.5248 216.732C67.6026 216.805 67.6706 216.848 67.6852 216.834C67.6998 216.819 67.656 216.742 67.5831 216.673C67.5102 216.605 67.4373 216.552 67.4179 216.571Z" fill="#263238"/>
<path d="M66.6744 216.269C66.6744 216.269 66.7764 216.269 66.8785 216.323C66.9805 216.376 67.0534 216.41 67.0729 216.396C67.0923 216.381 67.034 216.284 66.9028 216.245C66.7716 216.206 66.6695 216.269 66.6744 216.269Z" fill="#263238"/>
<path d="M66.1495 216.158C66.1495 216.158 66.1788 216.217 66.2373 216.236C66.2959 216.256 66.3496 216.261 66.3593 216.236C66.3691 216.212 66.3252 216.178 66.2666 216.158C66.208 216.139 66.1544 216.134 66.1495 216.158Z" fill="#263238"/>
<path d="M48.255 214.943L50.6266 212.061L45.2515 207.585L41.7426 211.765L42.0536 212.066C43.4679 213.383 49.3436 218.661 50.578 219.186C51.9631 219.774 48.255 214.943 48.255 214.943Z" fill="#FF6600"/>
<g opacity="0.5">
<path opacity="0.5" d="M43.74 213.353C44.0374 212.834 44.1325 212.223 44.0073 211.638C43.8881 211.059 43.5548 210.547 43.0742 210.204L41.796 211.696L43.74 213.353Z" fill="white"/>
</g>
<g opacity="0.4">
<path opacity="0.4" d="M49.9997 217.382C49.9997 217.382 51.2147 219.176 50.7967 219.273C50.3788 219.37 44.226 214.257 41.7426 211.764L41.8495 211.652L48.9499 217.679C48.9499 217.679 49.6741 217.134 49.9997 217.382Z" fill="white"/>
</g>
<path d="M41.7668 211.58L41.8495 211.668L42.1022 211.906L43.045 212.761C43.8421 213.475 44.9599 214.452 46.2186 215.502C47.4773 216.552 48.6486 217.48 49.4845 218.141L50.4954 218.914L50.7724 219.118L50.8745 219.186L50.7821 219.103L50.5148 218.885L49.5428 218.092C48.7021 217.422 47.5502 216.489 46.2915 215.439C45.0328 214.389 43.9101 213.422 43.1033 212.717L42.1313 211.881L41.8689 211.653L41.7668 211.58Z" fill="#263238"/>
<path d="M48.877 217.762C49.0541 217.633 49.2468 217.527 49.4505 217.446C49.6606 217.393 49.8755 217.36 50.092 217.349C49.8755 217.269 49.6378 217.269 49.4213 217.349C49.1959 217.416 49.0025 217.563 48.877 217.762Z" fill="#263238"/>
<path d="M47.9634 215.633C47.9634 215.658 48.1238 215.633 48.3036 215.57C48.4834 215.507 48.6292 215.449 48.6195 215.424C48.6098 215.4 48.4591 215.424 48.2793 215.487C48.1647 215.513 48.057 215.563 47.9634 215.633Z" fill="#263238"/>
<path d="M47.7203 215.041C47.7203 215.041 47.8516 215.08 48.0168 215.075C48.182 215.07 48.3084 215.046 48.3084 215.021C48.3084 214.997 48.1723 214.982 48.0119 214.987C47.9119 214.982 47.8121 215.001 47.7203 215.041Z" fill="#263238"/>
<path d="M47.8661 214.326C47.8661 214.326 47.9634 214.462 48.1189 214.593C48.2066 214.682 48.3105 214.753 48.425 214.802C48.425 214.802 48.3279 214.662 48.1723 214.53C48.0168 214.399 47.8856 214.287 47.8661 214.326Z" fill="#263238"/>
<path d="M48.0703 213.869C48.1232 214.002 48.2038 214.122 48.3069 214.222C48.41 214.322 48.5331 214.398 48.668 214.447C48.5739 214.345 48.4732 214.249 48.3667 214.16C48.2063 214.005 48.114 213.839 48.0703 213.869Z" fill="#263238"/>
<path d="M48.5369 215.298C48.6332 215.414 48.7502 215.511 48.8819 215.585C49.0198 215.674 49.1663 215.749 49.3193 215.808C49.4097 215.849 49.5042 215.88 49.6012 215.901C49.6623 215.911 49.7251 215.897 49.7761 215.862C49.8029 215.841 49.8232 215.813 49.8344 215.781C49.8456 215.749 49.8473 215.715 49.8393 215.682C49.7643 215.504 49.6295 215.358 49.4582 215.269C49.2868 215.181 49.0898 215.155 48.9014 215.196C48.7904 215.218 48.6857 215.264 48.5952 215.332C48.5611 215.354 48.5315 215.382 48.5077 215.415C48.6322 215.339 48.7686 215.285 48.9111 215.254C49.0653 215.228 49.224 215.246 49.3679 215.308C49.5411 215.375 49.6808 215.507 49.7567 215.677C49.7567 215.764 49.7032 215.813 49.6109 215.799C49.5213 215.778 49.4335 215.751 49.3485 215.716C49.1987 215.66 49.054 215.592 48.9159 215.512C48.6778 215.419 48.5466 215.298 48.5369 215.298Z" fill="#263238"/>
<path d="M48.6 215.409C48.6 215.409 48.7263 215.371 48.843 215.205C48.9056 215.105 48.9454 214.992 48.9596 214.875C48.9708 214.799 48.9638 214.722 48.9393 214.649C48.9148 214.576 48.8735 214.51 48.8187 214.457C48.7768 214.434 48.7277 214.429 48.6821 214.443C48.6366 214.457 48.5983 214.488 48.5757 214.53C48.5387 214.59 48.5155 214.658 48.5076 214.729C48.4935 214.844 48.4935 214.959 48.5076 215.074C48.5076 215.181 48.5344 215.286 48.5854 215.38C48.5854 215.38 48.5854 215.259 48.5854 215.074C48.5841 214.963 48.5938 214.852 48.6146 214.744C48.6146 214.632 48.702 214.476 48.8041 214.53C48.9062 214.583 48.911 214.753 48.911 214.865C48.9024 214.973 48.8709 215.077 48.8187 215.171C48.7548 215.259 48.6815 215.338 48.6 215.409Z" fill="#263238"/>
<path d="M43.1033 210.204C43.1033 210.204 43.2686 210.316 43.4873 210.544C43.7719 210.845 43.9686 211.218 44.0559 211.623C44.1364 212.029 44.1027 212.45 43.9587 212.838C43.8469 213.14 43.7254 213.3 43.74 213.324C43.7765 213.292 43.8077 213.254 43.8323 213.212C43.9048 213.108 43.9651 212.995 44.0121 212.877C44.1802 212.482 44.2242 212.044 44.1385 211.623C44.0508 211.203 43.8392 210.819 43.531 210.52C43.4392 210.43 43.3382 210.35 43.2297 210.282C43.193 210.248 43.1501 210.222 43.1033 210.204Z" fill="#263238"/>
<path d="M45.5236 208.431C45.1784 208.765 44.8538 209.121 44.5516 209.495C44.2308 209.851 43.9291 210.225 43.6476 210.613C43.995 210.282 44.3198 209.928 44.6196 209.553C44.9399 209.195 45.2416 208.82 45.5236 208.431Z" fill="#263238"/>
<path d="M44.8335 213.388C45.0412 213.661 45.2829 213.906 45.5528 214.117C45.8051 214.352 46.0879 214.551 46.3936 214.71C46.3936 214.71 46.0388 214.418 45.6111 214.054C45.1834 213.689 44.8529 213.354 44.8335 213.388Z" fill="#263238"/>
<path d="M43.7838 212.508C43.7838 212.508 43.7497 212.605 43.7206 212.717C43.6914 212.829 43.6477 212.911 43.6671 212.926C43.6866 212.941 43.7643 212.868 43.8032 212.736C43.8421 212.605 43.8081 212.503 43.7838 212.508Z" fill="#263238"/>
<path d="M43.7984 211.682C43.7741 211.682 43.7643 211.769 43.774 211.871C43.7838 211.973 43.8081 212.056 43.8324 212.056C43.8567 212.056 43.8664 211.968 43.8324 211.866C43.7984 211.764 43.8226 211.682 43.7984 211.682Z" fill="#263238"/>
<path d="M43.4193 210.982C43.4193 211.006 43.4824 211.064 43.5359 211.157C43.5894 211.249 43.6137 211.341 43.638 211.341C43.6623 211.341 43.6768 211.23 43.6088 211.113C43.5408 210.996 43.429 210.962 43.4193 210.982Z" fill="#263238"/>
<path d="M43.1033 210.54C43.1033 210.54 43.1033 210.608 43.1033 210.662C43.1033 210.715 43.1765 210.75 43.196 210.74C43.2156 210.73 43.196 210.672 43.196 210.618C43.196 210.564 43.1229 210.53 43.1033 210.54Z" fill="#263238"/>
<path d="M62.8009 136.852C62.8009 136.852 60.473 146.699 61.134 148.648C61.7949 150.596 66.0571 151.719 66.0571 151.719L65.9113 178.687L42.3306 207.847L51.03 214.962C51.03 214.962 76.5645 185.759 78.8146 180.456C81.0648 175.154 77.3566 136.4 77.3566 136.4L62.8009 136.852Z" fill="#263238"/>
<path d="M74.844 132.839L75.9958 214.74L64.0062 214.812L57.9847 148.094C56.7114 146.879 54.918 144.799 55.1659 140.158L55.4575 134.768L74.844 132.839Z" fill="#263238"/>
<path d="M62.208 183.246C62.2255 183.203 62.2484 183.162 62.276 183.125C62.3392 183.037 62.4121 182.926 62.5045 182.79L63.3938 181.531L66.65 177.021V177.084C66.3876 174.241 66.0717 170.795 65.7315 167.077C65.2941 162.217 64.9442 157.795 64.7352 154.592C64.6283 152.993 64.5602 151.7 64.5214 150.806C64.5214 150.378 64.4922 150.033 64.4873 149.771C64.4725 149.651 64.4725 149.531 64.4873 149.411C64.5109 149.53 64.5255 149.65 64.5311 149.771C64.5311 150.028 64.5797 150.373 64.6137 150.801C64.6866 151.72 64.7838 153.003 64.9102 154.582C65.1629 157.775 65.542 162.183 65.9794 167.053C66.305 170.785 66.6355 174.226 66.8542 177.084V177.118V177.147L63.5251 181.599L62.5871 182.829L62.3344 183.144C62.2323 183.222 62.208 183.251 62.208 183.246Z" fill="#455A64"/>
<path d="M65.8821 149.411C64.8093 149.354 63.7446 149.191 62.7037 148.925C61.6448 148.746 60.6062 148.462 59.603 148.079C60.6654 148.215 61.7187 148.415 62.7572 148.677C63.812 148.862 64.8553 149.107 65.8821 149.411Z" fill="#455A64"/>
<path d="M74.0956 177.39C73.0607 176.961 71.9715 176.676 70.8588 176.544C69.7378 176.499 68.6159 176.609 67.5248 176.87C67.8098 176.69 68.1265 176.567 68.458 176.506C69.2503 176.299 70.0717 176.227 70.888 176.292C71.6991 176.357 72.4938 176.556 73.2402 176.88C73.5536 176.997 73.8433 177.17 74.0956 177.39Z" fill="#455A64"/>
<path d="M78.3287 181.17C78.3821 181.214 75.0093 185.743 70.7908 191.284C66.5723 196.824 63.1071 201.291 63.0537 201.252C63.0002 201.213 66.373 196.678 70.5915 191.133C74.81 185.588 78.2752 181.127 78.3287 181.17Z" fill="#455A64"/>
<path d="M76.7054 138.918C76.5672 139.273 76.3334 139.582 76.0299 139.812C75.6826 140.116 75.2761 140.345 74.8361 140.485C74.396 140.625 73.9318 140.672 73.4727 140.623C73.0136 140.575 72.5694 140.432 72.1681 140.204C71.7668 139.976 71.417 139.667 71.1407 139.297C70.8835 139.013 70.7146 138.66 70.6547 138.281C70.8418 138.592 71.0462 138.892 71.2671 139.18C71.8226 139.854 72.6202 140.282 73.4883 140.373C74.3564 140.464 75.2255 140.21 75.9084 139.666C76.1869 139.431 76.453 139.181 76.7054 138.918Z" fill="#455A64"/>
<path d="M60.3126 96.7773C58.3369 94.9001 57.172 92.326 57.0658 89.6028C56.9596 86.8796 57.9205 84.2226 59.744 82.1973" fill="#263238"/>
<path d="M53.5718 104.417C53.5718 104.417 50.9668 107.362 50.4274 118.623C50.4274 118.623 57.8486 120.032 57.9847 119.629C58.1207 119.225 53.5718 104.417 53.5718 104.417Z" fill="#FF6600"/>
<g opacity="0.3">
<path opacity="0.3" d="M53.5718 104.417C53.5718 104.417 50.9668 107.362 50.4274 118.623C50.4274 118.623 57.8486 120.032 57.9847 119.629C58.1207 119.225 53.5718 104.417 53.5718 104.417Z" fill="black"/>
</g>
<path d="M54.7771 137.217H77.5656L77.1962 133.654C77.1962 133.654 74.5913 120.114 74.6107 119.934L75.019 119.074C75.5514 117.957 75.8362 116.738 75.8538 115.501C75.8714 114.264 75.6215 113.037 75.121 111.906L86.299 108.091L83.5677 98.8857C78.5036 99.7362 70.8491 100.694 70.8491 100.694L69.7118 100.786C69.7118 100.786 61.8095 101.199 61.6394 101.219C58.3346 101.622 54.4903 101.875 53.0858 105.413C52.3325 107.303 53.0469 110.141 54.2765 113.067L57.1925 122.058C58.3589 127.001 56.4975 126.763 55.472 131.739C55.3068 132.488 54.7625 136.526 54.7771 137.217Z" fill="#FF6600"/>
<g opacity="0.3">
<path opacity="0.3" d="M54.7771 137.217H77.5656L77.1962 133.654C77.1962 133.654 74.5913 120.114 74.6107 119.934L75.019 119.074C75.5514 117.957 75.8362 116.738 75.8538 115.501C75.8714 114.264 75.6215 113.037 75.121 111.906L86.299 108.091L83.5677 98.8857C78.5036 99.7362 70.8491 100.694 70.8491 100.694L69.7118 100.786C69.7118 100.786 61.8095 101.199 61.6394 101.219C58.3346 101.622 54.4903 101.875 53.0858 105.413C52.3325 107.303 53.0469 110.141 54.2765 113.067L57.1925 122.058C58.3589 127.001 56.4975 126.763 55.472 131.739C55.3068 132.488 54.7625 136.526 54.7771 137.217Z" fill="black"/>
</g>
<path d="M86.1727 108.241C86.0185 108.328 85.8556 108.398 85.6867 108.45C85.3659 108.567 84.8945 108.727 84.3113 108.936C83.1449 109.33 81.5216 109.85 79.7331 110.423C77.9447 110.997 76.3311 111.565 75.2133 112.032C74.6399 112.265 74.1879 112.469 73.872 112.605C73.7188 112.69 73.5555 112.756 73.386 112.8C73.5272 112.688 73.6804 112.591 73.8428 112.513C74.149 112.353 74.5913 112.119 75.155 111.867C76.6284 111.225 78.1356 110.663 79.67 110.185C81.4633 109.612 83.072 109.116 84.2724 108.766C84.8605 108.591 85.3416 108.455 85.6721 108.363C85.8332 108.302 86.0014 108.261 86.1727 108.241Z" fill="#263238"/>
<path d="M84.8507 103.338C84.8507 103.406 78.1099 103.465 69.7847 103.465C61.4596 103.465 54.7188 103.406 54.7188 103.338C54.7188 103.27 61.4547 103.212 69.7847 103.212C78.1148 103.212 84.8507 103.27 84.8507 103.338Z" fill="#FAFAFA"/>
<path d="M85.536 107.814C85.536 107.882 78.0371 107.94 68.7885 107.94C59.5399 107.94 52.0458 107.882 52.0458 107.814C52.0458 107.746 59.5399 107.688 68.7885 107.688C78.0371 107.688 85.536 107.746 85.536 107.814Z" fill="#FAFAFA"/>
<path d="M53.946 112.907C53.4904 113.031 53.0167 113.074 52.5463 113.034C52.0776 113.074 51.6055 113.031 51.1515 112.907C51.6055 112.784 52.0776 112.741 52.5463 112.781C53.0167 112.741 53.4904 112.784 53.946 112.907Z" fill="#FAFAFA"/>
<path d="M75.816 113.063C75.816 113.131 70.9123 113.189 64.8665 113.189C58.8206 113.189 53.9169 113.131 53.9169 113.063C53.9169 112.995 58.8158 112.937 64.8665 112.937C70.9172 112.937 75.816 112.99 75.816 113.063Z" fill="#FAFAFA"/>
<path d="M75.33 118.307C75.33 118.38 70.9269 118.433 65.5031 118.433C60.0793 118.433 55.6713 118.38 55.6713 118.307C55.6713 118.234 60.0696 118.181 65.5031 118.181C70.9366 118.181 75.33 118.239 75.33 118.307Z" fill="#FAFAFA"/>
<path d="M75.194 123.171C75.194 123.239 71.2088 123.298 66.2904 123.298C61.3721 123.298 57.3772 123.239 57.3772 123.171C57.3772 123.103 61.3673 123.045 66.2904 123.045C71.2136 123.045 75.194 123.098 75.194 123.171Z" fill="#FAFAFA"/>
<path d="M75.9764 127.104C75.9764 127.177 71.7093 127.23 66.4459 127.23C61.1825 127.23 56.9155 127.177 56.9155 127.104C56.9155 127.031 61.1825 126.978 66.4459 126.978C71.7093 126.978 75.9764 127.036 75.9764 127.104Z" fill="#FAFAFA"/>
<path d="M77.2108 132.119C77.2108 132.191 72.3508 132.245 66.3682 132.245C60.3855 132.245 55.5255 132.191 55.5255 132.119C55.5255 132.046 60.3855 131.992 66.3682 131.992C72.3508 131.992 77.2108 132.051 77.2108 132.119Z" fill="#FAFAFA"/>
<path d="M57.0418 121.636C56.9501 121.499 56.8811 121.348 56.8377 121.189L56.3517 119.945C55.9483 118.895 55.3797 117.447 54.7965 115.828C54.2133 114.21 53.7225 112.733 53.4163 111.649C53.2656 111.105 53.149 110.677 53.0858 110.356C53.039 110.198 53.0113 110.035 53.0032 109.87C53.228 110.434 53.4227 111.01 53.5864 111.595C53.9363 112.665 54.4466 114.132 55.0444 115.746C55.6422 117.359 56.167 118.817 56.5024 119.887C56.6822 120.421 56.8183 120.859 56.9058 121.16C56.9712 121.312 57.017 121.472 57.0418 121.636Z" fill="#263238"/>
</svg>
