<svg width="22" height="22" viewBox="0 0 22 22" fill="none" xmlns="http://www.w3.org/2000/svg">
    <path d="M18.7 5.76311L18.6999 5.7631L18.1559 6.39149L17.9092 6.35124C17.9092 6.35126 17.9092 6.35128 17.9092 6.3513C17.3316 9.89175 15.9659 12.222 14.1304 13.6802L14.1304 13.6802C12.283 15.1481 9.88238 15.7935 7.14026 15.7935H5.4212C5.23205 15.7935 5.05768 15.8784 4.93419 16.0176C4.81156 16.1559 4.74695 16.3376 4.74695 16.5217C4.74695 16.7058 4.81156 16.8876 4.93419 17.0258C5.05768 17.165 5.23205 17.25 5.4212 17.25H7.14026C10.0652 17.25 12.7794 16.5629 14.9306 14.8532C17.0941 13.1342 18.6111 10.4426 19.2367 6.60485L19.2367 6.60478C19.2663 6.42307 19.2314 6.23348 19.1352 6.07625L18.9227 6.20625L19.1352 6.07625C19.0385 5.91838 18.8843 5.80126 18.7 5.76311Z" fill="#34A853" stroke="#34A853" stroke-width="0.5"/>
    <path d="M19.1772 4.88534L19.177 4.8853C19.0678 4.85825 18.9529 4.85353 18.8398 4.87402C18.7279 4.89429 18.6216 4.93803 18.5278 5.00235L16.0967 6.66899L16.0966 6.66904C15.9204 6.78995 15.7994 6.97591 15.7603 7.18602C15.7212 7.39612 15.7671 7.61317 15.888 7.7894C16.0089 7.96563 16.1949 8.08661 16.405 8.12574C16.6151 8.16485 16.8321 8.11892 17.0083 7.99803C17.0084 7.99802 17.0084 7.99801 17.0084 7.99801L17.9954 7.32111C18.3658 7.06709 18.8749 7.19335 19.0836 7.59101L19.7272 8.81685C19.7748 8.9119 19.8407 8.99661 19.9212 9.06607C20.0025 9.13621 20.097 9.1894 20.1991 9.2225C20.3013 9.2556 20.409 9.26794 20.516 9.2588C20.623 9.24966 20.7271 9.21923 20.8221 9.16928C20.9172 9.11934 21.0013 9.05089 21.0695 8.96797C21.1377 8.88506 21.1887 8.78934 21.2194 8.68643C21.2501 8.58353 21.2599 8.47554 21.2483 8.3688C21.2367 8.26313 21.2044 8.16079 21.1531 8.06769L19.6961 5.29232L19.696 5.29214C19.6431 5.19159 19.5695 5.10336 19.4801 5.03324C19.3907 4.96313 19.2875 4.91273 19.1772 4.88534ZM2.35806 1.77797C2.35806 1.33307 1.9974 0.972412 1.5525 0.972412C1.10761 0.972412 0.746948 1.33307 0.746948 1.77797V20.6669C0.746948 20.8805 0.831819 21.0854 0.98289 21.2365C1.13396 21.3875 1.33886 21.4724 1.5525 21.4724H20.4414C20.8863 21.4724 21.2469 21.1118 21.2469 20.6669C21.2469 20.222 20.8863 19.8613 20.4414 19.8613H3.10806C2.69385 19.8613 2.35806 19.5255 2.35806 19.1113V1.77797Z" fill="#34A853" stroke="#34A853" stroke-width="0.5" stroke-linejoin="round"/>
    <path d="M11.8305 7.43261C11.8305 5.94166 10.7797 5.51415 9.643 5.27353L9.04049 5.15149C8.14954 4.97634 8.08079 4.7179 8.08079 4.37195C8.08079 3.92304 8.48533 3.65476 9.16299 3.65476C9.9655 3.65476 10.1711 4.05789 10.2564 4.3607L10.2646 4.38586C10.3655 4.64993 10.6 4.80743 10.8927 4.80743C10.9685 4.80743 11.0366 4.79586 11.0875 4.78555C11.4016 4.72305 11.6204 4.47305 11.6204 4.17695C11.6204 4.10351 11.6071 4.0307 11.5804 3.95992C11.4194 3.44241 10.9672 2.62787 9.71425 2.44193V1.55442C9.71425 0.815193 8.55642 0.815193 8.55642 1.55442V2.44724C7.21047 2.65787 6.71484 3.57351 6.71484 4.37164C6.71484 5.82385 7.7261 6.22869 8.71392 6.43245L9.36565 6.57089C10.2938 6.75964 10.4574 7.00167 10.4574 7.44011C10.4574 7.9759 10.0044 8.29528 9.24502 8.29528C8.25923 8.29528 8.05829 7.85137 7.92391 7.35308C7.84532 7.0773 7.5961 6.89964 7.28875 6.89964C7.22172 6.89964 7.16797 6.90855 7.10312 6.91964L7.08359 6.92339C6.76577 6.99886 6.55249 7.24917 6.55249 7.5459C6.55249 7.6023 6.56249 7.65027 6.57062 7.68902L6.58062 7.7334C6.72359 8.21669 7.03921 9.27217 8.61345 9.50764V10.4366C8.61345 10.8064 8.90439 11 9.19221 11C9.48002 11 9.77128 10.8064 9.77128 10.4366V9.52389C11.0213 9.36107 11.8318 8.56247 11.8318 7.43277" fill="#34A853"/>
</svg>
