<svg fill="none" height="264" viewBox="0 0 261 264" width="261" xmlns="http://www.w3.org/2000/svg"><path d="m40.1939 81.5703h44.4274v-46.8441h-44.4274z" fill="#e0e0e0"/><path d="m43.2059 81.5703h44.4274v-46.8441h-44.4274z" fill="#fafafa"/><path d="m43.1902 34.7109h44.4587v46.8706h-44.4587zm44.4326.0264h-44.4013v46.8178h44.4013z" fill="#e0e0e0"/><path d="m49.1775 75.2734h32.4841v-34.2513h-32.4841z" fill="#fff"/><path d="m81.6616 75.5039c.2295.3465.4994.6639.8039.9451.522.5544 1.2476 1.2989 2.088 2.112s1.566 1.5365 2.1245 2.0539c.282.2998.5973.5656.9396.792-.2295-.3433-.4975-.6587-.7986-.9398-.522-.5544-1.2528-1.3042-2.088-2.112s-1.566-1.5418-2.1246-2.0592c-.2824-.3013-.5996-.5672-.9448-.792z" fill="#e0e0e0"/><path d="m49.1777 75.4141c-.3415.2315-.6535.5046-.9292.8131-.5481.528-1.2893 1.2619-2.088 2.0856s-1.5242 1.584-2.0358 2.1489c-.2978.2824-.5591.6018-.7778.9504.3371-.2332.6471-.5042.924-.8078.522-.528 1.2945-1.2619 2.088-2.112.7934-.8501 1.5294-1.584 2.0358-2.149.2981-.2756.5612-.5878.783-.9292z" fill="#e0e0e0"/><path d="m49.2664 41.1126c-.2311-.3421-.499-.6573-.7987-.9398-.522-.528-1.2476-1.3042-2.088-2.112-.8404-.8079-1.566-1.5418-2.1193-2.054-.2829-.2988-.598-.5644-.9396-.792.2259.3446.4924.6602.7934.9399.522.5544 1.2528 1.3041 2.088 2.112.8352.8078 1.5661 1.5417 2.1246 2.0539.279.303.5947.5691.9396.792z" fill="#e0e0e0"/><path d="m81.7505 41.1858c.3418-.2311.6554-.5023.9344-.8078.522-.528 1.2841-1.262 2.088-2.112.8039-.8501 1.519-1.584 2.0306-2.1437.2949-.2866.5575-.6053.783-.9504-.3464.2373-.6606.5196-.9344.8395-.5481.528-1.2894 1.2619-2.088 2.112-.7987.8501-1.5243 1.584-2.0358 2.149-.2935.2728-.5545.5794-.7778.9134z" fill="#e0e0e0"/><path d="m49.2663 75.2725c.0045-.0562.0045-.1127 0-.1689 0-.1162 0-.2693 0-.4752 0-.4277 0-1.056 0-1.848 0-1.6263 0-3.9864.0313-6.9802 0-5.9981.0365-14.5464.0626-24.779l-.1252.1267h32.3901l-.141-.1479v34.2514l.1253-.1267-23.4534.0633-6.5929.037h-1.7383-.4541.4333 1.7226l6.5615.037 23.5318.0633h.1252v-.1267c0-9.9211 0-21.6797 0-34.2514v-.1425h-.1513-32.3901-.1253v.1267c0 10.2643.047 18.839.0626 24.8582 0 2.9832 0 5.3381.0366 6.9538v1.8216.4647c0 .1108.0887.2428.0887.2428z" fill="#e0e0e0"/><path d="m60.0039 63.6289h10.8367v-10.9613h-10.8367z" fill="#ebebeb"/><path d="m27.7233 244.766h53.4737v-102.248h-53.4737z" fill="#e0e0e0"/><path d="m43.5869 244.766h53.4736v-102.248h-53.4736z" fill="#f5f5f5"/><path d="m47.5281 147.355h45.9099v16.21h-45.9099zm45.3357.571h-44.772v15.069h44.772z" fill="#e0e0e0"/><path d="m76.2901 150.871h-12.2513c-.6853 0-1.3425-.275-1.8271-.765-.4846-.491-.7568-1.155-.7568-1.849v-.617h17.4191v.617c0 .694-.2722 1.358-.7568 1.849-.4846.49-1.1418.765-1.8271.765z" fill="#ebebeb"/><path d="m47.5281 167.941h45.9099v16.21h-45.9099zm45.3357.576h-44.772v15.064h44.772z" fill="#e0e0e0"/><path d="m76.2901 171.457h-12.2513c-.6853 0-1.3425-.275-1.8271-.765-.4846-.491-.7568-1.155-.7568-1.849v-.617h17.4191v.617c0 .694-.2722 1.358-.7568 1.849-.4846.49-1.1418.765-1.8271.765z" fill="#ebebeb"/><path d="m47.5281 188.535h45.9099v16.204h-45.9099zm45.3357.57h-44.772v15.064h44.772z" fill="#e0e0e0"/><path d="m76.2901 192.043h-12.2513c-.6853 0-1.3425-.275-1.8271-.766-.4846-.49-.7568-1.154-.7568-1.848v-.617h17.4191v.617c0 .694-.2722 1.358-.7568 1.848-.4846.491-1.1418.766-1.8271.766z" fill="#ebebeb"/><path d="m47.5281 209.121h45.9099v16.21h-45.9099zm45.3357.57h-44.772v15.069h44.772z" fill="#e0e0e0"/><path d="m76.2901 212.637h-12.2513c-.6853 0-1.3425-.276-1.8271-.766s-.7568-1.155-.7568-1.848v-.618h17.4191v.618c0 .693-.2722 1.358-.7568 1.848s-1.1418.766-1.8271.766z" fill="#ebebeb"/><path d="m41.3529 143.785h58.0829v-5.095h-58.0829z" fill="#ebebeb"/><path d="m23.8867 143.785h17.4661v-5.095h-17.4661z" fill="#e0e0e0"/><path d="m94.2576 249.988h2.8083v-5.222h-2.8083z" fill="#e0e0e0"/><path d="m76.8958 249.988h2.8083v-5.222h-2.8083z" fill="#e0e0e0"/><path d="m45.1792 249.988h2.8083v-5.222h-2.8083z" fill="#e0e0e0"/><path d="m29.3208 249.988h2.8084v-5.222h-2.8084z" fill="#e0e0e0"/><path d="m158.042 24.6612-3.232 16.8349 24.689 4.8496 3.232-16.8349z" fill="#f5f5f5"/><path d="m182.778 29.7328c-.084.0684-.175.1285-.271.1795l-.804.4752-2.986 1.7055-9.918 5.5757-.078.0475-.063-.0739-.146-.1743-7.418-8.8704-2.213-2.7245c-.25-.3062-.449-.5544-.595-.7444-.075-.0832-.141-.1733-.198-.2693.083.0745.159.1557.229.2429l.632.7128 2.281 2.64c1.926 2.2756 4.562 5.3856 7.47 8.8281.052.0554.1.1136.146.1743l-.141-.0264 9.918-5.5176 3.033-1.6052.825-.4382c.095-.0531.195-.099.297-.1373z" fill="#e0e0e0"/><path d="m154.857 41.7133c-.042-.0528 2.26-1.9958 5.136-4.3402 2.876-2.3443 5.22-4.224 5.277-4.1606.058.0634-2.26 1.9906-5.136 4.3402s-5.241 4.2134-5.277 4.1606z" fill="#e0e0e0"/><path d="m173.518 34.6214c.057-.0317 1.451 2.64 3.132 5.9189 1.681 3.2788 2.97 5.998 2.913 6.0244-.058.0264-1.451-2.64-3.132-5.9188-1.681-3.2789-2.97-5.9981-2.913-6.0245z" fill="#e0e0e0"/><path d="m235.81 47.0338-17.632 8.9584 5.97 12.0221 17.632-8.9584z" fill="#f5f5f5"/><path d="m235.944 47.1562c-.02.0836-.048.165-.083.2429-.068.1743-.162.4013-.277.6864l-1.044 2.5027-3.508 8.2632-.031.0687h-.073l-.172-.037-8.807-1.9113-2.667-.602-.72-.1689c-.086-.0171-.17-.0419-.251-.0739.086.0039.172.0163.256.0369l.731.1373 2.677.528 8.817 1.8586.178.0369-.105.0528c1.389-3.2155 2.641-6.1195 3.56-8.2368l1.086-2.4921.308-.6706c.035-.0775.077-.1517.125-.2218z" fill="#e0e0e0"/><path d="m224.272 68.1129c-.047 0 .459-2.3338 1.133-5.185.673-2.8512 1.263-5.1533 1.31-5.1427s-.459 2.3338-1.133 5.185c-.673 2.8512-1.263 5.1744-1.31 5.1427z" fill="#e0e0e0"/><path d="m232.499 54.6814c0-.0476 2.145.924 4.739 2.1648 2.595 1.2408 4.698 2.2862 4.667 2.3284-.031.0423-2.145-.924-4.74-2.1648-2.594-1.2408-4.687-2.2862-4.666-2.3284z" fill="#e0e0e0"/><path d="m151.57 98.7122-2.035 10.0608 14.759 3.054 2.035-10.061z" fill="#f5f5f5"/><path d="m166.34 101.904-.161.105-.486.275-1.785.998-5.961 3.279-.052.026-.037-.042-.084-.106c-1.712-2.112-3.262-3.976-4.39-5.359l-1.32-1.6316-.355-.4488c-.045-.0491-.084-.1042-.115-.1637.05.0448.095.0943.136.1479l.376.4329 1.352 1.5843c1.137 1.378 2.698 3.257 4.421 5.333l.089.105h-.089l5.982-3.242 1.817-.966.495-.259c.054-.029.11-.052.167-.068z" fill="#e0e0e0"/><path d="m149.548 108.902c0-.031 1.368-1.177 3.101-2.566 1.733-1.388 3.163-2.492 3.189-2.46.026.031-1.368 1.177-3.101 2.566-1.733 1.388-3.163 2.492-3.189 2.46z" fill="#e0e0e0"/><path d="m160.776 104.762c.031 0 .851 1.584 1.827 3.564s1.744 3.611 1.712 3.627c-.031.016-.856-1.584-1.832-3.564s-1.749-3.606-1.707-3.627z" fill="#e0e0e0"/><path d="m186.85 87.8341 23.626-2.7403 2.39 16.1832-24.508 2.434z" fill="#ebebeb"/><path d="m186.876 87.8374 10.221-10.3805c.21-.2123.486-.345.782-.3758.295-.0308.592.0423.841.2069l11.782 7.8038" fill="#e0e0e0"/><path d="m188.359 103.711c-.032 0 1.639-2.318 3.732-5.1268 2.093-2.8089 3.816-5.0635 3.847-5.0371s-1.639 2.3179-3.732 5.1269c-2.094 2.809-3.816 5.064-3.847 5.037z" fill="#e0e0e0"/><path d="m212.866 101.283c-.031.026-2.088-1.822-4.604-4.1293-2.516-2.3074-4.531-4.224-4.505-4.224s2.088 1.8216 4.604 4.129c2.516 2.3073 4.531 4.1923 4.505 4.2243z" fill="#e0e0e0"/><path d="m188.139 88.5923-.835-7.466 20.682-2.4974 1.064 7.8355-9.443 9.3826z" fill="#fafafa"/><path d="m188.134 88.5928.225.1215.621.3748 2.333 1.4415 8.352 5.2219h-.141l9.428-9.4037-.037.1162c-.204-1.4943-.423-3.0624-.637-4.657-.146-1.056-.292-2.112-.433-3.168l.151.1162-20.687 2.4499.079-.1003c.24 2.3337.433 4.1923.569 5.4859.059.6266.106 1.1176.141 1.4731 0 .1584 0 .2851.031.3855.007.0437.007.0882 0 .132-.003-.0404-.003-.0811 0-.1215l-.052-.3696c-.045-.352-.108-.8377-.188-1.4573-.152-1.2988-.376-3.168-.653-5.507v-.0845h.084l20.671-2.5502h.136v.132c.139 1.056.283 2.112.433 3.168.219 1.584.433 3.168.637 4.6569v.0687l-.052.0475-9.459 9.372-.063.0581-.073-.0475-8.352-5.3328-2.291-1.4837-.595-.3907c-.063-.0449-.122-.0943-.178-.1479z" fill="#e0e0e0"/><path d="m205.11 82.7508c0 .0739-3.132.4963-7.053.9451-3.92.4488-7.073.755-7.078.6758s3.132-.4963 7.052-.9451 7.073-.755 7.079-.6758z" fill="#e0e0e0"/><path d="m205.334 84.8549c0 .0792-3.132.5016-7.052.9504-3.921.4488-7.073.7497-7.079.6758-.005-.0739 3.132-.5016 7.053-.9504 3.92-.4488 7.073-.7497 7.078-.6758z" fill="#e0e0e0"/><path d="m205.595 87.2917c0 .0739-3.132.528-7.052.9504-3.921.4224-7.074.7498-7.084.6758-.01-.0739 3.132-.528 7.052-.9503 3.92-.4224 7.073-.7498 7.084-.6759z" fill="#e0e0e0"/><path d="m205.851 89.7187c0 .0792-3.002.4857-6.724.9134-3.721.4277-6.749.7128-6.786.6389-.036-.0739 3.002-.4857 6.729-.9134s6.776-.7128 6.781-.6389z" fill="#e0e0e0"/><path d="m203.429 92.1424c-.383.1249-.779.2047-1.18.2376-.736.1109-1.754.2429-2.876.3854-1.123.1426-2.151.2482-2.892.3116-.399.0614-.804.0738-1.206.0369.385-.1208.783-.1987 1.185-.2323.736-.1109 1.754-.2482 2.876-.3907 1.122-.1426 2.151-.2429 2.887-.3063.399-.0611.803-.0753 1.206-.0422z" fill="#e0e0e0"/><path d="m200.97 94.5147c-.478.1843-.982.2861-1.493.301-.504.0896-1.02.0896-1.524 0 .475-.192.981-.294 1.493-.301.504-.0925 1.02-.0925 1.524 0z" fill="#e0e0e0"/><path d="m188.118 213.347c.546-2.93.317-5.953-.664-8.764s-2.679-5.311-4.921-7.245c0 0-1.295-.48-1.185.987.068.877-.767 2.112-1.457 1.584-1.205-.939-.824-2.846-1.341-4.292-.611-1.69-2.391-2.593-4.019-3.316-3.007-1.331-6.061-2.64-9.292-3.216-3.231-.575-6.682-.438-9.626 1.03.717 1.454 1.431 2.909 2.14 4.367.063.191.162.368.292.52.131.152.289.277.467.367s.372.144.57.159c.199.014.398-.011.587-.075l3.915-.29c.569-.043 1.3 0 1.467.575.167.576-.553 1.088-1.159 1.304l-4.103 1.489c1.363 1.999 3.24 3.582 5.429 4.578 2.187.987 4.458 1.77 6.786 2.339.716.275 1.495.335 2.245.174 1.195-.39 2.02-1.9 3.267-1.716-.071.695-.279 1.367-.609 1.98-.331.613-.778 1.153-1.317 1.59 4.839 1.922 8.211 4.271 12.528 5.876" fill="#f60"/><path d="m192.268 235.073c-.014-.042-.026-.084-.036-.127 0-.1-.047-.222-.084-.375-.068-.348-.167-.829-.297-1.447-.251-1.272-.611-3.083-1.044-5.317-.22-1.124-.46-2.354-.721-3.696-.125-.66-.261-1.346-.397-2.048l-.208-1.056c-.053-.352-.105-.722-.157-1.109-.454-2.978-.986-6.304-2.417-9.472-1.43-3.168-3.779-5.613-5.998-7.614-1.998-1.751-4.129-3.34-6.373-4.752-1.905-1.236-3.492-2.16-4.583-2.809l-1.258-.75-.324-.201-.104-.073s.041 0 .12.052l.334.18 1.279.707c1.101.629 2.704 1.537 4.625 2.751 2.265 1.408 4.416 2.997 6.431 4.752 1.184 1.046 2.292 2.177 3.314 3.385 1.099 1.302 2.022 2.745 2.746 4.292 1.451 3.211 1.978 6.558 2.422 9.541l.151 1.109.204 1.056c.131.702.261 1.389.386 2.049.246 1.32.475 2.55.689 3.696l.982 5.327c.109.618.198 1.104.256 1.452l.062.381c.005.038.005.077 0 .116z" fill="#263238"/><path d="m199.858 180.23c-1.044 1.584-4.004.808-4.176-1.056s2.568-3.215 3.904-1.88c.468-5.54-.092-11.12-1.649-16.452-.309 1.094-.829 2.115-1.53 3.004-.757.834-1.973 1.357-3.022.956-1.42-.528-1.837-2.508-1.248-3.923.59-1.415 1.869-2.392 3.091-3.3-.979-1.858-2.324-3.493-3.952-4.805-1.627-1.313-3.503-2.274-5.512-2.825-1.566 2.577-3.169 5.212-3.879 8.153s-.386 6.304 1.566 8.611c.825.982 1.916 1.748 2.558 2.862s.595 2.814-.522 3.416c-1.326.702-2.824-.623-3.576-1.938-.751-1.314-1.519-2.919-3.001-3.168-.38 5.248.654 10.502 2.994 15.201 2.34 4.7 5.896 8.669 10.291 11.485l-.152-.143c3.498-4.17 6.153-8.994 7.815-14.198zm-6.786-11.574c.79-.729 1.732-1.27 2.756-1.584.205-.079.429-.091.64-.034.212.057.401.18.54.351.136.174.233.375.285.59.053.215.058.439.017.656-.083.437-.261.851-.522 1.209-.386.606-.927 1.095-1.566 1.415-.326.155-.683.235-1.044.235-.36 0-.717-.08-1.044-.235-.227-.107-.424-.273-.569-.48-.146-.207-.235-.449-.261-.702.02-.277.098-.547.227-.791.13-.245.308-.459.525-.63z" fill="#f60"/><path d="m194.22 235.071c-.006-.054-.006-.109 0-.163 0-.122 0-.285 0-.486 0-.438-.042-1.056-.068-1.859-.067-1.626-.156-3.954-.271-6.827-.251-5.765-.653-13.728-1.295-22.514-.642-8.785-1.383-16.721-2.004-22.455-.303-2.873-.58-5.191-.773-6.79-.088-.792-.162-1.41-.208-1.848 0-.201-.037-.36-.053-.481-.008-.054-.008-.109 0-.164l.032.159c0 .121.041.28.067.48.063.433.147 1.056.256 1.838.219 1.584.522 3.917.846 6.784.668 5.735 1.446 13.676 2.088 22.462s1.013 16.753 1.227 22.524c.104 2.883.161 5.217.193 6.832v1.859.48c-.008.058-.02.114-.037.169z" fill="#263238"/><path d="m177.506 225.363 4.165 17.873h21.841l4.614-17.873z" fill="#455a64"/><path d="m184.375 239.48c0 .338 1.687 10.587 1.687 10.587h13.284l1.462-10.587z" fill="#455a64"/><path d="m202.907 243.156c0 .063-4.766.116-10.644.116s-10.644-.053-10.644-.116 4.766-.121 10.644-.121 10.644.053 10.644.121z" fill="#263238"/><path d="m205.177 235.948c0 .063-5.617.115-12.528.115s-12.528-.052-12.528-.115 5.622-.116 12.528-.116 12.528.053 12.528.116z" fill="#263238"/><path d="m204.196 238.436c0 .068-5.293.121-11.813.121s-11.818-.053-11.818-.121 5.293-.116 11.818-.116 11.813.053 11.813.116z" fill="#263238"/><path d="m204.102 240.928c0 .063-5.1.116-11.39.116s-11.39-.053-11.39-.116 5.1-.116 11.39-.116 11.39.053 11.39.116z" fill="#263238"/><path d="m205.814 233.53c0 .063-5.873.115-13.118.115s-13.113-.052-13.113-.115 5.868-.116 13.113-.116 13.118.053 13.118.116z" fill="#263238"/><path d="m206.232 231.539c0 .063-5.982.116-13.358.116s-13.364-.053-13.364-.116 5.983-.121 13.364-.121 13.358.053 13.358.121z" fill="#263238"/><path d="m126.481 227.463-1.415 18.977-8.159-.169-1.117-19.748z" fill="#ffbe9d"/><path d="m125.322 243.935v.528s9.166 3.828 9.25 5.591l-18.27-.264.339-6.145c1.341.675 2.811 1.051 4.309 1.101s2.989-.226 4.372-.811z" fill="#f60"/><path d="m128.198 247.404c-.068 0-.172-.385.037-.818.208-.433.579-.597.61-.528.032.069-.198.296-.365.655s-.204.686-.282.691z" fill="#263238"/><path d="m118.457 245.662c-.174.054-.323.171-.419.328-.096.158-.132.345-.103.527.048.178.161.331.316.429s.34.133.52.099c.186-.057.345-.18.447-.348.102-.167.14-.367.106-.56-.064-.184-.197-.335-.369-.422-.173-.087-.372-.102-.555-.043" fill="#fff"/><path d="m125.379 244.544c0 .09-.449.127-.892.412-.444.285-.684.655-.762.618-.079-.037.057-.554.6-.887s1.075-.222 1.054-.143z" fill="#263238"/><path d="m127.284 245.37c0 .09-.365.238-.673.613s-.402.781-.491.776c-.088-.005-.141-.528.251-.977.391-.449.913-.496.913-.412z" fill="#263238"/><path d="m116.302 249.829.078-1.399 17.623.786c.283.222.481.538.558.893z" fill="#263238"/><path d="m169.248 62.572s3.419-3.4161 4.327-3.9917c.909-.5755 2.026-1.8691 2.73-2.1648.808-.423 1.588-.8992 2.334-1.4256l1.388-1.7371s1.044-.1109.815 1.056l2.584-.528s.694.6072-.408 1.3253c-.535.415-1.208.6043-1.879.528l-1.086 1.225.188.6441 6.264.829c-.03.2885-.165.5555-.378.7502-.212.1948-.488.3036-.775.3058-1.044 0-4.824-.1637-4.824-.1637l5.826 2.2229s.308.9029-1.514.6389c-1.597-.2963-3.176-.6859-4.729-1.1669l-.522.4646 1.592.9399 1.488 1.943c-.318.1439-.673.1801-1.013.103-.339-.0771-.645-.2633-.872-.5307l-.96-.9504h-1.394s-3.79 2.677-5.058 2.054l-1.075 1.0929z" fill="#ffbe9d"/><path d="m180.351 57.9336c.031 0 .141.2376.214.66.092.5635.049 1.1412-.125 1.6843-.178.5514-.53 1.0283-1.003 1.357-.349.2534-.605.3326-.621.3009-.015-.0317.199-.1742.522-.454.399-.3416.697-.7872.862-1.2884.365-1.1985.052-2.2492.151-2.2598z" fill="#eb996e"/><path d="m175.016 62.4524c.565-.0686 1.104-.2812 1.566-.6177.502-.3883.912-.8842 1.201-1.452.361-.7344.648-1.5039.856-2.2968v-.0317l.031-.0317c.747-.6538 1.336-1.472 1.723-2.3918.189-.4659.312-.9565.365-1.4573.02-.2131-.044-.4255-.177-.5913-.143-.1308-.33-.2008-.522-.1954l.094-.0581c-.813 1.2619-1.854 2.3565-3.07 3.2261-.348.2479-.714.4686-1.096.66-.134.0771-.278.1356-.428.1742 0-.0369.569-.3062 1.43-.9662 1.164-.8954 2.162-1.991 2.95-3.2366l.036-.0581h.063c.136-.0108.273.0077.401.0541.129.0464.246.1197.345.2151.093.107.164.2318.208.367.043.1352.06.278.048.4198-.049.5338-.178 1.0571-.381 1.5523-.405.9627-1.027 1.8161-1.817 2.4921l.047-.0633c-.223.8047-.529 1.5834-.913 2.3232-.312.5899-.757 1.0966-1.3 1.4784-.352.2532-.758.4179-1.185.4805-.156.037-.318.0388-.475.0052z" fill="#eb996e"/><path d="m122.952 87.8912 24.925-10.6814 21.512-15.745 4.353 4.6781s-15.075 15.8823-19.001 19.1242c-3.925 3.2419-25.134 16.8959-25.134 16.8959z" fill="#f60"/><path d="m137.286 91.118c-.637-.1482-1.303-.0967-1.911.1478-.198.1004-.402.3221-.292.528.068.1215.23.1532.365.1796 2.475.3854 4.698 1.1352 7.167 1.5259l.418-.1795c-1.781-1.0535-3.723-1.7977-5.747-2.2018z" fill="#fafafa"/><path d="m141.759 89.5934c.405 1.2424.929 2.4415 1.566 3.5798l.246-.1426c.05-1.2661-.024-2.5341-.22-3.7857-.147-1.2144-.657-2.3545-1.461-3.2683-.423 1.1607-.469 2.4279-.131 3.6168z" fill="#fafafa"/><path d="m145.826 88.1769c-.522 1.4731-1.018 2.8881-1.566 4.3612l1.044-1.0824c.972-1.2326 1.746-2.6116 2.297-4.0867.065-.168.095-.3477.088-.528-.006-.0926-.036-.1818-.088-.2588-.051-.0769-.122-.1388-.204-.1794-.099-.0257-.202-.0266-.301-.0027s-.191.072-.268.1399c-.485.4348-.834 1.0039-1.002 1.6369z" fill="#fafafa"/><path d="m163.386 70.6384c.58-.004 1.145-.1884 1.618-.528.152-.1267.282-.3696.146-.528-.049-.0391-.107-.0665-.168-.0802-.062-.0137-.125-.0133-.187.001-2.218.2006-4.296.0317-6.514.2323l-.324.2429c1.76.5284 3.596.7515 5.429.66z" fill="#fafafa"/><path d="m159.81 72.9333c-.604-.9881-1.303-1.9132-2.088-2.7614l-.182.1795c.225 1.1038.557 2.1826.991 3.2208.383 1.0192 1.067 1.8948 1.958 2.508.112-1.0953-.126-2.1981-.679-3.1469z" fill="#fafafa"/><path d="m156.6 75.0348c.141-1.3834.271-2.7139.412-4.0973l-.652 1.151c-.577 1.278-.954 2.6389-1.117 4.0339-.022.1645-.01.3318.036.4911.025.08.07.1518.132.2077.061.0558.137.0935.218.1091.09.0005.179-.0213.26-.0637.08-.0423.148-.1038.199-.1792.329-.4873.507-1.0626.512-1.6526z" fill="#fafafa"/><path d="m73.1634 198.686-18.8808 6.268-3.132-8.121 18.6041-9.087z" fill="#ffbe9d"/><path d="m56.7988 204.199-.522.216s0 10.597-1.66 11.389l-7.1148-18.142 6.0656-2.154c-.1086 1.598.1237 3.201.6812 4.701.5575 1.499 1.4271 2.86 2.55 3.99z" fill="#f60"/><path d="m52.3619 198.117c-.121-.155-.2948-.26-.4878-.293s-.3913.007-.5562.114c-.16.117-.2685.293-.3026.49s.0089.4.1199.566c.1294.162.3134.27.5167.303s.4115-.011.5847-.124c.1497-.139.2408-.331.2544-.537.0137-.205-.0513-.408-.1813-.566" fill="#fff"/><path d="m47.502 197.661 1.4616-.528 6.264 17.577s-.0001.95-.6265 1.082z" fill="#263238"/><path d="m56.2401 204.502c-.0887.031-.3027-.396-.7569-.718-.4541-.322-.9082-.407-.9082-.502s.5585-.169 1.1014.232c.5429.402.6525.972.5637.988z" fill="#263238"/><path d="m56.209 206.717c-.0783.053-.3758-.269-.8665-.422-.4907-.154-.9135-.085-.9448-.175-.0313-.089.4437-.343 1.044-.142.6003.2.8509.702.7673.739z" fill="#263238"/><path d="m54.3819 208.704c-.0522-.074.3393-.375.9082-.338.569.037.924.37.8613.439-.0626.068-.4123-.085-.8821-.111-.4698-.027-.8457.095-.8874.01z" fill="#263238"/><path d="m124.032 155.233s-13.843 28.512-17.56 30.703c-3.716 2.191-46.51 17.598-46.51 17.598l-3.2938-10.285 38.7272-20.687s5.0586-13.95 6.9426-24.547c1.154-6.495 3.8-10.301 7.606-15.36 1.164-1.547 3.132-3.759 4.139-4.44l17.398 3.332z" fill="#263238"/><path d="m136.268 132.434-18.682-3.168-3.79 22.218 3.795 46.659s-2.61 16.22-2.166 26.891c.401 10.064.788 13.86.788 13.86s8.033.037 9.86.037c.768 0 7.632-50.503 7.632-50.503z" fill="#263238"/><g fill="#455a64"><path d="m127.713 144.621c-.035.112-.076.221-.126.327-.099.238-.229.528-.396.93l-1.478 3.395c-1.242 2.899-2.939 6.864-4.807 11.236-1.869 4.371-3.769 8.284-5.22 11.056-.726 1.383-1.326 2.497-1.765 3.258l-.522.871c-.052.105-.115.204-.188.296.035-.113.083-.221.141-.322.12-.228.272-.528.46-.898l1.681-3.295c1.399-2.793 3.241-6.7 5.136-11.088 1.895-4.387 3.607-8.321 4.907-11.193.647-1.426 1.18-2.577 1.566-3.364l.444-.903c.043-.108.099-.211.167-.306z"/><path d="m58.7144 195.362c.0313.069-.2088.248-.522.406-.3132.159-.6107.233-.6473.164-.0365-.069.2088-.253.522-.412.3132-.158.6108-.216.6473-.158z"/><path d="m63.3865 193.086c.0365.069-.4646.38-1.1067.697-.3742.233-.7917.385-1.2267.449-.0365-.069.4646-.38 1.1067-.697.3743-.233.7918-.386 1.2267-.449z"/><path d="m68.0584 190.785c.0365.069-.4646.38-1.1067.702-.3747.233-.7918.388-1.2267.454-.0365-.068.4646-.385 1.1067-.702.3747-.233.7918-.387 1.2267-.454z"/><path d="m72.7146 188.496c-.6894.544-1.4817.94-2.3281 1.162.6844-.552 1.4785-.949 2.3281-1.162z"/><path d="m77.3604 186.129c.0366.069-.4593.385-1.1014.713-.3717.236-.7875.392-1.2215.459-.0365-.069.4594-.385 1.1015-.707.3722-.237.7876-.395 1.2214-.465z"/><path d="m82.001 183.77c.0366.068-.4593.385-1.0962.712-.3708.24-.7867.4-1.2215.47.3147-.309.6874-.551 1.0963-.713.3712-.239.7869-.399 1.2214-.469z"/><path d="m86.6521 181.367c-.6787.563-1.4665.975-2.3125 1.209.3105-.316.6818-.564 1.091-.728.3717-.241.7869-.404 1.2215-.481z"/><path d="m91.2141 178.914c.0365.069-.4489.396-1.0805.739-.3635.249-.7742.418-1.2059.497.308-.317.6753-.568 1.0806-.74.3635-.248.7741-.417 1.2058-.496z"/><path d="m95.7399 176.352c.0365.063-.4333.411-1.044.776-.3574.259-.7647.439-1.1954.528.2944-.326.6491-.589 1.044-.776.3566-.261.7642-.441 1.1954-.528z"/><path d="m98.5641 172.426c.0478.438.0178.882-.0888 1.309-.0258.163-.0432.327-.0522.491-.0022.035-.0022.071 0 .106.0042.058-.0105.115-.0418.164-.039.064-.0864.122-.1409.174-.1879.169-.3236.222-.3497.195-.0261-.026.073-.142.2035-.327.0347-.043.0628-.091.0836-.143.0028-.014.0028-.028 0-.042-.0066-.04-.0066-.081 0-.121-.0155-.176-.0155-.353 0-.528.0292-.451.1614-.888.3863-1.278z"/><path d="m99.7699 167.312c.0275.445-.0347.89-.1827 1.31-.0637.44-.2165.863-.4489 1.241-.0271-.445.035-.89.1827-1.31.0663-.439.219-.861.4489-1.241z"/><path d="m101.101 162.238c-.051.883-.28 1.745-.673 2.535-.024-.445.045-.889.203-1.304.072-.439.232-.857.47-1.231z"/><path d="m102.495 157.176c-.055.884-.295 1.746-.705 2.529-.016-.444.059-.886.219-1.299.078-.439.243-.858.486-1.23z"/><path d="m103.936 152.129c.011.445-.069.887-.235 1.299-.08.437-.247.854-.491 1.225.061-.884.308-1.745.726-2.524z"/><path d="m105.444 147.094c-.079.882-.338 1.738-.762 2.513-.005-.446.08-.888.25-1.299.086-.436.26-.85.512-1.214z"/><path d="m107.177 142.148c-.071.436-.197.86-.376 1.262-.107.43-.3.833-.569 1.183.021-.446.129-.884.319-1.288.097-.437.314-.838.626-1.157z"/><path d="m109.975 137.725c-.124.428-.333.825-.616 1.167-.402.597-.783 1.056-.846 1.009.125-.428.337-.826.621-1.167.402-.597.783-1.051.841-1.009z"/><path d="m113.034 133.48c.063.048-.235.528-.663 1.135s-.82 1.019-.882.977c.142-.422.368-.81.663-1.14.428-.581.824-1.019.882-.972z"/><path d="m115.409 130.335c.057.048-.073.317-.292.607-.22.291-.444.481-.522.439-.079-.043.073-.317.292-.608.219-.29.475-.485.522-.438z"/><path d="m117.617 169.397c-.073 0-.157-.28-.183-.644-.026-.365 0-.666.084-.671.083-.005.156.285.182.65.027.364-.005.66-.083.665z"/><path d="m118.024 174.853c-.163-.431-.243-.89-.235-1.351-.081-.456-.068-.923.037-1.373.163.431.243.89.235 1.352.078.455.065.922-.037 1.372z"/><path d="m118.384 180.312c-.164-.433-.24-.894-.224-1.357-.072-.457-.054-.923.052-1.373.159.434.234.895.219 1.357.072.456.056.922-.047 1.373z"/><path d="m118.645 185.765c-.154-.435-.219-.896-.193-1.357-.068-.458-.041-.926.079-1.373.218.893.257 1.821.114 2.73z"/><path d="m118.771 191.231c-.14-.441-.193-.906-.157-1.367-.051-.459-.012-.924.115-1.368.195.9.209 1.83.042 2.735z"/><path d="m118.734 196.696c-.124-.446-.163-.912-.115-1.373-.039-.46.014-.923.157-1.362.125.444.164.908.115 1.367.039.462-.014.927-.157 1.368z"/><path d="m118.52 202.161c-.112-.449-.135-.915-.068-1.373-.023-.463.045-.926.199-1.362.113.448.138.915.073 1.373.02.463-.05.925-.204 1.362z"/><path d="m118.139 207.616c-.111-.914-.041-1.842.204-2.729.104.45.117.917.036 1.373.008.463-.074.924-.24 1.356z"/><path d="m117.685 213.059c-.091-.453-.091-.92 0-1.373-.005-.461.08-.918.25-1.346.089.453.089.919 0 1.373.006.461-.08.918-.25 1.346z"/><path d="m117.257 218.515c-.098-.451-.109-.918-.031-1.373-.011-.463.068-.925.234-1.357.099.453.111.921.037 1.378.01.463-.071.922-.24 1.352z"/><path d="m116.964 223.972c-.11-.449-.135-.915-.073-1.373-.021-.461.047-.922.199-1.357.113.447.138.911.073 1.368.026.463-.042.926-.199 1.362z"/><path d="m116.928 229.443c-.139-.441-.187-.906-.141-1.367-.046-.462-.004-.928.125-1.373.138.442.188.907.146 1.368.042.462-.002.927-.13 1.372z"/><path d="m117.215 234.896c-.166-.43-.245-.89-.235-1.351-.081-.456-.069-.923.037-1.373.246.885.313 1.812.198 2.724z"/><path d="m117.727 238.929c-.074 0-.178-.269-.23-.633s-.042-.66.036-.671c.079-.01.178.275.23.634s.037.66-.036.67z"/><path d="m123.427 132.527c-.069.189-.164.367-.282.528-.285.466-.595.916-.929 1.347-1.085 1.46-2.478 2.657-4.077 3.506-1.63.832-3.49 1.08-5.277.702-.535-.119-1.05-.315-1.53-.581-.18-.086-.345-.2-.49-.338.658.321 1.349.565 2.061.729 1.742.311 3.537.044 5.116-.761 1.562-.835 2.939-1.985 4.046-3.379.871-1.045 1.325-1.753 1.362-1.753z"/><path d="m132.75 132.867c-.017.511-.094 1.018-.23 1.51-.274 1.204-.647 2.382-1.117 3.522-.471 1.14-1.039 2.237-1.696 3.279-.253.444-.556.857-.904 1.23.216-.459.462-.904.736-1.33 1.215-2.118 2.154-4.386 2.793-6.748.109-.496.248-.985.418-1.463z"/><path d="m130.5 133.31c0 .042-.251.063-.423.374-.044.08-.071.168-.08.259s0 .183.028.269c.05.097.125.177.217.233.092.057.197.086.305.086.107 0 .213-.029.305-.086.092-.056.167-.136.217-.233.026-.087.035-.179.025-.269-.01-.091-.038-.179-.082-.259-.173-.306-.434-.327-.423-.369.01-.042.062-.037.177 0 .164.042.308.141.407.28.077.104.13.225.153.353.024.129.018.26-.017.386-.063.152-.17.282-.306.373s-.295.14-.459.14c-.163 0-.323-.049-.459-.14s-.242-.221-.305-.373c-.037-.125-.043-.258-.02-.386.024-.128.077-.249.155-.353.097-.14.239-.241.402-.285.136-.037.183-.016.183 0z"/></g><path d="m104.651 64.5223c-1.699-.846-3.66-.977-5.4541-.3645-1.794.6124-3.2753 1.9186-4.1198 3.6328-.8299 1.6949-1.044 3.7436-2.2811 5.148-1.1223 1.2514-2.8397 1.7108-4.4213 2.2546-1.5817.5438-3.2625 1.3781-3.8837 2.9515-.522 1.3411-.1723 2.9885-.9814 4.1765s-2.4899 1.415-3.9411 1.5101c.0798.329.2618.6234.5192.8401.2575.2166.5768.3441.9111.3637-1.0613.6197-2.2886.8857-3.5078.7603.3862 1.7847 1.9418 3.1311 3.654 3.696 1.7121.565 3.56.5597 5.3609.4436 2.041-.1268 4.223-.4172 5.742-1.7952 1.8322-1.658 2.4116-4.657 4.6615-5.6708 1.1484-.528 2.5108-.3801 3.6536-.9187 1.566-.7392 2.349-2.5872 2.522-4.3349.172-1.7476-.11-3.5112 0-5.28.109-1.7688.798-3.6168 2.307-4.4827z" fill="#263238"/><path d="m105.047 64.0049c.152-.338-.235-.7234-.605-.7076-.367.0642-.697.2659-.924.565-.932.9703-1.537 2.2142-1.728 3.5534-.089.67-.025 1.3516.188 1.9924.213.6409.568 1.2237 1.039 1.7036.201.2298.481.3733.783.4013.157-.0105.31-.0603.444-.1451s.245-.2018.323-.3406c.154-.2783.256-.5824.303-.8976.407-2.0371.558-4.1181.449-6.1935z" fill="#f60"/><path d="m103.46 71.0736c0-3.7752.601-7.7827 3.007-10.6603 2.146-2.5608 5.773-4.224 9.052-4.752 1.734-.1819 3.486.0273 5.131.6125 2.135.6969 3.393 2.7456 4.729 4.5724 2.673 3.6538 3.55 9.1714 2.61 10.9508l-14.872 12.3868c-3.272-.9398-6.921-2.3865-8.352-5.5017-1.002-2.1226-1.294-5.2906-1.305-7.6085z" fill="#263238"/><path d="m108.451 63.6879 9.865-5.3275c3.279-1.2038 6.546 2.4341 7.596 5.808 1.169 3.7383 2.448 8.353 2.698 11.3045.522 5.9242-3.654 7.7299-3.654 7.7299l2.015 6.695 2.313 7.4449-14.976-8.9761-7.147-22.2023c-.13-.5011-.07-1.0335.168-1.492.239-.4586.639-.8098 1.122-.9844z" fill="#ffbe9d"/><path d="m125.755 68.0311c.05.1911.023.3943-.075.5653-.098.1711-.259.2962-.447.3482-.09.0309-.185.0431-.28.0358-.095-.0074-.187-.034-.272-.0784-.084-.0444-.159-.1056-.219-.18-.06-.0743-.105-.1603-.132-.2526-.048-.1911-.02-.3936.077-.5643.098-.1707.257-.296.445-.3492.09-.0302.185-.0417.28-.0341.094.0077.187.0345.271.0788s.158.1052.219.1792c.061.0739.106.1594.133.2513z" fill="#263238"/><path d="m125.385 66.18c-.053.1268-.726-.0686-1.478.2165-.751.2851-1.164.8712-1.279.8079-.114-.0634 0-.2271.147-.4964.243-.3478.585-.6128.981-.7603.391-.1494.819-.1679 1.221-.0528.303.1056.434.2323.408.2851z" fill="#263238"/><path d="m118.656 70.1275c.048.1911.02.3936-.077.5643-.098.1706-.258.296-.445.3492-.091.0302-.186.0418-.281.0342s-.188-.0343-.272-.0786c-.085-.0442-.16-.1051-.221-.1791s-.107-.1596-.135-.2517c-.048-.1911-.02-.3936.078-.5643.097-.1707.257-.296.444-.3492.091-.0295.186-.0406.281-.0326.095.0079.187.0348.271.0789.085.0442.16.1048.221.1785.061.0736.107.1587.136.2504z" fill="#263238"/><path d="m117.935 68.4942c-.062.1161-.715-.1531-1.487.0422-.773.1954-1.253.7339-1.363.6547-.109-.0792 0-.227.204-.4699.274-.3186.638-.5437 1.044-.6442.404-.1046.83-.075 1.216.0845.298.1268.423.2799.386.3327z" fill="#263238"/><path d="m122.148 74.0187c.379-.2252.784-.4025 1.206-.528.198-.0739.376-.1584.376-.3062-.034-.2118-.133-.4076-.282-.5597-.303-.4435-.627-.9029-.961-1.3833-1.346-1.9748-2.375-3.6221-2.297-3.696.079-.074 1.238 1.5048 2.584 3.4795l.94 1.3939c.184.2127.289.4833.298.7656-.013.0778-.042.1519-.086.2168-.045.0648-.103.1189-.17.1581-.102.0575-.211.1018-.324.132-.412.1638-.844.2738-1.284.3273z" fill="#263238"/><path d="m124.967 83.1972c-2.641.7046-5.424.6553-8.039-.1425 0 0 2.954 3.4795 8.467 1.5312z" fill="#eb996e"/><path d="m119.94 76.1345c.07-.2035.188-.3862.345-.5318s.347-.2496.553-.3025c.285-.0925.588-.1065.88-.0406s.561.2093.78.4155c.169.1995.258.4555.25.7181-.026.1425 0 .0686-.073.1795-.241.4167-.579.7667-.986 1.019-.223.1196-.476.1684-.727.1402-.25-.0283-.486-.1323-.677-.2986-.171-.1634-.293-.3711-.354-.6003-.06-.2292-.057-.471.009-.6985z" fill="#eb996e"/><path d="m119.992 75.1421c.125-.0422.334.8132 1.206 1.2408.872.4277 1.749.1056 1.785.2218.037.1162-.162.2165-.522.3221-.493.1306-1.016.082-1.477-.1373-.441-.214-.784-.5924-.955-1.056-.136-.3485-.094-.5808-.037-.5914z" fill="#263238"/><path d="m117.701 66.5267c0 .2376-.825.3273-1.713.6705-.887.3432-1.566.7762-1.727.6125-.079-.0792 0-.3115.25-.5914.33-.3586.74-.632 1.196-.7972.454-.1719.942-.2333 1.425-.1796.365.0687.579.1954.569.2852z" fill="#263238"/><path d="m124.56 64.1835c-.094.2112-.674.1584-1.321.3115s-1.159.4171-1.331.264c-.078-.0792-.037-.2799.162-.528.266-.2874.615-.4831.997-.5597.38-.091.778-.0577 1.138.095.276.1479.396.3116.355.4172z" fill="#263238"/><path d="m110.346 72.7472c-.089 0-3.388-.2587-2.61 2.9252.777 3.1838 3.779 1.7265 3.763 1.6368-.015-.0898-1.153-4.562-1.153-4.562z" fill="#ffbe9d"/><path d="m110.251 76.3429s-.047.0528-.13.1214c-.116.0894-.262.1292-.407.1109-.36-.037-.773-.5016-.929-1.056-.076-.2714-.09-.5565-.042-.8343.005-.1067.035-.2106.089-.3027.054-.092.129-.1693.219-.2253.059-.0318.126-.0423.192-.0298.065.0125.125.0472.168.0985.063.0792.057.1478.078.1478s.053-.0686 0-.1953c-.038-.0721-.098-.1296-.172-.1637-.051-.0224-.106-.0339-.162-.0339-.055 0-.11.0115-.162.0339-.123.0579-.229.1473-.308.2593-.078.112-.127.2428-.14.3796-.075.3069-.075.6276 0 .9345.055.2865.193.5502.395.7585s.46.3521.742.4137c.091.0023.181-.0154.264-.0519s.157-.0909.217-.1593c.099-.1267.099-.2007.088-.2059z" fill="#eb996e"/><path d="m109.458 77.6595s-.104.169 0 .4488c.023.0863.065.1664.121.2349.057.0684.128.1234.208.1611.104.0336.214.0416.321.0232s.208-.0626.295-.1288c.091-.0553.167-.1323.222-.2244.054-.0921.086-.1963.091-.3036-.005-.1774-.078-.3458-.203-.4699-.214-.2059-.418-.1795-.413-.1637.006.0159.167.0475.329.2429.088.1108.136.2486.136.3907-.008.0835-.035.1638-.079.2345-.045.0707-.105.1297-.177.1721-.066.0513-.142.087-.223.1044-.082.0173-.166.0159-.247-.0041-.125-.0583-.223-.1647-.271-.2957-.053-.136-.09-.2777-.11-.4224z" fill="#fafafa"/><path d="m126.199 64.223c-.691-.7847-1.601-1.3374-2.61-1.584-.992-.2904-2.031-.4277-3.023-.7287-2.302-.7043-4.264-2.2469-5.507-4.3296.699-.5741 1.52-.9771 2.398-1.1777s1.79-.1932 2.665.0214c1.756.449 3.306 1.4948 4.391 2.9621 1.076 1.4631 1.824 3.146 2.192 4.9315" fill="#263238"/><path d="m107.558 62.7379c1.796-2.8037 5.904-5.111 9.192-4.7995.188 2.7931-1.096 6.2938-2.37 8.7806-1.273 2.4869-1.487 6.3888-5.637 6.0932-.287 0-.522.3009-.809.2164-.228-.0993-.413-.277-.522-.5016-.867-1.4879-1.312-3.1885-1.286-4.9153.026-1.7267.521-3.413 1.432-4.8738z" fill="#263238"/><path d="m116.688 58.1484c.013.2455-.001.4916-.042.734-.052.4699-.125 1.1457-.24 1.9852-.271 2.1916-.741 4.3533-1.404 6.4575-.381 1.1576-.869 2.2766-1.457 3.3422-.412.9272-1.09 1.7073-1.947 2.2387-.303.1646-.642.2507-.986.2507-.345 0-.683-.0861-.987-.2507-.161-.0913-.301-.2154-.412-.3643-.073-.1056-.099-.169-.089-.1742.287.3413.686.5673 1.123.6371.438.0697.886-.0214 1.263-.257.802-.5371 1.433-1.2983 1.816-2.1912.567-1.06 1.042-2.1676 1.42-3.3105.653-2.0915 1.145-4.2311 1.472-6.3994.125-.792.235-1.452.324-1.9694.027-.2468.076-.4906.146-.7287z" fill="#263238"/><path d="m82.2462 80.9416c-.04-.1049-.0646-.2152-.0731-.3273-.0333-.3194-.0157-.642.0522-.9557.1106-.5014.3259-.9731.6316-1.3834.4026-.5516.9561-.9719 1.5921-1.2091.7871-.2353 1.6246-.2353 2.4116 0 .8494.2714 1.7607.2714 2.6101 0 .9067-.4088 1.6449-1.1236 2.088-2.0222.4861-.9663.7989-2.0121.9239-3.0888.1363-1.0955.3456-2.1803.6264-3.2472.2965-.9981.7902-1.925 1.4512-2.7245.9326-1.1381 2.1724-1.9772 3.5682-2.415 1.3959-.4378 2.8876-.4555 4.2926-.0508.303.0888.6.1981.888.3274.102.0426.2.0956.292.1584 0 .0264-.417-.1848-1.211-.3802-1.111-.2817-2.271-.307-3.3928-.0739-1.6686.3448-3.1679 1.2626-4.2439 2.5978-.6341.7771-1.108 1.6747-1.3937 2.64-.2702 1.0575-.4724 2.1316-.6056 3.2155-.1316 1.1053-.4568 2.1781-.9604 3.168-.4753.9427-1.2595 1.6892-2.2185 2.112-.4591.1766-.9514.2469-1.4408.2059-.4468-.043-.8899-.1189-1.3258-.227-.747-.24-1.547-.2546-2.3021-.0423-.6076.2155-1.1406.6043-1.5347 1.1194-.3018.3872-.5221.8328-.6472 1.3094-.0998.4234-.1263.8611-.0783 1.2936z" fill="#263238"/><path d="m104.28 63.2662c.058-.1721.138-.3356.24-.4857.26-.4254.574-.8142.934-1.1563 1.207-1.1246 2.7-1.8855 4.312-2.1965 1.596-.294 3.225-.3563 4.839-.1848.616.0581 1.112.1161 1.456.1689.178.0099.354.0454.522.1056-.667.0098-1.334-.0166-1.999-.0792-1.595-.1128-3.197-.0259-4.771.2588-1.565.3049-3.025 1.0184-4.233 2.0697-.475.4618-.91.9634-1.3 1.4995z" fill="#455a64"/><path d="m108.618 58.3176c.385-.2137.801-.3668 1.232-.454 1.023-.269 2.075-.4091 3.132-.4172.583-.0089 1.167.0353 1.743.132.492.0766.944.3184 1.284.6864.229.251.361.5773.371.9188 0 .2376-.073.359-.084.3537-.01-.0053 0-.132 0-.3485-.049-.301-.191-.5784-.407-.792-.325-.3149-.743-.515-1.19-.5702-.562-.0811-1.129-.1147-1.697-.1003-1.036.0067-2.069.1164-3.085.3273-.428.1109-.862.199-1.299.264z" fill="#455a64"/><path d="m102.985 76.0325c-.042-.066-.072-.1394-.088-.2165-.076-.2077-.125-.4241-.147-.6441-.078-.8226.077-1.6508.449-2.3866.537-1.0926 1.347-2.0245 2.349-2.7034 1.222-.7936 2.485-1.5198 3.785-2.1753 2.295-1.2794 4.236-3.1224 5.643-5.3592.428-.6738.805-1.3798 1.127-2.112.105-.276.229-.5442.371-.8026-.01.0761-.029.1507-.058.2218-.047.1425-.104.359-.214.623-.285.756-.634 1.4855-1.044 2.1807-1.385 2.303-3.343 4.1982-5.679 5.4964-1.291.6391-2.549 1.344-3.769 2.112-.978.6481-1.777 1.5365-2.323 2.582-.374.7025-.554 1.4941-.522 2.2915.032.6019.152.8923.12.8923z" fill="#455a64"/><path d="m115.362 97.3397c-.042 0-.037-.528-.183-1.3939-.186-1.114-.564-2.1862-1.117-3.168-.496-1.0041-1.293-1.8244-2.276-2.3443-.426-.1653-.881-.239-1.336-.2165.113-.0632.241-.0977.37-.1003.355-.0359.713.0148 1.044.1478 1.058.4869 1.917 1.328 2.433 2.3813.569 1.0027.935 2.1103 1.075 3.2577.082.4755.078.9619-.01 1.4362z" fill="#263238"/><path d="m117.178 88.1249 12.356 9.5568-3.544-11.0879 2.996 1.5523s5.345 10.0003 7.047 15.0319c.662 1.954 1.154 3.963 1.472 6.004.397 3.616-1.597 7.661-1.597 7.661l1.707 13.047c.24 1.404-.663 2.761-1.274 2.761l-19.351-2.64c-2.521-.501-3.554-1.837-3.403-3.316l.292-2.735-8.268-27.9837c-.486 1.6579-.992-4.0234 2.699-5.3909 1.56-.5966 6.493-2.9357 8.868-2.4605z" fill="#f60"/><path d="m131.022 93.5664s.063.0634.157.2006l.402.5967c.344.528.835 1.2777 1.414 2.2334 1.57 2.4607 2.832 5.1089 3.759 7.8829.918 2.802 1.117 5.795.579 8.696-.173.874-.445 1.724-.809 2.535-.12.29-.251.496-.324.644-.034.076-.078.146-.13.211 0 0 .13-.322.36-.898.323-.816.566-1.664.725-2.529.476-2.876.254-5.826-.647-8.595-.921-2.754-2.147-5.3928-3.654-7.8677l-1.341-2.2757-.366-.623c-.05-.0652-.092-.1361-.125-.2112z" fill="#263238"/><path d="m132.979 127.976c-.355.564-.537 1.222-.522 1.891.027.227.167.528.392.47.141 0 .23-.164.297-.291 1.238-2.249 2.407-4.166 3.654-6.415l-.057-.443c-1.521 1.362-2.795 2.982-3.764 4.788z" fill="#fafafa"/><path d="m132.656 122.616c1.325.078 2.654.022 3.967-.169l-.031-.227c-1.194-.532-2.435-.949-3.706-1.246-1.196-.284-2.449-.192-3.592.264.948.809 2.125 1.292 3.362 1.378z" fill="#fafafa"/><path d="m132.755 118.201 3.722 3.168-.82-1.51c-.822-1.369-1.851-2.6-3.048-3.649-.14-.128-.305-.223-.486-.279-.09-.029-.186-.032-.278-.01s-.176.069-.244.136c-.058.087-.095.188-.107.293s.002.211.04.309c.247.625.672 1.161 1.221 1.542z" fill="#fafafa"/><path d="m121.85 114.282c1.044.691 2.088.913 3.211 1.367h.219c-.734-.985-1.564-1.893-2.479-2.709-.926-.818-2.078-1.33-3.3-1.467.464 1.168 1.288 2.153 2.349 2.809z" fill="#fafafa"/><path d="m124.591 111.125c.59 1.473 1.164 2.878 1.754 4.356l.047-1.521c-.098-1.597-.438-3.169-1.008-4.662-.068-.176-.169-.337-.297-.475-.068-.067-.152-.114-.244-.137-.092-.022-.188-.019-.278.01-.091.048-.17.118-.228.203-.058.086-.095.185-.106.288-.071.668.054 1.342.36 1.938z" fill="#fafafa"/><path d="m131.909 109.684c-.013.145-.049.288-.104.422-.044.162-.102.319-.172.47-.082.207-.174.41-.277.607-.271.516-.591 1.005-.955 1.458-.9 1.108-2.042 1.99-3.336 2.576-.527.231-1.076.408-1.639.528-.377.09-.761.143-1.148.159-.14.021-.283.021-.423 0 0-.053.6-.079 1.529-.328.538-.148 1.063-.344 1.566-.586.618-.295 1.207-.648 1.76-1.056.542-.428 1.042-.909 1.493-1.436.364-.433.691-.898.976-1.388.496-.861.683-1.442.73-1.426z" fill="#263238"/><path d="m122.67 116.099c.849.608 1.86.943 2.901.96 1.04.017 2.062-.285 2.93-.865 1.858-1.177 2.761-3.21 3.001-5.28-.917 1.551-2.209 2.84-3.754 3.747s-3.292 1.402-5.078 1.438z" fill="#000" opacity=".09"/><path d="m111.217 103.617-2.349 3.379c.491 1.875 1.138 3.638 1.629 5.507 1.069-2.832 1.319-5.915.72-8.886z" fill="#000" opacity=".09"/><path d="m77.2194 143.32-3.3774 5.427-7.4802 2.26c-.0264-.253-.0021-.508.0714-.751.0736-.244.1948-.469.3566-.664.522-.486-1.566.201-1.566.201l-1.566 3.295s-1.044-.074-.9866-.998 1.2424-3.828 1.2424-3.828l.5585-.095c-.086-.253-.1115-.522-.0743-.787.0372-.264.136-.516.2884-.734.057-.909.3486-1.786.8456-2.545.4178-.687.9352-1.306 1.5347-1.837l6.5354-2.725z" fill="#ffbe9d"/><path d="m71.9837 147.525c-.751.517-1.5698.926-2.4325 1.214-.8321.364-1.7108.608-2.61.724 0-.069 1.1431-.418 2.5317-.951 1.3885-.533 2.4795-1.051 2.5108-.987z" fill="#eb996e"/><path d="m67.86 146.848c-.6043.359-1.247.648-1.9158.86-.6384.288-1.3075.501-1.994.634.6014-.361 1.2426-.65 1.9105-.861.6403-.287 1.3111-.5 1.9993-.633z" fill="#eb996e"/><path d="m67.7348 145.199c-.497.27-1.0095.51-1.5347.718-.4892.286-.9947.541-1.5138.766.8352-.809 1.9026-1.328 3.0485-1.484z" fill="#eb996e"/><path d="m67.7661 143.543c-.381.245-.7893.443-1.2163.591-.3951.223-.8136.4-1.2476.528.3193-.336.7129-.591 1.1484-.744.4025-.23.8537-.358 1.3155-.375z" fill="#eb996e"/><path d="m112.141 91.0859c.359.2858.669.6281.919 1.0138.645.9081 1.124 1.9255 1.415 3.0043.288 1.0777.382 2.1992.276 3.3106-.022.4617-.119.9165-.287 1.3464-.047 0 .058-.528.094-1.3622.099-2.1868-.479-4.3502-1.655-6.1882-.454-.7023-.798-1.093-.762-1.1247z" fill="#263238"/><path d="m109.86 90.3945c1.723 0 3.31 1.6104 3.456 3.3476.177 2.0592.198 5.111-.809 7.5029-1.686 3.992-18.7924 24.515-18.7924 24.515l-16.4899 17.561-4.2491-4.303s8.7644-14.488 9.9545-16.236c2.4743-3.648 8.7018-10.074 11.1708-14.34 2.4691-4.267 7.9871-12.0916 9.6521-13.7971 1.665-1.7054 3.064-4.2451 6.107-4.2504z" fill="#f60"/><path d="m99.6603 110.389c-.6771.038-1.3269.283-1.8636.702-.167.159-.3079.444-.1409.608.0586.043.1262.072.1977.085s.1449.009.2147-.012c2.5838-.337 4.9748-.528 7.5588-.871l.198-.306c-2.027-.43-4.114-.499-6.1647-.206z" fill="#fafafa"/><path d="m103.831 106.861c.702 1.099 1.516 2.122 2.427 3.051l.141-.242c-.24-1.241-.608-2.453-1.096-3.617-.492-1.17-1.329-2.159-2.396-2.83-.083 1.281.241 2.556.924 3.638z" fill="#fafafa"/><path d="m107.49 104.058c-.104 1.621-.193 3.168-.297 4.799l.704-1.372c.617-1.516.995-3.119 1.123-4.752.018-.195-.003-.391-.063-.576-.032-.092-.088-.173-.163-.234-.074-.062-.164-.101-.26-.114-.105.004-.207.034-.298.087-.091.054-.168.129-.224.219-.36.581-.541 1.257-.522 1.943z" fill="#fafafa"/><path d="m111.186 103.277c-.029.081-.069.158-.12.227-.104.164-.23.37-.386.613-.345.528-.862 1.283-1.514 2.196-1.316 1.833-3.195 4.314-5.314 7.017-2.119 2.704-4.0873 5.112-5.5333 6.864-.7203.861-1.3154 1.553-1.7278 2.028l-.4854.528c-.1149.121-.1775.185-.1827.174-.0053-.01.0417-.074.1409-.211l.4489-.57 1.66-2.081 5.4704-6.864c2.119-2.698 4.02-5.158 5.372-6.959.647-.881 1.179-1.584 1.566-2.143.167-.233.307-.428.428-.586.048-.086.107-.164.177-.233z" fill="#263238"/><path d="m84.0784 121.209c1.9837.601 4.0557.847 6.123.729.6768.025 1.345-.159 1.9158-.528.1827-.143.3445-.412.1931-.591-.0555-.048-.121-.082-.1915-.101-.0706-.018-.1443-.02-.2157-.005-2.61.111-5.0007.111-7.6003.222" fill="#fafafa"/><path d="m85.7541 125.095c-.6073-1.155-1.3315-2.244-2.161-3.247l-.1671.232c.1399 1.256.4057 2.494.7935 3.696.3915 1.21 1.1426 2.268 2.1506 3.031.1904-1.272-.0254-2.573-.616-3.712z" fill="#fafafa"/><path d="m81.8862 128.057c.2401-1.611.4594-3.168.6995-4.752l-.8196 1.304c-.74 1.46-1.2524 3.028-1.519 4.646-.0391.19-.0391.386 0 .576.0233.094.0716.179.1398.247.0681.068.1534.116.2465.138.1061.006.2121-.014.3087-.059.0965-.045.1805-.114.2446-.2.4163-.548.66-1.21.6995-1.9z" fill="#fafafa"/><path d="m208.017 33.1686 2.417 3.1575.835 5.1955 1.827-1.2989 1.827 2.7509 16.193-15.5127z" fill="#f60"/><path d="m213.07 40.2531-.825.5702-.585-2.9092z" fill="#000" opacity=".3"/><path d="m210.434 36.3261 20.682-8.8652-19.33 10.1588-.517 3.9019z" fill="#000" opacity=".3"/><path d="m231.116 27.4531c-.074.0621-.155.1153-.241.1584l-.709.4066-2.647 1.4467-8.801 4.6834-7.042 3.696.047-.1532c.888 1.6316 1.692 2.941 2.266 3.8439.276.4329.496.7814.673 1.056.088.1175.161.2451.219.3801-.103-.1044-.196-.2194-.276-.3432-.173-.227-.418-.5702-.721-1.0137-.61-.8871-1.446-2.1807-2.359-3.8069l-.057-.1003.104-.0581 7.021-3.733 8.811-4.6094 2.689-1.3675.736-.3643c.088-.056.185-.097.287-.1215z" fill="#263238"/><path d="m231.116 27.4546c.031.0687-4.604 2.112-10.352 4.6095-5.747 2.4974-10.44 4.4246-10.44 4.356s4.604-2.112 10.352-4.6095c5.747-2.4974 10.414-4.4193 10.44-4.356z" fill="#263238"/><path d="m211.269 41.5188c-.072-.6347-.054-1.2765.052-1.9061.021-.6371.13-1.268.324-1.8744.072.6329.054 1.2729-.052 1.9008-.018.6391-.127 1.2723-.324 1.8797z" fill="#263238"/><path d="m191.417 54.3804c0 .0739-.266.1742-.631.227-.366.0528-.658 0-.663-.0475s.277-.1795.626-.2271c.35-.0475.653-.0369.668.0476z" fill="#263238"/><path d="m196.068 52.2695c.042.0581-.386.4647-1.002.8343-.356.2626-.773.4281-1.211.4804-.031-.0739.47-.359 1.07-.718.348-.2592.733-.4606 1.143-.5967z" fill="#263238"/><path d="m199.435 48.3926c-.088.4358-.286.8413-.574 1.1775-.412.5966-.851.9873-.908.9398.174-.3989.406-.7691.689-1.0982.402-.5756.725-1.056.793-1.0191z" fill="#263238"/><path d="m200.662 43.4219c.166.4152.206.8711.115 1.3094-.005.4482-.135.8858-.376 1.2619-.022-.4322.013-.8655.104-1.2883.003-.4324.056-.863.157-1.283z" fill="#263238"/><path d="m197.556 39.8524c.444-.0917.906-.0066 1.289.2376.679.3432.982.9082.93.9346-.053.0264-.444-.3855-1.044-.6917-.601-.3063-1.185-.396-1.175-.4805z" fill="#263238"/><path d="m193.485 42.3718c.021-.4558.207-.8879.522-1.2144.249-.3822.634-.6527 1.075-.7551.042.0687-.433.3908-.861.9293-.428.5386-.663 1.0666-.736 1.0402z" fill="#263238"/><path d="m194.325 47.2598c-.377-.2519-.66-.6234-.804-1.056-.224-.391-.312-.8463-.251-1.2936.206.3789.381.7745.522 1.1827.261.6494.601 1.1088.533 1.1669z" fill="#263238"/><path d="m198.793 49.5393c-.432.096-.882.0611-1.294-.1003-.438-.0751-.843-.2811-1.164-.5913.423.0615.838.1713 1.237.3273.42.0708.83.1932 1.221.3643z" fill="#263238"/><path d="m203.758 48.4844c-.319.3017-.709.5146-1.133.6177-.398.1931-.84.2734-1.279.2323.37-.219.769-.3843 1.185-.491.389-.1798.803-.3008 1.227-.359z" fill="#263238"/><path d="m207.923 45.4805c.052.0528-.355.4699-.908.924-.306.3121-.672.5567-1.076.7181-.047-.0634.36-.4805.909-.9293.306-.3093.672-.5519 1.075-.7128z" fill="#263238"/><path d="m210.471 42.546c.067.0317 0 .3326-.235.6389-.235.3062-.449.491-.522.4435-.074-.0475.083-.3115.287-.6019.203-.2904.402-.5122.47-.4805z" fill="#263238"/></svg>