<svg width="84" height="124" viewBox="0 0 84 124" fill="none" xmlns="http://www.w3.org/2000/svg">
    <path d="M50.1889 3.00476C50.1703 6.40895 50.1727 9.81315 50.1193 13.222C50.1077 13.9976 50.5509 14.0579 51.1124 14.188C61.6318 16.6401 69.6683 22.5042 75.2218 31.7802C76.7557 34.3345 75.7927 36.5939 72.9408 37.4461C72.2262 37.6597 71.9291 37.4763 71.6136 36.8331C67.1653 27.7769 60.0322 22.0111 50.2516 19.617C33.0084 15.3908 15.1618 26.7482 11.9155 43.941C8.21907 63.5279 23.3437 81.4406 43.3274 81.1456C59.0321 80.9134 71.9871 69.6629 74.2542 54.2743C74.4863 52.7046 74.4863 52.7046 72.8828 52.7046C67.3532 52.7046 61.8236 52.7371 56.294 52.6744C55.2475 52.6628 54.8669 53.0088 54.5351 53.9632C53.6355 56.5942 51.8707 58.842 49.5291 60.3391C47.1875 61.8363 44.4076 62.4943 41.6439 62.2055C38.8801 61.9168 36.296 60.6984 34.314 58.7495C32.3319 56.8005 31.0691 54.2364 30.732 51.4762C29.9291 45.4782 33.904 39.5778 39.7562 38.0777C45.8636 36.5126 52.0545 39.608 54.3518 45.3761C55.0618 47.1641 55.0618 47.1618 56.9924 47.1641C63.4897 47.1641 69.9869 47.1989 76.4842 47.1525C78.257 47.1409 79.6028 47.5728 80.118 49.4467V52.9298C79.7931 54.7086 79.5936 56.5221 79.1248 58.2707C75.1963 72.8697 65.8217 81.9561 51.2238 85.6923C50.4256 85.8967 50.0868 86.1567 50.1054 87.0531C50.1703 89.9905 50.1054 92.9326 50.1448 95.877C50.1448 96.5737 49.9917 96.8569 49.2491 96.8059C48.2445 96.7466 47.2372 96.7466 46.2326 96.8059C45.4831 96.8523 45.3345 96.5481 45.3438 95.8654C45.3786 93.1184 45.3322 90.3713 45.374 87.6243C45.3856 86.8534 45.2417 86.5027 44.3692 86.5817C43.4067 86.6699 42.4382 86.6699 41.4757 86.5817C40.6496 86.5027 40.4987 86.8394 40.5057 87.5569C40.5336 90.2668 40.4871 92.9767 40.5336 95.6843C40.5475 96.5179 40.3595 96.8918 39.4476 96.8082C38.5613 96.7315 37.67 96.7315 36.7837 96.8082C35.9275 96.8778 35.765 96.5179 35.7766 95.7447C35.8161 92.9581 35.7349 90.1716 35.8207 87.3851C35.8555 86.2914 35.5492 85.892 34.4586 85.6343C24.5179 83.2796 16.7073 77.8041 11.2937 69.1288C-0.563798 50.1085 7.51134 25.009 28.2027 16.2802C30.2702 15.4071 32.3795 14.6361 34.5886 14.2414C35.656 14.051 35.8347 13.5912 35.8184 12.6391C35.7674 9.42768 35.8022 6.21622 35.8022 3.00476H40.4431C40.4709 5.69839 40.5057 8.39435 40.5219 11.088C40.5336 13.2916 40.5219 13.2893 42.666 13.2824C43.3204 13.2824 43.9748 13.2708 44.6268 13.3149C45.1791 13.352 45.3763 13.1477 45.3717 12.595C45.3392 9.39982 45.3322 6.20229 45.316 3.00476H50.1889ZM51.9176 49.8972C51.9052 48.1181 51.3657 46.3827 50.3675 44.9105C49.3693 43.4383 47.9571 42.2955 46.3097 41.6265C44.6623 40.9576 42.8537 40.7927 41.1126 41.1527C39.3715 41.5126 37.7762 42.3812 36.5285 43.6486C35.2809 44.916 34.4369 46.5253 34.1033 48.2728C33.7698 50.0204 33.9616 51.8276 34.6547 53.466C35.3477 55.1044 36.5108 56.5002 37.9967 57.477C39.4827 58.4538 41.2247 58.9676 43.0025 58.9534C44.1833 58.9485 45.3514 58.71 46.4396 58.2515C47.5279 57.793 48.5147 57.1236 49.3434 56.2819C50.172 55.4401 50.8261 54.4426 51.2679 53.3469C51.7097 52.2511 51.9305 51.0787 51.9176 49.8972Z" fill="#001469"/>
    <path d="M65.5269 37.9918C60.2131 38.1242 55.4725 36.8795 50.9894 34.6433C48.3637 33.3094 45.4524 32.6366 42.5081 32.6835C34.2752 32.7973 26.9983 39.1064 25.7429 47.2686C25.2918 50.433 25.7175 53.6607 26.9734 56.5997C28.2294 59.5387 30.2675 62.0763 32.8656 63.9358C35.4637 65.7953 38.522 66.9054 41.7072 67.1451C44.8924 67.3848 48.0823 66.7449 50.929 65.295C55.0345 63.1991 59.5495 62.03 64.1556 61.8699C64.5268 61.856 65.0327 61.6911 65.2438 62.0418C65.455 62.3924 65.0466 62.7384 64.8494 63.0426C59.2803 71.5531 51.4186 75.6516 41.2435 75.1918C30.1657 74.6902 20.269 66.3469 17.9277 55.3402C14.9807 41.4912 23.8587 27.8907 37.742 25.1529C48.0981 23.1025 58.3777 27.2777 64.2623 35.9321C64.6707 36.5219 65.0211 37.1535 65.5269 37.9918Z" fill="#FF6600"/>
    <path d="M37.5332 118.473C37.0506 118.956 36.5041 119.37 35.9089 119.704C35.061 120.188 34.1528 120.557 33.2079 120.802C31.9598 121.123 30.6744 121.274 29.3861 121.253C27.5715 121.253 25.9905 120.871 24.6431 120.106C23.2843 119.326 22.1924 118.154 21.5105 116.743C20.7634 115.263 20.3905 113.458 20.3921 111.328V110.399C20.3921 108.258 20.7672 106.447 21.5175 104.966C22.1958 103.559 23.2733 102.384 24.6153 101.587C25.9831 100.801 27.5377 100.4 29.1146 100.426C31.0143 100.426 32.5566 100.725 33.7416 101.322C34.8716 101.868 35.8094 102.744 36.431 103.835C37.0507 104.97 37.4217 106.224 37.5193 107.513H32.5048C32.4472 106.95 32.2826 106.403 32.0198 105.902C31.7881 105.485 31.4341 105.151 31.0058 104.943C30.4671 104.708 29.8825 104.599 29.2956 104.622C28.6069 104.609 27.9333 104.825 27.3813 105.237C26.7842 105.727 26.3464 106.383 26.1236 107.123C25.7995 108.175 25.6498 109.273 25.6804 110.374V111.319C25.6509 112.407 25.7934 113.494 26.1027 114.537C26.3238 115.297 26.7907 115.962 27.43 116.428C28.1275 116.866 28.9416 117.081 29.7644 117.045C30.1675 117.052 30.5703 117.016 30.9663 116.941C31.2498 116.885 31.5267 116.799 31.7924 116.685C31.9765 116.607 32.149 116.504 32.3052 116.379V113.634H29.1564V109.937H37.5332V118.473Z" fill="#001469"/>
    <path d="M45.6895 120.981H40.494V100.735H45.6895V120.981Z" fill="#001469"/>
    <path d="M65.4574 114.015C65.4288 115.353 65.0348 116.658 64.318 117.788C63.5983 118.894 62.5862 119.778 61.3943 120.343C60.0182 120.982 58.5137 121.296 56.9971 121.26C55.1732 121.26 53.6131 120.859 52.3167 120.057C51.0034 119.237 49.9688 118.038 49.3489 116.618C48.6698 115.124 48.3294 113.344 48.3279 111.277V110.455C48.3279 108.379 48.6845 106.599 49.3976 105.114C50.043 103.701 51.0824 102.503 52.391 101.666C53.752 100.839 55.3215 100.419 56.9135 100.456C58.7095 100.456 60.2217 100.781 61.45 101.429C62.6274 102.031 63.6135 102.951 64.2972 104.083C64.9795 105.241 65.386 106.54 65.4852 107.88H60.2898C60.2712 106.824 60.0167 106.036 59.5263 105.516C59.0359 104.996 58.165 104.733 56.9135 104.727C56.2534 104.7 55.6023 104.887 55.0572 105.261C54.5699 105.618 54.2087 106.212 53.9735 107.042C53.7053 108.149 53.5859 109.286 53.6185 110.425V111.275C53.5891 112.416 53.6942 113.556 53.9317 114.672C54.1406 115.503 54.4925 116.095 54.9876 116.446C55.4818 116.797 56.1478 116.973 56.9947 116.973C57.5969 116.99 58.1963 116.886 58.7583 116.669C59.2231 116.481 59.6118 116.142 59.8628 115.708C60.1394 115.187 60.2761 114.602 60.2596 114.013L65.4574 114.015Z" fill="#001469"/>
</svg>
