<svg width="184" height="19" viewBox="0 0 184 19" fill="none" xmlns="http://www.w3.org/2000/svg">
    <path d="M2.98557 9.71781L2.97022 8.49886H5.58507C6.23173 8.49886 6.75332 8.33422 7.14984 8.00495C7.54635 7.67567 7.74461 7.21639 7.74461 6.62713C7.74461 5.98998 7.56337 5.52662 7.20089 5.23706C6.8384 4.9475 6.28666 4.80272 5.54564 4.80272H3.32052V15.1501H1.80432V3.55334H5.5444C6.70655 3.55334 7.61691 3.79882 8.27547 4.28979C8.93403 4.78075 9.26261 5.56535 9.26123 6.64361C9.26687 7.10149 9.14186 7.5512 8.90137 7.93819C8.64978 8.33419 8.30381 8.6589 7.89569 8.88208C7.46569 9.1263 6.96624 9.28291 6.39734 9.35192L5.86523 9.71781H2.98557ZM2.38333 15.1509L3.25162 13.9083H5.79468C6.5094 13.9083 7.06281 13.7197 7.4549 13.3426C7.84699 12.9654 8.04262 12.4584 8.04179 11.8215C8.04179 11.3914 7.96611 11.0183 7.81476 10.7023C7.66432 10.3872 7.41643 10.1312 7.10916 9.97343C6.79095 9.80443 6.37589 9.71993 5.86399 9.71993H3.71358L3.72894 8.50098H6.67127L6.99211 8.94715C7.53999 8.99503 8.0043 9.15165 8.38504 9.41698C8.75741 9.67383 9.05755 10.0251 9.25583 10.4361C9.45926 10.8629 9.56242 11.332 9.55716 11.8063C9.55716 12.8947 9.21419 13.7244 8.52824 14.2953C7.84229 14.8663 6.93055 15.1518 5.79302 15.1518L2.38333 15.1509Z" fill="#001469"/>
    <path d="M13.3067 15.1509H11.7876V3.55334H13.3067V15.1509ZM18.9486 4.80356H13.0095V3.55334H18.9486V4.80356ZM18.2285 9.78204H13.0095V8.53942H18.2285V9.78204ZM19.0266 15.1509H13.0083V13.9083H19.0266V15.1509Z" fill="#001469"/>
    <path d="M32.2914 4.80356H23.4868V3.55334H32.2914V4.80356ZM28.6389 15.1509H27.1335V3.55334H28.6356L28.6389 15.1509Z" fill="#001469"/>
    <path d="M35.4982 15.1509H33.9803V3.55334H35.4982V15.1509ZM41.414 9.78204H35.2633V8.53942H41.414V9.78204ZM42.7422 15.1509H41.226V3.55334H42.7439L42.7422 15.1509Z" fill="#001469"/>
    <path d="M46.9304 15.1509H45.4121V3.55334H46.9304V15.1509ZM52.5718 4.80356H46.6328V3.55334H52.5718V4.80356ZM51.8521 9.78204H46.6328V8.53942H51.8521V9.78204ZM52.6503 15.1509H46.632V13.9083H52.6503V15.1509Z" fill="#001469"/>
    <path d="M66.9151 13.6294C66.7742 13.8365 66.5512 14.0715 66.246 14.3346C65.9408 14.5977 65.5183 14.826 64.9784 15.0195C64.4383 15.2133 63.7406 15.3102 62.8853 15.3102C61.9622 15.3102 61.1419 15.0925 60.4244 14.657C59.7069 14.2215 59.1448 13.5923 58.7381 12.7692C58.3313 11.9462 58.1279 10.9585 58.1279 9.80612V8.89011C58.1279 7.73806 58.3053 6.7522 58.66 5.93252C59.0148 5.11285 59.5325 4.48485 60.2132 4.04853C60.8939 3.61335 61.724 3.39575 62.7035 3.39575C63.5743 3.39575 64.3045 3.54842 64.8942 3.85376C65.4838 4.15909 65.9443 4.57992 66.2755 5.11623C66.6141 5.67351 66.8315 6.29821 66.913 6.94824H65.3951C65.3321 6.54248 65.1954 6.15221 64.9921 5.79732C64.7862 5.44466 64.4901 5.15551 64.1355 4.96074C63.7649 4.75117 63.2901 4.64625 62.711 4.64597C62.007 4.64597 61.4293 4.81723 60.9777 5.15974C60.5261 5.50226 60.1923 5.98956 59.9762 6.62164C59.7598 7.25372 59.6516 8.00509 59.6516 8.87575V9.80781C59.6516 10.6996 59.7872 11.4629 60.0584 12.0978C60.3295 12.7327 60.7078 13.2199 61.1931 13.5593C61.6798 13.8996 62.2465 14.0697 62.8932 14.0697C63.4303 14.0697 63.8646 14.0232 64.1961 13.9303C64.5275 13.8373 64.7871 13.7258 64.9747 13.5956C65.1329 13.4912 65.2775 13.3668 65.4051 13.2255V10.6106H62.7757V9.376H66.9151V13.6294Z" fill="#001469"/>
    <path d="M69.8727 15.1509H68.308L72.6586 3.55334H73.6601L73.6369 4.57287L69.8727 15.1509ZM76.6025 12.116H70.1936V10.8654H76.6025V12.116ZM73.0106 4.57287L72.9952 3.55334H73.9889L78.347 15.1509H76.7897L73.0106 4.57287Z" fill="#001469"/>
    <path d="M81.1796 3.55334L81.3925 10.6186V15.1509H79.8826V3.55334H81.1796ZM81.8371 3.55334L85.5539 13.032L89.2707 3.55334H90.7496L86.1242 15.1509H84.9741L80.3582 3.55334H81.8371ZM91.2269 3.55334V15.1509H89.7169V10.6186L89.9282 3.55334H91.2269Z" fill="#001469"/>
    <path d="M95.3979 15.1509H93.8796V3.55334H95.3979V15.1509ZM101.039 4.80356H95.1003V3.55334H101.039V4.80356ZM100.319 9.78204H95.1003V8.53942H100.319V9.78204ZM101.117 15.1509H95.0991V13.9083H101.117V15.1509Z" fill="#001469"/>
    <path d="M115.821 11.1602C115.789 11.9771 115.575 12.6979 115.179 13.3227C114.783 13.9474 114.234 14.4347 113.532 14.7846C112.83 15.1347 112.005 15.3099 111.055 15.3102C110.027 15.3102 109.148 15.0804 108.418 14.621C107.688 14.1616 107.131 13.5045 106.747 12.6496C106.363 11.7936 106.171 10.7741 106.171 9.59102V9.12118C106.171 7.93138 106.372 6.90904 106.774 6.05416C107.175 5.19927 107.737 4.54086 108.46 4.07891C109.182 3.61668 110.032 3.3857 111.007 3.38599C112.019 3.38599 112.871 3.57175 113.562 3.94328C114.253 4.31481 114.788 4.82183 115.166 5.46433C115.544 6.10711 115.767 6.83201 115.835 7.63901H112.909C112.898 7.0334 112.754 6.58202 112.478 6.28485C112.202 5.98768 111.712 5.83896 111.007 5.83868C110.585 5.83868 110.236 5.94092 109.963 6.14542C109.689 6.34992 109.485 6.68976 109.352 7.16495C109.219 7.64041 109.153 8.287 109.153 9.1047V9.59102C109.153 10.4141 109.211 11.0632 109.329 11.5384C109.446 12.0136 109.644 12.3516 109.923 12.5524C110.203 12.7544 110.58 12.8552 111.054 12.8549C111.445 12.8549 111.776 12.7966 112.048 12.68C112.309 12.5719 112.528 12.3788 112.67 12.1307C112.814 11.8812 112.888 11.5573 112.893 11.159L115.821 11.1602Z" fill="#FF6600"/>
    <path d="M119.951 15.1509H117.009V3.55334H119.951V15.1509ZM124.678 10.4513H118.974V8.04551H124.678L124.678 10.4513ZM126.65 15.1509H123.723V3.55334H126.65V15.1509Z" fill="#FF6600"/>
    <path d="M130.532 15.1509H127.377L131.557 3.55334H133.544L133.2 6.34912L130.532 15.1509ZM135.328 13.2073H129.483V10.794H135.328V13.2073ZM132.683 6.34912L132.3 3.55334H134.312L138.513 15.1509H135.358L132.683 6.34912Z" fill="#FF6600"/>
    <path d="M148.889 15.1509H145.962L142.198 8.44394V15.1509H139.264V3.55334H142.198L145.962 10.2603V3.55334H148.889V15.1509Z" fill="#FF6600"/>
    <path d="M159.945 13.7173C159.742 13.9398 159.438 14.1747 159.032 14.422C158.627 14.6693 158.12 14.8791 157.51 15.0512C156.9 15.2238 156.183 15.3102 155.359 15.3102C154.336 15.3102 153.446 15.0912 152.687 14.6531C151.928 14.2151 151.338 13.5725 150.918 12.7252C150.498 11.8785 150.288 10.8443 150.288 9.6227V9.0971C150.288 7.8704 150.5 6.83229 150.922 5.98275C151.345 5.13322 151.926 4.4879 152.665 4.0468C153.406 3.60598 154.251 3.3857 155.201 3.38599C156.27 3.38599 157.138 3.55725 157.806 3.89976C158.474 4.24228 158.978 4.71888 159.316 5.32955C159.655 5.93994 159.862 6.64413 159.935 7.44211H157.11C157.063 7.0703 156.971 6.76229 156.836 6.51808C156.706 6.27934 156.506 6.08746 156.265 5.96881C156.02 5.84684 155.699 5.78572 155.302 5.78544C154.915 5.77725 154.537 5.90065 154.226 6.13613C153.922 6.36992 153.686 6.72962 153.518 7.21522C153.351 7.70083 153.268 8.32348 153.269 9.08316V9.62482C153.269 10.3684 153.349 10.9832 153.508 11.4691C153.667 11.955 153.916 12.3161 154.255 12.5524C154.594 12.7885 155.032 12.9065 155.57 12.9065C155.797 12.9094 156.025 12.8886 156.248 12.8444C156.408 12.8128 156.564 12.7633 156.714 12.6969C156.818 12.6519 156.916 12.5931 157.004 12.522V10.9452H155.227V8.82627H159.945V13.7173Z" fill="#FF6600"/>
    <path d="M164.374 15.1509H161.432V3.55334H164.374V15.1509ZM169.374 5.96674H163.334V3.55334H169.374V5.96674ZM168.576 10.3638H163.334V8.04551H168.576V10.3638ZM169.351 15.1509H163.333V12.7451H169.351V15.1509Z" fill="#FF6600"/>
    <path d="M174.946 3.55334C175.838 3.55334 176.611 3.68742 177.263 3.95558C177.915 4.22373 178.418 4.61808 178.773 5.13861C179.127 5.65887 179.304 6.30391 179.304 7.07373C179.304 7.76411 179.204 8.33366 179.003 8.78237C178.816 9.21262 178.529 9.58977 178.166 9.8809C177.782 10.1809 177.359 10.4261 176.91 10.6097L175.947 11.2072H172.231L172.215 8.79378H174.913C175.237 8.79378 175.507 8.74068 175.723 8.63449C175.932 8.53552 176.102 8.36878 176.208 8.16043C176.315 7.9503 176.368 7.69144 176.368 7.38385C176.368 6.93768 176.248 6.58981 176.008 6.34024C175.769 6.09068 175.415 5.96618 174.946 5.96674H173.328V15.1509H170.393V3.55334H174.946ZM174.062 10.0448L177.175 10.0212L179.678 15.0233V15.1501H176.532L174.062 10.0448Z" fill="#FF6600"/>
</svg>
