<svg width="360" height="111" viewBox="0 0 360 111" fill="none" xmlns="http://www.w3.org/2000/svg">
    <g clip-path="url(#clip0)">
        <path d="M258.063 111.607H217.874C212.622 108.09 205.903 106.15 203.704 99.1155C203.948 96.8113 202.727 94.8709 201.75 93.0517C195.833 82.3547 191.746 70.7566 189.656 58.7304C187.946 49.1496 185.381 39.4475 185.747 29.5028C185.992 24.4092 185.992 19.5581 189.656 15.556C191.733 13.373 189.656 10.3411 191.733 8.2794C193.81 6.21769 196.375 9.00705 198.207 10.3411C202.107 13.3682 206.427 15.8192 211.033 17.6177C216.408 21.3773 222.516 23.6815 228.502 26.3496C231.067 27.4411 234.121 27.9262 233.999 31.6858C233.266 33.2624 231.311 34.2326 231.189 35.4453C231.556 61.0347 240.351 82.9858 255.62 102.633C257.575 105.179 260.507 107.726 258.063 111.607Z" fill="#FE601B"/>
        <path d="M343.328 111.606H294.588C286.037 101.055 276.509 91.2315 270.035 79.2252C264.433 69.2527 260.513 58.4375 258.43 47.2081C258.977 45.8325 259.892 44.6311 261.076 43.7335C262.259 42.8359 263.668 42.2761 265.148 42.1145C266.097 42.1078 267.043 42.2302 267.958 42.4784C276.509 45.5103 284.938 48.7847 293.611 51.5741C296.176 52.3018 298.619 53.272 299.963 55.6975C300.831 60.4012 302.615 64.8916 305.216 68.9166C313.279 83.2775 324.564 95.6023 338.198 104.936C340.519 106.512 343.817 107.725 343.328 111.606Z" fill="#FE691E"/>
        <path d="M265.393 43.3278C262.827 43.2065 261.85 45.7533 259.529 46.2384C264.049 66.9767 272.966 85.0469 287.381 100.57C290.19 103.723 294.71 106.392 294.588 111.606H258.063C258.308 108.817 256.842 106.755 255.254 104.572C249.757 97.1745 244.138 89.6554 240.107 81.166C234.487 68.9171 230.456 56.1831 230.212 42.6001C230.09 39.5682 228.013 36.9001 229.235 33.5044C230.212 32.2916 232.289 32.4129 233.754 31.4427C238.274 28.8959 241.45 32.5341 245.115 33.8682C248.78 35.2022 255.742 38.2341 261.117 40.1746C262.827 40.7809 265.393 40.5384 265.393 43.3278Z" fill="#FE651E"/>
        <path d="M204.559 99.6006C206.758 103.603 210.911 105.301 214.21 107.969C217.508 110.637 217.141 109.909 217.874 111.607H125.402C123.082 110.394 119.905 110.152 119.783 106.513C121.738 100.813 127.113 101.784 131.51 100.692C135.908 99.6006 137.129 101.056 139.45 99.4793C141.771 97.9027 138.351 95.2346 137.252 93.4155C134.7 89.491 131.753 85.8339 128.456 82.5006C126.419 80.3562 124.257 78.3315 121.982 76.4367C116.485 68.7963 107.323 64.7942 101.826 57.275C101.414 56.4404 100.814 55.711 100.073 55.1433C99.3316 54.5755 98.4687 54.1845 97.551 54.0006C96.9791 53.8177 96.4594 53.5023 96.0345 53.0806C95.6097 52.6588 95.2921 52.1428 95.1079 51.5751C94.3749 47.6942 92.054 43.5708 96.818 40.4176C97.4275 40.278 98.065 40.3202 98.6504 40.5389C102.193 44.4197 102.559 50.7261 108.301 53.1516C109.767 53.758 110.988 55.2133 112.576 55.0921C118.928 54.8495 122.104 58.6091 124.792 63.3389C125.312 64.4158 126.063 65.3675 126.99 66.1282C142.626 78.3772 157.896 91.3538 178.418 94.7495C185.381 95.841 192.099 98.7516 199.307 96.8112C200.373 96.5906 201.483 96.7491 202.443 97.2591C203.403 97.769 204.152 98.5978 204.559 99.6006Z" fill="#FE681E"/>
        <path d="M395.611 63.7028V80.4389C395.134 80.8138 394.583 81.0833 393.993 81.2297C393.403 81.3761 392.788 81.3959 392.19 81.2879C377.307 79.1656 362.663 75.6324 348.459 70.7368C342.229 64.1879 334.289 59.7006 327.326 53.8794C314.499 43.0857 304.727 30.2304 299.596 14.2219C298.741 11.7964 297.275 9.37084 299.719 6.94531C307.781 8.40063 315.965 9.24957 323.05 13.8581C323.05 21.3772 328.059 26.7134 332.334 31.9283C346.26 48.6645 364.339 58.973 385.472 64.1879C389.136 65.0368 392.19 63.2177 395.611 63.7028Z" fill="#FE691E"/>
        <path d="M343.328 111.606C339.664 106.149 333.678 103.238 328.67 99.3572C319.508 92.2019 312.911 83.1061 306.437 73.8891C303.505 69.6444 301.429 64.9146 298.986 60.4274C298.131 58.7295 298.986 57.7593 299.474 56.5465C299.958 56.0987 300.545 55.776 301.185 55.6068C301.824 55.4376 302.495 55.4271 303.139 55.5763C312.737 57.4855 322.111 60.3709 331.113 64.187C341.252 82.7423 358.109 93.8997 376.799 102.874C379.731 104.208 382.784 105.3 385.716 106.755C388.648 108.21 389.87 108.695 388.282 111.606H343.328Z" fill="#FE6D1F"/>
        <path d="M395.611 63.7025C392.19 66.6131 388.404 66.6131 384.25 65.4004C370.202 61.3982 356.765 56.3046 345.405 46.845C336.191 39.3656 328.376 30.3341 322.317 20.1642C321.785 19.3411 321.522 18.3743 321.566 17.3969C321.609 16.4195 321.957 15.4796 322.562 14.7067C322.893 14.3618 323.291 14.0872 323.732 13.8996C324.172 13.712 324.647 13.6152 325.127 13.6152C328.914 14.3429 332.456 15.5557 336.121 16.0408C339.786 16.5259 345.161 19.0727 350.047 19.194C352.639 19.2754 355.096 20.3642 356.887 22.2259C357.283 22.7055 357.612 23.2358 357.865 23.8025C363.606 35.5663 374.722 40.2961 386.205 44.4195C387.315 44.9154 388.534 45.1241 389.747 45.0259C390.48 45.0259 390.969 44.7833 392.557 43.5706C394.145 42.3578 390.48 36.5365 395.611 34.9599V63.7025Z" fill="#FE6D1F"/>
        <path d="M388.281 111.607C388.281 109.545 387.06 108.696 385.105 107.968C372.667 103.445 361.038 96.9762 350.657 88.8065C343.961 83.7346 338.037 77.7302 333.067 70.9789C331.701 69.2574 331.007 67.1041 331.113 64.915C337.111 64.9749 342.98 66.6517 348.092 69.7661C362.629 72.6767 376.677 78.0129 391.58 79.347C392.952 79.597 394.301 79.9621 395.611 80.4384V111.607H388.281Z" fill="#FE7121"/>
        <path d="M-12.1449 111.607C-14.4659 110.515 -13.2443 108.332 -13.2443 106.877C-13.3257 70.1704 -13.3665 33.464 -13.3665 -3.24237H390.114C391.946 -3.24237 394.267 -4.57641 395.611 -2.15088C392.435 0.395929 388.648 -0.453007 385.105 -0.453007H-0.173643C-3.34969 -0.453007 -6.77005 -1.5445 -9.45747 1.00231C-12.1449 3.54912 -9.9461 8.03636 -10.4347 11.5534C-10.0683 29.1385 -10.0683 46.8449 -10.3126 64.43C-10.1904 69.6449 -10.3126 74.8598 -10.3126 80.0747C-10.3126 85.2896 -10.3126 88.0789 -10.4347 92.081C-10.5569 96.0832 -10.4347 97.9023 -10.3126 100.813C-10.1904 103.724 -9.57963 108.332 -12.1449 111.607Z" fill="#FEFEFE"/>
        <path d="M115.63 111.607H91.321C81.6707 110.151 73.9749 104.451 66.0347 99.6001C63.9581 98.3874 61.8815 97.1746 61.0264 94.6278C60.1713 92.081 60.7821 88.2001 64.0803 86.1384C67.3785 84.0767 68.4779 86.1384 70.6767 86.2597C84.4758 91.4536 97.8681 97.6557 110.744 104.815C113.187 106.149 116.119 107.847 115.63 111.607Z" fill="#FE4C16"/>
        <path d="M115.63 111.606C113.504 108.449 110.547 105.932 107.079 104.33C95.1078 98.5086 83.1366 92.5661 70.6767 87.715C68.8851 86.0874 67.5577 84.0194 66.8285 81.7197C66.0992 79.4201 65.994 76.9701 66.5234 74.6171C68.8443 72.798 70.921 74.0107 72.6312 75.2235C77.7617 78.8618 83.3809 79.4682 89.3665 78.3767C92.7869 78.6192 94.6192 81.166 96.5737 83.349C98.5282 85.532 101.338 89.049 104.147 91.7171C106.957 94.3852 108.423 94.749 110.377 96.6895C112.332 98.6299 118.073 102.511 120.516 106.877C121.371 109.181 123.937 109.909 125.402 111.606H115.63Z" fill="#FE4815"/>
        <path d="M395.611 0.274739V31.4428C390.114 33.3832 385.35 31.6854 380.708 28.7747C380.787 25.7819 379.791 22.8587 377.898 20.5279C375.348 16.8884 373.6 12.756 372.768 8.40027C372.279 6.21729 371.424 3.67048 374.356 2.09389C375.128 2.02977 375.904 2.02977 376.677 2.09389C369.347 3.67048 361.407 3.0641 353.345 3.18538C350.658 3.18538 347.604 3.67048 345.405 1.24495C345.372 0.896449 345.448 0.546253 345.623 0.242312C345.798 -0.0616292 346.063 -0.304456 346.382 -0.452921C361.896 -1.42313 377.41 -0.816751 392.801 -0.816751C393.832 -0.764714 394.818 -0.381669 395.611 0.274739Z" fill="#FE6F20"/>
        <path d="M380.952 27.8041C385.472 30.4722 390.725 30.2297 395.611 31.4424V34.9595C392.679 38.1127 395.855 42.3573 393.534 45.7531C391.213 49.1488 389.869 47.2084 388.037 46.7233C376.705 43.6917 366.461 37.5558 358.476 29.0169C357.845 28.4064 357.354 27.6676 357.038 26.8512C356.722 26.0347 356.587 25.1601 356.643 24.2871C359.086 22.2254 361.896 22.468 364.583 23.0744C370.202 24.1658 375.944 24.7722 380.952 27.8041Z" fill="#FE7222"/>
        <path d="M-11.9006 0.396235C-12.1449 -1.05908 -11.9006 -2.0293 -10.1904 -2.0293H395.611V-0.816531C393.29 0.396235 390.847 -0.210148 388.404 -0.210148C255.743 1.85155 123.081 0.274958 -9.57964 0.881341C-10.3826 0.921909 -11.1823 0.75475 -11.9006 0.396235Z" fill="#FE9651"/>
        <path d="M-10.9233 0.274518C-8.96885 -1.90846 -6.40358 -0.816972 -4.08262 -0.816972H395.611V0.395794H345.649C342.473 2.9426 338.686 2.09367 335.144 2.09367H31.4647C20.2264 2.09367 8.86588 2.09367 -2.37244 2.33622C-5.30418 2.21494 -8.48023 2.57877 -10.9233 0.274518Z" fill="#FE853C"/>
        <path d="M57.2395 111.607H23.1581C20.9593 109.545 18.6383 107.483 19.127 103.966C19.6156 100.449 23.4024 97.0537 28.2886 97.0537C36.9469 98.7247 45.417 101.243 53.5749 104.573C55.7737 106.392 58.2168 108.211 57.2395 111.607Z" fill="#FA551B"/>
        <path d="M57.2395 111.606L53.5749 105.664C52.4755 101.055 54.1856 97.053 56.7509 93.4147C58.9497 92.687 60.5377 93.536 62.1258 94.87C68.4779 100.206 76.1737 103.602 83.0144 108.089C84.3375 108.986 85.944 109.374 87.5341 109.181C88.3403 109.147 89.1371 109.363 89.8151 109.797C90.493 110.231 91.0191 110.863 91.321 111.606H57.2395Z" fill="#FD5118"/>
        <path d="M19.4934 104.452C20.1042 107.12 23.0359 108.696 23.1581 111.607H-12.1449L-11.9006 100.813C-10.5569 97.9027 -7.74729 97.9027 -5.18202 98.024C3.37165 98.6395 11.7372 100.819 19.4934 104.452Z" fill="#F7581E"/>
        <path d="M204.559 99.6003L199.673 97.296C197.719 97.4173 196.253 96.2045 194.787 95.1131C185.503 87.5939 175.242 81.2875 164.981 74.9811C159.973 71.9492 154.598 69.2811 150.322 65.0365C150.322 60.6705 147.635 58.1237 144.214 56.062C134.32 49.9982 129.311 40.0535 122.959 31.079C119.417 26.1067 124.181 18.9513 131.755 17.1322C136.641 15.9194 141.405 14.2216 145.802 13.4939C149.711 10.0982 145.68 3.91304 151.055 1.60879C161.438 1.36623 171.822 1.48751 182.327 1.60879C186.114 3.18538 190.389 4.39815 192.344 8.64283C190.756 10.7045 193.81 12.0386 193.077 14.3428C183.426 21.2556 189.046 31.6854 187.335 39.9322C188.068 42.8428 190.389 44.0556 190.634 47.2088C188.679 51.4535 190.389 56.4258 191.733 61.2769C195.031 72.9194 198.452 84.4407 204.559 94.9918C205.414 96.4471 206.758 98.145 204.559 99.6003Z" fill="#FE5B1A"/>
        <path d="M244.626 34.9593C240.962 34.1104 237.908 31.0785 233.755 31.4423C233.266 30.8359 232.899 29.7444 232.289 29.6232C225.448 27.4402 219.462 23.0742 212.255 21.2551L210.545 18.2232C213.477 13.2508 212.377 6.94445 215.675 2.09338C221.783 0.759341 228.013 1.97211 234.121 1.24445C235.075 0.982996 236.069 0.900733 237.053 1.00189C238.274 1.487 239.74 1.60828 240.473 2.94232C243.283 11.4317 244.626 20.2849 247.802 28.7742C248.902 31.4423 248.78 34.353 244.626 34.9593Z" fill="#FE5A1A"/>
        <path d="M215.431 2.70014C216.164 6.82354 214.454 10.7044 213.965 14.8278C213.843 16.4044 212.988 18.3448 210.545 18.2235C208.102 18.1023 206.147 16.4044 203.826 16.8895C200.509 13.5003 196.624 10.7098 192.344 8.64269C189.656 6.58099 185.747 5.9746 183.793 2.70014C189.534 0.153329 195.642 2.33631 201.383 1.24482C202.053 1.02471 202.769 0.982896 203.46 1.12354C207.369 2.33631 211.767 0.274605 215.431 2.70014Z" fill="#FE5618"/>
        <path d="M303.139 56.5467H299.474C296.176 52.302 290.557 52.7871 286.281 50.7254C282.006 48.6637 275.532 46.9658 270.157 45.0254C269.659 44.954 269.187 44.7617 268.782 44.4655C268.377 44.1693 268.052 43.7784 267.836 43.3275C264.416 32.7765 257.941 23.3169 256.353 12.0382C255.865 8.03603 255.743 4.51901 260.262 1.72965C266.284 1.26859 272.335 1.34977 278.341 1.9722C280.54 3.18497 281.029 5.36794 281.517 7.55092C284.205 21.8616 290.679 34.5956 299.719 46.1169C302.04 48.9062 305.704 51.9382 303.139 56.5467Z" fill="#FE611C"/>
        <path d="M278.708 2.70001H260.507L257.331 6.70214C258.552 18.5872 263.072 29.1383 268.813 39.2043C268.447 40.7809 268.08 42.1149 267.836 43.3277H265.393C258.552 40.417 251.101 38.8404 244.626 34.9596C247.436 33.0192 247.192 30.8362 245.97 27.8043C242.651 19.7962 240.591 11.3293 239.862 2.70001C243.038 0.274476 246.947 2.33618 250.368 0.880859H282.861C283.048 0.882138 283.231 0.930482 283.393 1.02135C283.556 1.11221 283.692 1.24261 283.79 1.40028C283.888 1.55794 283.943 1.7377 283.952 1.92264C283.96 2.10757 283.921 2.29162 283.838 2.45746C282.25 4.15533 280.54 3.91277 278.708 2.70001Z" fill="#FE5E1B"/>
        <path d="M150.933 64.9147C167.79 74.8594 184.892 84.4402 199.673 97.2956C199.343 98.1418 198.717 98.8412 197.909 99.2647C197.1 99.6882 196.165 99.8072 195.275 99.5998C181.373 97.5498 167.761 93.8864 154.72 88.6849C151.26 87.0755 148.18 84.7616 145.68 81.8934C143.232 79.2176 140.287 77.0353 137.007 75.4658C130.322 72.5035 124.851 67.3712 121.493 60.9126C120.502 59.1969 119.068 57.7738 117.34 56.7892C108.423 58.002 101.948 52.5445 98.6503 41.0232C99.1393 40.4973 99.8 40.1601 100.515 40.0713C101.231 39.9825 101.955 40.1479 102.559 40.5381C117.829 48.4211 134.32 53.8786 149.101 62.7317C149.538 62.955 149.925 63.2633 150.24 63.6383C150.555 64.0133 150.791 64.4474 150.933 64.9147Z" fill="#FE6A1E"/>
        <path d="M150.933 64.9153C141.283 60.428 131.877 55.577 122.226 51.211C115.264 48.1791 107.812 45.8748 101.582 41.3876C100.849 40.9025 99.6276 41.145 98.6503 41.0238H97.4288C97.2194 40.7997 97.0749 40.5237 97.0104 40.2249C96.9459 39.926 96.9638 39.6155 97.0623 39.3259C98.6503 35.6876 95.8408 31.2004 99.7497 28.1684C103.659 25.1365 106.957 26.9557 110.744 27.077C114.531 27.1982 115.508 25.2578 116.852 22.8323C118.195 20.4067 118.806 17.6174 116.729 15.0706C114.653 12.5238 112.576 11.1897 111.232 8.76419C109.889 6.33866 108.301 3.67058 112.087 1.73015C119.417 1.24505 126.624 1.60888 133.953 1.4876C139.206 2.09398 144.703 0.153557 149.711 2.70036C148.612 6.82377 151.422 11.9174 146.78 15.4344C144.825 16.2833 142.504 15.5557 139.817 16.0408C137.129 16.5259 136.763 18.2238 134.32 18.345C127.235 18.8302 124.547 21.4982 122.959 29.0174C128.09 36.0514 133.343 43.5706 139.084 50.6046C140.794 52.7876 143.97 53.8791 146.535 55.577C148.914 57.0746 150.753 59.2825 151.788 61.8833C152.277 63.0961 152.277 64.1876 150.933 64.9153Z" fill="#FE5418"/>
        <path d="M90.0995 79.3474C84.236 81.773 78.6168 80.924 73.3641 77.5283C71.4096 76.3155 69.5773 74.6177 67.012 74.4964C64.4468 74.3751 63.1031 73.4049 61.6372 71.9496C60.0813 70.6515 59.042 68.8458 58.7055 66.856C57.8504 54.9708 56.3845 43.0857 59.5605 31.3219C59.7019 30.9869 59.9137 30.6857 60.1819 30.4387C60.4501 30.1916 60.7684 30.0043 61.1155 29.8895C61.4626 29.7746 61.8304 29.7348 62.1943 29.7727C62.5582 29.8106 62.9097 29.9253 63.2252 30.1091C75.1965 35.6879 86.6791 42.2368 96.2073 51.8177C96.5737 52.7879 97.551 52.9091 98.5282 52.9091C98.863 53.2066 99.0915 53.6038 99.1796 54.0411C99.2677 54.4784 99.2106 54.9323 99.0168 55.3347C94.5117 59.4874 89.6013 63.1844 84.3581 66.3709C84.6025 70.7368 87.6564 73.1623 89.4887 76.1943C90.0995 77.1645 90.7103 78.1347 90.0995 79.3474Z" fill="#FD4415"/>
        <path d="M90.0995 79.3469L88.8779 76.9214C89.6109 72.6767 94.2528 75.1022 95.23 73.7682C98.6504 70.1299 98.1618 66.9767 97.7953 63.7022C97.4288 60.4278 96.5737 58.6086 98.5282 56.3044C99.1017 55.9348 99.7799 55.7587 100.462 55.8024C101.144 55.8461 101.794 56.1072 102.315 56.5469C108.789 63.2171 117.34 67.9469 122.959 75.7086C120.638 80.5597 115.996 79.1044 111.965 79.3469C109.767 79.4682 107.812 78.0129 105.613 78.2554C103.414 78.498 100.971 84.6831 96.2073 84.0767L90.0995 79.3469Z" fill="#FE5318"/>
        <path d="M96.2073 84.0767C99.6276 82.2575 101.582 78.8617 104.392 75.3447C110.499 78.3766 116.729 79.4681 122.959 75.7086C125.448 77.1722 127.543 79.2108 129.067 81.6511C128.945 86.1384 125.28 86.1384 122.226 86.7447C115.752 88.0788 109.156 88.5639 103.537 92.4447C100.605 90.0192 97.0624 88.2001 96.2073 84.0767Z" fill="#FE5719"/>
        <path d="M120.516 106.877C116.241 104.209 112.332 101.419 109.522 97.2958C109.722 96.7226 110.044 96.1987 110.466 95.7594C110.887 95.3201 111.398 94.9755 111.965 94.749C119.004 92.49 126.318 91.1846 133.709 90.8682C135.164 90.8939 136.557 91.4559 137.618 92.4448C140.55 93.9001 141.649 96.5682 142.504 98.9937C143.359 101.419 139.572 102.147 137.496 102.026C133.682 102.023 129.878 102.388 126.135 103.117C124.954 103.217 123.817 103.615 122.834 104.272C121.851 104.93 121.053 105.827 120.516 106.877Z" fill="#FE611C"/>
        <path d="M137.618 92.445C127.968 92.3237 118.684 94.3854 109.522 97.2961C107.568 95.5982 104.758 94.9918 103.536 92.445C102.315 89.8982 105.98 88.4429 108.178 87.9578C112.767 86.8126 117.416 85.9219 122.104 85.2897C124.914 84.9258 127.479 84.3195 129.067 81.6514C132.915 84.3461 135.887 88.0974 137.618 92.445Z" fill="#FE5C1B"/>
        <path d="M96.2071 51.8177C84.4802 44.4199 73.6083 35.8092 60.9041 30.2305C60.7373 29.9641 60.6704 29.6479 60.715 29.3374C60.7597 29.0269 60.9132 28.742 61.1485 28.5326C67.3784 26.1071 72.1425 30.8369 77.7616 31.5645C83.3808 32.2922 87.2898 34.7177 92.0538 36.2943C94.2436 36.7145 96.1763 37.9792 97.4287 39.8114V41.0241C95.9628 41.8731 95.5964 43.4497 94.9856 45.0263C95.8813 47.1761 96.2981 49.4929 96.2071 51.8177Z" fill="#FE641D"/>
        <path d="M102.315 56.5475H98.6503C98.2838 56.3049 98.1617 56.0624 98.2838 55.6985C98.406 55.3347 98.5282 55.3347 98.6503 55.3347V52.9092C100.971 53.0305 102.193 54.1219 102.315 56.5475Z" fill="#FE6A1E"/>
        <path d="M278.708 2.70046H283.594C283.937 2.38704 284.343 2.14933 284.785 2.003C285.227 1.85667 285.696 1.80504 286.159 1.85152C290.679 3.67067 295.932 3.67067 299.474 7.43025C301.551 18.709 306.804 28.5324 313.644 37.6281C322.073 48.7856 333.311 56.6685 344.305 64.7941C346.138 66.1281 348.092 67.0983 348.092 69.7664C342.351 68.5536 336.365 67.826 331.113 64.9154L303.139 56.5473C303.017 50.1196 297.886 46.4813 294.71 41.8728C287.467 31.8854 282.469 20.4708 280.051 8.40046C279.685 6.46003 278.708 4.64089 278.708 2.70046Z" fill="#FE671D"/>
        <path d="M299.474 7.42961C294.954 6.09557 290.19 5.24663 286.037 2.69983C289.457 0.39557 293.366 1.72961 297.031 1.48706C300.696 1.24451 307.781 1.97217 313.156 1.00195H342.717C343.328 5.00408 340.03 3.79132 338.075 4.27642C336.121 4.76153 330.99 3.54876 327.57 5.24664C324.15 6.94451 327.937 12.0381 325.005 14.7062H322.562C320.363 12.6445 317.553 12.6445 314.866 12.0381L299.474 7.42961Z" fill="#FE5B1A"/>
        <path d="M380.952 27.8049C375.822 28.6538 371.546 25.7432 366.66 25.1368C363.345 24.6183 359.998 24.3346 356.643 24.2879V23.0751C358.231 19.6793 357.01 16.4049 356.032 13.1304C355.055 9.85594 353.101 6.4602 355.544 2.21552C361.407 2.21552 367.515 1.48786 373.745 2.70062C373.623 11.5538 377.654 18.7091 383.273 24.8942C383.266 25.5662 383.034 26.2166 382.614 26.7435C382.194 27.2703 381.609 27.6437 380.952 27.8049Z" fill="#FE6A1E"/>
        <path d="M373.745 2.69991H355.422C356.068 8.55497 357.721 14.2567 360.308 19.5574C360.326 20.0346 360.243 20.5102 360.064 20.9534C359.884 21.3965 359.613 21.7971 359.267 22.129C358.921 22.4609 358.509 22.7167 358.057 22.8796C357.605 23.0425 357.123 23.1088 356.643 23.0744C353.742 21.3178 350.39 20.4332 346.993 20.5276C343.084 20.6488 339.419 19.0723 335.999 17.0106C337.465 12.402 333.8 7.18715 337.22 2.69991C339.175 2.33608 341.618 3.67013 343.328 1.48715C343.487 1.3258 343.677 1.19762 343.887 1.11012C344.097 1.02261 344.322 0.977539 344.55 0.977539C344.777 0.977539 345.002 1.02261 345.212 1.11012C345.422 1.19762 345.612 1.3258 345.771 1.48715H382.54C379.608 3.06374 376.677 2.45736 373.745 2.69991Z" fill="#FE641C"/>
        <path d="M337.22 2.7002C337.22 5.97466 336.976 9.37041 338.198 12.6449C339.419 15.9193 339.175 16.7683 335.999 17.0108C332.192 17.2357 328.395 16.4398 325.005 14.7066C325.738 10.8257 323.417 6.8236 325.982 2.7002H337.22Z" fill="#FE601C"/>
        <path d="M-11.9006 64.9154C-12.267 46.9664 -12.267 29.0175 -11.9006 11.1898C-4.44907 9.12812 2.39165 13.4941 9.72099 13.4941C13.5078 14.5856 17.4168 15.1919 21.2036 16.1622C24.9905 17.1324 25.3569 17.6175 26.3342 19.8005C26.212 28.5324 26.4563 37.2643 25.9677 45.8749C25.4791 54.4856 26.8228 60.4281 32.5641 66.0068C32.7786 66.7028 32.824 67.4393 32.6966 68.156C32.5692 68.8727 32.2726 69.5492 31.8312 70.1302C30.4442 71.0092 28.8604 71.5354 27.2199 71.6623C25.5794 71.7893 23.9326 71.513 22.4252 70.8579C14.1186 67.0983 5.44554 68.0685 -3.10536 67.9473C-6.40356 67.826 -9.70176 67.9473 -11.9006 64.9154Z" fill="#F6471A"/>
        <path d="M-11.9006 64.915C-4.81555 67.2193 2.39163 65.8853 9.59882 66.0065C14.2407 66.1278 18.394 66.4916 21.8144 69.7661H31.709C32.5829 69.9148 33.3689 70.3835 33.9117 71.0796C34.4545 71.7756 34.7146 72.6485 34.6407 73.5257C34.03 78.0129 30.8539 80.4385 27.1892 82.6214C26.4214 83.1378 25.5432 83.4699 24.624 83.5917C19.4934 83.3491 14.9737 80.8023 9.96529 79.8321C2.63595 78.498 -4.6934 77.6491 -11.9006 80.4385C-12.2672 75.2704 -12.2672 70.0831 -11.9006 64.915Z" fill="#F74B1A"/>
        <path d="M-11.9006 80.4383L-7.62518 77.0425C3.97961 76.0723 14.8515 78.983 25.6012 82.8638C26.0898 87.2298 25.7233 91.3532 22.1808 94.5064C18.1497 95.7191 14.6072 94.0213 10.9425 93.051C3.97961 91.3532 -2.73895 89.0489 -9.70183 92.9298C-10.0765 93.0675 -10.4832 93.0949 -10.8732 93.0089C-11.2632 92.9229 -11.62 92.7269 -11.9006 92.4447C-12.2668 88.4508 -12.2668 84.4322 -11.9006 80.4383Z" fill="#F7501C"/>
        <path d="M-11.9006 92.445C-4.57129 87.1088 3.12452 89.0493 10.8203 91.3535C14.485 92.445 18.0275 93.779 21.9365 93.6578C25.8455 93.5365 27.8 94.628 28.0443 98.3876C26.8559 98.2227 25.6456 98.4399 24.5905 99.0073C23.5354 99.5747 22.691 100.462 22.1808 101.541C21.9634 102.186 21.6119 102.778 21.1489 103.28C20.6859 103.781 20.1218 104.18 19.4934 104.451C15.0958 105.058 11.3089 102.875 7.27781 101.905C0.925714 100.328 -5.30423 98.0237 -11.9006 100.813V92.445Z" fill="#F7541D"/>
        <path d="M9.72093 14.7071C2.26943 15.071 -4.69345 12.1603 -11.9006 11.1901V0.396484H31.7089L31.9533 1.48797L31.2203 2.21563C27.6778 3.91351 23.891 2.94329 20.1042 3.30712C16.3173 3.67095 12.6527 2.82202 9.11015 3.54968C8.01075 7.43053 10.8203 10.9475 9.72093 14.7071Z" fill="#F87025"/>
        <path d="M26.8228 81.651C29.9736 79.5602 32.5041 76.6711 34.1521 73.2829C35.618 71.9488 37.0838 72.919 38.5497 73.5254C45.3904 76.4361 52.5976 78.0127 59.4383 81.0446C61.8814 82.0148 64.9353 82.7425 64.5689 86.502L62.1258 90.1403V94.8701C60.4053 95.0311 58.6812 94.6032 57.2395 93.6573C48.2 93.6573 40.0156 90.6254 32.0755 86.6233C29.9988 85.4105 26.8228 85.0467 26.8228 81.651Z" fill="#FA4C18"/>
        <path d="M64.5689 86.5025C61.8814 81.2876 56.018 81.7727 51.7425 79.8322C47.4671 77.8918 39.6491 76.1939 34.1521 73.2833L31.709 69.7663V66.128C33.4192 64.5514 35.3737 64.6727 37.3281 65.4003C43.7005 67.8414 50.4195 69.2738 57.2395 69.645C59.4383 69.7663 61.3928 70.979 63.3473 72.0705L67.012 74.4961C67.5006 79.1046 69.2108 83.3493 70.6766 87.7152C68.5614 88.0017 66.4104 87.5746 64.5689 86.5025Z" fill="#FB4816"/>
        <path d="M345.771 1.48736H312.789C303.082 2.45759 293.301 2.45759 283.594 1.48736H249.513C245.541 2.45848 241.391 2.45848 237.419 1.48736H234.976C224.453 2.45724 213.861 2.45724 203.338 1.48736H202.116C198.574 2.70013 194.909 1.97247 191.244 1.97247H134.075C108.789 2.21502 83.6251 3.67034 58.3389 3.06396C55.4072 3.18524 52.3533 3.42779 49.5437 2.09375C49.2271 1.88734 48.9778 1.59406 48.826 1.24957C48.6742 0.905088 48.6265 0.524233 48.6886 0.15332H345.649C345.609 0.601676 345.65 1.05353 345.771 1.48736Z" fill="#FE681C"/>
        <path d="M48.6886 0.274414V1.48718L47.8335 2.21484C42.4587 3.54888 36.9617 4.39782 31.709 1.48718V0.274414H48.6886Z" fill="#FA6A21"/>
        <path d="M26.8227 81.6514C32.4043 85.5641 38.6537 88.4403 45.2683 90.1407C49.2994 91.1109 53.2084 92.445 57.2395 93.6577L53.5749 105.664C45.024 103.36 36.7174 100.085 28.0443 98.3875L21.9365 93.6577C23.891 90.262 23.5245 86.1386 25.6012 82.8641C25.6781 82.5725 25.8317 82.3065 26.0464 82.0934C26.2611 81.8802 26.529 81.7277 26.8227 81.6514Z" fill="#FA501A"/>
        <path d="M133.953 1.4873H202.116C199.673 3.91284 196.741 2.45752 194.054 2.57879C191.367 2.70007 187.213 2.70007 183.793 2.70007H133.953C133.465 2.45752 133.343 2.21496 133.465 1.85113L133.953 1.4873Z" fill="#FE5214"/>
        <path d="M203.338 1.4873H234.976C233.022 3.67028 230.456 2.57879 228.135 2.57879C225.814 2.57879 219.707 2.70007 215.431 2.70007C211.156 2.70007 207.125 3.91284 203.338 1.4873Z" fill="#FE5313"/>
        <path d="M237.419 1.4873H249.513C246.581 3.91284 243.038 2.09369 239.862 2.70007C238.763 2.70007 237.786 2.57879 237.419 1.4873Z" fill="#FE5313"/>
        <path d="M283.594 1.4873H312.789C311.568 3.42773 309.491 2.57879 307.781 2.70007H283.594V1.4873Z" fill="#FE5113"/>
        <path d="M97.4288 39.8106C91.0767 37.0213 83.8695 36.4149 77.8839 32.6553C74.9589 22.6097 75.5619 11.8752 79.594 2.21488C89.9773 2.33616 100.361 1.48722 110.744 2.69999C110.622 5.97445 112.21 8.27871 114.408 10.4617C116.607 12.6447 118.928 14.4638 120.516 16.8893C118.44 24.651 118.44 24.6511 113.675 28.7745C109.034 30.4723 102.559 24.0447 99.0168 30.8362C98.1617 33.2617 99.3833 34.8383 99.7497 36.5362C100.116 38.234 99.6276 39.6893 97.4288 39.8106Z" fill="#FE4F16"/>
        <path d="M110.744 2.70007H79.1055C72.5091 5.85326 65.6683 4.76177 58.8276 3.67028C58.5738 3.64193 58.3288 3.56122 58.1083 3.43333C57.8878 3.30543 57.6966 3.13319 57.5471 2.92764C57.3976 2.72209 57.293 2.48778 57.24 2.23974C57.1871 1.9917 57.1869 1.7354 57.2396 1.4873H133.953V2.70007H110.744Z" fill="#FD4A11"/>
        <path d="M63.3474 72.07C55.0408 70.6147 46.4899 71.4636 38.6719 67.4615C36.5538 66.2906 34.1139 65.8232 31.709 66.1275C26.212 62.6104 23.7689 57.8807 24.2575 51.2104C24.7462 44.5402 24.3797 36.6573 24.3797 29.2594C24.1747 25.9382 24.5888 22.608 25.6013 19.436C28.7773 17.0104 31.8312 19.0721 35.0072 19.436C41.9701 21.1338 49.1773 22.4679 55.7737 25.4998C57.4839 26.5913 59.5605 27.319 60.9042 29.0168V30.2296C58.5833 41.5083 60.1713 52.9083 59.6827 64.187C59.5605 67.4615 61.8815 69.6445 63.3474 72.07Z" fill="#FA4517"/>
        <path d="M98.6503 55.3346V56.5473C98.6327 58.8786 98.9201 61.2023 99.5054 63.4601C100.361 67.4622 100.605 71.7069 97.5509 74.7388C94.497 77.7708 91.1988 74.2537 88.8779 76.9218C85.4575 74.6176 84.3581 70.4942 81.7928 67.7048C82.4036 65.0367 84.6024 64.1878 86.4348 63.0963C88.2671 62.0048 92.6647 60.1856 94.2527 56.9112C95.8408 53.6367 96.9402 55.3346 98.6503 55.3346Z" fill="#FE4D16"/>
        <path d="M60.9042 29.0171C58.8275 29.1384 56.873 28.8958 56.0179 26.5916C52.2311 18.5873 48.3221 10.7043 48.6886 1.4873H57.2395C58.3389 3.18518 60.0491 2.70007 61.6371 2.70007H79.1053C79.9604 9.00645 77.5173 15.1916 77.8838 21.3767C78.1281 24.4086 77.5173 27.3192 78.9832 30.1086C80.4491 32.8979 78.9832 32.049 77.8838 32.6554C75.5357 32.811 73.1947 32.2617 71.1652 31.0788C67.9913 29.4952 64.4485 28.7833 60.9042 29.0171Z" fill="#FD4D17"/>
        <path d="M35.3737 20.649C31.9533 21.1341 28.8994 18.9511 25.6012 19.4362C20.715 16.5256 14.6072 17.6171 9.721 14.7065C6.91141 10.9469 7.40004 6.33837 7.03357 1.4873H19.4935C24.1354 3.18518 29.0216 1.12348 33.9078 2.82135C38.1833 8.40007 36.1066 14.5852 35.3737 20.649Z" fill="#FA6A21"/>
        <path d="M35.3737 20.649C34.1521 16.8894 33.297 13.0086 35.3737 9.37029L33.4192 3.67028C28.8994 1.12347 23.6467 4.51922 19.4934 1.4873H48.6886C50.6431 9.97667 54.6743 17.9809 56.018 26.5916L35.3737 20.649Z" fill="#FC641E"/>
    </g>
    <defs>
        <clipPath id="clip0">
            <rect width="408" height="114" fill="white" transform="translate(-13 -3)"/>
        </clipPath>
    </defs>
</svg>
