<svg width="133" height="150" viewBox="0 0 133 150" fill="none" xmlns="http://www.w3.org/2000/svg">
<path d="M64.3469 46.7039C63.6839 48.3149 59.7809 48.2039 55.6919 46.5179C51.6029 44.8319 48.8219 42.1589 49.4849 40.5479C49.6409 40.1759 50.0849 38.7809 50.5289 38.5889C52.0529 37.9439 54.9539 39.3929 58.0949 40.6889C61.0199 41.8889 64.3649 42.6719 64.8839 44.2589C65.1959 45.2249 64.5359 46.2449 64.3469 46.7039Z" fill="#FF8E43"/>
<path opacity="0.2" d="M64.8839 44.259C65.1329 45.522 64.5839 46.128 64.3469 46.704C64.1099 47.28 63.4169 47.658 62.4479 47.79C62.3268 47.8106 62.2046 47.8246 62.0819 47.832C61.3389 47.8757 60.5933 47.8364 59.8589 47.715C59.7539 47.715 59.6489 47.682 59.5409 47.664C58.6789 47.5093 57.8296 47.2907 56.9999 47.01L56.6999 46.908C56.3669 46.791 56.0249 46.662 55.6829 46.521C55.3409 46.38 55.0169 46.221 54.6959 46.08L54.4199 45.948C53.6637 45.574 52.9349 45.147 52.2389 44.67L51.9929 44.496C51.3855 44.0666 50.8289 43.5694 50.3339 43.014C50.2589 42.93 50.1899 42.849 50.1239 42.765C49.4789 41.949 49.2239 41.169 49.4789 40.548C49.6469 40.149 50.0069 38.784 50.5229 38.586C51.1576 38.4072 51.8293 38.4072 52.4639 38.586L52.7639 38.658C54.2639 39.042 56.1539 39.897 58.0829 40.692C60.3569 41.631 63.0479 42.606 64.3679 43.731C64.4465 43.7971 64.5216 43.8672 64.5929 43.941C64.6983 44.0391 64.7956 44.1454 64.8839 44.259V44.259Z" fill="black"/>
<g opacity="0.2">
<path opacity="0.2" d="M52.9139 38.3999L52.7759 38.6519L50.3399 43.0109C50.2649 42.9269 50.1959 42.8459 50.1299 42.7619L52.4699 38.5799L52.6529 38.2559L52.9139 38.3999Z" fill="black"/>
</g>
<g opacity="0.2">
<path opacity="0.2" d="M54.756 40.1788L52.245 44.6788L51.999 44.5048L54.495 40.0408L54.756 40.1788Z" fill="black"/>
</g>
<g opacity="0.2">
<path opacity="0.2" d="M59.373 42.7589L57 47.0098L56.7 46.9079L59.1 42.5999L59.373 42.7589Z" fill="black"/>
</g>
<g opacity="0.2">
<path opacity="0.2" d="M57.225 41.5589L54.702 46.0799L54.426 45.9479L56.964 41.3999L57.225 41.5589Z" fill="black"/>
</g>
<g opacity="0.2">
<path opacity="0.2" d="M62.172 43.5809L59.859 47.7149C59.754 47.7149 59.649 47.6819 59.541 47.6639L61.908 43.4309L62.172 43.5809Z" fill="black"/>
</g>
<path d="M64.866 45.2998C64.203 46.9108 60.348 46.8478 56.256 45.1588C52.164 43.4698 49.386 40.7998 50.052 39.1888C50.718 37.5778 54.57 37.6438 58.662 39.3298C62.754 41.0158 65.529 43.6798 64.866 45.2998Z" fill="#FF8E43"/>
<path opacity="0.2" d="M63.4739 44.715C63.0059 45.852 60 45.693 56.763 44.358C53.526 43.0229 51.282 41.0159 51.75 39.8789C52.218 38.7419 55.224 38.9009 58.464 40.2359C61.704 41.5709 63.9449 43.578 63.4739 44.715Z" fill="white"/>
<path d="M85.023 32.1419C86.091 33.5189 84.057 36.8519 80.556 39.5609C77.055 42.2699 73.356 43.3499 72.291 41.9609C72.045 41.6429 71.049 40.5779 71.109 40.0799C71.31 38.4389 74.007 36.6449 76.695 34.5629C79.197 32.6249 81.534 30.1109 83.169 30.4499C84.162 30.6689 84.72 31.7519 85.023 32.1419Z" fill="#FF8E43"/>
<path opacity="0.2" d="M83.1689 30.4619C84.3899 30.8759 84.6419 31.6619 85.0229 32.1419C85.4039 32.6219 85.3889 33.4229 85.0229 34.3319C84.9809 34.4429 84.9299 34.5539 84.8759 34.6679C84.5472 35.3348 84.1447 35.9628 83.6759 36.5399C83.6129 36.6239 83.5439 36.7049 83.4749 36.7889C82.9107 37.4618 82.297 38.0915 81.6389 38.6729L81.4079 38.8739C81.1409 39.1049 80.8589 39.3359 80.5679 39.5609C80.2769 39.7859 79.9859 39.9989 79.6919 40.1999C79.6109 40.2599 79.5239 40.3169 79.4429 40.3739C78.7419 40.8441 78.008 41.2632 77.2469 41.6279C77.1539 41.6759 77.0639 41.7149 76.9769 41.7569C76.3005 42.0698 75.591 42.3053 74.8619 42.4589C74.7539 42.4829 74.6489 42.5009 74.5439 42.5159C73.5149 42.6689 72.7109 42.5159 72.2999 41.9729C72.0359 41.6309 71.0309 40.6379 71.1179 40.0949C71.2748 39.453 71.6084 38.8679 72.0809 38.4059C72.1469 38.3309 72.2189 38.2559 72.2939 38.1779C73.3769 37.0559 75.0539 35.8529 76.7039 34.5779C78.6509 33.0779 80.8349 31.2209 82.4639 30.6389C82.5622 30.6028 82.6624 30.5718 82.7639 30.5459C82.8966 30.5081 83.032 30.48 83.1689 30.4619V30.4619Z" fill="black"/>
<g opacity="0.2">
<path opacity="0.2" d="M72.1349 37.9319L72.2849 38.1779L74.8529 42.4589C74.7449 42.4829 74.6399 42.5009 74.5349 42.5159L72.0719 38.3999L71.8799 38.0999L72.1349 37.9319Z" fill="black"/>
</g>
<g opacity="0.2">
<path opacity="0.2" d="M74.592 37.2178L77.238 41.6278C77.145 41.6758 77.055 41.7148 76.968 41.7568L74.334 37.3708L74.592 37.2178Z" fill="black"/>
</g>
<g opacity="0.2">
<path opacity="0.2" d="M79.1249 34.5L81.6299 38.676L81.3989 38.877L78.8669 34.653L79.1249 34.5Z" fill="black"/>
</g>
<g opacity="0.2">
<path opacity="0.2" d="M77.0191 35.7629L79.683 40.1999C79.602 40.2599 79.515 40.3169 79.434 40.3739L76.7581 35.9159L77.0191 35.7629Z" fill="black"/>
</g>
<g opacity="0.2">
<path opacity="0.2" d="M81.2309 32.4749L83.6669 36.5399C83.6039 36.6239 83.5349 36.7049 83.4659 36.7889L80.9729 32.6309L81.2309 32.4749Z" fill="black"/>
</g>
<path d="M79.6476 38.3835C83.1463 35.6736 85.1181 32.3607 84.0518 30.984C82.9855 29.6073 79.2848 30.6882 75.7861 33.3981C72.2874 36.1081 70.3156 39.421 71.3819 40.7976C72.4483 42.1743 76.1489 41.0935 79.6476 38.3835Z" fill="#FF8E43"/>
<path opacity="0.2" d="M79.2137 37.5486C81.9828 35.4037 83.6165 32.876 82.8627 31.9028C82.1088 30.9296 79.2529 31.8793 76.4839 34.0242C73.7148 36.169 72.0811 38.6967 72.8349 39.6699C73.5887 40.6432 76.4446 39.6934 79.2137 37.5486Z" fill="white"/>
<path d="M70.542 25.6919C70.2 27.6659 65.772 28.4999 60.756 27.5999C55.74 26.6999 51.957 24.3809 52.308 22.4069C52.389 21.9479 52.53 20.2769 53.001 19.9439C54.558 18.8459 58.176 19.7639 62.028 20.4479C65.628 21.0869 69.567 21.1379 70.542 22.7969C71.133 23.8169 70.641 25.1279 70.542 25.6919Z" fill="#FF8E43"/>
<path opacity="0.2" d="M70.542 22.8C71.142 24.162 70.665 24.975 70.542 25.683C70.419 26.391 69.732 26.982 68.676 27.372C68.547 27.423 68.412 27.465 68.274 27.507C67.448 27.7391 66.5988 27.879 65.742 27.924C65.619 27.924 65.499 27.924 65.373 27.945C64.3637 27.9821 63.3529 27.945 62.349 27.834L61.998 27.789C61.593 27.738 61.176 27.678 60.759 27.603C60.342 27.528 59.937 27.444 59.538 27.351C59.424 27.327 59.31 27.297 59.196 27.27C58.2535 27.0372 57.3291 26.7364 56.43 26.37C56.319 26.328 56.214 26.28 56.109 26.238C55.32 25.9021 54.5712 25.4784 53.877 24.975C53.772 24.9 53.676 24.825 53.577 24.747C52.647 23.988 52.17 23.172 52.305 22.413C52.395 21.921 52.467 20.313 52.995 19.95C53.523 19.587 54.279 19.473 55.179 19.47H55.539C57.339 19.53 59.658 20.031 62.025 20.451C64.815 20.949 68.082 21.384 69.84 22.326C69.9431 22.3806 70.0433 22.4407 70.14 22.506C70.2815 22.5934 70.4159 22.6917 70.542 22.8Z" fill="black"/>
<g opacity="0.2">
<path opacity="0.2" d="M55.638 19.1639L55.542 19.4789L53.874 24.9809C53.769 24.9059 53.673 24.8309 53.574 24.7529L55.176 19.4759L55.302 19.0649L55.638 19.1639Z" fill="black"/>
</g>
<g opacity="0.2">
<path opacity="0.2" d="M58.146 20.7L56.427 26.367C56.316 26.325 56.211 26.277 56.106 26.235L57.816 20.595L58.146 20.7Z" fill="black"/>
</g>
<g opacity="0.2">
<path opacity="0.2" d="M63.9749 22.4758L62.3459 27.8428L61.9949 27.7978L63.6419 22.3738L63.9749 22.4758Z" fill="black"/>
</g>
<g opacity="0.2">
<path opacity="0.2" d="M61.2659 21.6539L59.5349 27.3539C59.4209 27.3299 59.3069 27.2999 59.1929 27.2729L60.9329 21.5459L61.2659 21.6539Z" fill="black"/>
</g>
<g opacity="0.2">
<path opacity="0.2" d="M67.3259 22.7098L65.7389 27.9328C65.6159 27.9328 65.4959 27.9328 65.3699 27.9538L66.9929 22.6108L67.3259 22.7098Z" fill="black"/>
</g>
<path d="M70.7755 23.9684C71.1267 21.9946 67.3438 19.6707 62.3262 18.7778C57.3085 17.8849 52.9562 18.7612 52.605 20.735C52.2537 22.7088 56.0366 25.0327 61.0543 25.9255C66.0719 26.8184 70.4243 25.9422 70.7755 23.9684Z" fill="#FF8E43"/>
<path opacity="0.2" d="M69.068 23.6668C69.3162 22.2721 66.2987 20.5687 62.3283 19.8622C58.3579 19.1556 54.938 19.7135 54.6899 21.1082C54.4417 22.5029 57.4591 24.2063 61.4295 24.9128C65.3999 25.6193 68.8198 25.0615 69.068 23.6668Z" fill="white"/>
<path d="M96.732 76.089L65.859 77.889C64.7684 77.9532 63.6983 78.2134 62.7 78.657L29.166 93.657C28.5776 93.9156 28.0958 94.3683 27.8009 94.9394C27.5061 95.5105 27.4161 96.1655 27.546 96.795L33.087 123C33.1806 123.422 33.3696 123.817 33.6393 124.155C33.909 124.492 34.2524 124.764 34.6433 124.949C35.0341 125.133 35.4619 125.226 35.8941 125.22C36.3264 125.214 36.7515 125.11 37.137 124.914L70.236 108.39L100.8 107.367C101.176 107.357 101.546 107.267 101.884 107.103C102.223 106.939 102.523 106.705 102.764 106.416C103.005 106.127 103.181 105.79 103.282 105.427C103.382 105.065 103.405 104.685 103.347 104.313L99.258 79.221C99.045 77.925 98.061 76.05 96.732 76.089Z" fill="#FF8E43"/>
<path opacity="0.1" d="M96.732 76.089L65.859 77.889C64.7684 77.9532 63.6983 78.2134 62.7 78.657L29.166 93.657C28.5776 93.9156 28.0958 94.3683 27.8009 94.9394C27.5061 95.5105 27.4161 96.1655 27.546 96.795L33.087 123C33.1806 123.422 33.3696 123.817 33.6393 124.155C33.909 124.492 34.2524 124.764 34.6433 124.949C35.0341 125.133 35.4619 125.226 35.8941 125.22C36.3264 125.214 36.7515 125.11 37.137 124.914L70.236 108.39L100.8 107.367C101.176 107.357 101.546 107.267 101.884 107.103C102.223 106.939 102.523 106.705 102.764 106.416C103.005 106.127 103.181 105.79 103.282 105.427C103.382 105.065 103.405 104.685 103.347 104.313L99.258 79.221C99.045 77.925 98.061 76.05 96.732 76.089Z" fill="black"/>
<path d="M34.7637 59.0262L18.562 73.9609L47.6365 105.502L63.8382 90.567L34.7637 59.0262Z" fill="#FF8E43"/>
<path opacity="0.5" d="M63.834 90.5698L47.631 105.504L18.561 73.9648L29.193 64.1638L34.764 59.0278L35.691 60.0358L63.834 90.5698Z" fill="#FAFAFA"/>
<path d="M34.8679 60.9543L20.572 74.1323L47.7677 103.635L62.0636 90.4571L34.8679 60.9543Z" stroke="#FF8E43" stroke-miterlimit="10"/>
<path d="M44.5344 85.7876C46.1742 84.2761 45.9668 81.3837 44.0712 79.3273C42.1756 77.2709 39.3097 76.8293 37.6699 78.3408C36.0302 79.8523 36.2376 82.7447 38.1332 84.801C40.0288 86.8574 42.8947 87.2991 44.5344 85.7876Z" fill="#FF8E43"/>
<path opacity="0.1" d="M47.4601 92.7028L41.7031 94.6918L29.1931 64.1638L34.7641 59.0278L35.6911 60.0358L47.4601 92.7028Z" fill="black"/>
<path d="M48.5818 46.6696L27.8665 54.1807L42.4888 94.5085L63.2041 86.9974L48.5818 46.6696Z" fill="#FF8E43"/>
<path opacity="0.5" d="M48.5818 46.6696L27.8665 54.1807L42.4888 94.5085L63.2041 86.9974L48.5818 46.6696Z" fill="#FAFAFA"/>
<path d="M47.9307 48.4879L29.6521 55.1155L43.3296 92.8374L61.6081 86.2098L47.9307 48.4879Z" stroke="#FF8E43" stroke-miterlimit="10"/>
<path d="M47.2505 75.1252C49.347 74.365 50.2738 71.6173 49.3205 68.9881C48.3671 66.3588 45.8947 64.8436 43.7981 65.6038C41.7016 66.364 40.7748 69.1117 41.7281 71.7409C42.6815 74.3702 45.1539 75.8854 47.2505 75.1252Z" fill="#FF8E43"/>
<path d="M96.933 77.1538L66.483 78.8698C65.4036 78.929 64.3445 79.1884 63.36 79.6348L30.318 94.5508C29.736 94.8139 29.2612 95.2677 28.9721 95.8372C28.6829 96.4067 28.5968 97.0578 28.728 97.6828L34.269 123.9C34.3582 124.319 34.5424 124.713 34.8074 125.05C35.0725 125.387 35.4112 125.659 35.7977 125.844C36.1842 126.03 36.6081 126.125 37.0368 126.121C37.4656 126.117 37.8878 126.015 38.271 125.823L70.881 109.392L101.025 108.438C101.398 108.426 101.765 108.335 102.1 108.17C102.435 108.005 102.731 107.771 102.968 107.483C103.206 107.195 103.379 106.859 103.476 106.499C103.574 106.138 103.593 105.761 103.533 105.393L99.432 80.3038C99.219 78.9958 98.247 77.1178 96.933 77.1538Z" fill="#FF8E43"/>
<path opacity="0.2" d="M67.7219 83.4598L93.8489 81.8518" stroke="black" stroke-width="2" stroke-linecap="round" stroke-linejoin="round"/>
<path opacity="0.2" d="M64.593 84.135L69.366 106.059" stroke="black" stroke-width="2" stroke-linecap="round" stroke-linejoin="round"/>
<path opacity="0.2" d="M32.769 103.929L36.135 120.792C36.135 120.792 38.715 114.102 32.769 103.929Z" fill="#FAFAFA"/>
<path opacity="0.2" d="M33.21 104.127C33.327 104.427 63.108 91.647 63.108 91.647C63.1887 94.5444 62.4642 97.4075 61.0152 99.9179C59.5662 102.428 57.4493 104.488 54.9 105.867C45.936 110.892 33.21 104.127 33.21 104.127Z" fill="#FAFAFA"/>
<path d="M52.9922 104.625C53.7046 104.625 54.2822 104.047 54.2822 103.335C54.2822 102.622 53.7046 102.045 52.9922 102.045C52.2797 102.045 51.7021 102.622 51.7021 103.335C51.7021 104.047 52.2797 104.625 52.9922 104.625Z" fill="#FF8E43"/>
<path opacity="0.2" d="M63.123 91.647C63.123 91.647 66.8161 97.206 65.9221 106.674Z" fill="black"/>
<g opacity="0.2">
<path opacity="0.2" d="M31.344 97.305L32.031 97.002" stroke="#FAFAFA" stroke-linecap="round" stroke-linejoin="round"/>
<path opacity="0.2" d="M33.4561 96.3719L61.2661 84.0779" stroke="#FAFAFA" stroke-linecap="round" stroke-linejoin="round" stroke-dasharray="5.2 5.2"/>
<path opacity="0.2" d="M61.98 83.763L62.664 83.46" stroke="#FAFAFA" stroke-linecap="round" stroke-linejoin="round"/>
</g>
<path opacity="0.2" d="M68.5981 88.3888L94.7251 86.7778" stroke="black" stroke-width="2" stroke-linecap="round" stroke-linejoin="round"/>
<path opacity="0.2" d="M69.7739 94.5358L95.9009 92.9248" stroke="black" stroke-width="2" stroke-linecap="round" stroke-linejoin="round"/>
<path d="M91.8929 56.679L85.5569 78.717C85.3463 79.4551 84.9193 80.1131 84.3311 80.6061C83.7429 81.0991 83.0204 81.4046 82.2569 81.483C81.7709 81.5295 81.2805 81.4848 80.8109 81.351L68.6999 77.868C67.7209 77.5855 66.8938 76.9264 66.4 76.035C65.9063 75.1436 65.7861 74.0929 66.0659 73.113L72.4049 51.069C72.688 50.0913 73.3471 49.2657 74.2379 48.7731C75.1286 48.2805 76.1783 48.1611 77.1569 48.441L89.2769 51.921C90.2538 52.2066 91.0776 52.8677 91.5679 53.7596C92.0583 54.6514 92.1751 55.7012 91.8929 56.679Z" fill="#FF8E43"/>
<path opacity="0.2" d="M91.8929 56.679L85.5569 78.717C85.3463 79.4551 84.9193 80.1131 84.3311 80.6061C83.7429 81.0991 83.0204 81.4046 82.2569 81.483C81.7709 81.5295 81.2805 81.4848 80.8109 81.351L68.6999 77.868C67.7209 77.5855 66.8938 76.9264 66.4 76.035C65.9063 75.1436 65.7861 74.0929 66.0659 73.113L72.4049 51.069C72.688 50.0913 73.3471 49.2657 74.2379 48.7731C75.1286 48.2805 76.1783 48.1611 77.1569 48.441L89.2769 51.921C90.2538 52.2066 91.0776 52.8677 91.5679 53.7596C92.0583 54.6514 92.1751 55.7012 91.8929 56.679Z" fill="black"/>
<path d="M90.8399 56.94L84.5039 78.981C84.3437 79.5421 84.0575 80.0591 83.667 80.4927C83.2766 80.9264 82.7922 81.265 82.2509 81.483C81.7649 81.5295 81.2745 81.4847 80.8049 81.351L68.6999 77.868C67.7209 77.5855 66.8938 76.9263 66.4 76.0349C65.9063 75.1436 65.7861 74.0928 66.0659 73.113L72.4049 51.069C72.5653 50.5087 72.8517 49.9925 73.2422 49.5599C73.6327 49.1273 74.1169 48.7897 74.6579 48.573C75.1439 48.5235 75.6349 48.5683 76.1039 48.705L88.1999 52.2C89.1771 52.4807 90.0035 53.1369 90.4982 54.0251C90.9929 54.9134 91.1158 55.9614 90.8399 56.94Z" fill="#FF8E43"/>
<path opacity="0.5" d="M90.8399 56.94L84.5039 78.981C84.3437 79.5421 84.0575 80.0591 83.667 80.4927C83.2766 80.9264 82.7922 81.265 82.2509 81.483C81.7649 81.5295 81.2745 81.4847 80.8049 81.351L68.6999 77.868C67.7209 77.5855 66.8938 76.9263 66.4 76.0349C65.9063 75.1436 65.7861 74.0928 66.0659 73.113L72.4049 51.069C72.5653 50.5087 72.8517 49.9925 73.2422 49.5599C73.6327 49.1273 74.1169 48.7897 74.6579 48.573C75.1439 48.5235 75.6349 48.5683 76.1039 48.705L88.1999 52.2C89.1771 52.4807 90.0035 53.1369 90.4982 54.0251C90.9929 54.9134 91.1158 55.9614 90.8399 56.94Z" fill="#FAFAFA"/>
<path d="M73.8063 58.8144L72.5098 58.449L67.8433 75.0059L69.1398 75.3713L73.8063 58.8144Z" fill="#FAFAFA"/>
<path d="M71.0008 75.8969L69.7048 75.5219L74.3698 58.9709L75.6628 59.3429L71.0008 75.8969Z" fill="#FAFAFA"/>
<path d="M72.8849 76.4371L71.5889 76.0651L76.2539 59.5142L77.5499 59.8862L72.8849 76.4371Z" fill="#FAFAFA"/>
<path opacity="0.5" d="M85.0941 62.0551L83.7976 61.6897L79.1312 78.2467L80.4277 78.6121L85.0941 62.0551Z" fill="black"/>
<path d="M84.93 57.375L84.3 59.622L83.532 59.406C83.16 59.3004 82.8449 59.0517 82.656 58.7143C82.4671 58.3769 82.4196 57.9783 82.524 57.606L82.944 56.106L84.495 56.55C84.662 56.6018 84.8016 56.7178 84.8832 56.8725C84.9647 57.0271 84.9816 57.2079 84.93 57.375Z" fill="#FAFAFA"/>
<path d="M84.561 56.274L83.01 55.83L83.475 54.186C83.5269 54.0016 83.6147 53.8292 83.7333 53.6787C83.8518 53.5282 83.9989 53.4026 84.1661 53.3089C84.3332 53.2153 84.5172 53.1556 84.7075 53.1331C84.8978 53.1106 85.0906 53.1259 85.275 53.178L86.073 53.403L85.377 55.824C85.3539 55.9077 85.3143 55.986 85.2605 56.0541C85.2067 56.1223 85.1399 56.179 85.0638 56.2209C84.9878 56.2629 84.9041 56.2892 84.8178 56.2983C84.7314 56.3074 84.6441 56.2991 84.561 56.274V56.274Z" fill="#FAFAFA"/>
<path d="M86.0309 57.0001L87.5909 57.4471L87.1769 58.9141C87.1257 59.099 87.0384 59.2718 86.92 59.4227C86.8015 59.5737 86.6544 59.6996 86.487 59.7933C86.3197 59.8871 86.1354 59.9467 85.9448 59.9688C85.7543 59.9909 85.5613 59.975 85.3769 59.9221L84.5669 59.6941L85.2119 57.4501C85.2357 57.3665 85.2758 57.2884 85.33 57.2205C85.3841 57.1525 85.4513 57.0959 85.5274 57.0541C85.6036 57.0122 85.6873 56.9859 85.7738 56.9766C85.8602 56.9674 85.9476 56.9753 86.0309 57.0001V57.0001Z" fill="#FAFAFA"/>
<path d="M88.1428 55.5001L87.6718 57.1681L86.1118 56.7211C85.9448 56.6723 85.8038 56.5594 85.7195 56.4072C85.6352 56.2549 85.6145 56.0755 85.6618 55.9081L86.3578 53.4871L87.1348 53.7061C87.3188 53.7577 87.4908 53.845 87.6411 53.9631C87.7913 54.0812 87.9168 54.2277 88.0104 54.3943C88.104 54.5609 88.1639 54.7443 88.1866 54.934C88.2093 55.1237 88.1944 55.3161 88.1428 55.5001Z" fill="#FAFAFA"/>
</svg>
