<svg width="261" height="264" viewBox="0 0 261 264" fill="none" xmlns="http://www.w3.org/2000/svg">
<path d="M40.1937 81.5713H84.6211V34.7271L40.1937 34.7271L40.1937 81.5713Z" fill="#E0E0E0"/>
<path d="M43.2054 81.5713H87.6328V34.7271L43.2054 34.7271L43.2054 81.5713Z" fill="#FAFAFA"/>
<path d="M43.1904 34.7114H87.6492V81.582H43.1904V34.7114ZM87.6231 34.7378H43.2218V81.5556H87.6231V34.7378Z" fill="#E0E0E0"/>
<path d="M49.1771 75.272H81.6611V41.0206L49.1771 41.0206L49.1771 75.272Z" fill="white"/>
<path d="M81.6611 75.5044C81.8906 75.8509 82.1605 76.1683 82.465 76.4495C82.987 77.0039 83.7126 77.7484 84.553 78.5615C85.3934 79.3746 86.119 80.098 86.6775 80.6154C86.9595 80.9152 87.2748 81.181 87.6171 81.4074C87.3876 81.0641 87.1196 80.7487 86.8185 80.4676C86.2965 79.9132 85.5657 79.1634 84.7305 78.3556C83.8953 77.5478 83.1645 76.8138 82.606 76.2964C82.3235 75.9951 82.0063 75.7292 81.6611 75.5044Z" fill="#E0E0E0"/>
<path d="M49.1774 75.4141C48.836 75.6456 48.5239 75.9187 48.2483 76.2272C47.7002 76.7552 46.9589 77.4891 46.1603 78.3128C45.3616 79.1365 44.636 79.8968 44.1245 80.4617C43.8266 80.7441 43.5653 81.0635 43.3467 81.4121C43.6838 81.1789 43.9937 80.9079 44.2706 80.6043C44.7926 80.0763 45.5652 79.3424 46.3586 78.4923C47.1521 77.6422 47.8881 76.9083 48.3944 76.3433C48.6926 76.0677 48.9556 75.7555 49.1774 75.4141Z" fill="#E0E0E0"/>
<path d="M49.2659 41.1106C49.0348 40.7685 48.7669 40.4533 48.4672 40.1708C47.9452 39.6428 47.2197 38.8666 46.3792 38.0588C45.5388 37.251 44.8132 36.517 44.2599 36.0049C43.9771 35.7061 43.6619 35.4404 43.3203 35.2129C43.5462 35.5575 43.8127 35.8731 44.1138 36.1527C44.6358 36.7071 45.3666 37.4569 46.2018 38.2647C47.037 39.0726 47.7678 39.8065 48.3263 40.3186C48.6053 40.6216 48.921 40.8877 49.2659 41.1106Z" fill="#E0E0E0"/>
<path d="M81.75 41.1848C82.0918 40.9537 82.4055 40.6825 82.6844 40.377C83.2064 39.849 83.9685 39.1151 84.7724 38.265C85.5763 37.4149 86.2914 36.681 86.803 36.1213C87.0979 35.8347 87.3605 35.516 87.586 35.1709C87.2396 35.4082 86.9254 35.6905 86.6516 36.0104C86.1035 36.5384 85.3622 37.2723 84.5636 38.1224C83.7649 38.9725 83.0393 39.7064 82.5278 40.2714C82.2343 40.5442 81.9733 40.8508 81.75 41.1848Z" fill="#E0E0E0"/>
<path d="M49.266 75.2715C49.2705 75.2153 49.2705 75.1588 49.266 75.1026C49.266 74.9864 49.266 74.8333 49.266 74.6274C49.266 74.1997 49.266 73.5714 49.266 72.7794C49.266 71.1531 49.266 68.793 49.2974 65.7992C49.2974 59.8012 49.3339 51.2528 49.36 41.0202L49.2347 41.1469H81.6248L81.4839 40.9991C81.4839 53.5708 81.4839 65.3293 81.4839 75.2504L81.6092 75.1237L58.1557 75.1871L51.5628 75.224H49.8246H49.3704H49.8037H51.5263L58.0878 75.261L81.6196 75.3244H81.7449V75.1976C81.7449 65.2765 81.7449 53.518 81.7449 40.9463V40.8037H81.5935H49.2034H49.0781V40.9304C49.0781 51.1947 49.1251 59.7695 49.1408 65.7887C49.1408 68.7719 49.1408 71.1268 49.1773 72.7424C49.1773 73.5344 49.1773 74.1416 49.1773 74.564C49.1773 74.7647 49.1773 74.9178 49.1773 75.0287C49.1773 75.1396 49.266 75.2715 49.266 75.2715Z" fill="#E0E0E0"/>
<path d="M60.0041 63.6294H70.8408V52.6681H60.0041V63.6294Z" fill="#EBEBEB"/>
<path d="M27.7236 244.765H81.1973L81.1973 142.518H27.7236L27.7236 244.765Z" fill="#E0E0E0"/>
<path d="M43.5869 244.765H97.0605L97.0605 142.518H43.5869L43.5869 244.765Z" fill="#F5F5F5"/>
<path d="M47.5283 147.355H93.4382V163.565H47.5283V147.355ZM92.864 147.925H48.0921V162.995H92.864V147.925Z" fill="#E0E0E0"/>
<path d="M76.2901 150.871H64.0388C63.3535 150.871 62.6963 150.595 62.2117 150.105C61.7271 149.615 61.4549 148.95 61.4549 148.257V147.639H78.874V148.257C78.874 148.95 78.6018 149.615 78.1172 150.105C77.6326 150.595 76.9754 150.871 76.2901 150.871Z" fill="#EBEBEB"/>
<path d="M47.5283 167.941H93.4382V184.15H47.5283V167.941ZM92.864 168.516H48.0921V183.58H92.864V168.516Z" fill="#E0E0E0"/>
<path d="M76.2901 171.458H64.0388C63.3535 171.458 62.6963 171.182 62.2117 170.692C61.7271 170.202 61.4549 169.537 61.4549 168.844V168.226H78.874V168.844C78.874 169.537 78.6018 170.202 78.1172 170.692C77.6326 171.182 76.9754 171.458 76.2901 171.458Z" fill="#EBEBEB"/>
<path d="M47.5283 188.534H93.4382V204.738H47.5283V188.534ZM92.864 189.104H48.0921V204.168H92.864V189.104Z" fill="#E0E0E0"/>
<path d="M76.2901 192.044H64.0388C63.3535 192.044 62.6963 191.769 62.2117 191.278C61.7271 190.788 61.4549 190.124 61.4549 189.43V188.813H78.874V189.43C78.874 190.124 78.6018 190.788 78.1172 191.278C77.6326 191.769 76.9754 192.044 76.2901 192.044Z" fill="#EBEBEB"/>
<path d="M47.5283 209.12H93.4382V225.33H47.5283V209.12ZM92.864 209.69H48.0921V224.759H92.864V209.69Z" fill="#E0E0E0"/>
<path d="M76.2901 212.637H64.0388C63.3535 212.637 62.6963 212.362 62.2117 211.871C61.7271 211.381 61.4549 210.717 61.4549 210.023V209.406H78.874V210.023C78.874 210.717 78.6018 211.381 78.1172 211.871C77.6326 212.362 76.9754 212.637 76.2901 212.637Z" fill="#EBEBEB"/>
<path d="M41.3526 143.786H99.4355V138.691H41.3526V143.786Z" fill="#EBEBEB"/>
<path d="M23.8864 143.786H41.3525V138.691H23.8864V143.786Z" fill="#E0E0E0"/>
<path d="M94.2571 249.986H97.0654V244.764H94.2571V249.986Z" fill="#E0E0E0"/>
<path d="M76.8958 249.986H79.7041V244.764H76.8958V249.986Z" fill="#E0E0E0"/>
<path d="M45.1789 249.986H47.9873V244.764H45.1789V249.986Z" fill="#E0E0E0"/>
<path d="M29.3205 249.986H32.1289V244.764H29.3205V249.986Z" fill="#E0E0E0"/>
<path d="M158.043 24.6597L154.811 41.4946L179.499 46.3443L182.731 29.5093L158.043 24.6597Z" fill="#F5F5F5"/>
<path d="M182.778 29.7309C182.694 29.7992 182.603 29.8593 182.507 29.9104L181.703 30.3856L178.717 32.091L168.799 37.6667L168.721 37.7142L168.658 37.6403L168.512 37.4661L161.095 28.5957L158.881 25.8712C158.631 25.5649 158.432 25.3168 158.286 25.1267C158.212 25.0436 158.145 24.9534 158.088 24.8574C158.171 24.932 158.248 25.0132 158.318 25.1003L158.949 25.8131L161.23 28.4531C163.156 30.7288 165.793 33.8387 168.7 37.2813C168.752 37.3367 168.801 37.3949 168.846 37.4555L168.705 37.4291L178.623 31.9115L181.656 30.3064L182.481 29.8681C182.577 29.8151 182.676 29.7692 182.778 29.7309Z" fill="#E0E0E0"/>
<path d="M154.856 41.7113C154.814 41.6585 157.116 39.7155 159.993 37.3712C162.869 35.0269 165.213 33.1472 165.27 33.2105C165.327 33.2739 163.01 35.2011 160.133 37.5507C157.257 39.9003 154.893 41.7641 154.856 41.7113Z" fill="#E0E0E0"/>
<path d="M173.517 34.6219C173.575 34.5902 174.969 37.2619 176.649 40.5407C178.33 43.8196 179.62 46.5388 179.562 46.5652C179.505 46.5916 178.111 43.9252 176.43 40.6463C174.749 37.3675 173.46 34.6483 173.517 34.6219Z" fill="#E0E0E0"/>
<path d="M235.81 47.0338L218.178 55.9922L224.148 68.0143L241.78 59.0559L235.81 47.0338Z" fill="#F5F5F5"/>
<path d="M235.944 47.1567C235.924 47.2403 235.896 47.3217 235.86 47.3996C235.792 47.5739 235.698 47.8009 235.584 48.086L234.54 50.5887L231.032 58.8519L231 58.9206H230.927L230.755 58.8836L221.949 56.9723L219.281 56.3703L218.561 56.2014C218.476 56.1843 218.392 56.1595 218.311 56.1275C218.397 56.1314 218.482 56.1438 218.566 56.1644L219.297 56.3017L221.975 56.8297L230.792 58.6883L230.969 58.7252L230.865 58.778C232.253 55.5625 233.506 52.6585 234.425 50.5412L235.51 48.0491L235.818 47.3785C235.854 47.301 235.896 47.2268 235.944 47.1567Z" fill="#E0E0E0"/>
<path d="M224.273 68.1129C224.226 68.1129 224.732 65.7791 225.405 62.9279C226.079 60.0767 226.669 57.7746 226.715 57.7852C226.762 57.7958 226.256 60.119 225.583 62.9702C224.909 65.8214 224.32 68.1446 224.273 68.1129Z" fill="#E0E0E0"/>
<path d="M232.499 54.6794C232.499 54.6319 234.645 55.6034 237.239 56.8442C239.833 58.085 241.937 59.1304 241.906 59.1727C241.874 59.2149 239.76 58.2487 237.166 57.0079C234.572 55.7671 232.478 54.7216 232.499 54.6794Z" fill="#E0E0E0"/>
<path d="M151.57 98.7126L149.535 108.774L164.294 111.828L166.329 101.766L151.57 98.7126Z" fill="#F5F5F5"/>
<path d="M166.34 101.905L166.178 102.01L165.693 102.285L163.908 103.283L157.946 106.562L157.894 106.588L157.858 106.546L157.774 106.44C156.062 104.328 154.512 102.464 153.384 101.081L152.064 99.4494L151.709 99.0006C151.663 98.9514 151.625 98.8964 151.594 98.8369C151.644 98.8817 151.689 98.9312 151.729 98.9848L152.105 99.4177L153.457 101.002C154.595 102.38 156.156 104.259 157.879 106.334L157.967 106.44H157.879L163.861 103.198L165.677 102.232L166.173 101.973C166.226 101.944 166.282 101.921 166.34 101.905Z" fill="#E0E0E0"/>
<path d="M149.548 108.9C149.548 108.869 150.916 107.723 152.649 106.334C154.382 104.946 155.812 103.842 155.838 103.874C155.864 103.905 154.47 105.051 152.737 106.44C151.004 107.828 149.574 108.932 149.548 108.9Z" fill="#E0E0E0"/>
<path d="M160.776 104.76C160.807 104.76 161.627 106.344 162.603 108.324C163.579 110.304 164.347 111.936 164.315 111.952C164.284 111.967 163.459 110.368 162.483 108.388C161.507 106.408 160.734 104.781 160.776 104.76Z" fill="#E0E0E0"/>
<path d="M186.85 87.8341L210.475 85.0938L212.866 101.277L188.358 103.711L186.85 87.8341Z" fill="#EBEBEB"/>
<path d="M186.876 87.8379L197.097 77.4574C197.307 77.2451 197.583 77.1124 197.879 77.0816C198.174 77.0508 198.471 77.1239 198.72 77.2885L210.502 85.0923" fill="#E0E0E0"/>
<path d="M188.359 103.71C188.328 103.71 189.998 101.392 192.091 98.5833C194.184 95.7743 195.907 93.5197 195.938 93.5461C195.97 93.5725 194.299 95.8641 192.206 98.673C190.113 101.482 188.39 103.737 188.359 103.71Z" fill="#E0E0E0"/>
<path d="M212.866 101.282C212.835 101.309 210.778 99.4606 208.262 97.1532C205.746 94.8458 203.731 92.9292 203.757 92.9292C203.783 92.9292 205.845 94.7508 208.361 97.0582C210.877 99.3655 212.892 101.25 212.866 101.282Z" fill="#E0E0E0"/>
<path d="M188.139 88.5937L187.304 81.1278L207.985 78.6304L209.05 86.4659L199.607 95.8485L188.139 88.5937Z" fill="#FAFAFA"/>
<path d="M188.134 88.5938L188.359 88.7152L188.98 89.0901L191.313 90.5316L199.665 95.7535H199.524L208.952 86.3498L208.915 86.466C208.711 84.9717 208.492 83.4036 208.278 81.809C208.132 80.753 207.986 79.697 207.845 78.641L207.996 78.7572L187.309 81.2071L187.388 81.1068C187.628 83.4405 187.821 85.2991 187.957 86.5927C188.016 87.2192 188.063 87.7103 188.098 88.0658C188.098 88.2242 188.098 88.3509 188.129 88.4512C188.136 88.495 188.136 88.5395 188.129 88.5832C188.126 88.5428 188.126 88.5022 188.129 88.4618L188.077 88.0922C188.032 87.7402 187.969 87.2544 187.889 86.6349C187.737 85.336 187.513 83.4669 187.236 81.1279V81.0434H187.32L207.991 78.4932H208.127V78.6252C208.266 79.6812 208.41 80.7372 208.56 81.7932C208.779 83.3772 208.993 84.9612 209.197 86.4501V86.5188L209.145 86.5663L199.686 95.9383L199.623 95.9963L199.55 95.9488L191.198 90.616L188.907 89.1324L188.312 88.7416C188.249 88.6968 188.19 88.6474 188.134 88.5938Z" fill="#E0E0E0"/>
<path d="M205.109 82.7488C205.109 82.8227 201.977 83.2451 198.057 83.6939C194.137 84.1427 190.984 84.449 190.979 84.3698C190.973 84.2906 194.111 83.8734 198.031 83.4246C201.951 82.9758 205.104 82.6696 205.109 82.7488Z" fill="#E0E0E0"/>
<path d="M205.334 84.8549C205.334 84.9341 202.202 85.3565 198.281 85.8053C194.361 86.2541 191.208 86.555 191.203 86.4811C191.198 86.4072 194.335 85.9795 198.255 85.5307C202.176 85.0819 205.328 84.781 205.334 84.8549Z" fill="#E0E0E0"/>
<path d="M205.595 87.2903C205.595 87.3642 202.463 87.8182 198.543 88.2406C194.622 88.663 191.469 88.9904 191.459 88.9165C191.449 88.8426 194.591 88.3885 198.511 87.9661C202.431 87.5437 205.584 87.2163 205.595 87.2903Z" fill="#E0E0E0"/>
<path d="M205.851 89.7187C205.851 89.7979 202.849 90.2044 199.127 90.6321C195.405 91.0598 192.378 91.3449 192.341 91.271C192.305 91.1971 195.343 90.7853 199.07 90.3576C202.797 89.9299 205.845 89.6448 205.851 89.7187Z" fill="#E0E0E0"/>
<path d="M203.429 92.1409C203.046 92.2659 202.65 92.3456 202.249 92.3785C201.513 92.4894 200.495 92.6214 199.373 92.764C198.251 92.9065 197.222 93.0121 196.481 93.0755C196.082 93.1369 195.677 93.1494 195.275 93.1125C195.661 92.9916 196.058 92.9137 196.46 92.8801C197.196 92.7693 198.214 92.632 199.337 92.4894C200.459 92.3469 201.487 92.2465 202.223 92.1832C202.622 92.122 203.027 92.1078 203.429 92.1409Z" fill="#E0E0E0"/>
<path d="M200.97 94.5133C200.493 94.6976 199.988 94.7993 199.477 94.8142C198.973 94.9038 198.457 94.9038 197.953 94.8142C198.428 94.6223 198.934 94.5202 199.446 94.5133C199.95 94.4207 200.466 94.4207 200.97 94.5133Z" fill="#E0E0E0"/>
<path d="M188.118 213.344C188.664 210.414 188.435 207.391 187.454 204.58C186.473 201.769 184.775 199.269 182.533 197.335C182.533 197.335 181.238 196.855 181.348 198.322C181.416 199.199 180.581 200.434 179.891 199.906C178.686 198.967 179.067 197.061 178.55 195.614C177.939 193.924 176.159 193.021 174.531 192.298C171.524 190.967 168.47 189.658 165.239 189.082C162.008 188.507 158.557 188.644 155.613 190.112C156.33 191.566 157.044 193.021 157.753 194.479C157.816 194.67 157.915 194.847 158.045 194.999C158.176 195.151 158.334 195.276 158.512 195.366C158.69 195.457 158.884 195.51 159.082 195.525C159.281 195.539 159.48 195.514 159.669 195.45L163.584 195.16C164.153 195.118 164.884 195.16 165.051 195.735C165.218 196.311 164.498 196.823 163.892 197.039L159.789 198.528C161.152 200.527 163.029 202.11 165.218 203.106C167.405 204.093 169.676 204.876 172.004 205.445C172.72 205.72 173.499 205.78 174.249 205.619C175.444 205.229 176.269 203.719 177.516 203.903C177.445 204.598 177.237 205.271 176.907 205.883C176.576 206.496 176.129 207.036 175.59 207.473C180.429 209.395 183.801 211.744 188.118 213.349" fill="#FF6600"/>
<path d="M192.268 235.073C192.254 235.031 192.242 234.989 192.232 234.946C192.232 234.846 192.185 234.724 192.148 234.571C192.08 234.223 191.981 233.742 191.851 233.124C191.6 231.852 191.24 230.041 190.807 227.807C190.587 226.683 190.347 225.453 190.086 224.111C189.961 223.451 189.825 222.765 189.689 222.063L189.481 221.007C189.428 220.655 189.376 220.285 189.324 219.898C188.87 216.92 188.338 213.594 186.907 210.426C185.477 207.258 183.128 204.813 180.909 202.812C178.911 201.061 176.78 199.472 174.536 198.06C172.631 196.824 171.044 195.9 169.953 195.251L168.695 194.501L168.371 194.3L168.267 194.227C168.267 194.227 168.308 194.227 168.387 194.279L168.721 194.459L170 195.166C171.101 195.795 172.704 196.703 174.625 197.917C176.89 199.325 179.041 200.914 181.056 202.669C182.24 203.715 183.348 204.846 184.37 206.054C185.469 207.356 186.392 208.799 187.116 210.346C188.567 213.557 189.094 216.904 189.538 219.887L189.689 220.996L189.893 222.052C190.024 222.754 190.154 223.441 190.279 224.101C190.525 225.421 190.754 226.651 190.968 227.797L191.95 233.124C192.059 233.742 192.148 234.228 192.206 234.576L192.268 234.957C192.273 234.995 192.273 235.034 192.268 235.073Z" fill="#263238"/>
<path d="M199.858 180.229C198.814 181.813 195.854 181.036 195.682 179.173C195.51 177.309 198.25 175.957 199.586 177.293C200.054 171.753 199.494 166.173 197.937 160.84C197.628 161.934 197.108 162.955 196.407 163.845C195.65 164.679 194.434 165.202 193.385 164.8C191.965 164.272 191.548 162.292 192.137 160.877C192.727 159.462 194.006 158.486 195.228 157.577C194.249 155.72 192.904 154.084 191.276 152.772C189.649 151.46 187.773 150.499 185.764 149.948C184.198 152.524 182.595 155.159 181.885 158.1C181.175 161.041 181.499 164.404 183.451 166.712C184.276 167.694 185.367 168.459 186.009 169.574C186.651 170.688 186.604 172.388 185.487 172.99C184.161 173.692 182.663 172.367 181.911 171.052C181.16 169.737 180.392 168.132 178.91 167.884C178.53 173.132 179.564 178.385 181.904 183.085C184.244 187.784 187.8 191.753 192.195 194.569L192.043 194.426C195.541 190.256 198.196 185.432 199.858 180.229ZM193.072 168.655C193.862 167.926 194.804 167.384 195.828 167.071C196.033 166.992 196.257 166.98 196.468 167.037C196.68 167.094 196.869 167.216 197.008 167.388C197.144 167.561 197.241 167.762 197.293 167.977C197.346 168.192 197.351 168.416 197.31 168.634C197.227 169.071 197.049 169.484 196.788 169.843C196.402 170.449 195.861 170.938 195.222 171.258C194.896 171.412 194.539 171.492 194.178 171.492C193.818 171.492 193.461 171.412 193.134 171.258C192.907 171.15 192.71 170.985 192.565 170.777C192.419 170.57 192.33 170.328 192.304 170.075C192.324 169.798 192.402 169.529 192.531 169.284C192.661 169.039 192.839 168.825 193.056 168.655H193.072Z" fill="#FF6600"/>
<path d="M194.22 235.072C194.214 235.017 194.214 234.962 194.22 234.908C194.22 234.787 194.22 234.623 194.22 234.422C194.22 233.984 194.178 233.366 194.152 232.564C194.085 230.937 193.996 228.609 193.881 225.737C193.63 219.971 193.228 212.009 192.586 203.223C191.944 194.437 191.203 186.501 190.582 180.767C190.279 177.895 190.002 175.577 189.809 173.977C189.721 173.185 189.647 172.567 189.601 172.129C189.601 171.928 189.564 171.77 189.548 171.648C189.54 171.594 189.54 171.539 189.548 171.485L189.58 171.643C189.58 171.764 189.621 171.923 189.647 172.123C189.71 172.556 189.794 173.18 189.903 173.961C190.122 175.545 190.425 177.879 190.749 180.746C191.417 186.48 192.195 194.421 192.837 203.207C193.479 211.993 193.85 219.96 194.064 225.731C194.168 228.614 194.225 230.948 194.257 232.564C194.257 233.361 194.257 233.984 194.257 234.422V234.903C194.249 234.96 194.237 235.016 194.22 235.072Z" fill="#263238"/>
<path d="M177.506 225.362L181.671 243.235H203.512L208.126 225.362H177.506Z" fill="#455A64"/>
<path d="M184.376 239.48C184.376 239.818 186.062 250.067 186.062 250.067H199.347L200.809 239.48H184.376Z" fill="#455A64"/>
<path d="M202.906 243.155C202.906 243.218 198.14 243.271 192.263 243.271C186.385 243.271 181.619 243.218 181.619 243.155C181.619 243.092 186.385 243.034 192.263 243.034C198.14 243.034 202.906 243.087 202.906 243.155Z" fill="#263238"/>
<path d="M205.177 235.948C205.177 236.011 199.56 236.063 192.649 236.063C185.738 236.063 180.121 236.011 180.121 235.948C180.121 235.885 185.743 235.832 192.649 235.832C199.555 235.832 205.177 235.885 205.177 235.948Z" fill="#263238"/>
<path d="M204.195 238.435C204.195 238.503 198.902 238.556 192.383 238.556C185.863 238.556 180.564 238.503 180.564 238.435C180.564 238.366 185.858 238.319 192.383 238.319C198.908 238.319 204.195 238.371 204.195 238.435Z" fill="#263238"/>
<path d="M204.101 240.927C204.101 240.99 199.001 241.043 192.711 241.043C186.421 241.043 181.321 240.99 181.321 240.927C181.321 240.864 186.421 240.811 192.711 240.811C199.001 240.811 204.101 240.864 204.101 240.927Z" fill="#263238"/>
<path d="M205.813 233.529C205.813 233.592 199.941 233.645 192.696 233.645C185.45 233.645 179.583 233.592 179.583 233.529C179.583 233.466 185.45 233.414 192.696 233.414C199.941 233.414 205.813 233.466 205.813 233.529Z" fill="#263238"/>
<path d="M206.232 231.538C206.232 231.602 200.25 231.654 192.874 231.654C185.498 231.654 179.511 231.602 179.511 231.538C179.511 231.475 185.493 231.417 192.874 231.417C200.255 231.417 206.232 231.47 206.232 231.538Z" fill="#263238"/>
<path d="M126.481 227.463L125.066 246.439L116.907 246.27L115.79 226.523L126.481 227.463Z" fill="#FFBE9D"/>
<path d="M125.322 243.935V244.463C125.322 244.463 134.488 248.291 134.572 250.055L116.302 249.791L116.641 243.645C117.983 244.321 119.452 244.697 120.95 244.747C122.448 244.797 123.939 244.52 125.322 243.935Z" fill="#FF6600"/>
<path d="M128.198 247.405C128.13 247.405 128.026 247.02 128.235 246.587C128.444 246.154 128.814 245.99 128.846 246.059C128.877 246.128 128.647 246.355 128.48 246.714C128.313 247.073 128.277 247.4 128.198 247.405Z" fill="#263238"/>
<path d="M118.458 245.663C118.283 245.717 118.135 245.834 118.039 245.991C117.943 246.149 117.906 246.336 117.936 246.518C117.984 246.696 118.096 246.849 118.251 246.947C118.406 247.045 118.592 247.08 118.771 247.046C118.957 246.989 119.116 246.866 119.218 246.698C119.32 246.531 119.358 246.331 119.324 246.138C119.26 245.954 119.128 245.803 118.955 245.716C118.783 245.629 118.584 245.614 118.4 245.673" fill="white"/>
<path d="M125.379 244.543C125.379 244.632 124.93 244.669 124.487 244.954C124.043 245.24 123.803 245.609 123.725 245.572C123.646 245.535 123.782 245.018 124.325 244.685C124.868 244.353 125.4 244.463 125.379 244.543Z" fill="#263238"/>
<path d="M127.285 245.372C127.285 245.462 126.919 245.609 126.611 245.984C126.303 246.359 126.209 246.766 126.121 246.76C126.032 246.755 125.98 246.232 126.371 245.784C126.763 245.335 127.285 245.287 127.285 245.372Z" fill="#263238"/>
<path d="M116.302 249.828L116.38 248.429L134.003 249.216C134.287 249.438 134.484 249.753 134.561 250.108L116.302 249.828Z" fill="#263238"/>
<path d="M169.248 62.5735C169.248 62.5735 172.667 59.1573 173.575 58.5818C174.484 58.0063 175.601 56.7127 176.305 56.417C177.113 55.994 177.893 55.5177 178.639 54.9914L180.027 53.2543C180.027 53.2543 181.071 53.1434 180.842 54.3103L183.426 53.7823C183.426 53.7823 184.12 54.3895 183.018 55.1076C182.483 55.5226 181.81 55.7118 181.139 55.6356L180.053 56.8605L180.241 57.5047L186.505 58.3337C186.475 58.6222 186.34 58.8892 186.127 59.0839C185.915 59.2786 185.639 59.3874 185.352 59.3897C184.308 59.3897 180.528 59.226 180.528 59.226L186.354 61.4489C186.354 61.4489 186.662 62.3517 184.84 62.0877C183.243 61.7915 181.664 61.4019 180.111 60.9209L179.589 61.3855L181.181 62.3253L182.669 64.2684C182.351 64.4123 181.996 64.4484 181.656 64.3713C181.317 64.2943 181.011 64.1081 180.784 63.8407L179.824 62.8903H178.43C178.43 62.8903 174.64 65.5673 173.372 64.9442L172.297 66.0372L169.248 62.5735Z" fill="#FFBE9D"/>
<path d="M180.351 57.9321C180.382 57.9321 180.492 58.1697 180.565 58.5921C180.657 59.1556 180.614 59.7333 180.44 60.2764C180.262 60.8278 179.91 61.3047 179.437 61.6334C179.088 61.8868 178.832 61.966 178.816 61.9344C178.801 61.9027 179.015 61.7601 179.338 61.4803C179.737 61.1388 180.035 60.6931 180.2 60.192C180.565 58.9934 180.252 57.9427 180.351 57.9321Z" fill="#EB996E"/>
<path d="M175.016 62.452C175.581 62.3833 176.12 62.1707 176.582 61.8342C177.083 61.446 177.493 60.95 177.782 60.3822C178.144 59.6478 178.43 58.8783 178.638 58.0854V58.0537L178.67 58.022C179.417 57.3682 180.006 56.55 180.392 55.6302C180.581 55.1644 180.705 54.6737 180.758 54.1729C180.778 53.9599 180.714 53.7474 180.58 53.5816C180.438 53.4508 180.251 53.3808 180.058 53.3862L180.152 53.3281C179.34 54.59 178.298 55.6847 177.083 56.5542C176.735 56.8021 176.368 57.0228 175.987 57.2142C175.852 57.2913 175.708 57.3499 175.559 57.3884C175.559 57.3515 176.127 57.0822 176.989 56.4222C178.152 55.5268 179.15 54.4312 179.938 53.1856L179.975 53.1275H180.037C180.173 53.1167 180.31 53.1352 180.439 53.1816C180.567 53.228 180.685 53.3013 180.784 53.3968C180.877 53.5037 180.947 53.6285 180.991 53.7637C181.035 53.8989 181.051 54.0417 181.039 54.1835C180.99 54.7173 180.862 55.2406 180.658 55.7358C180.253 56.6985 179.631 57.552 178.842 58.228L178.889 58.1646C178.666 58.9693 178.36 59.748 177.975 60.4878C177.664 61.0777 177.218 61.5844 176.676 61.9662C176.324 62.2194 175.918 62.3841 175.491 62.4467C175.335 62.4837 175.172 62.4855 175.016 62.452Z" fill="#EB996E"/>
<path d="M122.952 87.8917L147.878 77.2103L169.389 61.4653L173.743 66.1434C173.743 66.1434 158.667 82.0256 154.742 85.2676C150.817 88.5095 129.608 102.164 129.608 102.164L122.952 87.8917Z" fill="#FF6600"/>
<path d="M137.286 91.1175C136.649 90.9693 135.983 91.0208 135.376 91.2654C135.177 91.3657 134.974 91.5874 135.083 91.7934C135.151 91.9148 135.313 91.9465 135.449 91.9729C137.923 92.3583 140.147 93.1081 142.616 93.4988L143.034 93.3193C141.253 92.2658 139.31 91.5216 137.286 91.1175Z" fill="#FAFAFA"/>
<path d="M141.759 89.5914C142.164 90.8338 142.688 92.0329 143.325 93.1713L143.571 93.0287C143.621 91.7626 143.547 90.4945 143.351 89.2429C143.204 88.0286 142.694 86.8885 141.89 85.9746C141.467 87.1354 141.421 88.4025 141.759 89.5914Z" fill="#FAFAFA"/>
<path d="M145.826 88.1769C145.304 89.65 144.808 91.065 144.26 92.5381L145.304 91.4557C146.276 90.2231 147.05 88.8441 147.601 87.369C147.666 87.201 147.696 87.0213 147.689 86.841C147.683 86.7484 147.653 86.6592 147.601 86.5822C147.55 86.5053 147.479 86.4434 147.397 86.4028C147.298 86.3771 147.195 86.3762 147.096 86.4001C146.997 86.424 146.905 86.4721 146.828 86.54C146.343 86.9748 145.994 87.5439 145.826 88.1769Z" fill="#FAFAFA"/>
<path d="M163.386 70.6364C163.966 70.6324 164.531 70.4481 165.004 70.1084C165.155 69.9817 165.286 69.7388 165.15 69.5804C165.101 69.5414 165.043 69.514 164.982 69.5003C164.92 69.4866 164.857 69.4869 164.795 69.5012C162.577 69.7019 160.499 69.5329 158.281 69.7335L157.957 69.9764C159.717 70.5048 161.552 70.728 163.386 70.6364Z" fill="#FAFAFA"/>
<path d="M159.81 72.9323C159.206 71.9442 158.506 71.0191 157.722 70.1709L157.539 70.3504C157.765 71.4542 158.097 72.533 158.531 73.5712C158.914 74.5905 159.597 75.466 160.488 76.0792C160.6 74.9839 160.362 73.8812 159.81 72.9323Z" fill="#FAFAFA"/>
<path d="M156.6 75.0343C156.741 73.6509 156.872 72.3204 157.013 70.937L156.36 72.088C155.783 73.3661 155.407 74.7269 155.243 76.122C155.221 76.2864 155.233 76.4537 155.28 76.613C155.304 76.693 155.349 76.7648 155.411 76.8207C155.472 76.8765 155.548 76.9142 155.629 76.9298C155.72 76.9303 155.809 76.9085 155.889 76.8661C155.969 76.8238 156.037 76.7623 156.089 76.6869C156.418 76.1996 156.596 75.6243 156.6 75.0343Z" fill="#FAFAFA"/>
<path d="M73.1631 198.686L54.2824 204.954L51.1504 196.833L69.7545 187.746L73.1631 198.686Z" fill="#FFBE9D"/>
<path d="M56.7988 204.199L56.2768 204.415C56.2768 204.415 56.2768 215.012 54.6168 215.804L47.502 197.662L53.5676 195.508C53.459 197.106 53.6913 198.709 54.2488 200.209C54.8063 201.708 55.6759 203.069 56.7988 204.199Z" fill="#FF6600"/>
<path d="M52.3619 198.117C52.2409 197.962 52.0671 197.857 51.8741 197.824C51.6811 197.791 51.4828 197.831 51.3179 197.938C51.1579 198.055 51.0494 198.231 51.0153 198.428C50.9812 198.625 51.0242 198.828 51.1352 198.994C51.2646 199.156 51.4486 199.264 51.6519 199.297C51.8552 199.33 52.0634 199.286 52.2366 199.173C52.3863 199.034 52.4774 198.842 52.491 198.636C52.5047 198.431 52.4397 198.228 52.3097 198.07" fill="white"/>
<path d="M47.502 197.662L48.9636 197.134L55.2276 214.711C55.2276 214.711 55.2275 215.662 54.6011 215.794L47.502 197.662Z" fill="#263238"/>
<path d="M56.2404 204.5C56.1516 204.531 55.9376 204.104 55.4835 203.782C55.0293 203.46 54.5752 203.375 54.5752 203.28C54.5752 203.185 55.1337 203.111 55.6766 203.512C56.2195 203.914 56.3291 204.484 56.2404 204.5Z" fill="#263238"/>
<path d="M56.2093 206.718C56.131 206.771 55.8334 206.449 55.3428 206.295C54.8521 206.142 54.4293 206.211 54.3979 206.121C54.3666 206.031 54.8416 205.778 55.4419 205.979C56.0422 206.179 56.2928 206.681 56.2093 206.718Z" fill="#263238"/>
<path d="M54.3816 208.703C54.3294 208.629 54.7209 208.328 55.2899 208.365C55.8589 208.402 56.2138 208.734 56.1512 208.803C56.0885 208.872 55.7388 208.718 55.269 208.692C54.7992 208.666 54.4234 208.787 54.3816 208.703Z" fill="#263238"/>
<path d="M124.032 155.233C124.032 155.233 110.189 183.745 106.472 185.936C102.755 188.127 59.9618 203.534 59.9618 203.534L56.668 193.249L95.3952 172.562C95.3952 172.562 100.453 158.612 102.338 148.015C103.491 141.521 106.138 137.714 109.943 132.656C111.107 131.109 113.075 128.896 114.083 128.215L131.481 131.547L124.032 155.233Z" fill="#263238"/>
<path d="M136.268 132.433L117.586 129.265L113.796 151.484L117.591 198.143C117.591 198.143 114.981 214.363 115.425 225.034C115.826 235.098 116.213 238.894 116.213 238.894C116.213 238.894 124.246 238.931 126.073 238.931C126.841 238.931 133.705 188.428 133.705 188.428L136.268 132.433Z" fill="#263238"/>
<path d="M127.712 144.619C127.678 144.731 127.636 144.84 127.587 144.946C127.488 145.184 127.357 145.475 127.19 145.876L125.713 149.271C124.47 152.17 122.774 156.135 120.905 160.507C119.036 164.879 117.136 168.791 115.685 171.563C114.96 172.946 114.359 174.06 113.921 174.821L113.399 175.692C113.346 175.797 113.283 175.896 113.211 175.988C113.246 175.875 113.293 175.767 113.352 175.666C113.472 175.439 113.623 175.138 113.811 174.768L115.492 171.473C116.891 168.68 118.734 164.773 120.629 160.385C122.523 155.998 124.236 152.064 125.535 149.192C126.183 147.766 126.715 146.615 127.101 145.828L127.545 144.925C127.588 144.817 127.644 144.714 127.712 144.619Z" fill="#455A64"/>
<path d="M58.7149 195.36C58.7462 195.429 58.5061 195.608 58.1929 195.766C57.8797 195.925 57.5821 195.999 57.5456 195.93C57.5091 195.862 57.7544 195.677 58.0676 195.518C58.3808 195.36 58.6783 195.302 58.7149 195.36Z" fill="#455A64"/>
<path d="M63.386 193.085C63.4225 193.154 62.9214 193.465 62.2794 193.782C61.9051 194.015 61.4876 194.168 61.0527 194.231C61.0161 194.162 61.5172 193.851 62.1593 193.534C62.5336 193.301 62.9511 193.148 63.386 193.085Z" fill="#455A64"/>
<path d="M68.0579 190.783C68.0944 190.852 67.5933 191.163 66.9512 191.485C66.5765 191.718 66.1594 191.873 65.7245 191.939C65.688 191.871 66.1891 191.554 66.8312 191.237C67.2059 191.004 67.623 190.85 68.0579 190.783Z" fill="#455A64"/>
<path d="M72.7148 188.495C72.0255 189.039 71.2331 189.435 70.3867 189.657C71.0711 189.105 71.8652 188.709 72.7148 188.495Z" fill="#455A64"/>
<path d="M77.36 186.13C77.3965 186.199 76.9006 186.516 76.2585 186.843C75.8868 187.079 75.471 187.236 75.0371 187.303C75.0005 187.234 75.4964 186.917 76.1385 186.595C76.5107 186.359 76.9261 186.201 77.36 186.13Z" fill="#455A64"/>
<path d="M82.0013 183.771C82.0378 183.839 81.5419 184.156 80.9051 184.483C80.5342 184.723 80.1184 184.883 79.6836 184.953C79.9982 184.644 80.371 184.402 80.7798 184.24C81.1511 184.001 81.5667 183.841 82.0013 183.771Z" fill="#455A64"/>
<path d="M86.6523 181.369C85.9737 181.931 85.1859 182.343 84.3398 182.578C84.6503 182.262 85.0217 182.014 85.4308 181.849C85.8025 181.609 86.2177 181.445 86.6523 181.369Z" fill="#455A64"/>
<path d="M91.2141 178.913C91.2506 178.982 90.7652 179.309 90.1336 179.653C89.7701 179.901 89.3594 180.07 88.9277 180.149C89.2357 179.832 89.603 179.581 90.0083 179.41C90.3718 179.161 90.7824 178.992 91.2141 178.913Z" fill="#455A64"/>
<path d="M95.7403 176.352C95.7769 176.416 95.3071 176.764 94.6964 177.128C94.3389 177.387 93.9317 177.567 93.501 177.656C93.7954 177.331 94.1501 177.067 94.545 176.88C94.9016 176.62 95.3092 176.44 95.7403 176.352Z" fill="#455A64"/>
<path d="M98.5643 172.424C98.6122 172.862 98.5821 173.306 98.4755 173.733C98.4497 173.896 98.4323 174.06 98.4234 174.224C98.4211 174.259 98.4211 174.295 98.4234 174.33C98.4275 174.388 98.4129 174.445 98.3816 174.494C98.3426 174.558 98.2951 174.616 98.2406 174.668C98.0527 174.837 97.917 174.89 97.8909 174.863C97.8648 174.837 97.964 174.721 98.0945 174.536C98.1291 174.493 98.1573 174.445 98.178 174.393C98.1808 174.379 98.1808 174.365 98.178 174.351C98.1715 174.311 98.1715 174.27 98.178 174.23C98.1625 174.054 98.1625 173.877 98.178 173.702C98.2072 173.251 98.3394 172.814 98.5643 172.424Z" fill="#455A64"/>
<path d="M99.7696 167.313C99.7971 167.758 99.735 168.203 99.5869 168.623C99.5232 169.063 99.3704 169.485 99.138 169.863C99.1109 169.419 99.1731 168.974 99.3207 168.554C99.3871 168.114 99.5397 167.692 99.7696 167.313Z" fill="#455A64"/>
<path d="M101.101 162.238C101.05 163.121 100.821 163.983 100.427 164.772C100.404 164.328 100.473 163.884 100.631 163.468C100.703 163.03 100.863 162.611 101.101 162.238Z" fill="#455A64"/>
<path d="M102.495 157.176C102.441 158.06 102.2 158.922 101.79 159.705C101.774 159.261 101.849 158.819 102.009 158.406C102.087 157.967 102.252 157.548 102.495 157.176Z" fill="#455A64"/>
<path d="M103.936 152.128C103.947 152.573 103.867 153.015 103.701 153.427C103.621 153.865 103.454 154.281 103.21 154.652C103.271 153.768 103.518 152.907 103.936 152.128Z" fill="#455A64"/>
<path d="M105.444 147.095C105.365 147.977 105.106 148.833 104.682 149.608C104.677 149.163 104.762 148.72 104.932 148.309C105.018 147.873 105.192 147.46 105.444 147.095Z" fill="#455A64"/>
<path d="M107.177 142.149C107.107 142.584 106.98 143.008 106.801 143.411C106.695 143.84 106.501 144.243 106.232 144.593C106.253 144.147 106.361 143.709 106.551 143.305C106.648 142.868 106.865 142.467 107.177 142.149Z" fill="#455A64"/>
<path d="M109.975 137.723C109.852 138.151 109.642 138.549 109.359 138.89C108.957 139.487 108.576 139.946 108.514 139.899C108.639 139.471 108.85 139.073 109.135 138.732C109.537 138.135 109.918 137.681 109.975 137.723Z" fill="#455A64"/>
<path d="M113.033 133.478C113.096 133.525 112.799 134.006 112.37 134.613C111.942 135.22 111.551 135.632 111.488 135.59C111.63 135.168 111.856 134.78 112.151 134.449C112.579 133.869 112.976 133.43 113.033 133.478Z" fill="#455A64"/>
<path d="M115.409 130.336C115.467 130.384 115.336 130.653 115.117 130.944C114.898 131.234 114.673 131.424 114.595 131.382C114.517 131.34 114.668 131.065 114.887 130.775C115.107 130.484 115.362 130.289 115.409 130.336Z" fill="#455A64"/>
<path d="M117.617 169.398C117.544 169.398 117.461 169.118 117.435 168.754C117.408 168.389 117.435 168.088 117.518 168.083C117.602 168.078 117.675 168.368 117.701 168.733C117.727 169.097 117.696 169.393 117.617 169.398Z" fill="#455A64"/>
<path d="M118.024 174.853C117.861 174.422 117.781 173.963 117.789 173.501C117.708 173.046 117.72 172.578 117.826 172.128C117.989 172.559 118.069 173.018 118.06 173.48C118.138 173.935 118.126 174.402 118.024 174.853Z" fill="#455A64"/>
<path d="M118.385 180.312C118.221 179.879 118.144 179.418 118.16 178.955C118.089 178.498 118.106 178.032 118.212 177.582C118.372 178.016 118.446 178.477 118.432 178.939C118.503 179.396 118.487 179.862 118.385 180.312Z" fill="#455A64"/>
<path d="M118.645 185.766C118.491 185.331 118.425 184.87 118.452 184.409C118.384 183.951 118.41 183.483 118.53 183.036C118.749 183.929 118.788 184.857 118.645 185.766Z" fill="#455A64"/>
<path d="M118.77 191.23C118.631 190.789 118.578 190.325 118.614 189.863C118.562 189.404 118.601 188.939 118.729 188.495C118.924 189.395 118.938 190.325 118.77 191.23Z" fill="#455A64"/>
<path d="M118.734 196.696C118.609 196.25 118.57 195.784 118.619 195.323C118.58 194.863 118.633 194.399 118.776 193.961C118.901 194.405 118.94 194.869 118.89 195.328C118.93 195.79 118.876 196.255 118.734 196.696Z" fill="#455A64"/>
<path d="M118.52 202.16C118.407 201.712 118.384 201.245 118.452 200.787C118.429 200.325 118.496 199.862 118.65 199.425C118.764 199.874 118.788 200.34 118.723 200.798C118.743 201.261 118.674 201.724 118.52 202.16Z" fill="#455A64"/>
<path d="M118.139 207.614C118.028 206.7 118.098 205.772 118.343 204.885C118.447 205.335 118.46 205.802 118.379 206.257C118.387 206.721 118.305 207.182 118.139 207.614Z" fill="#455A64"/>
<path d="M117.685 213.058C117.593 212.605 117.593 212.138 117.685 211.685C117.68 211.224 117.765 210.767 117.935 210.339C118.023 210.792 118.023 211.258 117.935 211.712C117.94 212.173 117.855 212.63 117.685 213.058Z" fill="#455A64"/>
<path d="M117.256 218.513C117.158 218.062 117.147 217.595 117.225 217.14C117.214 216.676 117.294 216.215 117.46 215.783C117.558 216.236 117.571 216.703 117.497 217.161C117.507 217.623 117.425 218.083 117.256 218.513Z" fill="#455A64"/>
<path d="M116.965 223.972C116.855 223.523 116.83 223.058 116.892 222.599C116.87 222.138 116.938 221.678 117.09 221.242C117.203 221.689 117.228 222.154 117.163 222.61C117.189 223.073 117.122 223.536 116.965 223.972Z" fill="#455A64"/>
<path d="M116.928 229.442C116.789 229.001 116.741 228.535 116.787 228.074C116.74 227.613 116.783 227.147 116.912 226.702C117.05 227.143 117.099 227.608 117.058 228.069C117.1 228.531 117.056 228.997 116.928 229.442Z" fill="#455A64"/>
<path d="M117.215 234.897C117.049 234.466 116.969 234.007 116.98 233.545C116.898 233.09 116.911 232.623 117.016 232.172C117.262 233.058 117.33 233.984 117.215 234.897Z" fill="#455A64"/>
<path d="M117.727 238.93C117.654 238.93 117.549 238.661 117.497 238.297C117.445 237.933 117.455 237.637 117.534 237.626C117.612 237.616 117.711 237.901 117.763 238.26C117.816 238.619 117.8 238.92 117.727 238.93Z" fill="#455A64"/>
<path d="M123.427 132.528C123.358 132.716 123.263 132.894 123.145 133.056C122.86 133.522 122.55 133.971 122.216 134.402C121.131 135.862 119.738 137.06 118.139 137.908C116.51 138.74 114.649 138.988 112.862 138.61C112.327 138.491 111.812 138.296 111.332 138.03C111.153 137.943 110.987 137.829 110.842 137.692C111.5 138.012 112.191 138.257 112.904 138.42C114.645 138.731 116.44 138.465 118.019 137.66C119.582 136.825 120.958 135.675 122.065 134.281C122.937 133.235 123.391 132.528 123.427 132.528Z" fill="#455A64"/>
<path d="M132.75 132.866C132.733 133.377 132.656 133.883 132.52 134.376C132.247 135.579 131.873 136.758 131.403 137.898C130.932 139.038 130.364 140.135 129.707 141.176C129.454 141.621 129.151 142.034 128.804 142.407C129.02 141.947 129.265 141.503 129.54 141.076C130.755 138.958 131.693 136.69 132.332 134.328C132.441 133.832 132.58 133.344 132.75 132.866Z" fill="#455A64"/>
<path d="M130.499 133.309C130.499 133.351 130.249 133.372 130.077 133.684C130.033 133.764 130.005 133.852 129.996 133.943C129.987 134.033 129.997 134.125 130.024 134.212C130.074 134.308 130.15 134.389 130.242 134.445C130.334 134.501 130.439 134.531 130.546 134.531C130.654 134.531 130.759 134.501 130.851 134.445C130.943 134.389 131.018 134.308 131.068 134.212C131.095 134.125 131.103 134.033 131.093 133.942C131.083 133.851 131.055 133.764 131.011 133.684C130.839 133.378 130.578 133.357 130.588 133.314C130.599 133.272 130.651 133.277 130.766 133.314C130.929 133.357 131.073 133.456 131.173 133.594C131.25 133.699 131.302 133.82 131.326 133.948C131.349 134.076 131.343 134.208 131.309 134.333C131.245 134.486 131.139 134.615 131.003 134.707C130.867 134.798 130.707 134.847 130.544 134.847C130.381 134.847 130.221 134.798 130.085 134.707C129.949 134.615 129.843 134.486 129.779 134.333C129.743 134.208 129.736 134.076 129.76 133.948C129.784 133.819 129.837 133.698 129.915 133.594C130.011 133.454 130.154 133.353 130.317 133.309C130.452 133.272 130.499 133.293 130.499 133.309Z" fill="#455A64"/>
<path d="M104.651 64.5209C102.952 63.6749 100.991 63.5438 99.1972 64.1563C97.4031 64.7688 95.9219 66.075 95.0774 67.7892C94.2474 69.4841 94.0334 71.5327 92.7962 72.9372C91.6739 74.1885 89.9566 74.6479 88.3749 75.1917C86.7933 75.7356 85.1124 76.5698 84.4912 78.1433C83.9692 79.4844 84.319 81.1317 83.5099 82.3197C82.7008 83.5077 81.0199 83.7348 79.5688 83.8298C79.6486 84.1588 79.8306 84.4532 80.088 84.6699C80.3454 84.8866 80.6647 85.0141 80.9991 85.0337C79.9377 85.6533 78.7104 85.9194 77.4912 85.794C77.8775 87.5786 79.4331 88.925 81.1452 89.49C82.8574 90.0549 84.7053 90.0497 86.5061 89.9335C88.5472 89.8068 90.7291 89.5164 92.2481 88.1383C94.0804 86.4804 94.6598 83.4813 96.9096 82.4676C98.058 81.9396 99.4204 82.0874 100.564 81.5489C102.13 80.8097 102.913 78.9617 103.085 77.214C103.257 75.4663 102.975 73.7028 103.085 71.934C103.194 70.1652 103.884 68.3172 105.392 67.4513L104.651 64.5209Z" fill="#263238"/>
<path d="M105.047 64.0039C105.198 63.666 104.812 63.2805 104.442 63.2964C104.074 63.3605 103.744 63.5622 103.518 63.8613C102.585 64.8317 101.981 66.0755 101.79 67.4148C101.701 68.0847 101.765 68.7664 101.978 69.4072C102.191 70.048 102.546 70.6308 103.017 71.1108C103.217 71.3405 103.497 71.4841 103.8 71.512C103.957 71.5016 104.11 71.4517 104.244 71.3669C104.378 71.2822 104.489 71.1651 104.567 71.0263C104.721 70.748 104.823 70.4439 104.87 70.1287C105.277 68.0917 105.428 66.0106 105.319 63.9352L105.047 64.0039Z" fill="#FF6600"/>
<path d="M103.46 71.0741C103.46 67.2989 104.06 63.2914 106.467 60.4138C108.612 57.853 112.24 56.1898 115.518 55.6618C117.252 55.4799 119.005 55.6891 120.649 56.2743C122.784 56.9712 124.042 59.0199 125.379 60.8467C128.051 64.5005 128.928 70.0181 127.989 71.7975L113.117 84.1843C109.844 83.2445 106.195 81.7978 104.765 78.6826C103.763 76.56 103.47 73.392 103.46 71.0741Z" fill="#263238"/>
<path d="M108.451 63.687L118.316 58.3594C121.595 57.1556 124.862 60.7935 125.912 64.1674C127.081 67.9057 128.36 72.5204 128.61 75.4719C129.132 81.3961 124.956 83.2018 124.956 83.2018L126.971 89.8969L129.284 97.3417L114.308 88.3657L107.161 66.1633C107.031 65.6622 107.091 65.1298 107.329 64.6713C107.568 64.2128 107.968 63.8615 108.451 63.687Z" fill="#FFBE9D"/>
<path d="M125.755 68.0321C125.804 68.2232 125.777 68.4264 125.68 68.5974C125.582 68.7685 125.421 68.8936 125.233 68.9456C125.143 68.9765 125.047 68.9887 124.953 68.9813C124.858 68.974 124.765 68.9474 124.681 68.903C124.597 68.8586 124.522 68.7973 124.462 68.723C124.401 68.6486 124.356 68.5627 124.33 68.4703C124.282 68.2793 124.309 68.0768 124.407 67.9061C124.504 67.7354 124.664 67.6101 124.852 67.5569C124.942 67.5267 125.037 67.5151 125.132 67.5228C125.226 67.5305 125.318 67.5573 125.403 67.6016C125.487 67.6459 125.561 67.7068 125.622 67.7807C125.682 67.8547 125.728 67.9402 125.755 68.0321Z" fill="#263238"/>
<path d="M125.384 66.1796C125.332 66.3063 124.658 66.1109 123.907 66.396C123.155 66.6812 122.743 67.2672 122.628 67.2039C122.513 67.1405 122.628 66.9768 122.774 66.7076C123.018 66.3597 123.36 66.0947 123.755 65.9472C124.146 65.7978 124.575 65.7793 124.977 65.8944C125.28 66 125.41 66.1268 125.384 66.1796Z" fill="#263238"/>
<path d="M118.656 70.129C118.704 70.32 118.676 70.5225 118.578 70.6932C118.481 70.8639 118.321 70.9892 118.134 71.0424C118.043 71.0727 117.948 71.0843 117.853 71.0767C117.758 71.0691 117.665 71.0424 117.581 70.9981C117.496 70.9538 117.421 70.8929 117.36 70.8189C117.299 70.7449 117.253 70.6594 117.225 70.5672C117.177 70.3762 117.205 70.1737 117.302 70.003C117.4 69.8323 117.56 69.707 117.747 69.6538C117.838 69.6243 117.933 69.6132 118.028 69.6211C118.123 69.6291 118.215 69.6559 118.299 69.7001C118.384 69.7443 118.459 69.8049 118.52 69.8785C118.581 69.9521 118.627 70.0373 118.656 70.129Z" fill="#263238"/>
<path d="M117.935 68.4922C117.873 68.6084 117.22 68.3391 116.448 68.5345C115.675 68.7298 115.195 69.2684 115.085 69.1892C114.976 69.11 115.085 68.9621 115.289 68.7193C115.563 68.4006 115.927 68.1756 116.333 68.0751C116.737 67.9705 117.163 68.0001 117.549 68.1596C117.847 68.2863 117.972 68.4394 117.935 68.4922Z" fill="#263238"/>
<path d="M122.148 74.0202C122.527 73.795 122.932 73.6176 123.354 73.4922C123.552 73.4183 123.73 73.3338 123.73 73.186C123.696 72.9742 123.598 72.7784 123.448 72.6263C123.145 72.1828 122.822 71.7234 122.488 71.2429C121.141 69.2682 120.112 67.6208 120.191 67.5469C120.269 67.473 121.428 69.0517 122.775 71.0265L123.714 72.4204C123.898 72.633 124.003 72.9036 124.012 73.186C123.999 73.2638 123.97 73.3379 123.926 73.4027C123.882 73.4676 123.824 73.5216 123.756 73.5609C123.654 73.6183 123.545 73.6627 123.432 73.6929C123.02 73.8567 122.588 73.9667 122.148 74.0202Z" fill="#263238"/>
<path d="M124.967 83.1963C122.325 83.9009 119.543 83.8515 116.928 83.0537C116.928 83.0537 119.882 86.5332 125.395 84.5849L124.967 83.1963Z" fill="#EB996E"/>
<path d="M119.94 76.132C120.009 75.9286 120.128 75.7459 120.285 75.6002C120.441 75.4546 120.631 75.3507 120.838 75.2978C121.122 75.2053 121.426 75.1913 121.718 75.2572C122.01 75.3231 122.279 75.4665 122.498 75.6727C122.666 75.8722 122.756 76.1282 122.748 76.3907C122.722 76.5333 122.748 76.4594 122.675 76.5703C122.434 76.9869 122.095 77.337 121.688 77.5893C121.466 77.7088 121.213 77.7577 120.962 77.7294C120.712 77.7012 120.475 77.5971 120.284 77.4309C120.114 77.2675 119.992 77.0597 119.931 76.8305C119.87 76.6013 119.873 76.3596 119.94 76.132Z" fill="#EB996E"/>
<path d="M119.992 75.1397C120.117 75.0975 120.326 75.9528 121.197 76.3805C122.069 76.8082 122.946 76.4861 122.983 76.6023C123.019 76.7184 122.821 76.8187 122.461 76.9243C121.968 77.055 121.445 77.0064 120.983 76.7871C120.542 76.573 120.2 76.1946 120.028 75.7311C119.892 75.3826 119.934 75.1503 119.992 75.1397Z" fill="#263238"/>
<path d="M117.701 66.5281C117.701 66.7657 116.876 66.8555 115.988 67.1987C115.101 67.5419 114.422 67.9749 114.261 67.8112C114.182 67.732 114.261 67.4997 114.511 67.2198C114.841 66.8612 115.251 66.5878 115.707 66.4225C116.161 66.2507 116.649 66.1892 117.132 66.243C117.497 66.3116 117.711 66.4384 117.701 66.5281Z" fill="#263238"/>
<path d="M124.56 64.1835C124.466 64.3947 123.887 64.3419 123.239 64.495C122.592 64.6481 122.08 64.9121 121.908 64.759C121.83 64.6798 121.872 64.4791 122.07 64.231C122.336 63.9436 122.685 63.7479 123.067 63.6713C123.447 63.5803 123.845 63.6136 124.205 63.7663C124.482 63.9142 124.602 64.0779 124.56 64.1835Z" fill="#263238"/>
<path d="M110.346 72.7477C110.257 72.7477 106.958 72.489 107.736 75.6729C108.514 78.8567 111.515 77.3994 111.499 77.3097C111.484 77.2199 110.346 72.7477 110.346 72.7477Z" fill="#FFBE9D"/>
<path d="M110.251 76.3438C110.251 76.3438 110.204 76.3966 110.121 76.4653C110.005 76.5546 109.859 76.5944 109.714 76.5762C109.354 76.5392 108.941 76.0746 108.785 75.5202C108.709 75.2487 108.695 74.9637 108.743 74.6859C108.748 74.5792 108.778 74.4752 108.832 74.3832C108.886 74.2912 108.961 74.2138 109.051 74.1579C109.11 74.1261 109.177 74.1156 109.243 74.1281C109.308 74.1405 109.368 74.1753 109.411 74.2266C109.474 74.3058 109.468 74.3744 109.489 74.3744C109.51 74.3744 109.542 74.3058 109.489 74.1791C109.451 74.1069 109.391 74.0494 109.317 74.0154C109.266 73.993 109.211 73.9814 109.155 73.9814C109.1 73.9814 109.045 73.993 108.993 74.0154C108.87 74.0733 108.764 74.1627 108.685 74.2747C108.607 74.3867 108.558 74.5175 108.545 74.6542C108.47 74.9612 108.47 75.2819 108.545 75.5888C108.6 75.8753 108.738 76.1389 108.94 76.3473C109.142 76.5556 109.4 76.6994 109.682 76.761C109.773 76.7633 109.863 76.7455 109.946 76.709C110.029 76.6726 110.103 76.6182 110.163 76.5498C110.262 76.423 110.262 76.3491 110.251 76.3438Z" fill="#EB996E"/>
<path d="M109.459 77.6585C109.459 77.6585 109.354 77.8275 109.459 78.1073C109.481 78.1936 109.523 78.2738 109.58 78.3422C109.636 78.4106 109.707 78.4656 109.787 78.5033C109.891 78.5369 110.001 78.5449 110.108 78.5265C110.215 78.5081 110.317 78.464 110.403 78.3977C110.494 78.3425 110.57 78.2654 110.625 78.1733C110.68 78.0812 110.711 77.977 110.717 77.8697C110.711 77.6924 110.638 77.524 110.513 77.3998C110.299 77.1939 110.095 77.2203 110.101 77.2361C110.106 77.252 110.268 77.2837 110.429 77.479C110.517 77.5898 110.565 77.7277 110.565 77.8697C110.557 77.9532 110.53 78.0336 110.486 78.1043C110.441 78.175 110.381 78.2339 110.309 78.2763C110.244 78.3276 110.167 78.3633 110.086 78.3807C110.004 78.3981 109.92 78.3967 109.84 78.3766C109.714 78.3183 109.616 78.212 109.568 78.0809C109.515 77.945 109.479 77.8032 109.459 77.6585Z" fill="#FAFAFA"/>
<path d="M126.199 64.221C125.509 63.4363 124.598 62.8837 123.589 62.637C122.597 62.3466 121.558 62.2093 120.567 61.9084C118.265 61.2041 116.302 59.6615 115.06 57.5788C115.759 57.0047 116.579 56.6016 117.457 56.4011C118.336 56.2005 119.248 56.2078 120.123 56.4225C121.879 56.8715 123.429 57.9173 124.513 59.3845C125.59 60.8476 126.338 62.5306 126.705 64.3161" fill="#263238"/>
<path d="M107.558 62.7374C109.354 59.9338 113.462 57.6264 116.75 57.9379C116.938 60.731 115.654 64.2317 114.38 66.7186C113.107 69.2054 112.893 73.1074 108.743 72.8117C108.456 72.8117 108.221 73.1126 107.934 73.0282C107.706 72.9289 107.521 72.7511 107.412 72.5266C106.545 71.0386 106.1 69.338 106.126 67.6112C106.152 65.8845 106.647 64.1982 107.558 62.7374Z" fill="#263238"/>
<path d="M116.688 58.1494C116.701 58.3949 116.687 58.641 116.646 58.8833C116.594 59.3533 116.521 60.0291 116.406 60.8686C116.135 63.0602 115.665 65.2218 115.002 67.326C114.621 68.4837 114.133 69.6027 113.546 70.6683C113.134 71.5955 112.455 72.3756 111.599 72.907C111.295 73.0715 110.956 73.1576 110.612 73.1576C110.268 73.1576 109.929 73.0715 109.625 72.907C109.465 72.8157 109.324 72.6916 109.213 72.5427C109.14 72.4371 109.114 72.3737 109.124 72.3684C109.411 72.7098 109.81 72.9358 110.247 73.0056C110.685 73.0753 111.133 72.9841 111.51 72.7486C112.312 72.2115 112.943 71.4503 113.326 70.5574C113.893 69.4974 114.368 68.3898 114.746 67.2468C115.399 65.1553 115.891 63.0158 116.218 60.8475C116.344 60.0555 116.453 59.3955 116.542 58.8781C116.569 58.6313 116.618 58.3875 116.688 58.1494Z" fill="#263238"/>
<path d="M82.2467 80.9426C82.2067 80.8377 82.1821 80.7274 82.1736 80.6152C82.1403 80.2959 82.1579 79.9732 82.2258 79.6596C82.3364 79.1581 82.5517 78.6865 82.8574 78.2762C83.26 77.7246 83.8135 77.3042 84.4495 77.0671C85.2366 76.8318 86.0741 76.8318 86.8611 77.0671C87.7105 77.3384 88.6218 77.3384 89.4711 77.0671C90.3779 76.6583 91.116 75.9434 91.5591 75.0448C92.0453 74.0786 92.3581 73.0328 92.4831 71.956C92.6194 70.8606 92.8287 69.7758 93.1095 68.7088C93.406 67.7107 93.8997 66.7839 94.5606 65.9844C95.4933 64.8463 96.7331 64.0072 98.1289 63.5694C99.5248 63.1316 101.016 63.1139 102.422 63.5186C102.725 63.6073 103.021 63.7167 103.309 63.846C103.412 63.8885 103.51 63.9416 103.602 64.0044C103.602 64.0308 103.184 63.8196 102.391 63.6242C101.279 63.3425 100.12 63.3172 98.9976 63.5503C97.3291 63.8951 95.8298 64.8128 94.7538 66.148C94.1197 66.9252 93.6458 67.8228 93.36 68.788C93.0899 69.8456 92.8877 70.9196 92.7545 72.0036C92.6229 73.1089 92.2977 74.1816 91.794 75.1716C91.3188 76.1143 90.5346 76.8608 89.5755 77.2836C89.1165 77.4601 88.6242 77.5305 88.1348 77.4895C87.688 77.4465 87.2449 77.3706 86.8089 77.2624C86.0619 77.0225 85.262 77.0078 84.5069 77.2202C83.8993 77.4357 83.3663 77.8244 82.9722 78.3396C82.6704 78.7268 82.4501 79.1724 82.325 79.649C82.2252 80.0724 82.1987 80.5101 82.2467 80.9426Z" fill="#263238"/>
<path d="M104.28 63.2653C104.338 63.0931 104.419 62.9297 104.52 62.7795C104.78 62.3541 105.094 61.9653 105.455 61.6232C106.661 60.4986 108.155 59.7378 109.766 59.4267C111.363 59.1327 112.992 59.0704 114.605 59.2419C115.221 59.3 115.717 59.3581 116.062 59.4109C116.24 59.4207 116.416 59.4562 116.584 59.5165C115.916 59.5262 115.249 59.4998 114.585 59.4373C112.99 59.3244 111.387 59.4113 109.813 59.696C108.248 60.0009 106.789 60.7144 105.58 61.7657C105.106 62.2275 104.671 62.7292 104.28 63.2653Z" fill="#455A64"/>
<path d="M108.617 58.3181C109.003 58.1044 109.418 57.9513 109.849 57.864C110.872 57.595 111.924 57.4549 112.981 57.4469C113.565 57.438 114.149 57.4822 114.725 57.5789C115.217 57.6555 115.669 57.8973 116.009 58.2653C116.238 58.5163 116.369 58.8426 116.379 59.1841C116.379 59.4217 116.306 59.5431 116.296 59.5378C116.285 59.5325 116.296 59.4058 116.296 59.1893C116.247 58.8883 116.104 58.6109 115.889 58.3973C115.563 58.0824 115.146 57.8823 114.698 57.8271C114.137 57.746 113.569 57.7124 113.002 57.7268C111.966 57.7335 110.932 57.8432 109.917 58.0541C109.489 58.165 109.055 58.2531 108.617 58.3181Z" fill="#455A64"/>
<path d="M102.985 76.032C102.943 75.9661 102.913 75.8926 102.897 75.8155C102.821 75.6078 102.772 75.3914 102.75 75.1714C102.672 74.3488 102.827 73.5206 103.199 72.7848C103.736 71.6922 104.546 70.7603 105.548 70.0814C106.77 69.2878 108.033 68.5616 109.333 67.9061C111.628 66.6267 113.569 64.7838 114.976 62.5469C115.404 61.8732 115.781 61.1671 116.103 60.4349C116.208 60.1589 116.332 59.8907 116.474 59.6323C116.464 59.7084 116.445 59.783 116.416 59.8541C116.369 59.9966 116.312 60.2131 116.202 60.4771C115.917 61.2331 115.568 61.9627 115.158 62.6578C113.773 64.9608 111.815 66.856 109.479 68.1542C108.188 68.7933 106.93 69.4982 105.71 70.2662C104.732 70.9143 103.933 71.8027 103.387 72.8482C103.013 73.5507 102.833 74.3423 102.865 75.1397C102.897 75.7416 103.017 76.032 102.985 76.032Z" fill="#455A64"/>
<path d="M115.362 97.3377C115.32 97.3377 115.326 96.8097 115.18 95.9438C114.993 94.8299 114.615 93.7576 114.062 92.7758C113.566 91.7718 112.77 90.9515 111.787 90.4315C111.361 90.2663 110.906 90.1925 110.45 90.215C110.564 90.1518 110.691 90.1174 110.821 90.1147C111.176 90.0788 111.534 90.1295 111.865 90.2625C112.922 90.7494 113.782 91.5905 114.297 92.6438C114.866 93.6466 115.232 94.7541 115.373 95.9016C115.454 96.3771 115.451 96.8635 115.362 97.3377Z" fill="#263238"/>
<path d="M117.179 88.124L129.534 97.6808L125.99 86.5928L128.986 88.1451C128.986 88.1451 134.332 98.1454 136.033 103.177C136.695 105.131 137.188 107.14 137.505 109.181C137.902 112.797 135.908 116.842 135.908 116.842L137.615 129.889C137.855 131.293 136.952 132.65 136.341 132.65L116.991 130.01C114.469 129.509 113.436 128.173 113.587 126.694L113.88 123.959L105.611 95.9753C105.126 97.6333 104.619 91.952 108.31 90.5845C109.871 89.9878 114.804 87.6488 117.179 88.124Z" fill="#FF6600"/>
<path d="M131.021 93.5669C131.021 93.5669 131.084 93.6302 131.178 93.7675L131.58 94.3642C131.925 94.8922 132.415 95.6419 132.995 96.5976C134.564 99.0583 135.827 101.706 136.753 104.481C137.671 107.283 137.871 110.275 137.332 113.177C137.159 114.05 136.888 114.9 136.523 115.711C136.403 116.002 136.273 116.208 136.2 116.355C136.165 116.431 136.121 116.502 136.069 116.567C136.069 116.567 136.2 116.245 136.429 115.669C136.753 114.852 136.996 114.005 137.155 113.14C137.631 110.264 137.409 107.314 136.508 104.544C135.586 101.791 134.361 99.1517 132.854 96.6768L131.512 94.4011L131.147 93.7781C131.097 93.7129 131.055 93.642 131.021 93.5669Z" fill="#263238"/>
<path d="M132.98 127.977C132.624 128.54 132.443 129.198 132.458 129.867C132.484 130.094 132.625 130.395 132.849 130.337C132.99 130.337 133.079 130.173 133.147 130.046C134.384 127.797 135.553 125.881 136.801 123.631L136.744 123.188C135.223 124.55 133.949 126.171 132.98 127.977Z" fill="#FAFAFA"/>
<path d="M132.656 122.617C133.98 122.695 135.309 122.639 136.623 122.448L136.591 122.221C135.398 121.689 134.157 121.271 132.885 120.975C131.69 120.691 130.436 120.783 129.294 121.239C130.241 122.048 131.419 122.531 132.656 122.617Z" fill="#FAFAFA"/>
<path d="M132.755 118.199L136.476 121.367L135.657 119.857C134.834 118.488 133.806 117.257 132.608 116.208C132.469 116.08 132.303 115.985 132.123 115.929C132.033 115.9 131.937 115.897 131.845 115.919C131.753 115.941 131.668 115.988 131.601 116.055C131.542 116.143 131.505 116.243 131.493 116.348C131.482 116.453 131.495 116.559 131.533 116.657C131.781 117.282 132.206 117.818 132.755 118.199Z" fill="#FAFAFA"/>
<path d="M121.851 114.281C122.895 114.972 123.939 115.194 125.061 115.648H125.281C124.547 114.663 123.716 113.755 122.801 112.94C121.875 112.121 120.724 111.609 119.502 111.472C119.965 112.64 120.789 113.625 121.851 114.281Z" fill="#FAFAFA"/>
<path d="M124.59 111.124C125.18 112.597 125.754 114.001 126.344 115.48L126.391 113.959C126.294 112.362 125.954 110.79 125.384 109.297C125.316 109.121 125.215 108.959 125.086 108.822C125.019 108.755 124.935 108.708 124.843 108.685C124.751 108.663 124.655 108.666 124.564 108.695C124.473 108.743 124.395 108.813 124.337 108.898C124.278 108.984 124.242 109.083 124.23 109.186C124.159 109.854 124.285 110.528 124.59 111.124Z" fill="#FAFAFA"/>
<path d="M131.909 109.682C131.895 109.828 131.86 109.97 131.805 110.105C131.76 110.266 131.703 110.423 131.632 110.575C131.55 110.782 131.458 110.985 131.356 111.182C131.085 111.698 130.765 112.186 130.4 112.639C129.501 113.748 128.359 114.63 127.065 115.216C126.537 115.447 125.988 115.624 125.426 115.744C125.049 115.833 124.664 115.886 124.277 115.902C124.137 115.924 123.995 115.924 123.854 115.902C123.854 115.849 124.455 115.823 125.384 115.575C125.922 115.427 126.446 115.23 126.95 114.989C127.568 114.694 128.157 114.34 128.709 113.933C129.252 113.505 129.752 113.024 130.202 112.497C130.566 112.063 130.893 111.599 131.178 111.108C131.674 110.247 131.862 109.667 131.909 109.682Z" fill="#263238"/>
<g opacity="0.3">
<path opacity="0.3" d="M122.67 116.097C123.519 116.705 124.53 117.04 125.571 117.057C126.611 117.074 127.633 116.773 128.501 116.192C130.359 115.015 131.262 112.982 131.502 110.912C130.585 112.463 129.293 113.752 127.748 114.659C126.203 115.566 124.456 116.061 122.67 116.097Z" fill="black"/>
</g>
<g opacity="0.3">
<path opacity="0.3" d="M111.217 103.615L108.868 106.995C109.359 108.869 110.006 110.633 110.497 112.502C111.566 109.669 111.816 106.587 111.217 103.615Z" fill="black"/>
</g>
<path d="M77.2194 143.321L73.842 148.749L66.3618 151.008C66.3354 150.756 66.3597 150.5 66.4332 150.257C66.5068 150.014 66.628 149.788 66.7898 149.593C67.3118 149.108 65.2238 149.794 65.2238 149.794L63.6578 153.089C63.6578 153.089 62.6138 153.015 62.6712 152.091C62.7286 151.167 63.9136 148.263 63.9136 148.263L64.4721 148.168C64.3861 147.915 64.3606 147.646 64.3978 147.381C64.435 147.117 64.5338 146.865 64.6862 146.647C64.7432 145.739 65.0348 144.861 65.5318 144.102C65.9496 143.416 66.467 142.796 67.0665 142.265L73.6019 139.54L77.2194 143.321Z" fill="#FFBE9D"/>
<path d="M71.9839 147.523C71.2329 148.04 70.4142 148.449 69.5514 148.737C68.7193 149.101 67.8407 149.345 66.9414 149.461C66.9414 149.392 68.0846 149.043 69.4731 148.51C70.8616 147.977 71.9526 147.459 71.9839 147.523Z" fill="#EB996E"/>
<path d="M67.86 146.848C67.2557 147.207 66.613 147.496 65.9442 147.709C65.3058 147.997 64.6367 148.209 63.9502 148.342C64.5516 147.981 65.1928 147.692 65.8607 147.482C66.501 147.194 67.1718 146.981 67.86 146.848Z" fill="#EB996E"/>
<path d="M67.735 145.2C67.238 145.47 66.7256 145.71 66.2003 145.919C65.7112 146.204 65.2057 146.459 64.6865 146.684C65.5218 145.876 66.5892 145.356 67.735 145.2Z" fill="#EB996E"/>
<path d="M67.7656 143.543C67.3846 143.788 66.9763 143.986 66.5493 144.134C66.1542 144.357 65.7358 144.534 65.3018 144.662C65.621 144.326 66.0146 144.071 66.4502 143.918C66.8526 143.688 67.3038 143.559 67.7656 143.543Z" fill="#EB996E"/>
<path d="M112.141 91.0854C112.5 91.3712 112.81 91.7135 113.06 92.0992C113.705 93.0073 114.184 94.0248 114.475 95.1035C114.763 96.1812 114.857 97.3027 114.751 98.4141C114.729 98.8758 114.632 99.3306 114.464 99.7605C114.417 99.7605 114.522 99.2325 114.558 98.3983C114.657 96.2115 114.079 94.0481 112.903 92.2101C112.449 91.5079 112.105 91.1171 112.141 91.0854Z" fill="#263238"/>
<path d="M109.86 90.3945C111.583 90.3945 113.17 92.0049 113.316 93.7421C113.493 95.8013 113.514 98.8531 112.507 101.245C110.821 105.237 93.7146 125.76 93.7146 125.76L77.2247 143.321L72.9756 139.018C72.9756 139.018 81.74 124.53 82.9301 122.782C85.4044 119.134 91.6319 112.708 94.1009 108.442C96.57 104.175 102.088 96.3504 103.753 94.6449C105.418 92.9395 106.817 90.3998 109.86 90.3945Z" fill="#FF6600"/>
<path d="M99.6605 110.389C98.9834 110.427 98.3336 110.672 97.797 111.092C97.6299 111.25 97.489 111.535 97.656 111.699C97.7146 111.742 97.7823 111.771 97.8537 111.784C97.9252 111.797 97.9987 111.793 98.0684 111.773C100.652 111.435 103.043 111.245 105.627 110.901L105.825 110.595C103.798 110.165 101.712 110.096 99.6605 110.389Z" fill="#FAFAFA"/>
<path d="M103.831 106.862C104.534 107.962 105.347 108.984 106.259 109.914L106.4 109.671C106.159 108.43 105.792 107.218 105.303 106.054C104.811 104.884 103.975 103.896 102.907 103.224C102.824 104.505 103.148 105.78 103.831 106.862Z" fill="#FAFAFA"/>
<path d="M107.49 104.059C107.386 105.68 107.297 107.227 107.192 108.858L107.897 107.486C108.514 105.97 108.892 104.367 109.019 102.734C109.038 102.539 109.017 102.343 108.957 102.158C108.925 102.066 108.869 101.985 108.794 101.924C108.719 101.862 108.629 101.823 108.534 101.81C108.429 101.814 108.326 101.844 108.235 101.897C108.145 101.951 108.068 102.026 108.012 102.116C107.652 102.697 107.47 103.373 107.49 104.059Z" fill="#FAFAFA"/>
<path d="M111.186 103.276C111.157 103.357 111.116 103.434 111.065 103.503C110.961 103.667 110.836 103.873 110.679 104.116C110.335 104.644 109.818 105.399 109.165 106.312C107.85 108.144 105.971 110.626 103.851 113.329C101.732 116.033 99.7642 118.44 98.3183 120.193C97.5979 121.054 97.0028 121.746 96.5904 122.221L96.105 122.749C95.9901 122.87 95.9275 122.934 95.9223 122.923C95.917 122.912 95.964 122.849 96.0632 122.712L96.5121 122.142L98.1721 120.061L103.643 113.197C105.762 110.499 107.662 108.039 109.014 106.238C109.661 105.356 110.194 104.654 110.58 104.095C110.747 103.862 110.888 103.667 111.008 103.508C111.056 103.423 111.116 103.345 111.186 103.276Z" fill="#263238"/>
<path d="M84.0781 121.208C86.0619 121.809 88.1338 122.055 90.2012 121.937C90.878 121.962 91.5461 121.777 92.1169 121.409C92.2996 121.266 92.4614 120.997 92.3101 120.817C92.2546 120.77 92.1891 120.735 92.1185 120.717C92.048 120.699 91.9742 120.697 91.9029 120.712C89.2929 120.823 86.9021 120.823 84.3026 120.934" fill="#FAFAFA"/>
<path d="M85.7539 125.094C85.1466 123.939 84.4223 122.851 83.5928 121.847L83.4258 122.079C83.5656 123.336 83.8315 124.574 84.2192 125.775C84.6108 126.985 85.3618 128.044 86.3699 128.806C86.5602 127.534 86.3445 126.234 85.7539 125.094Z" fill="#FAFAFA"/>
<path d="M81.8862 128.056C82.1263 126.446 82.3456 124.888 82.5857 123.304L81.7661 124.608C81.0261 126.069 80.5137 127.636 80.2471 129.255C80.208 129.445 80.208 129.64 80.2471 129.83C80.2704 129.924 80.3187 130.01 80.3869 130.078C80.455 130.146 80.5403 130.193 80.6334 130.216C80.7395 130.222 80.8455 130.202 80.9421 130.156C81.0386 130.111 81.1226 130.043 81.1867 129.957C81.603 129.409 81.8467 128.746 81.8862 128.056Z" fill="#FAFAFA"/>
<path d="M208.018 33.1691L210.434 36.3266L211.27 41.5221L213.097 40.2232L214.924 42.9741L231.116 27.4614L208.018 33.1691Z" fill="#FF6600"/>
<path opacity="0.3" d="M213.071 40.256L212.246 40.8263L211.661 37.917L213.071 40.256Z" fill="black"/>
<path opacity="0.3" d="M210.435 36.3265L231.116 27.4614L211.787 37.6201L211.27 41.5221L210.435 36.3265Z" fill="black"/>
<path d="M231.116 27.4556C231.042 27.5176 230.962 27.5708 230.876 27.614L230.166 28.0205L227.519 29.4672L218.718 34.1506L211.677 37.8466L211.724 37.6935C212.611 39.325 213.415 40.6344 213.989 41.5373C214.266 41.9703 214.485 42.3188 214.662 42.5933C214.75 42.7108 214.824 42.8385 214.882 42.9735C214.778 42.869 214.685 42.754 214.605 42.6303C214.433 42.4032 214.187 42.06 213.885 41.6165C213.274 40.7295 212.439 39.4359 211.525 37.8096L211.468 37.7093L211.572 37.6512L218.593 33.9183L227.404 29.3088L230.093 27.9413L230.829 27.577C230.917 27.521 231.014 27.48 231.116 27.4556Z" fill="#263238"/>
<path d="M231.115 27.4566C231.147 27.5252 226.511 29.5686 220.764 32.066C215.017 34.5635 210.324 36.4907 210.324 36.422C210.324 36.3534 214.928 34.31 220.675 31.8126C226.423 29.3152 231.089 27.3932 231.115 27.4566Z" fill="#263238"/>
<path d="M211.269 41.5217C211.197 40.887 211.215 40.2452 211.321 39.6156C211.342 38.9786 211.451 38.3476 211.645 37.7412C211.717 38.3741 211.699 39.0141 211.593 39.642C211.575 40.2811 211.466 40.9143 211.269 41.5217Z" fill="#263238"/>
<path d="M191.418 54.3843C191.418 54.4582 191.151 54.5585 190.786 54.6113C190.421 54.6641 190.128 54.6113 190.123 54.5638C190.118 54.5163 190.4 54.3843 190.75 54.3368C191.099 54.2892 191.402 54.2998 191.418 54.3843Z" fill="#263238"/>
<path d="M196.068 52.2729C196.11 52.331 195.682 52.7376 195.066 53.1072C194.71 53.3698 194.293 53.5353 193.855 53.5877C193.824 53.5137 194.325 53.2286 194.925 52.8696C195.272 52.6105 195.658 52.409 196.068 52.2729Z" fill="#263238"/>
<path d="M199.436 48.3965C199.347 48.8323 199.149 49.2378 198.861 49.574C198.449 50.1706 198.011 50.5613 197.953 50.5138C198.127 50.1149 198.359 49.7447 198.642 49.4156C199.044 48.84 199.368 48.3596 199.436 48.3965Z" fill="#263238"/>
<path d="M200.662 43.4243C200.828 43.8395 200.868 44.2955 200.777 44.7338C200.772 45.1819 200.642 45.6196 200.401 45.9957C200.379 45.5635 200.414 45.1301 200.505 44.7074C200.508 44.275 200.561 43.8444 200.662 43.4243Z" fill="#263238"/>
<path d="M197.557 39.8544C198.001 39.7626 198.463 39.8477 198.846 40.092C199.525 40.4352 199.827 41.0001 199.775 41.0265C199.723 41.0529 199.332 40.6411 198.731 40.3348C198.131 40.0286 197.546 39.9388 197.557 39.8544Z" fill="#263238"/>
<path d="M193.484 42.3728C193.506 41.917 193.691 41.4849 194.006 41.1584C194.255 40.7761 194.641 40.5057 195.082 40.4033C195.123 40.472 194.648 40.794 194.22 41.3326C193.792 41.8712 193.557 42.3992 193.484 42.3728Z" fill="#263238"/>
<path d="M194.325 47.2617C193.949 47.0099 193.666 46.6383 193.521 46.2057C193.298 45.8148 193.21 45.3595 193.271 44.9121C193.477 45.2911 193.651 45.6867 193.793 46.0948C194.054 46.7443 194.393 47.2036 194.325 47.2617Z" fill="#263238"/>
<path d="M198.794 49.5418C198.362 49.6378 197.911 49.6029 197.499 49.4415C197.061 49.3663 196.656 49.1603 196.335 48.8501C196.758 48.9116 197.173 49.0214 197.572 49.1775C197.992 49.2483 198.403 49.3706 198.794 49.5418Z" fill="#263238"/>
<path d="M203.757 48.4868C203.439 48.7886 203.049 49.0015 202.625 49.1046C202.227 49.2976 201.785 49.3779 201.346 49.3369C201.716 49.1179 202.115 48.9526 202.531 48.8459C202.92 48.6661 203.333 48.5451 203.757 48.4868Z" fill="#263238"/>
<path d="M207.923 45.4824C207.975 45.5352 207.568 45.9523 207.015 46.4064C206.709 46.7186 206.343 46.9631 205.939 47.1245C205.892 47.0611 206.299 46.644 206.848 46.1952C207.154 45.8859 207.52 45.6433 207.923 45.4824Z" fill="#263238"/>
<path d="M210.471 42.5465C210.538 42.5782 210.471 42.8791 210.236 43.1854C210.001 43.4916 209.787 43.6764 209.714 43.6289C209.64 43.5813 209.797 43.3173 210.001 43.0269C210.204 42.7366 210.403 42.5148 210.471 42.5465Z" fill="#263238"/>
</svg>
