<svg clip-rule="evenodd" fill-rule="evenodd" stroke-linejoin="round" stroke-miterlimit="1.41421" viewBox="0 0 24 24" xmlns="http://www.w3.org/2000/svg"><path d="m0 0h24v24h-24z" fill="none"/><path d="m22 4c0-.53-.211-1.039-.586-1.414s-.884-.586-1.414-.586c-3.832 0-12.168 0-16 0-.53 0-1.039.211-1.414.586s-.586.884-.586 1.414v16c0 .53.211 1.039.586 1.414s.884.586 1.414.586h16c.53 0 1.039-.211 1.414-.586s.586-.884.586-1.414c0-3.832 0-12.168 0-16z" fill="#3b5998"/><path d="m18.914 8.172s-1.262 0-2.202 0c-.553 0-1.001.448-1.001 1.001v2.032h3.203l-.781 3.047h-2.422v7.748h-3.047v-7.748h-2.656v-3.047h2.656s0-.94 0-2.08c0-1.061.422-2.078 1.172-2.828.75-.751 1.767-1.172 2.828-1.172h2.25z" fill="#fff"/></svg>