<svg fill="none" height="20" viewBox="0 0 20 20" width="20" xmlns="http://www.w3.org/2000/svg"><path d="m19.9895 10.1871c0-.81943-.0681-1.41737-.2153-2.03744h-9.575v3.69834h5.6203c-.1133.9191-.7252 2.3032-2.0849 3.2333l-.0191.1238 3.0274 2.2918.2098.0205c1.9262-1.7385 3.0368-4.2964 3.0368-7.3303z" fill="#4285f4"/><path d="m10.1991 19.9313c2.7535 0 5.0651-.8859 6.7535-2.4139l-3.2181-2.4361c-.8612.5869-2.017.9966-3.5354.9966-2.69679 0-4.9857-1.7384-5.80163-4.1413l-.1196.01-3.14796 2.3807-.04116.1118c1.67701 3.2554 5.12174 5.4922 9.11035 5.4922z" fill="#34a853"/><path d="m4.39748 11.9366c-.21529-.6201-.33989-1.2845-.33989-1.97101 0-.68657.1246-1.35092.32856-1.97099l-.0057-.13207-3.18741-2.41893-.10429.04848c-.691174 1.35091-1.08777344 2.86794-1.08777344 4.47351 0 1.60561.39659944 3.12251 1.08777344 4.47341z" fill="#fbbc05"/><path d="m10.1991 3.85336c1.915 0 3.2067.80832 3.9433 1.48382l2.8781-2.74611c-1.7676-1.605574-4.0679-2.59107-6.8214-2.59107-3.98862 0-7.43334 2.23672-9.11035 5.49214l3.29739 2.50252c.82726-2.40283 3.11616-4.1413 5.81296-4.1413z" fill="#eb4335"/></svg>