<svg enable-background="new 0 0 64 64" viewBox="0 0 64 64" xmlns="http://www.w3.org/2000/svg"><path d="m2 6v52c0 2.2 1.8 4 4 4h52c2.2 0 4-1.8 4-4v-52c0-2.2-1.8-4-4-4h-52c-2.2 0-4 1.8-4 4zm17.1 46h-7.1v-27.6h7.1zm-3.5-33.1c-2 0-3.6-1.5-3.6-3.4s1.6-3.4 3.6-3.4 3.6 1.5 3.6 3.4c-.1 1.9-1.7 3.4-3.6 3.4zm36.4 33.1h-7.1v-13.8c0-2.9-.1-4.8-.4-5.7s-.8-1.5-1.4-2c-.7-.5-1.5-.7-2.4-.7-1.2 0-2.3.3-3.2 1-1 .7-1.6 1.6-2 2.7s-.5 3.2-.5 6.2v12.3h-8.6v-27.6h7.1v4.1c2.4-3.1 5.5-4.7 9.2-4.7 1.6 0 3.1.3 4.5.9 1.3.6 2.4 1.3 3.1 2.2s1.2 1.9 1.4 3.1c.3 1.1.4 2.8.4 4.9v17.1z" fill="#0077b5"/></svg>