<svg version="1.1" id="Layer_1" xmlns="http://www.w3.org/2000/svg" x="0" y="0" viewBox="0 0 162 41" style="enable-background:new 0 0 162 41" xml:space="preserve"><g id="XMLID_24_" fill="#3c67b1"><g id="XMLID_27_"><path d="M54.1 6c-3.9-3.9-9-6-14.5-6-2.5 0-4.9.4-7.2 1.3 1 .5 2 1.2 2.9 1.9.1.1.2.2.3.2 1.3-.3 2.6-.5 4-.5 9.7 0 17.6 7.9 17.6 17.6S49.3 38 39.6 38c-2.3 0-4.5-.5-6.6-1.3-1-.4-2-.9-2.9-1.5-3.7-2.4-6.4-6.1-7.5-10.5 1.6-.7 2.7-2.4 2.7-4.2 0-2.6-2.1-4.7-4.7-4.7s-4.7 2.1-4.7 4.7c0 2.3 1.6 4.1 3.7 4.6.8 3.7 2.7 7.1 5.5 9.9.6.6 1.3 1.2 2 1.8.9.7 1.9 1.3 2.9 1.9 2.9 1.5 6.1 2.3 9.5 2.3 5.5 0 10.6-2.1 14.5-6 3.9-3.9 6-9 6-14.5S58 9.9 54.1 6zM20.6 22.2c-1 0-1.8-.8-1.8-1.8s.8-1.8 1.8-1.8 1.8.8 1.8 1.8c0 1.1-.8 1.8-1.8 1.8z" id="XMLID_31_"/><path d="M6 35c3.9 3.9 9 6 14.5 6 2.5 0 4.9-.4 7.2-1.3-1-.5-2-1.2-2.9-1.9-.1-.1-.2-.2-.3-.2-1.3.3-2.6.5-4 .5-9.7 0-17.6-7.9-17.6-17.6S10.8 2.9 20.5 2.9c2.3 0 4.5.5 6.6 1.3 1 .4 2 .9 2.9 1.5 3.7 2.4 6.4 6.1 7.5 10.5-1.6.7-2.7 2.4-2.7 4.2 0 2.6 2.1 4.7 4.7 4.7s4.7-2.1 4.7-4.7c0-2.3-1.6-4.1-3.7-4.6-.9-3.6-2.8-7-5.5-9.8-.6-.6-1.3-1.2-2-1.8-1-.7-2-1.3-3-1.9C27.1.8 23.9 0 20.5 0 15 0 9.9 2.1 6 6c-3.9 3.9-6 9-6 14.5S2.1 31.1 6 35zm33.5-16.3c1 0 1.8.8 1.8 1.8s-.8 1.8-1.8 1.8-1.8-.8-1.8-1.8.8-1.8 1.8-1.8z" id="XMLID_28_"/></g><g id="XMLID_26_"><path id="XMLID_101_" d="M70.9 9.6c1.1 0 1.9.3 2.5.9.5.6.8 1.3.8 2.2s-.3 1.6-.8 2.1c-.6.6-1.4.8-2.6.8h-1.3v3h-2v-9h3.4zm-.1 4.2c.4 0 .7-.1.9-.3s.3-.5.3-.8 0-.7-.3-1c-.2-.2-.5-.3-.9-.3h-1.4v2.3h1.4z"/><path id="XMLID_104_" d="M75 18.5v-6.7h1.8v.9c.4-.7 1-1 1.8-1 .3 0 .5.1.8.2l-.2 1.8c-.3-.1-.6-.1-.8-.1-.5 0-.8.2-1.1.5s-.4.8-.4 1.5v3H75z"/><path id="XMLID_106_" d="M81.3 11.2c-.3 0-.6-.1-.8-.3s-.3-.5-.3-.8.1-.6.3-.8.5-.3.8-.3c.3 0 .6.1.8.3s.3.5.3.8-.1.6-.3.8-.5.3-.8.3zm.9 7.3h-1.9v-6.7h1.9v6.7z"/><path id="XMLID_109_" d="M91.9 11.7c.8 0 1.4.2 2 .7.5.5.8 1.2.8 2.1v4.1h-1.9v-3.7c0-.5-.1-.8-.3-1.1-.2-.2-.5-.4-.9-.4s-.7.1-1 .4c-.3.3-.4.6-.4 1.1v3.6h-1.9v-3.7c0-.4-.1-.8-.3-1s-.5-.4-.9-.4-.7.1-1 .4c-.3.3-.4.6-.4 1.1v3.6h-1.9v-6.7h1.9v.9c.2-.4.5-.6.8-.8.4-.2.8-.3 1.2-.3.4 0 .8.1 1.1.3.3.2.6.5.8.9.3-.4.6-.6 1-.8s.9-.3 1.3-.3z"/><path id="XMLID_111_" d="M101.1 11.9h1.8v6.7h-1.8v-.7c-.6.6-1.3.9-2.1.9-.9 0-1.7-.3-2.4-1s-.9-1.5-.9-2.5.3-1.8.9-2.5c.6-.7 1.4-1 2.3-1 .8 0 1.5.3 2.1.9v-.8zm-2.9 4.6c.3.3.7.5 1.2.5s.9-.2 1.2-.5c.3-.3.5-.8.5-1.3s-.2-.9-.5-1.2-.7-.5-1.2-.5-.9.2-1.2.5c-.3.3-.5.8-.5 1.2 0 .5.1.9.5 1.3z"/><path id="XMLID_114_" d="M109.3 9.3h1.9v9.3h-1.9v-.7c-.5.6-1.2.9-2 .9-.9 0-1.7-.3-2.3-1s-.9-1.5-.9-2.5.3-1.8.9-2.5c.6-.7 1.4-1 2.3-1 .8 0 1.4.3 1.9.8V9.3zm-2.8 7.2c.3.3.7.5 1.2.5s.9-.2 1.2-.5c.3-.3.5-.8.5-1.3s-.2-.9-.5-1.2c-.3-.3-.7-.5-1.2-.5s-.9.2-1.2.5c-.3.3-.5.8-.5 1.2 0 .5.1.9.5 1.3z"/><path id="XMLID_117_" d="M117.7 11.9h1.8v6.7h-1.8v-.7c-.6.6-1.3.9-2.1.9-1 0-1.7-.3-2.4-1-.6-.7-.9-1.5-.9-2.5s.3-1.8.9-2.5c.6-.7 1.4-1 2.3-1 .8 0 1.5.3 2.1.9v-.8zm-2.9 4.6c.3.3.7.5 1.2.5s.9-.2 1.2-.5c.3-.3.5-.8.5-1.3s-.2-.9-.5-1.2c-.3-.3-.7-.5-1.2-.5s-.9.2-1.2.5c-.3.3-.5.8-.5 1.2 0 .5.2.9.5 1.3z"/><path id="XMLID_120_" d="M127.1 18.5h-2.2l-1.2-2.1-1.2 2.1h-2.2l2.2-3.4-1.9-3.3h2.2l1 1.9 1.1-1.9h2.1l-2 3.3 2.1 3.4z"/></g><g id="XMLID_25_"><path id="XMLID_51_" d="M69.6 28.1c-.8 0-1.5-.3-2-.8s-.8-1.2-.8-2 .3-1.5.8-2.1c.6-.5 1.2-.8 2-.8.5 0 1 .1 1.4.3.4.2.8.5 1 .9l-.5.4c-.2-.3-.5-.5-.8-.7-.3-.2-.7-.3-1-.3-.6 0-1.1.2-1.5.6-.4.4-.6.9-.6 1.6 0 .6.2 1.1.6 1.5.4.4.9.6 1.5.6.8 0 1.4-.3 1.9-1l.5.4c-.3.4-.6.6-1 .9s-1 .5-1.5.5z"/><path id="XMLID_53_" d="M72.8 28v-4h.6v.6c.2-.5.6-.7 1.2-.7.2 0 .3 0 .5.1l-.1.6c-.1 0-.3-.1-.4-.1-.3 0-.6.1-.8.3s-.3.5-.3 1V28h-.7z"/><path id="XMLID_55_" d="M78.5 24h.7l-1.7 4.5c-.2.4-.4.7-.6.9s-.5.3-.8.3c-.3 0-.5 0-.6-.1l.1-.6c.2.1.3.1.5.1.3 0 .6-.2.8-.7l.2-.4-1.7-4h.8l1.3 3.1 1-3.1z"/><path id="XMLID_57_" d="M82 23.9c.6 0 1 .2 1.4.6.4.4.6.9.6 1.5s-.2 1.1-.6 1.5-.9.6-1.4.6c-.6 0-1.1-.2-1.4-.7v2.2h-.7V24h.7v.6c.3-.4.8-.7 1.4-.7zm-.1 3.6c.4 0 .8-.1 1-.4.3-.3.4-.6.4-1.1 0-.4-.1-.8-.4-1-.3-.3-.6-.4-1-.4s-.8.1-1 .4c-.3.3-.4.6-.4 1s.1.8.4 1.1c.3.2.6.4 1 .4z"/><path id="XMLID_60_" d="m87.1 27.2.3.5c-.3.2-.6.3-1 .3s-.7-.1-.9-.4c-.2-.3-.3-.6-.3-1.1v-2h-.7V24h.7v-1.4h.7V24h1.4v.6h-1.4v2.1c0 .5.2.8.7.8 0 0 .2-.1.5-.3z"/><path id="XMLID_62_" d="M91.2 27.5c-.4.4-.9.6-1.5.6s-1.1-.2-1.5-.6c-.4-.4-.6-.9-.6-1.5s.2-1.1.6-1.5c.4-.4.9-.6 1.5-.6s1.1.2 1.5.6c.4.4.6.9.6 1.5s-.2 1.1-.6 1.5zm-2.5-.4c.3.3.6.4 1 .4s.7-.1 1-.4c.3-.3.4-.6.4-1s-.1-.7-.4-1c-.3-.3-.6-.4-1-.4s-.7.1-1 .4c-.3.3-.4.6-.4 1 0 .3.1.7.4 1z"/><path id="XMLID_65_" d="M94.5 28.1c-.6 0-1.1-.2-1.5-.6-.4-.4-.6-.9-.6-1.5s.2-1.1.6-1.5c.4-.4.9-.6 1.5-.6.4 0 .8.1 1.1.3.3.2.6.4.7.8l-.5.3c-.1-.2-.3-.4-.5-.5-.2-.1-.5-.2-.7-.2-.4 0-.8.1-1 .4-.3.3-.4.6-.4 1.1 0 .4.1.8.4 1 .3.3.6.4 1 .4.3 0 .5-.1.7-.2.2-.1.4-.3.5-.5l.6.3c-.2.3-.4.5-.7.7-.4.2-.8.3-1.2.3z"/><path id="XMLID_67_" d="M98.8 28.1c-.5 0-.9-.2-1.2-.5-.3-.3-.5-.7-.5-1.2V24h.7v2.4c0 .3.1.6.3.8.2.2.4.3.8.3.3 0 .6-.1.8-.3.2-.2.3-.5.3-.8V24h.7v2.4c0 .5-.2.9-.5 1.2-.5.3-.9.5-1.4.5z"/><path id="XMLID_69_" d="M101.5 28v-4h.6v.6c.2-.5.6-.7 1.2-.7.2 0 .3 0 .5.1l-.1.6c-.1 0-.3-.1-.4-.1-.3 0-.6.1-.8.3-.2.2-.3.5-.3 1V28h-.7z"/><path id="XMLID_71_" d="M104.4 28v-4h.6v.6c.2-.5.6-.7 1.2-.7.2 0 .3 0 .5.1l-.1.6c-.1 0-.3-.1-.4-.1-.3 0-.6.1-.8.3-.2.2-.3.5-.3 1V28h-.7z"/><path id="XMLID_73_" d="M110.7 25.9v.3h-3.2c.1.3.2.6.4.9s.6.3 1 .3c.2 0 .5 0 .7-.1.3-.1.5-.2.7-.3l.3.5c-.2.2-.4.3-.7.4-.3.1-.6.2-1 .2s-.7-.1-1-.2-.5-.3-.7-.5-.3-.4-.4-.7c-.1-.2-.1-.5-.1-.8 0-.6.2-1.1.6-1.5.4-.4.9-.6 1.4-.6.6 0 1 .2 1.4.5.5.5.6 1 .6 1.6zm-1.9-1.4c-.3 0-.6.1-.9.3s-.4.5-.4.8h2.5c0-.4-.1-.6-.4-.9-.2-.1-.5-.2-.8-.2z"/><path id="XMLID_76_" d="M111.6 28v-4h.6v.6c.3-.4.7-.7 1.3-.7.4 0 .8.1 1.1.4s.5.7.5 1.2V28h-.7v-2.2c0-.4-.1-.7-.3-.9-.2-.2-.4-.3-.8-.3-.3 0-.6.1-.8.3-.2.2-.3.5-.3.9V28h-.6z"/><path id="XMLID_78_" d="M118 28.1c-.6 0-1.1-.2-1.5-.6-.4-.4-.6-.9-.6-1.5s.2-1.1.6-1.5c.4-.4.9-.6 1.5-.6.4 0 .8.1 1.1.3.3.2.6.4.7.8l-.6.3c-.1-.2-.3-.4-.5-.5-.2-.1-.5-.2-.7-.2-.4 0-.8.1-1 .4-.3.3-.4.6-.4 1.1 0 .4.1.8.4 1 .3.3.6.4 1 .4.3 0 .5-.1.7-.2s.4-.3.5-.5l.6.3c-.2.3-.4.5-.7.7-.3.2-.7.3-1.1.3z"/><path id="XMLID_80_" d="M123.2 24h.7l-1.7 4.5c-.2.4-.4.7-.6.9s-.5.3-.8.3c-.3 0-.5 0-.6-.1l.1-.6c.2.1.3.1.5.1.3 0 .6-.2.8-.7l.2-.4-1.7-4h.8l1.3 3.1 1-3.1z"/><path id="XMLID_82_" d="M126.6 28v-5.5h3.4v.7h-2.7v1.7h2.5v.7h-2.5v1.8h2.7v.6h-3.4z"/><path id="XMLID_84_" d="M134 28h-.8l-1-1.5-1 1.5h-.8l1.4-2.1-1.3-1.9h.8l.9 1.4.9-1.4h.8l-1.3 2 1.4 2z"/><path id="XMLID_86_" d="M136.3 28.1c-.6 0-1.1-.2-1.5-.6-.4-.4-.6-.9-.6-1.5s.2-1.1.6-1.5c.4-.4.9-.6 1.5-.6.4 0 .8.1 1.1.3.3.2.6.4.7.8l-.6.3c-.1-.2-.3-.4-.5-.5-.2-.1-.5-.2-.7-.2-.4 0-.8.1-1 .4-.3.3-.4.6-.4 1.1 0 .4.1.8.4 1 .3.3.6.4 1 .4.3 0 .5-.1.7-.2s.4-.3.5-.5l.6.3c-.2.3-.4.5-.7.7-.3.2-.7.3-1.1.3z"/><path id="XMLID_88_" d="M138.9 28v-5.6h.6v2.1c.1-.2.3-.3.5-.4.2-.1.5-.2.7-.2.4 0 .8.1 1.1.4s.5.7.5 1.2V28h-.7v-2.2c0-.4-.1-.7-.3-.9-.2-.2-.4-.3-.7-.3-.3 0-.6.1-.8.3-.2.2-.3.5-.3.9V28h-.6z"/><path id="XMLID_90_" d="M146.7 24h.6v4h-.6v-.6c-.4.4-.8.7-1.4.7-.6 0-1-.2-1.4-.6-.4-.4-.6-.9-.6-1.5s.2-1.1.6-1.5c.4-.4.9-.6 1.4-.6.6 0 1.1.2 1.4.7V24zm-2.4 3.1c.3.3.6.4 1 .4s.8-.1 1-.4c.3-.3.4-.6.4-1.1 0-.4-.1-.8-.4-1-.3-.3-.6-.4-1-.4s-.8.1-1 .4c-.3.3-.4.6-.4 1.1 0 .3.1.7.4 1z"/><path id="XMLID_93_" d="M148.4 28v-4h.6v.6c.3-.4.7-.7 1.3-.7.4 0 .8.1 1.1.4.3.3.5.7.5 1.2V28h-.7v-2.2c0-.4-.1-.7-.3-.9s-.4-.3-.8-.3c-.3 0-.6.1-.8.3-.2.2-.3.5-.3.9V28h-.6z"/><path id="XMLID_95_" d="M156.2 24h.7v3.6c0 .6-.2 1.2-.6 1.5-.4.4-.9.6-1.5.6s-1.2-.2-1.7-.6l.3-.5c.4.3.9.5 1.4.5.4 0 .8-.1 1.1-.4.3-.3.4-.6.4-1v-.3c-.4.4-.8.6-1.4.6-.6 0-1-.2-1.4-.6-.4-.4-.6-.9-.6-1.5s.2-1.1.6-1.5c.4-.4.9-.6 1.4-.6.6 0 1 .2 1.4.6V24zm-2.4 3c.3.3.6.4 1 .4s.7-.1 1-.4c.3-.3.4-.6.4-1s-.1-.8-.4-1c-.3-.3-.6-.4-1-.4s-.7.1-1 .4-.4.6-.4 1 .2.7.4 1z"/><path id="XMLID_98_" d="M161.6 25.9v.3h-3.2c.1.3.2.6.4.9s.6.3 1 .3c.2 0 .5 0 .7-.1.3-.1.5-.2.7-.3l.3.5c-.2.2-.4.3-.7.4-.3.1-.6.2-1 .2s-.7-.1-1-.2-.5-.3-.7-.5-.3-.4-.4-.7c-.1-.2-.1-.5-.1-.8 0-.6.2-1.1.6-1.5.4-.4.9-.6 1.4-.6.6 0 1 .2 1.4.5.5.5.6 1 .6 1.6zm-1.9-1.4c-.3 0-.6.1-.9.3s-.4.5-.4.8h2.5c0-.4-.1-.6-.4-.9-.2-.1-.5-.2-.8-.2z"/></g></g></svg>