<svg viewBox="0 0 512 512" xmlns="http://www.w3.org/2000/svg" xmlns:xlink="http://www.w3.org/1999/xlink"><linearGradient id="a" gradientUnits="userSpaceOnUse" x2="502.697" y1="512" y2="9.303"><stop offset="0" stop-color="#2081c7"/><stop offset="1" stop-color="#38afe2"/></linearGradient><path d="m256 0c-141.385 0-256 114.615-256 256s114.615 256 256 256 256-114.615 256-256-114.615-256-256-256zm133.059 161.936-45.468 217.064a16.007 16.007 0 0 1 -25.177 9.593l-66.136-48.861-40.068 37.8a5.429 5.429 0 0 1 -7.74-.294l-.861-.946 6.962-67.375 125.484-114.651a3.358 3.358 0 0 0 -4.061-5.317l-160.479 101.57-69.115-23.212a9.393 9.393 0 0 1 -.32-17.694l270.42-101.869a12.441 12.441 0 0 1 16.559 14.192z" fill="url(#a)"/></svg>