<svg enable-background="new 0 0 128 128" viewBox="0 0 128 128" xmlns="http://www.w3.org/2000/svg"><g clip-rule="evenodd"><path d="m0 0h128v128h-128z" fill="none"/><path d="m128 23.294c-4.703 2.142-9.767 3.59-15.079 4.237 5.424-3.328 9.587-8.606 11.548-14.892-5.079 3.082-10.691 5.324-16.687 6.526-4.778-5.231-11.608-8.498-19.166-8.498-14.493 0-26.251 12.057-26.251 26.927 0 2.111.225 4.16.676 6.133-21.824-1.126-41.17-11.835-54.131-28.145-2.261 3.991-3.554 8.621-3.554 13.552 0 9.338 4.636 17.581 11.683 22.412-4.297-.131-8.355-1.356-11.901-3.359v.331c0 13.051 9.053 23.937 21.074 26.403-2.201.632-4.523.948-6.92.948-1.69 0-3.343-.162-4.944-.478 3.343 10.694 13.035 18.483 24.53 18.691-8.986 7.227-20.315 11.533-32.614 11.533-2.119 0-4.215-.123-6.266-.37 11.623 7.627 25.432 12.088 40.255 12.088 48.309 0 74.717-41.026 74.717-76.612 0-1.171-.023-2.342-.068-3.49 5.134-3.798 9.589-8.536 13.098-13.937" fill="#00aaec" fill-rule="evenodd"/></g></svg>