<svg width="264" height="264" viewBox="0 0 264 264" fill="none" xmlns="http://www.w3.org/2000/svg">
    <path d="M107.971 240.821C120.331 232.79 123.599 217.224 123.599 203.132C123.599 200.782 123.943 198.317 122.897 196.215C121.852 194.114 119.291 192.619 117.153 193.538C115.379 194.298 114.55 196.305 113.515 197.947C112.136 200.142 110.164 201.903 107.828 203.026C106.307 203.75 104.438 204.161 102.986 203.296C101.001 202.113 100.874 199.304 100.948 196.96C101.124 192.605 101.3 188.251 101.476 183.897C101.566 181.563 101.656 179.177 101.006 176.933C100.357 174.689 98.8152 172.577 96.6134 171.88C94.4116 171.183 91.6185 172.371 91.0747 174.641C90.8476 175.586 91.006 176.579 90.911 177.545C90.8159 178.511 90.3249 179.572 89.3904 179.81C88.4558 180.048 87.5371 179.361 86.8612 178.654C84.5328 176.209 82.9963 173.115 81.5812 170.042C80.1662 166.969 78.7723 163.822 76.6708 161.177C74.5694 158.532 71.6126 156.383 68.2756 156.082C64.9387 155.781 61.2955 157.724 60.3556 160.982C59.4158 164.239 61.2057 167.656 63.2068 170.391C66.1677 174.447 69.6976 178.055 73.6876 181.104C74.4057 181.632 75.1872 182.239 75.4406 183.115C75.8947 184.699 74.3846 186.188 72.8006 186.648C71.0371 187.176 69.1521 186.922 67.3252 187.075C65.4984 187.229 63.492 187.968 62.7475 189.668C61.6915 192.023 63.6187 194.594 65.53 196.3C69.3575 199.717 73.7439 202.452 78.4977 204.383C80.1926 205.07 81.9825 205.682 83.3289 206.939C84.6753 208.195 85.4409 210.318 84.5486 211.939C83.6563 213.56 81.4862 214.009 79.6963 213.613C77.9064 213.217 76.3276 212.187 74.6328 211.501C71.4648 210.175 67.3094 210.26 65.1604 212.963C63.7454 214.743 63.5395 217.277 64.152 219.479C64.7644 221.681 66.0844 223.592 67.4942 225.371C72.4363 231.586 78.862 236.67 86.2224 239.506C93.5827 242.341 100.478 243.276 107.96 240.821" fill="#EBEBEB"/>
    <path d="M106.535 241.296C106.212 235.704 106.482 239.062 104.639 231.892C102.56 224.146 100.039 216.525 97.0886 209.067C96.3177 207.081 95.5557 205.121 94.8024 203.185C94.0473 201.257 93.3029 199.346 92.4528 197.519C90.8204 194.017 88.9942 190.607 86.9827 187.308C85.0872 184.14 83.1705 181.209 81.3595 178.48C79.5485 175.75 77.8008 173.247 76.1165 171.024C73.4727 167.509 70.5543 164.209 67.3886 161.156C66.2745 160.073 65.3769 159.266 64.7486 158.722L64.0464 158.115C63.9699 158.04 63.8868 157.973 63.7982 157.914C63.8625 158 63.9369 158.078 64.02 158.146L64.6905 158.79C65.2819 159.35 66.1584 160.179 67.2566 161.277C70.3689 164.369 73.244 167.691 75.8577 171.214C77.5209 173.437 79.2475 175.966 81.048 178.68C82.8485 181.394 84.744 184.356 86.6289 187.514C88.623 190.807 90.435 194.207 92.0568 197.699C92.8963 199.515 93.6408 201.395 94.3905 203.343L96.6715 209.225C99.6165 216.667 102.143 224.268 104.238 231.992C106.096 239.136 105.859 235.746 106.218 241.317" fill="#E0E0E0"/>
    <path d="M92.3314 197.472C92.4531 197.153 92.5415 196.822 92.5954 196.484C92.7379 195.84 92.9174 194.9 93.1234 193.749C93.5352 191.431 93.9893 188.216 94.4803 184.668C94.9714 181.12 95.473 177.915 95.9165 175.613C96.133 174.462 96.3178 173.532 96.4445 172.888C96.5369 172.559 96.5918 172.221 96.6082 171.88C96.4654 172.189 96.3557 172.513 96.2808 172.846C96.096 173.479 95.8637 174.403 95.605 175.549C95.077 177.846 94.549 181.051 94.021 184.604C93.493 188.158 93.1181 191.278 92.7907 193.697C92.6323 194.79 92.5003 195.714 92.3947 196.453C92.3343 196.789 92.3131 197.131 92.3314 197.472Z" fill="#E0E0E0"/>
    <path d="M62.4782 190.84C62.869 190.94 63.2687 191.002 63.6715 191.025C64.4424 191.12 65.5512 191.252 66.924 191.458C69.6643 191.849 73.4342 192.514 77.5579 193.443C81.6816 194.372 85.3776 195.376 88.0334 196.178C89.364 196.569 90.4305 196.912 91.1697 197.15C91.5462 197.294 91.935 197.403 92.3313 197.477C91.9789 197.278 91.6074 197.116 91.2225 196.991C90.4992 196.706 89.4432 196.315 88.1232 195.882C85.4832 195.006 81.7872 193.955 77.6529 193.021C74.1234 192.211 70.5547 191.581 66.9609 191.136C65.5828 190.972 64.4635 190.888 63.6873 190.84C63.285 190.806 62.8805 190.806 62.4782 190.84Z" fill="#E0E0E0"/>
    <path d="M104.285 231.306C104.376 231.198 104.451 231.077 104.507 230.947L105.035 229.891C105.51 228.962 106.16 227.599 106.941 225.899C108.525 222.509 110.521 217.752 112.675 212.477C114.829 207.203 116.799 202.446 118.293 199.014C119.027 197.35 119.629 195.983 120.072 194.964C120.268 194.526 120.421 194.161 120.553 193.86C120.619 193.736 120.666 193.603 120.69 193.464C120.605 193.575 120.532 193.696 120.474 193.823L119.946 194.879C119.471 195.814 118.821 197.176 118.04 198.876C116.456 202.266 114.455 207.023 112.3 212.298C110.146 217.573 108.177 222.33 106.682 225.762C105.954 227.425 105.352 228.793 104.903 229.806L104.428 230.915C104.365 231.04 104.317 231.171 104.285 231.306Z" fill="#E0E0E0"/>
    <path d="M64.8014 217.087C64.9236 217.162 65.0549 217.22 65.1921 217.261L66.3379 217.689L70.5619 219.22C74.1364 220.514 79.0468 222.356 84.4694 224.4C89.892 226.443 94.8235 228.244 98.4192 229.463C100.22 230.07 101.682 230.551 102.696 230.862L103.868 231.211C104.001 231.264 104.142 231.296 104.285 231.306C104.163 231.229 104.032 231.169 103.895 231.126L102.749 230.699L98.5248 229.173C94.9555 227.879 90.0451 226.036 84.6225 223.993C79.2 221.95 74.2684 220.149 70.6675 218.93C68.8723 218.317 67.4097 217.842 66.396 217.53L65.2238 217.177C65.0883 217.126 64.9459 217.096 64.8014 217.087Z" fill="#E0E0E0"/>
    <path d="M208.856 121.768C208.856 121.768 202.489 118.404 196.601 133.426C190.714 148.447 188.766 156.969 188.766 156.969C188.766 156.969 187.129 160.137 184.88 158.4C182.63 156.663 179.262 151.362 175.862 152.708C172.329 154.102 171.532 158.268 172.81 164.155C174.087 170.043 176.411 183.037 176.617 184.219C176.822 185.402 176.321 187.155 174.594 186.205C172.868 185.254 162.551 175.808 158.364 180.972C154.177 186.136 160.428 201.944 161.078 203.676C161.727 205.408 161.452 206.216 160.645 206.744C159.837 207.272 156.674 203.766 153.627 201.2C150.581 198.634 146.605 196.195 144.435 199.378C142.265 202.562 142.682 214.838 156.246 233.524L163.11 241.771L173.75 240.129C196.311 235.219 204.796 226.333 205.303 222.515C205.81 218.698 201.211 217.869 197.23 217.763C193.249 217.658 188.555 218.149 188.301 217.235C188.048 216.322 188.38 215.53 190.022 214.664C191.665 213.798 206.86 206.163 207.172 199.526C207.483 192.889 193.502 193.058 191.58 192.62C189.658 192.182 190.471 190.508 191.39 189.795C192.309 189.082 202.716 180.904 207.589 177.366C212.462 173.828 214.638 170.185 212.938 166.806C211.296 163.538 205.266 165.222 202.415 165.048C199.563 164.874 200.472 161.394 200.472 161.394C200.472 161.394 204.696 153.733 210.303 138.606C215.91 123.478 208.719 121.741 208.719 121.741" fill="#EBEBEB"/>
    <path d="M163.358 239.448C167.524 228.36 173.39 213.079 179.964 196.22C186.537 179.361 192.429 164.107 196.653 153.035L201.637 139.92L203 136.356L203.359 135.432C203.443 135.221 203.491 135.12 203.491 135.12C203.491 135.12 203.491 135.231 203.39 135.442L203.058 136.377L201.759 139.967C200.629 143.082 198.96 147.576 196.875 153.12C192.709 164.208 186.843 179.493 180.275 196.342C173.707 213.19 167.804 228.46 163.58 239.532" fill="#E0E0E0"/>
    <path d="M180.201 160.19C180.338 160.409 180.452 160.643 180.538 160.887C180.739 161.341 181.008 162.011 181.336 162.84C181.99 164.498 182.83 166.811 183.712 169.382C184.593 171.954 185.349 174.213 185.94 175.966L186.632 177.957C186.734 178.196 186.808 178.446 186.853 178.701C186.715 178.482 186.6 178.248 186.51 178.004C186.309 177.55 186.04 176.88 185.723 176.046C185.085 174.382 184.277 172.059 183.395 169.488L181.103 162.919L180.401 160.934C180.307 160.694 180.24 160.444 180.201 160.19Z" fill="#E0E0E0"/>
    <path d="M187.857 178.791C187.82 178.707 192.513 176.764 198.337 174.456C204.161 172.149 208.897 170.338 208.94 170.422C208.982 170.507 204.283 172.455 198.459 174.762C192.635 177.07 187.888 178.881 187.857 178.791Z" fill="#E0E0E0"/>
    <path d="M176.627 204.22C176.883 204.153 177.145 204.116 177.409 204.109L179.552 203.903C181.358 203.728 183.855 203.48 186.596 203.1C189.336 202.72 191.818 202.308 193.602 201.986L195.714 201.611C195.972 201.548 196.236 201.514 196.501 201.511C196.256 201.613 196.001 201.689 195.741 201.738C195.25 201.865 194.532 202.034 193.629 202.218C191.849 202.599 189.373 203.058 186.622 203.433C183.871 203.808 181.342 204.024 179.547 204.14C178.639 204.193 177.905 204.225 177.398 204.235C177.141 204.259 176.883 204.254 176.627 204.22Z" fill="#E0E0E0"/>
    <path d="M166 188.918C166.178 189.084 166.338 189.27 166.475 189.473L167.673 191.057C168.671 192.403 170.034 194.283 171.522 196.368C173.011 198.454 174.347 200.355 175.298 201.738L176.406 203.385C176.555 203.582 176.681 203.794 176.781 204.019C176.6 203.854 176.438 203.668 176.301 203.465C175.979 203.032 175.578 202.498 175.102 201.881C174.104 200.529 172.742 198.654 171.253 196.569C169.764 194.483 168.434 192.582 167.483 191.199L166.369 189.552C166.219 189.357 166.095 189.144 166 188.918Z" fill="#E0E0E0"/>
    <path d="M153.231 210.107C153.456 210.325 153.657 210.566 153.833 210.825L155.38 212.852C156.668 214.574 158.431 216.965 160.364 219.621C162.296 222.277 164.033 224.69 165.278 226.448L166.736 228.56C166.927 228.809 167.093 229.076 167.232 229.358C167.009 229.138 166.808 228.897 166.63 228.64L165.088 226.607C163.795 224.885 162.032 222.494 160.1 219.838C158.167 217.182 156.404 214.769 155.185 213.011L153.728 210.899C153.539 210.65 153.373 210.385 153.231 210.107Z" fill="#E0E0E0"/>
    <path d="M167.029 228.782C167.352 228.694 167.683 228.637 168.017 228.613L170.725 228.254C173.011 227.953 176.164 227.526 179.633 226.95C183.101 226.374 186.227 225.788 188.487 225.34L191.169 224.812C191.494 224.732 191.824 224.679 192.157 224.653C191.847 224.78 191.525 224.876 191.196 224.938C190.573 225.102 189.665 225.318 188.556 225.572C186.301 226.1 183.175 226.712 179.701 227.283C176.227 227.853 173.064 228.249 170.767 228.492C169.622 228.608 168.692 228.698 168.048 228.74C167.71 228.782 167.369 228.796 167.029 228.782Z" fill="#E0E0E0"/>
    <path d="M197.705 83.6296C197.705 83.6296 194.674 87.5949 188.766 86.4703C185.112 85.7733 177.868 85.4143 176.933 88.1176L178.021 96.2647C181.208 95.5358 184.516 95.5088 187.715 96.1855C192.525 97.3418 199.474 93.9309 199.474 93.9309L197.705 83.6296Z" fill="#EBEBEB"/>
    <path d="M187.862 95.0398C187.3 94.9917 186.755 94.8233 186.264 94.546C185.774 94.2688 185.348 93.889 185.017 93.4327C184.686 92.9764 184.457 92.4541 184.346 91.9015C184.234 91.3488 184.243 90.7786 184.372 90.2297C184.9 88.255 187.857 87.3415 189.831 87.8854C190.302 88.013 190.743 88.2326 191.128 88.5314C191.514 88.8302 191.836 89.2024 192.077 89.6265C192.318 90.0505 192.473 90.5181 192.533 91.0023C192.592 91.4864 192.555 91.9775 192.424 92.4473C191.88 94.4009 189.905 95.2087 187.862 95.0398Z" fill="#F5F5F5"/>
    <path d="M187.277 93.5676C187.277 93.5043 187.446 93.4831 187.71 93.4673C188.066 93.4683 188.42 93.4257 188.766 93.3406C188.97 93.2811 189.162 93.1844 189.331 93.0554C189.492 92.9364 189.604 92.7611 189.642 92.5642C189.656 92.4683 189.647 92.3705 189.616 92.2787C189.584 92.187 189.532 92.1039 189.463 92.0361C189.262 91.8938 189.016 91.8299 188.771 91.8565H188.243C188.022 91.8464 187.805 91.8 187.599 91.7192C187.485 91.6732 187.378 91.6109 187.282 91.5344C187.18 91.4558 187.091 91.3613 187.018 91.2545C186.888 91.051 186.818 90.8147 186.818 90.5732C186.82 90.3642 186.873 90.1589 186.973 89.9749C187.072 89.791 187.214 89.6338 187.388 89.5169C187.648 89.3375 187.95 89.2267 188.264 89.1948C188.499 89.1616 188.737 89.1616 188.972 89.1948C189.138 89.2221 189.303 89.2627 189.463 89.3163C189.727 89.4113 189.859 89.4958 189.848 89.5539C189.838 89.612 189.679 89.6437 189.415 89.6595C189.06 89.662 188.706 89.7027 188.359 89.781C188.166 89.8388 187.986 89.9359 187.831 90.0662C187.761 90.1212 187.705 90.1931 187.67 90.2753C187.635 90.3575 187.622 90.4473 187.631 90.5362C187.635 90.6179 187.663 90.6966 187.71 90.7633C187.734 90.7921 187.763 90.8171 187.794 90.8373C187.831 90.8645 187.872 90.8859 187.916 90.9006C188.21 90.9661 188.512 90.9892 188.813 90.9693C189.027 90.9734 189.24 91.0018 189.447 91.0538C189.564 91.0871 189.678 91.1332 189.785 91.1911C189.896 91.2516 189.997 91.3281 190.086 91.4182C190.25 91.5865 190.369 91.7928 190.434 92.0186C190.498 92.2444 190.506 92.4827 190.455 92.7121C190.408 92.9062 190.323 93.089 190.204 93.2495C190.085 93.4101 189.936 93.5452 189.764 93.6469C189.5 93.8076 189.205 93.9085 188.898 93.9426C188.491 93.9814 188.081 93.9328 187.694 93.8C187.398 93.7155 187.266 93.6257 187.277 93.5676Z" fill="#EBEBEB"/>
    <path d="M189.324 94.5123C189.203 94.5123 188.95 93.208 188.754 91.5658C188.559 89.9236 188.501 88.5823 188.622 88.5665C188.744 88.5506 188.997 89.8708 189.192 91.513C189.388 93.1552 189.446 94.4701 189.324 94.5123Z" fill="#EBEBEB"/>
    <path d="M188.638 94.4178C188.522 94.4178 188.279 93.2348 188.11 91.7455C187.941 90.2563 187.888 89.0311 188.01 89.0205C188.131 89.01 188.374 90.2035 188.538 91.6927C188.701 93.182 188.759 94.4019 188.638 94.4178Z" fill="#EBEBEB"/>
    <g opacity="0.5">
        <path opacity="0.5" d="M178.712 95.3987L177.745 87.9803L177.803 87.9328C180.692 85.8208 186.019 86.7026 189.546 87.2939C190.153 87.3943 190.729 87.4893 191.225 87.5579C194.536 88.0226 197.001 85.4143 197.065 85.1186H197.329L198.527 93.0914L198.459 93.1389C196.662 94.2921 194.644 95.057 192.535 95.3843C190.425 95.7117 188.271 95.5943 186.209 95.0397C183.4 94.2213 178.896 95.3618 178.854 95.3723L178.712 95.3987ZM178.025 88.1018L178.933 95.0714C179.741 94.876 183.659 94.0154 186.283 94.7757C188.289 95.3147 190.385 95.4321 192.439 95.1204C194.493 94.8087 196.46 94.0747 198.216 92.9647L197.123 85.5357C196.959 85.723 196.782 85.8993 196.595 86.0637C196.014 86.5917 193.902 88.2391 191.178 87.8536C190.681 87.785 190.122 87.6899 189.493 87.5843C186.045 86.9719 180.834 86.1007 178.025 88.1018Z" fill="#FAFAFA"/>
    </g>
    <path d="M156.082 38.6602C156.082 38.6602 151.33 40.2442 147.106 36.0202C144.466 33.3802 138.658 29.0664 136.367 30.7718L132.718 38.1638C135.77 39.3368 138.529 41.1623 140.802 43.5125C144.149 47.1557 151.816 48.2064 151.816 48.2064L156.082 38.6602Z" fill="#EBEBEB"/>
    <path d="M141.563 42.6043C141.122 42.2514 140.763 41.8078 140.51 41.3036C140.257 40.7994 140.116 40.2465 140.096 39.6827C140.076 39.1189 140.177 38.5574 140.394 38.0365C140.611 37.5156 140.937 37.0475 141.351 36.6643C142.904 35.3285 145.855 36.2155 147.191 37.7678C147.51 38.1369 147.753 38.5655 147.906 39.0288C148.058 39.4922 148.118 39.9812 148.08 40.4676C148.043 40.9541 147.91 41.4283 147.688 41.863C147.467 42.2977 147.161 42.6842 146.79 43.0003C145.238 44.352 143.147 43.9032 141.563 42.6043Z" fill="#F5F5F5"/>
    <path d="M141.885 41.0732C141.932 41.0256 142.075 41.0732 142.297 41.2316C142.589 41.4241 142.902 41.5818 143.231 41.7015C143.433 41.7708 143.647 41.7977 143.859 41.7807C144.058 41.7724 144.247 41.6894 144.387 41.5484C144.45 41.477 144.495 41.3923 144.52 41.3008C144.544 41.2093 144.548 41.1134 144.53 41.0204C144.498 40.8567 144.335 40.6772 144.055 40.4924C143.923 40.3973 143.77 40.297 143.611 40.1756C143.433 40.0461 143.277 39.8872 143.152 39.7056C143.084 39.6001 143.029 39.4866 142.988 39.3677C142.931 39.1914 142.916 39.0043 142.943 38.8211C142.971 38.6379 143.04 38.4635 143.147 38.3117C143.272 38.1302 143.441 37.9832 143.638 37.884C143.817 37.7957 144.013 37.7487 144.213 37.7468C144.529 37.7444 144.839 37.8225 145.116 37.9738C145.326 38.0843 145.519 38.2228 145.692 38.3856C145.814 38.5035 145.927 38.6306 146.029 38.7658C146.193 38.9876 146.257 39.1301 146.214 39.1724C146.172 39.2146 146.029 39.1724 145.797 39.0192C145.505 38.8277 145.194 38.6684 144.868 38.544C144.672 38.4794 144.466 38.4561 144.261 38.4754C144.172 38.482 144.086 38.5112 144.011 38.5601C143.936 38.6091 143.875 38.6762 143.833 38.7552C143.792 38.8255 143.771 38.9061 143.775 38.9876C143.776 39.0242 143.785 39.0602 143.801 39.0932C143.818 39.1357 143.839 39.1764 143.865 39.2146C144.073 39.4336 144.311 39.6221 144.572 39.7743C144.747 39.8969 144.909 40.0386 145.053 40.1967C145.13 40.2898 145.197 40.3907 145.253 40.4976C145.313 40.6098 145.354 40.7311 145.375 40.8567C145.419 41.0871 145.404 41.3249 145.332 41.5482C145.26 41.7715 145.133 41.9731 144.963 42.1344C144.815 42.2696 144.642 42.3738 144.453 42.4409C144.265 42.508 144.065 42.5366 143.865 42.5252C143.557 42.5089 143.257 42.428 142.983 42.2876C142.622 42.0951 142.308 41.8245 142.064 41.4956C141.901 41.2632 141.842 41.1101 141.885 41.0732Z" fill="#EBEBEB"/>
    <path d="M143.087 42.9792C142.982 42.9211 143.505 41.6856 144.265 40.2178C145.025 38.7499 145.722 37.5778 145.849 37.657C145.976 37.7362 145.432 38.9506 144.677 40.4184C143.922 41.8863 143.177 43.032 143.087 42.9792Z" fill="#EBEBEB"/>
    <path d="M142.559 42.5357C142.454 42.4829 142.924 41.353 143.615 40.0224C144.307 38.6919 144.946 37.6517 145.057 37.7098C145.168 37.7679 144.693 38.8925 144.001 40.2231C143.309 41.5536 142.649 42.5938 142.559 42.5357Z" fill="#EBEBEB"/>
    <g opacity="0.5">
        <path opacity="0.5" d="M133.753 37.8048L137.101 31.1097H137.174C140.754 30.9619 144.677 34.679 147.275 37.1342C147.719 37.5619 148.141 37.9579 148.516 38.2958C151.003 40.5293 154.503 39.7426 154.725 39.5314L154.947 39.6686L151.457 46.9445H151.372C149.246 46.897 147.154 46.4073 145.227 45.5064C143.301 44.6055 141.583 43.3133 140.184 41.712C138.31 39.468 133.938 37.8945 133.896 37.8787L133.753 37.8048ZM137.28 31.3685L134.112 37.6569C134.888 37.9526 138.621 39.4257 140.374 41.5219C141.738 43.0884 143.411 44.3558 145.288 45.2445C147.166 46.1331 149.207 46.6239 151.283 46.6858L154.54 39.8851C154.305 39.9501 154.065 39.9995 153.822 40.0329C153.051 40.1333 150.374 40.3286 148.326 38.4912C147.956 38.1533 147.529 37.752 147.08 37.3243C144.551 34.9166 140.712 31.2787 137.28 31.3685Z" fill="#FAFAFA"/>
    </g>
    <path d="M89.3957 74.5483C89.3957 74.5483 84.4114 74.2051 82.0987 68.6558C80.6626 65.2238 76.956 58.9934 74.1787 59.6798L67.9853 65.0866C70.3528 67.3445 72.1981 70.0926 73.392 73.1386C75.0869 77.7902 81.7608 81.7027 81.7608 81.7027L89.3957 74.5483Z" fill="#F5F5F5"/>
    <path d="M74.448 72.6159C74.1786 72.1196 74.0196 71.571 73.9817 71.0076C73.9439 70.4442 74.0281 69.8793 74.2286 69.3515C74.4291 68.8236 74.7412 68.3453 75.1436 67.9491C75.5459 67.5529 76.0291 67.2483 76.56 67.056C78.5083 66.4224 80.8896 68.376 81.5285 70.3243C81.6808 70.7871 81.7401 71.2754 81.703 71.7612C81.6658 72.247 81.5331 72.7206 81.3123 73.1549C81.0914 73.5891 80.7869 73.9755 80.4163 74.2916C80.0456 74.6078 79.6161 74.8476 79.1525 74.9971C77.1989 75.6307 75.4353 74.448 74.448 72.6159Z" fill="#EBEBEB"/>
    <path d="M75.3561 71.3275C75.4142 71.3275 75.5198 71.4226 75.6729 71.6338C75.8693 71.9227 76.0978 72.1884 76.3541 72.4258C76.5095 72.5623 76.6884 72.6697 76.8821 72.7426C77.0677 72.8118 77.272 72.8118 77.4576 72.7426C77.5441 72.7008 77.6197 72.6395 77.6783 72.5634C77.737 72.4873 77.7771 72.3986 77.7955 72.3043C77.8041 72.059 77.7235 71.8188 77.5685 71.6285C77.4787 71.4859 77.3731 71.3381 77.2781 71.1638C77.1639 70.9745 77.0818 70.7675 77.0352 70.5514C77.0166 70.4288 77.0166 70.3043 77.0352 70.1818C77.0411 70.0522 77.0716 69.925 77.1249 69.8069C77.2229 69.5896 77.3827 69.406 77.5843 69.2789C77.7683 69.1559 77.9813 69.0831 78.2021 69.0677C78.4001 69.0588 78.5979 69.0911 78.7829 69.1627C79.0756 69.2812 79.3335 69.4719 79.5326 69.7171C79.6858 69.8977 79.8105 70.1007 79.9022 70.319C79.9739 70.4734 80.0305 70.6343 80.0712 70.7995C80.1398 71.0688 80.1451 71.2272 80.0712 71.2483C79.9973 71.2694 79.9022 71.1638 79.7438 70.9474C79.5485 70.6576 79.3219 70.3902 79.068 70.1501C78.9136 70.017 78.7341 69.9165 78.54 69.8544C78.452 69.8209 78.3566 69.8116 78.2638 69.8274C78.1709 69.8431 78.084 69.8835 78.012 69.9442C77.9473 69.9948 77.8979 70.0624 77.8694 70.1395C77.8614 70.176 77.8614 70.2139 77.8694 70.2504C77.8648 70.296 77.8648 70.342 77.8694 70.3877C77.9773 70.6694 78.1249 70.9344 78.3077 71.1744C78.4239 71.3542 78.5179 71.5474 78.5875 71.7499C78.6245 71.8647 78.6476 71.9834 78.6561 72.1037C78.6747 72.2297 78.6747 72.3578 78.6561 72.4838C78.606 72.7131 78.4996 72.9262 78.3466 73.1041C78.1936 73.282 77.9988 73.419 77.7797 73.5029C77.5925 73.5704 77.3937 73.5996 77.1951 73.5887C76.9964 73.5778 76.802 73.5271 76.6233 73.4395C76.3428 73.3102 76.0941 73.121 75.8947 72.8851C75.6434 72.5662 75.4633 72.1971 75.3667 71.8027C75.2981 71.507 75.3033 71.3486 75.3561 71.3275Z" fill="#F5F5F5"/>
    <path d="M75.7152 73.5452C75.636 73.4501 76.597 72.4892 77.8589 71.4332C79.1208 70.3772 80.2138 69.5746 80.2877 69.6696C80.3616 69.7647 79.4059 70.7256 78.144 71.7816C76.8821 72.8376 75.7944 73.6349 75.7152 73.5452Z" fill="#F5F5F5"/>
    <path d="M75.3984 72.9327C75.3192 72.8429 76.1851 71.9823 77.3309 71.0107C78.4766 70.0392 79.4745 69.337 79.5485 69.4267C79.6224 69.5165 78.7617 70.3824 77.616 71.3487C76.4702 72.3149 75.504 73.0277 75.3984 72.9327Z" fill="#F5F5F5"/>
    <g opacity="0.5">
        <path opacity="0.5" d="M69.1046 65.1921L74.7595 60.2923H74.8334C78.1968 61.5331 80.388 66.4699 81.84 69.7382C82.0934 70.2979 82.331 70.8312 82.5422 71.28C83.9836 74.3054 87.5159 74.9179 87.8222 74.807L87.9753 75.0182L81.9614 80.4038L81.8822 80.3669C79.937 79.5022 78.193 78.2421 76.7613 76.6668C75.3296 75.0915 74.2415 73.2354 73.5662 71.2166C72.7003 68.4235 69.2683 65.2925 69.2313 65.2608L69.1046 65.1921ZM74.8123 60.5933L69.4953 65.1974C70.1078 65.7624 72.9854 68.5555 73.7985 71.1638C74.4537 73.1376 75.5107 74.9542 76.9029 76.499C78.2951 78.0439 79.9923 79.2836 81.8875 80.1398L87.5054 75.1132C87.263 75.0826 87.023 75.0349 86.7873 74.9707C86.0375 74.7701 83.4873 73.9147 82.3046 71.4384C82.0881 70.9843 81.8558 70.451 81.6024 69.8861C80.182 66.6653 78.0331 61.8393 74.8123 60.5933Z" fill="#EBEBEB"/>
    </g>
    <path d="M53.5445 121.266C53.1403 122.332 52.4555 123.27 51.5624 123.98C50.6693 124.69 49.601 125.146 48.4704 125.299C45.9413 125.748 41.1787 127.311 41.2368 129.281L43.9507 134.27C45.8279 133.015 47.9556 132.182 50.1864 131.831C53.5762 131.393 57.2194 127.48 57.2194 127.48L53.5445 121.266Z" fill="#F5F5F5"/>
    <path d="M49.9963 131.039C49.6217 131.146 49.2283 131.172 48.843 131.114C48.4576 131.056 48.0892 130.915 47.7628 130.703C47.4363 130.49 47.1594 130.209 46.9508 129.88C46.7422 129.551 46.6068 129.181 46.5537 128.795C46.4165 127.385 48.0955 126.07 49.5053 125.938C50.1822 125.874 50.8572 126.08 51.382 126.513C51.9067 126.945 52.2382 127.569 52.3037 128.246C52.4357 129.655 51.3585 130.659 49.9963 131.039Z" fill="#EBEBEB"/>
    <path d="M49.2571 130.247C49.2571 130.205 49.3469 130.152 49.5159 130.078C49.7387 129.989 49.9512 129.875 50.1495 129.74C50.2677 129.652 50.3681 129.543 50.4451 129.418C50.5216 129.303 50.55 129.163 50.5243 129.027C50.5092 128.963 50.4794 128.902 50.4373 128.851C50.3952 128.8 50.3419 128.759 50.2815 128.731C50.1167 128.69 49.9426 128.709 49.7904 128.784C49.6795 128.826 49.5634 128.874 49.4314 128.911C49.2872 128.962 49.1353 128.987 48.9826 128.985C48.8967 128.981 48.8116 128.967 48.7291 128.943C48.6442 128.917 48.564 128.878 48.4915 128.826C48.359 128.726 48.2568 128.591 48.1959 128.436C48.1438 128.29 48.1275 128.135 48.1483 127.982C48.171 127.847 48.2233 127.719 48.3015 127.607C48.4236 127.426 48.5911 127.28 48.7872 127.184C48.9329 127.108 49.0897 127.054 49.2519 127.026C49.3651 127.004 49.4798 126.99 49.5951 126.984C49.7904 126.984 49.896 126.984 49.9013 127.042C49.9066 127.1 49.8168 127.142 49.6531 127.216C49.4285 127.305 49.2143 127.418 49.0143 127.554C48.897 127.636 48.801 127.744 48.7344 127.871C48.7048 127.924 48.6893 127.984 48.6893 128.045C48.6893 128.106 48.7048 128.166 48.7344 128.219C48.7564 128.271 48.7931 128.315 48.84 128.346L48.9139 128.378H49.009C49.2154 128.346 49.4163 128.286 49.6056 128.198C49.744 128.149 49.8874 128.115 50.0333 128.098C50.1175 128.087 50.2026 128.087 50.2867 128.098C50.3734 128.106 50.4577 128.131 50.5349 128.172C50.6821 128.239 50.8103 128.342 50.908 128.471C51.0057 128.6 51.0698 128.751 51.0946 128.911C51.1278 129.188 51.05 129.467 50.8781 129.687C50.7485 129.856 50.5825 129.993 50.3923 130.088C50.1403 130.218 49.8623 130.288 49.5792 130.294C49.3733 130.315 49.2677 130.289 49.2571 130.247Z" fill="#F5F5F5"/>
    <path d="M50.8041 130.337C49.9873 129.217 49.3414 127.982 48.8875 126.672C49.336 127.205 49.7059 127.798 49.9857 128.436C50.353 129.024 50.6289 129.665 50.8041 130.337Z" fill="#F5F5F5"/>
    <path d="M50.3501 130.458C50.2709 130.5 49.8221 129.787 49.3416 128.874C49.005 128.338 48.7572 127.752 48.6077 127.137C49.0247 127.608 49.3634 128.143 49.6109 128.721C49.9466 129.258 50.1961 129.844 50.3501 130.458Z" fill="#F5F5F5"/>
    <g opacity="0.5">
        <path opacity="0.5" d="M44.1778 133.542L41.712 128.991V128.943C43.0532 126.863 46.7122 126.124 49.1357 125.638C49.5528 125.553 49.9488 125.474 50.2867 125.395C51.0261 125.2 51.7043 124.822 52.2581 124.295C52.812 123.767 53.2236 123.109 53.4547 122.38L53.6184 122.311L56.3429 127.18L56.3112 127.222C55.4348 128.403 54.3222 129.388 53.044 130.115C51.7659 130.843 50.3504 131.296 48.8875 131.446C46.8759 131.61 44.2464 133.452 44.22 133.473L44.1778 133.542ZM41.9391 129.001L44.2412 133.278C44.7164 132.951 47.0343 131.43 48.9139 131.277C50.3423 131.129 51.7246 130.687 52.974 129.979C54.2234 129.272 55.3129 128.313 56.1739 127.164L53.629 122.618C53.5732 122.778 53.5043 122.933 53.4231 123.082C53.1161 123.688 52.6854 124.223 52.1588 124.653C51.6322 125.082 51.0215 125.396 50.3659 125.575C50.028 125.654 49.632 125.733 49.2149 125.817C46.8389 126.293 43.2591 127.016 41.9391 129.001Z" fill="#EBEBEB"/>
    </g>
    <path d="M246.862 75.8313C245.911 76.4611 244.807 76.8225 243.668 76.8774C242.528 76.9322 241.395 76.6784 240.388 76.1429C238.07 75.0288 233.292 73.5029 232.194 75.1449L231.476 80.784C233.734 80.8575 235.949 81.4252 237.965 82.4472C240.974 84.0682 246.217 83.0227 246.217 83.0227L246.862 75.8313Z" fill="#F5F5F5"/>
    <path d="M238.271 81.6922C237.904 81.5606 237.57 81.3516 237.291 81.0793C237.012 80.8069 236.795 80.4777 236.655 80.1139C236.514 79.7502 236.454 79.3605 236.478 78.9713C236.502 78.5822 236.609 78.2028 236.793 77.8589C237.506 76.6392 239.633 76.5495 240.853 77.2623C241.144 77.4315 241.399 77.6565 241.603 77.9244C241.807 78.1923 241.956 78.4979 242.042 78.8235C242.128 79.1492 242.149 79.4886 242.103 79.8223C242.058 80.156 241.947 80.4774 241.777 80.7682C241.064 81.9931 239.602 82.1832 238.271 81.6922Z" fill="#EBEBEB"/>
    <path d="M238.129 80.6149C238.129 80.5779 238.255 80.6149 238.435 80.6149C238.668 80.6748 238.907 80.7067 239.148 80.7099C239.294 80.7061 239.439 80.6757 239.575 80.6202C239.703 80.5687 239.808 80.4731 239.871 80.3509C239.895 80.2897 239.906 80.2237 239.901 80.1579C239.897 80.0921 239.877 80.0281 239.845 79.9708C239.734 79.8406 239.58 79.7545 239.412 79.728C239.301 79.6963 239.179 79.6646 239.047 79.6171C238.902 79.572 238.765 79.5044 238.641 79.4165C238.574 79.3635 238.514 79.3033 238.461 79.237C238.408 79.1648 238.367 79.0846 238.34 78.9995C238.292 78.8393 238.292 78.6687 238.34 78.5085C238.38 78.3608 238.458 78.2261 238.567 78.1179C238.662 78.0186 238.78 77.9442 238.91 77.9014C239.114 77.8278 239.334 77.8061 239.549 77.8381C239.711 77.8643 239.869 77.9123 240.019 77.9806C240.124 78.0308 240.226 78.0872 240.325 78.1495C240.483 78.2604 240.557 78.3396 240.542 78.3765C240.526 78.4135 240.415 78.4082 240.235 78.3765C240 78.318 239.759 78.2843 239.517 78.2762C239.375 78.2783 239.234 78.3107 239.105 78.3713C239.049 78.3952 239 78.4329 238.962 78.4809C238.924 78.5288 238.899 78.5855 238.889 78.6458C238.873 78.6991 238.873 78.7561 238.889 78.8094C238.898 78.8351 238.912 78.8586 238.931 78.8781C238.95 78.903 238.973 78.9244 239 78.9414C239.184 79.0385 239.381 79.1079 239.586 79.1473C239.73 79.1848 239.869 79.2417 239.998 79.3162C240.069 79.359 240.136 79.4085 240.198 79.464C240.258 79.5267 240.312 79.5957 240.357 79.6699C240.434 79.8125 240.475 79.9722 240.475 80.1345C240.475 80.2968 240.434 80.4565 240.357 80.5991C240.293 80.724 240.205 80.835 240.098 80.9257C239.991 81.0163 239.867 81.0847 239.734 81.127C239.528 81.1854 239.312 81.2016 239.1 81.1745C238.822 81.1281 238.557 81.0218 238.324 80.863C238.192 80.7363 238.129 80.6519 238.129 80.6149Z" fill="#F5F5F5"/>
    <path d="M239.343 81.5963C239.288 80.9031 239.336 80.2056 239.486 79.5265C239.532 78.8325 239.682 78.1492 239.929 77.499C239.978 78.1922 239.93 78.8888 239.787 79.5688C239.74 80.2628 239.59 80.9461 239.343 81.5963Z" fill="#F5F5F5"/>
    <path d="M238.899 81.4284C238.837 80.7997 238.876 80.1649 239.016 79.5487C239.052 78.9174 239.193 78.2965 239.433 77.7113C239.492 78.3401 239.453 78.9743 239.317 79.591C239.276 80.2217 239.135 80.842 238.899 81.4284Z" fill="#F5F5F5"/>
    <g opacity="0.5">
        <path opacity="0.5" d="M232.088 80.3246L232.759 75.1978H232.812C235.114 74.2896 238.514 75.8314 240.769 76.8504C241.154 77.0246 241.518 77.1936 241.825 77.3256C242.539 77.5993 243.311 77.6882 244.069 77.5839C244.826 77.4796 245.546 77.1855 246.159 76.729L246.334 76.7659L245.7 82.3099H245.647C244.246 82.7579 242.767 82.909 241.304 82.7535C239.842 82.5981 238.427 82.1395 237.152 81.407C235.42 80.351 232.21 80.3246 232.178 80.3246H232.088ZM232.928 75.3298L232.294 80.1451C232.87 80.1451 235.642 80.2771 237.257 81.2486C238.502 81.9651 239.882 82.4156 241.31 82.5719C242.737 82.7282 244.182 82.5869 245.552 82.1568L246.138 76.9771C246.001 77.0747 245.856 77.1613 245.705 77.2358C245.102 77.5482 244.439 77.7307 243.761 77.7716C243.083 77.8126 242.403 77.711 241.766 77.4734L240.71 76.993C238.488 75.9951 235.161 74.4902 232.928 75.3298Z" fill="#EBEBEB"/>
    </g>
    <path d="M251.554 242.785C251.554 242.864 198.026 242.928 132.005 242.928C65.9839 242.928 12.4449 242.88 12.4449 242.785C12.4449 242.69 65.9628 242.648 132.005 242.648C198.047 242.648 251.554 242.711 251.554 242.785Z" fill="#263238"/>
    <path d="M119.956 126.905C119.152 125.169 118.521 123.358 118.071 121.498C117.621 119.623 117.737 117.657 118.404 115.849C118.746 114.952 119.301 114.153 120.021 113.519C120.742 112.885 121.605 112.436 122.538 112.211C123.694 111.984 124.935 112.174 126.044 111.767C127.327 111.292 128.182 110.114 129.18 109.18C130.759 107.716 132.768 106.801 134.909 106.572C136.027 106.414 137.166 106.579 138.193 107.047C138.701 107.286 139.141 107.651 139.47 108.106C139.8 108.561 140.009 109.092 140.078 109.65C141.368 109.154 142.717 108.829 144.091 108.684C145.48 108.543 146.868 108.955 147.956 109.829C148.484 110.276 148.855 110.879 149.016 111.552C149.176 112.224 149.118 112.931 148.848 113.568C149.434 113.279 150.105 113.218 150.733 113.395C151.361 113.573 151.901 113.976 152.249 114.528C152.573 115.1 152.725 115.753 152.686 116.408C152.648 117.064 152.421 117.695 152.032 118.225C151.066 119.379 149.72 120.152 148.236 120.405C146.947 120.585 145.448 120.706 144.218 120.294" fill="#263238"/>
    <path d="M123.108 164.102L141.588 162.624C141.704 160.464 141.551 152.117 141.551 152.117C141.551 152.117 149.239 150.918 149.334 143.231C149.429 135.543 148.098 117.887 148.098 117.887C143.727 116.007 138.934 115.329 134.213 115.922C129.492 116.515 125.015 118.358 121.244 121.26L120.104 122.137L123.108 164.102Z" fill="#B78876"/>
    <path d="M141.567 152.006C138.014 152.074 134.521 151.081 131.535 149.155C131.535 149.155 133.906 154.688 141.567 153.996V152.006Z" fill="#AA6550"/>
    <path d="M121.054 130.104C120.927 130.046 115.774 128.52 115.943 133.8C116.112 139.08 121.35 137.808 121.355 137.655C121.36 137.502 121.054 130.104 121.054 130.104Z" fill="#B78876"/>
    <path d="M119.687 135.696C119.687 135.696 119.597 135.759 119.444 135.839C119.229 135.937 118.985 135.949 118.763 135.87C118.198 135.685 117.707 134.814 117.649 133.874C117.62 133.424 117.692 132.973 117.86 132.554C117.904 132.388 117.989 132.236 118.105 132.11C118.222 131.984 118.368 131.888 118.53 131.831C118.632 131.806 118.739 131.815 118.834 131.857C118.93 131.899 119.009 131.971 119.058 132.063C119.132 132.206 119.101 132.311 119.127 132.322C119.153 132.333 119.238 132.227 119.19 132.016C119.157 131.886 119.081 131.77 118.974 131.688C118.82 131.582 118.63 131.541 118.446 131.572C118.232 131.623 118.034 131.727 117.872 131.874C117.709 132.022 117.587 132.209 117.517 132.417C117.305 132.88 117.213 133.388 117.247 133.896C117.311 134.952 117.886 135.928 118.652 136.124C118.795 136.161 118.944 136.165 119.088 136.135C119.233 136.106 119.369 136.044 119.486 135.955C119.681 135.839 119.708 135.696 119.687 135.696Z" fill="#AA6550"/>
    <path d="M145.58 129.803C145.581 130.089 145.472 130.363 145.275 130.569C145.078 130.775 144.809 130.896 144.524 130.907C144.384 130.918 144.244 130.901 144.111 130.857C143.978 130.813 143.855 130.743 143.75 130.651C143.644 130.559 143.558 130.447 143.496 130.322C143.434 130.196 143.397 130.059 143.389 129.92C143.386 129.634 143.494 129.358 143.692 129.151C143.889 128.944 144.159 128.822 144.445 128.811C144.585 128.8 144.725 128.817 144.859 128.862C144.992 128.906 145.115 128.976 145.221 129.069C145.326 129.161 145.413 129.274 145.474 129.4C145.536 129.526 145.572 129.663 145.58 129.803Z" fill="#263238"/>
    <path d="M146.646 128.7C146.509 128.848 145.68 128.23 144.497 128.235C143.315 128.241 142.449 128.827 142.322 128.684C142.195 128.542 142.396 128.362 142.776 128.082C143.289 127.731 143.897 127.547 144.519 127.554C145.13 127.548 145.728 127.732 146.229 128.082C146.588 128.378 146.715 128.637 146.646 128.7Z" fill="#263238"/>
    <path d="M133.964 129.803C133.965 130.089 133.856 130.363 133.659 130.569C133.462 130.775 133.193 130.896 132.908 130.907C132.768 130.918 132.628 130.901 132.495 130.857C132.362 130.813 132.239 130.743 132.134 130.651C132.028 130.559 131.942 130.447 131.88 130.322C131.818 130.196 131.781 130.059 131.773 129.92C131.77 129.634 131.878 129.358 132.076 129.151C132.273 128.944 132.543 128.822 132.829 128.811C132.969 128.8 133.109 128.817 133.243 128.862C133.376 128.906 133.499 128.976 133.605 129.069C133.71 129.161 133.797 129.274 133.858 129.4C133.92 129.526 133.956 129.663 133.964 129.803Z" fill="#263238"/>
    <path d="M135.03 128.922C134.893 129.064 134.064 128.452 132.881 128.452C131.699 128.452 130.833 129.048 130.706 128.901C130.643 128.837 130.78 128.579 131.16 128.304C131.672 127.951 132.281 127.766 132.903 127.776C133.514 127.767 134.113 127.952 134.613 128.304C134.972 128.6 135.099 128.858 135.03 128.922Z" fill="#263238"/>
    <path d="M139.318 137.687C139.941 137.489 140.587 137.372 141.24 137.338C141.541 137.306 141.826 137.248 141.879 137.042C141.901 136.732 141.831 136.421 141.678 136.15L140.786 133.848C139.545 130.58 138.647 127.887 138.779 127.839C138.911 127.792 140.025 130.405 141.261 133.647C141.56 134.453 141.845 135.224 142.116 135.96C142.307 136.323 142.363 136.742 142.275 137.143C142.231 137.249 142.164 137.345 142.078 137.422C141.992 137.499 141.889 137.555 141.778 137.586C141.606 137.633 141.429 137.656 141.25 137.655C140.61 137.749 139.961 137.76 139.318 137.687Z" fill="#263238"/>
    <path d="M135.843 138.505C136.034 138.505 136.039 139.772 137.137 140.686C138.235 141.599 139.598 141.456 139.608 141.636C139.608 141.715 139.302 141.884 138.726 141.9C137.975 141.908 137.244 141.652 136.662 141.177C136.103 140.721 135.744 140.066 135.659 139.35C135.611 138.811 135.754 138.494 135.843 138.505Z" fill="#263238"/>
    <path d="M146.213 126.625C146.002 126.889 145.189 126.625 144.212 126.625C143.235 126.625 142.401 126.804 142.211 126.525C142.127 126.387 142.259 126.118 142.623 125.865C143.11 125.561 143.675 125.408 144.249 125.426C144.822 125.444 145.377 125.631 145.844 125.965C146.192 126.192 146.303 126.493 146.213 126.625Z" fill="#263238"/>
    <path d="M133.494 124.65C133.362 124.798 133.061 124.735 132.665 124.65C131.706 124.422 130.711 124.389 129.74 124.555C129.339 124.603 129.032 124.645 128.911 124.492C128.789 124.339 128.911 124.011 129.323 123.673C129.882 123.267 130.562 123.059 131.253 123.082C131.945 123.105 132.609 123.357 133.14 123.8C133.526 124.175 133.621 124.518 133.494 124.65Z" fill="#263238"/>
    <path d="M148.484 120.247C144.783 121.252 140.859 121.052 137.28 119.677C133.293 118.166 128.779 117.691 127.881 118.552C126.984 119.413 127.174 123.341 123.531 124.861C123.531 124.861 124.544 132.29 121.545 132.322C118.546 132.354 119.238 120.622 119.238 120.622L126.149 116.334L133.922 114.048L141.356 113.298L148.484 114.724V120.247Z" fill="#263238"/>
    <path d="M168.342 181.775C168.342 181.775 181.732 195.561 186.452 193.512C199.288 187.968 209.721 176.225 213.312 172.017C213.465 171.225 213.618 170.296 213.75 169.187C213.861 168.229 213.807 167.26 213.591 166.32C213.374 165.136 212.994 163.989 212.462 162.909C211.875 161.964 212.72 160.829 213.644 161.214C214.568 161.6 216.812 164.097 217.282 167.614C217.339 167.814 217.439 168 217.575 168.159C217.711 168.317 217.879 168.444 218.069 168.531C218.259 168.618 218.465 168.663 218.674 168.662C218.883 168.661 219.089 168.615 219.278 168.527C221.601 167.761 229.495 164.699 230.894 164.372C232.145 164.081 233.64 164.155 232.805 165.069C231.971 165.982 226.153 169.388 226.153 169.388C226.153 169.388 233.692 164.773 234.315 165.903C234.743 166.684 233.154 168.48 227.863 171.035C227.863 171.035 234.104 167.281 235.171 167.402C237.568 167.682 230.102 172.276 230.102 172.276C235.382 169.108 235.113 168.891 235.683 169.509C236.111 169.968 235.187 171.019 232.594 173.131C230.482 174.847 228.655 177.044 225.593 179.826C225.593 179.826 193.913 223.888 173.981 210.366C163.236 203.074 160.285 199.399 154.186 193.876" fill="#B78876"/>
    <path d="M226.977 174.24C227.057 174.372 228.709 173.469 230.673 172.218C232.638 170.966 234.158 169.847 234.068 169.72C233.979 169.594 232.326 170.502 230.372 171.748C228.419 172.994 226.903 174.124 226.977 174.24Z" fill="#AA6550"/>
    <path d="M225.547 172.366C225.621 172.498 227.442 171.632 229.607 170.428C231.772 169.224 233.467 168.142 233.393 168.004C233.319 167.867 231.502 168.738 229.332 169.942C227.162 171.146 225.457 172.228 225.547 172.366Z" fill="#AA6550"/>
    <path d="M224.073 170.391C224.147 170.528 225.879 169.736 227.944 168.627C230.008 167.519 231.64 166.515 231.55 166.368C231.46 166.22 229.744 167.022 227.68 168.131C225.615 169.24 223.999 170.254 224.073 170.391Z" fill="#AA6550"/>
    <path d="M89.068 192.72C89.068 192.72 82.3202 210.714 77.1775 210.73C63.1856 210.772 48.9349 204.209 43.9611 201.791C43.5071 201.126 42.9896 200.334 42.4247 199.373C41.9415 198.54 41.6024 197.631 41.4215 196.685C41.1514 195.512 41.0413 194.308 41.0941 193.105C41.2525 192.007 40.0381 191.3 39.3306 192.049C38.6231 192.799 37.5776 195.962 38.5597 199.373C38.5881 199.58 38.5712 199.79 38.5102 199.99C38.4492 200.189 38.3456 200.373 38.2065 200.529C38.0674 200.685 37.8962 200.808 37.7046 200.891C37.5131 200.974 37.3058 201.015 37.0972 201.01C34.6631 201.237 26.2046 201.59 24.7842 201.854C23.5223 202.092 22.1812 202.757 23.3111 203.259C24.1348 203.623 27.8942 204.141 29.89 204.394C27.4665 204.12 22.3502 203.65 22.2657 204.626C22.2129 205.202 23.1105 205.825 25.3228 206.253C23.8127 206.152 22.4505 206.131 22.0862 206.348C19.9742 207.562 28.6809 208.777 28.6809 208.777C22.5878 207.979 22.7303 207.689 22.4558 208.481C22.2499 209.072 23.5118 209.669 26.7378 210.593C29.3778 211.321 31.9122 212.594 35.8352 213.919C35.8352 213.919 82.5208 241.597 95.3565 221.227C102.279 210.244 103.514 205.693 106.888 198.185L89.068 192.72Z" fill="#B78876"/>
    <path d="M32.3347 209.304C32.3347 209.458 30.4392 209.304 28.1107 208.93C25.7822 208.555 23.9712 208.159 24.0029 208.006C24.0345 207.852 25.9142 208.006 28.2269 208.38C30.5395 208.755 32.3505 209.151 32.3347 209.304Z" fill="#AA6550"/>
    <path d="M32.8891 206.976C32.8891 207.129 30.8615 207.066 28.3958 206.833C25.93 206.601 23.9395 206.305 23.9553 206.126C23.9711 205.946 25.9775 206.041 28.4486 206.274C30.9196 206.506 32.8996 206.844 32.8891 206.976Z" fill="#AA6550"/>
    <path d="M33.4487 204.6C33.4487 204.753 31.5321 204.727 29.1931 204.531C26.854 204.336 24.9691 204.061 24.9691 203.908C24.9691 203.755 26.8857 203.787 29.2247 203.977C31.5638 204.167 33.4593 204.447 33.4487 204.6Z" fill="#AA6550"/>
    <path d="M184.14 193.554L162.053 168.907C155.902 162.862 152.618 161.056 144.059 160.042C142.66 159.878 141.546 159.773 140.749 159.672C134.335 161.7 127.452 161.7 121.038 159.672C117.992 159.799 115.468 160.728 112.881 161.256C104.718 162.84 98.8466 168.765 97.2151 174.251L78.8037 210.213L94.3533 223.281L108.557 200.735L109.422 224.733L108.541 242.685L163.057 242.843L160.58 200.746L175.253 212.689L184.14 193.554Z" fill="#FF6600"/>
    <path d="M108.805 185.629C108.86 185.893 108.883 186.162 108.874 186.432C108.874 186.96 108.911 187.688 108.927 188.612C108.927 190.45 108.964 192.995 108.927 195.804C108.89 198.612 108.879 201.157 108.837 202.995C108.837 203.919 108.789 204.663 108.768 205.176C108.775 205.444 108.748 205.711 108.689 205.973C108.631 205.711 108.606 205.443 108.615 205.176C108.615 204.648 108.578 203.914 108.562 202.995C108.536 201.152 108.525 198.612 108.562 195.798C108.599 192.984 108.61 190.45 108.652 188.607C108.652 187.688 108.7 186.944 108.726 186.426C108.716 186.158 108.743 185.89 108.805 185.629Z" fill="#263238"/>
    <path d="M161.504 216.48C161.42 216.073 161.367 215.66 161.346 215.245C161.267 214.379 161.166 213.238 161.04 211.865C160.802 209.009 160.512 205.059 160.195 200.698C159.878 196.337 159.625 192.409 159.456 189.552C159.387 188.174 159.324 187.028 159.281 186.162C159.247 185.748 159.247 185.331 159.281 184.916C159.37 185.323 159.424 185.736 159.445 186.152C159.524 187.018 159.625 188.158 159.746 189.531C159.984 192.387 160.274 196.337 160.596 200.698C160.918 205.059 161.161 209.009 161.33 211.871C161.404 213.249 161.462 214.394 161.51 215.26C161.54 215.666 161.538 216.074 161.504 216.48Z" fill="#263238"/>
    <g opacity="0.3">
        <path opacity="0.3" d="M169.589 177.202C169.589 177.276 153.046 177.339 132.629 177.339C112.211 177.339 95.6685 177.276 95.6685 177.202C95.6685 177.128 112.211 177.065 132.629 177.065C153.046 177.065 169.589 177.123 169.589 177.202Z" fill="#EBEBEB"/>
    </g>
    <g opacity="0.3">
        <path opacity="0.3" d="M175.296 199.104C175.296 199.183 155.137 199.241 130.279 199.241C105.42 199.241 85.2559 199.183 85.2559 199.104C85.2559 199.024 105.41 198.966 130.279 198.966C155.148 198.966 175.296 199.056 175.296 199.104Z" fill="#EBEBEB"/>
    </g>
    <g opacity="0.3">
        <path opacity="0.3" d="M161.948 224.078C161.948 224.157 150.243 224.215 135.802 224.215C121.361 224.215 109.655 224.157 109.655 224.078C109.655 223.999 121.361 223.941 135.802 223.941C150.243 223.941 161.948 224.004 161.948 224.078Z" fill="#EBEBEB"/>
    </g>
    <g opacity="0.3">
        <path opacity="0.3" d="M115.505 242.785C115.431 242.785 115.368 224.389 115.368 201.707C115.368 179.024 115.431 160.618 115.505 160.618C115.579 160.618 115.632 178.992 115.632 201.696C115.632 224.4 115.584 242.785 115.505 242.785Z" fill="#EBEBEB"/>
    </g>
    <g opacity="0.3">
        <path opacity="0.3" d="M147.1 242.79C147.1 242.79 147.1 242.716 147.1 242.579C147.1 242.442 147.1 242.215 147.1 241.951C147.1 241.391 147.1 240.583 147.074 239.554C147.074 237.442 147.032 234.437 147.005 230.725C146.937 223.254 146.842 212.964 146.741 201.596C146.641 190.228 146.567 179.916 146.562 172.461C146.562 168.765 146.562 165.734 146.562 163.632C146.562 162.576 146.562 161.795 146.588 161.235C146.588 160.971 146.588 160.76 146.588 160.607C146.582 160.537 146.582 160.466 146.588 160.396C146.588 160.396 146.588 160.47 146.588 160.607C146.588 160.744 146.588 160.971 146.588 161.235C146.588 161.795 146.588 162.603 146.615 163.632C146.615 165.744 146.657 168.743 146.683 172.461C146.752 179.927 146.847 190.223 146.947 201.596C147.048 212.969 147.122 223.244 147.127 230.72C147.127 234.416 147.127 237.452 147.127 239.554C147.127 240.583 147.127 241.391 147.127 241.951C147.127 242.215 147.127 242.421 147.127 242.579C147.125 242.65 147.116 242.721 147.1 242.79Z" fill="#EBEBEB"/>
    </g>
    <g opacity="0.3">
        <path opacity="0.3" d="M169.451 207.673C169.377 207.673 169.313 201.02 169.313 192.815C169.313 184.61 169.377 177.957 169.451 177.957C169.525 177.957 169.588 184.605 169.588 192.815C169.588 201.025 169.53 207.673 169.451 207.673Z" fill="#EBEBEB"/>
    </g>
    <g opacity="0.3">
        <path opacity="0.3" d="M90.7731 213.761C90.6938 213.761 90.6356 207.488 90.6356 199.748C90.6356 192.007 90.6938 185.729 90.7731 185.729C90.8525 185.729 90.9107 192.002 90.9107 199.748C90.9107 207.493 90.8472 213.761 90.7731 213.761Z" fill="#EBEBEB"/>
    </g>
    <path d="M119 160.396L122.01 154.07L131.868 161.019L141.593 154.482L145.015 160.037L135.268 166.373H128.752L119 161.13" fill="#FF6600"/>
    <path d="M131.868 161.04C131.809 161.066 131.747 161.083 131.683 161.093C131.501 161.115 131.323 161.163 131.155 161.235C130.546 161.483 130.032 161.917 129.687 162.476C129.153 163.311 128.698 164.195 128.33 165.116C128.098 165.644 127.865 166.172 127.57 166.737C127.279 167.323 126.896 167.858 126.435 168.321L126.34 168.411L126.244 168.311L125.685 167.73C123.731 165.681 122.068 163.733 120.933 162.286C120.352 161.563 119.877 160.971 119.592 160.554C119.418 160.348 119.266 160.125 119.138 159.889C119.333 160.07 119.51 160.27 119.666 160.486L121.07 162.165C122.263 163.574 123.948 165.502 125.891 167.54L126.45 168.12H126.26C126.705 167.679 127.072 167.167 127.348 166.605C127.638 166.077 127.876 165.523 128.114 165.021C128.501 164.096 128.981 163.211 129.544 162.381C129.922 161.807 130.479 161.374 131.128 161.151C131.299 161.093 131.477 161.061 131.656 161.056C131.799 161.008 131.868 161.008 131.868 161.04Z" fill="#263238"/>
    <path d="M144.841 160.158C144.704 160.386 144.543 160.599 144.36 160.792C144.028 161.188 143.542 161.748 142.908 162.408C141.243 164.126 139.425 165.688 137.475 167.075C137.047 167.376 136.62 167.666 136.208 167.936L136.018 168.057V167.825C135.898 166.713 135.628 165.622 135.215 164.583C134.909 163.74 134.469 162.952 133.911 162.249C133.551 161.775 133.067 161.41 132.512 161.193C132.121 161.061 131.884 161.045 131.889 161.019C131.894 160.993 131.947 161.019 132.058 161.019C132.222 161.024 132.386 161.051 132.544 161.098C133.134 161.29 133.656 161.647 134.048 162.128C134.642 162.832 135.114 163.632 135.442 164.493C135.877 165.556 136.163 166.673 136.292 167.814L136.081 167.709C136.488 167.434 136.91 167.149 137.338 166.848C139.275 165.472 141.097 163.941 142.787 162.27C143.441 161.631 143.948 161.093 144.302 160.723C144.465 160.52 144.646 160.331 144.841 160.158Z" fill="#263238"/>
    <path d="M135.616 242.79C135.616 242.79 135.616 242.716 135.616 242.579C135.616 242.442 135.616 242.225 135.616 241.961C135.616 241.407 135.616 240.61 135.585 239.591C135.585 237.516 135.527 234.538 135.479 230.863C135.374 223.497 135.136 213.323 134.624 202.092C134.112 190.861 133.404 180.708 132.839 173.364C132.543 169.699 132.311 166.732 132.142 164.662C132.063 163.648 132 162.856 131.952 162.302C131.952 162.038 131.92 161.837 131.915 161.684C131.907 161.614 131.907 161.543 131.915 161.473C131.915 161.473 131.915 161.542 131.947 161.679C131.979 161.816 131.984 162.038 132.015 162.297C132.074 162.851 132.153 163.643 132.253 164.657C132.459 166.706 132.728 169.673 133.04 173.348C133.658 180.687 134.386 190.846 134.904 202.081C135.421 213.317 135.622 223.492 135.68 230.863C135.711 234.559 135.711 237.531 135.68 239.591C135.68 240.61 135.68 241.407 135.68 241.961C135.68 242.225 135.68 242.426 135.68 242.579C135.666 242.651 135.644 242.722 135.616 242.79Z" fill="#263238"/>
    <g opacity="0.2">
        <path opacity="0.2" d="M131.635 161.04C132.834 161.721 133.277 163.236 133.283 164.609C133.288 165.982 132.961 167.355 133.077 168.728C133.076 169.088 133.158 169.444 133.318 169.767C133.477 170.091 133.709 170.373 133.995 170.592C134.83 171.12 135.891 170.623 136.746 170.153C138.584 169.145 140.442 168.115 141.947 166.647C142.667 165.906 143.227 165.024 143.59 164.056C143.953 163.089 144.113 162.056 144.059 161.024C141.525 163.743 138.969 165.385 136.197 167.529C135.999 166.082 135.525 164.686 134.803 163.416C134.085 162.17 133.066 160.882 131.635 161.04Z" fill="black"/>
    </g>
    <g opacity="0.2">
        <path opacity="0.2" d="M122.58 164.166C123.515 165.998 124.497 167.862 126.107 169.166C126.82 169.731 127.865 170.159 128.61 169.631C129.207 169.203 129.307 168.374 129.354 167.64C129.481 165.781 130.03 163.643 130.157 161.779C128.684 163.442 127.876 166.373 126.324 168.384C124.74 167.387 123.826 165.681 122.686 164.197" fill="black"/>
    </g>
    <g opacity="0.2">
        <path opacity="0.2" d="M170.544 208.56L177.899 194.88C175.723 195.096 174.261 197.15 173.147 199.03C172.033 200.909 170.665 202.995 168.506 203.37C167.006 203.628 165.507 202.958 164.197 202.176C162.888 201.395 161.62 200.471 160.131 200.144L170.544 208.56Z" fill="black"/>
    </g>
    <g opacity="0.2">
        <path opacity="0.2" d="M105.933 204.864C105.933 204.864 100.811 210.255 97.3579 211.047C95.6215 211.429 93.8237 211.439 92.0833 211.075C90.3429 210.711 88.6997 209.981 87.2623 208.935C87.042 208.742 86.7799 208.603 86.4966 208.528C86.3535 208.499 86.2045 208.525 86.0799 208.602C85.9554 208.678 85.8646 208.799 85.826 208.94C85.8317 209.069 85.8671 209.194 85.9294 209.307C85.9917 209.42 86.0792 209.516 86.1851 209.59C89.7052 212.867 93.3731 215.985 97.1889 218.946L105.933 204.864Z" fill="black"/>
    </g>
    <g opacity="0.2">
        <path opacity="0.2" d="M130.051 168.115C128.108 183.635 126.839 199.218 126.244 214.864C126.155 217.309 126.091 219.828 126.963 222.114C127.976 224.754 130.131 226.813 132.243 228.745C133.135 229.569 134.355 230.456 135.442 229.944C135.857 229.71 136.21 229.381 136.472 228.983C137.792 227.283 139.027 225.445 139.518 223.344C141.05 216.765 134.84 210.255 136.24 203.644" fill="black"/>
    </g>
    <path d="M129.55 162.714L134.212 162.592L135.458 165.1L133.964 169.293H130.157L128.14 165.539L129.55 162.714Z" fill="#455A64"/>
    <path d="M130.157 169.293L127.976 222.652L134.312 229.543L140.168 221.221L133.964 169.293H130.157Z" fill="#455A64"/>
    <path d="M133.742 169.367C133.156 169.423 132.565 169.423 131.978 169.367C131.392 169.404 130.803 169.385 130.22 169.308C131.377 169 132.596 169.02 133.742 169.367Z" fill="#263238"/>
    <path d="M134.745 163.495C134.592 163.794 134.393 164.067 134.154 164.303C133.622 164.909 133.035 165.464 132.401 165.961C131.772 166.461 131.098 166.903 130.389 167.281C130.105 167.462 129.793 167.594 129.465 167.672C129.428 167.598 130.78 166.901 132.232 165.745C133.684 164.588 134.682 163.437 134.745 163.495Z" fill="#263238"/>
    <path d="M134.539 174.504C133.848 175.381 133.087 176.2 132.264 176.954C131.502 177.773 130.674 178.527 129.787 179.208C130.479 178.331 131.242 177.511 132.068 176.759C132.827 175.939 133.654 175.185 134.539 174.504Z" fill="#263238"/>
    <path d="M134.861 178.348C134.08 179.315 133.227 180.222 132.311 181.062C131.462 181.971 130.546 182.814 129.571 183.586C130.353 182.618 131.205 181.709 132.121 180.866C132.971 179.96 133.887 179.118 134.861 178.348Z" fill="#EBEBEB"/>
    <path d="M135.463 181.896C134.542 183.003 133.551 184.05 132.496 185.031C131.503 186.078 130.445 187.062 129.328 187.976C130.249 186.867 131.24 185.818 132.295 184.836C133.286 183.788 134.344 182.806 135.463 181.896Z" fill="#263238"/>
    <path d="M135.881 185.634C134.866 186.831 133.786 187.971 132.644 189.046C131.564 190.181 130.419 191.253 129.217 192.258C130.226 191.059 131.305 189.922 132.448 188.851C133.529 187.713 134.675 186.639 135.881 185.634Z" fill="#EBEBEB"/>
    <path d="M136.277 189.399C135.177 190.681 134.01 191.904 132.781 193.063C131.614 194.289 130.38 195.449 129.085 196.537C130.183 195.244 131.35 194.01 132.581 192.841C133.747 191.626 134.981 190.476 136.277 189.399Z" fill="#263238"/>
    <path d="M136.752 193.079C136.81 193.132 135.083 194.932 132.908 197.102C130.732 199.272 128.916 200.983 128.863 200.93C130.077 199.525 131.362 198.182 132.712 196.907C134.888 194.737 136.694 193.026 136.752 193.079Z" fill="#EBEBEB"/>
    <path d="M137.148 196.838C137.2 196.891 135.347 198.818 133.013 201.147C130.68 203.475 128.742 205.308 128.689 205.255C128.636 205.202 130.484 203.275 132.818 200.952C135.152 198.628 137.09 196.786 137.148 196.838Z" fill="#263238"/>
    <path d="M137.612 200.534C137.665 200.587 135.685 202.646 133.193 205.123C130.701 207.599 128.636 209.568 128.583 209.516C128.531 209.463 130.505 207.404 133.003 204.927C135.5 202.451 137.554 200.482 137.612 200.534Z" fill="#EBEBEB"/>
    <path d="M137.903 204.399C137.955 204.452 135.854 206.633 133.209 209.262C130.563 211.892 128.378 213.988 128.319 213.935C128.261 213.882 130.368 211.702 133.013 209.072C135.659 206.443 137.85 204.336 137.903 204.399Z" fill="#263238"/>
    <path d="M138.415 208.032C138.468 208.085 136.25 210.382 133.462 213.159C130.674 215.936 128.362 218.149 128.309 218.096C128.256 218.043 130.474 215.746 133.267 212.964C136.06 210.181 138.362 207.99 138.415 208.032Z" fill="#EBEBEB"/>
    <path d="M139.223 211.39C139.275 211.448 136.794 214.004 133.684 217.103C130.574 220.202 128.003 222.679 127.95 222.626C127.897 222.573 130.373 220.012 133.489 216.908C136.604 213.803 139.17 211.337 139.223 211.39Z" fill="#263238"/>
    <path d="M129.962 224.812C129.909 224.759 132.005 222.563 134.65 219.907C137.295 217.251 139.476 215.155 139.534 215.197C139.592 215.239 137.486 217.446 134.846 220.102C132.206 222.758 130.014 224.865 129.962 224.812Z" fill="#EBEBEB"/>
    <path d="M132.385 227.241C132.332 227.188 133.969 225.372 136.081 223.18C137.306 221.825 138.599 220.533 139.957 219.31C138.794 220.725 137.56 222.08 136.261 223.37C135.036 224.726 133.742 226.018 132.385 227.241Z" fill="#263238"/>
    <path d="M134.069 170.93C133.465 171.72 132.79 172.453 132.052 173.121C131.379 173.855 130.638 174.525 129.84 175.122C130.445 174.331 131.12 173.596 131.857 172.925C132.532 172.193 133.272 171.525 134.069 170.93Z" fill="#EBEBEB"/>
    <path d="M79.263 210.097C78.4921 210.028 78.207 208.982 78.4499 208.249C78.6928 207.515 79.2789 206.923 79.5059 206.184C79.6484 205.767 79.7118 205.265 80.0761 205.012C80.2752 204.884 80.509 204.821 80.7453 204.831C80.9816 204.842 81.209 204.925 81.3961 205.07C83.545 206.907 85.1289 208.697 87.4732 210.688C89.733 212.599 92.167 215.054 94.5535 216.813C95.8945 217.805 97.5366 218.83 97.7214 220.509C97.7665 221.195 97.5461 221.872 97.1058 222.399C96.6654 222.927 96.0389 223.266 95.356 223.344C93.9938 223.439 92.8164 222.473 91.7974 221.565C87.5453 217.77 83.2915 213.977 79.036 210.186" fill="#FF6600"/>
    <path d="M96.8665 218.724C96.6355 218.586 96.4164 218.429 96.2118 218.254C95.8 217.937 95.1928 217.504 94.4325 216.966C93.537 216.344 92.6817 215.667 91.8717 214.938L88.9201 212.256C86.8081 210.339 84.9496 208.597 83.5979 207.324L82.0139 205.804C81.8191 205.628 81.6423 205.434 81.4859 205.223C81.7108 205.38 81.9211 205.557 82.1142 205.751L83.7669 207.203C85.1502 208.439 87.0457 210.16 89.1366 212.071C90.1926 213.032 91.1641 213.94 92.067 214.775C92.8648 215.508 93.7039 216.196 94.5803 216.834C95.3248 217.393 95.9161 217.858 96.3121 218.196C96.5133 218.354 96.699 218.531 96.8665 218.724Z" fill="#263238"/>
    <path d="M95.4626 219.954C95.2218 219.846 94.992 219.715 94.7762 219.564C94.3486 219.3 93.7202 218.898 92.9863 218.391C91.4868 217.378 89.454 215.915 87.2998 214.167C85.1455 212.42 83.2711 210.778 81.9564 209.537C81.2964 208.919 80.7684 208.407 80.4199 208.043C80.2253 207.867 80.0484 207.672 79.8919 207.462C80.1075 207.622 80.3106 207.798 80.4991 207.99L82.0831 209.415C83.4348 210.619 85.3198 212.251 87.4687 213.977C89.6177 215.704 91.6294 217.182 93.0972 218.233L94.8343 219.474C95.0569 219.616 95.2671 219.777 95.4626 219.954Z" fill="#263238"/>
    <g opacity="0.3">
        <path opacity="0.3" d="M86.0642 209.473C85.5709 210.156 85.0063 210.785 84.3799 211.348C83.8159 211.975 83.1857 212.54 82.5002 213.032C83.5564 211.721 84.7513 210.528 86.0642 209.473Z" fill="#EBEBEB"/>
    </g>
    <g opacity="0.3">
        <path opacity="0.3" d="M94.3385 216.887C93.7994 217.595 93.1889 218.246 92.5167 218.83C91.906 219.478 91.232 220.063 90.5047 220.577C91.042 219.867 91.6527 219.216 92.3266 218.634C92.9358 217.985 93.61 217.399 94.3385 216.887Z" fill="#EBEBEB"/>
    </g>
    <g opacity="0.5">
        <path opacity="0.5" d="M125.838 157.054C125.317 158.112 124.715 159.129 124.037 160.095C123.438 161.111 122.761 162.078 122.01 162.988C122.534 161.931 123.136 160.915 123.81 159.947C124.407 158.929 125.085 157.962 125.838 157.054Z" fill="#EBEBEB"/>
    </g>
    <g opacity="0.5">
        <path opacity="0.5" d="M141.504 163.184C140.898 162.185 140.368 161.142 139.92 160.063C139.39 159.021 138.943 157.939 138.584 156.827C139.725 158.858 140.703 160.976 141.509 163.163L141.504 163.184Z" fill="#EBEBEB"/>
    </g>
    <path d="M175.956 211.411C175.811 211.745 175.562 212.023 175.246 212.203C174.93 212.383 174.564 212.455 174.203 212.409C173.432 212.325 172.73 211.881 171.953 211.823C171.515 211.776 171.014 211.823 170.686 211.522C170.544 211.342 170.447 211.131 170.406 210.905C170.365 210.679 170.379 210.447 170.449 210.229C170.94 207.309 172.524 204.695 174.224 202.272C175.924 199.848 177.788 197.52 178.976 194.79C179.641 193.259 180.275 191.432 181.853 190.883C182.515 190.684 183.228 190.749 183.843 191.064C184.458 191.379 184.928 191.919 185.153 192.572C185.549 193.882 184.868 195.244 184.208 196.437L175.956 211.411Z" fill="#FF6600"/>
    <path d="M181.236 193.607C181.175 193.862 181.091 194.111 180.987 194.352C180.813 194.821 180.544 195.497 180.206 196.326C179.525 197.984 178.538 200.26 177.371 202.736C176.204 205.212 175.063 207.42 174.203 208.998C173.78 209.785 173.427 210.419 173.173 210.852C173.054 211.084 172.915 211.305 172.756 211.512C172.844 211.267 172.952 211.031 173.078 210.804L174.034 208.903C174.842 207.319 175.945 205.091 177.112 202.62C178.279 200.149 179.298 197.868 180.021 196.247C180.37 195.466 180.66 194.816 180.882 194.309C180.978 194.065 181.097 193.83 181.236 193.607Z" fill="#263238"/>
    <path d="M180.349 190.682C180.237 190.931 180.102 191.17 179.947 191.395L178.802 193.285C177.835 194.869 176.531 197.097 175.169 199.621C173.807 202.145 172.656 204.426 171.837 206.1L170.876 208.09C170.769 208.339 170.642 208.579 170.496 208.808C170.565 208.547 170.659 208.292 170.776 208.048C170.977 207.562 171.278 206.87 171.663 206.02C172.434 204.32 173.564 201.997 174.926 199.489C176.288 196.981 177.629 194.774 178.622 193.201C179.15 192.414 179.546 191.785 179.842 191.358C179.987 191.116 180.157 190.889 180.349 190.682Z" fill="#263238"/>
    <g opacity="0.5">
        <path opacity="0.5" d="M177.793 207.662C176.796 207.527 175.828 207.226 174.931 206.77C173.994 206.403 173.123 205.884 172.355 205.234C172.397 205.165 173.543 205.857 175.042 206.522C176.542 207.187 177.814 207.588 177.793 207.662Z" fill="#EBEBEB"/>
    </g>
    <g opacity="0.5">
        <path opacity="0.5" d="M184.272 196.754C183.304 196.289 182.369 195.76 181.473 195.17C180.528 194.653 179.618 194.075 178.749 193.438C179.753 193.839 180.714 194.342 181.616 194.938C182.561 195.45 183.451 196.059 184.272 196.754Z" fill="#EBEBEB"/>
    </g>
    <path d="M192.562 29.0505L191.506 30.9777L189.584 32.0285L191.506 33.0845L192.562 35.0064L193.612 33.0845L195.54 32.0285L193.612 30.9777L192.562 29.0505Z" fill="#455A64"/>
    <path d="M230.292 143.246L229.236 145.168L227.315 146.224L229.236 147.275L230.292 149.197L231.343 147.275L233.27 146.224L231.343 145.168L230.292 143.246Z" fill="#455A64"/>
    <path d="M60.2184 35.038L59.1624 36.9599L57.2405 38.0159L59.1624 39.0667L60.2184 40.9886L61.2691 39.0667L63.1963 38.0159L61.2691 36.9599L60.2184 35.038Z" fill="#455A64"/>
    <path d="M216.432 90.029L215.783 91.2115L214.6 91.8556L215.783 92.5049L216.432 93.6875L217.082 92.5049L218.259 91.8556L217.082 91.2115L216.432 90.029Z" fill="#455A64"/>
    <path d="M130.585 56.4537L129.936 57.6417L128.753 58.2859L129.936 58.9301L130.585 60.1181L131.229 58.9301L132.412 58.2859L131.229 57.6417L130.585 56.4537Z" fill="#455A64"/>
    <path d="M93.7147 86.9138L93.1339 87.9645L92.0884 88.54L93.1339 89.1155L93.7147 90.1662L94.2902 89.1155L95.3357 88.54L94.2902 87.9645L93.7147 86.9138Z" fill="#455A64"/>
    <path d="M163.358 137.565L162.782 138.621L161.732 139.196L162.782 139.772L163.358 140.823L163.939 139.772L164.984 139.196L163.939 138.621L163.358 137.565Z" fill="#455A64"/>
    <path d="M62.0769 147.486L61.5014 148.537L60.4507 149.112L61.5014 149.688L62.0769 150.738L62.6524 149.688L63.7032 149.112L62.6524 148.537L62.0769 147.486Z" fill="#455A64"/>
    <path d="M227.98 224.754H200.176V230.768H227.98V224.754Z" fill="#263238"/>
    <path d="M211.216 224.754L211.675 230.768H215.599L215.804 224.754H211.216Z" fill="#E0E0E0"/>
    <path d="M221.238 224.754H193.433V230.768H221.238V224.754Z" fill="#455A64"/>
    <path d="M221.148 225.694C221.148 225.773 214.965 225.831 207.335 225.831C199.706 225.831 193.518 225.773 193.518 225.694C193.518 225.614 199.7 225.556 207.335 225.556C214.97 225.556 221.148 225.62 221.148 225.694Z" fill="#263238"/>
    <path d="M221.137 227.072C221.137 227.146 214.954 227.209 207.325 227.209C199.695 227.209 193.507 227.146 193.507 227.072C193.507 226.998 199.695 226.934 207.325 226.934C214.954 226.934 221.137 226.998 221.137 227.072Z" fill="#263238"/>
    <path d="M221.137 228.45C221.137 228.524 214.954 228.587 207.325 228.587C199.695 228.587 193.507 228.524 193.507 228.45C193.507 228.376 199.695 228.313 207.325 228.313C214.954 228.313 221.137 228.371 221.137 228.45Z" fill="#263238"/>
    <path d="M221.137 229.823C221.137 229.902 214.954 229.96 207.325 229.96C199.695 229.96 193.507 229.902 193.507 229.823C193.507 229.743 199.695 229.685 207.325 229.685C214.954 229.685 221.137 229.749 221.137 229.823Z" fill="#263238"/>
    <path d="M204.468 224.754L204.928 230.768H208.856L209.057 224.754H204.468Z" fill="#E0E0E0"/>
    <path d="M231.354 218.803H203.55V224.817H231.354V218.803Z" fill="#263238"/>
    <path d="M214.59 218.803L215.049 224.817H218.972L219.178 218.803H214.59Z" fill="#E0E0E0"/>
    <path d="M224.611 218.803H196.807V224.817H224.611V218.803Z" fill="#455A64"/>
    <path d="M224.522 219.748C224.522 219.822 218.334 219.886 210.709 219.886C203.085 219.886 196.891 219.822 196.891 219.748C196.891 219.674 203.074 219.611 210.709 219.611C218.344 219.611 224.522 219.648 224.522 219.748Z" fill="#263238"/>
    <path d="M224.511 221.121C224.511 221.2 218.328 221.258 210.699 221.258C203.069 221.258 196.881 221.2 196.881 221.121C196.881 221.042 203.069 220.984 210.699 220.984C218.328 220.984 224.511 221.047 224.511 221.121Z" fill="#263238"/>
    <path d="M224.511 222.499C224.511 222.573 218.328 222.636 210.699 222.636C203.069 222.636 196.881 222.573 196.881 222.499C196.881 222.425 203.069 222.362 210.699 222.362C218.328 222.362 224.511 222.425 224.511 222.499Z" fill="#263238"/>
    <path d="M224.511 223.872C224.511 223.946 218.328 224.009 210.699 224.009C203.069 224.009 196.881 223.946 196.881 223.872C196.881 223.798 203.069 223.735 210.699 223.735C218.328 223.735 224.511 223.798 224.511 223.872Z" fill="#263238"/>
    <path d="M207.842 218.803L208.302 224.817H212.225L212.43 218.803H207.842Z" fill="#E0E0E0"/>
    <path d="M229.469 236.718H201.665V242.732H229.469V236.718Z" fill="#263238"/>
    <path d="M212.7 236.713L213.159 242.732H217.087L217.288 236.713H212.7Z" fill="#E0E0E0"/>
    <path d="M222.721 236.713H194.917V242.727H222.721V236.713Z" fill="#455A64"/>
    <path d="M222.631 237.658C222.631 237.737 216.449 237.795 208.819 237.795C201.189 237.795 195.001 237.737 195.001 237.658C195.001 237.579 201.189 237.521 208.819 237.521C216.449 237.521 222.631 237.6 222.631 237.658Z" fill="#263238"/>
    <path d="M222.626 239.036C222.626 239.11 216.438 239.173 208.808 239.173C201.179 239.173 194.996 239.11 194.996 239.036C194.996 238.962 201.179 238.899 208.808 238.899C216.438 238.899 222.626 238.957 222.626 239.036Z" fill="#263238"/>
    <path d="M222.626 240.409C222.626 240.488 216.438 240.552 208.808 240.552C201.179 240.552 194.996 240.488 194.996 240.409C194.996 240.33 201.179 240.272 208.808 240.272C216.438 240.272 222.626 240.335 222.626 240.409Z" fill="#263238"/>
    <path d="M222.626 241.787C222.626 241.866 216.438 241.924 208.808 241.924C201.179 241.924 194.996 241.866 194.996 241.787C194.996 241.708 201.179 241.65 208.808 241.65C216.438 241.65 222.626 241.713 222.626 241.787Z" fill="#263238"/>
    <path d="M205.957 236.713L206.417 242.732H210.34L210.54 236.713H205.957Z" fill="#E0E0E0"/>
    <path d="M232.843 230.768H205.038V236.782H232.843V230.768Z" fill="#263238"/>
    <path d="M216.074 230.768L216.533 236.782H220.461L220.662 230.768H216.074Z" fill="#E0E0E0"/>
    <path d="M226.095 230.768H198.291V236.782H226.095V230.768Z" fill="#455A64"/>
    <path d="M225.984 231.707C225.984 231.787 219.801 231.85 212.172 231.85C204.542 231.85 198.354 231.787 198.354 231.707C198.354 231.628 204.542 231.57 212.172 231.57C219.801 231.57 225.984 231.634 225.984 231.707Z" fill="#263238"/>
    <path d="M225.984 233.086C225.984 233.165 219.801 233.223 212.172 233.223C204.542 233.223 198.359 233.165 198.359 233.086C198.359 233.006 204.542 232.948 212.172 232.948C219.801 232.948 225.984 233.012 225.984 233.086Z" fill="#263238"/>
    <path d="M225.984 234.464C225.984 234.538 219.801 234.601 212.172 234.601C204.542 234.601 198.359 234.538 198.359 234.464C198.359 234.39 204.542 234.326 212.172 234.326C219.801 234.326 225.984 234.385 225.984 234.464Z" fill="#263238"/>
    <path d="M225.984 235.837C225.984 235.916 219.801 235.979 212.172 235.979C204.542 235.979 198.359 235.916 198.359 235.837C198.359 235.757 204.542 235.699 212.172 235.699C219.801 235.699 225.984 235.763 225.984 235.837Z" fill="#263238"/>
    <path d="M209.326 230.768L209.785 236.782H213.714L213.914 230.768H209.326Z" fill="#E0E0E0"/>
    <path d="M210.762 230.704H182.958V236.718H210.762V230.704Z" fill="#FF6600"/>
    <path opacity="0.2" d="M210.762 230.704H182.958V236.718H210.762V230.704Z" fill="black"/>
    <path d="M193.998 230.704L194.457 236.718H198.38L198.586 230.704H193.998Z" fill="#E0E0E0"/>
    <path d="M207.71 236.718H179.906V242.732H207.71V236.718Z" fill="#FF6600"/>
    <path opacity="0.2" d="M207.71 236.718H179.906V242.732H207.71V236.718Z" fill="black"/>
    <path d="M190.946 236.713L191.4 242.732H195.329L195.529 236.713H190.946Z" fill="#E0E0E0"/>
    <path d="M200.962 236.718H173.158V242.732H200.962V236.718Z" fill="#FF6600"/>
    <g opacity="0.2">
        <path opacity="0.2" d="M200.878 237.658C200.878 237.737 194.69 237.795 187.06 237.795C179.431 237.795 173.248 237.737 173.248 237.658C173.248 237.579 179.431 237.521 187.06 237.521C194.69 237.521 200.878 237.6 200.878 237.658Z" fill="black"/>
    </g>
    <g opacity="0.2">
        <path opacity="0.2" d="M200.867 239.036C200.867 239.11 194.679 239.173 187.055 239.173C179.43 239.173 173.237 239.11 173.237 239.036C173.237 238.962 179.42 238.899 187.055 238.899C194.69 238.899 200.867 238.957 200.867 239.036Z" fill="black"/>
    </g>
    <g opacity="0.2">
        <path opacity="0.2" d="M200.867 240.409C200.867 240.488 194.679 240.552 187.055 240.552C179.43 240.552 173.237 240.488 173.237 240.409C173.237 240.33 179.42 240.272 187.055 240.272C194.69 240.272 200.867 240.335 200.867 240.409Z" fill="black"/>
    </g>
    <g opacity="0.2">
        <path opacity="0.2" d="M200.867 241.787C200.867 241.866 194.679 241.924 187.055 241.924C179.43 241.924 173.237 241.866 173.237 241.787C173.237 241.708 179.42 241.65 187.055 241.65C194.69 241.65 200.867 241.713 200.867 241.787Z" fill="black"/>
    </g>
    <path d="M184.198 236.713L184.658 242.732H188.581L188.787 236.713H184.198Z" fill="#E0E0E0"/>
    <path d="M204.975 230.704H177.171V236.718H204.975V230.704Z" fill="#FF6600"/>
    <g opacity="0.2">
        <path opacity="0.2" d="M204.891 231.644C204.891 231.723 198.702 231.781 191.078 231.781C183.454 231.781 177.26 231.723 177.26 231.644C177.26 231.565 183.443 231.507 191.078 231.507C198.713 231.507 204.891 231.57 204.891 231.644Z" fill="black"/>
    </g>
    <g opacity="0.2">
        <path opacity="0.2" d="M204.864 233.022C204.864 233.096 198.681 233.16 191.052 233.16C183.422 233.16 177.234 233.096 177.234 233.022C177.234 232.948 183.417 232.885 191.052 232.885C198.687 232.885 204.864 232.943 204.864 233.022Z" fill="black"/>
    </g>
    <g opacity="0.2">
        <path opacity="0.2" d="M204.864 234.4C204.864 234.474 198.681 234.538 191.052 234.538C183.422 234.538 177.234 234.474 177.234 234.4C177.234 234.326 183.417 234.263 191.052 234.263C198.687 234.263 204.864 234.321 204.864 234.4Z" fill="black"/>
    </g>
    <g opacity="0.2">
        <path opacity="0.2" d="M204.864 235.773C204.864 235.852 198.681 235.91 191.052 235.91C183.422 235.91 177.234 235.852 177.234 235.773C177.234 235.694 183.417 235.636 191.052 235.636C198.687 235.636 204.864 235.699 204.864 235.773Z" fill="black"/>
    </g>
    <path d="M188.211 230.704L188.67 236.718H192.594L192.799 230.704H188.211Z" fill="#E0E0E0"/>
    <path d="M79.1261 236.718H51.3216V242.732H79.1261V236.718Z" fill="#263238"/>
    <path d="M62.3568 236.713L62.8161 242.732H66.7445L66.9451 236.713H62.3568Z" fill="#E0E0E0"/>
    <path d="M72.3782 236.713H44.5737V242.727H72.3782V236.713Z" fill="#455A64"/>
    <path d="M72.2884 237.658C72.2884 237.737 66.1056 237.795 58.476 237.795C50.8464 237.795 44.6582 237.737 44.6582 237.658C44.6582 237.579 50.8464 237.521 58.476 237.521C66.1056 237.521 72.2884 237.6 72.2884 237.658Z" fill="#263238"/>
    <path d="M72.2779 239.036C72.2779 239.11 66.095 239.173 58.4654 239.173C50.8358 239.173 44.653 239.11 44.653 239.036C44.653 238.962 50.8358 238.899 58.4654 238.899C66.095 238.899 72.2779 238.957 72.2779 239.036Z" fill="#263238"/>
    <path d="M72.2779 240.409C72.2779 240.488 66.095 240.552 58.4654 240.552C50.8358 240.552 44.653 240.488 44.653 240.409C44.653 240.33 50.8358 240.272 58.4654 240.272C66.095 240.272 72.2779 240.335 72.2779 240.409Z" fill="#263238"/>
    <path d="M72.2779 241.787C72.2779 241.866 66.095 241.924 58.4654 241.924C50.8358 241.924 44.653 241.866 44.653 241.787C44.653 241.708 50.8358 241.65 58.4654 241.65C66.095 241.65 72.2779 241.713 72.2779 241.787Z" fill="#263238"/>
    <path d="M55.609 236.713L56.0684 242.732H59.9967L60.1973 236.713H55.609Z" fill="#F5F5F5"/>
    <path d="M75.7416 230.768H47.9371V236.782H75.7416V230.768Z" fill="#263238"/>
    <path d="M58.9776 230.768L59.4317 236.782H63.36L63.5659 230.768H58.9776Z" fill="#E0E0E0"/>
    <path d="M68.9938 230.768H41.1893V236.782H68.9938V230.768Z" fill="#455A64"/>
    <path d="M68.9093 231.707C68.9093 231.787 62.7211 231.85 55.0915 231.85C47.4619 231.85 41.2791 231.787 41.2791 231.707C41.2791 231.628 47.4619 231.57 55.0915 231.57C62.7211 231.57 68.9093 231.634 68.9093 231.707Z" fill="#263238"/>
    <path d="M68.8987 233.086C68.8987 233.165 62.7106 233.223 55.081 233.223C47.4514 233.223 41.2685 233.165 41.2685 233.086C41.2685 233.006 47.4514 232.948 55.081 232.948C62.7106 232.948 68.8987 233.012 68.8987 233.086Z" fill="#263238"/>
    <path d="M68.8987 234.464C68.8987 234.538 62.7106 234.601 55.081 234.601C47.4514 234.601 41.2685 234.538 41.2685 234.464C41.2685 234.39 47.4514 234.326 55.081 234.326C62.7106 234.326 68.8987 234.385 68.8987 234.464Z" fill="#263238"/>
    <path d="M68.8987 235.837C68.8987 235.916 62.7106 235.979 55.081 235.979C47.4514 235.979 41.2685 235.916 41.2685 235.837C41.2685 235.757 47.4514 235.699 55.081 235.699C62.7106 235.699 68.8987 235.763 68.8987 235.837Z" fill="#263238"/>
    <path d="M52.2298 230.768L52.6892 236.782H56.6122L56.8181 230.768H52.2298Z" fill="#F5F5F5"/>
</svg>
