<svg width="232" height="232" viewBox="0 0 232 232" fill="none" xmlns="http://www.w3.org/2000/svg">
    <path d="M147.751 189.563C193.952 172.042 209.584 139.956 217.222 105.518C220.985 88.5451 219.931 70.1429 212.034 54.6499C204.137 39.157 188.88 27.0651 171.606 25.1256C154.331 23.1861 135.771 32.6378 129.038 48.669C124.528 59.4245 124.788 72.9083 116.046 80.6386C110.223 85.7936 101.788 86.8562 94.0481 86.1138C86.3086 85.3714 78.7686 83.0931 71.0152 82.4992C54.0003 81.1954 32.6377 89.4592 24.2811 104.354C18.3883 114.872 12.7832 130.769 18.2352 151.083C22.6571 167.564 37.7649 188.472 69.3772 194.1C69.3772 194.1 114.144 202.304 147.751 189.563Z" fill="#EBEBEB"/>
    <path d="M219.101 209.004C219.101 209.074 172.937 209.125 116.005 209.125C59.0718 209.125 12.8992 209.074 12.8992 209.004C12.8992 208.935 59.0532 208.883 116.005 208.883C172.956 208.883 219.101 208.939 219.101 209.004Z" fill="#263238"/>
    <path d="M40.4886 194.759C41.0129 192.732 39.6813 190.69 38.1686 189.219C36.656 187.748 34.8928 186.435 34.1179 184.482C32.8605 181.327 34.5494 177.243 32.4057 174.613C31.1437 173.063 28.8793 172.543 27.7657 170.901C27.1765 170.033 26.9862 168.966 26.7542 167.945C25.5694 162.701 22.9955 157.872 19.3024 153.965C19.0559 158.632 20.0688 163.279 22.2349 167.421C23.1025 169.072 24.1697 170.669 24.4574 172.525C24.9214 175.522 23.251 178.612 23.9934 181.554C24.8333 184.923 28.6334 187.178 28.7958 190.644C28.9489 193.576 26.3923 196.147 26.5825 199.075C26.7381 200.319 27.1848 201.51 27.8864 202.55C30.16 206.336 33.4776 208.93 38.512 208.846L44.6925 209.06L40.4886 194.759Z" fill="#FF6600"/>
    <g opacity="0.3">
        <path opacity="0.3" d="M40.4886 194.759C41.0129 192.732 39.6813 190.69 38.1686 189.219C36.656 187.748 34.8928 186.435 34.1179 184.482C32.8605 181.327 34.5494 177.243 32.4057 174.613C31.1437 173.063 28.8793 172.543 27.7657 170.901C27.1765 170.033 26.9862 168.966 26.7542 167.945C25.5694 162.701 22.9955 157.872 19.3024 153.965C19.0559 158.632 20.0688 163.279 22.2349 167.421C23.1025 169.072 24.1697 170.669 24.4574 172.525C24.9214 175.522 23.251 178.612 23.9934 181.554C24.8333 184.923 28.6334 187.178 28.7958 190.644C28.9489 193.576 26.3923 196.147 26.5825 199.075C26.7381 200.319 27.1848 201.51 27.8864 202.55C30.16 206.336 33.4776 208.93 38.512 208.846L44.6925 209.06L40.4886 194.759Z" fill="black"/>
    </g>
    <path d="M45.936 209.018C46.5012 209.106 47.0775 209.095 47.6389 208.986C48.3217 208.882 48.9929 208.712 49.6434 208.48C50.5405 208.167 51.3794 207.708 52.1258 207.12C52.5736 206.759 52.9245 206.292 53.1466 205.761C53.3346 205.16 53.4316 204.534 53.4343 203.905C53.4482 203.236 53.4977 202.569 53.5827 201.905C53.7014 201.2 53.9568 200.526 54.3344 199.919C55.0629 198.638 56.2739 197.427 56.6544 195.687C57.0349 193.947 56.7751 192.129 56.4874 190.273C56.1997 188.417 55.9213 186.398 56.6312 184.468C57.3411 182.538 58.6496 180.788 59.3271 178.612C60.0045 176.436 59.689 174.042 59.8282 171.708C59.8739 170.524 60.1481 169.359 60.6355 168.279C61.1367 167.184 61.828 166.154 62.3709 164.998C63.4659 162.678 63.6608 160.034 63.9624 157.449C64.1078 156.144 64.2625 154.828 64.4264 153.501C64.5198 152.163 64.7499 150.838 65.1131 149.547C65.5303 148.245 66.0246 146.968 66.5933 145.724C66.8853 145.078 67.1243 144.409 67.3079 143.724C67.4128 143.02 67.4794 142.31 67.5074 141.599C67.5759 140.171 67.5216 138.74 67.345 137.321C67.1779 135.896 66.9181 134.481 66.765 133.052L66.7371 132.806L66.7047 132.523L66.4541 132.648C65.1441 133.316 64.0056 134.277 63.1272 135.456C62.2702 136.608 61.5813 137.877 61.081 139.223C60.0509 141.877 59.689 144.661 59.16 147.315C58.6311 149.969 58 152.591 56.608 154.8C55.9352 155.899 55.1139 156.902 54.3947 157.978C53.6303 159.024 53.1073 160.227 52.8635 161.5C52.497 164.112 53.9354 166.409 53.6384 168.724C53.4962 169.861 53.1117 170.955 52.5109 171.931C51.9495 172.919 51.2906 173.833 50.6549 174.756C50.0159 175.654 49.4599 176.607 48.9938 177.605C48.5587 178.585 48.3026 179.635 48.2375 180.705C48.0843 182.788 48.3813 184.765 48.2375 186.63C48.0669 188.407 47.5498 190.133 46.7155 191.711C45.9639 193.228 45.1333 194.606 44.4373 195.938C44.0893 196.606 43.7645 197.256 43.5093 197.905C43.2622 198.538 43.0803 199.194 42.9664 199.863C42.7842 201.031 42.7701 202.218 42.9247 203.39C43.0893 205.019 43.7029 206.571 44.6971 207.872C44.8476 208.066 45.0136 208.248 45.1936 208.415C45.3179 208.543 45.4547 208.658 45.6019 208.758C45.8293 208.93 45.9546 209.004 45.9546 209.004C45.5114 208.657 45.1097 208.26 44.7575 207.821C43.8035 206.513 43.223 204.97 43.0778 203.357C42.9413 202.199 42.9679 201.028 43.1567 199.877C43.2756 199.225 43.459 198.586 43.7042 197.97C43.9687 197.335 44.2935 196.685 44.6322 196.026C45.3375 194.708 46.1773 193.34 46.9522 191.808C47.8147 190.207 48.3509 188.45 48.5298 186.639C48.6922 184.732 48.4091 182.751 48.5669 180.714C48.6332 179.68 48.8847 178.666 49.3093 177.721C49.7698 176.745 50.3197 175.813 50.9519 174.937C51.5736 174.009 52.2418 173.105 52.8079 172.093C53.4361 171.078 53.8396 169.941 53.9911 168.757C54.288 166.288 52.8589 163.978 53.2301 161.551C53.4669 160.332 53.9726 159.181 54.7103 158.182C55.4155 157.124 56.2415 156.122 56.9375 154.995C58.3295 152.721 59.0208 150.062 59.5359 147.394C60.0509 144.726 60.4314 141.97 61.4475 139.367C61.9336 138.057 62.6038 136.823 63.4381 135.701C64.2784 134.57 65.3695 133.649 66.6258 133.01L66.3381 132.853L66.3659 133.103C66.5237 134.546 66.7789 135.966 66.9459 137.372C67.1202 138.769 67.1745 140.179 67.1083 141.585C67.0835 142.276 67.0199 142.966 66.9181 143.65C66.7416 144.31 66.5104 144.954 66.2267 145.575C65.6555 146.834 65.1581 148.124 64.7373 149.441C64.3659 150.752 64.1326 152.099 64.0413 153.459C63.8928 154.792 63.7474 156.11 63.6051 157.412C63.3082 160.006 63.1133 162.604 62.06 164.836C61.5357 165.954 60.8443 166.989 60.3293 168.121C59.8262 169.241 59.5441 170.448 59.4987 171.675C59.3642 174.06 59.6751 176.394 59.0347 178.505C58.3944 180.617 57.0488 182.361 56.3667 184.357C55.6847 186.352 55.9399 188.458 56.2322 190.305C56.5245 192.152 56.8307 193.975 56.4317 195.622C56.0327 197.27 54.9005 198.481 54.1581 199.798C53.7698 200.43 53.5096 201.131 53.3925 201.863C53.3097 202.534 53.2663 203.21 53.2626 203.886C53.2618 204.494 53.1727 205.099 52.9981 205.682C52.7914 206.188 52.4612 206.635 52.0376 206.981C51.3112 207.565 50.4948 208.028 49.6202 208.35C48.978 208.59 48.3147 208.769 47.6389 208.884C47.2238 208.959 46.8033 209.001 46.3815 209.009C46.1031 209.013 45.936 209.018 45.936 209.018Z" fill="#263238"/>
    <path d="M65.4797 136.217C65.4528 136.278 65.4326 136.341 65.4194 136.407C65.3823 136.555 65.3405 136.736 65.2848 136.964C65.1642 137.451 65.0157 138.184 64.7837 139.103C64.5517 140.021 63.981 141.051 63.5031 142.327C62.9388 143.763 62.4479 145.227 62.0322 146.712C61.5682 148.359 61.1413 150.192 60.7052 152.15C60.269 154.108 59.805 156.206 58.7285 158.182C58.2228 159.185 57.652 160.201 57.1973 161.314C56.7524 162.453 56.4546 163.645 56.3111 164.859C55.9992 167.373 55.5531 169.868 54.9748 172.334C53.7359 177.401 52.5573 182.222 51.4808 186.616L48.553 198.263C47.741 201.557 47.0775 204.234 46.6135 206.118C46.4 207.046 46.2283 207.742 46.1031 208.262C46.0567 208.489 46.0149 208.675 45.9824 208.823C45.964 208.885 45.9546 208.949 45.9546 209.014C45.984 208.956 46.0074 208.895 46.0242 208.833L46.1819 208.28C46.3258 207.765 46.516 207.055 46.7619 206.16C47.2584 204.276 47.9637 201.613 48.8268 198.328L51.8381 186.704C52.9239 182.31 54.1117 177.489 55.3645 172.422C55.941 169.945 56.3856 167.439 56.6962 164.915C56.8325 163.737 57.1147 162.581 57.536 161.472C57.9722 160.391 58.5336 159.379 59.0394 158.363C60.1298 156.35 60.5799 154.187 61.016 152.238C61.4522 150.29 61.8373 148.448 62.2874 146.8C62.7375 145.153 63.2154 143.692 63.6794 142.425C64.1434 141.158 64.677 140.105 64.9044 139.154C65.1317 138.202 65.2384 137.488 65.3359 136.991C65.373 136.764 65.4055 136.578 65.4333 136.43C65.4571 136.361 65.4727 136.289 65.4797 136.217Z" fill="#263238"/>
    <path d="M47.045 209.06C51.0818 206.661 52.2418 199.562 50.5574 195.177C48.8731 190.792 45.9174 186.788 45.4534 182.115C45.1008 178.524 46.2794 174.835 45.4534 171.323C44.3306 166.576 39.7045 162.915 39.7602 158.043C39.788 155.31 41.3424 152.74 41.2218 150.007C41.0686 146.661 38.4981 144.002 36.9066 141.051C34.4659 136.537 34.3082 131.196 33.473 126.134C32.6378 121.072 30.689 115.647 26.2253 113.142C25.5618 117.438 24.4296 120.385 24.7869 126.208C24.9122 128.301 27.3435 132.3 27.673 136.88C27.8725 139.622 28.007 142.365 28.1741 145.107C28.3365 147.775 28.5082 150.489 29.4686 152.995C30.2018 154.911 31.3757 156.646 31.9232 158.623C32.944 162.335 31.5984 166.363 32.4243 170.126C33.125 173.313 35.3336 176.06 35.7837 179.294C36.4194 183.837 33.4637 188.574 34.981 192.889C35.728 195.042 37.5005 196.769 38.0016 198.986C38.3914 200.713 37.9645 202.536 38.3171 204.267C38.8878 207.051 44.2053 209.222 47.045 209.046" fill="#FF6600"/>
    <path d="M27.3342 117.425C27.3269 117.506 27.3269 117.589 27.3342 117.67C27.3342 117.851 27.3899 118.083 27.427 118.376C27.5198 118.998 27.6219 119.907 27.8307 121.086C28.0395 122.264 28.6705 123.605 29.1577 125.215C29.6449 126.825 30.1831 128.672 30.6379 130.741C31.0926 132.811 31.4823 135.108 31.886 137.571C32.2897 140.035 32.7351 142.726 33.9555 145.297C34.5215 146.587 35.1572 147.877 35.6351 149.255C36.101 150.667 36.3863 152.133 36.4843 153.617C36.711 156.769 37.1075 159.907 37.6721 163.017C38.9063 169.388 40.0849 175.452 41.1567 180.979C42.2286 186.505 43.3051 191.433 44.1588 195.604C45.0126 199.775 45.7271 203.107 46.219 205.459C46.4649 206.601 46.6598 207.496 46.799 208.137C46.8639 208.424 46.9196 208.652 46.9614 208.828C46.9748 208.907 46.9966 208.985 47.0263 209.06C47.0293 208.979 47.02 208.897 46.9985 208.819C46.966 208.642 46.9289 208.41 46.8779 208.118C46.7572 207.478 46.5855 206.578 46.3721 205.427C45.9081 203.07 45.2492 199.701 44.4372 195.548C43.6252 191.395 42.6137 186.412 41.514 180.904L38.0619 162.952C37.5054 159.853 37.1151 156.725 36.8926 153.584C36.7877 152.07 36.4915 150.574 36.011 149.134C35.5191 147.742 34.8788 146.434 34.3081 145.153C33.0924 142.624 32.6655 139.98 32.2294 137.52C31.7932 135.061 31.4081 132.76 30.9302 130.686C30.4523 128.612 29.9233 126.756 29.3851 125.15C28.8468 123.545 28.2436 122.213 27.9931 121.058C27.7425 119.902 27.6311 118.979 27.5291 118.366C27.4734 118.079 27.4316 117.847 27.3991 117.666C27.3885 117.583 27.3666 117.502 27.3342 117.425Z" fill="#263238"/>
    <path d="M203.232 181.424C203.859 181.723 204.419 182.145 204.879 182.666C205.339 183.187 205.69 183.795 205.909 184.454C206.339 185.778 206.461 187.182 206.267 188.56C205.965 191.228 204.448 193.915 202.819 196.045C200.573 194.087 200.035 190.672 199.905 188.922C199.664 186.138 200.903 181.011 203.232 181.424Z" fill="#FF6600"/>
    <path d="M205.422 200.448C205.272 199.688 205.325 198.902 205.575 198.169C205.825 197.436 206.264 196.782 206.847 196.272C207.44 195.772 208.128 195.395 208.869 195.164C209.609 194.932 210.389 194.85 211.162 194.922C211.52 194.918 211.875 194.992 212.202 195.138C212.529 195.285 212.82 195.501 213.055 195.771C213.231 196.058 213.327 196.386 213.332 196.722C213.338 197.059 213.253 197.39 213.087 197.683C212.747 198.264 212.259 198.744 211.672 199.075C209.728 200.295 207.621 201.121 205.422 200.467" fill="#FF6600"/>
    <path d="M202.545 208.605C202.556 208.421 202.582 208.238 202.624 208.058C202.694 207.672 202.787 207.176 202.898 206.577C203.146 204.926 203.662 203.326 204.424 201.84C205.214 200.358 206.385 199.113 207.816 198.235C208.253 197.974 208.721 197.768 209.208 197.622C209.339 197.581 209.473 197.547 209.607 197.52C209.7 197.52 209.751 197.492 209.751 197.52C208.641 197.879 207.613 198.455 206.729 199.216C205.844 199.977 205.121 200.907 204.601 201.951C203.854 203.412 203.329 204.976 203.042 206.591C202.903 207.213 202.791 207.714 202.708 208.058C202.673 208.245 202.618 208.429 202.545 208.605Z" fill="#263238"/>
    <path d="M202.629 185.41C202.644 185.489 202.653 185.57 202.657 185.651C202.657 185.827 202.68 186.055 202.698 186.338C202.731 186.932 202.763 187.795 202.801 188.867C202.865 191.001 202.921 193.971 202.907 197.219C202.893 200.467 202.814 203.432 202.726 205.571C202.684 206.638 202.638 207.501 202.601 208.099C202.601 208.378 202.568 208.605 202.555 208.786C202.554 208.866 202.545 208.945 202.527 209.023C202.52 208.942 202.52 208.862 202.527 208.781C202.527 208.605 202.527 208.378 202.527 208.095C202.527 207.473 202.564 206.615 202.587 205.566C202.643 203.432 202.698 200.462 202.712 197.214C202.726 193.966 202.712 191.006 202.661 188.862C202.661 187.813 202.633 186.955 202.62 186.333V185.646C202.616 185.567 202.619 185.488 202.629 185.41Z" fill="#263238"/>
    <path d="M201.538 202.053C201.268 200.438 200.616 198.911 199.637 197.598C198.659 196.285 197.381 195.224 195.91 194.504C195.163 194.142 194.179 193.91 193.567 194.467C192.954 195.024 193.103 196.031 193.386 196.787C194.047 198.396 195.168 199.773 196.61 200.745C198.052 201.718 199.748 202.242 201.487 202.253" fill="#FF6600"/>
    <path d="M196.272 197.033C196.433 197.085 196.589 197.153 196.736 197.237C196.921 197.323 197.1 197.419 197.274 197.525C197.51 197.657 197.739 197.801 197.961 197.956C198.232 198.139 198.494 198.336 198.745 198.546C199.036 198.783 199.315 199.036 199.58 199.302C200.182 199.919 200.713 200.603 201.163 201.339C201.6 202.084 201.95 202.876 202.207 203.701C202.315 204.061 202.403 204.426 202.471 204.796C202.533 205.118 202.578 205.443 202.606 205.77C202.633 206.038 202.645 206.308 202.643 206.577C202.655 206.78 202.655 206.983 202.643 207.185C202.641 207.36 202.623 207.534 202.587 207.705C202.541 207.705 202.62 206.963 202.49 205.784C202.454 205.463 202.401 205.144 202.332 204.828C202.26 204.466 202.167 204.108 202.053 203.756C201.794 202.947 201.445 202.169 201.014 201.436C200.573 200.711 200.055 200.036 199.469 199.423C199.211 199.157 198.94 198.904 198.657 198.666C198.416 198.451 198.164 198.25 197.901 198.063C196.931 197.376 196.272 197.07 196.272 197.033Z" fill="#263238"/>
    <path d="M170.362 107.281C170.362 107.281 148.698 91.9277 145.956 90.4197C143.343 88.9813 135.052 87.9373 134.309 87.7563L119.461 84.5083L96.7811 85.1857L90.2851 89.0973L73.8223 96.6976C69.3355 98.7645 65.7988 102.455 63.9252 107.026L53.5316 132.412L79.3439 140.04L80.1467 166.817L74.0636 209.004H149.547L145.747 128.152L153.607 129.883L170.362 107.281Z" fill="#263238"/>
    <path d="M79.8079 129.256C79.8079 129.256 79.5342 129.456 79.0098 129.762C78.2709 130.211 77.4512 130.511 76.597 130.644C75.3179 130.734 74.0345 130.547 72.834 130.096C71.3536 129.603 69.9191 128.982 68.5466 128.24C67.0758 127.475 65.6977 126.7 64.4078 126.078C63.2701 125.51 62.0876 125.037 60.8721 124.663C60.0512 124.416 59.2094 124.245 58.3572 124.152C58.0556 124.12 57.8236 124.106 57.6612 124.101H57.4199C57.7296 124.09 58.0397 124.101 58.3479 124.134C59.2042 124.204 60.0514 124.359 60.8767 124.598C62.099 124.96 63.288 125.425 64.431 125.99C65.7302 126.612 67.1082 127.382 68.5791 128.152C69.9475 128.889 71.3755 129.51 72.8479 130.008C74.0318 130.455 75.2968 130.646 76.5599 130.57C77.4065 130.445 78.2211 130.159 78.9588 129.725C79.2233 129.577 79.4228 129.456 79.562 129.372C79.7012 129.289 79.8079 129.256 79.8079 129.256Z" fill="white"/>
    <path d="M78.7036 116.747H78.532L78.0401 116.724C77.6133 116.701 76.9961 116.654 76.2352 116.58C72.2714 116.181 68.374 115.283 64.6352 113.907C63.916 113.643 63.3406 113.416 62.9462 113.248L62.4822 113.054L62.3245 112.979L62.4915 113.035L62.9555 113.211C63.3545 113.369 63.9345 113.587 64.6537 113.842C68.4024 115.184 72.2958 116.079 76.2537 116.51C77.01 116.594 77.6457 116.654 78.0494 116.687L78.5413 116.728L78.7036 116.747Z" fill="white"/>
    <path d="M94.9297 90.4197C94.9297 90.4197 94.7348 90.7352 94.3265 91.2642C93.7442 92.007 93.0761 92.6783 92.3359 93.264C91.2275 94.1226 90.0203 94.8454 88.7399 95.417C87.1734 96.1176 85.5593 96.7068 83.9097 97.1802C82.1604 97.6998 80.49 98.1592 78.9913 98.651C77.6587 99.0728 76.3591 99.5924 75.103 100.205C74.2566 100.618 73.4463 101.1 72.6809 101.648C72.4025 101.834 72.2169 102.006 72.0684 102.112C71.9199 102.219 71.8503 102.27 71.8503 102.27C71.8503 102.27 72.1241 102.02 72.6577 101.616C73.4187 101.057 74.2259 100.563 75.0705 100.14C76.3275 99.5207 77.6287 98.995 78.9635 98.5675C80.4622 98.0664 82.1372 97.607 83.8819 97.0874C85.5274 96.6164 87.1382 96.0319 88.7028 95.3381C89.9779 94.7706 91.183 94.0575 92.2942 93.213C93.0425 92.6397 93.7228 91.9827 94.3219 91.2549C94.5399 91.0043 94.6745 90.7909 94.7859 90.647C94.8972 90.5032 94.9297 90.4197 94.9297 90.4197Z" fill="white"/>
    <path d="M141.353 93.8765C141.353 93.8765 141.283 93.844 141.153 93.7697C141.023 93.6955 140.847 93.5841 140.597 93.4589C139.906 93.0903 139.186 92.7799 138.444 92.5309C137.34 92.1605 136.211 91.8705 135.066 91.6632C133.776 91.4173 132.342 91.227 130.839 91.0136L123.146 89.9232L120.826 89.5798L120.19 89.4824L119.972 89.4406L120.195 89.4638L120.83 89.5427L123.15 89.8536L130.848 90.9161C132.351 91.1249 133.785 91.3198 135.08 91.5704C136.227 91.7812 137.356 92.0791 138.458 92.4613C139.202 92.7185 139.923 93.0415 140.611 93.4264C141.102 93.7001 141.353 93.8765 141.353 93.8765Z" fill="white"/>
    <path d="M130.848 98.999C130.848 98.999 130.676 99.0825 130.347 99.2264C130.017 99.3702 129.526 99.579 128.89 99.8342C127.614 100.34 125.753 101.041 123.396 101.727C120.638 102.545 117.825 103.165 114.979 103.583C111.764 104.075 108.177 104.075 104.442 103.95C100.707 103.825 97.1291 103.667 93.8904 103.871C91.0214 104.01 88.1834 104.528 85.4502 105.411C83.6089 106.017 81.8601 106.874 80.2534 107.959C79.7013 108.358 79.2697 108.673 79.0006 108.915C78.7315 109.156 78.5737 109.263 78.5737 109.263C78.5737 109.263 78.7129 109.133 78.9867 108.901C79.2605 108.669 79.6781 108.335 80.2349 107.926C81.8356 106.826 83.5835 105.958 85.427 105.347C88.1648 104.453 91.0093 103.927 93.8857 103.783C97.1337 103.574 100.702 103.732 104.442 103.852C108.182 103.973 111.759 103.982 114.97 103.495C117.813 103.076 120.622 102.456 123.378 101.639C125.73 100.962 127.595 100.27 128.876 99.7832C129.516 99.5326 130.008 99.3192 130.338 99.1893L130.848 98.999Z" fill="white"/>
    <path d="M137.956 103.537C137.931 103.556 137.903 103.57 137.873 103.579L137.627 103.667C137.414 103.746 137.103 103.848 136.699 103.959C135.683 104.249 134.633 104.405 133.576 104.423C132.518 104.424 131.466 104.268 130.454 103.959C130.064 103.843 129.753 103.737 129.526 103.653L129.284 103.556L129.201 103.514H129.294L129.54 103.593C129.753 103.667 130.064 103.764 130.468 103.871C131.478 104.153 132.523 104.293 133.572 104.289C134.623 104.258 135.666 104.103 136.68 103.825C137.066 103.718 137.381 103.63 137.608 103.56L137.854 103.491L137.956 103.537Z" fill="white"/>
    <path d="M123.317 116.668C123.317 116.668 121.09 117.132 117.457 117.68C115.638 117.953 113.467 118.223 111.049 118.464C108.632 118.705 105.945 118.886 103.161 118.993C100.377 119.1 97.6859 119.09 95.2731 119.039C92.8603 118.988 90.6331 118.858 88.8235 118.719C85.1579 118.441 82.9075 118.134 82.9075 118.134L83.3158 118.167L84.4944 118.283C85.5152 118.39 86.9953 118.52 88.8281 118.649C90.6609 118.779 92.8464 118.886 95.2731 118.946C97.6998 119.007 100.377 118.993 103.161 118.895C105.945 118.798 108.622 118.598 111.049 118.376C113.476 118.153 115.638 117.875 117.457 117.61C119.276 117.346 120.742 117.114 121.754 116.933L122.918 116.728L123.317 116.668Z" fill="white"/>
    <path d="M141.487 115.35H141.32H140.856C140.434 115.35 139.826 115.35 139.075 115.35C137.571 115.35 135.493 115.29 133.21 115.095C130.927 114.9 128.862 114.589 127.387 114.32C126.644 114.19 126.05 114.07 125.637 113.982L125.173 113.88L125.011 113.838H125.178L125.642 113.921L127.391 114.232C128.871 114.483 130.927 114.78 133.21 114.975C135.493 115.169 137.571 115.234 139.07 115.258H140.852H141.316L141.487 115.35Z" fill="white"/>
    <path d="M118.32 134.477C118.32 134.477 118.185 134.504 117.94 134.537L116.845 134.69C116.381 134.76 115.787 134.838 115.105 134.885C114.422 134.931 113.652 135.024 112.785 135.038C111.917 135.052 110.989 135.117 110.001 135.098C109.495 135.098 108.975 135.098 108.437 135.098L106.78 135.043C104.511 134.954 102.024 134.783 99.4167 134.579C96.809 134.374 94.3127 134.115 92.0623 133.98C89.8119 133.845 87.761 133.743 86.0303 133.771H84.81L83.7195 133.827C83.0421 133.855 82.4528 133.887 81.9795 133.948L80.8799 134.054L80.4948 134.087C80.4948 134.087 80.6293 134.064 80.8799 134.036L81.9749 133.906C82.4389 133.841 83.0375 133.808 83.7195 133.771L84.81 133.711H86.0303C87.7471 133.678 89.7933 133.762 92.0623 133.901C94.3312 134.04 96.809 134.272 99.4167 134.49C102.024 134.709 104.521 134.889 106.776 134.987L108.428 135.047C108.966 135.047 109.485 135.047 109.991 135.047C110.998 135.047 111.935 135.024 112.775 135.001C113.615 134.978 114.404 134.899 115.095 134.857C115.787 134.815 116.357 134.746 116.835 134.681L117.93 134.546L118.32 134.477Z" fill="white"/>
    <path d="M145.626 129.029L145.422 129.062L144.828 129.122C144.318 129.178 143.571 129.238 142.652 129.303C140.796 129.428 138.258 129.516 135.442 129.447C132.625 129.377 130.078 129.145 128.245 128.922C127.317 128.811 126.589 128.709 126.078 128.63L125.493 128.537L125.289 128.496L125.493 128.519L126.083 128.593C126.593 128.663 127.336 128.755 128.254 128.857C130.087 129.062 132.625 129.275 135.442 129.349C138.258 129.424 140.805 129.349 142.648 129.233C143.576 129.182 144.313 129.127 144.828 129.085L145.418 129.038L145.626 129.029Z" fill="white"/>
    <path d="M145.956 145.891L145.278 145.854C144.814 145.854 144.179 145.761 143.334 145.738C141.645 145.65 139.2 145.631 136.179 145.78C133.159 145.928 129.581 146.285 125.619 146.81C121.656 147.334 117.313 148.016 112.752 148.591C108.444 149.172 104.106 149.502 99.76 149.58C96.2163 149.64 92.6743 149.384 89.1761 148.814C86.8187 148.425 84.4983 147.839 82.2393 147.06C81.8357 146.935 81.4877 146.8 81.1861 146.68L80.4158 146.373C80.0029 146.211 79.7894 146.118 79.7894 146.118L80.4251 146.355L81.1953 146.652C81.4969 146.773 81.8496 146.902 82.2533 147.028C84.5141 147.791 86.8343 148.365 89.1901 148.745C92.6847 149.303 96.2216 149.553 99.76 149.492C104.106 149.404 108.444 149.066 112.752 148.48C117.322 147.891 121.665 147.213 125.633 146.703C129.6 146.193 133.168 145.849 136.179 145.696C138.563 145.574 140.951 145.574 143.334 145.696C145.023 145.793 145.956 145.891 145.956 145.891Z" fill="white"/>
    <path d="M120.44 163.217C120.44 163.217 118.209 163.597 114.571 163.987C112.757 164.182 110.585 164.358 108.172 164.497C105.76 164.636 103.096 164.701 100.308 164.688C97.5189 164.674 94.8602 164.544 92.4474 164.386C90.0346 164.228 87.8677 164.005 86.0534 163.783C82.4203 163.319 80.1978 162.929 80.1978 162.929L80.6061 162.98L81.7707 163.152C82.2718 163.231 82.8936 163.319 83.6267 163.407C84.3598 163.495 85.1672 163.62 86.072 163.713C87.8909 163.927 90.0578 164.131 92.4659 164.298C94.8741 164.465 97.5328 164.562 100.321 164.59C103.11 164.618 105.769 164.53 108.182 164.409C110.594 164.288 112.761 164.108 114.58 163.917C115.508 163.834 116.311 163.727 117.03 163.648C117.749 163.569 118.371 163.486 118.886 163.416L120.051 163.263L120.44 163.217Z" fill="white"/>
    <path d="M145.696 159.894C145.696 159.894 145.608 159.927 145.445 159.973L144.736 160.191C144.114 160.377 143.214 160.632 142.095 160.934C139.864 161.532 136.75 162.275 133.279 162.91C129.809 163.546 126.63 163.959 124.329 164.191C123.178 164.307 122.245 164.386 121.601 164.432L120.858 164.483H120.598L120.853 164.451L121.596 164.381C122.241 164.326 123.173 164.233 124.32 164.108C126.64 163.857 129.79 163.439 133.261 162.804C136.732 162.168 139.84 161.435 142.077 160.85C143.195 160.563 144.095 160.317 144.717 160.14L145.436 159.941L145.696 159.894Z" fill="white"/>
    <path d="M102.739 182.561C101.543 182.747 100.338 182.866 99.1289 182.918C98.0106 182.978 96.6743 182.983 95.1895 182.918C91.9718 182.764 88.7836 182.23 85.6915 181.327C84.267 180.904 83.0049 180.464 81.9795 180.041C80.8543 179.595 79.7532 179.09 78.6804 178.529L78.9124 178.631L79.5667 178.932C79.8497 179.067 80.1977 179.229 80.6107 179.396C81.0236 179.563 81.4783 179.777 82.0027 179.972C83.042 180.389 84.3227 180.821 85.7147 181.238C87.2604 181.675 88.8277 182.031 90.4103 182.306C91.9953 182.556 93.592 182.727 95.1942 182.816C96.6743 182.881 98.006 182.886 99.1243 182.816C99.6857 182.816 100.191 182.756 100.637 182.728C101.082 182.7 101.458 182.658 101.774 182.626L102.488 182.552L102.739 182.561Z" fill="white"/>
    <path d="M147.376 181.378L146.912 181.461L145.585 181.675C144.434 181.855 142.764 182.111 140.699 182.403C136.569 182.992 130.848 183.725 124.514 184.356C118.181 184.988 112.423 185.387 108.274 185.619C106.191 185.735 104.502 185.818 103.337 185.864L101.996 185.915H101.532L101.996 185.888L103.337 185.818L108.27 185.544C112.446 185.294 118.181 184.876 124.51 184.25C130.839 183.623 136.574 182.899 140.694 182.329L145.585 181.628L146.912 181.433L147.376 181.378Z" fill="white"/>
    <path d="M149.807 198.467C149.807 198.467 148.795 198.68 146.944 198.982C145.093 199.283 142.411 199.659 139.056 199.938C135.144 200.257 131.217 200.353 127.294 200.225C122.862 200.081 118.014 199.585 112.942 198.963C107.871 198.341 103.036 197.715 98.6231 197.372C94.715 197.035 90.7894 196.946 86.87 197.107C84.2235 197.231 81.5883 197.531 78.982 198.007C78.054 198.184 77.3487 198.332 76.8708 198.448L76.1377 198.615C76.1377 198.615 76.3883 198.546 76.8662 198.43C77.3441 198.314 78.054 198.156 78.9727 197.966C81.5773 197.473 84.213 197.163 86.8607 197.038C90.781 196.862 94.7085 196.941 98.6185 197.274C103.04 197.618 107.871 198.244 112.942 198.866C118.014 199.488 122.862 199.984 127.289 200.128C131.209 200.262 135.133 200.173 139.042 199.863C142.378 199.594 145.074 199.228 146.93 198.935C147.858 198.787 148.573 198.671 149.06 198.583L149.807 198.467Z" fill="white"/>
    <path d="M163.421 103.129C163.421 103.129 163.286 103.495 162.985 104.135C162.55 105.036 162.044 105.9 161.472 106.72C160.621 107.932 159.691 109.087 158.688 110.177C157.565 111.42 156.275 112.729 154.976 114.149C153.735 115.469 152.603 116.888 151.589 118.39C150.763 119.617 150.094 120.944 149.598 122.338C149.26 123.288 149.04 124.276 148.944 125.28C148.898 125.628 148.911 125.906 148.898 126.092C148.884 126.278 148.898 126.375 148.898 126.375C148.885 126.008 148.895 125.641 148.925 125.275C149.005 124.275 149.212 123.29 149.543 122.343C150.032 120.94 150.698 119.606 151.524 118.371C152.538 116.86 153.672 115.434 154.916 114.107C156.224 112.692 157.519 111.383 158.628 110.144C159.628 109.059 160.558 107.911 161.412 106.706C161.99 105.894 162.503 105.037 162.947 104.145C163.114 103.829 163.212 103.574 163.295 103.407C163.379 103.24 163.421 103.129 163.421 103.129Z" fill="white"/>
    <path d="M142.049 111.123L142.207 111.007L142.671 110.692C143.079 110.427 143.65 110.019 144.336 109.49C145.023 108.961 145.817 108.302 146.656 107.523C147.562 106.673 148.421 105.776 149.232 104.836C150.032 103.885 150.783 102.894 151.482 101.867C152.113 100.911 152.647 100.011 153.055 99.2635C153.463 98.5165 153.779 97.8715 153.983 97.4075L154.22 96.9018L154.308 96.7255C153.96 97.6035 153.563 98.4617 153.12 99.296C152.716 100.066 152.192 100.957 151.556 101.913C150.865 102.949 150.115 103.945 149.311 104.897C148.498 105.841 147.633 106.739 146.721 107.588C145.872 108.363 145.079 109.026 144.401 109.546C143.648 110.115 142.862 110.642 142.049 111.123Z" fill="white"/>
    <path d="M108.887 132.82C108.921 132.797 108.959 132.78 108.998 132.769L109.332 132.639C109.634 132.537 110.056 132.351 110.599 132.101C112.108 131.34 113.493 130.355 114.705 129.178C116.493 127.422 118.07 125.465 119.406 123.345C121.082 120.773 122.612 118.108 123.99 115.364C126.462 110.361 128.631 105.214 130.486 99.9502C131.215 97.9365 131.781 96.2939 132.18 95.1664L132.644 93.8625C132.695 93.7233 132.736 93.6166 132.769 93.5238C132.801 93.431 132.815 93.4125 132.815 93.4125C132.813 93.4535 132.805 93.4941 132.792 93.5331C132.764 93.6259 132.727 93.7373 132.685 93.8765C132.588 94.1966 132.449 94.6374 132.268 95.1942C131.901 96.3357 131.34 97.9782 130.644 100.006C128.831 105.296 126.675 110.462 124.19 115.471C122.809 118.223 121.271 120.892 119.582 123.466C118.227 125.591 116.626 127.549 114.812 129.298C113.583 130.475 112.173 131.448 110.636 132.18C110.218 132.373 109.789 132.542 109.351 132.685L109.007 132.792C108.969 132.808 108.928 132.817 108.887 132.82Z" fill="#455A64"/>
    <path d="M108.112 142.638C108.188 142.565 108.272 142.499 108.362 142.443L109.114 141.928C109.759 141.464 110.692 140.81 111.815 139.952C114.065 138.24 117.021 135.683 120.195 132.764C121.791 131.307 123.317 129.929 124.635 128.612C125.813 127.453 126.908 126.213 127.911 124.9C128.583 124.011 129.182 123.069 129.702 122.083C129.897 121.74 130.017 121.457 130.11 121.271C130.154 121.175 130.205 121.082 130.263 120.993C130.24 121.097 130.204 121.198 130.157 121.294C130.073 121.485 129.966 121.758 129.781 122.125C129.291 123.134 128.709 124.096 128.041 124.997C127.056 126.334 125.97 127.594 124.793 128.765C123.475 130.101 121.953 131.484 120.357 132.941C117.666 135.464 114.849 137.849 111.917 140.086C110.78 140.935 109.833 141.576 109.165 142.007C108.836 142.225 108.571 142.378 108.395 142.471C108.304 142.533 108.21 142.589 108.112 142.638Z" fill="#455A64"/>
    <path d="M95.584 192.244L95.6397 192.138C95.6907 192.064 95.751 191.966 95.8253 191.845C95.9877 191.586 96.2382 191.214 96.5723 190.741C97.2451 189.813 98.2798 188.481 99.644 186.932C102.396 183.841 106.247 179.633 110.492 174.97L121.401 163.068L124.728 159.477L125.656 158.507L125.897 158.261C125.953 158.205 125.981 158.178 125.985 158.182C125.99 158.187 125.962 158.215 125.916 158.275L125.688 158.54L124.816 159.537C124.027 160.409 122.914 161.653 121.545 163.175L110.683 175.128L99.76 187.038C98.368 188.574 97.3286 189.873 96.6373 190.797C96.2893 191.261 96.0294 191.623 95.8531 191.869L95.6536 192.152C95.6353 192.186 95.6118 192.217 95.584 192.244Z" fill="#455A64"/>
    <path d="M138.903 108.85C138.828 108.619 138.77 108.384 138.731 108.144C138.68 107.917 138.625 107.634 138.583 107.305C138.541 106.975 138.472 106.599 138.453 106.182C138.434 105.764 138.383 105.305 138.388 104.79C138.393 104.275 138.388 103.769 138.425 103.212C138.586 100.808 139.174 98.4509 140.16 96.2521C140.397 95.751 140.624 95.2731 140.866 94.8601C141.107 94.4472 141.33 94.0342 141.566 93.6816C141.803 93.3289 142.03 93.0181 142.207 92.7536C142.369 92.52 142.544 92.2954 142.731 92.0808C142.872 91.8885 143.027 91.707 143.195 91.5379C143.075 91.7491 142.937 91.9493 142.782 92.1365C142.643 92.3221 142.471 92.5494 142.295 92.8278C142.119 93.1062 141.891 93.4078 141.687 93.7558C141.483 94.1038 141.223 94.5029 141.014 94.939C140.805 95.3752 140.55 95.867 140.337 96.331C139.378 98.5189 138.798 100.853 138.62 103.235C138.592 103.783 138.55 104.303 138.56 104.79C138.569 105.277 138.56 105.718 138.597 106.149C138.634 106.581 138.662 106.938 138.694 107.268C138.727 107.597 138.764 107.88 138.801 108.112C138.859 108.354 138.893 108.601 138.903 108.85Z" fill="#455A64"/>
    <path d="M145.654 125.498C145.599 125.498 144.763 123.679 143.798 121.378C142.833 119.076 142.091 117.202 142.146 117.165C142.834 118.506 143.453 119.881 144.002 121.285C144.626 122.659 145.178 124.066 145.654 125.498Z" fill="#455A64"/>
    <path d="M79.344 110.785C79.3069 110.808 78.945 110.144 78.2629 109.137C76.481 106.509 74.1784 104.274 71.4978 102.572C70.4724 101.922 69.7996 101.579 69.8181 101.542C69.989 101.592 70.154 101.66 70.31 101.746C70.6208 101.89 71.057 102.122 71.586 102.433C72.9595 103.252 74.2332 104.229 75.3815 105.342C76.5273 106.459 77.5408 107.705 78.4021 109.054C78.7269 109.574 78.9728 110.005 79.126 110.311C79.2146 110.461 79.2877 110.62 79.344 110.785Z" fill="#455A64"/>
    <path d="M97.556 99.8157C97.5292 99.6622 97.5292 99.5052 97.556 99.3517C97.6348 98.4797 98.0097 97.6609 98.6185 97.0317L98.6464 97.0038V97.0363C98.6795 97.101 98.7044 97.1696 98.7206 97.2405C98.7206 97.2405 98.6696 97.1802 98.6046 97.0595H98.6464C98.3455 97.4151 98.1 97.814 97.9179 98.2427C97.7249 98.7477 97.6031 99.2771 97.556 99.8157Z" fill="#455A64"/>
    <path d="M103.699 103.008C103.641 102.86 103.608 102.703 103.602 102.544C103.561 102.164 103.571 101.78 103.63 101.403C103.689 101.025 103.797 100.657 103.95 100.308C104.005 100.16 104.084 100.022 104.182 99.8992C103.973 100.388 103.817 100.899 103.718 101.421C103.655 101.948 103.649 102.48 103.699 103.008Z" fill="#455A64"/>
    <path d="M110.395 102.47C110.373 102.037 110.314 101.607 110.219 101.184C110.089 100.769 109.92 100.366 109.713 99.9827C109.806 100.074 109.884 100.179 109.945 100.294C110.105 100.563 110.229 100.854 110.311 101.157C110.391 101.46 110.434 101.771 110.437 102.085C110.445 102.214 110.431 102.345 110.395 102.47Z" fill="#455A64"/>
    <path d="M116.25 99.9039C116.053 99.4915 115.82 99.0971 115.554 98.7253C115.257 98.3782 114.931 98.0568 114.58 97.7648C114.706 97.8162 114.823 97.8866 114.928 97.9736C115.19 98.1734 115.426 98.4057 115.629 98.665C115.831 98.9258 115.999 99.2111 116.13 99.5141C116.191 99.6367 116.231 99.7683 116.25 99.9039Z" fill="#455A64"/>
    <path d="M120.283 95.9274C120.134 95.4393 119.857 95.0003 119.48 94.656C119.089 94.3303 118.615 94.1198 118.111 94.0482C118.111 94.0482 118.158 94.0482 118.236 94.0482C118.347 94.0519 118.458 94.0659 118.566 94.0899C118.928 94.1761 119.264 94.3479 119.545 94.591C119.827 94.8329 120.045 95.1404 120.181 95.4865C120.224 95.5892 120.255 95.6967 120.273 95.8067C120.282 95.8463 120.285 95.8869 120.283 95.9274Z" fill="#455A64"/>
    <path d="M122.44 88.5823C122.083 88.2969 121.666 88.0969 121.22 87.9976C120.767 87.9283 120.305 87.9665 119.87 88.109C120.289 87.8899 120.769 87.8166 121.235 87.9006C121.7 87.9846 122.124 88.2212 122.44 88.573V88.5823Z" fill="#455A64"/>
    <path d="M93.5284 94.8648C93.5374 94.7271 93.5704 94.5921 93.6259 94.4658C93.8729 93.8441 94.3404 93.3353 94.939 93.0367C95.0603 92.9708 95.1922 92.9268 95.3288 92.9067C94.9083 93.0888 94.5307 93.3572 94.2206 93.6945C93.9105 94.0318 93.6746 94.4305 93.5284 94.8648Z" fill="#455A64"/>
    <path d="M92.0623 89.9742C92.1181 89.8383 92.1966 89.7128 92.2943 89.603C92.5115 89.3199 92.7732 89.0739 93.0691 88.8745C93.3651 88.6712 93.6906 88.5147 94.0342 88.4105C94.173 88.362 94.3188 88.3369 94.4658 88.3363C93.5012 88.5841 92.652 89.1578 92.0623 89.9603V89.9742Z" fill="#455A64"/>
    <path d="M80.5272 118.492C80.5272 118.492 80.5272 118.464 80.4993 118.492C80.4798 118.539 80.4658 118.589 80.4576 118.64C80.4344 118.784 80.4112 118.993 80.3833 119.267C80.3277 119.809 80.2673 120.598 80.2024 121.587C80.0678 123.54 79.9147 126.227 79.7709 129.229C79.627 132.231 79.5157 134.917 79.4507 136.875C79.4182 137.803 79.395 138.611 79.3765 139.195C79.3765 139.446 79.3765 139.659 79.3486 139.826C79.3555 139.899 79.3555 139.972 79.3486 140.044C79.328 139.974 79.3202 139.9 79.3254 139.826C79.3254 139.655 79.3254 139.446 79.3254 139.195C79.3254 138.648 79.3254 137.854 79.3254 136.875C79.3254 134.917 79.4275 132.208 79.576 129.219C79.7245 126.231 79.9008 123.531 80.0771 121.577C80.1653 120.598 80.2534 119.809 80.3369 119.257C80.3787 118.988 80.4205 118.793 80.4576 118.636C80.4704 118.58 80.4923 118.526 80.5225 118.478C80.5225 118.436 80.5365 118.501 80.5272 118.492Z" fill="#263238"/>
    <path d="M131.651 24.7683C127.781 23.5851 123.763 27.0512 119.772 26.2717C117.359 25.8077 115.541 23.8728 113.392 22.6757C110.186 20.8846 105.648 20.5923 102.372 22.2581C99.0964 23.9238 96.9759 25.6963 96.5351 29.348C93.5516 27.6358 88.5775 31.3896 86.8839 35.0134C85.1903 38.6373 85.6126 42.3771 86.5731 46.2608C88.2418 52.9591 91.2087 59.2649 95.3055 64.8208C95.6675 65.3127 96.2335 65.8555 96.795 65.5957C96.9681 65.4745 97.1103 65.3144 97.2102 65.1282C97.3101 64.9421 97.365 64.7351 97.3703 64.5239C97.9411 60.9743 97.491 57.3504 97.1801 53.7683C96.8692 50.1863 96.7161 46.4928 97.8529 43.0963C98.9897 39.6999 101.658 36.5725 105.184 35.8765C107.792 35.3615 110.497 36.2059 112.812 37.5098C115.128 38.8136 117.165 40.549 119.369 42.0291C121.573 43.5093 124.05 44.7575 126.704 44.8688C129.358 44.9802 132.207 43.7367 133.335 41.3331C134.462 38.9296 133.2 35.5146 130.602 34.9624C131.812 34.8564 132.947 34.3321 133.813 33.4797C134.678 32.6272 135.219 31.4999 135.343 30.2916C135.467 29.0833 135.167 27.8695 134.493 26.8589C133.819 25.8484 132.814 25.1042 131.651 24.7544V24.7683Z" fill="#263238"/>
    <path d="M119.712 87.0139L119.336 79.344C119.336 79.344 129.461 77.4045 129.233 67.2197C129.122 62.3059 128.064 52.1954 127.006 43.0592C126.461 38.3178 124.149 33.956 120.531 30.8431C116.913 27.7301 112.255 26.0946 107.486 26.2624L106.502 26.2949C95.9366 27.2879 90.8698 36.8184 92.155 47.3559L94.591 88.3735C94.7874 91.6906 96.2883 94.7953 98.766 97.0095C101.244 99.2238 104.497 100.368 107.815 100.192C111.137 100.014 114.254 98.5278 116.483 96.0584C118.713 93.5889 119.874 90.337 119.712 87.0139Z" fill="#FFBE9D"/>
    <path d="M119.35 79.344C119.35 79.344 112.933 80.0911 105.945 76.0357C105.945 76.0357 109.342 83.2555 119.466 81.9795L119.35 79.344Z" fill="#EB996E"/>
    <path d="M123.577 49.9496C123.592 50.3278 123.46 50.697 123.208 50.9794C122.956 51.2617 122.604 51.4349 122.227 51.4623C122.042 51.4835 121.856 51.4675 121.677 51.4154C121.499 51.3634 121.333 51.2762 121.189 51.159C121.045 51.0419 120.926 50.8971 120.839 50.7332C120.752 50.5693 120.698 50.3897 120.682 50.2048C120.664 49.8264 120.794 49.4559 121.046 49.1724C121.297 48.889 121.649 48.715 122.027 48.6876C122.212 48.6657 122.4 48.6813 122.579 48.7334C122.758 48.7854 122.925 48.8729 123.069 48.9906C123.214 49.1083 123.333 49.2539 123.42 49.4186C123.508 49.5833 123.561 49.7639 123.577 49.9496Z" fill="#263238"/>
    <path d="M124.992 48.0983C124.816 48.2932 123.688 47.5183 122.125 47.5786C120.561 47.6389 119.443 48.4602 119.267 48.2746C119.178 48.1911 119.35 47.8431 119.837 47.4626C120.497 46.9694 121.292 46.6923 122.116 46.6692C122.93 46.6371 123.733 46.8663 124.408 47.3234C124.904 47.6714 125.076 48.0101 124.992 48.0983Z" fill="#263238"/>
    <path d="M108.209 51.04C108.226 51.4189 108.094 51.7894 107.842 52.0727C107.59 52.3561 107.237 52.5299 106.859 52.5573C106.675 52.5785 106.488 52.5626 106.31 52.5105C106.132 52.4584 105.966 52.3712 105.822 52.254C105.678 52.1369 105.559 51.9921 105.471 51.8282C105.384 51.6644 105.331 51.4847 105.314 51.2999C105.297 50.921 105.429 50.5505 105.681 50.2672C105.933 49.9838 106.286 49.81 106.664 49.7826C106.849 49.7614 107.035 49.7773 107.214 49.8294C107.392 49.8815 107.558 49.9687 107.702 50.0858C107.846 50.203 107.965 50.3478 108.052 50.5116C108.139 50.6755 108.193 50.8552 108.209 51.04Z" fill="#263238"/>
    <path d="M109.625 48.9288C109.453 49.1237 108.321 48.3488 106.757 48.4091C105.193 48.4694 104.075 49.2907 103.899 49.1051C103.811 49.0216 103.982 48.6736 104.47 48.2931C105.131 47.7998 105.928 47.5227 106.752 47.4997C107.565 47.4679 108.367 47.6972 109.04 48.1539C109.536 48.5065 109.713 48.8406 109.625 48.9288Z" fill="#263238"/>
    <path d="M115.708 60.32C115.708 60.2272 116.664 60.0277 118.232 59.7725C118.631 59.7168 119.007 59.624 119.067 59.3456C119.084 58.932 118.975 58.5229 118.756 58.1717C118.348 57.2205 117.921 56.2183 117.471 55.1743C115.675 50.9008 114.362 47.3791 114.538 47.2863C114.715 47.1935 116.302 50.6224 118.093 54.8959C118.529 55.9476 118.942 56.9545 119.332 57.9165C119.6 58.3892 119.693 58.9409 119.596 59.4755C119.543 59.6183 119.458 59.7472 119.348 59.8525C119.238 59.9578 119.105 60.0368 118.96 60.0834C118.741 60.1512 118.513 60.1902 118.283 60.1994C116.701 60.3803 115.717 60.4221 115.708 60.32Z" fill="#263238"/>
    <path d="M111.142 61.5774C111.397 61.5496 111.462 63.2478 112.956 64.4032C114.45 65.5585 116.251 65.308 116.274 65.5446C116.302 65.6513 115.884 65.888 115.118 65.9344C114.118 65.9901 113.131 65.6874 112.334 65.0806C111.581 64.4984 111.082 63.647 110.942 62.7049C110.854 61.995 111.026 61.5681 111.142 61.5774Z" fill="#263238"/>
    <path d="M109.504 40.9109C109.365 41.3377 107.796 41.1939 105.968 41.4769C104.14 41.76 102.674 42.3168 102.419 41.9409C102.303 41.76 102.544 41.3517 103.129 40.9201C103.909 40.3856 104.802 40.0366 105.738 39.8998C106.674 39.7631 107.629 39.8423 108.53 40.1313C109.207 40.368 109.56 40.7067 109.504 40.9109Z" fill="#263238"/>
    <path d="M124.259 43.616C123.995 43.9779 122.904 43.6485 121.61 43.6763C120.315 43.7042 119.225 44.0011 118.956 43.6346C118.84 43.4582 119.002 43.0963 119.471 42.7437C120.094 42.3071 120.839 42.0782 121.6 42.0894C122.358 42.0626 123.106 42.2718 123.74 42.688C124.208 43.0546 124.375 43.4118 124.259 43.616Z" fill="#263238"/>
    <path d="M93.2639 54.8633C93.0876 54.7937 86.1972 53.0398 86.6612 59.9674C87.1252 66.8949 94.011 65.0157 94.011 64.8162C94.011 64.6166 93.2639 54.8633 93.2639 54.8633Z" fill="#FFBE9D"/>
    <path d="M91.6957 62.3477C91.6632 62.3477 91.5797 62.4405 91.3802 62.5472C91.1041 62.6957 90.7805 62.7291 90.48 62.64C89.7237 62.4173 89.0277 61.2944 88.9117 60.0416C88.854 59.4477 88.9301 58.8484 89.1344 58.2877C89.1839 58.0654 89.2872 57.8586 89.4352 57.6854C89.5833 57.5123 89.7715 57.3782 89.9835 57.2948C90.1202 57.2482 90.2688 57.251 90.4036 57.3027C90.5384 57.3544 90.6508 57.4518 90.7213 57.5778C90.828 57.768 90.7909 57.9072 90.828 57.9165C90.8651 57.9258 90.9718 57.7912 90.893 57.5082C90.8423 57.339 90.7361 57.1919 90.5914 57.0906C90.3894 56.9607 90.1449 56.9141 89.9093 56.9607C89.6277 57.0355 89.3701 57.1815 89.1613 57.3847C88.9524 57.5878 88.7994 57.8413 88.7168 58.1207C88.4623 58.7433 88.3635 59.4186 88.4291 60.088C88.5683 61.48 89.3571 62.7468 90.3965 62.9695C90.5865 63.0117 90.7835 63.0107 90.973 62.9665C91.1626 62.9223 91.3398 62.8361 91.4915 62.7143C91.6957 62.5194 91.7189 62.3616 91.6957 62.3477Z" fill="#EB996E"/>
    <path d="M129.085 40.832C126.851 41.4895 124.493 41.6073 122.204 41.1758C119.916 40.7442 117.762 39.7756 115.921 38.3496C113.369 36.3359 111.355 33.3848 108.219 32.5357C107.15 32.2915 106.043 32.2622 104.963 32.4494C103.883 32.6366 102.851 33.0366 101.927 33.6261C100.082 34.8143 98.5028 36.3701 97.2869 38.1965C99.4352 43.3005 98.3169 49.1237 97.1662 54.5386C97.1029 55.1534 96.8368 55.7296 96.4099 56.1765C95.6118 56.8354 94.359 56.3853 93.6259 55.6615C92.4334 54.4968 91.9277 52.8125 91.5797 51.1885C90.7178 47.4869 90.6026 43.6506 91.2409 39.904C91.8942 36.1447 93.6366 32.6598 96.2521 29.8816C99.6576 26.5038 104.244 24.5835 109.04 24.5271C113.811 24.5069 118.468 25.9909 122.347 28.768C124.148 30.0301 125.818 31.552 126.793 33.5426" fill="#263238"/>
    <path d="M134.657 27.1208C134.687 27.3241 134.672 27.5313 134.616 27.7286C134.469 28.303 134.144 28.8162 133.688 29.1949C132.956 29.78 132.058 30.1179 131.122 30.16C130.547 30.2109 129.967 30.1954 129.396 30.1136C128.739 30.0252 128.118 29.7606 127.6 29.348C127.308 29.1173 127.073 28.8231 126.912 28.4878C126.752 28.1525 126.669 27.785 126.672 27.4131C126.709 27.0084 126.859 26.6222 127.105 26.2988C127.351 25.9755 127.684 25.7281 128.064 25.585C128.459 25.4211 128.886 25.3512 129.312 25.3808C129.756 25.4248 130.176 25.5974 130.523 25.8773C130.872 26.172 131.153 26.5385 131.346 26.9517C131.54 27.3649 131.642 27.8151 131.646 28.2715C131.663 29.2346 131.301 30.1658 130.639 30.8653C129.963 31.5807 129.11 32.1043 128.166 32.3826C126.254 32.9811 124.12 32.6934 122.199 31.9464C120.335 31.1801 118.567 30.2008 116.928 29.0279C115.418 27.9571 113.821 27.0149 112.153 26.2114C110.651 25.4941 108.996 25.1518 107.332 25.2138C105.89 25.3188 104.488 25.7402 103.226 26.448C101.387 27.4954 99.8465 28.9971 98.7531 30.8096C98.4435 31.2904 98.16 31.7876 97.904 32.299C97.8253 32.4846 97.7338 32.6644 97.6302 32.8373C97.6387 32.7859 97.6543 32.7359 97.6766 32.6888C97.7091 32.596 97.7602 32.4522 97.839 32.2712C98.0639 31.7369 98.3259 31.2191 98.6232 30.7214C99.6871 28.8518 101.227 27.2973 103.087 26.216C104.383 25.4788 105.827 25.0397 107.314 24.9307C109.028 24.8507 110.735 25.19 112.288 25.9191C113.98 26.73 115.601 27.6831 117.132 28.768C118.749 29.9215 120.49 30.8881 122.324 31.6494C124.204 32.3733 126.254 32.6517 128.073 32.0856C128.958 31.8089 129.755 31.305 130.384 30.624C130.983 30.0006 131.316 29.1685 131.312 28.304C131.312 27.8926 131.224 27.4861 131.052 27.1121C130.881 26.7382 130.631 26.4056 130.319 26.1371C130.018 25.8988 129.656 25.748 129.275 25.7014C128.894 25.6547 128.507 25.714 128.157 25.8727C127.82 25.9908 127.523 26.2015 127.301 26.4805C127.079 26.7596 126.939 27.0957 126.899 27.4503C126.899 27.7832 126.974 28.1119 127.118 28.4122C127.261 28.7126 127.471 28.9768 127.73 29.1856C128.215 29.573 128.795 29.8245 129.41 29.9141C129.965 30.0008 130.529 30.0242 131.089 29.9837C132.01 29.9635 132.9 29.6515 133.632 29.0928C134.072 28.731 134.395 28.2465 134.56 27.7008C134.605 27.5097 134.637 27.316 134.657 27.1208Z" fill="#455A64"/>
    <path d="M85.84 41.0501C86.5387 41.2706 87.2563 41.426 87.9836 41.5141C88.7707 41.5565 89.5585 41.4462 90.3036 41.1893C91.2191 40.8643 92.0833 40.4096 92.8696 39.8391C94.2902 38.7789 95.3276 37.2855 95.8253 35.5842C95.9993 34.8692 96.128 34.1439 96.2104 33.4127C96.2609 33.6095 96.2797 33.8131 96.2661 34.0159C96.2644 34.5668 96.1943 35.1155 96.0573 35.6491C95.6128 37.4427 94.5559 39.0248 93.0691 40.1221C92.2563 40.72 91.3565 41.1895 90.4011 41.5141C89.6137 41.7733 88.7804 41.8634 87.9558 41.7786C87.4057 41.7155 86.8678 41.5717 86.3596 41.3517C86.17 41.2827 85.994 41.1806 85.84 41.0501Z" fill="#455A64"/>
    <path d="M86.3318 46.0752C86.3318 46.0102 87.1577 46.1634 88.4708 46.0427C90.1776 45.8972 91.814 45.296 93.2089 44.3018C94.6038 43.3077 95.7061 41.9571 96.4006 40.3912C96.9435 39.1894 97.0641 38.3682 97.1291 38.3821C97.1417 38.5771 97.1229 38.773 97.0734 38.9621C96.9714 39.484 96.8159 39.994 96.6094 40.484C95.9556 42.1296 94.8417 43.552 93.4009 44.5814C91.9601 45.6108 90.2534 46.2035 88.4847 46.2886C87.9546 46.316 87.4231 46.2911 86.8979 46.2144C86.703 46.1981 86.512 46.1511 86.3318 46.0752Z" fill="#455A64"/>
    <path d="M104.66 55.7635C104.637 55.7682 104.613 55.7682 104.59 55.7634C104.566 55.7587 104.544 55.7493 104.525 55.7359C104.505 55.7225 104.489 55.7053 104.476 55.6853C104.463 55.6653 104.455 55.643 104.451 55.6197C104.443 55.5972 104.44 55.5733 104.442 55.5495C104.444 55.5258 104.451 55.5027 104.462 55.4818C104.474 55.4608 104.489 55.4425 104.508 55.4279C104.527 55.4133 104.548 55.4027 104.572 55.397C104.617 55.3923 104.663 55.4044 104.701 55.4311C104.738 55.4577 104.765 55.497 104.776 55.5418C104.786 55.5865 104.781 55.6336 104.759 55.6744C104.738 55.7152 104.703 55.7468 104.66 55.7635Z" fill="#EB996E"/>
    <path d="M107.648 54.9794C107.598 54.979 107.549 54.9618 107.51 54.9305C107.471 54.8991 107.444 54.8555 107.432 54.8067C107.421 54.7579 107.427 54.7067 107.448 54.6614C107.47 54.6161 107.506 54.5794 107.551 54.5571C107.602 54.553 107.653 54.5684 107.693 54.6002C107.734 54.632 107.761 54.678 107.769 54.7288C107.785 54.7781 107.782 54.8318 107.759 54.8786C107.737 54.9253 107.697 54.9615 107.648 54.9794Z" fill="#EB996E"/>
    <path d="M109.638 54.8588C109.541 54.8588 109.448 54.7613 109.42 54.6082C109.393 54.4551 109.453 54.3159 109.546 54.302C109.638 54.288 109.736 54.3994 109.764 54.5525C109.792 54.7056 109.731 54.8448 109.638 54.8588Z" fill="#EB996E"/>
    <path d="M106.196 57.587C106.103 57.587 106.019 57.5453 106.019 57.485C106.019 57.4246 106.094 57.369 106.186 57.369C106.279 57.369 106.363 57.4107 106.363 57.471C106.363 57.5314 106.293 57.5824 106.196 57.587Z" fill="#EB996E"/>
    <path d="M108.915 56.8539C108.866 56.8565 108.819 56.84 108.782 56.8079C108.746 56.7758 108.723 56.7307 108.72 56.6823C108.715 56.6582 108.715 56.6334 108.72 56.6094C108.725 56.5853 108.735 56.5625 108.748 56.5422C108.762 56.522 108.78 56.5046 108.801 56.4912C108.821 56.4778 108.844 56.4686 108.868 56.4642C108.917 56.4629 108.965 56.4804 109.001 56.5133C109.037 56.5461 109.06 56.5917 109.063 56.6405C109.071 56.6884 109.06 56.7376 109.032 56.7776C109.005 56.8175 108.962 56.8449 108.915 56.8539Z" fill="#EB996E"/>
    <path d="M123.122 54.65C123.099 54.6546 123.074 54.6545 123.05 54.6495C123.027 54.6445 123.004 54.6348 122.984 54.6209C122.964 54.6071 122.947 54.5894 122.934 54.5689C122.922 54.5483 122.913 54.5254 122.909 54.5015C122.901 54.4787 122.898 54.4545 122.9 54.4304C122.902 54.4064 122.909 54.383 122.92 54.3617C122.931 54.3403 122.947 54.3216 122.966 54.3065C122.985 54.2915 123.006 54.2804 123.03 54.2741C123.077 54.2681 123.125 54.2798 123.164 54.3068C123.204 54.3338 123.232 54.3744 123.243 54.4207C123.255 54.4671 123.249 54.5161 123.226 54.5584C123.204 54.6006 123.167 54.6332 123.122 54.65Z" fill="#EB996E"/>
    <path d="M125.15 54.3948C125.099 54.3903 125.052 54.3687 125.015 54.3336C124.979 54.2984 124.955 54.2518 124.949 54.2014C124.942 54.151 124.953 54.1 124.98 54.0567C125.006 54.0133 125.047 53.9804 125.094 53.9633C125.187 53.9633 125.275 54.0375 125.294 54.1535C125.305 54.2045 125.297 54.2579 125.27 54.3028C125.243 54.3477 125.2 54.3806 125.15 54.3948Z" fill="#EB996E"/>
    <path d="M121.322 54.752C121.293 54.7549 121.263 54.7493 121.237 54.7357C121.211 54.7222 121.189 54.7014 121.174 54.6758C121.16 54.6502 121.153 54.6209 121.154 54.5915C121.156 54.562 121.166 54.5337 121.183 54.5098C121.201 54.4859 121.224 54.4675 121.252 54.4569C121.279 54.4462 121.309 54.4437 121.338 54.4497C121.367 54.4557 121.394 54.4699 121.415 54.4906C121.436 54.5113 121.45 54.5377 121.457 54.5664C121.462 54.6087 121.451 54.6515 121.426 54.686C121.401 54.7205 121.364 54.7441 121.322 54.752Z" fill="#EB996E"/>
    <path d="M122.904 56.7518C122.858 56.7675 122.808 56.7653 122.763 56.7455C122.718 56.7257 122.682 56.6899 122.663 56.6451C122.651 56.6238 122.643 56.6003 122.639 56.5759C122.636 56.5515 122.638 56.5267 122.644 56.5029C122.651 56.4792 122.662 56.457 122.677 56.4376C122.692 56.4182 122.711 56.402 122.733 56.3899C122.778 56.3783 122.827 56.383 122.87 56.4031C122.912 56.4233 122.947 56.4576 122.967 56.5003C122.987 56.543 122.992 56.5915 122.981 56.6373C122.969 56.6832 122.942 56.7237 122.904 56.7518Z" fill="#EB996E"/>
    <path d="M124.63 56.3389C124.61 56.3361 124.59 56.3291 124.571 56.3185C124.553 56.3078 124.538 56.2936 124.525 56.2767C124.513 56.2599 124.503 56.2407 124.498 56.2203C124.493 56.1999 124.493 56.1787 124.496 56.158C124.511 56.1184 124.54 56.086 124.578 56.0678C124.616 56.0496 124.66 56.047 124.7 56.0605C124.741 56.0663 124.778 56.088 124.804 56.121C124.829 56.154 124.84 56.1957 124.835 56.2368C124.821 56.2773 124.792 56.3107 124.753 56.3298C124.715 56.3489 124.671 56.3522 124.63 56.3389Z" fill="#EB996E"/>
    <path d="M121.187 171.977L121.076 161.662C121.076 161.662 114.195 152.127 116.9 141.785C116.9 141.785 121.387 138.629 133.418 140.476C133.418 140.476 148.522 125.763 168.766 129.507C189.01 133.252 190.894 150.888 191.089 155.691C191.284 160.493 191.238 169.819 184.268 178.937L183.804 187.985C183.804 187.985 182.143 191.391 177.341 191.159C172.538 190.927 172.807 190.231 172.807 190.231C172.807 190.231 166.775 195.098 166.516 196.369C166.256 197.641 165.309 202.462 165.309 202.462C165.309 202.462 163.217 205.306 158.702 205.64C156.916 205.767 155.13 205.401 153.538 204.582C152.934 204.276 152.397 203.854 151.958 203.338C151.519 202.823 151.187 202.225 150.981 201.58C150.55 200.152 149.821 198.831 148.843 197.704C147.865 196.578 146.66 195.67 145.306 195.042L142.188 194.226C142.188 194.226 140.931 195.372 136.555 195.841C132.18 196.309 132.161 194.759 132.161 194.759C132.161 194.759 125.354 196.332 120.241 189.655C116.204 184.375 114.009 174.877 121.187 171.977Z" fill="#FF6600"/>
    <path d="M163.152 172.571C163.22 172.461 163.296 172.355 163.379 172.255C163.532 172.051 163.759 171.754 164.043 171.365C164.613 170.59 165.411 169.444 166.293 167.963C167.319 166.228 168.209 164.416 168.956 162.544C169.379 161.486 169.773 160.358 170.121 159.175C170.469 157.992 170.761 156.711 170.455 155.463C170.087 154.254 169.296 153.216 168.228 152.54C167.243 151.879 166.188 151.33 165.082 150.902C163.209 150.163 161.241 149.694 159.235 149.51C157.884 149.382 156.523 149.382 155.171 149.51C154.707 149.552 154.322 149.598 154.067 149.635C153.94 149.662 153.811 149.676 153.681 149.677C153.806 149.638 153.933 149.608 154.062 149.589C154.308 149.538 154.679 149.473 155.162 149.417C156.518 149.249 157.888 149.222 159.249 149.338C161.284 149.491 163.284 149.947 165.184 150.689C166.308 151.116 167.381 151.668 168.381 152.336C169.499 153.043 170.323 154.131 170.701 155.398C171.026 156.73 170.701 158.057 170.362 159.24C170.023 160.423 169.606 161.56 169.174 162.627C168.416 164.506 167.507 166.32 166.455 168.052C165.746 169.217 164.971 170.342 164.135 171.42C163.838 171.805 163.597 172.093 163.435 172.283C163.35 172.388 163.255 172.485 163.152 172.571Z" fill="#263238"/>
    <path d="M134.848 140.926C134.883 141.001 134.906 141.081 134.917 141.163C134.962 141.4 134.973 141.642 134.95 141.882C134.833 142.77 134.425 143.594 133.79 144.225C133.033 145.06 131.883 145.742 130.76 146.661C129.53 147.65 128.394 148.752 127.368 149.951C125.499 152.131 123.992 154.597 122.904 157.254C122.487 158.275 122.213 159.11 122.027 159.713C121.948 159.987 121.879 160.215 121.823 160.396C121.804 160.476 121.776 160.554 121.74 160.628C121.74 160.544 121.753 160.461 121.777 160.382C121.823 160.196 121.874 159.969 121.939 159.686C122.16 158.84 122.429 158.008 122.747 157.194C123.795 154.492 125.297 151.99 127.187 149.793C128.222 148.584 129.372 147.478 130.621 146.489C131.767 145.561 132.917 144.907 133.669 144.109C134.292 143.508 134.708 142.725 134.857 141.873C134.888 141.558 134.885 141.24 134.848 140.926Z" fill="#263238"/>
    <g opacity="0.5">
        <path opacity="0.5" d="M142.94 142.188L149.097 143.761C149.097 143.761 158.113 133.632 168.014 131.066L164.302 130.189C156.165 132.024 148.741 136.194 142.94 142.188Z" fill="black"/>
    </g>
    <path d="M166.005 130.579C157.908 132.399 150.541 136.601 144.851 142.643L142.94 142.179C142.94 142.179 151.672 132.597 164.307 130.18L166.005 130.579Z" fill="#FF6600"/>
    <g opacity="0.7">
        <path opacity="0.7" d="M166.005 130.579C157.908 132.399 150.541 136.601 144.851 142.643L142.94 142.179C142.94 142.179 151.672 132.597 164.307 130.18L166.005 130.579Z" fill="black"/>
    </g>
    <path d="M118.213 174.079C121.624 169.198 130.18 170.692 134.082 175.081C137.984 179.471 139.715 185.512 137.177 190.718C136.091 192.941 134.012 194.894 131.539 194.848C132.773 193.463 133.657 191.804 134.118 190.007C134.578 188.211 134.601 186.33 134.184 184.524C133.391 180.881 131.094 177.666 128.189 175.327C126.718 174.139 125.062 172.835 123.178 172.65C121.294 172.464 119.786 172.409 118.213 174.079Z" fill="#FF6600"/>
    <g opacity="0.3">
        <path opacity="0.3" d="M118.213 174.079C121.624 169.198 130.18 170.692 134.082 175.081C137.984 179.471 139.715 185.512 137.177 190.718C136.091 192.941 134.012 194.894 131.539 194.848C132.773 193.463 133.657 191.804 134.118 190.007C134.578 188.211 134.601 186.33 134.184 184.524C133.391 180.881 131.094 177.666 128.189 175.327C126.718 174.139 125.062 172.835 123.178 172.65C121.294 172.464 119.786 172.409 118.213 174.079Z" fill="black"/>
    </g>
    <g opacity="0.3">
        <path opacity="0.3" d="M163.495 172.283C163.43 173.318 164.377 174.232 165.402 174.353C165.92 174.384 166.438 174.291 166.913 174.083C167.388 173.875 167.807 173.557 168.135 173.156C168.781 172.344 169.255 171.409 169.527 170.409C170.594 167.063 171.146 162.057 170.585 158.609C169.109 163.096 166.474 168.692 163.416 172.293" fill="black"/>
    </g>
    <g opacity="0.3">
        <path opacity="0.3" d="M166.729 156.855C166.066 154.893 164.033 153.746 162.089 153.069C160.095 152.373 158.013 151.964 155.904 151.853C155.241 151.781 154.569 151.846 153.932 152.044C153.616 152.147 153.331 152.328 153.104 152.572C152.878 152.815 152.717 153.113 152.637 153.436C152.596 153.7 152.636 153.972 152.754 154.212C152.872 154.453 153.061 154.652 153.296 154.781C156.659 158.673 159.167 163.227 160.66 168.149C160.723 168.365 160.844 168.561 161.009 168.714C161.174 168.868 161.378 168.974 161.598 169.022C161.819 169.069 162.048 169.056 162.262 168.984C162.476 168.912 162.666 168.784 162.813 168.613C164.391 166.813 165.3 164.386 166.117 162.085C166.701 160.396 167.304 158.549 166.729 156.855Z" fill="black"/>
    </g>
    <g opacity="0.3">
        <path opacity="0.3" d="M122.366 157.76C120.257 154.479 119.172 150.644 119.248 146.745C119.248 145.923 119.369 145.032 119.939 144.448C120.631 143.738 121.754 143.724 122.723 143.789C125.457 143.959 128.173 144.341 130.848 144.93C131.057 144.977 131.312 145.046 131.377 145.246C131.45 145.4 131.472 145.573 131.44 145.74C131.407 145.907 131.322 146.059 131.196 146.174C127.043 148.721 124.097 153.408 122.529 157.992" fill="black"/>
    </g>
    <path d="M117.192 142.151C117.201 142.385 117.19 142.619 117.16 142.852C117.123 143.316 117.081 143.951 117.053 144.754C116.912 148.001 117.32 151.248 118.26 154.359C118.575 155.375 118.905 156.271 119.22 157.013C119.536 157.755 119.809 158.345 120.009 158.744C120.127 158.947 120.223 159.161 120.297 159.384C120.156 159.197 120.032 158.998 119.925 158.79C119.698 158.4 119.401 157.816 119.067 157.078C118.675 156.216 118.334 155.331 118.046 154.429C117.703 153.319 117.427 152.189 117.22 151.046C116.87 148.973 116.756 146.867 116.882 144.768C116.933 143.965 116.998 143.311 117.067 142.866C117.086 142.624 117.128 142.385 117.192 142.151Z" fill="#FAFAFA"/>
    <path d="M163.945 129.855C163.868 129.893 163.787 129.923 163.704 129.943L163.008 130.147C162.702 130.231 162.33 130.333 161.904 130.472C161.477 130.611 160.976 130.746 160.46 130.936C159.389 131.293 158.14 131.771 156.772 132.356C155.403 132.941 153.932 133.664 152.433 134.5C150.935 135.335 149.561 136.23 148.341 137.08C147.12 137.929 146.067 138.764 145.209 139.492C144.768 139.84 144.392 140.188 144.053 140.481C143.715 140.773 143.432 141.033 143.204 141.251L142.666 141.738C142.541 141.849 142.471 141.905 142.467 141.896C142.515 141.826 142.571 141.763 142.634 141.706L143.139 141.181C143.357 140.954 143.631 140.685 143.965 140.383C144.299 140.082 144.661 139.724 145.097 139.362C145.947 138.615 147 137.776 148.211 136.899C149.535 135.961 150.905 135.09 152.317 134.291C153.735 133.504 155.193 132.79 156.684 132.152C158.076 131.576 159.328 131.112 160.396 130.76C160.934 130.579 161.426 130.454 161.857 130.328C162.289 130.203 162.664 130.11 162.975 130.041L163.681 129.883C163.767 129.86 163.856 129.851 163.945 129.855Z" fill="#FAFAFA"/>
    <path d="M169.36 154.373C169.323 154.415 168.622 153.7 167.277 152.842C166.487 152.343 165.659 151.91 164.799 151.547C163.749 151.108 162.662 150.765 161.551 150.522C159.52 150.076 157.431 149.949 155.361 150.146C153.774 150.308 152.814 150.573 152.8 150.522C153.019 150.44 153.244 150.374 153.473 150.327C154.083 150.169 154.703 150.052 155.329 149.979C157.419 149.726 159.537 149.83 161.593 150.285C162.722 150.533 163.825 150.887 164.887 151.343C165.754 151.719 166.585 152.174 167.369 152.702L167.833 153.023L168.237 153.343C168.457 153.506 168.665 153.684 168.859 153.876C169.039 154.028 169.207 154.194 169.36 154.373Z" fill="#FAFAFA"/>
    <path d="M127.855 194.096C127.778 194.087 127.703 194.066 127.632 194.036C127.423 193.972 127.217 193.897 127.015 193.813C126.264 193.516 125.539 193.156 124.848 192.736C122.546 191.358 120.629 189.42 119.275 187.103C117.922 184.785 117.177 182.163 117.109 179.48C117.082 178.674 117.124 177.866 117.234 177.067C117.267 176.784 117.318 176.566 117.341 176.417C117.354 176.342 117.372 176.267 117.397 176.195C117.393 176.49 117.369 176.784 117.327 177.076C117.253 177.874 117.236 178.675 117.276 179.475C117.391 182.119 118.149 184.696 119.484 186.981C120.819 189.267 122.69 191.193 124.937 192.593C125.616 193.018 126.323 193.398 127.052 193.729C127.567 193.952 127.86 194.077 127.855 194.096Z" fill="#FAFAFA"/>
    <g opacity="0.2">
        <path opacity="0.2" d="M129.071 183.377C128.71 183.254 128.321 183.239 127.952 183.334C127.583 183.429 127.249 183.629 126.992 183.911C126.741 184.198 126.558 184.537 126.456 184.904C126.354 185.271 126.336 185.657 126.403 186.032C126.473 186.758 126.785 187.439 127.289 187.966C127.707 188.371 128.244 188.633 128.82 188.713C129.18 188.705 129.531 188.598 129.835 188.405C130.139 188.211 130.383 187.937 130.542 187.614C130.742 187.243 130.862 186.834 130.896 186.414C130.929 185.993 130.875 185.571 130.737 185.172C130.599 184.774 130.379 184.409 130.093 184.1C129.806 183.791 129.458 183.545 129.071 183.377Z" fill="black"/>
    </g>
    <path d="M128.352 183.28C128.017 183.683 127.791 184.165 127.694 184.68C127.597 185.195 127.633 185.726 127.797 186.223C127.962 186.721 128.251 187.168 128.636 187.523C129.021 187.878 129.49 188.13 129.999 188.254C129.79 188.441 129.54 188.576 129.269 188.648C128.998 188.72 128.714 188.726 128.44 188.667C127.758 188.441 127.173 187.992 126.778 187.393C126.382 186.793 126.199 186.079 126.259 185.363C126.288 184.777 126.527 184.22 126.932 183.795C127.325 183.453 127.831 183.27 128.352 183.28Z" fill="#FF6600"/>
    <g opacity="0.4">
        <path opacity="0.4" d="M128.352 183.28C128.017 183.683 127.791 184.165 127.694 184.68C127.597 185.195 127.633 185.726 127.797 186.223C127.962 186.721 128.251 187.168 128.636 187.523C129.021 187.878 129.49 188.13 129.999 188.254C129.79 188.441 129.54 188.576 129.269 188.648C128.998 188.72 128.714 188.726 128.44 188.667C127.758 188.441 127.173 187.992 126.778 187.393C126.382 186.793 126.199 186.079 126.259 185.363C126.288 184.777 126.527 184.22 126.932 183.795C127.325 183.453 127.831 183.27 128.352 183.28Z" fill="black"/>
    </g>
    <g opacity="0.2">
        <path opacity="0.2" d="M122.231 180.737C121.883 180.621 121.508 180.608 121.152 180.701C120.797 180.793 120.475 180.986 120.227 181.257C119.985 181.534 119.808 181.861 119.709 182.215C119.61 182.569 119.592 182.941 119.656 183.303C119.733 183.999 120.034 184.65 120.515 185.159C120.92 185.549 121.438 185.801 121.995 185.878C122.341 185.871 122.679 185.769 122.972 185.582C123.264 185.395 123.499 185.132 123.651 184.821C123.843 184.462 123.959 184.067 123.991 183.661C124.024 183.256 123.971 182.848 123.838 182.463C123.704 182.079 123.493 181.726 123.216 181.427C122.94 181.129 122.605 180.891 122.231 180.728" fill="black"/>
    </g>
    <path d="M121.54 180.654C121.216 181.042 120.996 181.507 120.902 182.005C120.808 182.502 120.842 183.015 121.001 183.495C121.16 183.976 121.44 184.408 121.813 184.75C122.185 185.092 122.639 185.334 123.132 185.452C122.93 185.633 122.688 185.763 122.426 185.834C122.164 185.904 121.889 185.911 121.624 185.855C120.966 185.635 120.402 185.201 120.021 184.622C119.64 184.043 119.464 183.354 119.522 182.663C119.548 182.099 119.777 181.564 120.167 181.155C120.551 180.819 121.048 180.64 121.559 180.654" fill="#FF6600"/>
    <g opacity="0.4">
        <path opacity="0.4" d="M121.54 180.654C121.216 181.042 120.996 181.507 120.902 182.005C120.808 182.502 120.842 183.015 121.001 183.495C121.16 183.976 121.44 184.408 121.813 184.75C122.185 185.092 122.639 185.334 123.132 185.452C122.93 185.633 122.688 185.763 122.426 185.834C122.164 185.904 121.889 185.911 121.624 185.855C120.966 185.635 120.402 185.201 120.021 184.622C119.64 184.043 119.464 183.354 119.522 182.663C119.548 182.099 119.777 181.564 120.167 181.155C120.551 180.819 121.048 180.64 121.559 180.654" fill="black"/>
    </g>
    <path d="M139.836 167.968C139.836 167.968 139.883 167.968 139.901 167.936H139.934L139.836 167.968Z" fill="#263238"/>
    <path d="M143.344 169.416C143.123 168.822 142.697 168.328 142.142 168.024C141.701 167.803 141.215 167.69 140.722 167.694H140.68C140.406 167.711 140.139 167.79 139.901 167.926C139.385 168.183 138.944 168.567 138.62 169.042C138.295 169.517 138.097 170.067 138.045 170.641C138.012 171.374 138.198 172.1 138.577 172.727C138.957 173.355 139.515 173.856 140.179 174.167C140.618 174.393 141.118 174.468 141.604 174.38C142.084 174.243 142.505 173.947 142.796 173.541C143.24 172.961 143.524 172.275 143.62 171.551C143.716 170.827 143.621 170.091 143.344 169.416Z" fill="#263238"/>
    <path d="M125.493 163.454C125.513 163.442 125.533 163.433 125.554 163.425H125.582L125.493 163.454Z" fill="#263238"/>
    <path d="M128.528 164.72C128.341 164.198 127.97 163.762 127.484 163.495C127.104 163.303 126.684 163.205 126.259 163.207H126.208C125.971 163.223 125.741 163.293 125.535 163.411C125.088 163.633 124.705 163.965 124.423 164.377C124.141 164.789 123.97 165.267 123.925 165.764C123.898 166.399 124.059 167.028 124.39 167.57C124.72 168.113 125.204 168.545 125.781 168.812C126.155 169.034 126.6 169.101 127.022 169.001C127.444 168.9 127.811 168.64 128.045 168.274C128.427 167.774 128.671 167.184 128.756 166.561C128.841 165.938 128.762 165.304 128.528 164.72Z" fill="#263238"/>
    <path d="M129.456 172.473C129.554 172.48 129.651 172.498 129.744 172.529C130.017 172.599 130.286 172.682 130.551 172.78C131.528 173.137 132.447 173.636 133.279 174.26C134.525 175.181 135.585 176.331 136.402 177.647C137.393 179.264 138.052 181.062 138.342 182.937C138.638 184.808 138.616 186.715 138.277 188.579C138.031 190.121 137.365 191.566 136.351 192.755C135.654 193.542 134.751 194.119 133.743 194.421C133.38 194.54 132.998 194.592 132.616 194.574C132.988 194.523 133.356 194.442 133.716 194.333C134.689 194.002 135.555 193.418 136.226 192.639C137.194 191.465 137.828 190.051 138.059 188.546C138.383 186.706 138.397 184.824 138.1 182.978C137.817 181.135 137.176 179.365 136.212 177.768C135.417 176.467 134.388 175.325 133.177 174.399C132.361 173.775 131.468 173.26 130.519 172.868C129.855 172.608 129.456 172.497 129.456 172.473Z" fill="#263238"/>
    <path d="M125.025 166.984C125.002 166.984 124.881 166.901 124.756 166.683C124.605 166.396 124.524 166.078 124.519 165.755C124.521 165.431 124.6 165.113 124.751 164.827C124.876 164.609 124.992 164.507 125.02 164.525C124.884 164.928 124.797 165.345 124.76 165.769C124.803 166.182 124.892 166.59 125.025 166.984Z" fill="#FAFAFA"/>
    <path d="M139.014 172.112C138.987 172.112 138.871 172.005 138.768 171.759C138.643 171.432 138.61 171.078 138.671 170.733C138.724 170.39 138.872 170.069 139.098 169.805C139.274 169.601 139.423 169.527 139.441 169.55C139.2 169.929 139.02 170.344 138.908 170.78C138.868 171.227 138.904 171.677 139.014 172.112Z" fill="#FAFAFA"/>
    <path d="M147.816 196.629C147.793 196.666 147.232 196.277 146.248 195.785C144.96 195.163 143.627 194.636 142.262 194.207C140.662 193.688 139.205 193.242 138.161 192.871C137.641 192.69 137.233 192.532 136.936 192.407C136.784 192.355 136.639 192.285 136.504 192.198C137.084 192.338 137.655 192.508 138.216 192.709C139.265 193.038 140.731 193.456 142.337 193.98C143.715 194.408 145.051 194.963 146.327 195.636C146.573 195.762 146.791 195.896 146.972 196.012C147.133 196.108 147.288 196.213 147.436 196.328C147.575 196.411 147.703 196.513 147.816 196.629Z" fill="#263238"/>
    <path d="M180.737 181.684C180.613 181.913 180.47 182.132 180.31 182.338C180.032 182.751 179.591 183.331 179.03 184.027C177.536 185.822 175.914 187.506 174.176 189.066C172.149 190.922 170.26 192.495 168.924 193.683L167.346 195.075C167.162 195.258 166.964 195.425 166.752 195.576C166.912 195.373 167.089 195.183 167.281 195.01C167.634 194.653 168.158 194.152 168.812 193.539C170.121 192.319 171.991 190.704 174.009 188.871C175.739 187.317 177.37 185.657 178.895 183.902C179.475 183.224 179.935 182.663 180.236 182.268C180.388 182.061 180.555 181.865 180.737 181.684Z" fill="#263238"/>
    <g opacity="0.2">
        <path opacity="0.2" d="M172.849 190.277C175.346 190.481 178.181 189.716 179.953 187.957C180.843 187.052 181.443 185.902 181.679 184.655C181.914 183.407 181.774 182.118 181.275 180.951C179.819 183.029 178.176 185.238 176.171 186.936C174.909 188.008 174.07 189.307 172.849 190.291" fill="black"/>
    </g>
    <g opacity="0.5">
        <path opacity="0.5" d="M163.959 131.92C167.207 136.699 173.865 138.212 177.086 143C178.334 144.856 178.942 147.046 179.545 149.199L186.969 175.986C187.275 170.181 185.878 164.437 184.486 158.79C183.119 153.222 181.747 147.654 180.371 142.086C180.144 140.84 179.691 139.647 179.034 138.564C178.301 137.511 177.211 136.773 176.148 136.059C172.334 133.497 168.409 130.89 163.936 129.869" fill="black"/>
    </g>
    <g opacity="0.3">
        <path opacity="0.3" d="M141.186 146.387C141.39 147.037 140.499 147.923 139.112 149.023C138.411 149.57 137.595 150.197 136.694 150.879C135.794 151.561 134.838 152.308 133.832 153.115C132.825 153.923 131.915 154.725 131.048 155.435C130.18 156.145 129.424 156.855 128.728 157.426C127.368 158.563 126.324 159.254 125.725 158.92C125.127 158.586 125.169 157.268 125.962 155.421C126.437 154.35 127.04 153.341 127.758 152.415C129.516 150.136 131.777 148.296 134.365 147.037C135.419 146.525 136.529 146.14 137.673 145.891C139.664 145.506 140.991 145.766 141.186 146.387Z" fill="white"/>
    </g>
    <path d="M128.774 183.006C128.433 183.13 128.08 183.215 127.721 183.261C127.379 183.379 127.026 183.462 126.667 183.507C126.941 183.249 127.291 183.086 127.665 183.043C128.022 182.915 128.41 182.902 128.774 183.006Z" fill="#FAFAFA"/>
    <path d="M121.73 180.45C121.408 180.526 121.081 180.583 120.751 180.621C120.227 180.737 119.823 180.955 119.795 180.895C119.768 180.835 120.12 180.515 120.696 180.385C120.864 180.326 121.042 180.302 121.22 180.313C121.397 180.324 121.571 180.371 121.73 180.45Z" fill="#FAFAFA"/>
    <path d="M152.967 202.026C152.902 202.058 152.285 201.019 151.426 199.798C150.568 198.578 149.802 197.645 149.853 197.599C150.539 198.199 151.135 198.892 151.626 199.659C152.18 200.382 152.631 201.179 152.967 202.026Z" fill="#FAFAFA"/>
    <path d="M125.326 153.329C125.391 153.371 124.477 154.721 123.684 156.53C122.89 158.34 122.51 159.922 122.436 159.904C122.446 159.548 122.509 159.197 122.621 158.86C122.833 158.029 123.114 157.217 123.461 156.433C123.805 155.647 124.213 154.892 124.681 154.173C124.86 153.865 125.076 153.582 125.326 153.329Z" fill="#FAFAFA"/>
    <path d="M147.821 144.346C146.928 144.258 146.051 144.044 145.218 143.71C144.359 143.448 143.539 143.07 142.782 142.587C142.814 142.522 143.91 142.996 145.297 143.478C146.684 143.961 147.84 144.276 147.821 144.346Z" fill="#FAFAFA"/>
    <path d="M184.013 136.824C182.928 138.305 181.333 139.332 179.536 139.706C180.349 139.34 181.144 138.933 181.916 138.485C182.643 137.968 183.343 137.413 184.013 136.824Z" fill="#EB996E"/>
    <path d="M197.604 133.72C195.107 127.967 170.172 107.541 170.172 107.541L156.113 125.795C156.317 125.521 179.048 139.367 179.048 139.367L185.753 169.935L186.908 175.392C186.908 175.392 183.892 178.023 184.018 180.798C184.097 182.654 179.842 186.649 179.842 186.649C178.83 185.809 178.181 185.572 177.67 185.67L173.146 189.906L174.223 190.89C175.423 191.985 177.002 192.569 178.626 192.518L186.361 192.282C187.464 192.25 188.511 191.789 189.28 190.996C191.66 188.551 196.68 183.081 196.778 180.445C196.838 178.969 196.847 177.564 196.843 176.431C196.82 176.417 200.095 139.474 197.604 133.72Z" fill="#FFBE9D"/>
    <path d="M190.198 182.603C190.07 182.718 189.925 182.812 189.767 182.881C189.484 183.039 189.047 183.224 188.542 183.503C187.959 183.839 187.444 184.281 187.024 184.807C186.493 185.469 185.868 186.051 185.168 186.533C183.875 187.394 182.34 187.816 180.788 187.739C180.516 187.739 180.246 187.692 179.99 187.6C179.887 187.563 179.796 187.497 179.73 187.41C179.664 187.322 179.626 187.217 179.619 187.108C179.615 187.04 179.627 186.971 179.656 186.909C179.684 186.847 179.727 186.792 179.781 186.751C179.86 186.704 179.911 186.714 179.911 186.718C179.911 186.723 179.87 186.718 179.809 186.788C179.769 186.829 179.739 186.879 179.722 186.934C179.705 186.989 179.702 187.047 179.712 187.103C179.725 187.191 179.763 187.273 179.822 187.339C179.88 187.406 179.956 187.454 180.041 187.479C180.285 187.552 180.539 187.583 180.793 187.572C182.301 187.601 183.782 187.171 185.039 186.338C185.719 185.869 186.33 185.307 186.853 184.667C187.296 184.129 187.839 183.683 188.454 183.354C188.983 183.09 189.423 182.932 189.72 182.797C189.874 182.719 190.034 182.654 190.198 182.603Z" fill="#EB996E"/>
    <path d="M186.662 186.63C186.695 186.69 186.055 187.066 185.368 187.651C184.681 188.236 184.199 188.797 184.143 188.755C184.396 188.249 184.765 187.811 185.219 187.475C185.624 187.079 186.119 186.789 186.662 186.63Z" fill="#EB996E"/>
    <path d="M189.776 173.968C189.776 174.037 189.094 174.079 188.347 174.432C187.6 174.784 187.126 175.281 187.075 175.23C187.367 174.792 187.773 174.442 188.249 174.218C188.725 173.994 189.253 173.904 189.776 173.958V173.968Z" fill="#EB996E"/>
    <path d="M184.95 189.015C184.95 189.057 184.454 188.816 183.619 188.621C182.229 188.278 180.771 188.339 179.415 188.797C179.264 188.854 179.109 188.901 178.951 188.936C178.778 188.968 178.599 188.929 178.454 188.829L177.248 187.92C176.859 187.663 176.494 187.371 176.158 187.048C176.574 187.259 176.973 187.504 177.35 187.781L178.598 188.63C178.798 188.783 179.062 188.667 179.355 188.56C179.658 188.455 179.968 188.368 180.283 188.3C181.405 188.079 182.564 188.127 183.665 188.44C183.995 188.534 184.317 188.657 184.626 188.806C184.844 188.932 184.96 189.001 184.95 189.015Z" fill="#EB996E"/>
    <path d="M132.486 118.116C129.512 117.267 128.194 116.9 128.194 116.9V115.536H129.377C130.565 115.536 132.272 114.056 132.272 114.056L134.811 110.172L135.135 107.68C134.866 104.609 131.163 105.824 131.163 105.824C130.987 104.753 126.245 103.676 122.682 103.013C121.488 102.79 120.26 102.835 119.086 103.144C117.912 103.454 116.821 104.021 115.893 104.804L112.474 107.69L102.228 116.65L75.7805 138.991L58.3944 133.859C58.3944 133.859 52.8635 150.772 51.968 156.832C50.2373 168.474 66.2406 176.232 73.312 170.242C78.7964 165.602 110.785 131.136 116.083 125.424H116.125C119.373 125.011 124.886 121.712 124.886 121.712L127.711 122.046C127.711 122.046 135.219 123.48 136.11 122.009C136.778 120.872 135.46 118.965 132.486 118.116Z" fill="#FFBE9D"/>
    <path d="M117.086 114.738C117.086 114.738 117.16 114.845 117.248 115.063C117.377 115.371 117.479 115.689 117.554 116.014C117.806 117.089 117.847 118.203 117.675 119.294C117.504 120.386 117.119 121.433 116.543 122.375C116.372 122.661 116.176 122.931 115.958 123.183C115.805 123.364 115.712 123.456 115.698 123.443C115.684 123.429 115.995 123.016 116.394 122.292C117.448 120.391 117.801 118.181 117.392 116.046C117.23 115.234 117.044 114.752 117.086 114.738Z" fill="#EB996E"/>
    <path d="M119.002 105.263C119.097 105.239 119.193 105.222 119.29 105.212C119.485 105.184 119.754 105.147 120.13 105.115C121.167 105.001 122.213 105.012 123.248 105.147C123.965 105.253 124.664 105.462 125.322 105.769C126.085 106.117 126.76 106.634 127.294 107.281C127.902 108.002 128.239 108.913 128.245 109.857C128.236 110.357 128.111 110.848 127.878 111.29C127.631 111.737 127.318 112.143 126.95 112.497C126.256 113.167 125.496 113.766 124.681 114.283C124.296 114.543 123.887 114.766 123.461 114.951C123.24 115.039 123.003 115.079 122.765 115.067C122.641 115.061 122.521 115.029 122.41 114.973C122.3 114.917 122.203 114.839 122.125 114.743C121.982 114.552 121.911 114.317 121.925 114.079C121.93 113.862 121.969 113.648 122.041 113.443C122.175 113.064 122.358 112.704 122.584 112.371C122.993 111.772 123.541 111.28 124.18 110.938L124.208 111.1L121.044 110.497L120.185 110.321C120.084 110.306 119.984 110.28 119.888 110.242C119.991 110.242 120.094 110.251 120.195 110.27L121.058 110.404L124.236 110.928L124.482 110.97L124.264 111.091C123.657 111.429 123.139 111.906 122.751 112.483C122.537 112.802 122.367 113.148 122.245 113.513C122.166 113.686 122.13 113.875 122.14 114.065C122.15 114.255 122.205 114.439 122.301 114.603C122.445 114.736 122.626 114.82 122.821 114.844C123.015 114.867 123.211 114.828 123.382 114.733C123.792 114.555 124.184 114.337 124.552 114.084C125.352 113.575 126.098 112.986 126.779 112.325C127.133 112.013 127.423 111.634 127.631 111.209C127.838 110.785 127.961 110.324 127.99 109.852C127.986 108.963 127.672 108.104 127.104 107.421C126.592 106.795 125.947 106.293 125.215 105.95C124.578 105.643 123.899 105.431 123.201 105.319C122.181 105.169 121.148 105.132 120.12 105.207L119.276 105.258C119.185 105.272 119.093 105.273 119.002 105.263Z" fill="#EB996E"/>
    <path d="M131.201 105.968C131.247 106.131 131.274 106.3 131.279 106.469C131.325 106.932 131.344 107.397 131.335 107.861C131.338 109.4 130.94 110.913 130.18 112.251C129.252 113.805 127.799 114.808 126.598 114.965C126.358 114.998 126.115 114.973 125.887 114.892C125.659 114.812 125.454 114.677 125.289 114.501C125.203 114.404 125.137 114.29 125.094 114.167C125.075 114.127 125.067 114.082 125.071 114.037C125.151 114.181 125.248 114.315 125.359 114.436C125.523 114.583 125.718 114.69 125.929 114.749C126.141 114.809 126.363 114.819 126.579 114.78C127.683 114.599 129.085 113.61 129.971 112.116C130.708 110.809 131.117 109.343 131.163 107.843C131.224 106.688 131.159 105.968 131.201 105.968Z" fill="#EB996E"/>
    <path d="M124.635 119.22C124.607 119.188 124.848 118.979 125.136 118.561C125.505 118.024 125.735 117.404 125.804 116.756C125.863 116.106 125.756 115.451 125.493 114.854C125.294 114.39 125.099 114.139 125.131 114.116C125.357 114.29 125.534 114.518 125.647 114.78C125.974 115.392 126.112 116.087 126.046 116.778C125.979 117.469 125.709 118.125 125.271 118.663C125.108 118.899 124.89 119.09 124.635 119.22Z" fill="#EB996E"/>
    <path d="M120.125 110.432C120.292 110.743 120.345 111.103 120.273 111.448C120.244 111.829 120.133 112.199 119.949 112.534C119.738 112.943 119.473 113.32 119.16 113.657C118.57 114.246 117.859 114.7 117.076 114.988C116.769 115.138 116.443 115.247 116.107 115.313C116.388 115.125 116.69 114.97 117.007 114.849C117.742 114.524 118.411 114.068 118.983 113.504C119.283 113.181 119.542 112.823 119.754 112.436C119.935 112.13 120.054 111.791 120.106 111.439C120.147 111.105 120.154 110.767 120.125 110.432Z" fill="#EB996E"/>
    <path d="M139.854 111.796L126.802 118.909C126.802 118.909 133.785 120.64 140.128 127.345C143.576 130.997 146.275 135.289 148.072 139.98L161.064 131.331C161.064 131.331 154.071 115.49 139.854 111.796Z" fill="#455A64"/>
    <path d="M129.103 118.645L139.641 112.613H139.673H139.706C141.569 113.115 143.361 113.852 145.037 114.808C146.942 115.91 148.72 117.22 150.336 118.714C152.128 120.358 153.771 122.158 155.245 124.092C156.843 126.155 158.261 128.351 159.481 130.658L159.532 130.755L159.44 130.816L158.758 131.28L148.726 137.984L148.605 138.063L148.554 137.933C147.136 134.423 145.186 131.153 142.773 128.236C140.855 125.949 138.637 123.933 136.179 122.241C134.576 121.128 132.866 120.177 131.075 119.401C130.444 119.132 129.952 118.937 129.614 118.83L129.233 118.7L129.103 118.654L129.238 118.682L129.628 118.793C129.971 118.9 130.467 119.072 131.103 119.327C132.92 120.075 134.655 121.008 136.281 122.111C138.764 123.794 141.005 125.809 142.94 128.101C145.38 131.028 147.352 134.315 148.786 137.845L148.614 137.794L158.642 131.08L159.324 130.616L159.282 130.769C158.069 128.477 156.662 126.293 155.078 124.241C153.615 122.316 151.985 120.524 150.206 118.886C148.599 117.398 146.833 116.091 144.94 114.988C143.281 114.032 141.509 113.29 139.664 112.78H139.729L129.103 118.645Z" fill="white"/>
    <path d="M150.47 122.932C150.127 124.941 147.584 126.157 144.786 125.647C141.989 125.136 139.989 123.095 140.332 121.085C140.675 119.076 143.218 117.861 146.016 118.371C148.814 118.881 150.8 120.923 150.47 122.932Z" fill="#FAFAFA"/>
    <path d="M132.082 116.97C132.082 116.97 134.295 118.093 132.17 119.754L128.922 118.492L132.082 116.97Z" fill="#FAFAFA"/>
    <path d="M138.026 113.629C138.026 113.629 140.161 115.884 142.202 113.536L139.687 112.696L138.026 113.629Z" fill="#FAFAFA"/>
    <path d="M147.339 134.917C147.339 134.917 150.211 132.597 151.886 135.734L148.679 137.878L147.339 134.917Z" fill="#FAFAFA"/>
    <path d="M157.936 128.157C157.936 128.157 155.862 129.456 157.268 132.133L159.393 130.713L157.936 128.157Z" fill="#FAFAFA"/>
    <path d="M150.248 135.683C150.242 135.854 150.186 136.02 150.087 136.16C149.988 136.3 149.85 136.407 149.689 136.469C149.529 136.531 149.355 136.544 149.187 136.507C149.02 136.47 148.867 136.384 148.748 136.26C148.629 136.137 148.549 135.981 148.518 135.812C148.487 135.644 148.507 135.47 148.574 135.312C148.641 135.154 148.754 135.02 148.897 134.926C149.041 134.832 149.209 134.782 149.38 134.783C149.496 134.785 149.611 134.809 149.718 134.856C149.824 134.902 149.921 134.969 150.001 135.052C150.082 135.136 150.145 135.235 150.187 135.343C150.23 135.451 150.25 135.567 150.248 135.683Z" fill="#455A64"/>
    <path d="M158.953 130.147C158.946 130.317 158.89 130.482 158.791 130.62C158.692 130.759 158.554 130.865 158.395 130.925C158.236 130.986 158.063 130.999 157.897 130.962C157.73 130.925 157.579 130.84 157.461 130.717C157.343 130.595 157.263 130.44 157.232 130.273C157.201 130.105 157.22 129.932 157.287 129.776C157.353 129.619 157.464 129.485 157.606 129.391C157.748 129.297 157.915 129.247 158.085 129.247C158.201 129.249 158.316 129.274 158.422 129.32C158.529 129.366 158.625 129.433 158.706 129.517C158.786 129.601 158.85 129.699 158.892 129.807C158.934 129.916 158.955 130.031 158.953 130.147Z" fill="#455A64"/>
    <path d="M141.024 113.541C141.024 113.861 140.56 114.121 140.026 114.121C139.492 114.121 139.033 113.861 139.033 113.541C139.033 113.221 139.497 112.961 140.031 112.961C140.564 112.961 141.024 113.216 141.024 113.541Z" fill="#455A64"/>
    <path d="M132.542 118.352C132.587 118.552 132.569 118.761 132.49 118.95C132.411 119.139 132.276 119.299 132.102 119.408C131.929 119.517 131.726 119.569 131.521 119.557C131.317 119.546 131.121 119.471 130.961 119.343C130.801 119.215 130.685 119.041 130.628 118.844C130.571 118.647 130.577 118.438 130.645 118.245C130.712 118.051 130.838 117.884 131.005 117.765C131.172 117.646 131.372 117.582 131.576 117.582C131.806 117.56 132.035 117.628 132.215 117.772C132.395 117.915 132.512 118.124 132.542 118.352Z" fill="#455A64"/>
    <path d="M140.541 117.856C140.541 118.348 139.928 118.747 139.172 118.747C138.416 118.747 137.808 118.362 137.808 117.856C137.808 117.35 138.42 116.965 139.177 116.965C139.933 116.965 140.541 117.392 140.541 117.856Z" fill="#FAFAFA"/>
    <path d="M151.533 129.79C150.916 130.073 150.141 129.683 149.835 128.922C149.665 128.599 149.625 128.223 149.725 127.872C149.824 127.52 150.054 127.22 150.368 127.034C150.986 126.751 151.76 127.141 152.067 127.906C152.237 128.229 152.276 128.604 152.177 128.955C152.077 129.306 151.847 129.605 151.533 129.79Z" fill="#FAFAFA"/>
    <path d="M132.277 114.056L137.636 119.712C137.636 119.712 139.78 122.167 141.223 121.007C142.666 119.847 140.638 117.684 140.211 117.053C139.785 116.422 134.532 110.052 134.532 110.052L132.277 114.056Z" fill="#FFBE9D"/>
    <path d="M135.024 108.97C135.003 109.305 134.933 109.635 134.815 109.949C134.594 110.724 134.283 111.47 133.887 112.172C133.483 112.878 132.968 113.514 132.361 114.056C132.122 114.293 131.842 114.485 131.535 114.622C131.757 114.378 131.994 114.147 132.245 113.931C132.799 113.375 133.28 112.751 133.678 112.075C134.602 110.432 134.959 108.943 135.024 108.97Z" fill="#EB996E"/>
    <path d="M85.1811 131.048C85.1059 131.138 85.022 131.22 84.9305 131.293L84.1835 131.962L81.3995 134.379C79.0377 136.407 75.7572 139.195 72.1195 142.235C68.4817 145.274 65.0991 148.016 62.64 149.909C61.415 150.874 60.4081 151.631 59.7028 152.15L58.8862 152.73C58.7954 152.803 58.6975 152.867 58.5939 152.921C58.6766 152.839 58.765 152.763 58.8584 152.693L59.6472 152.071C60.3339 151.533 61.3222 150.758 62.5332 149.779C64.96 147.826 68.2822 145.088 71.9385 142.049C75.5948 139.01 78.8707 136.258 81.2835 134.249L84.1185 131.887L84.898 131.256C84.9859 131.178 85.0806 131.108 85.1811 131.048Z" fill="#EB996E"/>
</svg>
