<svg width="264" height="264" viewBox="0 0 264 264" fill="none" xmlns="http://www.w3.org/2000/svg">
    <path d="M192.588 74.7753H166.109V113.156H192.588V74.7753Z" fill="#E0E0E0"/>
    <path d="M191.263 74.7753H164.784V113.156H191.263V74.7753Z" fill="#F5F5F5"/>
    <path d="M187.973 78.9307H168.073V109H187.973V78.9307Z" fill="white"/>
    <path d="M187.968 108.995C187.968 108.995 187.968 108.948 187.968 108.852V108.425C187.968 108.045 187.968 107.496 187.968 106.777C187.968 105.336 187.968 103.235 187.968 100.579C187.968 95.2987 187.968 87.7694 187.936 78.9307L188 78.9941H168.105L168.179 78.9202C168.179 90.2616 168.179 100.721 168.179 108.984L168.12 108.932H182.609H186.606H187.968H187.62H186.564H182.572H168.052H167.994V108.874C167.994 100.61 167.994 90.1507 167.994 78.8093V78.7354H188.031V78.804C188.031 87.6638 188.005 95.172 188 100.5C188 103.14 188 105.252 188 106.677C188 107.39 188 107.939 188 108.314V108.731C187.998 108.82 187.988 108.908 187.968 108.995Z" fill="#E0E0E0"/>
    <path d="M191.337 74.7753C191.201 75.0177 191.043 75.2474 190.867 75.4617C190.56 75.8683 190.122 76.428 189.626 77.0457C189.13 77.6635 188.66 78.1862 188.316 78.5664C188.138 78.7811 187.942 78.9807 187.73 79.163C187.89 78.9302 188.066 78.7096 188.258 78.503L189.536 76.956L190.809 75.4089C190.966 75.1826 191.142 74.9706 191.337 74.7753Z" fill="#E0E0E0"/>
    <path d="M188.074 108.9C189.065 110.472 190.231 111.928 191.548 113.24L188.074 108.9Z" fill="white"/>
    <path d="M191.548 113.24C191.327 113.087 191.123 112.91 190.941 112.712C190.479 112.242 190.042 111.748 189.631 111.234C189.22 110.727 188.835 110.198 188.48 109.65C188.32 109.427 188.183 109.188 188.074 108.937C188.256 109.14 188.42 109.359 188.565 109.592C188.855 110.004 189.267 110.563 189.742 111.176C190.217 111.788 190.682 112.3 191.015 112.675C191.206 112.85 191.384 113.039 191.548 113.24Z" fill="#E0E0E0"/>
    <path d="M164.784 113.124L168.247 108.847L164.784 113.124Z" fill="white"/>
    <path d="M168.247 108.847C167.728 109.603 167.169 110.33 166.573 111.028C165.612 112.211 164.81 113.14 164.784 113.14C165.302 112.382 165.861 111.652 166.457 110.954C167.018 110.222 167.615 109.519 168.247 108.847Z" fill="#E0E0E0"/>
    <path d="M164.784 74.7753C165.382 75.4137 165.945 76.0853 166.468 76.787C167.032 77.4631 167.561 78.168 168.052 78.899C167.453 78.2606 166.891 77.589 166.368 76.8873C165.801 76.2133 165.272 75.5082 164.784 74.7753Z" fill="#E0E0E0"/>
    <path d="M181.775 85.0344H175.111V103.953H181.775V85.0344Z" fill="#E0E0E0"/>
    <path d="M139.92 182.16C138.716 182.558 137.604 183.194 136.651 184.032C135.699 184.869 134.925 185.89 134.376 187.033C133.294 189.33 132.752 191.844 132.792 194.383C132.729 199.278 134.846 204.494 137.306 208.724C141.821 205.693 143.542 199.632 144.223 196.5C145.279 191.548 144.223 181.954 139.925 182.16" fill="#F5F5F5"/>
    <path d="M131.572 216.095C132.026 214.749 132.116 213.308 131.832 211.917C131.548 210.526 130.901 209.235 129.957 208.175C128.997 207.133 127.84 206.294 126.553 205.704C125.266 205.115 123.874 204.788 122.459 204.743C121.155 204.674 119.708 204.875 118.832 205.846C118.45 206.325 118.203 206.897 118.117 207.503C118.031 208.109 118.108 208.728 118.341 209.294C118.822 210.424 119.595 211.406 120.579 212.14C123.816 214.78 127.443 216.77 131.572 216.084" fill="#F5F5F5"/>
    <path d="M134.957 227.858C135.018 226.779 134.968 225.696 134.809 224.627C134.68 223.452 134.411 222.296 134.006 221.185C133.554 219.818 133.012 218.483 132.385 217.188C131.229 214.808 129.502 212.751 127.359 211.2C126.696 210.747 125.988 210.363 125.247 210.054C124.982 209.927 124.699 209.845 124.407 209.811C124.365 209.901 125.543 210.339 127.111 211.512C129.115 213.109 130.738 215.132 131.863 217.436C132.477 218.711 133.022 220.019 133.494 221.353C133.907 222.428 134.208 223.543 134.392 224.68C134.719 226.639 134.872 227.869 134.957 227.858Z" fill="#E0E0E0"/>
    <path d="M140.084 189.552C139.914 190.068 139.791 190.598 139.714 191.136C139.513 192.192 139.244 193.67 138.927 195.524C138.288 199.22 137.47 204.362 136.699 210.054C135.928 215.746 135.384 220.915 135.068 224.669C134.909 226.544 134.798 228.059 134.74 229.11C134.678 229.653 134.667 230.201 134.709 230.747C134.836 230.216 134.918 229.675 134.952 229.131C135.084 227.985 135.252 226.491 135.48 224.706C135.897 220.968 136.504 215.809 137.269 210.128C138.035 204.447 138.795 199.399 139.334 195.582C139.587 193.797 139.793 192.308 139.952 191.173C140.042 190.637 140.086 190.095 140.084 189.552Z" fill="#E0E0E0"/>
    <path d="M137.465 218.724C138.712 216.009 140.588 213.63 142.938 211.785C145.288 209.939 148.043 208.68 150.976 208.111C152.465 207.837 154.303 207.889 155.121 209.167C155.94 210.445 155.221 212.145 154.319 213.391C152.386 215.903 149.754 217.788 146.753 218.807C143.752 219.827 140.517 219.935 137.454 219.12" fill="#F5F5F5"/>
    <path d="M148.896 212.045C148.608 212.058 148.325 212.119 148.057 212.224C147.529 212.372 146.763 212.631 145.839 212.974C143.395 213.862 141.136 215.194 139.176 216.902C138.119 217.879 137.227 219.02 136.536 220.282C135.982 221.317 135.575 222.424 135.326 223.571C135.157 224.338 135.058 225.12 135.031 225.905C134.982 226.19 134.982 226.481 135.031 226.765C135.142 226.765 135.184 225.546 135.675 223.666C136.32 221.218 137.658 219.009 139.529 217.304C141.451 215.645 143.626 214.305 145.971 213.333C147.792 212.546 148.938 212.129 148.896 212.045Z" fill="#E0E0E0"/>
    <path d="M240.552 89.6333C240.552 89.6333 235.018 88.0017 232.779 100.721C230.541 113.441 230.361 120.447 230.361 120.447C230.361 120.447 229.585 123.209 227.536 122.184C225.488 121.16 222.008 117.554 219.553 119.148C217.003 120.801 217.04 124.201 218.977 128.615C220.915 133.03 224.785 142.871 225.144 143.759C225.504 144.646 225.377 146.108 223.872 145.638C222.367 145.168 212.784 139.392 210.302 144.144C207.821 148.896 215.244 160.28 216.031 161.568C216.818 162.856 216.728 163.5 216.179 164.039C215.63 164.578 212.589 162.334 209.79 160.802C206.992 159.271 203.481 157.988 202.287 160.829C201.094 163.669 203.343 173.247 216.976 185.766L223.661 191.152L231.755 188.174C248.688 180.74 253.931 172.418 253.73 169.34C253.53 166.262 249.781 166.32 246.639 166.848C243.498 167.376 239.892 168.532 239.543 167.841C239.195 167.149 239.332 166.489 240.488 165.549C241.644 164.609 252.358 156.203 251.55 150.939C250.742 145.675 239.791 148.035 238.212 147.993C236.634 147.951 237.014 146.52 237.616 145.807C238.218 145.094 245.098 137.032 248.361 133.478C251.624 129.925 252.759 126.725 250.884 124.333C249.079 122.026 244.612 124.333 242.347 124.619C240.082 124.904 240.235 122.063 240.235 122.063C240.235 122.063 242.347 115.379 244.337 102.611C246.328 89.8445 240.43 89.6227 240.43 89.6227" fill="#F5F5F5"/>
    <path d="M238.529 101.033C238.529 101.033 238.529 101.123 238.503 101.302L238.392 102.089C238.286 102.791 238.133 103.81 237.943 105.109C237.547 107.749 236.951 111.529 236.195 116.197C234.685 125.569 232.499 138.494 230.023 152.766C227.547 167.038 225.324 179.958 223.766 189.32C222.99 193.992 222.362 197.768 221.929 200.408C221.712 201.707 221.543 202.72 221.401 203.423C221.343 203.755 221.301 204.014 221.264 204.204C221.227 204.394 221.206 204.468 221.206 204.468C221.206 204.468 221.206 204.378 221.237 204.199C221.269 204.019 221.301 203.75 221.343 203.412C221.448 202.71 221.602 201.691 221.792 200.392C222.188 197.752 222.784 193.971 223.539 189.304C225.049 179.932 227.235 167.001 229.717 152.729C232.199 138.457 234.432 125.543 236.016 116.16C236.787 111.487 237.415 107.712 237.853 105.072L238.355 102.057L238.492 101.276C238.5 101.194 238.513 101.113 238.529 101.033Z" fill="#E0E0E0"/>
    <path d="M224.22 124.407C224.365 124.556 224.493 124.721 224.601 124.898C224.833 125.226 225.129 125.706 225.54 126.303C226.317 127.501 227.346 129.18 228.444 131.055L231.238 135.876L232.088 137.328C232.208 137.489 232.306 137.667 232.378 137.856C232.231 137.709 232.102 137.546 231.993 137.37C231.766 137.042 231.465 136.562 231.063 135.96C230.298 134.751 229.289 133.056 228.191 131.182L225.366 126.382C225.028 125.812 224.738 125.326 224.506 124.93C224.388 124.769 224.292 124.593 224.22 124.407Z" fill="#E0E0E0"/>
    <path d="M233.181 137.808C233.133 137.739 236.507 135.469 240.715 132.729C244.923 129.988 248.361 127.829 248.408 127.892C248.456 127.956 245.076 130.236 240.874 132.972C236.671 135.707 233.223 137.866 233.181 137.808Z" fill="#E0E0E0"/>
    <path d="M228.397 159.54C228.587 159.447 228.787 159.374 228.994 159.324L230.641 158.822C232.03 158.395 233.951 157.803 236.042 157.069C238.133 156.336 240.013 155.623 241.37 155.089L242.954 154.461C243.146 154.367 243.351 154.3 243.561 154.26C243.386 154.381 243.198 154.482 243.001 154.561C242.632 154.741 242.099 154.989 241.417 155.28C240.087 155.86 238.218 156.615 236.137 157.344C234.057 158.073 232.103 158.643 230.699 159.018C229.991 159.203 229.421 159.345 229.02 159.435C228.817 159.495 228.608 159.53 228.397 159.54Z" fill="#E0E0E0"/>
    <path d="M217.626 149.213C217.795 149.313 217.951 149.434 218.09 149.572C218.375 149.815 218.787 150.174 219.284 150.628C220.287 151.531 221.654 152.787 223.154 154.187C224.653 155.586 226 156.869 226.966 157.809C227.447 158.273 227.832 158.659 228.096 158.928C228.242 159.06 228.373 159.206 228.487 159.366C228.316 159.271 228.159 159.152 228.022 159.013C227.732 158.77 227.325 158.405 226.823 157.957C225.826 157.059 224.453 155.802 222.953 154.398C221.454 152.993 220.107 151.716 219.146 150.781C218.661 150.311 218.275 149.931 218.011 149.656C217.864 149.526 217.734 149.377 217.626 149.213Z" fill="#E0E0E0"/>
    <path d="M210.962 167.872C211.176 168.005 211.374 168.161 211.554 168.337L213.09 169.683C214.379 170.829 216.142 172.424 218.085 174.203C220.028 175.982 221.781 177.603 223.022 178.786L224.495 180.201C224.688 180.359 224.865 180.536 225.023 180.729C224.812 180.592 224.615 180.437 224.432 180.264L222.895 178.918C221.607 177.772 219.843 176.172 217.9 174.398C215.957 172.624 214.204 170.998 212.969 169.815L211.48 168.432C211.288 168.264 211.115 168.077 210.962 167.872Z" fill="#E0E0E0"/>
    <path d="M224.759 180.344C224.998 180.225 225.247 180.128 225.503 180.053L227.573 179.34C229.316 178.739 231.723 177.899 234.358 176.901C236.993 175.903 239.353 174.942 241.053 174.235L243.075 173.395C243.318 173.281 243.571 173.189 243.83 173.121C243.609 173.272 243.371 173.399 243.123 173.501C242.658 173.728 241.982 174.029 241.138 174.419C239.453 175.18 237.098 176.172 234.458 177.17C231.818 178.168 229.4 178.992 227.637 179.52C226.755 179.795 226.053 180.006 225.525 180.143C225.277 180.235 225.02 180.302 224.759 180.344Z" fill="#E0E0E0"/>
    <path d="M54.8275 202.409C67.019 195.45 70.979 180.835 71.7235 167.439C71.8502 165.201 72.3096 162.877 71.4278 160.824C70.5461 158.77 68.1965 157.207 66.1161 157.962C64.3896 158.59 63.4761 160.449 62.4201 161.959C60.9872 163.969 59.0161 165.533 56.7336 166.473C55.2446 167.08 53.4494 167.365 52.1189 166.473C50.292 165.232 50.3078 162.555 50.5349 160.343C50.9537 156.204 51.3568 152.071 51.744 147.946C51.9605 145.733 52.1769 143.468 51.6806 141.303C51.1843 139.139 49.8379 137.037 47.784 136.256C45.7301 135.474 43.0056 136.446 42.3614 138.579C42.0974 139.466 42.1925 140.416 42.0499 141.33C41.9073 142.243 41.3793 143.225 40.4659 143.405C39.5525 143.584 38.7288 142.877 38.1269 142.164C36.0149 139.714 34.7529 136.689 33.5649 133.684C32.3769 130.68 31.2365 127.623 29.3832 124.988C27.5299 122.353 24.8371 120.162 21.6797 119.708C18.5222 119.254 14.9582 120.891 13.8705 123.932C12.7829 126.973 14.3088 130.321 16.0617 133.035C18.6764 137.051 21.8559 140.67 25.5024 143.78C26.1571 144.339 26.8646 144.947 27.0864 145.791C27.4296 147.312 25.8931 148.653 24.3936 149.007C22.6881 149.403 20.9088 149.065 19.1664 149.112C17.424 149.16 15.4704 149.746 14.6731 151.325C13.5537 153.505 15.2328 156.077 16.9541 157.782C20.4037 161.242 24.4244 164.08 28.8393 166.172C30.4233 166.917 32.0813 167.598 33.2904 168.865C34.4995 170.132 35.112 172.197 34.1774 173.686C33.2429 175.175 31.152 175.491 29.4729 175.016C27.7939 174.541 26.3525 173.474 24.779 172.714C21.8381 171.283 17.8833 171.13 15.6921 173.585C14.2507 175.201 13.9181 177.598 14.3774 179.721C14.8368 181.843 15.9878 183.744 17.2339 185.529C21.5899 191.706 27.419 196.891 34.2672 199.991C41.1153 203.09 47.5939 204.352 54.8592 202.43" fill="#F5F5F5"/>
    <path d="M54.0989 212.325C54.043 206.075 53.3906 199.844 52.1506 193.718C50.5977 186.238 48.618 178.854 46.2211 171.6L44.352 165.892C43.7395 164.018 43.1323 162.159 42.4248 160.375C41.0645 156.956 39.5151 153.616 37.7837 150.369C36.1522 147.259 34.4943 144.366 32.9208 141.673C31.3474 138.98 29.8215 136.499 28.3431 134.281C26.0228 130.801 23.431 127.51 20.592 124.439C19.5888 123.351 18.7863 122.533 18.2319 121.984L17.5983 121.366C17.5282 121.293 17.4522 121.226 17.3712 121.165C17.4307 121.246 17.496 121.322 17.5666 121.393L18.1738 122.042C18.7018 122.607 19.4938 123.446 20.4759 124.55C23.2637 127.66 25.814 130.974 28.1055 134.466C29.568 136.668 31.0675 139.154 32.6304 141.858C34.1933 144.561 35.8407 147.455 37.4563 150.559C39.1747 153.791 40.7169 157.114 42.0763 160.512C42.7733 162.286 43.3752 164.129 43.9824 166.009C44.5896 167.888 45.2074 169.789 45.8357 171.721C48.2242 178.957 50.209 186.32 51.781 193.776C53.033 199.877 53.7118 206.082 53.8085 212.309" fill="#E0E0E0"/>
    <path d="M42.3297 160.348C42.4699 160.054 42.5728 159.744 42.636 159.424C42.8102 158.822 43.0267 157.946 43.2854 156.853C43.8134 154.672 44.41 151.642 45.07 148.294C45.73 144.947 46.3795 141.932 46.9286 139.767C47.1979 138.711 47.4249 137.808 47.5939 137.206C47.697 136.897 47.7677 136.579 47.8051 136.256C47.6486 136.541 47.5263 136.844 47.4408 137.159C47.2296 137.75 46.955 138.616 46.6488 139.693C46.0257 141.842 45.3288 144.862 44.6688 148.215L43.0003 156.816C42.7944 157.846 42.6201 158.717 42.4723 159.414C42.3954 159.72 42.3477 160.033 42.3297 160.348Z" fill="#E0E0E0"/>
    <path d="M14.314 152.413C14.6813 152.524 15.0576 152.603 15.4387 152.65C16.1673 152.782 17.218 152.967 18.5063 153.241C21.0935 153.769 24.6364 154.604 28.5067 155.707C32.3769 156.811 35.8353 157.972 38.3169 158.875C39.5577 159.319 40.5556 159.704 41.242 159.968C41.5915 160.128 41.9558 160.254 42.3297 160.343C42.0065 160.134 41.6634 159.957 41.3054 159.815C40.6348 159.504 39.6527 159.076 38.4172 158.595C35.9567 157.613 32.5036 156.415 28.6175 155.301C25.3076 154.341 21.9503 153.554 18.5591 152.941C17.2603 152.708 16.199 152.566 15.4651 152.481C15.0847 152.419 14.699 152.396 14.314 152.413Z" fill="#E0E0E0"/>
    <path d="M51.8443 193.163C51.9361 193.065 52.0127 192.952 52.0714 192.831L52.6575 191.843C53.1854 190.988 53.8507 189.731 54.685 188.147C56.3587 185.011 58.5394 180.602 60.8731 175.703C63.2069 170.803 65.34 166.378 66.9504 163.21L68.8618 159.461L69.3898 158.437C69.4548 158.32 69.5062 158.196 69.5429 158.067C69.4537 158.166 69.3774 158.276 69.3158 158.395L68.735 159.382C68.2334 160.243 67.5418 161.494 66.7022 163.078C65.0285 166.22 62.8531 170.628 60.5141 175.528C58.175 180.428 56.0472 184.847 54.4421 188.021L52.5255 191.77L51.9975 192.794C51.9295 192.909 51.878 193.034 51.8443 193.163Z" fill="#E0E0E0"/>
    <path d="M15.085 177.482C15.1966 177.563 15.3193 177.627 15.4493 177.672L16.5053 178.142L20.4389 179.832C23.7653 181.252 28.3589 183.274 33.3749 185.513C38.3909 187.752 43.0056 189.737 46.3637 191.089C48.0374 191.77 49.3997 192.303 50.3501 192.673L51.443 193.074C51.5686 193.126 51.6997 193.163 51.8338 193.185C51.7247 193.103 51.6035 193.039 51.4747 192.995L50.4187 192.525L46.464 190.819C43.1376 189.394 38.544 187.371 33.528 185.133C28.512 182.894 23.892 180.909 20.5392 179.557C18.8654 178.881 17.5032 178.343 16.5528 177.973L15.4598 177.577C15.339 177.531 15.2132 177.499 15.085 177.482Z" fill="#E0E0E0"/>
    <path d="M92.3155 43.1376V86.7187H29.7264L27.4666 43.4438L92.3155 43.1376Z" fill="#E0E0E0"/>
    <path d="M27.4666 43.4491L27.4666 86.629H90.0557V43.4491L27.4666 43.4491Z" fill="white"/>
    <path d="M90.3566 86.9246H27.1709V43.1481H90.3566V86.9246ZM27.7675 86.328H89.76V43.7395H27.7675V86.328Z" fill="#E0E0E0"/>
    <path d="M83.2761 48.8083H34.246V81.2592H83.2761V48.8083Z" fill="white"/>
    <path d="M83.2814 48.8083H83.0386H82.368H79.6752L69.5693 48.8453L34.2725 48.9139L34.415 48.7713C34.415 58.6872 34.415 69.6749 34.415 81.2222L34.2566 81.0691L83.292 81.1008L83.1653 81.2222C83.197 71.3486 83.2181 63.2702 83.2339 57.6153C83.2339 54.7958 83.2339 52.5941 83.2656 51.084C83.2656 50.3395 83.2656 49.764 83.2656 49.368C83.2656 48.972 83.2656 48.7713 83.2656 48.7713C83.2656 48.7713 83.2656 48.9614 83.2656 49.3416C83.2656 49.7217 83.2656 50.2973 83.2656 51.0365C83.2656 52.536 83.2656 54.7325 83.2973 57.5361C83.2973 63.191 83.3342 71.317 83.3606 81.2222V81.349H83.2392L34.2038 81.3806H34.0507V81.2222C34.0507 69.6749 34.0507 58.6872 34.0507 48.7713V48.6288H34.188L69.564 48.7027L79.6382 48.7397H82.2782H82.9594L83.2814 48.8083Z" fill="#E0E0E0"/>
    <path d="M27.456 43.3224C27.8337 43.5132 28.1881 43.747 28.512 44.0193C29.1562 44.484 30.0274 45.1387 30.9672 45.8937C31.9071 46.6488 32.736 47.3563 33.3221 47.8896C33.6576 48.1564 33.9575 48.4652 34.2144 48.8083C34.1563 48.8769 32.6304 47.6361 30.7719 46.1313C28.9133 44.6265 27.4138 43.3963 27.456 43.3224Z" fill="#E0E0E0"/>
    <path d="M90.0609 43.4438C89.0312 44.456 87.9301 45.393 86.7662 46.2475C85.6677 47.1837 84.503 48.0396 83.2814 48.8083C84.318 47.7975 85.4242 46.8606 86.592 46.0046C87.686 45.0697 88.8452 44.2139 90.0609 43.4438Z" fill="#E0E0E0"/>
    <path d="M90.0082 86.6342L83.0333 80.9741L90.0082 86.6342Z" fill="white"/>
    <path d="M83.0333 80.9741C84.2864 81.7974 85.484 82.7022 86.6184 83.6827C87.8155 84.5866 88.9482 85.5728 90.0081 86.6342C88.7535 85.813 87.5558 84.9081 86.423 83.9256C84.48 82.368 82.9752 81.0427 83.0333 80.9741Z" fill="#E0E0E0"/>
    <path d="M27.456 86.6289C28.4759 85.6264 29.5664 84.6983 30.719 83.8517C31.8071 82.9266 32.9593 82.0797 34.1669 81.3173C33.1496 82.3206 32.0608 83.2488 30.9091 84.0945C29.8193 85.0198 28.6654 85.8667 27.456 86.6289Z" fill="#E0E0E0"/>
    <path d="M44.2041 58.9248V69.791H75.0552V58.9248H44.2041Z" fill="#E0E0E0"/>
    <path d="M236.84 33.0106H203.375V81.5179H236.84V33.0106Z" fill="#E0E0E0"/>
    <path d="M235.166 33.0106H201.701V81.5179H235.166V33.0106Z" fill="#F5F5F5"/>
    <path d="M231.005 38.2642H205.857V76.2643H231.005V38.2642Z" fill="white"/>
    <path d="M231.011 76.2643C231.011 76.2643 231.011 76.2009 231.011 76.0795V75.5515C231.011 75.071 231.011 74.3741 231.011 73.4659C231.011 71.6443 231.011 68.9937 231.011 65.6409C231.011 58.9406 230.984 49.4472 230.968 38.2747L231.053 38.3592H205.857L205.952 38.2694C205.952 52.6046 205.952 65.8205 205.952 76.2854L205.878 76.2115L224.183 76.2537H229.242H230.572H231.032H230.588H229.273H224.231L205.878 76.2907H205.809V76.2168C205.809 65.7677 205.809 52.5518 205.809 38.2008V38.1744H231.153V38.2589C231.153 49.4577 231.127 58.9617 231.116 65.6779C231.116 69.0201 231.116 71.6707 231.09 73.487C231.09 74.3846 231.09 75.071 231.09 75.5515V76.0795C231.011 76.2062 231.011 76.2643 231.011 76.2643Z" fill="#E0E0E0"/>
    <path d="M235.261 33.0106C235.091 33.3181 234.891 33.6082 234.664 33.8765C234.274 34.4045 233.724 35.1067 233.08 35.8723C232.436 36.6379 231.861 37.3138 231.422 37.7942C231.206 38.0648 230.965 38.3157 230.704 38.544C230.892 38.2477 231.106 37.9686 231.343 37.7098L232.954 35.7562C233.561 35.0117 234.115 34.3411 234.564 33.7973C234.774 33.5157 235.007 33.2525 235.261 33.0106Z" fill="#E0E0E0"/>
    <path d="M231.137 76.1429C232.39 78.1301 233.862 79.9702 235.525 81.6288L231.137 76.1429Z" fill="white"/>
    <path d="M235.525 81.6288C235.246 81.4234 234.99 81.1898 234.759 80.9318C234.311 80.4778 233.703 79.8283 233.101 79.068C232.584 78.4168 232.099 77.7402 231.649 77.0405C231.443 76.76 231.266 76.4593 231.121 76.1429C231.349 76.4026 231.555 76.6798 231.739 76.9718C232.109 77.4998 232.626 78.1968 233.228 78.9518C233.83 79.7069 234.411 80.3722 234.839 80.8421C235.086 81.0875 235.315 81.3504 235.525 81.6288Z" fill="#E0E0E0"/>
    <path d="M201.696 81.481L206.078 76.0743L201.696 81.481Z" fill="white"/>
    <path d="M206.078 76.0743C205.424 77.0318 204.719 77.9536 203.966 78.8357C202.752 80.3247 201.738 81.5127 201.701 81.4757C202.357 80.5191 203.062 79.5973 203.813 78.7143C204.522 77.7956 205.278 76.9144 206.078 76.0743Z" fill="#E0E0E0"/>
    <path d="M201.696 33.0106C202.445 33.8204 203.15 34.6699 203.808 35.5555C204.516 36.3997 205.179 37.2809 205.793 38.1955C205.042 37.3873 204.337 36.5376 203.681 35.6506C202.973 34.8064 202.31 33.9252 201.696 33.0106Z" fill="#E0E0E0"/>
    <path d="M223.175 45.9783H214.753V69.8861H223.175V45.9783Z" fill="#E0E0E0"/>
    <path d="M243.899 230.736C243.899 230.815 192.461 230.873 129.033 230.873C65.604 230.873 14.1557 230.836 14.1557 230.736C14.1557 230.636 65.5776 230.599 129.033 230.599C192.488 230.599 243.899 230.683 243.899 230.736Z" fill="#263238"/>
    <path d="M179.362 139.392C179.754 140.986 179.708 142.657 179.229 144.228C178.751 145.798 177.857 147.21 176.642 148.315C175.032 149.741 172.946 150.565 171.468 152.133C170.553 153.175 169.924 154.438 169.641 155.796C169.359 157.154 169.434 158.563 169.858 159.884C170.306 161.195 171.016 162.402 171.945 163.431C172.873 164.46 174.001 165.29 175.259 165.871C176.973 166.672 178.851 167.056 180.742 166.991C182.632 166.927 184.481 166.417 186.136 165.502C190.217 163.194 192.593 158.564 193.195 153.912C193.797 149.26 192.852 144.551 191.611 140.026" fill="#263238"/>
    <path d="M230.836 221.417C235.06 220.725 239.02 222.013 243.202 222.937C244.314 223.267 245.488 223.33 246.629 223.122C248.44 222.658 249.728 220.894 250.008 219.046C250.234 217.427 249.859 215.781 248.952 214.421C248.588 213.834 248.093 213.341 247.505 212.979C246.876 212.664 246.187 212.484 245.483 212.451C242.92 212.245 240.349 212.73 238.038 213.856C235.734 214.976 233.643 216.492 231.861 218.333C230.974 219.22 231.238 220.239 230.847 221.433" fill="#263238"/>
    <path d="M145.2 153.241C144.523 149.214 144.605 145.095 145.443 141.097C145.797 139.143 146.513 137.271 147.555 135.58C147.91 134.949 148.45 134.442 149.102 134.128C149.576 133.971 150.084 133.948 150.569 134.063C151.055 134.177 151.5 134.425 151.853 134.777C152.304 135.247 152.65 135.807 152.869 136.421C153.087 137.034 153.173 137.687 153.12 138.336C153.026 139.634 152.708 140.906 152.18 142.095C150.549 146.267 147.956 149.73 145.184 153.236" fill="#263238"/>
    <path d="M227.04 168.506C227.996 169.187 249.216 214.896 249.216 214.896C247.509 214.167 245.619 213.983 243.804 214.368L242.653 214.674C240.593 215.228 238.639 216.12 236.871 217.314L230.815 221.412C230.576 221.274 230.372 221.081 230.223 220.848C230.073 220.616 229.981 220.351 229.955 220.076V219.901L213.502 191.664L227.04 168.506Z" fill="#FF6600"/>
    <path d="M147.36 95.737L153.02 127.908C154.841 132.238 176.083 158.469 176.083 158.469L169.06 181.035L141.161 142.887C138.57 140.117 137.161 136.447 137.233 132.655L138.32 98.282L147.36 95.737Z" fill="#FFBE9D"/>
    <path d="M177.482 153.426L192.049 154.53L204.753 156.499C204.753 156.499 227.04 162.355 227.04 164.794C227.04 165.607 220.957 184.98 217.536 196.585C216.697 199.404 216.013 202.266 215.487 205.16L227.04 230.736H172.218V207.288C172.218 207.288 168.522 176.489 169.171 172.281C169.821 168.073 177.482 153.426 177.482 153.426Z" fill="#FF6600"/>
    <path d="M140.448 82.7376C140.534 79.4608 140.869 76.1954 141.451 72.9696C141.53 72.5103 141.72 71.9559 142.18 71.9136C142.75 71.8397 143.04 72.5736 143.114 73.1439C143.621 77.0342 143.458 80.9824 142.634 84.8179" fill="#EB996E"/>
    <path d="M146.942 150.86C153.194 145.274 153.405 135.596 152.872 127.892C152.767 127.33 152.853 126.748 153.115 126.24C153.711 125.389 155.163 125.712 155.755 126.567C156.346 127.422 156.283 128.547 156.251 129.582C156.573 128.705 157.946 128.711 158.59 129.386C159.234 130.062 159.345 131.081 159.419 132.026L159.625 134.603L177.888 152.027C177.888 152.027 178.39 150.443 179.731 151.357C181.072 152.27 181.938 154.197 181.938 154.197L169.071 182.282L145.189 153.241C145.649 152.363 146.24 151.56 146.942 150.86Z" fill="#FF6600"/>
    <path d="M171.727 170.296C169.821 172.726 168.398 175.499 167.534 178.464C166.674 181.449 166.768 184.628 167.804 187.556C168.605 189.582 169.918 191.366 171.614 192.734C173.31 194.102 175.332 195.006 177.482 195.36" fill="#FF6600"/>
    <path d="M230.836 221.417L230.145 230.736H243.677L246.845 214.236C242.723 214.006 238.657 215.28 235.404 217.821L230.836 221.417Z" fill="#FFBE9D"/>
    <path d="M153.305 148.796C153.381 148.539 153.48 148.29 153.601 148.051C153.812 147.587 154.097 146.9 154.419 146.045C154.741 145.189 155.084 144.155 155.406 142.993C155.741 141.725 156.007 140.44 156.204 139.144C156.386 137.847 156.497 136.541 156.536 135.231C156.536 134.022 156.536 132.935 156.462 132.021C156.388 131.108 156.32 130.374 156.251 129.867C156.206 129.604 156.181 129.337 156.177 129.07C156.263 129.323 156.323 129.585 156.357 129.851C156.494 130.564 156.594 131.283 156.658 132.005C156.761 133.079 156.805 134.158 156.79 135.237C156.749 137.882 156.366 140.51 155.649 143.056C155.354 144.094 155.002 145.115 154.593 146.113C154.245 146.969 153.933 147.645 153.69 148.099C153.58 148.34 153.451 148.573 153.305 148.796Z" fill="#263238"/>
    <path d="M157.281 143.891C157.453 143.436 157.65 142.992 157.872 142.56C158.796 140.417 159.333 138.127 159.456 135.796C159.455 135.311 159.482 134.826 159.535 134.344C159.639 134.823 159.678 135.313 159.651 135.802C159.633 138.17 159.092 140.504 158.067 142.639C157.866 143.092 157.601 143.513 157.281 143.891Z" fill="#263238"/>
    <path d="M178.728 158.495C178.686 158.469 178.908 158.125 179.034 157.502C179.182 156.688 179.135 155.85 178.897 155.058C178.646 154.26 178.341 153.48 177.984 152.724C177.817 152.411 177.692 152.077 177.614 151.731C177.823 152.014 178 152.318 178.142 152.64C178.56 153.383 178.898 154.169 179.15 154.984C179.403 155.818 179.423 156.705 179.208 157.55C179.142 157.904 178.975 158.232 178.728 158.495Z" fill="#263238"/>
    <path d="M175.555 195.687C175.472 195.653 175.394 195.609 175.322 195.555L174.699 195.144C174.171 194.779 173.385 194.246 172.466 193.523C171.38 192.686 170.387 191.736 169.504 190.687C168.417 189.389 167.634 187.865 167.212 186.226C166.809 184.586 166.705 182.886 166.906 181.21C167.068 179.85 167.371 178.51 167.809 177.213C168.1 176.338 168.436 175.48 168.817 174.641C168.955 174.346 169.06 174.113 169.14 173.966C169.174 173.883 169.219 173.805 169.272 173.733C169.172 174.056 169.054 174.374 168.918 174.684C168.68 175.286 168.337 176.162 167.994 177.271C167.588 178.563 167.309 179.89 167.16 181.236C166.976 182.882 167.083 184.548 167.476 186.157C167.887 187.76 168.646 189.252 169.699 190.529C170.564 191.571 171.531 192.522 172.587 193.37C173.485 194.109 174.24 194.663 174.763 195.059L175.354 195.513C175.491 195.619 175.56 195.677 175.555 195.687Z" fill="#263238"/>
    <path d="M205.466 200.909C205.393 200.948 205.315 200.976 205.234 200.994C205.075 201.036 204.848 201.115 204.547 201.173C203.696 201.358 202.83 201.462 201.96 201.485C199.059 201.574 196.197 200.792 193.744 199.24C191.29 197.689 189.358 195.438 188.195 192.778C187.841 191.983 187.563 191.155 187.366 190.307C187.292 190.006 187.266 189.779 187.234 189.61C187.216 189.529 187.207 189.445 187.208 189.362C187.316 189.66 187.404 189.965 187.472 190.275C188.312 193.463 190.194 196.279 192.818 198.274C195.442 200.27 198.658 201.331 201.955 201.289C202.816 201.285 203.676 201.211 204.526 201.068C204.836 200.998 205.15 200.946 205.466 200.909Z" fill="#263238"/>
    <path d="M213.866 211.2C213.793 211.2 214.489 208.259 215.45 204.679C216.411 201.099 217.203 198.211 217.272 198.232C217.341 198.253 216.649 201.168 215.714 204.748C214.78 208.328 213.94 211.2 213.866 211.2Z" fill="#263238"/>
    <path d="M221.232 204.975C221.169 205.012 219.046 201.543 216.48 197.224C213.914 192.905 211.907 189.373 211.976 189.336C212.045 189.299 214.162 192.762 216.728 197.081C219.294 201.4 221.322 204.933 221.232 204.975Z" fill="#263238"/>
    <path d="M241.502 213.523C241.502 213.576 240.731 213.639 239.527 213.946C238.824 214.124 238.134 214.352 237.463 214.627C236.644 214.973 235.853 215.383 235.097 215.852C234.352 216.332 233.645 216.87 232.985 217.462C232.447 217.954 231.944 218.483 231.48 219.046C230.688 220.002 230.298 220.672 230.25 220.63C230.314 220.459 230.397 220.296 230.498 220.144C230.743 219.712 231.02 219.299 231.327 218.909C231.778 218.325 232.275 217.778 232.811 217.272C233.475 216.657 234.192 216.102 234.955 215.614C235.724 215.136 236.533 214.726 237.373 214.389C238.058 214.119 238.765 213.905 239.485 213.75C239.968 213.638 240.459 213.564 240.953 213.528C241.135 213.5 241.32 213.499 241.502 213.523Z" fill="#263238"/>
    <path d="M244.089 210.345C244.089 210.403 243.239 210.297 241.882 210.413C241.09 210.485 240.306 210.623 239.538 210.825C237.653 211.326 235.892 212.208 234.363 213.418C233.742 213.912 233.162 214.458 232.632 215.049C231.729 216.063 231.306 216.802 231.259 216.776C231.33 216.589 231.424 216.412 231.539 216.248C231.652 216.044 231.779 215.848 231.919 215.662C232.095 215.406 232.283 215.159 232.484 214.922C233.003 214.303 233.579 213.734 234.205 213.222C234.979 212.601 235.814 212.06 236.697 211.607C237.586 211.172 238.516 210.828 239.474 210.582C240.26 210.385 241.063 210.263 241.872 210.218C242.179 210.203 242.488 210.203 242.796 210.218C243.03 210.219 243.265 210.233 243.498 210.26C243.698 210.263 243.896 210.292 244.089 210.345Z" fill="#263238"/>
    <g opacity="0.3">
        <path opacity="0.3" d="M187.773 190.487C186.532 192.842 187.567 195.714 188.702 198.127C189.584 199.996 190.566 201.891 192.171 203.196C192.96 203.84 193.873 204.315 194.854 204.59C195.835 204.865 196.862 204.934 197.871 204.793C198.88 204.653 199.849 204.305 200.717 203.772C201.585 203.239 202.334 202.532 202.916 201.696C199.55 201.646 196.278 200.579 193.53 198.635C190.782 196.691 188.687 193.961 187.519 190.803" fill="black"/>
    </g>
    <g opacity="0.3">
        <path opacity="0.3" d="M212.013 189.336C211.063 191.601 211.781 194.7 212.773 196.944C213.766 199.188 214.822 201.696 214.025 204.025C213.819 204.438 213.713 204.893 213.713 205.355C213.766 205.809 214.241 206.247 214.669 206.036C214.89 205.881 215.043 205.646 215.097 205.381C215.846 203.122 216.598 200.864 217.351 198.607" fill="black"/>
    </g>
    <path d="M162.064 159.509C162.149 158.091 162.326 156.68 162.592 155.285C162.772 153.882 163.042 152.492 163.4 151.124C163.32 152.543 163.144 153.954 162.872 155.348C162.694 156.751 162.425 158.141 162.064 159.509Z" fill="#FAFAFA"/>
    <path d="M156.504 158.342C156.436 158.384 155.528 157.117 154.271 155.66C153.014 154.202 151.906 153.109 151.958 153.051C152.905 153.744 153.754 154.561 154.482 155.48C155.278 156.342 155.957 157.304 156.504 158.342Z" fill="#FAFAFA"/>
    <path d="M161.278 144.741C161.119 145.081 160.918 145.4 160.681 145.691C160.28 146.256 159.694 147.011 159.013 147.803C158.331 148.595 157.677 149.308 157.186 149.794C156.939 150.076 156.657 150.324 156.346 150.533C156.288 150.48 157.444 149.229 158.801 147.624C160.158 146.018 161.214 144.672 161.278 144.741Z" fill="#FAFAFA"/>
    <path d="M159.414 138.093C159.335 138.125 159.034 137.454 158.453 136.784C157.872 136.113 157.249 135.728 157.291 135.648C157.84 135.807 158.322 136.143 158.659 136.604C159.065 137.006 159.33 137.528 159.414 138.093Z" fill="#FAFAFA"/>
    <path d="M154.598 142.19C154.167 142.394 153.701 142.514 153.226 142.544C152.764 142.665 152.283 142.693 151.811 142.629C152.703 142.305 153.65 142.156 154.598 142.19Z" fill="#FAFAFA"/>
    <path d="M166.748 148.056C166.76 147.235 166.701 146.413 166.573 145.601C166.355 144.808 166.067 144.036 165.713 143.294C166.312 143.909 166.705 144.695 166.837 145.543C167.063 146.371 167.032 147.247 166.748 148.056Z" fill="#FAFAFA"/>
    <path d="M173.237 155.037C172.263 153.482 170.955 152.164 169.409 151.177C170.282 151.516 171.074 152.034 171.734 152.699C172.393 153.364 172.905 154.161 173.237 155.037Z" fill="#FAFAFA"/>
    <path d="M162.819 167.149C161.247 167.738 159.506 167.679 157.978 166.985C158.004 166.906 159.034 167.239 160.391 167.276C161.748 167.313 162.798 167.07 162.819 167.149Z" fill="#FAFAFA"/>
    <path d="M167.709 169.657C167.635 169.625 168.047 168.411 168.39 166.869C168.733 165.327 168.886 164.05 168.965 164.06C169.02 165.026 168.916 165.995 168.659 166.927C168.491 167.882 168.17 168.804 167.709 169.657Z" fill="#FAFAFA"/>
    <path d="M178.39 170.064C177.555 169.358 176.783 168.58 176.083 167.74C175.31 166.963 174.604 166.122 173.971 165.227C174.803 165.937 175.573 166.715 176.273 167.556C177.045 168.333 177.753 169.172 178.39 170.064Z" fill="#FAFAFA"/>
    <path d="M183.364 182.403C182.731 181.943 182.153 181.412 181.643 180.819C181.07 180.287 180.56 179.692 180.122 179.045C180.755 179.504 181.333 180.036 181.843 180.629C182.421 181.156 182.931 181.752 183.364 182.403Z" fill="#FAFAFA"/>
    <path d="M174.119 183.58C173.511 184.227 172.797 184.762 172.007 185.164C171.263 185.659 170.437 186.017 169.567 186.22C169.567 186.146 170.623 185.692 171.869 184.948C173.115 184.203 174.066 183.517 174.119 183.58Z" fill="#FAFAFA"/>
    <path d="M178.374 195.318C178.295 195.318 178.612 193.913 178.77 192.176C178.929 190.439 178.881 189.008 178.96 189.008C179.154 190.053 179.183 191.122 179.045 192.176C178.992 193.253 178.766 194.314 178.374 195.318Z" fill="#FAFAFA"/>
    <path d="M194.378 185.777C193.506 185.243 192.732 184.562 192.092 183.765C191.385 183.028 190.815 182.172 190.407 181.236C190.476 181.189 191.199 182.334 192.298 183.586C193.396 184.837 194.431 185.708 194.378 185.777Z" fill="#FAFAFA"/>
    <path d="M200.223 190.756C200.16 190.708 200.962 189.61 201.86 188.2C202.757 186.791 203.417 185.608 203.486 185.645C203.143 186.605 202.673 187.514 202.087 188.348C201.58 189.233 200.953 190.044 200.223 190.756Z" fill="#FAFAFA"/>
    <path d="M199.368 178.57C197.565 178.27 195.796 177.793 194.088 177.144C194.998 177.253 195.896 177.447 196.77 177.725C197.662 177.918 198.532 178.201 199.368 178.57Z" fill="#FAFAFA"/>
    <path d="M195.107 200.017C195.013 199.185 195.013 198.346 195.107 197.514C195.113 196.678 195.209 195.844 195.392 195.027C195.487 195.859 195.487 196.699 195.392 197.53C195.387 198.367 195.291 199.201 195.107 200.017Z" fill="#FAFAFA"/>
    <path d="M198.792 207.361C199.069 206.509 199.291 205.639 199.457 204.758C199.53 203.865 199.544 202.967 199.5 202.071C199.772 202.95 199.85 203.877 199.728 204.789C199.605 205.701 199.286 206.575 198.792 207.351V207.361Z" fill="#FAFAFA"/>
    <path d="M189.241 205.741C188.971 203.917 189.329 202.055 190.254 200.461C190.328 200.492 189.842 201.606 189.568 203.069C189.293 204.531 189.32 205.735 189.241 205.741Z" fill="#FAFAFA"/>
    <path d="M180.529 209.463C179.668 208.865 178.839 208.222 178.047 207.536C177.199 206.921 176.383 206.264 175.602 205.566C176.551 206.039 177.438 206.628 178.242 207.319C179.085 207.942 179.853 208.662 180.529 209.463Z" fill="#FAFAFA"/>
    <path d="M186.426 199.104C184.406 200.386 182.287 201.507 180.09 202.456C181.084 201.772 182.129 201.165 183.216 200.64C184.245 200.046 185.318 199.532 186.426 199.104Z" fill="#FAFAFA"/>
    <path d="M204.753 222.351C204.641 222.388 204.526 222.416 204.41 222.436C204.183 222.478 203.85 222.563 203.417 222.621C202.195 222.808 200.958 222.887 199.721 222.858C196.527 222.812 193.379 222.089 190.485 220.736C187.59 219.384 185.016 217.433 182.931 215.012C181.72 213.619 180.683 212.083 179.842 210.44C179.269 209.338 178.796 208.188 178.427 207.002C178.284 206.585 178.216 206.253 178.153 206.031C178.117 205.918 178.094 205.801 178.084 205.682C178.134 205.789 178.175 205.901 178.205 206.015C178.285 206.232 178.369 206.543 178.527 206.971C179.54 209.865 181.099 212.538 183.121 214.843C185.211 217.208 187.762 219.121 190.617 220.466C193.473 221.811 196.572 222.558 199.727 222.663C200.961 222.709 202.196 222.659 203.423 222.515C203.861 222.473 204.193 222.404 204.42 222.383C204.53 222.36 204.641 222.349 204.753 222.351Z" fill="#263238"/>
    <path d="M188.977 219.616C188.796 218.778 188.883 217.905 189.225 217.119C189.482 216.301 189.993 215.586 190.682 215.076C190.216 215.751 189.814 216.468 189.483 217.219C189.242 218.001 189.072 218.804 188.977 219.616Z" fill="#FAFAFA"/>
    <path d="M184.631 217.8C184.13 218.188 183.67 218.627 183.258 219.109C182.915 219.641 182.625 220.205 182.392 220.794C182.41 220.125 182.635 219.477 183.036 218.941C183.437 218.405 183.994 218.006 184.631 217.8Z" fill="#FAFAFA"/>
    <path d="M201.342 227.748C200.478 227.678 199.643 227.402 198.908 226.943C198.173 226.484 197.559 225.854 197.118 225.108C198.267 226.347 199.725 227.259 201.342 227.748Z" fill="#FAFAFA"/>
    <path d="M203.94 213.122C203.829 213.898 203.501 214.627 202.994 215.225C202.487 215.823 201.821 216.265 201.073 216.501C201.69 216.075 202.263 215.589 202.784 215.049C203.234 214.448 203.622 213.802 203.94 213.122Z" fill="#FAFAFA"/>
    <path d="M211.327 224.025C211.263 223.972 211.96 223.091 212.605 221.876C213.249 220.662 213.592 219.59 213.661 219.616C213.362 221.296 212.541 222.838 211.316 224.025H211.327Z" fill="#FAFAFA"/>
    <path d="M221.09 225.456C221.121 225.535 220.16 225.915 219.194 226.713C218.228 227.51 217.647 228.365 217.578 228.297C217.882 227.568 218.381 226.938 219.02 226.475C219.602 225.95 220.318 225.597 221.09 225.456Z" fill="#FAFAFA"/>
    <path d="M213.645 212.958C213.56 212.985 213.117 211.443 212.129 209.732C211.142 208.021 210.086 206.818 210.155 206.765C210.444 206.969 210.699 207.219 210.91 207.504C212.021 208.802 212.867 210.305 213.402 211.929C213.535 212.258 213.616 212.605 213.645 212.958Z" fill="#FAFAFA"/>
    <path d="M215.102 197.24C213.458 197.807 211.759 198.198 210.033 198.407C211.677 197.841 213.376 197.449 215.102 197.24Z" fill="#FAFAFA"/>
    <path d="M210.609 192.541C210.006 191.98 209.464 191.357 208.993 190.682C208.455 190.06 207.986 189.382 207.594 188.66C208.202 189.213 208.745 189.835 209.209 190.513C209.752 191.133 210.222 191.813 210.609 192.541Z" fill="#FAFAFA"/>
    <path d="M221.76 189.721C220.049 189.678 218.366 189.279 216.818 188.549C217.654 188.692 218.481 188.884 219.294 189.124C220.127 189.273 220.951 189.472 221.76 189.721Z" fill="#FAFAFA"/>
    <path d="M229.68 189.578C229.907 188.831 230.177 188.098 230.488 187.382C230.711 186.632 230.981 185.897 231.296 185.18C231.253 185.97 231.074 186.747 230.768 187.477C230.532 188.236 230.164 188.948 229.68 189.578Z" fill="#FAFAFA"/>
    <path d="M227.874 200.307C226.237 199.942 224.758 199.065 223.65 197.805C223.703 197.741 224.537 198.47 225.694 199.151C226.85 199.832 227.901 200.228 227.874 200.307Z" fill="#FAFAFA"/>
    <path d="M233.017 199.98C233.123 198.92 233.317 197.871 233.598 196.844C233.789 195.799 234.068 194.773 234.432 193.776C234.136 195.883 233.657 197.961 233.001 199.985L233.017 199.98Z" fill="#FAFAFA"/>
    <path d="M228.724 211.976C227.406 210.485 226.229 208.875 225.208 207.166C225.9 207.883 226.525 208.66 227.077 209.489C227.701 210.266 228.253 211.098 228.724 211.976Z" fill="#FAFAFA"/>
    <path d="M236.053 207.388C235.979 207.425 235.499 206.469 234.738 205.403C233.978 204.336 233.244 203.56 233.302 203.502C233.966 203.967 234.531 204.559 234.965 205.244C235.47 205.877 235.84 206.607 236.053 207.388Z" fill="#FAFAFA"/>
    <path d="M242.928 206.358C242.326 205.651 241.762 204.913 241.238 204.146C240.638 203.439 240.074 202.703 239.548 201.939C240.953 203.177 242.101 204.678 242.928 206.358Z" fill="#FAFAFA"/>
    <path d="M241.296 210.915C241.202 210.281 240.989 209.67 240.668 209.114C240.281 208.602 239.803 208.165 239.258 207.826C239.258 207.794 239.501 207.826 239.833 207.99C240.263 208.218 240.626 208.553 240.889 208.961C241.158 209.369 241.32 209.837 241.359 210.324C241.412 210.672 241.344 210.915 241.296 210.915Z" fill="#FAFAFA"/>
    <path d="M235.953 217.161C235.91 217.161 235.926 217.019 235.884 216.834C235.834 216.596 235.706 216.382 235.52 216.227C235.325 216.082 235.086 216.01 234.844 216.021C234.654 216.021 234.532 216.068 234.511 216.021C234.49 215.973 234.59 215.878 234.817 215.815C234.967 215.776 235.123 215.772 235.274 215.803C235.425 215.834 235.567 215.9 235.689 215.995C235.81 216.09 235.908 216.212 235.975 216.351C236.042 216.49 236.076 216.643 236.074 216.797C236.069 217.05 235.984 217.172 235.953 217.161Z" fill="#FAFAFA"/>
    <path d="M181.02 227.146C180.033 226.766 179.137 226.184 178.388 225.439C177.639 224.694 177.054 223.8 176.669 222.816C177.746 224.597 179.239 226.09 181.02 227.167V227.146Z" fill="#FAFAFA"/>
    <path d="M147.412 96.096C146.562 88.0652 145.026 80.5095 144.609 72.637C144.625 72.4396 144.6 72.2409 144.536 72.0537C144.471 71.8664 144.368 71.6946 144.234 71.5493C144.119 71.4821 143.991 71.439 143.859 71.4226C143.727 71.4062 143.593 71.4168 143.465 71.4539C143.337 71.4909 143.218 71.5536 143.115 71.6381C143.012 71.7225 142.928 71.8271 142.866 71.9453C142.636 72.4395 142.545 72.9871 142.602 73.5293C142.611 77.7159 141.897 81.8726 140.49 85.8159C139.587 88.3767 138.378 90.8319 137.702 93.456C137.027 96.0802 138.299 96.9725 139.482 99.4172" fill="#FFBE9D"/>
    <path d="M139.498 99.4066C138.452 98.6042 137.64 97.5354 137.149 96.3121C136.658 95.0888 136.504 93.7559 136.704 92.4528C136.974 90.8688 137.76 89.4327 138.384 87.9543C139.007 86.4759 139.487 84.8338 139.107 83.2762C138.897 82.6981 138.755 82.0974 138.684 81.4863C138.684 80.8738 139.08 80.1874 139.693 80.161C139.924 80.1797 140.148 80.2519 140.347 80.3719C140.546 80.492 140.714 80.6565 140.839 80.8527C141.868 82.1252 142.692 85.8423 142.175 88.6196" fill="#FFBE9D"/>
    <path d="M142.175 88.6196C142.175 88.6196 142.227 88.1919 142.259 87.4211C142.292 86.3337 142.202 85.2461 141.99 84.1791C141.848 83.4442 141.635 82.7246 141.356 82.0302C141.209 81.6523 141.01 81.2969 140.765 80.9742C140.655 80.801 140.51 80.6521 140.34 80.5368C140.171 80.4215 139.979 80.3421 139.777 80.3036C139.57 80.3135 139.371 80.3911 139.212 80.5246C139.053 80.6581 138.942 80.8401 138.896 81.0428C138.782 81.4929 138.812 81.9671 138.98 82.3998C139.158 82.8828 139.282 83.3839 139.35 83.894C139.401 84.4222 139.381 84.9549 139.292 85.478C138.922 87.6217 137.782 89.3535 137.18 91.0695C136.883 91.8713 136.724 92.7175 136.71 93.5722C136.707 94.3168 136.817 95.0575 137.037 95.7687C137.357 96.8065 137.897 97.7629 138.621 98.5724C139.149 99.1374 139.492 99.3855 139.476 99.4119C139.382 99.3641 139.294 99.3056 139.212 99.2377C138.974 99.0562 138.75 98.8567 138.542 98.6411C137.77 97.8451 137.192 96.8821 136.852 95.8268C136.612 95.0993 136.487 94.3385 136.483 93.5722C136.487 92.69 136.643 91.815 136.942 90.9851C137.523 89.2321 138.648 87.5002 138.996 85.4358C139.086 84.9341 139.106 84.4222 139.054 83.9151C138.991 83.4194 138.872 82.9324 138.7 82.4631C138.518 81.9782 138.492 81.4482 138.626 80.9478C138.705 80.6979 138.849 80.4737 139.044 80.2983C139.141 80.2076 139.256 80.1379 139.381 80.0934C139.506 80.0489 139.639 80.0306 139.772 80.0396C140.014 80.0716 140.246 80.1545 140.454 80.2828C140.661 80.4111 140.839 80.582 140.976 80.7841C141.233 81.1336 141.439 81.5175 141.588 81.9246C141.868 82.6337 142.073 83.3698 142.201 84.121C142.401 85.2036 142.463 86.3071 142.386 87.4052C142.367 87.7032 142.328 87.9995 142.27 88.2922C142.254 88.4053 142.222 88.5156 142.175 88.6196Z" fill="#EB996E"/>
    <path d="M211.2 131.498C211.373 132.254 211.782 132.934 212.367 133.441C212.953 133.948 213.686 134.255 214.458 134.318C215.232 134.356 216.003 134.196 216.698 133.855C217.394 133.513 217.991 133 218.434 132.364C219.31 131.071 219.663 129.494 219.421 127.95C219.12 125.727 217.642 123.589 215.498 122.929C213.354 122.269 210.688 123.457 210.097 125.611L207.625 129.059L211.2 131.498Z" fill="#263238"/>
    <path d="M208.28 124.724C208.52 122.813 208.373 120.874 207.849 119.021C207.325 117.168 206.434 115.439 205.229 113.937C204.024 112.435 202.529 111.191 200.834 110.277C199.139 109.364 197.277 108.8 195.36 108.62C187.699 107.892 180.882 113.599 179.736 121.213C178.728 127.887 177.862 134.624 177.894 137.053C177.989 144.445 182.303 147.307 184.055 148.141C184.685 148.368 185.336 148.529 185.999 148.621C186.005 148.623 186.011 148.625 186.016 148.629C186.021 148.632 186.026 148.637 186.029 148.643C186.033 148.648 186.035 148.654 186.036 148.66C186.037 148.667 186.037 148.673 186.035 148.68L184.399 157.128C183.654 162.677 186.754 167.629 192.292 168.437C197.831 169.245 202.198 164.984 203.048 159.43L208.28 124.724Z" fill="#FFBE9D"/>
    <path d="M181.009 125.527C181.13 125.701 182.102 125.178 183.353 125.363C184.605 125.548 185.423 126.308 185.581 126.171C185.661 126.113 185.55 125.822 185.196 125.474C184.71 125.02 184.096 124.727 183.438 124.634C182.788 124.54 182.125 124.653 181.542 124.957C181.104 125.194 180.946 125.448 181.009 125.527Z" fill="#263238"/>
    <path d="M192.118 127.934C192.24 128.109 193.216 127.586 194.462 127.771C195.709 127.956 196.538 128.716 196.696 128.579C196.77 128.521 196.664 128.23 196.305 127.876C195.82 127.425 195.208 127.134 194.552 127.042C193.902 126.947 193.239 127.06 192.657 127.364C192.229 127.602 192.06 127.855 192.118 127.934Z" fill="#263238"/>
    <path d="M187.799 133.837C187.171 133.537 186.507 133.315 185.824 133.177C185.508 133.098 185.217 132.987 185.196 132.766C185.217 132.433 185.338 132.114 185.544 131.852L186.843 129.561C188.654 126.292 190.011 123.589 189.885 123.515C189.758 123.441 188.174 126.034 186.363 129.323L185.101 131.63C184.848 131.989 184.725 132.423 184.752 132.861C184.786 132.977 184.844 133.084 184.924 133.176C185.003 133.267 185.101 133.339 185.212 133.389C185.381 133.461 185.558 133.512 185.74 133.542C186.411 133.727 187.103 133.826 187.799 133.837Z" fill="#263238"/>
    <path d="M186.046 148.674C186.046 148.674 190.798 149.773 197.372 147.027C197.372 147.027 194.542 153.125 185.608 150.955L186.046 148.674Z" fill="#EB996E"/>
    <path d="M187.889 136.926C188.169 136.669 188.509 136.486 188.878 136.393C189.247 136.301 189.633 136.303 190.001 136.398C190.273 136.465 190.528 136.586 190.753 136.753C190.978 136.919 191.167 137.129 191.31 137.37C191.447 137.602 191.509 137.87 191.488 138.139C191.466 138.407 191.361 138.663 191.189 138.869C190.957 139.066 190.671 139.187 190.368 139.218C190.066 139.249 189.761 139.188 189.494 139.044C188.933 138.752 188.438 138.349 188.037 137.861C187.908 137.742 187.804 137.598 187.73 137.438C187.694 137.363 187.681 137.278 187.695 137.195C187.708 137.111 187.746 137.034 187.804 136.974" fill="#EB996E"/>
    <path d="M191.347 135.237C191.147 135.194 190.946 136.551 189.647 137.349C188.348 138.146 186.923 137.782 186.886 137.972C186.854 138.056 187.171 138.283 187.778 138.389C188.57 138.514 189.381 138.357 190.069 137.945C190.73 137.548 191.211 136.91 191.411 136.166C191.543 135.601 191.442 135.242 191.347 135.237Z" fill="#263238"/>
    <path d="M192.979 123.869C193.053 124.228 194.325 124.249 195.761 124.64C197.197 125.03 198.333 125.601 198.57 125.326C198.676 125.194 198.517 124.846 198.09 124.444C197.51 123.948 196.825 123.591 196.087 123.399C195.349 123.206 194.577 123.185 193.829 123.336C193.248 123.473 192.952 123.7 192.979 123.869Z" fill="#263238"/>
    <path d="M182.271 121.678C182.445 121.994 183.353 121.825 184.383 121.963C185.413 122.1 186.268 122.427 186.495 122.163C186.606 122.031 186.495 121.725 186.162 121.403C185.696 121.005 185.121 120.755 184.511 120.686C183.902 120.616 183.285 120.73 182.741 121.012C182.355 121.25 182.192 121.524 182.271 121.678Z" fill="#263238"/>
    <path d="M178.29 119.56C179.816 121.889 184.663 120.447 187.588 118.848C189.116 119.822 190.964 120.162 192.739 119.795C194.514 119.429 196.075 118.384 197.092 116.883C198.766 118.995 202.171 118.309 203.428 115.907C204.685 113.504 203.956 110.194 202.266 108.092C200.577 105.991 198.074 104.924 195.613 104.475C189.779 103.419 183.427 105.658 179.937 110.933C178.327 113.367 177.36 116.646 178.316 119.56" fill="#263238"/>
    <path d="M194.415 105.304C194.415 105.41 193.037 105.146 190.872 105.505C188.06 105.973 185.483 107.36 183.543 109.449C181.718 111.637 180.511 114.273 180.048 117.084C179.887 118.256 179.826 119.439 179.863 120.622C179.751 120.316 179.685 119.996 179.668 119.671C179.575 118.793 179.59 117.906 179.71 117.031C180.093 114.111 181.306 111.362 183.205 109.111C185.213 106.937 187.918 105.535 190.851 105.146C191.726 105.028 192.612 105.014 193.491 105.104C193.807 105.123 194.119 105.191 194.415 105.304Z" fill="#455A64"/>
    <path d="M186.527 116.16C186.44 115.893 186.4 115.612 186.41 115.331C186.383 114.565 186.463 113.799 186.648 113.055C186.93 111.808 187.465 110.632 188.219 109.599C188.973 108.566 189.931 107.699 191.033 107.05C192.135 106.401 193.358 105.984 194.627 105.826C195.896 105.667 197.184 105.77 198.412 106.128C199.153 106.331 199.863 106.633 200.524 107.026C200.778 107.158 201.006 107.337 201.194 107.554C200.274 107.118 199.316 106.764 198.333 106.498C195.941 105.888 193.406 106.249 191.28 107.501C189.153 108.754 187.608 110.795 186.981 113.182C186.463 114.946 186.627 116.16 186.527 116.16Z" fill="#455A64"/>
    <path d="M200.524 113.626C199.951 115.692 199.622 117.819 199.542 119.962C199.463 122.117 200.133 124.232 201.437 125.949C203.475 128.404 206.876 129.154 210.012 129.751C211.69 125.565 212.195 121.002 211.475 116.551C211.116 114.391 210.419 112.189 208.898 110.616C207.767 109.501 206.299 108.792 204.722 108.601C203.146 108.41 201.55 108.747 200.186 109.56" fill="#263238"/>
    <path d="M202.266 123.848C201.443 125.632 201.501 127.697 201.786 129.656C202.071 131.615 202.567 133.531 202.546 135.495C202.525 137.46 201.902 139.545 200.36 140.775C199.893 141.087 199.454 141.441 199.051 141.831C198.851 142.03 198.718 142.285 198.669 142.562C198.62 142.838 198.657 143.124 198.776 143.378C199.072 143.854 199.964 143.843 200.091 143.299L200.012 143.437C199.934 143.568 199.892 143.718 199.89 143.871C199.889 144.023 199.927 144.174 200.002 144.307C200.077 144.44 200.186 144.551 200.317 144.629C200.448 144.707 200.598 144.749 200.751 144.751C201.29 144.725 201.819 144.589 202.304 144.351C202.789 144.114 203.22 143.779 203.57 143.368C204.579 142.201 204.98 140.633 205.244 139.144C206.057 134.482 205.899 129.64 207.187 125.094" fill="#263238"/>
    <path d="M184.362 154.466C184.725 156.055 185.427 157.546 186.417 158.839C187.408 160.133 188.666 161.198 190.105 161.962C191.544 162.726 193.131 163.172 194.757 163.269C196.383 163.366 198.012 163.112 199.531 162.524C202.266 161.468 204.473 159.408 206.601 157.397C206.982 159.687 206.877 162.031 206.293 164.278C205.71 166.525 204.66 168.625 203.213 170.44C201.766 172.255 199.953 173.746 197.892 174.815C195.832 175.885 193.57 176.509 191.252 176.648C187.752 176.859 183.992 175.792 181.79 173.063C180.254 171.162 179.636 168.643 179.678 166.199C179.785 163.75 180.251 161.331 181.062 159.018C181.685 157.022 182.672 154.794 184.689 154.239" fill="#FF6600"/>
    <path d="M209.41 129.888C211.522 131.023 212.652 133.399 213.059 135.744C213.465 138.088 213.259 140.496 213.36 142.866C213.46 145.237 213.914 147.729 215.419 149.572C217.003 151.536 219.511 152.465 221.755 153.664C226.676 156.304 230.731 160.808 232.209 166.204C233.688 171.6 232.346 177.82 228.307 181.701C224.611 185.217 219.278 186.453 214.189 186.453C210.561 186.453 206.575 185.671 204.31 182.836C202.045 180.001 202.198 176.025 202.99 172.529C203.782 169.034 205.234 165.639 205.292 162.054C204.75 164.273 203.805 166.374 202.504 168.253C202.129 168.781 201.49 169.361 200.92 169.055C200.35 168.749 200.524 167.761 200.82 167.101C205.191 157.37 203.671 137.755 206.263 127.01" fill="#263238"/>
    <path d="M205.809 128.785C205.941 128.742 211.047 127.776 210.387 132.824C209.727 137.871 204.801 136.171 204.811 136.029C204.822 135.886 205.809 128.785 205.809 128.785Z" fill="#FFBE9D"/>
    <path d="M206.601 134.318C206.601 134.318 206.68 134.387 206.823 134.476C207.02 134.592 207.255 134.628 207.478 134.577C208.037 134.45 208.597 133.658 208.739 132.755C208.806 132.323 208.777 131.881 208.655 131.461C208.628 131.297 208.562 131.142 208.462 131.01C208.361 130.877 208.23 130.771 208.079 130.701C207.985 130.668 207.881 130.666 207.786 130.698C207.69 130.73 207.608 130.792 207.551 130.875C207.467 131.007 207.483 131.113 207.456 131.118C207.43 131.124 207.361 131.018 207.425 130.817C207.47 130.695 207.556 130.593 207.668 130.527C207.746 130.48 207.834 130.449 207.924 130.437C208.015 130.426 208.108 130.433 208.196 130.458C208.398 130.527 208.579 130.645 208.722 130.803C208.865 130.961 208.966 131.153 209.014 131.361C209.17 131.827 209.212 132.323 209.135 132.808C208.972 133.822 208.328 134.703 207.551 134.819C207.411 134.842 207.267 134.832 207.131 134.791C206.995 134.75 206.869 134.678 206.765 134.582C206.596 134.439 206.585 134.323 206.601 134.318Z" fill="#EB996E"/>
    <path d="M179.145 165.343C179.393 164.804 179.679 164.284 180 163.786C180.736 162.568 181.347 161.278 181.822 159.937C182.284 158.594 182.439 157.165 182.276 155.755C182.173 155.176 182.039 154.603 181.875 154.039C181.974 154.167 182.051 154.312 182.102 154.466C182.274 154.871 182.398 155.295 182.472 155.728C182.694 157.169 182.561 158.643 182.086 160.021C181.607 161.383 180.963 162.68 180.169 163.886C179.874 164.351 179.641 164.72 179.446 164.968C179.251 165.217 179.161 165.354 179.145 165.343Z" fill="#263238"/>
    <path d="M181.716 159.519C181.643 159.519 181.5 159.086 181.046 158.786C180.592 158.485 180.138 158.485 180.127 158.405C180.117 158.326 180.238 158.316 180.444 158.31C180.717 158.313 180.982 158.399 181.204 158.558C181.428 158.715 181.6 158.933 181.701 159.187C181.769 159.382 181.753 159.509 181.716 159.519Z" fill="#FAFAFA"/>
    <path d="M184.98 159.509C184.584 159.064 184.149 158.656 183.681 158.289C183.161 157.998 182.612 157.761 182.044 157.582C182.358 157.538 182.678 157.558 182.985 157.641C183.291 157.723 183.578 157.867 183.828 158.062C184.386 158.375 184.799 158.895 184.98 159.509Z" fill="#FAFAFA"/>
    <path d="M187.028 170.222C187.04 169.494 187.143 168.77 187.334 168.068C187.436 167.342 187.63 166.633 187.91 165.956C187.898 166.685 187.795 167.411 187.604 168.115C187.501 168.839 187.308 169.547 187.028 170.222Z" fill="#FAFAFA"/>
    <path d="M195.265 171.838C195.133 170.322 195.181 168.796 195.408 167.292C195.547 168.807 195.499 170.334 195.265 171.838Z" fill="#FAFAFA"/>
    <path d="M27.0917 195.302L18.9499 230.757L36.168 230.81L44.1196 199.632L27.0917 195.302Z" fill="#B78876"/>
    <path d="M111.646 151.742C110.009 149.551 108.129 147.444 107.268 144.846C106.851 143.59 106.688 142.259 106.244 141.013C105.801 139.767 104.993 138.552 103.757 138.083C102.522 137.613 101.582 138.083 100.779 138.97L94.871 156.251L98.2766 169.525C101.677 168.759 105.933 167.851 109.111 166.42C112.29 164.989 114.391 162.698 114.613 159.218C114.766 156.489 113.282 153.938 111.646 151.742Z" fill="#263238"/>
    <path d="M57.8793 148.69C57.8793 148.69 37.3401 157.629 34.7741 161.663C32.208 165.697 23.76 194.457 23.76 194.457L45.408 200.793L45.0384 230.736H98.1024L97.6641 177.936L91.0113 148.759C91.0113 148.759 79.295 148.004 78.2073 147.47C77.1197 146.937 57.8793 148.69 57.8793 148.69Z" fill="#FF6600"/>
    <path d="M130.87 75.504C131.039 74.2949 130.189 72.9643 130.801 71.9031C131.206 71.3561 131.786 70.9633 132.443 70.789C132.762 70.6433 133.107 70.5625 133.457 70.5514C133.632 70.5486 133.804 70.5971 133.951 70.691C134.098 70.7848 134.215 70.9199 134.286 71.0794C134.324 71.2813 134.306 71.4898 134.235 71.6824C134.163 71.875 134.04 72.0444 133.88 72.1724C133.558 72.4252 133.287 72.737 133.082 73.0911C132.939 73.9602 133.006 74.851 133.278 75.6888C133.981 77.5325 134.565 79.4196 135.025 81.3384" fill="#B78876"/>
    <path d="M126.535 75.9158C126.609 74.0837 128.119 66.8659 128.172 65.0338C129.413 65.4139 130.131 66.7339 130.363 68.0117C130.595 69.2894 130.474 70.6042 130.696 71.8819C130.991 73.5979 131.884 75.145 132.781 76.6339C133.679 78.1229 134.619 79.6382 135.025 81.3278C135.432 83.0174 136.963 87.4104 135.77 88.6776" fill="#B78876"/>
    <path d="M126.192 88.271L118.847 123.161C118.589 124.745 91.0114 148.796 91.0114 148.796L96.455 170.544L132.359 135.416C134.951 132.645 136.362 128.972 136.293 125.178L135.68 92.4422L126.192 88.271Z" fill="#B78876"/>
    <path d="M124.935 76.1376L126.192 88.2816L135.696 92.4634C135.696 92.4634 135.812 91.6027 136.224 87.3946C136.673 82.7587 131.688 80.7682 129.466 77.3626C128.515 75.9 128.763 73.2072 128.029 69.8702C127.945 69.4848 127.417 67.151 127.132 65.8997C126.982 65.2043 126.574 64.5913 125.991 64.1837C125.558 63.8986 125.073 63.756 124.719 64.1837C124.365 64.6114 124.935 76.1376 124.935 76.1376Z" fill="#B78876"/>
    <path d="M130.87 90.288C131.926 89.3746 132.179 87.7378 131.783 86.3808C131.299 85.0446 130.534 83.8276 129.539 82.8115C128.547 81.798 127.712 80.6411 127.063 79.3795C126.662 78.4714 126.472 77.4682 126.007 76.5759C125.543 75.6835 124.756 74.8651 123.763 74.8282C124.56 79.8495 124.539 82.7482 126.171 88.2499" fill="#B78876"/>
    <path d="M124.751 80.5622C124.751 80.5622 124.714 80.425 124.655 80.161C124.597 79.897 124.497 79.4587 124.402 79.0099C124.175 77.9539 123.874 76.6075 123.563 75.0605L123.531 74.9126H123.684C124.009 74.9008 124.333 74.9535 124.638 75.0677C124.942 75.1819 125.221 75.3553 125.458 75.5779C126.183 76.2678 126.699 77.148 126.947 78.1176C127.158 78.8712 127.435 79.6045 127.776 80.3088C128.034 80.7714 128.346 81.2021 128.705 81.5918C128.836 81.7416 128.943 81.9108 129.022 82.0934C128.878 81.9595 128.743 81.8148 128.621 81.6605C128.228 81.2892 127.887 80.8665 127.607 80.4038C127.234 79.6972 126.93 78.9564 126.699 78.1915C126.453 77.2704 125.96 76.4341 125.273 75.7733C124.845 75.3714 124.276 75.1534 123.689 75.1661L123.816 75.0077C124.455 78.1862 124.867 80.5675 124.751 80.5622Z" fill="#7C5142"/>
    <path d="M129.022 77.4734C128.639 75.8399 128.346 74.1865 128.146 72.5208C127.852 70.8681 127.65 69.2007 127.538 67.5259C127.924 69.1606 128.217 70.8159 128.415 72.4838C128.708 74.1347 128.911 75.8004 129.022 77.4734Z" fill="#7C5142"/>
    <path d="M132.048 77.8853C132.048 77.8853 132.084 77.9381 132.116 78.0701H132.037C131.644 76.9404 131.323 75.787 131.076 74.6169C130.849 73.5979 130.685 72.6686 130.585 71.9769C130.503 71.6151 130.471 71.2439 130.49 70.8734C130.569 70.8734 130.891 72.5155 131.345 74.5694C131.71 76.2115 132.048 77.5949 132.116 78.0595H132.037C132.032 77.9486 132.032 77.8853 132.048 77.8853Z" fill="#7C5142"/>
    <path d="M133.922 84.575C133.88 84.575 133.69 84.3004 133.309 83.8939C132.305 82.8268 130.942 82.1686 129.481 82.0459C129.176 82.0486 128.871 82.0292 128.568 81.9878C128.86 81.8744 129.174 81.8275 129.487 81.8505C130.248 81.8601 130.997 82.0367 131.682 82.3679C132.368 82.6991 132.972 83.1768 133.452 83.7672C133.668 83.9971 133.829 84.2734 133.922 84.575Z" fill="#7C5142"/>
    <path d="M127.053 89.232C126.791 88.7777 126.581 88.2961 126.424 87.7959C125.99 86.6111 125.627 85.4016 125.337 84.1738C125.041 82.9562 124.819 81.722 124.671 80.4778C124.585 79.9545 124.553 79.4237 124.576 78.8938C124.709 79.3983 124.804 79.9118 124.861 80.4303C125.02 81.3754 125.263 82.6848 125.601 84.1263C125.939 85.5677 126.319 86.8296 126.609 87.7484C126.791 88.232 126.939 88.7278 127.053 89.232Z" fill="#7C5142"/>
    <path d="M84.5645 149.424C85.0349 148.704 85.7647 148.192 86.6023 147.995C87.44 147.799 88.3211 147.932 89.063 148.368C92.9385 145.2 96.9038 142.127 100.779 138.975C99.5121 145.311 98.6673 154.144 101.503 159.942C101.503 159.942 105.077 166.584 110.769 165.57L105.69 170.544L97.68 177.973" fill="#FF6600"/>
    <path d="M83.3078 152.381C83.3138 151.531 83.573 150.702 84.0523 150C84.457 149.25 85.0742 148.636 85.8263 148.236C84.6333 149.369 83.764 150.8 83.3078 152.381Z" fill="#263238"/>
    <path d="M87.4949 156.288C87.2751 155.936 87.1245 155.545 87.0514 155.137C86.8234 154.158 86.7962 153.142 86.9714 152.152C87.1465 151.162 87.5204 150.218 88.0704 149.376C88.2801 149.016 88.556 148.699 88.8835 148.442C88.9205 148.474 88.6142 148.833 88.2394 149.498C87.7517 150.34 87.414 151.26 87.2414 152.217C87.0761 153.176 87.0761 154.157 87.2414 155.116C87.3734 155.802 87.5371 156.246 87.4949 156.288Z" fill="#263238"/>
    <path d="M106.894 169.847C106.504 170.089 106.078 170.268 105.632 170.375C104.412 170.669 103.136 170.631 101.936 170.264C100.159 169.7 98.6035 168.592 97.4899 167.096C96.1523 165.262 95.2495 163.148 94.8499 160.913C94.1042 156.89 93.8912 152.785 94.2163 148.706C94.3377 147.122 94.512 145.886 94.6598 145.01C94.7285 144.577 94.7918 144.244 94.8393 144.017C94.8558 143.9 94.8841 143.785 94.9238 143.674C94.9275 143.793 94.9169 143.912 94.8921 144.028L94.7654 145.026C94.6545 145.892 94.5067 147.138 94.4117 148.722C94.1415 152.783 94.3792 156.863 95.1192 160.866C95.5145 163.043 96.3892 165.104 97.68 166.901C98.7476 168.381 100.253 169.489 101.983 170.069C103.152 170.445 104.398 170.513 105.6 170.264C106.04 170.154 106.472 170.015 106.894 169.847Z" fill="#FAFAFA"/>
    <path d="M45.5083 209.706C45.4344 209.706 45.371 202.198 45.371 192.942C45.371 183.686 45.4344 176.178 45.5083 176.178C45.5822 176.178 45.6456 183.681 45.6456 192.942C45.6456 202.203 45.5875 209.706 45.5083 209.706Z" fill="#263238"/>
    <path d="M45.0859 170.386C45.0278 170.386 45.0437 169.636 44.7849 168.469C44.6308 167.787 44.4097 167.122 44.1249 166.484C43.7701 165.707 43.3329 164.971 42.8208 164.287C42.2944 163.613 41.698 162.998 41.0414 162.45C40.5009 162.008 39.9191 161.619 39.3043 161.288C38.2483 160.734 37.5144 160.549 37.5302 160.496C37.7104 160.505 37.8883 160.541 38.0582 160.602C38.2583 160.652 38.4543 160.717 38.6443 160.797C38.9033 160.886 39.1556 160.994 39.3993 161.119C40.0336 161.43 40.6321 161.809 41.184 162.249C41.8618 162.803 42.4763 163.43 43.0161 164.118C43.5431 164.819 43.9861 165.579 44.3361 166.383C44.6237 167.041 44.8379 167.728 44.975 168.432C45.0292 168.7 45.0662 168.972 45.0859 169.245C45.1106 169.45 45.1212 169.657 45.1176 169.863C45.1272 170.038 45.1165 170.213 45.0859 170.386Z" fill="#263238"/>
    <path d="M81.2486 148.458C81.2925 148.604 81.3225 148.754 81.3384 148.907C81.4096 149.335 81.4554 149.767 81.4757 150.2C81.5388 151.802 81.3152 153.402 80.8157 154.926C80.0717 157.197 78.753 159.238 76.9877 160.85C74.7735 162.785 71.9928 163.952 69.0609 164.176C66.129 164.401 63.203 163.671 60.72 162.096C58.735 160.768 57.1272 158.949 56.0525 156.816C55.3326 155.384 54.8731 153.836 54.6955 152.244C54.6526 151.812 54.6332 151.378 54.6374 150.945C54.6247 150.794 54.6247 150.642 54.6374 150.491C54.6622 150.639 54.6746 150.789 54.6744 150.939C54.6879 151.37 54.7232 151.8 54.78 152.228C54.9963 153.797 55.4783 155.319 56.2056 156.726C57.2829 158.816 58.8769 160.596 60.8361 161.895C63.2742 163.428 66.1397 164.139 69.0116 163.924C71.8835 163.708 74.6106 162.577 76.7923 160.697C78.5384 159.118 79.8508 157.119 80.6045 154.889C81.1105 153.387 81.3603 151.811 81.3437 150.227C81.3437 149.667 81.2961 149.234 81.2539 148.938C81.2117 148.643 81.2433 148.463 81.2486 148.458Z" fill="#263238"/>
    <path d="M45.0542 194.267C45.0542 194.341 40.6665 192.963 35.3126 191.194C29.9587 189.425 25.6344 187.931 25.6608 187.857C25.6872 187.783 30.0432 189.161 35.4024 190.93C40.7616 192.699 45.0753 194.193 45.0542 194.267Z" fill="#FAFAFA"/>
    <path d="M97.152 186.938C97.152 187.018 85.5096 187.128 71.148 187.187C56.7864 187.245 45.1387 187.234 45.1387 187.187C45.1387 187.139 56.7811 186.996 71.148 186.938C85.5149 186.88 97.152 186.864 97.152 186.938Z" fill="#FAFAFA"/>
    <path d="M97.416 191.537C97.416 191.611 85.7103 191.675 71.28 191.675C56.8498 191.675 45.1387 191.611 45.1387 191.537C45.1387 191.463 56.8392 191.4 71.28 191.4C85.7208 191.4 97.416 191.458 97.416 191.537Z" fill="#FAFAFA"/>
    <path d="M90.2457 197.124C90.21 197.27 90.1605 197.414 90.0979 197.551C89.9817 197.847 89.8233 198.248 89.628 198.755L89.2795 199.621C89.1422 199.938 88.9785 200.27 88.8096 200.635C88.4611 201.353 88.102 202.187 87.6004 203.064L86.8401 204.447C86.5761 204.927 86.2593 205.403 85.9531 205.909C85.3512 206.929 84.6119 207.953 83.8411 209.046C82.1266 211.368 80.2379 213.557 78.1915 215.593C76.1159 217.601 73.89 219.447 71.5334 221.116C70.4246 221.855 69.3844 222.578 68.3654 223.159C67.8374 223.455 67.3728 223.761 66.887 224.02L65.472 224.749C64.5902 225.229 63.7454 225.577 63.022 225.91C62.6577 226.069 62.3198 226.227 62.003 226.359L61.1265 226.692L59.9174 227.14C59.7779 227.2 59.6329 227.246 59.4844 227.278C59.6162 227.203 59.754 227.139 59.8963 227.088L61.0896 226.591L61.9502 226.238C62.267 226.1 62.5996 225.937 62.9587 225.768C63.6768 225.424 64.511 225.065 65.3822 224.574L66.7708 223.835C67.2513 223.571 67.7318 223.26 68.2387 222.964C69.2577 222.378 70.2873 221.649 71.4067 220.91C76.1098 217.591 80.2462 213.535 83.6563 208.898C84.4219 207.816 85.1664 206.786 85.7683 205.788C86.0798 205.286 86.4019 204.817 86.6712 204.341L87.4368 202.969C87.9648 202.108 88.3185 201.279 88.6776 200.566C88.8518 200.207 89.026 199.88 89.1686 199.568C89.3112 199.257 89.4273 198.972 89.5382 198.713C89.7547 198.217 89.9289 197.826 90.0662 197.53C90.1191 197.392 90.179 197.256 90.2457 197.124Z" fill="#263238"/>
    <g opacity="0.3">
        <path opacity="0.3" d="M88.1021 201.696C84.5539 206.015 80.8368 209.146 75.6254 211.163C73.128 212.124 70.5144 212.784 68.0962 213.93C65.6779 215.076 63.397 216.802 62.2882 219.247C61.4487 221.137 61.8552 223.999 63.8722 224.411C64.6557 224.507 65.4506 224.384 66.169 224.057C76.4914 220.313 83.2762 210.857 88.0704 201.696" fill="black"/>
    </g>
    <path d="M51.179 107.754C48.9508 109.502 48.803 112.77 48.9139 115.6C49.0248 118.43 49.0564 121.651 46.992 123.605C45.3024 125.215 42.3456 125.812 41.8598 128.098C41.7369 128.637 41.786 129.2 42.0003 129.71C42.2147 130.219 42.5834 130.648 43.0545 130.937C43.5256 131.225 44.0754 131.359 44.6265 131.319C45.1775 131.278 45.702 131.066 46.126 130.712C45.408 132.502 45.7353 134.793 47.2612 135.992C48.7872 137.19 51.4536 136.62 52.0132 134.783C51.9267 135.087 51.9029 135.405 51.9431 135.718C51.9833 136.032 52.0868 136.334 52.2473 136.606C52.4077 136.879 52.6218 137.115 52.8766 137.302C53.1313 137.49 53.4214 137.623 53.7293 137.694C54.0371 137.766 54.3563 137.774 54.6674 137.719C54.9785 137.663 55.2752 137.545 55.5393 137.372C55.8035 137.198 56.0296 136.973 56.204 136.709C56.3785 136.446 56.4975 136.15 56.554 135.839" fill="#263238"/>
    <path d="M83.5137 128.246C83.6199 128.617 83.8013 128.962 84.0464 129.26C84.2916 129.558 84.5954 129.802 84.939 129.977C85.2825 130.153 85.6585 130.256 86.0435 130.28C86.4285 130.304 86.8144 130.249 87.1771 130.117C87.5399 129.986 87.8718 129.782 88.1522 129.517C88.4325 129.252 88.6555 128.932 88.8071 128.577C88.9587 128.222 89.0357 127.84 89.0334 127.454C89.0311 127.069 88.9495 126.687 88.7937 126.335C88.3555 125.236 87.2097 124.407 87.1833 123.23C87.1147 121.804 88.6142 120.859 89.9289 120.305C91.2436 119.75 92.7854 119.011 92.9913 117.601C93.1972 116.192 92.0198 115.109 91.0377 114.143C90.0556 113.177 89.1105 111.709 89.8022 110.516C90.156 109.908 90.8582 109.581 91.3123 109.048C92.3366 107.865 91.9248 105.88 90.742 104.871C89.5593 103.863 87.8644 103.631 86.3174 103.815C84.7704 104 83.292 104.581 81.7766 104.956C79.2638 105.562 76.6525 105.641 74.1077 105.186C71.563 104.732 69.1402 103.755 66.9926 102.316" fill="#263238"/>
    <path d="M52.6944 118.642L58.1275 150.132C58.3526 151.45 58.8364 152.71 59.5509 153.84C60.2653 154.97 61.1964 155.948 62.2905 156.716C63.3845 157.485 64.6198 158.029 65.9253 158.318C67.2307 158.607 68.5804 158.635 69.8966 158.4C72.3905 157.953 74.6267 156.589 76.1649 154.576C77.7031 152.563 78.4318 150.047 78.2073 147.523C77.9592 144.73 77.748 142.417 77.748 142.417C77.748 142.417 85.6363 140.39 84.9552 132.385C84.6225 128.51 83.2973 120.585 82.009 113.425C81.341 109.719 79.3024 106.401 76.2988 104.13C73.2952 101.859 69.5468 100.803 65.7994 101.17L65.0285 101.244C63.0647 101.552 61.1824 102.25 59.4928 103.297C57.8031 104.344 56.3403 105.719 55.1907 107.34C54.0411 108.962 53.2279 110.797 52.7991 112.738C52.3704 114.679 52.3348 116.687 52.6944 118.642Z" fill="#B78876"/>
    <path d="M80.3246 118.594C80.359 118.892 80.2747 119.191 80.0899 119.428C79.9051 119.664 79.6347 119.818 79.3372 119.856C79.1931 119.882 79.0451 119.88 78.9021 119.848C78.7591 119.816 78.624 119.755 78.5048 119.67C78.3856 119.585 78.2848 119.477 78.2083 119.352C78.1318 119.227 78.0812 119.087 78.0595 118.943C78.0251 118.645 78.1094 118.345 78.2942 118.109C78.479 117.873 78.7494 117.719 79.0469 117.681C79.191 117.654 79.339 117.657 79.482 117.689C79.625 117.721 79.7601 117.781 79.8793 117.867C79.9985 117.952 80.0993 118.06 80.1758 118.185C80.2523 118.31 80.3029 118.449 80.3246 118.594Z" fill="#263238"/>
    <path d="M80.6731 117.501C80.5464 117.66 79.6171 117.105 78.3868 117.227C77.1566 117.348 76.3118 118.056 76.164 117.918C76.0953 117.855 76.2115 117.575 76.5758 117.248C77.073 116.826 77.6895 116.569 78.3393 116.514C78.9788 116.45 79.6221 116.591 80.1768 116.915C80.5833 117.168 80.7364 117.427 80.6731 117.501Z" fill="#263238"/>
    <path d="M68.2862 120.004C68.3163 120.301 68.2295 120.599 68.0442 120.833C67.859 121.068 67.5898 121.221 67.2936 121.261C67.1495 121.286 67.0018 121.283 66.859 121.25C66.7163 121.218 66.5815 121.158 66.4624 121.073C66.3434 120.988 66.2426 120.88 66.1659 120.755C66.0892 120.63 66.0381 120.492 66.0158 120.347C65.9842 120.05 66.0696 119.752 66.2539 119.516C66.4381 119.281 66.7069 119.126 67.0032 119.085C67.1479 119.06 67.2963 119.063 67.4397 119.096C67.583 119.128 67.7185 119.189 67.838 119.275C67.9575 119.36 68.0587 119.469 68.1357 119.594C68.2127 119.719 68.2638 119.859 68.2862 120.004Z" fill="#263238"/>
    <path d="M68.5977 118.906C68.471 119.069 67.5417 118.515 66.3115 118.636C65.0813 118.758 64.2417 119.465 64.0886 119.328C64.02 119.265 64.1361 118.985 64.5005 118.657C64.9988 118.237 65.6146 117.981 66.264 117.924C66.9036 117.857 67.5477 117.998 68.1014 118.325C68.508 118.578 68.64 118.837 68.5977 118.906Z" fill="#263238"/>
    <path d="M73.9569 127.602C73.9569 127.528 74.6961 127.322 75.9158 127.042C76.2273 126.979 76.523 126.889 76.5547 126.667C76.5458 126.341 76.4411 126.026 76.2537 125.759L75.0868 123.457C73.4659 120.173 72.262 117.464 72.394 117.401C72.526 117.337 73.9463 119.946 75.562 123.209L76.6867 125.532C76.9207 125.891 77.0198 126.321 76.9665 126.746C76.9348 126.865 76.8758 126.974 76.7942 127.066C76.7126 127.158 76.6107 127.229 76.4966 127.274C76.326 127.337 76.1489 127.379 75.9686 127.401C75.3087 127.549 74.6331 127.617 73.9569 127.602Z" fill="#263238"/>
    <path d="M68.4446 114.048C68.3549 114.396 67.1141 114.354 65.6885 114.671C64.2629 114.988 63.1277 115.495 62.9112 115.199C62.8109 115.067 62.9798 114.729 63.4392 114.36C64.0256 113.896 64.713 113.578 65.4456 113.43C66.1763 113.269 66.9348 113.286 67.6579 113.478C68.1912 113.652 68.4816 113.89 68.4446 114.048Z" fill="#263238"/>
    <path d="M79.8758 113.979C79.6857 114.28 78.8198 114.074 77.7638 114.159C76.7078 114.243 75.9 114.534 75.6518 114.259C75.5515 114.127 75.6518 113.832 76.0109 113.531C76.4839 113.157 77.0614 112.939 77.6635 112.908C78.2634 112.859 78.8635 112.999 79.3795 113.309C79.8072 113.562 79.955 113.837 79.8758 113.979Z" fill="#263238"/>
    <path d="M60.5299 109.011L60.4877 109.053C59.311 110.182 58.615 111.722 58.5446 113.351C58.5446 113.409 58.5446 113.467 58.5446 113.515C58.4549 115.833 58.7347 118.151 58.6238 120.463C58.5129 122.776 57.948 125.173 56.4115 126.91C55.7832 127.623 54.6005 128.188 53.9563 127.486C53.7322 127.19 53.5966 126.836 53.5656 126.467C52.6046 120.996 50.6193 116.25 50.0702 110.479C49.9914 109.707 50.0984 108.928 50.3822 108.206C50.6661 107.484 51.1185 106.84 51.7017 106.329C52.8211 105.341 54.2097 104.301 55.6142 104.808C57.0187 105.315 58.9987 107.654 60.1445 108.615" fill="#263238"/>
    <path d="M55.7462 122C55.6036 121.957 50.086 120.912 50.7936 126.366C51.5011 131.82 56.8339 129.988 56.8233 129.83C56.8128 129.671 55.7462 122 55.7462 122Z" fill="#B78876"/>
    <path d="M54.912 127.982C54.912 127.982 54.8275 128.061 54.6744 128.151C54.5695 128.215 54.4531 128.258 54.3317 128.277C54.2103 128.296 54.0863 128.291 53.9669 128.262C53.3649 128.124 52.7577 127.269 52.6046 126.292C52.5297 125.825 52.5603 125.347 52.6944 124.893C52.7245 124.716 52.7968 124.549 52.9052 124.405C53.0137 124.262 53.1551 124.147 53.3174 124.069C53.4228 124.028 53.5392 124.024 53.647 124.059C53.7547 124.094 53.8472 124.165 53.9088 124.26C54.0038 124.402 53.9827 124.518 54.0144 124.524C54.0461 124.529 54.12 124.418 54.0461 124.196C53.9983 124.064 53.9071 123.953 53.7873 123.879C53.6263 123.791 53.4377 123.766 53.2593 123.811C53.0406 123.885 52.8443 124.013 52.6891 124.184C52.5339 124.355 52.4248 124.563 52.3723 124.788C52.2007 125.297 52.1554 125.841 52.2403 126.372C52.4198 127.464 53.1168 128.42 53.9352 128.547C54.0872 128.572 54.2429 128.561 54.3903 128.516C54.5376 128.471 54.6727 128.393 54.7853 128.288C54.912 128.114 54.912 127.987 54.912 127.982Z" fill="#7C5142"/>
    <path d="M55.5034 105.674C53.9194 103.615 57.3302 100.109 59.9491 98.9947C62.568 97.8806 66.2587 98.8469 69.036 99.4752C70.7837 99.8765 72.5525 100.494 74.316 100.246C75.4984 100.01 76.6391 99.5987 77.7005 99.0264C78.7607 98.4445 79.9285 98.0852 81.1325 97.9704C81.7355 97.9245 82.3395 98.0443 82.8793 98.317C83.4191 98.5897 83.874 99.0048 84.1949 99.5174C84.7546 100.573 84.253 102.157 83.0808 102.448C83.4413 102.2 83.8566 102.043 84.2911 101.991C84.7256 101.939 85.1663 101.993 85.5752 102.149C85.9842 102.304 86.3493 102.557 86.639 102.885C86.9288 103.213 87.1346 103.606 87.2388 104.031C87.343 104.456 87.3425 104.9 87.2372 105.325C87.132 105.75 86.9252 106.143 86.6347 106.47C86.3441 106.797 85.9785 107.049 85.5691 107.204C85.1598 107.358 84.719 107.411 84.2846 107.358C85.008 106.693 86.2963 107.554 86.2963 108.53C86.2963 109.507 85.4779 110.31 84.6225 110.79C82.4366 112.015 79.7438 111.952 77.3045 111.387C74.8651 110.822 72.5525 109.803 70.1237 109.169C67.6949 108.536 63.624 107.395 61.3536 108.456C59.6851 109.233 58.6819 111.434 57.6576 111.096C57.1729 110.895 56.7422 110.583 56.4001 110.185C56.058 109.787 55.8142 109.314 55.6881 108.805C55.4523 107.781 55.3845 106.725 55.4875 105.679" fill="#263238"/>
    <path d="M55.8148 122.934C55.8829 125.834 56.2152 128.722 56.8075 131.562C57.3995 134.411 58.7514 137.048 60.72 139.191C63.36 141.9 66.8237 144.471 70.5725 145.11C74.6644 145.786 79.6699 144.931 83.0016 142.47C84.5856 141.303 85.7313 138.774 85.2403 136.863C85.9109 136.546 86.4848 136.057 86.9026 135.444C87.3203 134.831 87.5667 134.118 87.6163 133.378C87.7008 131.9 86.7979 130.052 85.631 129.856C86.5075 129.708 86.7609 128.315 86.4283 127.528C86.0956 126.741 84.9393 126.504 84.0629 126.672C83.1966 126.899 82.3908 127.314 81.7027 127.887C81.0186 128.461 80.2466 128.921 79.4164 129.249C76.5864 130.168 73.7193 127.665 70.7467 127.787C68.0592 127.892 65.6673 130.126 63.0009 129.751C62.2607 129.61 61.5585 129.314 60.9399 128.884C60.3214 128.454 59.8003 127.898 59.4105 127.253C58.5868 125.991 58.9459 121.329 58.6238 119.861" fill="#263238"/>
    <g opacity="0.6">
        <path opacity="0.6" d="M77.3836 135.506C77.1611 135.454 76.9424 135.387 76.7289 135.305C76.2118 135.157 75.6676 135.13 75.1384 135.227C74.6092 135.323 74.1092 135.539 73.6771 135.86C73.3392 136.103 73.1491 136.298 73.1491 136.272C73.1491 136.245 73.2547 136.013 73.5768 135.744C74.0104 135.362 74.5402 135.106 75.1088 135.003C75.6775 134.901 76.2633 134.956 76.8028 135.163C77.1936 135.295 77.3995 135.48 77.3836 135.506Z" fill="#455A64"/>
    </g>
    <path d="M71.6021 129.439C71.8027 129.408 71.9347 130.743 73.1861 131.551C74.4374 132.359 75.826 132.106 75.8577 132.29C75.8841 132.37 75.5673 132.581 74.9654 132.655C74.1854 132.746 73.3981 132.559 72.7425 132.127C72.1146 131.707 71.6751 131.059 71.5176 130.321C71.3961 129.782 71.5123 129.439 71.6021 129.439Z" fill="white"/>
    <path d="M67.6315 144.218C67.7509 144.245 67.8662 144.288 67.9747 144.345C68.2017 144.429 68.5344 144.545 68.9726 144.667C70.2145 145.002 71.4892 145.202 72.7742 145.263C73.6542 145.315 74.5369 145.298 75.4142 145.211C76.4259 145.12 77.4256 144.925 78.3974 144.63C79.4703 144.309 80.4938 143.842 81.4387 143.241C82.4661 142.621 83.3629 141.807 84.0787 140.844C84.929 139.71 85.3075 138.291 85.1347 136.884V136.773L85.2297 136.731C85.8865 136.426 86.4551 135.959 86.8823 135.374C87.0896 135.098 87.2666 134.801 87.4103 134.487C87.5365 134.182 87.6149 133.86 87.6427 133.531C87.7001 132.936 87.6152 132.336 87.3948 131.781C87.1745 131.225 86.8251 130.73 86.3755 130.337L86.2963 130.273L86.3596 130.194C86.5978 129.892 86.7532 129.533 86.8106 129.153C86.868 128.772 86.8254 128.383 86.687 128.024C86.5784 127.752 86.4144 127.505 86.2054 127.3C85.9963 127.094 85.7467 126.935 85.4726 126.831C85.1226 126.691 84.7439 126.639 84.3691 126.678C84.1103 126.709 83.9836 126.757 83.9783 126.741C84.1002 126.683 84.2302 126.644 84.3638 126.625C84.8653 126.544 85.3797 126.631 85.8267 126.872C86.2736 127.114 86.6281 127.497 86.8348 127.961C86.9912 128.348 87.0442 128.769 86.9886 129.183C86.9331 129.597 86.7709 129.989 86.518 130.321V130.178C87.0004 130.59 87.3775 131.111 87.6181 131.698C87.8587 132.285 87.9558 132.92 87.9014 133.552C87.8744 133.915 87.7906 134.271 87.6532 134.608C87.5001 134.939 87.3144 135.254 87.0988 135.548C86.6493 136.175 86.0455 136.675 85.3459 137L85.4251 136.842C85.637 138.32 85.2576 139.823 84.3691 141.024C83.6321 142.015 82.7084 142.853 81.6499 143.489C80.6859 144.103 79.6385 144.574 78.5399 144.888C77.551 145.186 76.5333 145.377 75.5039 145.459C74.6095 145.53 73.7109 145.53 72.8164 145.459C71.5213 145.378 70.2402 145.146 68.999 144.767C68.6625 144.662 68.3328 144.537 68.0116 144.392C67.879 144.348 67.7516 144.289 67.6315 144.218Z" fill="#455A64"/>
    <path d="M43.6973 130.284C43.5962 130.256 43.5012 130.21 43.4174 130.147C43.1795 129.969 42.9965 129.727 42.8894 129.45C42.711 129.004 42.6723 128.514 42.7785 128.045C42.9451 127.425 43.3174 126.879 43.8345 126.498C44.442 126.04 45.1196 125.684 45.8409 125.442C46.6493 125.188 47.431 124.856 48.1747 124.45C48.9573 123.954 49.5706 123.232 49.9329 122.38C50.3304 121.463 50.5422 120.476 50.556 119.476C50.5982 117.411 50.123 115.452 50.0702 113.631C50.0174 111.809 50.3342 110.109 51.1632 108.969C51.784 108.054 52.7267 107.408 53.8032 107.158C54.0951 107.099 54.3941 107.085 54.6902 107.115C54.7936 107.127 54.8959 107.147 54.9964 107.173C54.6053 107.155 54.2133 107.185 53.8296 107.263C52.792 107.537 51.8916 108.184 51.3005 109.08C50.5296 110.188 50.2075 111.836 50.3025 113.62C50.3976 115.405 50.8305 117.364 50.8305 119.486C50.8085 120.524 50.5806 121.547 50.16 122.496C49.7718 123.395 49.1177 124.155 48.2856 124.671C47.5215 125.085 46.7163 125.418 45.8832 125.664C45.1823 125.886 44.5212 126.217 43.9243 126.646C43.434 126.993 43.075 127.495 42.9053 128.072C42.7902 128.511 42.8104 128.975 42.9633 129.402C43.1025 129.77 43.3609 130.08 43.6973 130.284Z" fill="#455A64"/>
    <path d="M83.2814 102.358C83.3563 102.313 83.436 102.275 83.519 102.247C83.6193 102.202 83.7236 102.167 83.8305 102.142C83.9738 102.099 84.1204 102.069 84.2687 102.052C84.7615 101.998 85.26 102.057 85.7265 102.225C86.193 102.392 86.6153 102.663 86.9615 103.018C87.3078 103.482 87.5584 104.011 87.6989 104.573C87.8394 105.135 87.8669 105.719 87.7799 106.292C87.6763 107.002 87.4314 107.684 87.0595 108.298C86.6877 108.912 86.1966 109.445 85.6151 109.866C84.2764 110.841 82.6765 111.393 81.0215 111.45C79.2274 111.521 77.4326 111.329 75.694 110.88C72.9323 110.202 70.3119 109.042 67.9535 107.453C66.9454 106.76 65.8864 106.144 64.7855 105.611C63.8213 105.164 62.7832 104.899 61.7231 104.829C60.1789 104.722 58.6329 105.009 57.2299 105.663C56.2425 106.128 55.7726 106.529 55.7515 106.498C56.1851 106.124 56.6662 105.81 57.1823 105.563C58.5936 104.865 60.1618 104.545 61.7337 104.634C62.8281 104.69 63.9025 104.949 64.9017 105.399C66.0184 105.932 67.0933 106.548 68.1172 107.242C70.4589 108.799 73.0528 109.939 75.7838 110.611C77.4955 111.06 79.2633 111.259 81.0321 111.202C82.6367 111.146 84.1888 110.617 85.4937 109.681C86.0538 109.281 86.5289 108.773 86.8914 108.188C87.254 107.602 87.4967 106.951 87.6057 106.271C87.6987 105.72 87.6818 105.157 87.5558 104.613C87.4299 104.069 87.1974 103.556 86.8718 103.103C86.5442 102.759 86.1448 102.493 85.702 102.322C85.2593 102.151 84.7842 102.081 84.311 102.115C83.962 102.17 83.6178 102.251 83.2814 102.358Z" fill="#455A64"/>
    <path d="M80.483 97.7064C80.4825 98.1221 80.3981 98.5333 80.2348 98.9155C79.777 99.9661 78.9817 100.834 77.975 101.381C77.2953 101.777 76.5492 102.045 75.7732 102.173C74.8839 102.303 73.9804 102.303 73.091 102.173C71.206 101.936 69.2577 101.197 67.2091 100.558C65.1604 99.9187 63.096 99.5386 61.2796 99.9293C59.6702 100.281 58.2125 101.131 57.1137 102.358C56.3652 103.177 55.7921 104.14 55.4294 105.188C55.1865 105.938 55.139 106.376 55.1073 106.371C55.0944 106.266 55.0944 106.159 55.1073 106.054C55.1496 105.75 55.2149 105.45 55.3027 105.157C55.6307 104.072 56.191 103.072 56.9448 102.226C58.0543 100.944 59.546 100.052 61.2004 99.6811C63.0801 99.264 65.2027 99.6495 67.2619 100.294C69.3211 100.938 71.2536 101.677 73.0963 101.92C73.9629 102.046 74.8433 102.046 75.7099 101.92C76.4627 101.806 77.1889 101.557 77.8536 101.186C78.8376 100.67 79.6285 99.8493 80.1081 98.8469C80.2633 98.4773 80.3886 98.096 80.483 97.7064Z" fill="#455A64"/>
    <path d="M120.447 64.2893C120.4 64.3474 117.432 61.9344 113.816 58.8984C110.199 55.8624 107.311 53.328 107.364 53.2911C107.416 53.2541 110.378 55.646 113.995 58.6872C117.612 61.7285 120.5 64.2312 120.447 64.2893Z" fill="#263238"/>
    <path d="M135.506 60.6725C135.432 60.6725 135.131 55.9839 134.841 50.1917C134.55 44.3996 134.371 39.7004 134.445 39.6951C134.519 39.6898 134.82 44.3837 135.115 50.1812C135.411 55.9786 135.58 60.6725 135.506 60.6725Z" fill="#263238"/>
    <path d="M125.917 57.3197C125.843 57.3197 124.919 54.6797 123.848 51.3374C122.776 47.9952 121.968 45.2971 122.042 45.276C122.116 45.2549 123.04 47.916 124.112 51.253C125.183 54.5899 125.986 57.2986 125.917 57.3197Z" fill="#263238"/>
    <path d="M117.369 69.242C115.979 68.7528 114.619 68.1798 113.298 67.526C111.938 66.9527 110.616 66.2949 109.338 65.5565C110.729 66.0456 112.088 66.6187 113.409 67.2725C114.768 67.847 116.091 68.5047 117.369 69.242Z" fill="#263238"/>
    <path d="M103.488 63.1752C103.488 63.2491 103.039 63.2597 102.506 63.1752C101.973 63.0907 101.55 62.9957 101.561 62.9218C101.571 62.8479 102.01 62.8373 102.538 62.9218C103.066 63.0063 103.488 63.1013 103.488 63.1752Z" fill="#263238"/>
    <path d="M122.385 41.8651C122.306 41.8651 122.248 41.4375 122.248 40.9042C122.248 40.3709 122.306 39.9379 122.385 39.9379C122.464 39.9379 122.522 40.3709 122.522 40.9042C122.522 41.4375 122.459 41.8651 122.385 41.8651Z" fill="#263238"/>
    <path d="M154.176 49.3205C154.234 49.3733 151.795 52.1664 148.738 55.5615C145.681 58.9565 143.157 61.6704 143.088 61.6176C143.019 61.5648 145.469 58.777 148.526 55.3767C151.584 51.9763 154.123 49.273 154.176 49.3205Z" fill="#263238"/>
    <path d="M158.057 45.4819C158.11 45.5347 157.83 45.9043 157.428 46.3056C157.027 46.7069 156.663 46.9815 156.61 46.9287C156.557 46.8759 156.837 46.5063 157.238 46.1103C157.64 45.7143 158.004 45.408 158.057 45.4819Z" fill="#263238"/>
    <path d="M167.466 58.9988C167.239 59.1619 166.999 59.305 166.748 59.4265C166.278 59.6852 165.591 60.0495 164.736 60.4825C163.02 61.3484 160.618 62.4783 157.914 63.6029C155.211 64.7276 152.713 65.6252 150.887 66.2429C149.978 66.5439 149.239 66.7709 148.722 66.9241C148.46 67.0192 148.189 67.0882 147.914 67.13C148.164 67.0064 148.423 66.904 148.69 66.8237L150.802 66.0581C152.608 65.4087 155.084 64.4741 157.787 63.3653C160.491 62.2565 162.893 61.1425 164.651 60.3241L166.7 59.3525C166.946 59.2159 167.202 59.0976 167.466 58.9988Z" fill="#263238"/>
    <path d="M159.746 71.9981C159.295 72.199 158.825 72.353 158.342 72.4575C157.465 72.7003 156.23 72.9855 154.868 73.2231C153.505 73.4607 152.228 73.5927 151.335 73.656C150.847 73.7182 150.353 73.7271 149.862 73.6824C150.342 73.5719 150.829 73.4978 151.32 73.4607C152.217 73.3498 153.458 73.1808 154.82 72.9327C156.182 72.6845 157.413 72.4469 158.3 72.2568C158.773 72.1262 159.257 72.0396 159.746 71.9981Z" fill="#263238"/>
    <path d="M166.764 70.6992C165.758 70.8822 164.728 70.8822 163.722 70.6992C164.728 70.5161 165.758 70.5161 166.764 70.6992Z" fill="#263238"/>
    <path d="M127.079 201.696C127.822 201.822 128.532 202.097 129.167 202.503C129.802 202.91 130.349 203.44 130.775 204.061C131.616 205.318 132.158 206.75 132.359 208.249C132.84 211.121 132.063 214.384 130.997 217.098C128.066 215.72 126.504 212.309 125.822 210.524C124.766 207.71 124.497 201.96 127.053 201.696" fill="#FF6600"/>
    <path d="M135.342 221.158C134.901 220.438 134.658 219.615 134.639 218.771C134.619 217.927 134.824 217.093 135.231 216.353C135.649 215.621 136.209 214.979 136.878 214.466C137.548 213.953 138.312 213.579 139.128 213.365C139.493 213.226 139.883 213.168 140.273 213.195C140.662 213.222 141.041 213.334 141.383 213.523C141.667 213.751 141.886 214.051 142.015 214.392C142.145 214.732 142.182 215.101 142.122 215.461C141.991 216.18 141.674 216.851 141.203 217.409C139.672 219.384 137.834 221.01 135.342 221.158Z" fill="#FF6600"/>
    <path d="M134.603 230.261C134.542 230.066 134.508 229.863 134.503 229.659C134.466 229.268 134.413 228.698 134.376 227.996C134.243 226.159 134.354 224.312 134.709 222.504C135.088 220.679 135.95 218.988 137.206 217.61C137.593 217.205 138.03 216.851 138.505 216.554C138.664 216.432 138.842 216.34 139.033 216.279C138.433 216.73 137.871 217.23 137.354 217.774C136.183 219.154 135.377 220.806 135.01 222.578C134.66 224.362 134.518 226.18 134.587 227.996C134.638 228.75 134.643 229.506 134.603 230.261Z" fill="#263238"/>
    <path d="M127.776 206.073C127.924 206.376 128.048 206.69 128.146 207.013C128.362 207.625 128.674 208.512 129.022 209.616C129.745 211.823 130.691 214.896 131.662 218.302C132.634 221.707 133.415 224.822 133.954 227.082C134.223 228.212 134.429 229.126 134.561 229.764C134.649 230.09 134.709 230.422 134.74 230.757C134.611 230.446 134.511 230.125 134.439 229.796C134.255 229.11 134.017 228.212 133.732 227.156C133.135 224.912 132.306 221.813 131.345 218.407C130.384 215.002 129.476 211.923 128.811 209.7L128.035 207.06C127.921 206.739 127.835 206.409 127.776 206.073Z" fill="#263238"/>
    <path d="M131.44 223.872C130.703 222.257 129.593 220.841 128.202 219.739C126.81 218.638 125.177 217.883 123.436 217.536C122.549 217.367 121.456 217.388 120.96 218.149C120.463 218.909 120.891 219.923 121.424 220.651C122.562 222.162 124.123 223.302 125.908 223.926C127.694 224.55 129.625 224.631 131.456 224.157" fill="#FF6600"/>
    <path d="M124.407 220.065C124.605 220.058 124.802 220.079 124.993 220.128C125.22 220.16 125.444 220.207 125.664 220.271C125.961 220.341 126.253 220.427 126.54 220.53C127.291 220.793 128.012 221.13 128.695 221.538C130.379 222.535 131.805 223.915 132.855 225.567C133.277 226.234 133.631 226.941 133.911 227.679C134.025 227.961 134.122 228.251 134.202 228.545C134.275 228.764 134.331 228.988 134.371 229.215C134.426 229.404 134.451 229.6 134.445 229.796C134.387 229.796 134.223 228.988 133.7 227.769C133.39 227.056 133.017 226.372 132.586 225.725C132.053 224.938 131.443 224.206 130.764 223.539C130.077 222.883 129.327 222.296 128.526 221.786C127.864 221.375 127.168 221.021 126.445 220.73C125.22 220.266 124.397 220.128 124.407 220.065Z" fill="#263238"/>
</svg>
