<?xml version="1.0" encoding="utf-8"?>
<!-- Generator: Adobe Illustrator 27.5.0, SVG Export Plug-In . SVG Version: 6.00 Build 0)  -->
<svg version="1.1" xmlns="http://www.w3.org/2000/svg" xmlns:xlink="http://www.w3.org/1999/xlink" x="0px" y="0px"
	 viewBox="0 0 500 500" style="enable-background:new 0 0 500 500;" xml:space="preserve">
<g id="Floor">
	<ellipse id="Floor_15_" style="fill:#F5F5F5;" cx="250" cy="347.421" rx="242" ry="139.779"/>
</g>
<g id="Shadows">
	<path id="Shadow_1_" style="fill:#E0E0E0;" d="M91.422,380.483l-69.643-40.208c-2.431-1.403-2.431-3.679,0-5.082L147.652,262.5
		c2.431-1.403,6.372-1.403,8.802,0l69.642,40.209c2.431,1.403,2.431,3.679,0,5.082l-125.872,72.692
		C97.794,381.887,93.853,381.887,91.422,380.483z"/>
	<ellipse id="Shadow" style="fill:#E0E0E0;" cx="403.36" cy="382.659" rx="60.772" ry="35.087"/>
	<ellipse id="Shadow_2_" style="fill:#E0E0E0;" cx="167.395" cy="422.486" rx="60.772" ry="35.087"/>
</g>
<g id="Gears">
	<g id="Gears_1_">
		<g id="XMLID_653_">
			<path id="XMLID_706_" style="fill:#27DEBF;" d="M136.144,30.67l0.001,0.009c-0.27-0.14-0.621-0.108-0.967,0.148l-1.921,1.457
				l-0.365,1.233c-0.221,0.74,0.129,1.674,0.694,2.195c0.347,0.321,0.677,0.671,0.991,1.059c0.485,0.591,1.296,0.76,1.907,0.292
				l4.48-3.392c0.337-0.245,0.678-0.296,0.947-0.165L136.144,30.67z M130.071,48.346c-0.908-3.752-3.45-5.49-6.571-5.023
				c0.319,0.611,0.59,1.337,0.795,2.179c1.435,5.948-1.814,14.735-7.246,19.622c-2.001,1.797-4.016,2.813-5.83,3.082
				c2.146,3.911,6.929,3.976,11.615-0.239C128.266,63.081,131.506,54.294,130.071,48.346z M128.471,22.624l0.001,0.009
				c-0.115-0.058-0.239-0.105-0.38-0.124l-3.579-0.563c-0.761-0.117-1.631,0.359-1.938,1.058l-2.904,6.552
				c-0.137,0.316-0.387,0.611-0.685,0.891l-0.009,0.001c-0.166,0.16-0.343,0.302-0.54,0.417l1.265,3.384
				c0.271,0.717,1.032,0.982,1.716,0.649c0.721-0.345,1.436-0.634,2.128-0.857c0.409-0.139,0.847-0.409,1.215-0.74
				c0.298-0.271,0.556-0.585,0.693-0.901l2.895-6.551c0.316-0.7,1.187-1.176,1.938-1.058l3.589,0.562
				c0.132,0.019,0.255,0.057,0.36,0.106L128.471,22.624z M122.582,84.534c-0.156-0.11-0.288-0.278-0.369-0.515l-1.456-3.883
				c-0.261-0.717-1.023-0.992-1.716-0.649c-0.712,0.345-1.427,0.634-2.128,0.857c-0.218,0.07-0.443,0.187-0.666,0.332l0.191,0.499
				c0.112,0.29,0.283,0.483,0.494,0.581l0.001,0.009L122.582,84.534z M111.975,26.932c-0.125-0.057-0.257-0.085-0.396-0.076
				c-0.213,0.014-0.43,0.103-0.631,0.293l-5.02,4.507c-0.071,0.06-0.131,0.13-0.191,0.208c-0.052,0.05-0.086,0.108-0.129,0.167
				c-0.169,0.253-0.307,0.55-0.408,0.864c-0.014,0.066-0.037,0.142-0.051,0.208l0.009-0.001c-0.073,0.302-0.118,0.603-0.082,0.861
				l0.648,5.015c0.097,0.765-0.211,1.873-0.663,2.489c-0.802,1.094-1.544,2.241-2.238,3.411c-0.234,0.397-0.648,0.75-1.107,0.975
				c-0.153,0.075-0.298,0.131-0.454,0.169c-0.073,0.023-0.146,0.047-0.22,0.052c-0.101,0.025-0.202,0.041-0.304,0.039l-3.408,0.058
				l-0.083,0.006c-0.092,0.006-0.185,0.021-0.276,0.046c-0.083,0.015-0.165,0.039-0.246,0.072c-0.009,0.001-0.018,0.001-0.027,0.011
				c-0.091,0.034-0.181,0.077-0.27,0.13c-0.17,0.095-0.33,0.208-0.471,0.338c-0.219,0.21-0.397,0.463-0.5,0.73l-2.72,7.376
				c-0.245,0.658,0.044,1.364,0.651,1.686l3.921,1.925c0.141,0.307,0.201,0.647,0.148,0.976c-0.183,1.165-0.311,2.326-0.367,3.455
				c-0.033,0.765-0.454,1.843-0.985,2.399l-0.053,0.05l-4.356,4.565c-0.078,0.08-0.147,0.168-0.206,0.265
				c-0.008,0.019-0.017,0.029-0.025,0.048c-0.068,0.097-0.126,0.204-0.165,0.318c-0.262,0.538-0.366,1.214-0.238,1.736l1.227,5.051
				c0.077,0.32,0.24,0.542,0.453,0.667l5.756,2.827c-0.203-0.117-0.357-0.339-0.434-0.65l-1.217-5.051
				c-0.075-0.292-0.071-0.646-0.009-0.985c0.095-0.527,0.321-1.044,0.643-1.381l4.347-4.564l0.052-0.05
				c0.53-0.556,0.952-1.634,0.994-2.399c0.056-1.129,0.174-2.289,0.366-3.455c0.117-0.761-0.346-1.576-1.07-1.835l-2.826-0.985
				c-0.724-0.259-1.102-1.052-0.833-1.767l2.72-7.376c0.103-0.267,0.272-0.52,0.5-0.73c0.377-0.35,0.89-0.598,1.373-0.602
				l3.418-0.059c0.316-0.002,0.654-0.099,0.968-0.259c0.459-0.226,0.873-0.578,1.107-0.975c0.694-1.171,1.446-2.318,2.238-3.411
				c0.461-0.616,0.76-1.724,0.663-2.489l-0.647-5.006c-0.036-0.267-0.01-0.576,0.072-0.879c0.131-0.557,0.42-1.106,0.788-1.437
				l5.011-4.506c0.342-0.311,0.728-0.374,1.036-0.217L111.975,26.932z M107.576,80.869c0.211-0.739-0.139-1.674-0.703-2.194
				c-0.347-0.321-0.677-0.671-0.981-1.06c-0.486-0.6-1.296-0.76-1.907-0.301l-2.559,1.936l-1.596,5.386
				c-0.175,0.588,0.076,1.148,0.567,1.404l-0.009,0.01l5.795,2.852c-0.501-0.264-0.743-0.825-0.568-1.413L107.576,80.869z"/>
			<path id="XMLID_731_" style="opacity:0.7;fill:#FFFFFF;" d="M136.144,30.67l0.001,0.009c-0.27-0.14-0.621-0.108-0.967,0.148
				l-1.921,1.457l-0.365,1.233c-0.221,0.74,0.129,1.674,0.694,2.195c0.347,0.321,0.677,0.671,0.991,1.059
				c0.485,0.591,1.296,0.76,1.907,0.292l4.48-3.392c0.337-0.245,0.678-0.296,0.947-0.165L136.144,30.67z M130.071,48.346
				c-0.908-3.752-3.45-5.49-6.571-5.023c0.319,0.611,0.59,1.337,0.795,2.179c1.435,5.948-1.814,14.735-7.246,19.622
				c-2.001,1.797-4.016,2.813-5.83,3.082c2.146,3.911,6.929,3.976,11.615-0.239C128.266,63.081,131.506,54.294,130.071,48.346z
				 M128.471,22.624l0.001,0.009c-0.115-0.058-0.239-0.105-0.38-0.124l-3.579-0.563c-0.761-0.117-1.631,0.359-1.938,1.058
				l-2.904,6.552c-0.137,0.316-0.387,0.611-0.685,0.891l-0.009,0.001c-0.166,0.16-0.343,0.302-0.54,0.417l1.265,3.384
				c0.271,0.717,1.032,0.982,1.716,0.649c0.721-0.345,1.436-0.634,2.128-0.857c0.409-0.139,0.847-0.409,1.215-0.74
				c0.298-0.271,0.556-0.585,0.693-0.901l2.895-6.551c0.316-0.7,1.187-1.176,1.938-1.058l3.589,0.562
				c0.132,0.019,0.255,0.057,0.36,0.106L128.471,22.624z M122.582,84.534c-0.156-0.11-0.288-0.278-0.369-0.515l-1.456-3.883
				c-0.261-0.717-1.023-0.992-1.716-0.649c-0.712,0.345-1.427,0.634-2.128,0.857c-0.218,0.07-0.443,0.187-0.666,0.332l0.191,0.499
				c0.112,0.29,0.283,0.483,0.494,0.581l0.001,0.009L122.582,84.534z M111.975,26.932c-0.125-0.057-0.257-0.085-0.396-0.076
				c-0.213,0.014-0.43,0.103-0.631,0.293l-5.02,4.507c-0.071,0.06-0.131,0.13-0.191,0.208c-0.052,0.05-0.086,0.108-0.129,0.167
				c-0.169,0.253-0.307,0.55-0.408,0.864c-0.014,0.066-0.037,0.142-0.051,0.208l0.009-0.001c-0.073,0.302-0.118,0.603-0.082,0.861
				l0.648,5.015c0.097,0.765-0.211,1.873-0.663,2.489c-0.802,1.094-1.544,2.241-2.238,3.411c-0.234,0.397-0.648,0.75-1.107,0.975
				c-0.153,0.075-0.298,0.131-0.454,0.169c-0.073,0.023-0.146,0.047-0.22,0.052c-0.101,0.025-0.202,0.041-0.304,0.039l-3.408,0.058
				l-0.083,0.006c-0.092,0.006-0.185,0.021-0.276,0.046c-0.083,0.015-0.165,0.039-0.246,0.072c-0.009,0.001-0.018,0.001-0.027,0.011
				c-0.091,0.034-0.181,0.077-0.27,0.13c-0.17,0.095-0.33,0.208-0.471,0.338c-0.219,0.21-0.397,0.463-0.5,0.73l-2.72,7.376
				c-0.245,0.658,0.044,1.364,0.651,1.686l3.921,1.925c0.141,0.307,0.201,0.647,0.148,0.976c-0.183,1.165-0.311,2.326-0.367,3.455
				c-0.033,0.765-0.454,1.843-0.985,2.399l-0.053,0.05l-4.356,4.565c-0.078,0.08-0.147,0.168-0.206,0.265
				c-0.008,0.019-0.017,0.029-0.025,0.048c-0.068,0.097-0.126,0.204-0.165,0.318c-0.262,0.538-0.366,1.214-0.238,1.736l1.227,5.051
				c0.077,0.32,0.24,0.542,0.453,0.667l5.756,2.827c-0.203-0.117-0.357-0.339-0.434-0.65l-1.217-5.051
				c-0.075-0.292-0.071-0.646-0.009-0.985c0.095-0.527,0.321-1.044,0.643-1.381l4.347-4.564l0.052-0.05
				c0.53-0.556,0.952-1.634,0.994-2.399c0.056-1.129,0.174-2.289,0.366-3.455c0.117-0.761-0.346-1.576-1.07-1.835l-2.826-0.985
				c-0.724-0.259-1.102-1.052-0.833-1.767l2.72-7.376c0.103-0.267,0.272-0.52,0.5-0.73c0.377-0.35,0.89-0.598,1.373-0.602
				l3.418-0.059c0.316-0.002,0.654-0.099,0.968-0.259c0.459-0.226,0.873-0.578,1.107-0.975c0.694-1.171,1.446-2.318,2.238-3.411
				c0.461-0.616,0.76-1.724,0.663-2.489l-0.647-5.006c-0.036-0.267-0.01-0.576,0.072-0.879c0.131-0.557,0.42-1.106,0.788-1.437
				l5.011-4.506c0.342-0.311,0.728-0.374,1.036-0.217L111.975,26.932z M107.576,80.869c0.211-0.739-0.139-1.674-0.703-2.194
				c-0.347-0.321-0.677-0.671-0.981-1.06c-0.486-0.6-1.296-0.76-1.907-0.301l-2.559,1.936l-1.596,5.386
				c-0.175,0.588,0.076,1.148,0.567,1.404l-0.009,0.01l5.795,2.852c-0.501-0.264-0.743-0.825-0.568-1.413L107.576,80.869z"/>
			<path id="XMLID_732_" style="opacity:0.05;" d="M136.144,30.67l0.001,0.009c-0.27-0.14-0.621-0.108-0.967,0.148l-1.921,1.457
				l-0.365,1.233c-0.221,0.74,0.129,1.674,0.694,2.195c0.347,0.321,0.677,0.671,0.991,1.059c0.485,0.591,1.296,0.76,1.907,0.292
				l4.48-3.392c0.337-0.245,0.678-0.296,0.947-0.165L136.144,30.67z M130.071,48.346c-0.908-3.752-3.45-5.49-6.571-5.023
				c0.319,0.611,0.59,1.337,0.795,2.179c1.435,5.948-1.814,14.735-7.246,19.622c-2.001,1.797-4.016,2.813-5.83,3.082
				c2.146,3.911,6.929,3.976,11.615-0.239C128.266,63.081,131.506,54.294,130.071,48.346z M128.471,22.624l0.001,0.009
				c-0.115-0.058-0.239-0.105-0.38-0.124l-3.579-0.563c-0.761-0.117-1.631,0.359-1.938,1.058l-2.904,6.552
				c-0.137,0.316-0.387,0.611-0.685,0.891l-0.009,0.001c-0.166,0.16-0.343,0.302-0.54,0.417l1.265,3.384
				c0.271,0.717,1.032,0.982,1.716,0.649c0.721-0.345,1.436-0.634,2.128-0.857c0.409-0.139,0.847-0.409,1.215-0.74
				c0.298-0.271,0.556-0.585,0.693-0.901l2.895-6.551c0.316-0.7,1.187-1.176,1.938-1.058l3.589,0.562
				c0.132,0.019,0.255,0.057,0.36,0.106L128.471,22.624z M122.582,84.534c-0.156-0.11-0.288-0.278-0.369-0.515l-1.456-3.883
				c-0.261-0.717-1.023-0.992-1.716-0.649c-0.712,0.345-1.427,0.634-2.128,0.857c-0.218,0.07-0.443,0.187-0.666,0.332l0.191,0.499
				c0.112,0.29,0.283,0.483,0.494,0.581l0.001,0.009L122.582,84.534z M111.975,26.932c-0.125-0.057-0.257-0.085-0.396-0.076
				c-0.213,0.014-0.43,0.103-0.631,0.293l-5.02,4.507c-0.071,0.06-0.131,0.13-0.191,0.208c-0.052,0.05-0.086,0.108-0.129,0.167
				c-0.169,0.253-0.307,0.55-0.408,0.864c-0.014,0.066-0.037,0.142-0.051,0.208l0.009-0.001c-0.073,0.302-0.118,0.603-0.082,0.861
				l0.648,5.015c0.097,0.765-0.211,1.873-0.663,2.489c-0.802,1.094-1.544,2.241-2.238,3.411c-0.234,0.397-0.648,0.75-1.107,0.975
				c-0.153,0.075-0.298,0.131-0.454,0.169c-0.073,0.023-0.146,0.047-0.22,0.052c-0.101,0.025-0.202,0.041-0.304,0.039l-3.408,0.058
				l-0.083,0.006c-0.092,0.006-0.185,0.021-0.276,0.046c-0.083,0.015-0.165,0.039-0.246,0.072c-0.009,0.001-0.018,0.001-0.027,0.011
				c-0.091,0.034-0.181,0.077-0.27,0.13c-0.17,0.095-0.33,0.208-0.471,0.338c-0.219,0.21-0.397,0.463-0.5,0.73l-2.72,7.376
				c-0.245,0.658,0.044,1.364,0.651,1.686l3.921,1.925c0.141,0.307,0.201,0.647,0.148,0.976c-0.183,1.165-0.311,2.326-0.367,3.455
				c-0.033,0.765-0.454,1.843-0.985,2.399l-0.053,0.05l-4.356,4.565c-0.078,0.08-0.147,0.168-0.206,0.265
				c-0.008,0.019-0.017,0.029-0.025,0.048c-0.068,0.097-0.126,0.204-0.165,0.318c-0.262,0.538-0.366,1.214-0.238,1.736l1.227,5.051
				c0.077,0.32,0.24,0.542,0.453,0.667l5.756,2.827c-0.203-0.117-0.357-0.339-0.434-0.65l-1.217-5.051
				c-0.075-0.292-0.071-0.646-0.009-0.985c0.095-0.527,0.321-1.044,0.643-1.381l4.347-4.564l0.052-0.05
				c0.53-0.556,0.952-1.634,0.994-2.399c0.056-1.129,0.174-2.289,0.366-3.455c0.117-0.761-0.346-1.576-1.07-1.835l-2.826-0.985
				c-0.724-0.259-1.102-1.052-0.833-1.767l2.72-7.376c0.103-0.267,0.272-0.52,0.5-0.73c0.377-0.35,0.89-0.598,1.373-0.602
				l3.418-0.059c0.316-0.002,0.654-0.099,0.968-0.259c0.459-0.226,0.873-0.578,1.107-0.975c0.694-1.171,1.446-2.318,2.238-3.411
				c0.461-0.616,0.76-1.724,0.663-2.489l-0.647-5.006c-0.036-0.267-0.01-0.576,0.072-0.879c0.131-0.557,0.42-1.106,0.788-1.437
				l5.011-4.506c0.342-0.311,0.728-0.374,1.036-0.217L111.975,26.932z M107.576,80.869c0.211-0.739-0.139-1.674-0.703-2.194
				c-0.347-0.321-0.677-0.671-0.981-1.06c-0.486-0.6-1.296-0.76-1.907-0.301l-2.559,1.936l-1.596,5.386
				c-0.175,0.588,0.076,1.148,0.567,1.404l-0.009,0.01l5.795,2.852c-0.501-0.264-0.743-0.825-0.568-1.413L107.576,80.869z"/>
			<path style="fill:#27DEBF;" d="M101.829,68.214l-4.347,4.564c-0.322,0.337-0.548,0.854-0.643,1.381l-5.766-2.835
				c0.048-0.263,0.124-0.52,0.229-0.759c0.039-0.114,0.097-0.22,0.165-0.318c0.008-0.019,0.017-0.029,0.025-0.048
				c0.059-0.097,0.127-0.185,0.206-0.265l4.356-4.565L101.829,68.214z"/>
			<path style="fill:#27DEBF;" d="M107.492,48.696c-0.315,0.16-0.652,0.257-0.968,0.259l-3.418,0.059
				c-0.483,0.004-0.997,0.252-1.373,0.602l-5.776-2.844c0.14-0.13,0.3-0.243,0.471-0.338c0.089-0.052,0.179-0.096,0.27-0.13
				c0.009-0.01,0.018-0.01,0.027-0.011c0.082-0.033,0.164-0.057,0.246-0.072c0.091-0.025,0.183-0.04,0.276-0.046l0.083-0.006
				l3.408-0.058c0.102,0.002,0.204-0.014,0.304-0.039c0.074-0.014,0.147-0.028,0.22-0.052c0.146-0.047,0.29-0.112,0.435-0.178
				l0.019,0.008L107.492,48.696z"/>
			<path id="XMLID_704_" style="fill:#27DEBF;" d="M141.909,33.5c-0.269-0.131-0.61-0.081-0.946,0.174l-4.48,3.392
				c-0.611,0.459-1.421,0.299-1.907-0.301c-0.314-0.388-0.635-0.739-0.99-1.06c-0.564-0.52-0.915-1.455-0.694-2.195l0.365-1.223
				l1.921-1.457c0.346-0.255,0.696-0.297,0.966-0.157l-0.001-0.009L141.909,33.5z"/>
			<path style="fill:#27DEBF;" d="M134.237,25.459c-0.106-0.049-0.229-0.087-0.36-0.106l-3.589-0.562
				c-0.752-0.118-1.622,0.358-1.938,1.058l-2.895,6.551c-0.137,0.316-0.395,0.631-0.693,0.901l-5.776-2.853
				c0.298-0.28,0.548-0.575,0.685-0.891l2.904-6.552c0.307-0.699,1.177-1.175,1.938-1.058l3.579,0.563
				c0.141,0.019,0.265,0.066,0.38,0.124l-0.001-0.009L134.237,25.459z"/>
			<path style="fill:#27DEBF;" d="M117.76,29.776c-0.308-0.156-0.694-0.094-1.036,0.217l-5.011,4.506
				c-0.369,0.331-0.658,0.88-0.788,1.437l-5.775-2.835c0.014-0.066,0.037-0.142,0.051-0.208c0.1-0.313,0.239-0.611,0.408-0.864
				c0.043-0.059,0.076-0.117,0.129-0.167c0.06-0.078,0.12-0.147,0.191-0.208l5.02-4.507c0.201-0.19,0.419-0.279,0.631-0.293
				c0.139-0.009,0.271,0.019,0.396,0.076L117.76,29.776z"/>
			<path style="opacity:0.9;fill:#FFFFFF;" d="M101.829,68.214l-4.347,4.564c-0.322,0.337-0.548,0.854-0.643,1.381l-5.766-2.835
				c0.048-0.263,0.124-0.52,0.229-0.759c0.039-0.114,0.097-0.22,0.165-0.318c0.008-0.019,0.017-0.029,0.025-0.048
				c0.059-0.097,0.127-0.185,0.206-0.265l4.356-4.565L101.829,68.214z"/>
			<path style="opacity:0.9;fill:#FFFFFF;" d="M107.492,48.696c-0.315,0.16-0.652,0.257-0.968,0.259l-3.418,0.059
				c-0.483,0.004-0.997,0.252-1.373,0.602l-5.776-2.844c0.14-0.13,0.3-0.243,0.471-0.338c0.089-0.052,0.179-0.096,0.27-0.13
				c0.009-0.01,0.018-0.01,0.027-0.011c0.082-0.033,0.164-0.057,0.246-0.072c0.091-0.025,0.183-0.04,0.276-0.046l0.083-0.006
				l3.408-0.058c0.102,0.002,0.204-0.014,0.304-0.039c0.074-0.014,0.147-0.028,0.22-0.052c0.146-0.047,0.29-0.112,0.435-0.178
				l0.019,0.008L107.492,48.696z"/>
			<path id="XMLID_715_" style="opacity:0.9;fill:#FFFFFF;" d="M141.909,33.5c-0.269-0.131-0.61-0.081-0.946,0.174l-4.48,3.392
				c-0.611,0.459-1.421,0.299-1.907-0.301c-0.314-0.388-0.635-0.739-0.99-1.06c-0.564-0.52-0.915-1.455-0.694-2.195l0.365-1.223
				l1.921-1.457c0.346-0.255,0.696-0.297,0.966-0.157l-0.001-0.009L141.909,33.5z"/>
			<path style="opacity:0.9;fill:#FFFFFF;" d="M134.237,25.459c-0.106-0.049-0.229-0.087-0.36-0.106l-3.589-0.562
				c-0.752-0.118-1.622,0.358-1.938,1.058l-2.895,6.551c-0.137,0.316-0.395,0.631-0.693,0.901l-5.776-2.853
				c0.298-0.28,0.548-0.575,0.685-0.891l2.904-6.552c0.307-0.699,1.177-1.175,1.938-1.058l3.579,0.563
				c0.141,0.019,0.265,0.066,0.38,0.124l-0.001-0.009L134.237,25.459z"/>
			<path style="opacity:0.9;fill:#FFFFFF;" d="M117.76,29.776c-0.308-0.156-0.694-0.094-1.036,0.217l-5.011,4.506
				c-0.369,0.331-0.658,0.88-0.788,1.437l-5.775-2.835c0.014-0.066,0.037-0.142,0.051-0.208c0.1-0.313,0.239-0.611,0.408-0.864
				c0.043-0.059,0.076-0.117,0.129-0.167c0.06-0.078,0.12-0.147,0.191-0.208l5.02-4.507c0.201-0.19,0.419-0.279,0.631-0.293
				c0.139-0.009,0.271,0.019,0.396,0.076L117.76,29.776z"/>
			<path id="XMLID_694_" style="fill:#27DEBF;" d="M143.616,39.24l-1.218-5.053c-0.18-0.747-0.823-0.977-1.436-0.513l-4.478,3.391
				c-0.613,0.464-1.426,0.299-1.908-0.3c-0.309-0.385-0.639-0.737-0.987-1.057c-0.566-0.52-0.915-1.457-0.696-2.194l1.961-6.617
				c0.218-0.737-0.22-1.43-0.98-1.548l-3.581-0.556c-0.76-0.118-1.628,0.356-1.939,1.059l-2.9,6.543
				c-0.312,0.703-1.175,1.402-1.905,1.64c-0.699,0.228-1.408,0.515-2.126,0.862c-0.692,0.335-1.449,0.068-1.719-0.652l-1.455-3.882
				c-0.27-0.72-0.952-0.886-1.523-0.373l-5.014,4.508c-0.572,0.514-0.955,1.548-0.856,2.311l0.648,5.011
				c0.099,0.762-0.209,1.869-0.661,2.49c-0.798,1.094-1.546,2.236-2.241,3.413c-0.391,0.662-1.311,1.221-2.08,1.233l-3.411,0.057
				c-0.768,0.013-1.607,0.608-1.873,1.329l-2.722,7.378c-0.266,0.721,0.106,1.512,0.831,1.766l2.824,0.99
				c0.725,0.254,1.188,1.072,1.068,1.831c-0.186,1.17-0.308,2.326-0.363,3.458c-0.037,0.768-0.462,1.842-0.992,2.398l-4.401,4.619
				c-0.53,0.556-0.814,1.613-0.634,2.36l1.218,5.053c0.18,0.747,0.823,0.977,1.436,0.513l4.479-3.391
				c0.613-0.464,1.426-0.3,1.908,0.299c0.309,0.385,0.639,0.738,0.986,1.058c0.565,0.521,0.915,1.457,0.697,2.194l-1.96,6.616
				c-0.218,0.737,0.22,1.43,0.98,1.548l3.581,0.555c0.76,0.118,1.628-0.356,1.939-1.059l2.9-6.543
				c0.312-0.702,1.175-1.402,1.905-1.64c0.698-0.228,1.408-0.514,2.126-0.862c0.692-0.335,1.449-0.067,1.719,0.652l1.456,3.882
				c0.27,0.719,0.952,0.886,1.523,0.372l5.013-4.508c0.571-0.514,0.955-1.548,0.856-2.311l-0.648-5.011
				c-0.099-0.762,0.209-1.869,0.662-2.489c0.799-1.094,1.547-2.236,2.241-3.413c0.391-0.662,1.311-1.221,2.08-1.234l3.411-0.057
				c0.769-0.013,1.607-0.608,1.873-1.329l2.723-7.378c0.266-0.721-0.106-1.512-0.832-1.766l-2.824-0.99
				c-0.725-0.254-1.189-1.072-1.068-1.831c0.186-1.17,0.308-2.326,0.362-3.457c0.037-0.768,0.462-1.841,0.992-2.398l4.401-4.619
				C143.512,41.043,143.796,39.987,143.616,39.24z M122.831,67.968c-5.434,4.886-11.003,4.022-12.438-1.93
				c-1.435-5.952,1.807-14.738,7.241-19.623c5.434-4.886,11.002-4.022,12.437,1.93C131.506,54.296,128.265,63.082,122.831,67.968z"
				/>
			<path id="XMLID_652_" style="opacity:0.75;fill:#FFFFFF;" d="M143.616,39.24l-1.218-5.053c-0.18-0.747-0.823-0.977-1.436-0.513
				l-4.478,3.391c-0.613,0.464-1.426,0.299-1.908-0.3c-0.309-0.385-0.639-0.737-0.987-1.057c-0.566-0.52-0.915-1.457-0.696-2.194
				l1.961-6.617c0.218-0.737-0.22-1.43-0.98-1.548l-3.581-0.556c-0.76-0.118-1.628,0.356-1.939,1.059l-2.9,6.543
				c-0.312,0.703-1.175,1.402-1.905,1.64c-0.699,0.228-1.408,0.515-2.126,0.862c-0.692,0.335-1.449,0.068-1.719-0.652l-1.455-3.882
				c-0.27-0.72-0.952-0.886-1.523-0.373l-5.014,4.508c-0.572,0.514-0.955,1.548-0.856,2.311l0.648,5.011
				c0.099,0.762-0.209,1.869-0.661,2.49c-0.798,1.094-1.546,2.236-2.241,3.413c-0.391,0.662-1.311,1.221-2.08,1.233l-3.411,0.057
				c-0.768,0.013-1.607,0.608-1.873,1.329l-2.722,7.378c-0.266,0.721,0.106,1.512,0.831,1.766l2.824,0.99
				c0.725,0.254,1.188,1.072,1.068,1.831c-0.186,1.17-0.308,2.326-0.363,3.458c-0.037,0.768-0.462,1.842-0.992,2.398l-4.401,4.619
				c-0.53,0.556-0.814,1.613-0.634,2.36l1.218,5.053c0.18,0.747,0.823,0.977,1.436,0.513l4.479-3.391
				c0.613-0.464,1.426-0.3,1.908,0.299c0.309,0.385,0.639,0.738,0.986,1.058c0.565,0.521,0.915,1.457,0.697,2.194l-1.96,6.616
				c-0.218,0.737,0.22,1.43,0.98,1.548l3.581,0.555c0.76,0.118,1.628-0.356,1.939-1.059l2.9-6.543
				c0.312-0.702,1.175-1.402,1.905-1.64c0.698-0.228,1.408-0.514,2.126-0.862c0.692-0.335,1.449-0.067,1.719,0.652l1.456,3.882
				c0.27,0.719,0.952,0.886,1.523,0.372l5.013-4.508c0.571-0.514,0.955-1.548,0.856-2.311l-0.648-5.011
				c-0.099-0.762,0.209-1.869,0.662-2.489c0.799-1.094,1.547-2.236,2.241-3.413c0.391-0.662,1.311-1.221,2.08-1.234l3.411-0.057
				c0.769-0.013,1.607-0.608,1.873-1.329l2.723-7.378c0.266-0.721-0.106-1.512-0.832-1.766l-2.824-0.99
				c-0.725-0.254-1.189-1.072-1.068-1.831c0.186-1.17,0.308-2.326,0.362-3.457c0.037-0.768,0.462-1.841,0.992-2.398l4.401-4.619
				C143.512,41.043,143.796,39.987,143.616,39.24z M122.831,67.968c-5.434,4.886-11.003,4.022-12.438-1.93
				c-1.435-5.952,1.807-14.738,7.241-19.623c5.434-4.886,11.002-4.022,12.437,1.93C131.506,54.296,128.265,63.082,122.831,67.968z"
				/>
		</g>
		<g id="XMLID_261_">
			<path id="XMLID_647_" style="fill:#27DEBF;" d="M86.936,86.171l0.001,0.013c-0.371-0.193-0.855-0.148-1.331,0.203l-2.646,2.007
				l-0.502,1.698c-0.304,1.019,0.178,2.306,0.956,3.023c0.478,0.442,0.932,0.924,1.364,1.459c0.669,0.814,1.785,1.047,2.627,0.403
				l6.171-4.673c0.464-0.338,0.934-0.408,1.304-0.227L86.936,86.171z M78.57,110.52c-1.251-5.168-4.752-7.562-9.051-6.919
				c0.44,0.842,0.813,1.841,1.095,3.001c1.976,8.194-2.499,20.298-9.981,27.029c-2.756,2.475-5.532,3.875-8.031,4.245
				c2.956,5.388,9.545,5.477,15.999-0.329C76.084,130.816,80.547,118.713,78.57,110.52z M76.367,75.088l0.001,0.013
				c-0.159-0.079-0.33-0.145-0.523-0.17l-4.931-0.775c-1.048-0.161-2.247,0.494-2.67,1.457l-4,9.024
				c-0.189,0.435-0.533,0.842-0.943,1.228l-0.013,0.001c-0.229,0.22-0.472,0.416-0.743,0.574l1.743,4.662
				c0.373,0.987,1.421,1.353,2.364,0.894c0.993-0.475,1.978-0.874,2.931-1.18c0.564-0.191,1.167-0.564,1.674-1.02
				c0.411-0.373,0.766-0.806,0.955-1.241l3.988-9.024c0.436-0.964,1.634-1.619,2.67-1.457l4.943,0.774
				c0.181,0.026,0.351,0.079,0.496,0.146L76.367,75.088z M68.255,160.367c-0.215-0.152-0.397-0.383-0.508-0.709l-2.006-5.349
				c-0.36-0.988-1.41-1.367-2.364-0.894c-0.98,0.475-1.966,0.873-2.931,1.18c-0.301,0.097-0.611,0.258-0.917,0.458l0.263,0.687
				c0.154,0.4,0.39,0.666,0.68,0.8l0.001,0.013L68.255,160.367z M53.643,81.023c-0.172-0.078-0.354-0.117-0.545-0.105
				c-0.293,0.019-0.593,0.142-0.87,0.403l-6.915,6.208c-0.097,0.083-0.18,0.179-0.263,0.286c-0.072,0.069-0.118,0.149-0.177,0.229
				c-0.233,0.348-0.424,0.758-0.562,1.19c-0.02,0.091-0.051,0.196-0.071,0.287l0.013-0.001c-0.1,0.416-0.163,0.83-0.114,1.186
				l0.892,6.908c0.134,1.054-0.29,2.581-0.913,3.429c-1.104,1.507-2.127,3.086-3.083,4.699c-0.322,0.546-0.892,1.032-1.525,1.343
				c-0.211,0.104-0.411,0.181-0.625,0.233c-0.1,0.032-0.201,0.064-0.303,0.071c-0.139,0.035-0.278,0.057-0.419,0.053l-4.695,0.08
				l-0.115,0.007c-0.127,0.009-0.254,0.03-0.38,0.064c-0.114,0.02-0.227,0.053-0.339,0.099c-0.013,0.001-0.026,0.002-0.037,0.015
				c-0.125,0.047-0.249,0.106-0.372,0.178c-0.235,0.131-0.455,0.286-0.648,0.465c-0.301,0.289-0.547,0.638-0.689,1.006l-3.746,10.16
				c-0.337,0.906,0.06,1.879,0.896,2.323l5.4,2.652c0.194,0.423,0.277,0.891,0.204,1.344c-0.253,1.605-0.428,3.204-0.505,4.759
				c-0.046,1.053-0.626,2.539-1.357,3.304l-0.072,0.069l-6,6.288c-0.108,0.11-0.202,0.231-0.283,0.364
				c-0.011,0.026-0.023,0.04-0.034,0.066c-0.094,0.134-0.174,0.28-0.227,0.438c-0.361,0.741-0.504,1.673-0.328,2.391l1.69,6.958
				c0.106,0.441,0.331,0.747,0.624,0.919l7.929,3.894c-0.279-0.161-0.492-0.467-0.597-0.895l-1.677-6.958
				c-0.104-0.403-0.097-0.89-0.013-1.357c0.131-0.726,0.443-1.438,0.886-1.903l5.987-6.287l0.072-0.069
				c0.731-0.766,1.311-2.251,1.369-3.305c0.076-1.555,0.24-3.153,0.505-4.759c0.161-1.048-0.477-2.171-1.474-2.528l-3.893-1.356
				c-0.997-0.357-1.518-1.449-1.147-2.434l3.746-10.16c0.142-0.368,0.375-0.716,0.689-1.006c0.519-0.483,1.226-0.824,1.892-0.83
				l4.708-0.081c0.435-0.003,0.9-0.136,1.334-0.357c0.633-0.311,1.202-0.797,1.525-1.343c0.956-1.613,1.992-3.193,3.083-4.699
				c0.636-0.849,1.047-2.374,0.913-3.429l-0.892-6.895c-0.05-0.368-0.014-0.793,0.099-1.21c0.18-0.768,0.578-1.524,1.086-1.98
				l6.902-6.207c0.471-0.428,1.003-0.515,1.427-0.299L53.643,81.023z M47.584,155.318c0.291-1.018-0.191-2.305-0.968-3.022
				c-0.478-0.442-0.932-0.924-1.352-1.46c-0.67-0.827-1.785-1.047-2.627-0.415l-3.525,2.667l-2.198,7.42
				c-0.241,0.81,0.105,1.581,0.781,1.933l-0.012,0.014l7.982,3.929c-0.69-0.364-1.023-1.136-0.782-1.946L47.584,155.318z"/>
			<path id="XMLID_720_" style="opacity:0.7;fill:#FFFFFF;" d="M86.936,86.171l0.001,0.013c-0.371-0.193-0.855-0.148-1.331,0.203
				l-2.646,2.007l-0.502,1.698c-0.304,1.019,0.178,2.306,0.956,3.023c0.478,0.442,0.932,0.924,1.364,1.459
				c0.669,0.814,1.785,1.047,2.627,0.403l6.171-4.673c0.464-0.338,0.934-0.408,1.304-0.227L86.936,86.171z M78.57,110.52
				c-1.251-5.168-4.752-7.562-9.051-6.919c0.44,0.842,0.813,1.841,1.095,3.001c1.976,8.194-2.499,20.298-9.981,27.029
				c-2.756,2.475-5.532,3.875-8.031,4.245c2.956,5.388,9.545,5.477,15.999-0.329C76.084,130.816,80.547,118.713,78.57,110.52z
				 M76.367,75.088l0.001,0.013c-0.159-0.079-0.33-0.145-0.523-0.17l-4.931-0.775c-1.048-0.161-2.247,0.494-2.67,1.457l-4,9.024
				c-0.189,0.435-0.533,0.842-0.943,1.228l-0.013,0.001c-0.229,0.22-0.472,0.416-0.743,0.574l1.743,4.662
				c0.373,0.987,1.421,1.353,2.364,0.894c0.993-0.475,1.978-0.874,2.931-1.18c0.564-0.191,1.167-0.564,1.674-1.02
				c0.411-0.373,0.766-0.806,0.955-1.241l3.988-9.024c0.436-0.964,1.634-1.619,2.67-1.457l4.943,0.774
				c0.181,0.026,0.351,0.079,0.496,0.146L76.367,75.088z M68.255,160.367c-0.215-0.152-0.397-0.383-0.508-0.709l-2.006-5.349
				c-0.36-0.988-1.41-1.367-2.364-0.894c-0.98,0.475-1.966,0.873-2.931,1.18c-0.301,0.097-0.611,0.258-0.917,0.458l0.263,0.687
				c0.154,0.4,0.39,0.666,0.68,0.8l0.001,0.013L68.255,160.367z M53.643,81.023c-0.172-0.078-0.354-0.117-0.545-0.105
				c-0.293,0.019-0.593,0.142-0.87,0.403l-6.915,6.208c-0.097,0.083-0.18,0.179-0.263,0.286c-0.072,0.069-0.118,0.149-0.177,0.229
				c-0.233,0.348-0.424,0.758-0.562,1.19c-0.02,0.091-0.051,0.196-0.071,0.287l0.013-0.001c-0.1,0.416-0.163,0.83-0.114,1.186
				l0.892,6.908c0.134,1.054-0.29,2.581-0.913,3.429c-1.104,1.507-2.127,3.086-3.083,4.699c-0.322,0.546-0.892,1.032-1.525,1.343
				c-0.211,0.104-0.411,0.181-0.625,0.233c-0.1,0.032-0.201,0.064-0.303,0.071c-0.139,0.035-0.278,0.057-0.419,0.053l-4.695,0.08
				l-0.115,0.007c-0.127,0.009-0.254,0.03-0.38,0.064c-0.114,0.02-0.227,0.053-0.339,0.099c-0.013,0.001-0.026,0.002-0.037,0.015
				c-0.125,0.047-0.249,0.106-0.372,0.178c-0.235,0.131-0.455,0.286-0.648,0.465c-0.301,0.289-0.547,0.638-0.689,1.006l-3.746,10.16
				c-0.337,0.906,0.06,1.879,0.896,2.323l5.4,2.652c0.194,0.423,0.277,0.891,0.204,1.344c-0.253,1.605-0.428,3.204-0.505,4.759
				c-0.046,1.053-0.626,2.539-1.357,3.304l-0.072,0.069l-6,6.288c-0.108,0.11-0.202,0.231-0.283,0.364
				c-0.011,0.026-0.023,0.04-0.034,0.066c-0.094,0.134-0.174,0.28-0.227,0.438c-0.361,0.741-0.504,1.673-0.328,2.391l1.69,6.958
				c0.106,0.441,0.331,0.747,0.624,0.919l7.929,3.894c-0.279-0.161-0.492-0.467-0.597-0.895l-1.677-6.958
				c-0.104-0.403-0.097-0.89-0.013-1.357c0.131-0.726,0.443-1.438,0.886-1.903l5.987-6.287l0.072-0.069
				c0.731-0.766,1.311-2.251,1.369-3.305c0.076-1.555,0.24-3.153,0.505-4.759c0.161-1.048-0.477-2.171-1.474-2.528l-3.893-1.356
				c-0.997-0.357-1.518-1.449-1.147-2.434l3.746-10.16c0.142-0.368,0.375-0.716,0.689-1.006c0.519-0.483,1.226-0.824,1.892-0.83
				l4.708-0.081c0.435-0.003,0.9-0.136,1.334-0.357c0.633-0.311,1.202-0.797,1.525-1.343c0.956-1.613,1.992-3.193,3.083-4.699
				c0.636-0.849,1.047-2.374,0.913-3.429l-0.892-6.895c-0.05-0.368-0.014-0.793,0.099-1.21c0.18-0.768,0.578-1.524,1.086-1.98
				l6.902-6.207c0.471-0.428,1.003-0.515,1.427-0.299L53.643,81.023z M47.584,155.318c0.291-1.018-0.191-2.305-0.968-3.022
				c-0.478-0.442-0.932-0.924-1.352-1.46c-0.67-0.827-1.785-1.047-2.627-0.415l-3.525,2.667l-2.198,7.42
				c-0.241,0.81,0.105,1.581,0.781,1.933l-0.012,0.014l7.982,3.929c-0.69-0.364-1.023-1.136-0.782-1.946L47.584,155.318z"/>
			<path id="XMLID_726_" style="opacity:0.05;" d="M86.936,86.171l0.001,0.013c-0.371-0.193-0.855-0.148-1.331,0.203l-2.646,2.007
				l-0.502,1.698c-0.304,1.019,0.178,2.306,0.956,3.023c0.478,0.442,0.932,0.924,1.364,1.459c0.669,0.814,1.785,1.047,2.627,0.403
				l6.171-4.673c0.464-0.338,0.934-0.408,1.304-0.227L86.936,86.171z M78.57,110.52c-1.251-5.168-4.752-7.562-9.051-6.919
				c0.44,0.842,0.813,1.841,1.095,3.001c1.976,8.194-2.499,20.298-9.981,27.029c-2.756,2.475-5.532,3.875-8.031,4.245
				c2.956,5.388,9.545,5.477,15.999-0.329C76.084,130.816,80.547,118.713,78.57,110.52z M76.367,75.088l0.001,0.013
				c-0.159-0.079-0.33-0.145-0.523-0.17l-4.931-0.775c-1.048-0.161-2.247,0.494-2.67,1.457l-4,9.024
				c-0.189,0.435-0.533,0.842-0.943,1.228l-0.013,0.001c-0.229,0.22-0.472,0.416-0.743,0.574l1.743,4.662
				c0.373,0.987,1.421,1.353,2.364,0.894c0.993-0.475,1.978-0.874,2.931-1.18c0.564-0.191,1.167-0.564,1.674-1.02
				c0.411-0.373,0.766-0.806,0.955-1.241l3.988-9.024c0.436-0.964,1.634-1.619,2.67-1.457l4.943,0.774
				c0.181,0.026,0.351,0.079,0.496,0.146L76.367,75.088z M68.255,160.367c-0.215-0.152-0.397-0.383-0.508-0.709l-2.006-5.349
				c-0.36-0.988-1.41-1.367-2.364-0.894c-0.98,0.475-1.966,0.873-2.931,1.18c-0.301,0.097-0.611,0.258-0.917,0.458l0.263,0.687
				c0.154,0.4,0.39,0.666,0.68,0.8l0.001,0.013L68.255,160.367z M53.643,81.023c-0.172-0.078-0.354-0.117-0.545-0.105
				c-0.293,0.019-0.593,0.142-0.87,0.403l-6.915,6.208c-0.097,0.083-0.18,0.179-0.263,0.286c-0.072,0.069-0.118,0.149-0.177,0.229
				c-0.233,0.348-0.424,0.758-0.562,1.19c-0.02,0.091-0.051,0.196-0.071,0.287l0.013-0.001c-0.1,0.416-0.163,0.83-0.114,1.186
				l0.892,6.908c0.134,1.054-0.29,2.581-0.913,3.429c-1.104,1.507-2.127,3.086-3.083,4.699c-0.322,0.546-0.892,1.032-1.525,1.343
				c-0.211,0.104-0.411,0.181-0.625,0.233c-0.1,0.032-0.201,0.064-0.303,0.071c-0.139,0.035-0.278,0.057-0.419,0.053l-4.695,0.08
				l-0.115,0.007c-0.127,0.009-0.254,0.03-0.38,0.064c-0.114,0.02-0.227,0.053-0.339,0.099c-0.013,0.001-0.026,0.002-0.037,0.015
				c-0.125,0.047-0.249,0.106-0.372,0.178c-0.235,0.131-0.455,0.286-0.648,0.465c-0.301,0.289-0.547,0.638-0.689,1.006l-3.746,10.16
				c-0.337,0.906,0.06,1.879,0.896,2.323l5.4,2.652c0.194,0.423,0.277,0.891,0.204,1.344c-0.253,1.605-0.428,3.204-0.505,4.759
				c-0.046,1.053-0.626,2.539-1.357,3.304l-0.072,0.069l-6,6.288c-0.108,0.11-0.202,0.231-0.283,0.364
				c-0.011,0.026-0.023,0.04-0.034,0.066c-0.094,0.134-0.174,0.28-0.227,0.438c-0.361,0.741-0.504,1.673-0.328,2.391l1.69,6.958
				c0.106,0.441,0.331,0.747,0.624,0.919l7.929,3.894c-0.279-0.161-0.492-0.467-0.597-0.895l-1.677-6.958
				c-0.104-0.403-0.097-0.89-0.013-1.357c0.131-0.726,0.443-1.438,0.886-1.903l5.987-6.287l0.072-0.069
				c0.731-0.766,1.311-2.251,1.369-3.305c0.076-1.555,0.24-3.153,0.505-4.759c0.161-1.048-0.477-2.171-1.474-2.528l-3.893-1.356
				c-0.997-0.357-1.518-1.449-1.147-2.434l3.746-10.16c0.142-0.368,0.375-0.716,0.689-1.006c0.519-0.483,1.226-0.824,1.892-0.83
				l4.708-0.081c0.435-0.003,0.9-0.136,1.334-0.357c0.633-0.311,1.202-0.797,1.525-1.343c0.956-1.613,1.992-3.193,3.083-4.699
				c0.636-0.849,1.047-2.374,0.913-3.429l-0.892-6.895c-0.05-0.368-0.014-0.793,0.099-1.21c0.18-0.768,0.578-1.524,1.086-1.98
				l6.902-6.207c0.471-0.428,1.003-0.515,1.427-0.299L53.643,81.023z M47.584,155.318c0.291-1.018-0.191-2.305-0.968-3.022
				c-0.478-0.442-0.932-0.924-1.352-1.46c-0.67-0.827-1.785-1.047-2.627-0.415l-3.525,2.667l-2.198,7.42
				c-0.241,0.81,0.105,1.581,0.781,1.933l-0.012,0.014l7.982,3.929c-0.69-0.364-1.023-1.136-0.782-1.946L47.584,155.318z"/>
			<path style="fill:#27DEBF;" d="M39.668,137.887l-5.987,6.287c-0.443,0.465-0.755,1.177-0.886,1.903l-7.943-3.906
				c0.066-0.363,0.17-0.716,0.315-1.045c0.054-0.157,0.134-0.303,0.227-0.438c0.011-0.026,0.023-0.04,0.034-0.066
				c0.081-0.133,0.175-0.255,0.283-0.364l6-6.288L39.668,137.887z"/>
			<path style="fill:#27DEBF;" d="M47.469,111.002c-0.434,0.221-0.899,0.354-1.334,0.357l-4.708,0.081
				c-0.666,0.006-1.373,0.347-1.892,0.83l-7.956-3.918c0.193-0.179,0.413-0.335,0.648-0.465c0.123-0.072,0.247-0.132,0.372-0.178
				c0.012-0.013,0.025-0.014,0.037-0.015c0.112-0.046,0.225-0.079,0.339-0.099c0.126-0.034,0.252-0.055,0.38-0.064l0.115-0.007
				l4.695-0.08c0.141,0.004,0.281-0.018,0.419-0.053c0.101-0.02,0.202-0.039,0.303-0.071c0.201-0.064,0.4-0.154,0.599-0.244
				l0.026,0.011L47.469,111.002z"/>
			<path id="XMLID_620_" style="fill:#27DEBF;" d="M94.877,90.07c-0.37-0.18-0.84-0.111-1.303,0.24l-6.171,4.673
				c-0.842,0.632-1.958,0.411-2.627-0.415c-0.432-0.535-0.874-1.018-1.364-1.459c-0.778-0.717-1.26-2.004-0.956-3.023l0.503-1.685
				l2.646-2.006c0.476-0.352,0.959-0.409,1.33-0.216l-0.001-0.013L94.877,90.07z"/>
			<path style="fill:#27DEBF;" d="M84.309,78.994c-0.145-0.067-0.315-0.12-0.496-0.146l-4.943-0.774
				c-1.035-0.162-2.234,0.494-2.67,1.457l-3.988,9.024c-0.189,0.435-0.545,0.868-0.955,1.241l-7.957-3.93
				c0.41-0.386,0.754-0.793,0.943-1.228l4-9.024c0.423-0.963,1.622-1.618,2.67-1.457l4.931,0.775
				c0.194,0.026,0.365,0.091,0.523,0.17l-0.001-0.013L84.309,78.994z"/>
			<path style="fill:#27DEBF;" d="M61.612,84.94c-0.424-0.215-0.956-0.129-1.427,0.299l-6.902,6.207
				c-0.508,0.456-0.906,1.213-1.086,1.98l-7.955-3.905c0.02-0.091,0.051-0.196,0.071-0.287c0.138-0.432,0.329-0.841,0.562-1.19
				c0.059-0.081,0.105-0.161,0.177-0.229c0.082-0.108,0.166-0.203,0.263-0.286l6.915-6.208c0.277-0.262,0.576-0.384,0.87-0.403
				c0.191-0.013,0.373,0.026,0.545,0.105L61.612,84.94z"/>
			<path style="opacity:0.9;fill:#FFFFFF;" d="M39.668,137.887l-5.987,6.287c-0.443,0.465-0.755,1.177-0.886,1.903l-7.943-3.906
				c0.066-0.363,0.17-0.716,0.315-1.045c0.054-0.157,0.134-0.303,0.227-0.438c0.011-0.026,0.023-0.04,0.034-0.066
				c0.081-0.133,0.175-0.255,0.283-0.364l6-6.288L39.668,137.887z"/>
			<path style="opacity:0.9;fill:#FFFFFF;" d="M47.469,111.002c-0.434,0.221-0.899,0.354-1.334,0.357l-4.708,0.081
				c-0.666,0.006-1.373,0.347-1.892,0.83l-7.956-3.918c0.193-0.179,0.413-0.335,0.648-0.465c0.123-0.072,0.247-0.132,0.372-0.178
				c0.012-0.013,0.025-0.014,0.037-0.015c0.112-0.046,0.225-0.079,0.339-0.099c0.126-0.034,0.252-0.055,0.38-0.064l0.115-0.007
				l4.695-0.08c0.141,0.004,0.281-0.018,0.419-0.053c0.101-0.02,0.202-0.039,0.303-0.071c0.201-0.064,0.4-0.154,0.599-0.244
				l0.026,0.011L47.469,111.002z"/>
			<path id="XMLID_711_" style="opacity:0.9;fill:#FFFFFF;" d="M94.877,90.07c-0.37-0.18-0.84-0.111-1.303,0.24l-6.171,4.673
				c-0.842,0.632-1.958,0.411-2.627-0.415c-0.432-0.535-0.874-1.018-1.364-1.459c-0.778-0.717-1.26-2.004-0.956-3.023l0.503-1.685
				l2.646-2.006c0.476-0.352,0.959-0.409,1.33-0.216l-0.001-0.013L94.877,90.07z"/>
			<path style="opacity:0.9;fill:#FFFFFF;" d="M84.309,78.994c-0.145-0.067-0.315-0.12-0.496-0.146l-4.943-0.774
				c-1.035-0.162-2.234,0.494-2.67,1.457l-3.988,9.024c-0.189,0.435-0.545,0.868-0.955,1.241l-7.957-3.93
				c0.41-0.386,0.754-0.793,0.943-1.228l4-9.024c0.423-0.963,1.622-1.618,2.67-1.457l4.931,0.775
				c0.194,0.026,0.365,0.091,0.523,0.17l-0.001-0.013L84.309,78.994z"/>
			<path style="opacity:0.9;fill:#FFFFFF;" d="M61.612,84.94c-0.424-0.215-0.956-0.129-1.427,0.299l-6.902,6.207
				c-0.508,0.456-0.906,1.213-1.086,1.98l-7.955-3.905c0.02-0.091,0.051-0.196,0.071-0.287c0.138-0.432,0.329-0.841,0.562-1.19
				c0.059-0.081,0.105-0.161,0.177-0.229c0.082-0.108,0.166-0.203,0.263-0.286l6.915-6.208c0.277-0.262,0.576-0.384,0.87-0.403
				c0.191-0.013,0.373,0.026,0.545,0.105L61.612,84.94z"/>
			<path id="XMLID_566_" style="fill:#27DEBF;" d="M97.228,97.976l-1.678-6.96c-0.248-1.029-1.133-1.345-1.977-0.706l-6.169,4.672
				c-0.844,0.639-1.964,0.412-2.628-0.413c-0.426-0.53-0.88-1.016-1.359-1.456c-0.779-0.717-1.26-2.007-0.959-3.022l2.701-9.115
				c0.301-1.015-0.303-1.969-1.35-2.132l-4.933-0.765c-1.046-0.162-2.242,0.491-2.671,1.459l-3.995,9.013
				c-0.429,0.968-1.618,1.932-2.625,2.26c-0.962,0.314-1.94,0.709-2.929,1.187c-0.953,0.461-1.996,0.093-2.368-0.898l-2.005-5.347
				c-0.372-0.991-1.311-1.221-2.098-0.513l-6.906,6.209c-0.787,0.708-1.316,2.133-1.18,3.183l0.893,6.902
				c0.136,1.05-0.287,2.574-0.911,3.429c-1.1,1.507-2.13,3.08-3.087,4.701c-0.538,0.912-1.806,1.681-2.865,1.699l-4.699,0.079
				c-1.058,0.018-2.214,0.837-2.58,1.83l-3.75,10.163c-0.367,0.993,0.146,2.082,1.145,2.432l3.89,1.363
				c0.999,0.35,1.637,1.476,1.471,2.522c-0.256,1.611-0.425,3.204-0.499,4.763c-0.051,1.058-0.637,2.537-1.367,3.303l-6.062,6.362
				c-0.73,0.766-1.121,2.222-0.873,3.251l1.678,6.96c0.248,1.029,1.133,1.345,1.977,0.706l6.17-4.671
				c0.844-0.639,1.965-0.413,2.628,0.412c0.426,0.53,0.88,1.016,1.359,1.457c0.779,0.717,1.26,2.007,0.959,3.022l-2.7,9.114
				c-0.301,1.015,0.303,1.969,1.35,2.132l4.932,0.765c1.046,0.162,2.242-0.491,2.671-1.458l3.995-9.013
				c0.429-0.968,1.618-1.931,2.625-2.259c0.962-0.314,1.94-0.709,2.928-1.187c0.953-0.461,1.996-0.093,2.368,0.898l2.005,5.347
				c0.372,0.991,1.311,1.221,2.098,0.513l6.906-6.209c0.787-0.708,1.315-2.133,1.179-3.183l-0.893-6.902
				c-0.136-1.05,0.287-2.574,0.912-3.429c1.1-1.507,2.131-3.08,3.087-4.701c0.538-0.912,1.806-1.681,2.865-1.699l4.698-0.078
				c1.059-0.018,2.214-0.837,2.58-1.83l3.75-10.163c0.367-0.993-0.146-2.082-1.145-2.432l-3.891-1.363
				c-0.999-0.35-1.637-1.476-1.471-2.522c0.256-1.611,0.424-3.203,0.499-4.762c0.051-1.057,0.636-2.536,1.366-3.303l6.062-6.363
				C97.085,100.46,97.476,99.005,97.228,97.976z M68.597,137.548c-7.485,6.73-15.156,5.54-17.133-2.659
				c-1.977-8.199,2.489-20.301,9.974-27.03c7.485-6.73,15.155-5.541,17.132,2.658C80.548,118.715,76.083,130.817,68.597,137.548z"/>
			<path id="XMLID_384_" style="opacity:0.75;fill:#FFFFFF;" d="M97.228,97.976l-1.678-6.96c-0.248-1.029-1.133-1.345-1.977-0.706
				l-6.169,4.672c-0.844,0.639-1.964,0.412-2.628-0.413c-0.426-0.53-0.88-1.016-1.359-1.456c-0.779-0.717-1.26-2.007-0.959-3.022
				l2.701-9.115c0.301-1.015-0.303-1.969-1.35-2.132l-4.933-0.765c-1.046-0.162-2.242,0.491-2.671,1.459l-3.995,9.013
				c-0.429,0.968-1.618,1.932-2.625,2.26c-0.962,0.314-1.94,0.709-2.929,1.187c-0.953,0.461-1.996,0.093-2.368-0.898l-2.005-5.347
				c-0.372-0.991-1.311-1.221-2.098-0.513l-6.906,6.209c-0.787,0.708-1.316,2.133-1.18,3.183l0.893,6.902
				c0.136,1.05-0.287,2.574-0.911,3.429c-1.1,1.507-2.13,3.08-3.087,4.701c-0.538,0.912-1.806,1.681-2.865,1.699l-4.699,0.079
				c-1.058,0.018-2.214,0.837-2.58,1.83l-3.75,10.163c-0.367,0.993,0.146,2.082,1.145,2.432l3.89,1.363
				c0.999,0.35,1.637,1.476,1.471,2.522c-0.256,1.611-0.425,3.204-0.499,4.763c-0.051,1.058-0.637,2.537-1.367,3.303l-6.062,6.362
				c-0.73,0.766-1.121,2.222-0.873,3.251l1.678,6.96c0.248,1.029,1.133,1.345,1.977,0.706l6.17-4.671
				c0.844-0.639,1.965-0.413,2.628,0.412c0.426,0.53,0.88,1.016,1.359,1.457c0.779,0.717,1.26,2.007,0.959,3.022l-2.7,9.114
				c-0.301,1.015,0.303,1.969,1.35,2.132l4.932,0.765c1.046,0.162,2.242-0.491,2.671-1.458l3.995-9.013
				c0.429-0.968,1.618-1.931,2.625-2.259c0.962-0.314,1.94-0.709,2.928-1.187c0.953-0.461,1.996-0.093,2.368,0.898l2.005,5.347
				c0.372,0.991,1.311,1.221,2.098,0.513l6.906-6.209c0.787-0.708,1.315-2.133,1.179-3.183l-0.893-6.902
				c-0.136-1.05,0.287-2.574,0.912-3.429c1.1-1.507,2.131-3.08,3.087-4.701c0.538-0.912,1.806-1.681,2.865-1.699l4.698-0.078
				c1.059-0.018,2.214-0.837,2.58-1.83l3.75-10.163c0.367-0.993-0.146-2.082-1.145-2.432l-3.891-1.363
				c-0.999-0.35-1.637-1.476-1.471-2.522c0.256-1.611,0.424-3.203,0.499-4.762c0.051-1.057,0.636-2.536,1.366-3.303l6.062-6.363
				C97.085,100.46,97.476,99.005,97.228,97.976z M68.597,137.548c-7.485,6.73-15.156,5.54-17.133-2.659
				c-1.977-8.199,2.489-20.301,9.974-27.03c7.485-6.73,15.155-5.541,17.132,2.658C80.548,118.715,76.083,130.817,68.597,137.548z"/>
		</g>
	</g>
</g>
<g id="Plants">
	<g id="Plants_5_">
		<g id="XMLID_1241_">
			<path id="XMLID_1259_" style="fill:#27DEBF;" d="M85.266,330.896c-1.035-14.895-2.645-20.008-11.916-31.312
				c-5.392-6.574-13.018-11.094-19.207-13.056c-6.19-1.961-11.592-1.745-15.526,1.329c-2.564,2.004-3.735,6.105-1.978,9.846
				c1.568,3.34,9.454,8.102,16.501,11.78c10.754,5.613,24.825,13.552,30.911,32.314l1.307,10.01L85.266,330.896z"/>
			<path id="XMLID_948_" style="opacity:0.2;" d="M85.266,330.896c-1.035-14.895-2.645-20.008-11.916-31.312
				c-5.392-6.574-13.018-11.094-19.207-13.056c-6.19-1.961-11.592-1.745-15.526,1.329c-2.564,2.004-3.735,6.105-1.978,9.846
				c1.568,3.34,9.454,8.102,16.501,11.78c10.754,5.613,24.825,13.552,30.911,32.314l1.307,10.01L85.266,330.896z"/>
			<path style="fill:#FFFFFF;" d="M84.714,339.135c-0.251-0.006-0.462-0.2-0.485-0.457c-2.306-26.515-24.42-43.248-39.498-45.133
				c-0.274-0.033-0.468-0.283-0.433-0.558c0.034-0.274,0.28-0.477,0.558-0.433c15.414,1.926,38.018,18.997,40.37,46.038
				c0.023,0.275-0.18,0.517-0.455,0.541C84.752,339.135,84.732,339.135,84.714,339.135z"/>
		</g>
		<g id="XMLID_908_">
			<path id="XMLID_951_" style="fill:#27DEBF;" d="M84.415,367.806c-0.277,0.246-0.559,0.486-0.846,0.72
				c-3.858,3.137-9.668,4.001-14.521,4.1c-3.199,0.065-7.515,0.13-10.227-1.796c-1.343-0.954-2.299-2.655-1.878-4.247
				c0.454-1.717,2.359-2.973,2.229-4.744c-3.596-0.551-7.456,1.021-10.821-0.361c-2.534-1.04-4.139-3.506-5.585-5.832
				c-0.853-1.372-1.74-2.968-1.278-4.516c0.547-1.833,2.653-2.613,4.47-3.21c0.48-0.158,0.973-0.329,1.347-0.668
				c0.374-0.339,0.601-0.893,0.413-1.361c-0.23-0.574-0.933-0.772-1.546-0.859c-1.314-0.186-2.651-0.204-3.953-0.463
				c-1.302-0.259-2.606-0.797-3.457-1.815c-1.012-1.212-1.223-2.885-1.347-4.459c-0.21-2.663-0.351-5.373-0.239-8.044
				c0.027-0.644-0.321-7.014-0.54-6.925c6.22-2.538,13.276-3.189,19.931-2.94c3.714,0.139,9.21,0.925,11.425,4.403
				c0.63,0.99,0.891,2.144,0.981,3.3c0.033,0.418-0.258,2.593-0.018,2.749c0.189,0.123,0.456,0.04,0.609-0.125
				c0.154-0.165,0.221-0.391,0.284-0.608c0.33-1.145,0.888-2.063,1.234-3.165c0.327-1.041,0.276-2.234,1.001-3.121
				c0.673-0.824,1.835-1.072,2.899-1.042c3.93,0.109,7.241,3.29,8.727,6.93c1.486,3.639,1.517,7.685,1.527,11.616
				c0.625-1.28,1.25-2.559,1.875-3.839c2.191-4.484,4.642,3.835,5.027,5.393c1.013,4.101,1.003,8.458-0.08,12.544
				C90.796,360.176,88.089,364.534,84.415,367.806z"/>
			<path id="XMLID_949_" style="fill:#FFFFFF;" d="M84.77,368.817c-0.196-0.027-0.37-0.163-0.435-0.365
				c-5.417-16.799-31.094-38.986-40.924-42.34c-0.278-0.095-0.428-0.398-0.333-0.678c0.095-0.279,0.401-0.424,0.678-0.333
				c9.992,3.409,36.092,25.955,41.593,43.023c0.091,0.281-0.063,0.581-0.344,0.671C84.927,368.822,84.848,368.828,84.77,368.817z"/>
			<path style="fill:#FFFFFF;" d="M53.639,353.432c-0.177,0-0.35-0.095-0.439-0.262c-0.132-0.243-0.041-0.547,0.201-0.678
				c0.094-0.05,9.234-4.893,20.695-1.838c-1.114-8.381,0.725-15.043,1.836-19.07l0.04-0.146c0.073-0.267,0.353-0.421,0.615-0.35
				c0.267,0.074,0.423,0.35,0.35,0.615l-0.041,0.146c-1.124,4.072-3.005,10.889-1.702,19.418c0.026,0.169-0.036,0.339-0.165,0.452
				c-0.129,0.111-0.305,0.151-0.471,0.103c-11.414-3.357-20.59,1.5-20.681,1.549C53.801,353.412,53.72,353.432,53.639,353.432z"/>
		</g>
	</g>
	<g id="Plants_6_">
		<g id="XMLID_369_">
			<g id="XMLID_378_">
				<path id="XMLID_382_" style="fill:#27DEBF;" d="M432.93,348.033c0,0,0.55-11.579,5.68-20.874
					c5.13-9.296,12.619-15.38,19.91-16.441c7.291-1.062,13.654,5.292,6.117,10.439c-7.537,5.147-21.159,10.789-26.432,28.53
					L432.93,348.033z"/>
			</g>
			<g id="XMLID_373_" style="opacity:0.1;">
				<path id="XMLID_377_" d="M432.93,348.033c0,0,0.55-11.579,5.68-20.874c5.13-9.296,12.619-15.38,19.91-16.441
					c7.291-1.062,13.654,5.292,6.117,10.439c-7.537,5.147-21.159,10.789-26.432,28.53L432.93,348.033z"/>
			</g>
			<g id="XMLID_370_">
				<path id="XMLID_371_" style="fill:#FFFFFF;" d="M434.883,344.907c-0.027-0.003-0.053-0.008-0.079-0.018
					c-0.206-0.068-0.317-0.29-0.249-0.495c6.481-19.557,20.682-28.48,27.286-30.465c0.207-0.064,0.426,0.056,0.489,0.263
					c0.062,0.208-0.055,0.427-0.263,0.489c-6.469,1.945-20.388,10.71-26.768,29.961C435.24,344.82,435.063,344.927,434.883,344.907z
					"/>
			</g>
		</g>
		<g id="XMLID_336_">
			<g id="XMLID_360_">
				<g id="XMLID_363_">
					<path id="XMLID_366_" style="fill:#27DEBF;" d="M474.347,343.252c-0.601,1.637-2.282,2.579-3.856,3.337
						c-1.564,0.751-3.279,1.571-4.053,3.132c-1.559,3.153,1.609,7.234-0.084,10.316c-0.711,1.292-2.141,2.043-3.573,2.398
						c-1.189,0.304-2.415,0.383-3.629,0.566c-0.588,0.027-1.172,0.022-1.744-0.021c-1.691-0.133-3.513-0.092-4.991,0.866
						c-2.325,1.516-2.866,4.613-4.177,7.06c-1.573,2.93-4.56,4.977-7.796,5.636c-1.076,0.215-3.081,0.543-4.226-0.001
						c-0.09-0.042-0.164-0.082-0.238-0.13c-0.008-0.001-0.015-0.01-0.021-0.018c-0.163-0.161-0.368-0.367-0.458-0.48
						c-0.022-0.018-0.035-0.043-0.048-0.069c-0.531-1.547,0.059-3.232-0.02-4.861c-0.004-0.103-0.009-0.198-0.021-0.295
						c-0.192-1.887-0.369-3.764-0.537-5.648c-0.317-3.466-0.585-6.941-0.789-10.417c-0.125-2.258-0.559-4.71,0.256-6.899
						c0.904-2.407,3.529-2.632,4.372-4.991c0.338-0.94,0.485-1.934,0.809-2.884c0.971-2.787,3.628-4.919,6.567-5.258
						c4.574-0.536,8.938,2.91,13.499,2.27c1.181-0.171,2.314-0.608,3.47-0.901c3.672-0.94,8.038-0.165,10.335,2.843
						C474.355,340.061,474.891,341.767,474.347,343.252z"/>
				</g>
			</g>
			<g id="XMLID_355_">
				<path id="XMLID_359_" style="fill:#FFFFFF;" d="M434.603,368.639c-0.011-0.001-0.021-0.003-0.032-0.005
					c-0.212-0.042-0.351-0.248-0.308-0.461c4.776-24.21,29.618-29.298,35.511-29.26c0.213,0.003,0.391,0.178,0.39,0.395
					c-0.001,0.217-0.178,0.391-0.395,0.39c-5.764-0.037-30.064,4.941-34.737,28.628
					C434.992,368.528,434.803,368.663,434.603,368.639z"/>
			</g>
			<g id="XMLID_344_">
				<path id="XMLID_347_" style="fill:#FFFFFF;" d="M461.662,354.751c-0.077-0.009-0.152-0.041-0.214-0.096
					c-0.067-0.059-6.875-5.942-17.376-3.683c-0.212,0.043-0.421-0.089-0.467-0.301c-0.046-0.212,0.09-0.421,0.301-0.466
					c10.907-2.344,17.991,3.801,18.062,3.863c0.162,0.144,0.177,0.392,0.034,0.554C461.913,354.72,461.786,354.765,461.662,354.751z
					"/>
			</g>
		</g>
	</g>
</g>
<g id="Device">
	<g id="Device_4_">
		<g id="Mobile">
			<path style="fill:#27DEBF;" d="M189.513,61.18L88.145,119.716c-3.291,1.899-5.263,5.236-5.461,9.061l0.007,235.677
				c0,3.713,2.292,8.047,5.12,9.68s7.726,1.452,10.942-0.404l101.002-58.313c3.202-1.849,5.822-6.387,5.822-10.084l-0.001-234.878
				c0-3.713-2.292-8.046-5.12-9.679C197.627,59.143,192.728,59.324,189.513,61.18z"/>
			<path style="opacity:0.4;" d="M97.354,374.394c-3.109,1.21-7.101,1.151-9.546-0.26c-2.823-1.63-5.118-5.966-5.118-9.681
				l-0.005-235.676c0.031-1.425,0.367-3.008,1.47-4.99l9.396,5.33c-1.735,2.197-2.655,4.458-2.71,6.785l0.001,233.273
				C90.841,373.646,93.665,375.764,97.354,374.394z"/>
			<path style="fill:#27DEBF;" d="M95.974,127.01c-2.823,1.63-5.134,5.631-5.134,8.892l-0.001,233.277
				c0,5.016,3.554,7.067,7.897,4.559l101.018-58.323c3.202-1.849,5.822-6.387,5.822-10.084l-0.001-234.878
				c0-3.698-2.62-5.21-5.822-3.361L95.974,127.01z"/>
			<path style="opacity:0.2;" d="M95.974,127.01c-2.823,1.63-5.134,5.631-5.134,8.892l-0.001,233.277
				c0,5.016,3.554,7.067,7.897,4.559l101.018-58.323c3.202-1.849,5.822-6.387,5.822-10.084l-0.001-234.878
				c0-3.698-2.62-5.21-5.822-3.361L95.974,127.01z"/>
			<path style="opacity:0.2;" d="M101.239,141.379c-3.056,1.764-5.533,6.055-5.533,9.583l0.001,200.729
				c0,3.528,2.477,4.958,5.533,3.194l95.025-54.869c3.043-1.757,5.533-6.069,5.533-9.583l-0.001-200.729
				c0-3.514-2.49-4.951-5.533-3.194L101.239,141.379z"/>
			<path style="fill:#27DEBF;" d="M194.794,285.822l-0.001-198.463l-93.554,54.02c-3.056,1.764-5.533,6.054-5.533,9.583
				l0.001,198.463l93.554-54.02C192.304,293.648,194.794,289.336,194.794,285.822z"/>
			<path style="opacity:0.7;fill:#FFFFFF;" d="M194.794,285.822l-0.001-198.463l-93.554,54.02c-3.056,1.764-5.533,6.054-5.533,9.583
				l0.001,198.463l93.554-54.02C192.304,293.648,194.794,289.336,194.794,285.822z"/>
			<g>
				<path style="fill:#455A64;" d="M140.833,108.728l16.842-9.724c1.005-0.58,1.819-0.168,1.819,0.92
					c0,1.088-0.814,2.441-1.819,3.021l-16.842,9.724c-1.005,0.58-1.819,0.168-1.819-0.92
					C139.014,110.66,139.828,109.308,140.833,108.728z"/>
				<g>
					<path style="fill:#455A64;" d="M169.732,92.018c0.943-0.544,1.707-0.103,1.707,0.985c0,1.088-0.764,2.412-1.707,2.956
						c-0.943,0.544-1.707,0.103-1.707-0.985C168.026,93.885,168.79,92.562,169.732,92.018z"/>
					<path style="fill:#455A64;" d="M176.564,88.079c0.943-0.544,1.707-0.103,1.707,0.985c0,1.089-0.764,2.412-1.707,2.956
						c-0.943,0.544-1.707,0.103-1.707-0.985C174.857,89.947,175.621,88.623,176.564,88.079z"/>
					<path style="fill:#455A64;" d="M121.944,119.612c0.943-0.544,1.707-0.103,1.707,0.985c0,1.088-0.764,2.412-1.707,2.956
						c-0.943,0.544-1.707,0.103-1.707-0.985C120.238,121.48,121.002,120.157,121.944,119.612z"/>
					<path style="fill:#455A64;" d="M128.776,115.674c0.943-0.544,1.707-0.103,1.707,0.985c0,1.088-0.764,2.412-1.707,2.956
						c-0.943,0.544-1.707,0.103-1.707-0.985C127.069,117.541,127.833,116.218,128.776,115.674z"/>
				</g>
			</g>
			<path style="opacity:0.3;" d="M205.555,69.967c-0.218-3.336-2.739-4.639-5.798-2.874L95.974,127.01
				c-0.399,0.222-1.564,1.028-2.424,2.107l-9.396-5.33c0.756-1.43,1.896-2.708,3.49-3.782l101.869-58.828
				c3.219-1.857,8.118-2.034,10.941-0.403C203.16,62.337,205.37,66.37,205.555,69.967z"/>
		</g>
	</g>
</g>
<g id="Features_1_">
	<g id="Features">
		<g>
			<g>
				<g>
					<path style="fill:#27DEBF;" d="M241.34,92.211c0-11.506,8.078-25.498,18.043-31.251c4.989-2.88,9.505-3.15,12.771-1.256
						c0.05,0.029,4.587,2.682,4.587,2.682s3.029,4.721,3.029,10.379c0,11.506-8.078,25.498-18.043,31.251
						c-4.923,2.842-10.503,2.566-10.503,2.566s-4.561-2.667-4.6-2.689C243.36,102.007,241.34,97.964,241.34,92.211z"/>
					<path style="opacity:0.15;" d="M246.542,74.576c-3.215,5.619-5.202,11.932-5.202,17.635c0,5.753,2.02,9.796,5.285,11.681
						c0.039,0.022,4.6,2.689,4.6,2.689s5.58,0.277,10.503-2.566c4.939-2.852,9.413-7.729,12.672-13.323L246.542,74.576z"/>
					<path style="opacity:0.4;fill:#FFFFFF;" d="M279.771,72.764c0,5.803-2.058,12.236-5.374,17.928l-27.853-16.115
						c3.272-5.717,7.813-10.716,12.839-13.618c4.989-2.88,9.505-3.149,12.771-1.256c0.05,0.029,4.587,2.682,4.587,2.682
						S279.771,67.106,279.771,72.764z"/>
					<path style="opacity:0.76;fill:#27DEBF;" d="M241.715,87.759c0.717-4.42,2.432-8.993,4.829-13.181l27.853,16.115
						c-2.429,4.17-5.531,7.942-9.001,10.773L241.715,87.759z"/>
					
						<ellipse transform="matrix(0.5 -0.866 0.866 0.5 58.8271 270.8582)" style="fill:#27DEBF;" cx="263.983" cy="84.483" rx="25.517" ry="14.732"/>
				</g>
				
					<ellipse transform="matrix(0.5 -0.866 0.866 0.5 58.8425 268.1947)" style="fill:none;stroke:#27DEBF;stroke-width:0.9083;stroke-miterlimit:10;" cx="261.683" cy="83.139" rx="33.014" ry="23.102"/>
				<g id="XMLID_800_">
					<g id="XMLID_801_">
						<g id="XMLID_802_">
							<g id="XMLID_816_">
								<g id="XMLID_899_">
									<path id="XMLID_900_" style="fill:#FAFAFA;" d="M270.293,88.53c-0.42,0.242-0.833,0.216-1.092-0.128
										c-1.107-1.477-2.922-1.693-4.854-0.577c-1.901,1.097-3.26,3.564-4.37,6.267c-0.428,1.043-1.259,1.705-1.855,1.478
										c-0.597-0.226-0.733-1.255-0.305-2.298c1.608-3.916,3.775-7.402,6.53-8.993c2.801-1.617,5.431-1.305,7.036,0.835
										c0.42,0.561,0.273,1.751-0.33,2.659C270.821,88.122,270.556,88.378,270.293,88.53z"/>
								</g>
								<g id="XMLID_819_">
									<path id="XMLID_847_" style="fill:#FAFAFA;" d="M255.362,92.89c-0.297,0.172-0.596,0.212-0.844,0.083
										c-0.567-0.295-0.56-1.329-0.182-2.391c2.337-6.556,6.015-10.322,10.011-12.63c3.988-2.303,7.733-2.111,10.275,0.527
										c0.467,0.485,0.387,1.649-0.179,2.599c-0.566,0.95-1.404,1.328-1.872,0.842c-2.034-2.111-5.032-2.265-8.224-0.422
										c-3.198,1.847-5.99,5.281-7.958,10.151C256.152,92.238,255.746,92.668,255.362,92.89z"/>
								</g>
								<g id="XMLID_817_">
									<path id="XMLID_818_" style="fill:#FAFAFA;" d="M251.738,90.095c-0.31,0.179-0.622,0.215-0.874,0.067
										c-0.553-0.325-0.532-1.378-0.127-2.428c3.559-9.227,8.395-13.097,13.611-16.108c5.178-2.99,10.115-2.869,13.545,0.33
										c0.486,0.453,0.434,1.604-0.117,2.57c-0.55,0.965-1.391,1.382-1.877,0.928c-2.925-2.729-7.135-2.832-11.552-0.282
										c-4.448,2.568-8.949,6.917-11.607,13.738C252.518,89.481,252.108,89.881,251.738,90.095z"/>
								</g>
							</g>
							<g id="XMLID_807_">
								<path id="XMLID_815_" style="fill:#FAFAFA;" d="M261.867,96.463c0-1.826,1.11-3.947,2.48-4.738
									c1.37-0.791,2.48,0.049,2.48,1.875c0,1.826-1.11,3.947-2.48,4.738C262.978,99.129,261.867,98.289,261.867,96.463z"/>
							</g>
						</g>
					</g>
				</g>
				
					<line style="fill:none;stroke:#27DEBF;stroke-width:0.9083;stroke-miterlimit:10;" x1="287.607" y1="74.583" x2="347.723" y2="39.875"/>
				<path style="fill:#27DEBF;" d="M343.332,42.286c0-2.657,1.865-5.888,4.166-7.216c2.301-1.328,4.166-0.251,4.166,2.405
					c0,2.657-1.865,5.888-4.166,7.216C345.197,46.02,343.332,44.943,343.332,42.286z"/>
			</g>
			<g>
				<path style="fill:#455A64;" d="M304.123,73.128l34.393-19.729c0.598-0.345,1.082-0.1,1.082,0.548
					c0,0.648-0.485,1.452-1.082,1.798l-34.393,19.729c-0.598,0.345-1.083,0.1-1.083-0.548
					C303.04,74.278,303.525,73.474,304.123,73.128z"/>
				<path style="fill:#455A64;" d="M304.123,80.164l34.393-19.729c0.598-0.345,1.082-0.1,1.082,0.548
					c0,0.648-0.485,1.452-1.082,1.798l-34.393,19.729c-0.598,0.345-1.083,0.1-1.083-0.548S303.525,80.509,304.123,80.164z"/>
				<path style="fill:#455A64;" d="M304.123,87.2l34.393-19.729c0.598-0.345,1.082-0.1,1.082,0.548c0,0.648-0.485,1.452-1.082,1.798
					l-34.393,19.729c-0.598,0.345-1.083,0.1-1.083-0.548S303.525,87.545,304.123,87.2z"/>
			</g>
		</g>
		<g>
			<g>
				<g>
					<path style="fill:#27DEBF;" d="M241.34,167.053c0-11.506,8.078-25.498,18.043-31.251c4.989-2.88,9.505-3.15,12.771-1.256
						c0.05,0.029,4.587,2.682,4.587,2.682s3.029,4.721,3.029,10.379c0,11.506-8.078,25.498-18.043,31.251
						c-4.923,2.842-10.503,2.566-10.503,2.566s-4.561-2.667-4.6-2.689C243.36,176.849,241.34,172.807,241.34,167.053z"/>
					<path style="opacity:0.15;" d="M246.542,149.418c-3.215,5.619-5.202,11.932-5.202,17.635c0,5.753,2.02,9.796,5.285,11.681
						c0.039,0.022,4.6,2.689,4.6,2.689s5.58,0.277,10.503-2.566c4.939-2.852,9.413-7.729,12.672-13.323L246.542,149.418z"/>
					<path style="opacity:0.4;fill:#FFFFFF;" d="M279.771,147.607c0,5.803-2.058,12.236-5.374,17.928l-27.853-16.115
						c3.272-5.717,7.813-10.716,12.839-13.618c4.989-2.88,9.505-3.149,12.771-1.256c0.05,0.029,4.587,2.682,4.587,2.682
						S279.771,141.949,279.771,147.607z"/>
					<path style="opacity:0.76;fill:#27DEBF;" d="M241.715,162.601c0.717-4.42,2.432-8.993,4.829-13.182l27.853,16.115
						c-2.429,4.17-5.531,7.942-9.001,10.773L241.715,162.601z"/>
					
						<ellipse transform="matrix(0.5 -0.866 0.866 0.5 -5.9883 308.2794)" style="fill:#27DEBF;" cx="263.983" cy="159.326" rx="25.517" ry="14.732"/>
				</g>
				
					<ellipse transform="matrix(0.5 -0.866 0.866 0.5 -5.9731 305.6163)" style="fill:none;stroke:#27DEBF;stroke-width:0.9083;stroke-miterlimit:10;" cx="261.683" cy="157.981" rx="33.014" ry="23.102"/>
				
					<line style="fill:none;stroke:#27DEBF;stroke-width:0.9083;stroke-miterlimit:10;" x1="287.622" y1="149.312" x2="347.723" y2="114.613"/>
				<path style="fill:#27DEBF;" d="M343.556,117.018c0-2.657,1.865-5.888,4.166-7.216c2.301-1.329,4.166-0.252,4.166,2.405
					c0,2.657-1.865,5.888-4.166,7.216S343.556,119.675,343.556,117.018z"/>
				<g id="XMLID_1283_">
					<path id="XMLID_1285_" style="fill:#FAFAFA;" d="M274.953,163.05l-21.94,12.667c-0.468,0.27-0.847-0.017-0.847-0.64v-17.531
						l11.174,6.06c0.379,0.17,0.908-0.135,1.287-0.743L275.8,143.9v17.531C275.8,162.055,275.421,162.78,274.953,163.05z"/>
					<path id="XMLID_1284_" style="fill:#FAFAFA;" d="M252.166,156.478l23.634-13.645l-11.209,17.019
						c-0.365,0.554-0.852,0.835-1.217,0.702L252.166,156.478z"/>
				</g>
			</g>
			<g>
				<path style="fill:#455A64;" d="M304.123,147.866l34.393-19.729c0.598-0.345,1.082-0.1,1.082,0.548s-0.485,1.452-1.082,1.798
					l-34.393,19.729c-0.598,0.345-1.083,0.1-1.083-0.548S303.525,148.211,304.123,147.866z"/>
				<path style="fill:#455A64;" d="M304.123,154.902l34.393-19.729c0.598-0.345,1.082-0.1,1.082,0.548s-0.485,1.452-1.082,1.798
					l-34.393,19.729c-0.598,0.345-1.083,0.1-1.083-0.548S303.525,155.247,304.123,154.902z"/>
				<path style="fill:#455A64;" d="M304.123,161.937l34.393-19.729c0.598-0.345,1.082-0.1,1.082,0.548s-0.485,1.452-1.082,1.798
					l-34.393,19.729c-0.598,0.345-1.083,0.1-1.083-0.548S303.525,162.283,304.123,161.937z"/>
			</g>
		</g>
		<g>
			<g>
				<g>
					<path style="fill:#27DEBF;" d="M241.34,241.896c0-11.506,8.078-25.498,18.043-31.251c4.989-2.88,9.505-3.15,12.771-1.256
						c0.05,0.029,4.587,2.682,4.587,2.682s3.029,4.721,3.029,10.379c0,11.506-8.078,25.498-18.043,31.251
						c-4.923,2.842-10.503,2.566-10.503,2.566s-4.561-2.667-4.6-2.689C243.36,251.691,241.34,247.649,241.34,241.896z"/>
					<path style="opacity:0.15;" d="M246.542,224.261c-3.215,5.619-5.202,11.932-5.202,17.635c0,5.753,2.02,9.796,5.285,11.681
						c0.039,0.022,4.6,2.689,4.6,2.689s5.58,0.277,10.503-2.566c4.939-2.852,9.413-7.729,12.672-13.323L246.542,224.261z"/>
					<path style="opacity:0.4;fill:#FFFFFF;" d="M279.771,222.449c0,5.803-2.058,12.236-5.374,17.928l-27.853-16.115
						c3.272-5.717,7.813-10.716,12.839-13.618c4.989-2.88,9.505-3.149,12.771-1.256c0.05,0.029,4.587,2.682,4.587,2.682
						S279.771,216.791,279.771,222.449z"/>
					<path style="opacity:0.76;fill:#27DEBF;" d="M241.715,237.443c0.717-4.42,2.432-8.993,4.829-13.182l27.853,16.115
						c-2.429,4.17-5.531,7.942-9.001,10.773L241.715,237.443z"/>
					
						<ellipse transform="matrix(0.5 -0.866 0.866 0.5 -70.8035 345.701)" style="fill:#27DEBF;" cx="263.983" cy="234.168" rx="25.517" ry="14.732"/>
				</g>
				
					<ellipse transform="matrix(0.5 -0.866 0.866 0.5 -70.7885 343.0383)" style="fill:none;stroke:#27DEBF;stroke-width:0.9083;stroke-miterlimit:10;" cx="261.683" cy="232.823" rx="33.014" ry="23.102"/>
				
					<line style="fill:none;stroke:#27DEBF;stroke-width:0.9083;stroke-miterlimit:10;" x1="287.619" y1="224.052" x2="347.723" y2="189.35"/>
				<path style="fill:#27DEBF;" d="M343.661,191.756c0-2.657,1.865-5.888,4.166-7.216c2.301-1.329,4.166-0.252,4.166,2.406
					c0,2.657-1.865,5.888-4.166,7.216S343.661,194.413,343.661,191.756z"/>
				<path id="XMLID_902_" style="fill:#FAFAFA;" d="M274.591,226.167l-0.228,0.132v-1.762c0-3.95-2.401-5.765-5.364-4.055
					c-1.385,0.8-2.607,2.429-3.342,4.263c-0.529-3.332-2.928-4.695-5.81-3.03c-3.559,2.055-6.444,7.567-6.444,12.312v4.374
					l-0.027,0.016c-2.261,1.306-4.095,4.808-4.095,7.824s1.833,4.401,4.095,3.096l21.215-12.248
					c2.262-1.306,4.095-4.808,4.095-7.824C278.685,226.248,276.852,224.862,274.591,226.167z M266.332,233.178v5.784l-4.696,2.712
					v-5.784l-2.111,1.219l4.46-8.376l4.46,3.226L266.332,233.178z"/>
			</g>
			<g>
				<path style="fill:#455A64;" d="M304.123,222.604l34.393-19.729c0.598-0.345,1.082-0.1,1.082,0.548s-0.485,1.452-1.082,1.798
					l-34.393,19.729c-0.598,0.345-1.083,0.1-1.083-0.548S303.525,222.949,304.123,222.604z"/>
				<path style="fill:#455A64;" d="M304.123,229.639l34.393-19.729c0.598-0.345,1.082-0.1,1.082,0.548s-0.485,1.452-1.082,1.798
					l-34.393,19.729c-0.598,0.345-1.083,0.1-1.083-0.548S303.525,229.984,304.123,229.639z"/>
				<path style="fill:#455A64;" d="M304.123,236.675l34.393-19.729c0.598-0.345,1.082-0.1,1.082,0.548s-0.485,1.452-1.082,1.798
					l-34.393,19.729c-0.598,0.345-1.083,0.1-1.083-0.548S303.525,237.02,304.123,236.675z"/>
			</g>
		</g>
	</g>
</g>
<g id="Speech_Bubble_1_">
	<g id="Speech_Bubbles">
		<g id="Speech_Bubble">
			<g>
				<path style="fill:#27DEBF;" d="M408.811,101.107c-0.113-0.065-0.212-0.16-0.286-0.288l-3.582-6.203V91.2l10.545-4.123v3.416
					l-1.278,3.69l6.267-3.618l0.38,2.117l-3.732,12.187c-0.171,0.494-0.734,0.653-1.132,0.422
					C415.882,105.227,409.209,101.336,408.811,101.107z"/>
				<path style="opacity:0.3;" d="M408.811,101.107c-0.113-0.065-0.212-0.16-0.286-0.288l-3.582-6.203V91.2l10.545-4.123v3.416
					l-1.278,3.69l6.267-3.618l0.38,2.117l-3.732,12.187c-0.171,0.494-0.734,0.653-1.132,0.422
					C415.882,105.227,409.209,101.336,408.811,101.107z"/>
				<path style="fill:#27DEBF;" d="M420.478,90.565l0.38,2.117l-3.732,12.187c-0.219,0.633-1.081,0.715-1.416,0.135l-4.048-7.012
					l0.467-2.607L420.478,90.565z"/>
				<path style="opacity:0.2;" d="M420.478,90.565l0.38,2.117l-3.732,12.187c-0.219,0.633-1.081,0.715-1.416,0.135l-4.048-7.012
					l0.467-2.607L420.478,90.565z"/>
			</g>
			<g id="XMLID_383_">
				<path id="XMLID_394_" style="fill:#27DEBF;" d="M435.016,38.524c0-2.177-1.528-4.824-3.414-5.913l0.003,0.006
					c-1.885-1.089-4.942-1.089-6.827,0l-31.98,18.334c-1.885,1.089-3.414,3.735-3.414,5.913v42.286c0,2.177,1.529,4.824,3.414,5.913
					l-0.003-0.006c1.885,1.089,4.942,1.089,6.827,0l32.299-18.566c3.067-1.748,3.095-3.503,3.095-5.681L435.016,38.524z"/>
				<path id="XMLID_389_" style="opacity:0.2;" d="M435.016,38.524c0-2.177-1.528-4.824-3.414-5.913l0.003,0.006
					c-1.885-1.089-4.942-1.089-6.827,0l-31.98,18.334c-1.885,1.089-3.414,3.735-3.414,5.913v42.286c0,2.177,1.529,4.824,3.414,5.913
					l-0.003-0.006c1.885,1.089,4.942,1.089,6.827,0l32.299-18.566c3.067-1.748,3.095-3.503,3.095-5.681L435.016,38.524z"/>
				<path id="XMLID_387_" style="opacity:0.2;" d="M389.385,99.149c0,2.177,1.529,4.824,3.414,5.913l-0.003-0.006
					c1.704,0.984,4.356,1.081,6.244,0.286c-1.607,0.607-2.83-0.31-2.83-2.257l0-42.286c0-1.089,0.382-2.295,1-3.365l-6.824-3.936
					c-0.618,1.07-1,2.276-1,3.364V99.149z"/>
				<path id="XMLID_385_" style="fill:#27DEBF;" d="M434.904,37.554c-0.398-1.449-1.72-1.911-3.296-1.003l-31.987,18.34
					c-0.939,0.542-1.799,1.465-2.405,2.548l-6.821-3.932c0.621-1.083,1.465-2.007,2.404-2.548l31.971-18.34
					c1.895-1.083,4.953-1.083,6.832,0l0.004-0.002C433.217,33.54,434.57,35.611,434.904,37.554z"/>
			</g>
		</g>
		<g>
			<path style="fill:#FAFAFA;" d="M415.744,52.483c1.248-0.72,2.424-1.132,3.527-1.239c1.103-0.104,2.06,0.081,2.875,0.553
				c0.814,0.476,1.454,1.219,1.922,2.236c0.468,1.016,0.703,2.297,0.703,3.841c0,1.235-0.135,2.393-0.401,3.474
				c-0.267,1.081-0.608,2.118-1.02,3.11c-0.413,0.994-0.864,1.932-1.355,2.815c-0.49,0.883-0.964,1.749-1.421,2.596
				c-0.456,0.847-0.868,1.695-1.237,2.541c-0.367,0.847-0.617,1.687-0.752,2.519c-0.066,0.416-0.173,0.802-0.317,1.16
				c-0.146,0.36-0.341,0.609-0.585,0.75l-4.08,2.355c-0.245,0.141-0.456,0.126-0.635-0.046c-0.179-0.17-0.268-0.445-0.268-0.823
				c0-1.132,0.15-2.232,0.452-3.298c0.301-1.066,0.673-2.096,1.12-3.092c0.445-0.994,0.93-1.952,1.455-2.872
				c0.523-0.92,1.008-1.792,1.454-2.616c0.445-0.824,0.819-1.613,1.12-2.37c0.3-0.758,0.452-1.479,0.452-2.166
				c0-0.995-0.246-1.634-0.736-1.917c-0.49-0.284-1.249-0.128-2.273,0.463c-1.003,0.579-1.721,1.225-2.157,1.939
				c-0.434,0.715-0.752,1.404-0.953,2.069c-0.201,0.665-0.374,1.271-0.518,1.818c-0.146,0.548-0.43,0.942-0.853,1.187l-4.079,2.354
				c-0.201,0.115-0.374,0.113-0.518-0.01c-0.146-0.122-0.218-0.354-0.218-0.698c0.022-1.212,0.245-2.603,0.669-4.168
				c0.423-1.566,1.031-3.134,1.822-4.706c0.791-1.572,1.755-3.047,2.892-4.424C412.969,54.446,414.273,53.332,415.744,52.483z
				 M418.653,85.959c0,0.378-0.09,0.755-0.268,1.133c-0.179,0.378-0.389,0.637-0.635,0.778l-4.211,2.431
				c-0.246,0.143-0.457,0.128-0.636-0.044c-0.179-0.172-0.267-0.445-0.267-0.825v-5.198c0-0.377,0.089-0.755,0.267-1.132
				c0.179-0.377,0.389-0.636,0.636-0.779l4.211-2.431c0.246-0.141,0.456-0.126,0.635,0.045c0.179,0.171,0.268,0.446,0.268,0.824
				V85.959z"/>
		</g>
	</g>
</g>
<g id="Character_2">
	<g id="Character_6_">
		<g id="XMLID_266_">
			<path id="XMLID_335_" style="fill:#FFA8A7;" d="M426.148,170.928c8.625-2.24,14.535,1.186,17.081,9.828
				c2.389,8.111,7.3,27.912,8.566,33.156c0.567,2.35-17.469,22.839-16.829,22.537c0.197-0.093-5.657-10.182-5.657-10.182
				l8.795-13.158l-5.214-14.479L426.148,170.928z"/>
		</g>
		<g>
			<g id="XMLID_356_">
				<g id="XMLID_357_">
					<polygon id="XMLID_358_" style="fill:#FFA8A7;" points="408.395,165.646 410.011,182.49 425.066,181.554 423.861,162.874 					
						"/>
				</g>
			</g>
			<g id="XMLID_333_">
				<g id="XMLID_345_">
					<path id="XMLID_346_" style="fill:#F28F8F;" d="M397.227,147.163c0,0-3.334,4.954-2.899,5.478
						c0.435,0.524,2.554,1.082,2.554,1.082L397.227,147.163z"/>
				</g>
				<path style="fill:#263238;" d="M433.123,132.408c-0.023-0.456-0.063-0.907-0.233-1.356c-0.332-0.875-0.937-1.684-1.566-2.366
					c-1.28-1.387-2.945-2.399-4.685-3.101c-2.713-1.096-5.66-1.54-8.578-1.458c-2.806,0.079-5.433,0.629-8.253,0.117
					c-2.12-0.385-4.216-0.988-6.37-1.049c-2.154-0.061-4.452,0.51-5.899,2.106c-1.056,1.163-1.55,2.767-1.553,4.338
					c-0.003,1.571,0.452,3.115,1.102,4.544c-2.094,1.489-2.581,4.558-1.685,6.967c1.227,3.3,4.406,5.305,6.977,7.476
					c2.02,1.705,3.955,3.511,5.797,5.407c0.879,0.904,1.826,1.811,2.605,2.802c0.052,0.066,0.095,0.138,0.145,0.205
					c-1.065,0.213-2.122-0.17-2.122-0.17s-0.414,7.465,4.874,9.872c0,0,4.986,1.146,10.393-0.598
					c3.424-2.529,6.584-6.348,9.214-10.71C438.523,146.748,437.573,137.548,433.123,132.408z"/>
				<g id="XMLID_338_">
					<path style="fill:#FFA8A7;" d="M413.628,155.389c-0.683,1.005-1.65,1.443-2.693,1.65c-1.07,0.219-2.127-0.168-2.127-0.168
						s-0.309,5.658,3.093,8.687c-0.696,0.283-1.327,0.503-1.869,0.67c-3.029,0.915-8.854,0.528-9.975-0.528
						c-1.675-1.585-4.408-5.761-2.926-17.811c0.606-4.923,1.933-8.313,3.519-10.71c0.245,1.714,1.418,3.261,2.99,3.944
						c-0.876,1.186-1.186,2.771-0.812,4.189c0.438,1.701,1.727,3.042,2.964,4.279c0.077,0.077,0.155,0.155,0.258,0.18
						c0.18,0.064,0.954,0,1.07-0.155c1.07-1.572,2.539-3.402,5.426-2.449C415.884,148.262,415.716,152.334,413.628,155.389z"/>
				</g>
				<path style="fill:#F28F8F;" d="M400.365,165.911c1.364,0.751,5.234,1.062,8.117,0.641l-0.087-2.163c0,0-1.612,0.747-3.841,1.252
					C402.338,166.142,400.389,165.914,400.365,165.911z"/>
				<path id="XMLID_334_" style="fill:#263238;" d="M405.563,153.839c-1.48-0.526-2.247-2.132-1.712-3.587
					c0.535-1.455,2.169-2.209,3.65-1.683L405.563,153.839z"/>
			</g>
			<path style="fill:#263238;" d="M439.14,120.992c-1.651-0.394-3.3-0.298-4.808,0.178c-0.738-0.936-1.766-1.653-3.016-1.951
				c-2.95-0.704-5.912,1.117-6.615,4.067c-0.639,2.681,0.817,5.352,3.3,6.348c-0.071,3.913,2.419,7.5,6.224,8.744
				c0.1,2.393,1.744,4.531,4.189,5.114c2.95,0.704,5.912-1.117,6.615-4.067c0.361-1.513,0.05-3.024-0.729-4.237
				c0.711-0.956,1.246-2.067,1.54-3.299C446.999,127.03,443.999,122.151,439.14,120.992z"/>
		</g>
		<g id="XMLID_272_">
			<g id="XMLID_328_">
				<path id="XMLID_332_" style="fill:#263238;" d="M409.503,383.775c0,0,0.938,2.667,1.461,5.004
					c0.416,1.858,1.02,4.966,0.394,6.383c-0.626,1.416-3.378,2.418-7.288,2.993c-3.144,0.463-5.687,1.883-9.668,3.491
					c-2.995,1.21-5.58,2.076-10.929,1.78c-5.085-0.281-7.277-2.654-7.874-4.099c-0.597-1.445-1.115-3.43,8.344-6.663
					c0.078-0.027,11.444-3.978,15.366-8.481L409.503,383.775z"/>
			</g>
			<path id="XMLID_327_" style="fill:#FFA8A7;" d="M409.508,384.038l-1.821-0.19l-8.377,0.335
				c-3.922,4.502-15.288,8.454-15.366,8.481c-0.538,0.184-1.039,0.363-1.514,0.538c-1.625,1.365-0.183,3.608,3.755,3.881
				c3.938,0.272,16.089-4.084,18.771-5.442C407.639,390.284,409.578,387.637,409.508,384.038z"/>
			<g id="XMLID_325_">
				<path id="XMLID_326_" style="fill:#FFA8A7;" d="M409.438,380.439c0,0,0.034,2.291,0.07,3.599
					c0.037,1.308-1.471,3.289-5.475,3.224c-2.812-0.046-4.789-0.763-4.723-3.079l-0.065-3.336L409.438,380.439z"/>
			</g>
			<g id="XMLID_314_">
				<path id="XMLID_315_" style="fill:#263238;" d="M436.085,367.662c0.565,0.053,0.72,0.839,1.159,4.098
					c0.279,2.069,0.784,4.893-1.229,6.301c-2.699,1.888-6.931,1.317-8.482-0.661c-1.936-2.468-3.241-4.639-6.009-7.654
					c-2.401-2.616-5.509-4.953-6.628-8.555c-1.253-4.036-0.06-5.882,2.665-6.16c2.303-0.234,5.079,0.605,7.664,2.658
					c1.09,0.64,2.072,1.207,2.822,1.423C430.128,359.711,435.31,367.589,436.085,367.662z"/>
			</g>
			<g id="XMLID_306_">
				<path id="XMLID_313_" style="fill:#FFA8A7;" d="M436.1,365.647l-0.025,3.385c0,0-2.178,4.474-8.555,0.168
					c-0.146-0.327-0.838-6.862-0.838-6.862L436.1,365.647z"/>
			</g>
			<path id="XMLID_302_" style="fill:#FFA8A7;" d="M428.048,359.113c-0.75-0.216-1.732-0.783-2.822-1.423l0,0
				c-2.552-0.763-7.878,0.282-5.398,3.92c2.667,3.912,5.373,5.918,7.691,7.59c2.873,1.347,3.836-0.41,3.836-0.41l-1.162-7.914
				C429.355,359.954,428.593,359.269,428.048,359.113z"/>
			<g id="XMLID_291_">
				<path id="XMLID_297_" style="fill:#27DEBF;" d="M439.779,318.748c-1.468-11.071-4.003-17.44-4.003-17.44
					s1.837-14.977,3.234-29.342c3.278-33.715,0.644-34.207-4.341-45.808c0,0-43.232-4.704-44.685,13.266
					c-1.809,22.38,0.052,65.668,0.588,73.582c0.536,7.915,1.245,11.483,3.921,28.034c2.036,12.592,4.274,40.173,4.274,40.173
					c5.719,3.146,11.086-0.782,11.086-0.782s4.74-34.067,4.436-43.197c-0.371-11.148-3.314-19.948-3.314-19.948
					s2.953-36.471,3.778-42.274c0,0,1.265,11.586,1.801,19.501c0.536,7.914,2.829,15.487,5.009,30.197
					c1.891,12.76,5.14,39.416,5.14,39.416c5.719,3.147,9.638,1.59,9.638,1.59S441.247,329.819,439.779,318.748z"/>
			</g>
			<g id="XMLID_281_" style="opacity:0.4;">
				<path id="XMLID_283_" d="M439.779,318.748c-1.468-11.071-4.003-17.44-4.003-17.44s1.837-14.977,3.234-29.342
					c3.278-33.715,0.644-34.207-4.341-45.808c0,0-43.232-4.704-44.685,13.266c-1.809,22.38,0.052,65.668,0.588,73.582
					c0.536,7.915,1.245,11.483,3.921,28.034c2.036,12.592,4.274,40.173,4.274,40.173c5.719,3.146,11.086-0.782,11.086-0.782
					s4.74-34.067,4.436-43.197c-0.371-11.148-3.314-19.948-3.314-19.948s2.953-36.471,3.778-42.274c0,0,1.265,11.586,1.801,19.501
					c0.536,7.914,2.829,15.487,5.009,30.197c1.891,12.76,5.14,39.416,5.14,39.416c5.719,3.147,9.638,1.59,9.638,1.59
					S441.247,329.819,439.779,318.748z"/>
			</g>
			<path id="XMLID_278_" style="opacity:0.15;" d="M414.752,275.013l1.765-15.774c0,0,8.573,0.35,16.635-6.154
				c0,0-2.717,5.804-14.126,8.541l-1.914,16.229l-0.465,17.843C416.133,288.734,415.504,281.837,414.752,275.013z"/>
		</g>
		<g id="XMLID_269_">
			<g id="XMLID_270_">
				<path id="XMLID_271_" style="fill:#455A64;" d="M436.699,177.16c-1.465-4.346-5.645-7.335-10.716-6.198l-1.579,0.337
					c-0.463,2.42-8.257,4.485-15.275,2.008l-6.65,1.058c-6.208,2.893-10.732,10.286-13.997,17.63
					c-2.293,5.159-1.252,10.475,3.432,14.559c0,0-0.578,8.807-0.879,13.741c-0.449,7.367-0.929,14.731-1.442,22.097
					c0,0,10.986,5.887,28.327,3.609c15.518-2.039,22.406-11.179,21.871-10.005c0,0-3.219-11.2-8.865-22.58
					C439.098,193.339,438.873,183.61,436.699,177.16z"/>
			</g>
		</g>
		<path id="XMLID_707_" style="fill:#FFA8A7;" d="M363.273,211.339c-3.817-3.075-7.472-6.353-11.186-9.55
			c-2.964-2.551-5.946-5.081-8.947-7.589c-0.745-0.623-1.472-1.292-2.25-1.874c-0.711-0.533-1.558-0.925-2.335-1.363
			c-1.703-0.959-3.406-1.919-5.122-2.853c-1.056-0.575-2.002-1.06-2.971-1.824c-1.023-0.806-1.997-1.674-2.914-2.598
			c-0.729-0.733-1.442-1.536-1.747-2.524c-0.201-0.65-0.211-1.342-0.205-2.023c0.006-0.645,0.03-1.308,0.282-1.902
			c0.411-0.97,1.432-1.25,1.931-2.064c0.458-0.748,0.13-1.786,0.763-2.5c0.356-0.402,0.903-0.559,1.393-0.776
			c0.967-0.427,1.137-0.955,0.711-1.836c-0.415-0.86-0.869-1.702-1.332-2.537c-1.417-2.554-1.945-4.595-0.69-5.262
			c1.741-0.926,3.26,1.718,5.305,4.747c2.06,3.052,3.784,6.122,6.69,8.475c0.226-1.637,0.453-3.274,0.679-4.911
			c0.088-0.638,0.187-1.304,0.564-1.827c0.376-0.523,1.124-0.839,1.685-0.522c0.481,0.271,0.646,0.871,0.768,1.409
			c0.358,1.583,0.716,3.165,1.075,4.748c0.421,1.862,0.853,3.749,1.759,5.429c1.262,2.34,3.352,4.108,5.449,5.743
			c5.977,4.663,12.255,8.899,18.581,13.04c0.002,0.002,0.037,0.026,0.038,0.025c0,0,15.156-14.422,19.35-18.36
			c4.194-3.938,6.795-5.528,13.084-6.088c0,0,5.003,11.369-2.106,20.159c0,0-23.014,17.546-27.432,19.488
			C370.412,215.46,367.17,214.478,363.273,211.339z"/>
		<path id="XMLID_268_" style="fill:#37474F;" d="M409.328,246.518c2.649,0.031,5.519-0.112,8.593-0.516
			c14.15-1.859,21.265-9.612,21.854-10.082c-0.209-0.954-3.461-11.644-8.848-22.503c4.13-10.145,6.112-17.645,6.785-23.418
			c-0.674,4.208-6.895,20.511-15.033,25.4c0,0,4.592,0.715,8.522,6.109C435.124,226.892,431.905,245.36,409.328,246.518z"/>
	</g>
</g>
<g id="Character_1">
	<g id="Character_8_">
		<path style="fill:#FFA8A7;" d="M79.414,213.23c0.04-1.541,0.228-3.081,0.52-4.595c0.271-1.401,0.94-2.861,1.943-3.671
			c0.482-0.389,0.806-0.389,0.806-0.389l0.002,5.367c0.641,1.66,1.936,3.01,3.457,3.908c0.277,0.164,0.568,0.315,0.884,0.378
			c0.316,0.063,0.662,0.03,0.928-0.153c0.529-0.363,0.313-0.871,0.137-1.358c-0.543-1.504-0.749-3.129-0.599-4.72
			c0.039-0.415,0.11-0.847,0.357-1.183c0.247-0.336,0.721-0.539,1.096-0.356c0.282,0.138,0.434,0.444,0.566,0.73
			c0.8,1.732,1.456,3.637,2.636,5.136c2.271,2.878,2.159,5.255,4.377,8.04c0.827,1.041,10.053,8.992,17.323,14.681
			c13.671-13.784,21.513-23.658,26.791-21.493c5.924,1.228,9.445,7.957,2.136,15.227c-5.881,5.849-19.302,16.452-24.044,19.524
			c-3.738,2.421-7.141,4.392-11.812-0.31c-6.023-6.064-9.371-10.619-11.88-13.496c-1.979-2.266-4.407-4.19-6.907-5.874
			c-1.105-0.744-2.244-1.437-3.34-2.195c-0.96-0.664-1.718-1.515-2.401-2.465c-1.332-1.853-2.196-4.024-2.627-6.258
			C79.479,216.23,79.376,214.73,79.414,213.23z"/>
		<path style="fill:#F28F8F;" d="M113.848,235.043c-1.944,1.46-3.743,5.651-3.743,5.651s-0.011-3.917,2.334-6.771L113.848,235.043z"
			/>
		<path style="fill:#27DEBF;" d="M145.815,214.965c-3.385-2.65-8.512-3.75-13.747,0.723c-4.848,4.141-15.428,14.826-15.428,14.826
			s-0.244,4.194,2.878,8.812c3.122,4.618,5.704,5.21,5.704,5.21l16.972-13.769L145.815,214.965z"/>
		<g id="XMLID_434_">
			<g>
				<g id="XMLID_493_">
					<path id="XMLID_554_" style="fill:#455A64;" d="M200.42,440.323c0.496,2.454-0.393,3.735-3.56,5.564
						c-3.167,1.829-8.139,2.456-13.368,0.935c-5.229-1.521-7.728-3.804-9.902-4.347c-2.173-0.543-7.55-0.59-9.697-1.219
						c-2.147-0.629-2.115-1.73-2.104-4.313L200.42,440.323z"/>
					<g id="XMLID_550_">
						<path id="XMLID_553_" style="fill:#27DEBF;" d="M163.893,424.498c0,0-1.02,3.092-1.57,5.796
							c-0.437,2.149-1.063,5.742-0.31,7.359c0.753,1.617,3.689,2.66,8.241,2.626c2.948-0.022,7.543,1.979,10.689,3.735
							c3.249,1.813,6.774,1.819,10.211,1.416c4.05-0.475,8.246-2.824,8.901-4.501c0.655-1.677,0.824-2.936-8.72-7.003
							c-0.088-0.037-11.076-4.091-15.694-9.187L163.893,424.498z"/>
					</g>
					<g id="XMLID_517_" style="opacity:0.3;">
						<path id="XMLID_537_" d="M163.893,424.498c0,0-1.02,3.092-1.57,5.796c-0.437,2.149-1.063,5.742-0.31,7.359
							c0.753,1.617,3.689,2.66,8.241,2.626c2.948-0.022,7.543,1.979,10.689,3.735c3.249,1.813,6.774,1.819,10.211,1.416
							c4.05-0.475,8.246-2.824,8.901-4.501c0.655-1.677,0.824-2.936-8.72-7.003c-0.088-0.037-11.076-4.091-15.694-9.187
							L163.893,424.498z"/>
					</g>
					<path id="XMLID_509_" style="fill:#FAFAFA;" d="M182.245,444.639c0,0,0.818-8.195,7.48-10.539
						c6.022-2.118,11.281,2.344,10.695,6.223C200.026,442.932,192.695,448.859,182.245,444.639z"/>
					<path id="XMLID_497_" style="fill:#FAFAFA;" d="M188.039,432.565c0,0-2.147,0-4.547,2.019
						c-1.921,1.616-1.977,2.691-1.977,2.691c-0.439,0.673-1.85,0.304-1.738-0.831c0,0,0.447-4.133,5.887-4.98
						C185.665,431.464,187.161,431.091,188.039,432.565z"/>
					<path id="XMLID_496_" style="fill:#FAFAFA;" d="M184.229,430.741c0,0-2.191-0.195-4.591,1.824
						c-1.921,1.617-1.932,2.886-1.932,2.886c-0.439,0.673-1.85,0.304-1.738-0.831c0,0,0.447-4.133,5.887-4.98
						C181.855,429.64,183.351,429.268,184.229,430.741z"/>
					<path id="XMLID_494_" style="fill:#FAFAFA;" d="M180.449,428.583c0,0-2.172-0.345-4.705,1.506
						c-2.027,1.481-2.125,2.747-2.125,2.747c-0.484,0.641-1.866,0.177-1.677-0.948c0,0,0.728-4.093,6.213-4.566
						C178.156,427.323,179.674,427.053,180.449,428.583z"/>
				</g>
				<g id="XMLID_486_">
					<path id="XMLID_490_" style="fill:#FFA8A7;" d="M163.893,417.543c0,0,0.013,5.749,0,7.257c-0.013,1.508,1.768,3.755,6.377,3.59
						c3.238-0.116,5.498-0.986,5.37-3.652v-6.6L163.893,417.543z"/>
				</g>
			</g>
			<g>
				<path id="XMLID_478_" style="fill:#455A64;" d="M159.149,397.515c0.164,2.076,0.429,3.943-0.377,6.226
					c-1.156,3.277-3.601,4.778-5.037,6.07c-1.436,1.293-3.034,3.204-4.183,5.07c-1.022,1.659-2.18,3.563-4.365,5.456
					c-1.364,1.182-5.202,1.287-7.053,0.51c-1.851-0.778-2.472-1.475-2.358-4.432c0.111-2.888,9.076-3.964,9.076-3.964
					L159.149,397.515z"/>
				<path id="XMLID_475_" style="fill:#27DEBF;" d="M136.935,407.6c-0.765,0.29-0.958,1.746-1.074,4.642
					c-0.088,2.192-1.008,5.399,2.01,6.78c2.435,1.114,6.326,0.374,7.971-1.692c2.053-2.578,3.441-4.847,6.37-7.992
					c2.542-2.729,5.188-3.648,6.317-9.102c0.726-3.506,0.155-4.958-2.204-5.964c-3.244-1.382-8.34,3.135-10.883,3.846
					C143.254,398.731,137.7,407.31,136.935,407.6z"/>
				<path id="XMLID_473_" style="opacity:0.3;" d="M136.935,407.6c-0.765,0.29-0.958,1.746-1.074,4.642
					c-0.088,2.192-1.008,5.399,2.01,6.78c2.435,1.114,6.326,0.374,7.971-1.692c2.053-2.578,3.441-4.847,6.37-7.992
					c2.542-2.729,5.188-3.648,6.317-9.102c0.726-3.506,0.155-4.958-2.204-5.964c-3.244-1.382-8.34,3.135-10.883,3.846
					C143.254,398.731,137.7,407.31,136.935,407.6z"/>
				<path id="XMLID_472_" style="fill:#FAFAFA;" d="M145.443,398.118c0.136-0.038,0.282-0.092,0.432-0.15
					c4.682,0.407,6.553,3.631,7.023,4.606c0.433,0.954-0.901,1.697-1.694,0.954c-1.812-3.602-5.535-4.401-7.018-4.578
					C144.666,398.524,145.099,398.215,145.443,398.118z"/>
				<path id="XMLID_468_" style="fill:#FAFAFA;" d="M143.346,399.769c4.325,0.58,6.071,3.627,6.525,4.567
					c0.433,0.954-0.901,1.697-1.694,0.954c-1.437-2.857-4.081-3.951-5.853-4.37C142.672,400.509,143.016,400.118,143.346,399.769z"
					/>
				<g id="XMLID_440_">
					<path id="XMLID_442_" style="fill:#FFA8A7;" d="M136.499,402.368l0.436,6.106c0,0,3.697,2.841,8.984,0.243
						c0.156-0.343,0.606-5.802,0.606-5.802L136.499,402.368z"/>
				</g>
				<path id="XMLID_439_" style="fill:#FAFAFA;" d="M157.041,404.272c0,0-0.255-6.491-9.029-7.393l-0.503,0.285
					c0,0,1.398-2.545,4.316-3.332c2.918-0.787,5.221-0.033,6.752,1.94C160.109,397.744,158.557,403.006,157.041,404.272z"/>
			</g>
			<g id="XMLID_483_">
				<path id="XMLID_438_" style="fill:#37474F;" d="M133.939,361.669c1.253-10.689,3.468-17.071,3.468-17.071
					s-1.494-14.628-2.366-28.509c-0.383-6.104-0.575-12.852-0.694-18.961c-0.172-8.895,0.77-16.287,1.525-20.227
					c0,0,42.956-10.12,44.211,7.209c1.411,19.494,1.527,63.391,1.242,68.827c-0.401,7.634-0.418,15.572-1.714,27.96
					c-1.279,12.226-3.424,39.757-3.424,39.757c-6.193,2.223-12.943,0-12.943,0s-3.589-33.232-3.43-42.034
					c0.195-10.748,2.902-19.269,2.902-19.269l-5.78-48.315c0,0-0.578,21.489-0.979,29.124c-0.401,7.634-1.449,12.293-3.334,26.498
					c-1.636,12.323-5.881,37.174-5.881,37.174c-5.662,2.259-10.285,0-10.285,0S132.685,372.359,133.939,361.669z"/>
			</g>
			<g id="XMLID_436_">
				<path id="XMLID_437_" style="fill:#263238;" d="M140.116,300.915c0,0,5.632,7.569,12.875,10.818c0,0,3.15,26.608,3.125,26.079
					l0.821-26.777C156.937,311.036,146.113,306.004,140.116,300.915z"/>
			</g>
		</g>
		<g>
			<polygon id="XMLID_433_" style="fill:#FFA8A7;" points="162.784,207.456 162.043,223.292 146.343,222.454 146.827,204.048 			"/>
			<path id="XMLID_420_" style="fill:#455A64;" d="M131.809,222.839c1.314-4.32,6.536-10.181,12.003-9.292
				c1.27,0.206,1.545,0.388,2.749,0.6c0.656,2.67,8.824,3.666,15.815,2.02c2.107,0.553,9.292,3.097,11.047,3.68
				c5.023,1.668,5.878,6.597,6.66,22.982c0,0,0.796,33.303,0.853,46.794c-14.287,6.631-25.145,5.015-32.376,3.606
				c-15.051-2.935-14.308-5.37-14.308-5.37c0.639-8.988,0.251-16.208,0-25.086c-0.189-6.666-0.802-11.491-2.335-18.913
				C129.853,233.861,130.907,225.805,131.809,222.839z"/>
			<g>
				<path style="fill:#FFA8A7;" d="M249.683,257.909c-0.037-0.563-0.486-1.03-1-1.262c-0.514-0.232-1.09-0.273-1.652-0.321
					c-3.354-0.286-6.679-0.905-9.911-1.847c-0.86-0.25-1.841-0.652-2.063-1.52c-0.268-1.049,0.731-1.932,1.435-2.755
					c0.789-0.924,1.286-2.088,1.429-3.293c0.085-0.717-0.141-2.228-1.301-1.479c-0.532,0.344-1.968,1.443-5.331,2.884
					c-3.371,1.441-4.824,3.051-8.104,4.436c-1.224,0.519-12.716,3.617-21.821,5.135c-12.147-14.213-21.032-35.542-26.703-36.166
					c-5.79-1.756-9.687,10.675-5.578,19.413c3.53,7.506,17.73,22.727,20.691,26.053c2.961,3.327,5.129,7.279,11.479,5.384
					c8.19-2.444,13.309-4.841,16.888-6.168c2.317-0.864,4.999-2.131,7.481-2.402c1.353-0.148,2.525-0.234,3.843,0.06
					c1.435,0.321,2.866,0.662,4.291,1.024c2.178,0.554,4.369,0.85,6.629,0.921c1.064,0.034,2.178-0.007,3.116-0.512
					c0.691-0.371,1.222-0.962,1.705-1.567c0.428-0.536,1.008-0.882,1.448-1.415c0.618-0.748,0.973-1.788,0.66-2.707
					c0.542-0.115,1.097-0.236,1.565-0.533C249.35,258.978,249.72,258.462,249.683,257.909z"/>
				<path style="fill:#27DEBF;" d="M173.423,219.847c5.235,1.03,5.883,3.091,9.323,8.925c3.439,5.834,11.109,19.048,11.109,19.048
					s-2.156,7.772-11.923,11.453c0,0-9.105-10.422-13.037-17.431C164.961,234.832,165.579,223.472,173.423,219.847z"/>
			</g>
			<g id="XMLID_410_">
				<g id="XMLID_413_">
					<path id="XMLID_418_" style="fill:#F28F8F;" d="M173.344,188.024c0,0,3.742,5.678,3.316,6.236
						c-0.426,0.558-3.18,1.061-3.18,1.061L173.344,188.024z"/>
				</g>
				<g id="XMLID_411_">
					<path id="XMLID_412_" style="fill:#FFA8A7;" d="M162.953,172.315c7.573,1.598,9.76,4.926,10.473,16.957
						c0.746,12.571-0.538,16.522-2.189,18.215c-1.115,1.142-7.31,1.348-10.435,0.487c-3.912-1.078-12.751-4.211-16.891-10.534
						c-4.869-7.44-6.149-17.522-0.935-21.658C150.312,169.961,159.871,171.665,162.953,172.315z"/>
				</g>
				<path style="fill:#F28F8F;" d="M162.647,208.324c0,0-2.119-0.373-3.989-1.006c0,0,1.096,1.485,3.801,2.191L162.647,208.324z"/>
			</g>
			<g id="XMLID_392_">
				<g id="XMLID_403_">
					<g id="XMLID_405_">
						<path id="XMLID_407_" style="fill:#263238;" d="M174.956,176.963c-0.564,0.597-1.242,1.083-1.933,1.53
							c-1.013,0.656-2.071,1.243-3.164,1.756c-1.025,0.482-2.148,0.777-3.075,1.439c-1.374,0.98-1.551,2.279-1.586,3.858
							c-0.023,1.034-0.02,2.316-0.036,3.706c-0.023,2.087-1.356,3.674-2.005,0.877c0,0-1.197-4.647-5.113-4.063
							c-3.942,0.588-4.261,4.997-2.393,8.461c1.136,2.107,4.179,1.556,4.179,1.556s0.69,5.792-4.09,10.536
							c0,0-3.106,1.623-9.265,0.311c-4.223-5.806-6.876-8.626-9.127-13.637c-4.76-10.599-2.463-17.249,1.218-20.051
							c0.731-4.884,4.577-7.074,8.962-8.081c6.557-1.506,12.688,2.386,19.172,0.934c1.054-0.236,2.144-0.489,3.163-0.83
							c0.416-0.139,0.884-0.277,1.28-0.088c0.503,0.24,0.65,0.892,0.612,1.449c-0.084,1.251-0.822,2.44-1.906,3.07
							c0.133-0.077,0.762,0.095,0.938,0.106c0.363,0.024,0.728,0.029,1.091,0.038c0.703,0.017,1.423-0.087,2.129-0.152
							c0.491-0.045,0.996-0.088,1.47,0.049c1.087,0.316,1.712,1.539,1.679,2.671c-0.032,1.132-0.578,2.181-1.169,3.147
							c-0.239,0.39-0.489,0.776-0.782,1.127C175.124,176.779,175.041,176.872,174.956,176.963z"/>
					</g>
				</g>
				<g id="XMLID_396_">
					<g id="XMLID_398_">
						<path id="XMLID_401_" style="fill:#263238;" d="M138.449,174.876l-4.532-2.671c0.738-1.251,2.35-1.668,3.602-0.93
							C138.77,172.012,139.186,173.625,138.449,174.876z"/>
					</g>
				</g>
			</g>
		</g>
	</g>
</g>
</svg>
