<svg width="24" height="24" viewBox="0 0 24 24" fill="none" xmlns="http://www.w3.org/2000/svg">
    <path fill-rule="evenodd" clip-rule="evenodd" d="M16.5137 21.5H8.1659C5.09954 21.5 2.74714 20.3925 3.41533 15.9348L4.19336 9.89363C4.60526 7.66937 6.02402 6.81812 7.26888 6.81812H17.4474C18.7105 6.81812 20.0469 7.73345 20.5229 9.89363L21.3009 15.9348C21.8684 19.8891 19.5801 21.5 16.5137 21.5Z" stroke="#001469" stroke-width="1.5" stroke-linecap="round" stroke-linejoin="round"/>
    <path d="M16.651 6.59842C16.651 4.21235 14.7167 2.27805 12.3307 2.27805V2.27805C11.1817 2.27319 10.0781 2.72622 9.26386 3.53697C8.44967 4.34772 7.99198 5.44941 7.99199 6.59842H7.99199" stroke="#FF6600" stroke-width="1.5" stroke-linecap="round" stroke-linejoin="round"/>
    <path d="M15.2963 11.1018H15.2506" stroke="#FF6600" stroke-width="1.5" stroke-linecap="round" stroke-linejoin="round"/>
    <path d="M9.46567 11.1019H9.41991" stroke="#001469" stroke-width="1.5" stroke-linecap="round" stroke-linejoin="round"/>
</svg>
