<svg width="24" height="24" viewBox="0 0 24 24" fill="none" xmlns="http://www.w3.org/2000/svg">
    <path d="M11.9951 16.6768V14.1398" stroke="#FF6600" stroke-width="1.5" stroke-linecap="round" stroke-linejoin="round"/>
    <path fill-rule="evenodd" clip-rule="evenodd" d="M18.1899 5.3302C19.8799 5.3302 21.2399 6.7002 21.2399 8.3902V11.8302C18.7799 13.2702 15.5299 14.1402 11.9899 14.1402C8.4499 14.1402 5.2099 13.2702 2.7499 11.8302V8.3802C2.7499 6.6902 4.1199 5.3302 5.8099 5.3302H18.1899Z" stroke="#FF6600" stroke-width="1.5" stroke-linecap="round" stroke-linejoin="round"/>
    <path d="M15.4951 5.32579V4.95979C15.4951 3.73979 14.5051 2.74979 13.2851 2.74979H10.7051C9.4851 2.74979 8.4951 3.73979 8.4951 4.95979V5.32579" stroke="#FF6600" stroke-width="1.5" stroke-linecap="round" stroke-linejoin="round"/>
    <path d="M2.7744 15.483L2.9634 17.992C3.0914 19.683 4.5004 20.99 6.1954 20.99H17.7944C19.4894 20.99 20.8984 19.683 21.0264 17.992L21.2154 15.483" stroke="#001469" stroke-width="1.5" stroke-linecap="round" stroke-linejoin="round"/>
</svg>
