<svg width="332" height="143" viewBox="0 0 332 143" fill="none" xmlns="http://www.w3.org/2000/svg">
<path d="M220.571 142.999H187.868C183.594 138.606 178.127 136.182 176.338 127.395C176.537 124.516 175.542 122.092 174.747 119.82C169.933 106.458 166.607 91.9695 164.907 76.9468C163.515 64.9786 161.428 52.859 161.726 40.4363C161.925 34.0735 161.925 28.0137 164.907 23.0143C166.596 20.2874 164.907 16.5 166.596 13.9246C168.286 11.3491 170.374 14.8335 171.865 16.5C175.038 20.2814 178.553 23.3431 182.302 25.5897C186.675 30.2861 191.645 33.1645 196.516 36.4974C198.604 37.8609 201.089 38.4669 200.989 43.1632C200.393 45.1327 198.802 46.3446 198.703 47.8596C199.001 79.8252 206.158 107.246 218.583 131.788C220.174 134.97 222.559 138.151 220.571 142.999Z" fill="#FE601B"/>
<path d="M289.953 142.999H250.292C243.334 129.819 235.581 117.548 230.313 102.549C225.754 90.0921 222.565 76.582 220.869 62.5546C221.314 60.8361 222.059 59.3354 223.022 58.2141C223.986 57.0929 225.132 56.3936 226.337 56.1917C227.109 56.1833 227.878 56.3362 228.623 56.6462C235.581 60.4336 242.44 64.524 249.497 68.0084C251.584 68.9174 253.572 70.1293 254.666 73.1593C255.372 79.035 256.824 84.6442 258.94 89.6723C265.501 107.612 274.685 123.007 285.778 134.667C287.667 136.636 290.351 138.151 289.953 142.999Z" fill="#FE691E"/>
<path d="M226.535 57.7075C224.448 57.556 223.653 60.7374 221.764 61.3434C225.442 87.2492 232.698 109.822 244.428 129.213C246.714 133.152 250.392 136.485 250.292 143H220.571C220.77 139.515 219.577 136.94 218.285 134.213C213.812 124.972 209.24 115.579 205.959 104.974C201.387 89.6731 198.107 73.7661 197.908 56.7985C197.808 53.0111 196.119 49.6782 197.113 45.4364C197.908 43.9214 199.598 44.0729 200.79 42.8609C204.468 39.6795 207.053 44.2244 210.035 45.8909C213.017 47.5573 218.683 51.3447 223.056 53.7686C224.448 54.5261 226.535 54.2231 226.535 57.7075Z" fill="#FE651E"/>
<path d="M177.034 128.001C178.823 133.001 182.202 135.122 184.886 138.455C187.57 141.787 187.272 140.879 187.868 142.999H112.622C110.733 141.484 108.149 141.182 108.049 136.637C109.64 129.516 114.013 130.728 117.592 129.365C121.17 128.001 122.164 129.819 124.053 127.85C125.941 125.88 123.158 122.548 122.264 120.275C120.187 115.373 117.789 110.804 115.107 106.64C113.449 103.962 111.689 101.433 109.838 99.0657C105.365 89.5215 97.9102 84.5221 93.4371 75.1294C93.1017 74.0868 92.6136 73.1757 92.0103 72.4664C91.4071 71.7572 90.7049 71.2688 89.9581 71.039C89.4928 70.8105 89.0698 70.4166 88.7242 69.8898C88.3785 69.3629 88.12 68.7183 87.9701 68.0091C87.3737 63.1612 85.4851 58.0104 89.3617 54.0715C89.8577 53.8971 90.3763 53.9498 90.8527 54.223C93.7354 59.0709 94.0336 66.9486 98.7054 69.9785C99.8982 70.736 100.892 72.554 102.184 72.4025C107.353 72.0995 109.938 76.7959 112.125 82.7042C112.548 84.0494 113.159 85.2383 113.914 86.1886C126.637 101.49 139.062 117.7 155.762 121.942C161.428 123.305 166.895 126.941 172.759 124.517C173.627 124.241 174.53 124.439 175.312 125.076C176.093 125.713 176.702 126.749 177.034 128.001Z" fill="#FE681E"/>
<path d="M332.497 83.1598V104.066C332.109 104.534 331.66 104.871 331.18 105.054C330.7 105.237 330.2 105.262 329.714 105.127C317.603 102.476 305.687 98.062 294.128 91.9465C289.059 83.7658 282.598 78.1604 276.932 70.8886C266.495 57.4055 258.543 41.347 254.368 21.3495C253.672 18.3196 252.479 15.2897 254.467 12.2598C261.028 14.0777 267.687 15.1382 273.453 20.895C273.453 30.2878 277.528 36.9536 281.007 43.4679C292.339 64.3743 307.05 77.2514 324.247 83.7658C327.229 84.8262 329.714 82.5538 332.497 83.1598Z" fill="#FE691E"/>
<path d="M289.953 142.999C286.971 136.181 282.101 132.546 278.025 127.698C270.57 118.759 265.202 107.397 259.934 95.8835C257.549 90.5812 255.859 84.6728 253.871 79.0675C253.175 76.9466 253.871 75.7346 254.268 74.2196C254.662 73.6603 255.14 73.2571 255.66 73.0458C256.18 72.8344 256.726 72.8213 257.25 73.0077C265.06 75.3925 272.688 78.9969 280.013 83.7639C288.263 106.943 301.981 120.88 317.189 132.091C319.575 133.757 322.06 135.121 324.446 136.939C326.831 138.757 327.825 139.363 326.533 142.999H289.953Z" fill="#FE6D1F"/>
<path d="M332.497 83.1595C329.714 86.7954 326.632 86.7954 323.253 85.2805C311.822 80.2811 300.887 73.9183 291.643 62.1016C284.146 52.7585 277.787 41.4767 272.856 28.7726C272.423 27.7444 272.209 26.5367 272.245 25.3157C272.28 24.0948 272.563 22.9207 273.055 21.9553C273.324 21.5244 273.648 21.1814 274.007 20.947C274.366 20.7126 274.752 20.5918 275.143 20.5918C278.224 21.5008 281.107 23.0157 284.089 23.6217C287.071 24.2277 291.444 27.4091 295.42 27.5606C297.53 27.6624 299.529 29.0224 300.987 31.348C301.309 31.9472 301.576 32.6096 301.782 33.3174C306.454 48.0125 315.499 53.9209 324.843 59.0717C325.747 59.6912 326.738 59.9518 327.726 59.8292C328.322 59.8292 328.72 59.5262 330.012 58.0113C331.304 56.4963 328.322 49.2245 332.497 47.255V83.1595Z" fill="#FE6D1F"/>
<path d="M326.533 143C326.533 140.424 325.539 139.364 323.948 138.455C313.827 132.805 304.364 124.724 295.917 114.518C290.468 108.183 285.647 100.682 281.604 92.2486C280.492 90.0981 279.927 87.4083 280.013 84.6738C284.894 84.7487 289.67 86.8432 293.83 90.7337C305.659 94.3696 317.09 101.035 329.217 102.702C330.334 103.014 331.431 103.47 332.497 104.065V143H326.533Z" fill="#FE7121"/>
<path d="M0.695816 143C-1.19281 141.636 -0.198795 138.909 -0.198795 137.092C-0.265062 91.2388 -0.298196 45.3861 -0.298196 -0.466593H328.024C329.515 -0.466593 331.404 -2.13305 332.497 0.896869C329.913 4.07828 326.831 3.01781 323.948 3.01781H10.4371C7.8527 3.01781 5.06947 1.65435 2.88264 4.83576C0.695816 8.01717 2.48504 13.6225 2.08743 18.0159C2.38564 39.9828 2.38564 62.1012 2.18683 84.068C2.28623 90.5824 2.18683 97.0967 2.18683 103.611C2.18683 110.125 2.18683 113.61 2.08743 118.609C1.98803 123.608 2.08743 125.881 2.18683 129.517C2.28623 133.153 2.78324 138.91 0.695816 143Z" fill="#FEFEFE"/>
<path d="M104.669 143H84.8886C77.0359 141.182 70.7737 134.062 64.3126 128.002C62.6228 126.487 60.9329 124.972 60.2371 121.791C59.5413 118.609 60.0383 113.761 62.7222 111.186C65.406 108.611 66.3006 111.186 68.0898 111.337C79.3185 117.826 90.2162 125.573 100.693 134.516C102.681 136.183 105.067 138.304 104.669 143Z" fill="#FE4C16"/>
<path d="M104.669 143C102.94 139.056 100.533 135.912 97.7114 133.91C87.9701 126.638 78.2288 119.215 68.0898 113.155C66.632 111.122 65.5518 108.539 64.9584 105.666C64.3651 102.793 64.2794 99.7328 64.7102 96.7936C66.5988 94.5211 68.2886 96.0361 69.6803 97.5511C73.8551 102.096 78.4276 102.853 83.2982 101.49C86.0815 101.793 87.5725 104.974 89.1629 107.701C90.7533 110.428 93.0395 114.822 95.3258 118.154C97.612 121.487 98.8048 121.942 100.395 124.366C101.986 126.79 106.658 131.638 108.646 137.091C109.341 139.97 111.429 140.879 112.622 143H104.669Z" fill="#FE4815"/>
<path d="M332.497 3.92733V42.8617C328.024 45.2857 324.147 43.1647 320.37 39.5288C320.434 35.7902 319.624 32.1386 318.084 29.2271C316.009 24.6807 314.586 19.5186 313.909 14.0775C313.511 11.3506 312.816 8.16921 315.201 6.19977C315.83 6.11967 316.461 6.11967 317.09 6.19977C311.126 8.16921 304.665 7.41173 298.104 7.56323C295.917 7.56323 293.432 8.16921 291.643 5.1393C291.616 4.70396 291.678 4.2665 291.82 3.88682C291.963 3.50715 292.179 3.20381 292.438 3.01836C305.062 1.80639 317.686 2.56387 330.211 2.56387C331.05 2.62887 331.852 3.10736 332.497 3.92733Z" fill="#FE6F20"/>
<path d="M320.569 38.3171C324.247 41.65 328.521 41.347 332.497 42.862V47.2553C330.111 51.1942 332.696 56.4966 330.807 60.7385C328.919 64.9803 327.825 62.5564 326.334 61.9504C317.113 58.1635 308.777 50.4986 302.279 39.832C301.766 39.0694 301.367 38.1465 301.109 37.1266C300.852 36.1068 300.742 35.0142 300.788 33.9237C302.776 31.3483 305.062 31.6513 307.249 32.4088C311.822 33.7722 316.493 34.5297 320.569 38.3171Z" fill="#FE7222"/>
<path d="M0.894638 4.07874C0.695835 2.26079 0.894638 1.04883 2.28625 1.04883H332.497V2.56378C330.608 4.07874 328.62 3.32126 326.632 3.32126C218.683 5.89669 110.733 3.92725 2.78326 4.68472C2.12991 4.7354 1.47913 4.52659 0.894638 4.07874Z" fill="#FE9651"/>
<path d="M1.68982 3.92698C3.28024 1.20006 5.36766 2.56352 7.25629 2.56352H332.497V4.07848H291.842C289.257 7.25989 286.176 6.19942 283.293 6.19942H36.182C27.0371 6.19942 17.7928 6.19942 8.6479 6.50241C6.26227 6.35091 3.67784 6.8054 1.68982 3.92698Z" fill="#FE853C"/>
<path d="M57.1557 143H29.4228C27.6336 140.424 25.7449 137.849 26.1425 133.456C26.5401 129.062 29.6216 124.82 33.5976 124.82C40.643 126.908 47.5354 130.054 54.1737 134.213C55.9629 136.485 57.9509 138.758 57.1557 143Z" fill="#FA551B"/>
<path d="M57.1557 143L54.1737 135.576C53.2791 129.819 54.6707 124.82 56.7581 120.275C58.5474 119.366 59.8396 120.427 61.1318 122.093C66.3006 128.759 72.5629 133.001 78.1294 138.606C79.206 139.726 80.5133 140.211 81.8072 139.97C82.4632 139.928 83.1116 140.197 83.6633 140.74C84.215 141.282 84.643 142.072 84.8887 143H57.1557Z" fill="#FD5118"/>
<path d="M26.4407 134.063C26.9377 137.395 29.3233 139.365 29.4227 143.001H0.695801L0.894603 129.518C1.98802 125.882 4.27424 125.882 6.36167 126.033C13.322 126.802 20.1293 129.524 26.4407 134.063Z" fill="#F7581E"/>
<path d="M177.034 128.001L173.057 125.123C171.467 125.275 170.274 123.76 169.081 122.396C161.527 113.003 153.177 105.126 144.828 97.2478C140.752 93.4604 136.378 90.1275 132.899 84.8252C132.899 79.3713 130.713 76.1899 127.929 73.6145C119.878 66.0397 115.802 53.6171 110.634 42.4064C107.751 36.195 111.628 27.2568 117.79 24.9844C121.766 23.4694 125.643 21.3485 129.222 20.4395C132.402 16.1976 129.122 8.47132 133.496 5.5929C141.945 5.28991 150.394 5.44141 158.943 5.5929C162.024 7.56235 165.503 9.0773 167.093 14.3797C165.801 16.9551 168.286 18.6215 167.69 21.5C159.837 30.1352 164.41 43.1638 163.018 53.4656C163.614 57.1015 165.503 58.6164 165.702 62.5553C164.111 67.8577 165.503 74.069 166.596 80.1288C169.28 94.6724 172.063 109.064 177.034 122.245C177.729 124.063 178.823 126.184 177.034 128.001Z" fill="#FE5B1A"/>
<path d="M209.637 47.2544C206.655 46.1939 204.17 42.4065 200.79 42.861C200.393 42.1035 200.095 40.7401 199.598 40.5886C194.031 37.8617 189.16 32.4078 183.296 30.1354L181.904 26.348C184.29 20.1367 183.395 12.2589 186.079 6.19905C191.049 4.53259 196.119 6.04755 201.089 5.13858C201.865 4.81198 202.674 4.70922 203.474 4.83558C204.468 5.44157 205.661 5.59306 206.257 7.25952C208.544 17.8642 209.637 28.9234 212.222 39.5281C213.116 42.861 213.017 46.4969 209.637 47.2544Z" fill="#FE5A1A"/>
<path d="M185.88 6.95608C186.477 12.1069 185.085 16.9548 184.687 22.1056C184.588 24.0751 183.892 26.499 181.904 26.3475C179.916 26.196 178.326 24.0751 176.437 24.6811C173.738 20.4474 170.576 16.9616 167.093 14.3794C164.907 11.8039 161.726 11.0465 160.135 6.95608C164.807 3.77467 169.777 6.50159 174.449 5.13813C174.994 4.86318 175.577 4.81094 176.139 4.98664C179.32 6.50159 182.898 3.92616 185.88 6.95608Z" fill="#FE5618"/>
<path d="M257.25 74.2204H254.268C251.584 68.918 247.012 69.524 243.533 66.9486C240.054 64.3732 234.786 62.2522 230.412 59.8283C230.007 59.7391 229.623 59.4989 229.293 59.1289C228.964 58.7589 228.699 58.2706 228.523 57.7074C225.74 44.5272 220.472 32.7106 219.18 18.6215C218.782 13.6221 218.683 9.22874 222.36 5.74433C227.26 5.16839 232.184 5.2698 237.072 6.04733C238.861 7.56228 239.259 10.2892 239.656 13.0161C241.843 30.8926 247.111 46.7997 254.467 61.1918C256.356 64.6762 259.338 68.4636 257.25 74.2204Z" fill="#FE611C"/>
<path d="M237.37 6.95603H222.559L219.975 11.9554C220.969 26.802 224.647 39.9821 229.319 52.5562C229.02 54.5257 228.722 56.1921 228.523 57.7071H226.535C220.969 54.0712 214.905 52.1018 209.637 47.2539C211.923 44.83 211.725 42.103 210.731 38.3156C208.03 28.3121 206.353 17.7355 205.76 6.95603C208.345 3.92611 211.526 6.50154 214.309 4.68359H240.75C240.901 4.68519 241.05 4.74558 241.183 4.85909C241.315 4.97259 241.426 5.13548 241.505 5.33244C241.585 5.52939 241.63 5.75394 241.637 5.98496C241.644 6.21598 241.612 6.44588 241.545 6.65304C240.253 8.77398 238.861 8.47099 237.37 6.95603Z" fill="#FE5E1B"/>
<path d="M133.396 84.6744C147.114 97.0971 161.03 109.065 173.057 125.124C172.789 126.181 172.279 127.055 171.622 127.584C170.964 128.113 170.203 128.261 169.479 128.002C158.166 125.441 147.09 120.865 136.478 114.368C133.663 112.357 131.157 109.467 129.122 105.884C127.13 102.541 124.734 99.8151 122.065 97.8545C116.625 94.1542 112.173 87.743 109.441 79.6751C108.634 77.5318 107.467 75.7542 106.061 74.5242C98.8048 76.0392 93.5365 69.2218 90.8527 54.8297C91.2506 54.1727 91.7882 53.7515 92.3704 53.6406C92.9526 53.5297 93.5417 53.7363 94.0335 54.2238C106.459 64.071 119.878 70.8883 131.905 81.9475C132.261 82.2263 132.577 82.6114 132.833 83.0799C133.089 83.5484 133.281 84.0907 133.396 84.6744Z" fill="#FE6A1E"/>
<path d="M133.396 84.6744C125.544 79.0691 117.89 73.0092 110.037 67.5554C104.371 63.768 98.3078 60.8896 93.2383 55.2842C92.6419 54.6783 91.6479 54.9812 90.8527 54.8298H89.8587C89.6883 54.5499 89.5707 54.2051 89.5182 53.8318C89.4657 53.4585 89.4803 53.0705 89.5605 52.7088C90.8527 48.1639 88.5664 42.5586 91.7473 38.7712C94.9281 34.9838 97.612 37.2562 100.693 37.4077C103.775 37.5592 104.57 35.1353 105.663 32.1054C106.757 29.0755 107.254 25.5911 105.564 22.4097C103.874 19.2283 102.184 17.5618 101.091 14.5319C99.9976 11.502 98.7054 8.16907 101.787 5.74514C107.751 5.13915 113.616 5.59364 119.58 5.44215C123.854 6.19962 128.327 3.77569 132.402 6.9571C131.508 12.108 133.794 18.4708 130.017 22.8642C128.426 23.9246 126.538 23.0156 124.351 23.6216C122.164 24.2276 121.866 26.3486 119.878 26.5001C114.113 27.106 111.926 30.4389 110.634 39.8317C114.808 48.6184 119.083 58.0112 123.754 66.7979C125.146 69.5248 127.731 70.8883 129.818 73.0092C131.754 74.88 133.25 77.6382 134.092 80.887C134.49 82.402 134.49 83.7654 133.396 84.6744Z" fill="#FE5418"/>
<path d="M83.8946 102.703C79.1234 105.733 74.5509 104.672 70.2766 100.43C68.6862 98.9153 67.1952 96.7944 65.1078 96.6429C63.0204 96.4914 61.9269 95.2794 60.7341 93.4615C59.4681 91.84 58.6223 89.5843 58.3485 87.0987C57.6527 72.2521 56.4599 57.4055 59.0443 42.7104C59.1593 42.2919 59.3317 41.9157 59.5499 41.6071C59.7682 41.2985 60.0272 41.0646 60.3096 40.9211C60.5921 40.7776 60.8914 40.7278 61.1875 40.7752C61.4836 40.8225 61.7696 40.9658 62.0263 41.1955C71.7677 48.1643 81.1114 56.345 88.8647 68.3132C89.1629 69.5252 89.9581 69.6767 90.7533 69.6767C91.0257 70.0482 91.2117 70.5444 91.2834 71.0907C91.3551 71.637 91.3086 72.204 91.1509 72.7066C87.485 77.894 83.4892 82.5122 79.2228 86.4927C79.4216 91.9465 81.9066 94.9765 83.3976 98.7639C83.8946 99.9758 84.3916 101.188 83.8946 102.703Z" fill="#FD4415"/>
<path d="M83.8946 102.703L82.9006 99.6726C83.497 94.3703 87.2743 97.4002 88.0695 95.7338C90.8527 91.1889 90.4551 87.25 90.1569 83.1596C89.8587 79.0692 89.1629 76.7968 90.7533 73.9184C91.2199 73.4567 91.7718 73.2368 92.327 73.2914C92.8822 73.346 93.411 73.6721 93.8348 74.2214C99.103 82.5536 106.061 88.462 110.634 98.1577C108.745 104.218 104.968 102.4 101.687 102.703C99.8982 102.854 98.3078 101.036 96.5186 101.339C94.7294 101.642 92.7414 109.368 88.8647 108.611L83.8946 102.703Z" fill="#FE5318"/>
<path d="M88.8647 108.611C91.6479 106.338 93.2383 102.097 95.5246 97.7031C100.495 101.491 105.564 102.854 110.634 98.1576C112.658 99.9859 114.363 102.533 115.604 105.581C115.504 111.186 112.522 111.186 110.037 111.944C104.769 113.61 99.4012 114.216 94.8288 119.064C92.4431 116.034 89.5605 113.762 88.8647 108.611Z" fill="#FE5719"/>
<path d="M108.646 137.091C105.167 133.758 101.986 130.274 99.6995 125.123C99.8624 124.407 100.124 123.753 100.467 123.204C100.81 122.655 101.226 122.225 101.687 121.942C107.415 119.12 113.367 117.489 119.381 117.094C120.565 117.126 121.699 117.828 122.562 119.063C124.947 120.881 125.842 124.214 126.538 127.244C127.234 130.274 124.152 131.183 122.462 131.031C119.359 131.028 116.263 131.484 113.218 132.395C112.257 132.519 111.332 133.016 110.532 133.838C109.731 134.66 109.082 135.78 108.646 137.091Z" fill="#FE611C"/>
<path d="M122.562 119.063C114.709 118.912 107.154 121.487 99.6994 125.123C98.109 123.002 95.8228 122.245 94.8287 119.063C93.8347 115.882 96.8168 114.064 98.606 113.458C102.34 112.027 106.123 110.915 109.938 110.125C112.224 109.67 114.311 108.913 115.604 105.58C118.735 108.946 121.153 113.632 122.562 119.063Z" fill="#FE5C1B"/>
<path d="M88.8647 68.3132C79.3222 59.072 70.4755 48.3158 60.1378 41.347C60.002 41.0142 59.9475 40.6192 59.9839 40.2313C60.0202 39.8435 60.1451 39.4875 60.3366 39.226C65.406 36.1961 69.2827 42.1044 73.8551 43.0134C78.4276 43.9224 81.6084 46.9523 85.4851 48.9217C87.2669 49.4466 88.8396 51.0264 89.8587 53.3151V54.8301C88.6659 55.8905 88.3677 57.86 87.8707 59.8294C88.5996 62.515 88.9387 65.4091 88.8647 68.3132Z" fill="#FE641D"/>
<path d="M93.8347 74.2207H90.8527C90.5545 73.9177 90.4551 73.6147 90.5545 73.1602C90.6539 72.7057 90.7533 72.7057 90.8527 72.7057V69.6758C92.7413 69.8273 93.7353 71.1907 93.8347 74.2207Z" fill="#FE6A1E"/>
<path d="M237.37 6.95616H241.346C241.625 6.56464 241.955 6.2677 242.315 6.08491C242.675 5.90211 243.056 5.83763 243.434 5.89569C247.111 8.16813 251.386 8.16813 254.268 12.8645C255.958 26.9536 260.232 39.2248 265.799 50.5869C272.657 64.5245 281.802 74.3718 290.748 84.522C292.239 86.1884 293.83 87.4004 293.83 90.7333C289.158 89.2183 284.287 88.3094 280.013 84.6735L257.25 74.2203C257.151 66.191 252.976 61.6461 250.392 55.8893C244.498 43.4132 240.43 29.1544 238.463 14.0765C238.165 11.6525 237.37 9.38009 237.37 6.95616Z" fill="#FE671D"/>
<path d="M254.268 12.8652C250.59 11.1988 246.714 10.1383 243.334 6.95688C246.117 4.07846 249.298 5.74491 252.28 5.44192C255.262 5.13893 261.028 6.0479 265.401 4.83594H289.456C289.953 9.8353 287.269 8.32034 285.679 8.92632C284.089 9.53231 279.914 8.01735 277.131 10.1383C274.347 12.2592 277.429 18.6221 275.043 21.955H273.055C271.266 19.3795 268.98 19.3795 266.793 18.6221L254.268 12.8652Z" fill="#FE5B1A"/>
<path d="M320.569 38.3161C316.394 39.3766 312.915 35.7407 308.939 34.9832C306.242 34.3355 303.518 33.9811 300.788 33.9227V32.4078C302.08 28.1659 301.086 24.0755 300.291 19.9851C299.496 15.8947 297.905 11.6529 299.893 6.35052C304.665 6.35052 309.635 5.44154 314.704 6.9565C314.605 18.0157 317.885 26.9539 322.457 34.6802C322.452 35.5196 322.263 36.3321 321.921 36.9902C321.579 37.6483 321.103 38.1147 320.569 38.3161Z" fill="#FE6A1E"/>
<path d="M314.704 6.95624H299.794C300.32 14.2702 301.665 21.3927 303.77 28.0141C303.785 28.6102 303.717 29.2045 303.572 29.758C303.426 30.3115 303.205 30.8119 302.923 31.2266C302.642 31.6412 302.306 31.9606 301.938 32.1641C301.57 32.3676 301.178 32.4506 300.788 32.4075C298.427 30.2132 295.7 29.1082 292.935 29.2261C289.755 29.3776 286.773 27.4082 283.989 24.8327C285.182 19.0759 282.2 12.5616 284.983 6.95624C286.574 6.50175 288.562 8.1682 289.953 5.44128C290.083 5.23973 290.238 5.07961 290.408 4.9703C290.579 4.86099 290.762 4.80469 290.947 4.80469C291.133 4.80469 291.316 4.86099 291.486 4.9703C291.657 5.07961 291.812 5.23973 291.941 5.44128H321.861C319.476 7.41072 317.09 6.65324 314.704 6.95624Z" fill="#FE641C"/>
<path d="M284.983 6.95703C284.983 11.0474 284.784 15.2893 285.778 19.3797C286.772 23.4701 286.574 24.5305 283.989 24.8335C280.892 25.1145 277.802 24.1203 275.043 21.9551C275.64 17.1072 273.751 12.1079 275.838 6.95703H284.983Z" fill="#FE601C"/>
<path d="M0.894612 84.6746C0.596409 62.2533 0.596409 39.8319 0.894612 17.562C6.95809 14.9866 12.5246 20.4404 18.4886 20.4404C21.5701 21.8039 24.7509 22.5614 27.8323 23.7733C30.9138 24.9853 31.212 25.5913 32.0072 28.3182C31.9078 39.2259 32.1066 50.1336 31.709 60.8898C31.3114 71.646 32.4048 79.0693 37.0767 86.0381C37.2512 86.9074 37.2881 87.8274 37.1844 88.7227C37.0808 89.618 36.8395 90.4631 36.4802 91.1889C35.3516 92.2869 34.0628 92.9443 32.7279 93.1028C31.393 93.2613 30.053 92.9162 28.8264 92.0979C22.0671 87.4015 15.0096 88.6135 8.0515 88.462C5.36767 88.3105 2.68383 88.462 0.894612 84.6746Z" fill="#F6471A"/>
<path d="M0.894637 84.6738C6.65991 87.5522 12.5246 85.8858 18.3892 86.0373C22.1665 86.1888 25.5461 86.6433 28.3294 90.7337H36.3809C37.092 90.9194 37.7316 91.5049 38.1733 92.3744C38.6149 93.2439 38.8266 94.3342 38.7665 95.43C38.2695 101.035 35.6851 104.065 32.703 106.792C32.0782 107.437 31.3636 107.852 30.6156 108.004C26.4407 107.701 22.7629 104.52 18.6875 103.308C12.7234 101.641 6.75931 100.581 0.894637 104.065C0.596319 97.6095 0.596319 91.1297 0.894637 84.6738Z" fill="#F74B1A"/>
<path d="M0.894641 104.065L4.37368 99.8228C13.8168 98.6108 22.6635 102.247 31.4108 107.095C31.8084 112.548 31.5102 117.699 28.6276 121.638C25.3473 123.153 22.4647 121.032 19.4827 119.82C13.8168 117.699 8.34973 114.821 2.68386 119.669C2.37898 119.841 2.04802 119.875 1.73066 119.768C1.4133 119.66 1.12303 119.415 0.894641 119.063C0.596643 114.074 0.596643 109.054 0.894641 104.065Z" fill="#F7501C"/>
<path d="M0.894592 119.063C6.85866 112.397 13.1209 114.821 19.3832 117.699C22.3653 119.063 25.2479 120.729 28.4287 120.578C31.6096 120.426 33.2 121.79 33.3988 126.486C32.4318 126.28 31.4469 126.551 30.5883 127.26C29.7298 127.969 29.0427 129.078 28.6275 130.425C28.4507 131.231 28.1646 131.971 27.7878 132.597C27.4111 133.224 26.9521 133.722 26.4407 134.061C22.8623 134.818 19.7808 132.091 16.5006 130.879C11.3317 128.91 6.26226 126.032 0.894592 129.516V119.063Z" fill="#F7541D"/>
<path d="M18.4886 21.9546C12.4251 22.4091 6.75926 18.7732 0.894592 17.5612V4.07812H36.3808L36.5796 5.44159L35.9832 6.35056C33.1006 8.4715 30.0191 7.25954 26.9377 7.71402C23.8563 8.16851 20.8742 7.10804 17.9916 8.01701C17.097 12.8649 19.3832 17.2583 18.4886 21.9546Z" fill="#F87025"/>
<path d="M32.4048 105.581C34.9687 102.969 37.0278 99.3599 38.3689 95.1275C39.5617 93.461 40.7545 94.673 41.9473 95.4304C47.5138 99.0663 53.3784 101.036 58.9449 104.823C60.9329 106.035 63.418 106.944 63.1198 111.64L61.1317 116.185V122.094C59.7318 122.295 58.3288 121.76 57.1557 120.579C49.8 120.579 43.1401 116.791 36.679 111.792C34.9892 110.277 32.4048 109.823 32.4048 105.581Z" fill="#FA4C18"/>
<path d="M63.1198 111.641C60.933 105.127 56.1617 105.733 52.6827 103.309C49.2036 100.885 42.8419 98.7639 38.3689 95.128L36.3809 90.7346V86.1897C37.7725 84.2203 39.3629 84.3718 40.9533 85.2807C46.1387 88.3301 51.6061 90.1194 57.1557 90.5831C58.9449 90.7346 60.5353 92.2495 62.1258 93.613L65.1078 96.6429C65.5054 102.4 66.897 107.702 68.0898 113.156C66.3686 113.514 64.6183 112.98 63.1198 111.641Z" fill="#FB4816"/>
<path d="M291.941 5.44184H265.103C257.204 6.65383 249.245 6.65383 241.346 5.44184H213.613C210.381 6.65494 207.004 6.65494 203.772 5.44184H201.784C193.221 6.65339 184.603 6.65339 176.04 5.44184H175.046C172.163 6.9568 169.181 6.04783 166.199 6.04783H119.679C99.103 6.35082 78.6263 8.16877 58.0503 7.41129C55.6647 7.56278 53.1796 7.86578 50.8934 6.19932C50.6358 5.94148 50.4329 5.57513 50.3094 5.1448C50.1858 4.71448 50.147 4.23873 50.1976 3.77539H291.842C291.809 4.33547 291.843 4.89991 291.941 5.44184Z" fill="#FE681C"/>
<path d="M50.1976 3.92773V5.44269L49.5018 6.35167C45.1282 8.01812 40.6551 9.07859 36.3809 5.44269V3.92773H50.1976Z" fill="#FA6A21"/>
<path d="M32.4048 105.58C36.9466 110.468 42.0319 114.061 47.4143 116.185C50.6946 117.397 53.8754 119.063 57.1557 120.578L54.1736 135.576C47.2155 132.698 40.4563 128.607 33.3988 126.486L28.4287 120.578C30.0191 116.336 29.7209 111.185 31.4107 107.095C31.4733 106.731 31.5983 106.398 31.773 106.132C31.9477 105.866 32.1658 105.675 32.4048 105.58Z" fill="#FA501A"/>
<path d="M119.58 5.44141H175.046C173.058 8.47132 170.672 6.65337 168.485 6.80487C166.298 6.95636 162.919 6.95636 160.135 6.95636H119.58C119.182 6.65337 119.083 6.35038 119.182 5.89589L119.58 5.44141Z" fill="#FE5214"/>
<path d="M176.04 5.44141H201.784C200.194 8.16833 198.107 6.80487 196.218 6.80487C194.329 6.80487 189.359 6.95636 185.88 6.95636C182.401 6.95636 179.121 8.47132 176.04 5.44141Z" fill="#FE5313"/>
<path d="M203.772 5.44141H213.613C211.228 8.47132 208.345 6.19888 205.76 6.95636C204.866 6.95636 204.071 6.80487 203.772 5.44141Z" fill="#FE5313"/>
<path d="M241.346 5.44141H265.103C264.109 7.86534 262.419 6.80487 261.028 6.95636H241.346V5.44141Z" fill="#FE5113"/>
<path d="M89.8587 53.3134C84.6898 49.829 78.8252 49.0715 73.9545 44.3752C71.5744 31.8265 72.0651 18.4172 75.3461 6.34975C83.7952 6.50125 92.2443 5.44078 100.693 6.95574C100.594 11.0461 101.886 13.9245 103.675 16.6515C105.465 19.3784 107.353 21.6508 108.646 24.6807C106.956 34.3765 106.956 34.3765 103.079 39.5273C99.3018 41.6483 94.0335 33.619 91.1509 42.1027C90.4551 45.1327 91.4491 47.1021 91.7473 49.223C92.0455 51.344 91.6479 53.1619 89.8587 53.3134Z" fill="#FE4F16"/>
<path d="M100.693 6.95636H74.9485C69.5809 10.8953 64.0144 9.53179 58.4479 8.16833C58.2414 8.13291 58.0421 8.03209 57.8626 7.87233C57.6832 7.71257 57.5276 7.4974 57.4059 7.24064C57.2843 6.98387 57.1991 6.69117 57.1561 6.38133C57.113 6.07148 57.1129 5.75133 57.1557 5.44141H119.58V6.95636H100.693Z" fill="#FD4A11"/>
<path d="M62.1257 93.6127C55.3664 91.7948 48.4084 92.8552 42.0467 87.8559C40.3231 86.3932 38.3377 85.8093 36.3808 86.1894C31.9078 81.7961 29.9197 75.8877 30.3173 67.5555C30.7149 59.2232 30.4167 49.376 30.4167 40.1347C30.25 35.986 30.5869 31.8259 31.4108 27.8636C33.9952 24.8337 36.4802 27.4091 39.0646 27.8636C44.7305 29.9845 50.5952 31.651 55.9629 35.4384C57.3545 36.8018 59.0443 37.7108 60.1377 39.8317V41.3467C58.2491 55.4358 59.5413 69.6764 59.1437 83.7655C59.0443 87.8559 60.9329 90.5828 62.1257 93.6127Z" fill="#FA4517"/>
<path d="M90.8527 72.7059V74.2209C90.8383 77.1331 91.0722 80.0358 91.5485 82.8562C92.2443 87.8555 92.4431 93.1579 89.9581 96.9453C87.473 100.733 84.7892 96.3393 82.9006 99.6722C80.1174 96.7938 79.2227 91.6429 77.1353 88.1585C77.6323 84.8256 79.4215 83.7651 80.9126 82.4017C82.4036 81.0382 85.982 78.7658 87.2742 74.6754C88.5665 70.585 89.4611 72.7059 90.8527 72.7059Z" fill="#FE4D16"/>
<path d="M60.1377 39.8309C58.4479 39.9824 56.8575 39.6794 56.1617 36.801C53.0803 26.8023 49.8994 16.9551 50.1976 5.44141H57.1557C58.0503 7.56235 59.4419 6.95636 60.7341 6.95636H74.9485C75.6443 14.8341 73.6563 22.5604 73.9545 30.2867C74.1533 34.0741 73.6563 37.71 74.8491 41.1944C76.0419 44.6788 74.8491 43.6183 73.9545 44.3758C72.0438 44.5703 70.1388 43.884 68.4874 42.4064C65.9048 40.4281 63.0219 39.5389 60.1377 39.8309Z" fill="#FD4D17"/>
<path d="M39.3629 29.3777C36.5797 29.9837 34.0946 27.2568 31.4108 27.8628C27.4348 24.2269 22.4647 25.5903 18.4886 21.9544C16.2024 17.2581 16.6 11.5012 16.3018 5.44141H26.4407C30.218 7.56235 34.194 4.98692 38.1701 7.10786C41.6491 14.0767 39.9593 21.8029 39.3629 29.3777Z" fill="#FA6A21"/>
<path d="M39.3629 29.3777C38.3689 24.6814 37.6731 19.8335 39.3629 15.2886L37.7725 8.16833C34.0946 4.98692 29.8204 9.2288 26.4407 5.44141H50.1976C51.7881 16.0461 55.0683 26.0448 56.1617 36.801L39.3629 29.3777Z" fill="#FC641E"/>
</svg>
