<svg clip-rule="evenodd" fill-rule="evenodd" stroke-linecap="round" stroke-linejoin="round" viewBox="0 0 24 24" xmlns="http://www.w3.org/2000/svg"><g fill="none"><path d="m0 0h24v24h-24z"/><path d="m9.224 7.012h-7.024" stroke="#f60" transform="matrix(1.99683 0 0 1.86876 -2.2807 -1.10446)"/><path d="m7.516 5.312 1.708 1.701-1.708 1.701" stroke="#f60" transform="matrix(1.99683 0 0 1.86876 -2.2807 -1.10474)"/><path d="m4.961 4.31v-.544c0-1.187.962-2.149 2.15-2.149h2.849c1.184 0 2.143.96 2.143 2.144v6.498c0 1.187-.962 2.15-2.149 2.15h-2.85c-1.183 0-2.143-.96-2.143-2.144v-.549" stroke="#001469" transform="matrix(1.99683 0 0 1.86876 -2.2807 -1.10572)"/></g></svg>