<svg clip-rule="evenodd" fill-rule="evenodd" stroke-linecap="round" stroke-linejoin="round" viewBox="0 0 24 24" xmlns="http://www.w3.org/2000/svg" xmlns:xlink="http://www.w3.org/1999/xlink"><clipPath id="a"><path clip-rule="evenodd" d="m0 0h24v24h-24z"/></clipPath><g fill="none"><path d="m0 0h24v24h-24z"/><g clip-path="url(#a)"><path d="m14.333 5v2m0 4v2m0 4v2m-7.777-14c-.413 0-.809.211-1.1.586-.292.375-.456.884-.456 1.414v3c.413 0 .808.211 1.1.586s.456.884.456 1.414-.164 1.039-.456 1.414-.687.586-1.1.586v3c0 .53.164 1.039.456 1.414.291.375.687.586 1.1.586h10.888c.413 0 .809-.211 1.1-.586.292-.375.456-.884.456-1.414v-3c-.413 0-.808-.211-1.1-.586s-.456-.884-.456-1.414.164-1.039.456-1.414.687-.586 1.1-.586v-3c0-.53-.164-1.039-.456-1.414-.291-.375-.687-.586-1.1-.586z" stroke="#001469" transform="matrix(1.40402 0 0 1.40402 -4.84822 -4.84822)"/><path d="m14.4 5.328v12.545" stroke="#f60" stroke-dasharray="2.4 2.4" stroke-linejoin="miter" stroke-width="1.73" transform="matrix(1.40402 0 0 1.40402 -4.84822 -3.92643)"/></g></g></svg>