<svg width="21" height="27" viewBox="0 0 21 27" fill="none" xmlns="http://www.w3.org/2000/svg">
    <path
        d="M12.5331 0.304676C12.5279 1.26234 12.5285 2.22001 12.5136 3.17898C12.5097 3.39716 12.6338 3.41349 12.7916 3.45073C15.7366 4.14056 17.9864 5.79024 19.5412 8.39975C19.9706 9.1216 19.7003 9.75394 18.9019 9.99369C18.7025 10.0538 18.6193 10.0015 18.531 9.82123C17.285 7.27355 15.2887 5.65153 12.5506 4.97803C7.72328 3.78911 2.7264 6.98416 1.81823 11.8208C0.783388 17.331 5.01696 22.3702 10.6115 22.2872C15.0081 22.2219 18.6356 19.0556 19.2716 14.7278C19.3365 14.2862 19.3365 14.2862 18.8876 14.2862C17.3396 14.2862 15.7916 14.2953 14.2435 14.2777C13.9505 14.2744 13.844 14.3718 13.7511 14.6403C13.5011 15.3841 13.0055 16.0196 12.3467 16.4411C11.6878 16.8626 10.9055 17.0448 10.1295 16.9573C9.3593 16.8702 8.64062 16.5252 8.0889 15.9778C7.53717 15.4305 7.18441 14.7125 7.0873 13.9393C6.86318 12.252 7.97598 10.5914 9.61432 10.1701C11.3241 9.72977 13.0573 10.6006 13.6998 12.2232C13.8992 12.7256 13.8992 12.7256 14.439 12.7262C16.258 12.7262 18.0769 12.736 19.8959 12.7262C20.3928 12.723 20.7696 12.8445 20.9138 13.3716V14.3515C20.8229 14.8519 20.767 15.3621 20.6358 15.854C19.536 19.961 16.9108 22.5171 12.8241 23.5682C12.6013 23.6257 12.5058 23.6989 12.5116 23.9504C12.5298 24.7774 12.5116 25.6051 12.522 26.4327C12.522 26.6287 12.4798 26.7091 12.2719 26.694C11.9907 26.6773 11.7087 26.6773 11.4274 26.694C11.2169 26.7071 11.176 26.6215 11.178 26.4327C11.1877 25.6599 11.178 24.8871 11.1864 24.1143C11.1896 23.8975 11.1494 23.7988 10.9058 23.821C10.6361 23.8462 10.3647 23.8462 10.095 23.821C9.86442 23.7995 9.8222 23.8942 9.82415 24.0961C9.83194 24.8584 9.81895 25.6207 9.83194 26.3824C9.83584 26.6169 9.78322 26.7221 9.52792 26.6986C9.27958 26.677 9.02985 26.677 8.78151 26.6986C8.5418 26.7182 8.49697 26.6169 8.50022 26.3994C8.51126 25.6155 8.48788 24.8316 8.51256 24.0477C8.52231 23.74 8.43591 23.6277 8.13059 23.5552C5.34632 22.8888 3.15775 21.3472 1.64413 18.904C-1.67607 13.5532 0.585254 6.49226 6.37726 4.0367C6.95673 3.79107 7.54658 3.57419 8.16502 3.46314C8.46384 3.40957 8.51386 3.28023 8.50996 3.0124C8.49567 2.10895 8.50477 1.20551 8.50542 0.302063H9.80466C9.8118 1.05983 9.82155 1.81826 9.8261 2.57603C9.82999 3.19596 9.82609 3.19531 10.4263 3.19335C10.6095 3.19335 10.7934 3.19008 10.9759 3.20249C11.1305 3.21295 11.1851 3.15546 11.1838 2.99999C11.1754 2.10111 11.1728 1.20159 11.1689 0.302063L12.5331 0.304676ZM13.017 13.4964C13.0137 12.9958 12.8627 12.5074 12.5833 12.093C12.3038 11.6787 11.9084 11.357 11.4471 11.1687C10.9858 10.9803 10.4793 10.9338 9.99171 11.035C9.50412 11.1362 9.05733 11.3806 8.70788 11.7372C8.35843 12.0938 8.12202 12.5467 8.02857 13.0384C7.93511 13.5302 7.9888 14.0388 8.18285 14.4998C8.3769 14.9609 8.70259 15.3537 9.11871 15.6286C9.53483 15.9035 10.0227 16.0481 10.5205 16.0441C10.8511 16.0427 11.1782 15.9756 11.4829 15.8467C11.7876 15.7177 12.0639 15.5294 12.2959 15.2926C12.528 15.0558 12.7111 14.7752 12.8349 14.4669C12.9586 14.1587 13.0205 13.8288 13.017 13.4964Z"
        fill="#001469" />
    <path
        d="M16.827 10.1505C15.3388 10.1877 14.0122 9.83756 12.7572 9.20848C12.0222 8.83198 11.2069 8.6416 10.3822 8.65387C8.07732 8.68588 6.03947 10.4608 5.68867 12.7569C5.5623 13.6472 5.68143 14.5554 6.03307 15.3822C6.38471 16.2091 6.95537 16.9231 7.68282 17.4462C8.41026 17.9694 9.26658 18.2816 10.1584 18.349C11.0502 18.4163 11.9433 18.2362 12.7403 17.8281C13.8896 17.2384 15.1536 16.9094 16.4431 16.8646C16.5471 16.8607 16.6887 16.8143 16.7471 16.9129C16.8056 17.0116 16.6926 17.1089 16.6367 17.1945C15.0776 19.5886 12.8774 20.7416 10.0281 20.6123C6.92165 20.4712 4.15427 18.1234 3.4988 15.0276C2.67314 11.1317 5.15858 7.30556 9.04525 6.53538C11.9445 5.95856 14.8223 7.13311 16.4704 9.56777C16.5867 9.7337 16.6835 9.91269 16.827 10.1505Z"
        fill="#FF6600" />
</svg>
