<svg width="100" height="100" viewBox="0 0 100 100" fill="none" xmlns="http://www.w3.org/2000/svg">
<path d="M52.1311 10.9754C50.7425 10.5486 49.2577 10.5486 47.8691 10.9754L35.4286 14.799C29.0354 16.7639 22.9639 19.6528 17.4064 23.3741C13.8737 25.7396 15.5482 31.2499 19.7997 31.2499H80.2005C84.452 31.2499 86.1265 25.7396 82.5938 23.3741C77.0364 19.6528 70.9648 16.7639 64.5717 14.799L52.1311 10.9754Z" fill="#CCCCCC"/>
<path d="M17.7084 87.4999C17.7084 85.774 19.1075 84.3749 20.8334 84.3749H79.1667C80.8926 84.3749 82.2917 85.774 82.2917 87.4999C82.2917 89.2258 80.8926 90.6249 79.1667 90.6249H20.8334C19.1075 90.6249 17.7084 89.2258 17.7084 87.4999Z" fill="#CCCCCC"/>
<path d="M26.0417 70.8333C26.0417 72.5592 27.4408 73.9583 29.1667 73.9583C30.8926 73.9583 32.2917 72.5592 32.2917 70.8333L32.2917 45.8333C32.2917 44.1074 30.8926 42.7083 29.1667 42.7083C27.4408 42.7083 26.0417 44.1074 26.0417 45.8333L26.0417 70.8333Z" fill="#CCCCCC"/>
<path d="M50 73.9583C48.2741 73.9583 46.875 72.5592 46.875 70.8333L46.875 45.8333C46.875 44.1074 48.2741 42.7083 50 42.7083C51.7259 42.7083 53.125 44.1074 53.125 45.8333V70.8333C53.125 72.5592 51.7259 73.9583 50 73.9583Z" fill="#CCCCCC"/>
<path d="M67.7084 70.8333C67.7084 72.5592 69.1075 73.9583 70.8334 73.9583C72.5592 73.9583 73.9584 72.5592 73.9584 70.8333V45.8333C73.9584 44.1074 72.5592 42.7083 70.8334 42.7083C69.1075 42.7083 67.7084 44.1074 67.7084 45.8333V70.8333Z" fill="#CCCCCC"/>
</svg>
