<svg fill="none" height="14" viewBox="0 0 14 14" width="14" xmlns="http://www.w3.org/2000/svg"><path d="m7 0c-3.85995 0-7 3.14005-7 7 0 3.86 3.14005 7 7 7 3.86 0 7-3.14 7-7 0-3.85995-3.14-7-7-7z" fill="#2196f3"/><path d="m10.5479 5.5174-3.79169 3.79159c-.11375.11376-.26308.17101-.4124.17101s-.29864-.05725-.4124-.17101l-1.8958-1.8958c-.22815-.22804-.22815-.59675 0-.8248.22805-.22815.59665-.22815.8248 0l1.4834 1.4834 3.3793-3.37919c.22805-.22815.59669-.22815.82479 0 .2281.22804.2281.59665 0 .8248z" fill="#fafafa"/></svg>