<svg width="100" height="100" viewBox="0 0 100 100" fill="none" xmlns="http://www.w3.org/2000/svg">
<path fill-rule="evenodd" clip-rule="evenodd" d="M79.1668 89.5833H25.0001C16.9459 89.5833 10.4167 83.0541 10.4167 75V20.5966C10.4167 16.1485 14.8161 13.3285 18.6872 14.6724C19.2402 14.8644 19.7824 15.1414 20.2995 15.5108L21.0289 16.0317C24.6456 18.6151 29.5372 18.6037 33.1642 16.013C38.2348 12.3912 45.0987 12.3912 50.1693 16.013C53.7963 18.6037 58.6879 18.6151 62.3046 16.0317L63.034 15.5108C67.1707 12.556 72.9168 15.513 72.9168 20.5966V52.0833H87.5001C89.226 52.0833 90.6251 53.4824 90.6251 55.2083V78.1249C90.6251 84.4532 85.495 89.5833 79.1668 89.5833ZM73.9584 58.3333V78.1249C73.9584 81.0014 76.2903 83.3333 79.1668 83.3333C82.0432 83.3333 84.3751 81.0014 84.3751 78.1249V58.3333H73.9584ZM56.2501 40.6249C56.2501 38.899 54.851 37.4999 53.1251 37.4999H28.1251C26.3992 37.4999 25.0001 38.899 25.0001 40.6249C25.0001 42.3508 26.3992 43.7499 28.1251 43.7499H53.1251C54.851 43.7499 56.2501 42.3508 56.2501 40.6249ZM52.0834 53.1249C52.0834 51.399 50.6843 49.9999 48.9584 49.9999H28.1251C26.3992 49.9999 25.0001 51.399 25.0001 53.1249C25.0001 54.8508 26.3992 56.2499 28.1251 56.2499H48.9584C50.6843 56.2499 52.0834 54.8508 52.0834 53.1249ZM53.1251 62.4999C54.851 62.4999 56.2501 63.899 56.2501 65.6249C56.2501 67.3508 54.851 68.7499 53.1251 68.7499H28.1251C26.3992 68.7499 25.0001 67.3508 25.0001 65.6249C25.0001 63.899 26.3992 62.4999 28.1251 62.4999H53.1251Z" fill="#CCCCCC"/>
</svg>
