<svg width="14" height="14" viewBox="0 0 14 14" fill="none" xmlns="http://www.w3.org/2000/svg">
    <path d="M13.1414 6.44219C12.8324 6.44219 12.5836 6.69102 12.5836 7C12.5836 10.0789 10.0789 12.5836 7 12.5836C3.92109 12.5836 1.41641 10.0789 1.41641 7C1.41641 3.92109 3.92109 1.41641 7 1.41641C8.68164 1.41641 10.2402 2.15742 11.2957 3.43164H9.36797C9.05898 3.43164 8.81016 3.68047 8.81016 3.98945C8.81016 4.29844 9.05898 4.54727 9.36797 4.54727H12.5016C12.8105 4.54727 13.0594 4.29844 13.0594 3.98945V0.858594C13.0594 0.549609 12.8105 0.300781 12.5016 0.300781C12.1926 0.300781 11.9437 0.549609 11.9437 0.858594V2.47187C10.6832 1.09648 8.90859 0.300781 7 0.300781C3.30586 0.300781 0.300781 3.30586 0.300781 7C0.300781 10.6941 3.30586 13.6992 7 13.6992C10.6941 13.6992 13.6992 10.6941 13.6992 7C13.6992 6.69102 13.4504 6.44219 13.1414 6.44219Z" fill="#FF6600"/>
</svg>
