<svg width="30" height="30" viewBox="0 0 30 30" fill="none" xmlns="http://www.w3.org/2000/svg">
    <g clip-path="url(#clip0_12875_478)">
        <path d="M18.4357 1.89906L18.5176 1.98284L19.6839 3.17534L19.8333 3.32812L20.047 3.32572L21.7157 3.30697L21.716 3.30696C22.3717 3.2992 23.0223 3.42263 23.6296 3.66998C24.2369 3.91733 24.7886 4.28361 25.2523 4.74729C25.716 5.21096 26.0823 5.76267 26.3296 6.36997C26.577 6.97726 26.7004 7.62789 26.6926 8.28358L26.672 9.95207L26.6694 10.1663L26.8227 10.316L28.0169 11.4821C28.4857 11.9402 28.8583 12.4874 29.1126 13.0916C29.3669 13.6957 29.498 14.3446 29.498 15.0001C29.498 15.6556 29.3669 16.3045 29.1126 16.9087C28.8583 17.5128 28.4857 18.06 28.0169 18.5181L28.0167 18.5183L26.8242 19.6845L26.6715 19.8339L26.6739 20.0476L26.6926 21.7164L26.6926 21.7167C26.7004 22.3724 26.577 23.023 26.3296 23.6303C26.0823 24.2376 25.716 24.7893 25.2523 25.253C24.7886 25.7166 24.2369 26.0829 23.6296 26.3303C23.0223 26.5776 22.3717 26.701 21.716 26.6933L20.0475 26.6727L19.8333 26.67L19.6836 26.8233L18.5175 28.0175C18.0594 28.4864 17.5121 28.8589 16.908 29.1133C16.3039 29.3676 15.655 29.4986 14.9995 29.4986C14.344 29.4986 13.6951 29.3676 13.0909 29.1133C12.4868 28.8589 11.9396 28.4864 11.4815 28.0175L11.4813 28.0174L10.3151 26.8249L10.1656 26.6721L9.95197 26.6745L8.28323 26.6933L8.28293 26.6933C7.62723 26.701 6.97661 26.5776 6.36931 26.3303C5.76202 26.0829 5.21031 25.7166 4.74663 25.253C4.28296 24.7893 3.91667 24.2376 3.66932 23.6303C3.422 23.0231 3.29858 22.3725 3.3063 21.7169C3.30631 21.7168 3.30631 21.7168 3.30631 21.7167L3.32693 20.0482L3.32958 19.8339L3.17628 19.6843L1.98204 18.5181C1.982 18.5181 1.98195 18.518 1.98191 18.518C1.51314 18.0599 1.14066 17.5127 0.886338 16.9087C0.631997 16.3045 0.500977 15.6556 0.500977 15.0001C0.500977 14.3446 0.631997 13.6957 0.886338 13.0916C1.14068 12.4874 1.51321 11.9402 1.98204 11.4821L1.98219 11.482L3.17469 10.3157L3.32746 10.1663L3.32506 9.95263L3.30631 8.28388L3.30631 8.28358C3.29855 7.62789 3.42197 6.97726 3.66932 6.36997C3.91667 5.76267 4.28296 5.21096 4.74663 4.74729C5.21031 4.28361 5.76202 3.91733 6.36931 3.66998C6.97653 3.42266 7.62706 3.29923 8.28266 3.30696C8.28275 3.30696 8.28284 3.30696 8.28293 3.30696L9.95141 3.32758L10.1659 3.33023L10.3156 3.17666L11.4815 1.98082C11.4815 1.98077 11.4815 1.98073 11.4816 1.98069C11.9397 1.51192 12.4868 1.13943 13.0909 0.885117C13.6951 0.630776 14.344 0.499756 14.9995 0.499756C15.655 0.499756 16.3039 0.630776 16.908 0.885117C17.4766 1.12449 17.9948 1.46856 18.4357 1.89906Z" stroke="#FF6600"/>
        <path fill-rule="evenodd" clip-rule="evenodd" d="M13.5139 16.7192L13.5973 16.7192L13.7821 16.7197C15.3514 16.7281 19.0278 16.8708 19.0278 19.2959C19.0278 21.5444 16.0084 21.8448 13.6598 21.8562L13.2457 21.856C11.6764 21.8476 8 21.705 8 19.2805C8 16.9845 11.1465 16.7192 13.5139 16.7192ZM13.5139 17.7692C10.5522 17.7692 9.05 18.2781 9.05 19.2805C9.05 20.2927 10.5522 20.8065 13.5139 20.8065C16.4756 20.8065 17.9778 20.2976 17.9778 19.2959C17.9778 18.2823 16.4756 17.7692 13.5139 17.7692ZM20.0429 12.1431C20.3327 12.1431 20.5679 12.3783 20.5679 12.6681L20.5678 13.5461L21.475 13.5467C21.7648 13.5467 22 13.7819 22 14.0717C22 14.3615 21.7648 14.5967 21.475 14.5967L20.5678 14.5961L20.5679 15.4758C20.5679 15.7656 20.3327 16.0008 20.0429 16.0008C19.7531 16.0008 19.5179 15.7656 19.5179 15.4758L19.5178 14.5961L18.612 14.5967C18.3222 14.5967 18.087 14.3615 18.087 14.0717C18.087 13.7819 18.3222 13.5467 18.612 13.5467L19.5178 13.5461L19.5179 12.6681C19.5179 12.3783 19.7531 12.1431 20.0429 12.1431ZM13.5139 8C15.567 8 17.2365 9.6702 17.2365 11.7226C17.2365 13.775 15.567 15.4452 13.5139 15.4452H13.4922C12.4989 15.4417 11.5679 15.0518 10.87 14.349C10.1714 13.6455 9.7885 12.7117 9.79198 11.7205C9.79198 9.6702 11.4615 8 13.5139 8ZM13.5139 9.05C12.0411 9.05 10.842 10.2491 10.842 11.7226C10.8392 12.4359 11.1136 13.1044 11.6141 13.6091C12.1153 14.1131 12.7831 14.3924 13.4943 14.3952L13.5139 14.9139V14.3952C14.9874 14.3952 16.1865 13.1961 16.1865 11.7226C16.1865 10.2491 14.9874 9.05 13.5139 9.05Z" fill="#FF6600"/>
    </g>
    <defs>
        <clipPath id="clip0_12875_478">
            <rect width="30" height="30" fill="white"/>
        </clipPath>
    </defs>
</svg>
