<svg width="30" height="30" viewBox="0 0 30 30" fill="none" xmlns="http://www.w3.org/2000/svg">
    <path d="M17.102 0.42429C17.7676 0.704486 18.3704 1.11489 18.8751 1.63137V1.63325L20.0413 2.82575L21.7101 2.807C22.4324 2.79845 23.1492 2.93442 23.8182 3.20691C24.4873 3.47941 25.095 3.88292 25.6059 4.39373C26.1167 4.90454 26.5202 5.51233 26.7927 6.18136C27.0652 6.85039 27.2011 7.56715 27.1926 8.2895L27.172 9.95825L28.3663 11.1245C28.8828 11.6292 29.2932 12.232 29.5734 12.8976C29.8536 13.5631 29.998 14.278 29.998 15.0001C29.998 15.7223 29.8536 16.4371 29.5734 17.1027C29.2932 17.7682 28.8828 18.3711 28.3663 18.8757L27.1738 20.042L27.1926 21.7107C27.2011 22.4331 27.0652 23.1499 26.7927 23.8189C26.5202 24.4879 26.1167 25.0957 25.6059 25.6065C25.095 26.1173 24.4873 26.5208 23.8182 26.7933C23.1492 27.0658 22.4324 27.2018 21.7101 27.1932L20.0413 27.1726L18.8751 28.367C18.3704 28.8835 17.7676 29.2939 17.102 29.5741C16.4364 29.8543 15.7216 29.9986 14.9995 29.9986C14.2773 29.9986 13.5625 29.8543 12.8969 29.5741C12.2314 29.2939 11.6285 28.8835 11.1238 28.367L9.95759 27.1745L8.28884 27.1932C7.5665 27.2018 6.84974 27.0658 6.18071 26.7933C5.51168 26.5208 4.90389 26.1173 4.39308 25.6065C3.88227 25.0957 3.47875 24.4879 3.20626 23.8189C2.93376 23.1499 2.79779 22.4331 2.80634 21.7107L2.82697 20.042L1.63259 18.8757C1.11611 18.3711 0.705706 17.7682 0.425511 17.1027C0.145315 16.4371 0.000976562 15.7223 0.000976562 15.0001C0.000976562 14.278 0.145315 13.5631 0.425511 12.8976C0.705706 12.232 1.11611 11.6292 1.63259 11.1245L2.82509 9.95825L2.80634 8.2895C2.79779 7.56715 2.93376 6.85039 3.20626 6.18136C3.47875 5.51233 3.88227 4.90454 4.39308 4.39373C4.90389 3.88292 5.51168 3.47941 6.18071 3.20691C6.84974 2.93442 7.5665 2.79845 8.28884 2.807L9.95759 2.82762L11.1238 1.63137C11.6285 1.11489 12.2314 0.704486 12.8969 0.42429C13.5625 0.144095 14.2773 -0.000244141 14.9995 -0.000244141C15.7216 -0.000244141 16.4364 0.144095 17.102 0.42429Z" fill="#FF6600"/>
    <path fill-rule="evenodd" clip-rule="evenodd" d="M13.3198 16.3784C15.6034 16.3784 18.6396 16.6356 18.6396 18.8603C18.6396 21.2039 15.1018 21.3445 13.5843 21.3529L13.0333 21.3529C11.4152 21.3445 8 21.2047 8 18.8743C8 16.5282 11.5378 16.3874 13.0553 16.3789L13.2377 16.3784C13.2661 16.3784 13.2935 16.3784 13.3198 16.3784ZM13.3198 17.4295C11.3725 17.4295 9.05107 17.6796 9.05107 18.8743C9.05107 19.8217 10.4875 20.3024 13.3198 20.3024C16.1521 20.3024 17.5885 19.8168 17.5885 18.8603C17.5885 17.9109 16.1521 17.4295 13.3198 17.4295ZM19.7066 16.0511C21.6027 16.3349 22 17.2129 22 17.8989C22 18.4097 21.7793 19.1013 20.7261 19.5C20.6651 19.5231 20.6021 19.5343 20.5397 19.5343C20.3274 19.5343 20.1277 19.4047 20.0485 19.1952C19.9455 18.924 20.0822 18.6199 20.3533 18.5176C20.9489 18.292 20.9489 18.0166 20.9489 17.8989C20.9489 17.5016 20.4788 17.2297 19.5517 17.0917C19.2644 17.0482 19.0661 16.7805 19.1089 16.494C19.1523 16.2067 19.4249 16.014 19.7066 16.0511ZM13.3198 8C15.3035 8 16.918 9.61444 16.918 11.5982C16.9222 12.5539 16.5515 13.4564 15.876 14.1361C15.2019 14.8165 14.3015 15.1928 13.3436 15.1963H13.3198C11.3354 15.1963 9.72095 13.5819 9.72095 11.5982C9.72095 9.61444 11.3354 8 13.3198 8ZM18.2862 8.78746C19.6631 9.01309 20.6623 10.191 20.6623 11.5875C20.6595 12.9924 19.6105 14.1991 18.2217 14.3938C18.1972 14.3974 18.1726 14.3988 18.1481 14.3988C17.8903 14.3988 17.6653 14.2089 17.6282 13.9461C17.5883 13.6588 17.788 13.3925 18.0752 13.3526C18.9497 13.23 19.6098 12.4711 19.6112 11.5868C19.6112 10.7081 18.982 9.96676 18.1166 9.82521C17.83 9.77756 17.6359 9.50779 17.6828 9.2212C17.7298 8.93461 18.001 8.74191 18.2862 8.78746ZM13.3198 9.05107C11.9149 9.05107 10.772 10.1939 10.772 11.5982C10.772 13.0024 11.9149 14.1452 13.3198 14.1452H13.3415C14.017 14.1424 14.6533 13.8769 15.1304 13.3955C15.6083 12.9155 15.8697 12.2771 15.8669 11.6003C15.8669 10.1939 14.724 9.05107 13.3198 9.05107Z" fill="white"/>
</svg>
