<svg width="100" height="100" viewBox="0 0 100 100" fill="none" xmlns="http://www.w3.org/2000/svg">
<path fill-rule="evenodd" clip-rule="evenodd" d="M87.5425 42.3803L87.5532 57.4756C87.447 58.9137 87.31 60.3501 87.1423 61.7838C86.8619 64.1814 84.9129 66.1153 82.4654 66.3888C74.7998 67.2456 66.8672 67.2456 59.2016 66.3888C56.7541 66.1153 54.8051 64.1814 54.5247 61.7838C53.609 53.9546 53.609 46.0454 54.5247 38.2162C54.8051 35.8186 56.7541 33.8847 59.2016 33.6112C66.8672 32.7544 74.7998 32.7544 82.4654 33.6112C84.9129 33.8847 86.8619 35.8186 87.1423 38.2162C87.3044 39.602 87.4378 40.9904 87.5425 42.3803ZM70.8335 43.75C67.3817 43.75 64.5835 46.5482 64.5835 50C64.5835 53.4518 67.3817 56.25 70.8335 56.25C74.2853 56.25 77.0835 53.4518 77.0835 50C77.0835 46.5482 74.2853 43.75 70.8335 43.75Z" fill="#CCCCCC"/>
<path d="M85.0151 25.1655C85.663 26.2874 84.4471 27.5437 83.1596 27.3998C75.0326 26.4915 66.6344 26.4915 58.5074 27.3998C53.2184 27.9909 48.9409 32.1557 48.317 37.4901C47.3449 45.8017 47.3449 54.1983 48.317 62.5099C48.9409 67.8443 53.2184 72.009 58.5074 72.6002C66.6344 73.5085 75.0326 73.5085 83.1596 72.6002C84.4557 72.4553 85.6815 73.7203 85.0274 74.8485C81.7833 80.4437 75.9995 84.3486 69.2785 85.0559L66.5624 85.3417C52.7672 86.7934 38.8529 86.6976 25.0789 85.0563L23.2792 84.8418C15.8537 83.957 9.97011 78.1555 8.98107 70.7431C7.14401 56.9754 7.14401 43.0246 8.98107 29.2569C9.97011 21.8445 15.8537 16.043 23.2792 15.1582L25.0789 14.9437C38.8529 13.3024 52.7672 13.2066 66.5625 14.6583L69.2785 14.9441C76.0051 15.652 81.7798 19.5628 85.0151 25.1655Z" fill="#CCCCCC"/>
</svg>
