<svg width="191" height="194" viewBox="0 0 191 194" fill="none" xmlns="http://www.w3.org/2000/svg">
<path d="M148.029 77.8008C148.029 77.8008 142.104 86.6782 142.104 91.0549C142.104 93.961 142.826 96.4325 146.604 96.5218C150.382 96.611 155.298 96.5761 155.298 96.5761C155.298 96.5761 160.62 95.3423 158.102 88.6919C156.606 84.8789 154.718 81.2373 152.468 77.8279L148.029 77.8008Z" fill="#EBEBEB"/>
<path d="M154.882 72.0662C154.821 71.6355 154.301 71.4454 153.87 71.4493C152.342 71.4764 151.047 72.7879 149.53 72.7103C148.579 72.6598 147.75 72.0701 146.875 71.686C146.666 71.5811 146.439 71.5204 146.207 71.5075C146.091 71.5006 145.976 71.522 145.87 71.5699C145.764 71.6179 145.671 71.6909 145.599 71.783C145.385 72.0895 145.519 72.5085 145.66 72.8577C146.363 74.561 147.525 76.2527 148.369 77.9017L152.754 78.0841C152.743 76.2179 153.36 74.404 154.504 72.9431C154.623 72.8317 154.719 72.6962 154.784 72.5452C154.849 72.3942 154.882 72.2311 154.882 72.0662Z" fill="#EBEBEB"/>
<path d="M150.734 91.5444V92.4523H149.935V91.5677C149.227 91.5389 148.54 91.3105 147.953 90.9081L148.4 89.9187C148.85 90.2449 149.377 90.4467 149.928 90.5046V89.1504C149.045 88.9254 148.056 88.6228 148.063 87.4626C148.063 86.6013 148.686 85.868 149.951 85.7283V84.8281H150.749V85.7128C151.319 85.7491 151.873 85.9219 152.365 86.2172L151.96 87.2143C151.586 86.9902 151.172 86.8438 150.741 86.7836V88.1649C151.624 88.3783 152.598 88.6848 152.59 89.8294C152.598 90.6714 151.987 91.397 150.734 91.5444ZM149.97 87.9554V86.7914C149.546 86.8884 149.377 87.1212 149.374 87.3889C149.37 87.6566 149.603 87.839 149.954 87.9554H149.97ZM151.333 89.9187C151.333 89.6354 151.104 89.4802 150.76 89.3561V90.4735C151.139 90.4037 151.314 90.1786 151.318 89.9187H151.333Z" fill="#E0E0E0"/>
<path d="M148.128 80.3179C148.15 79.5969 148.308 78.8869 148.594 78.2266C148.567 78.947 148.409 79.6561 148.128 80.3179Z" fill="#E0E0E0"/>
<path d="M148.483 83.0867C148.481 82.224 148.565 81.3633 148.736 80.5182C148.844 79.6628 149.036 78.8205 149.309 78.0039C149.227 78.8601 149.1 79.7111 148.927 80.5531C148.825 81.4053 148.677 82.2511 148.483 83.0867Z" fill="#E0E0E0"/>
<path d="M151.6 80.7056C151.338 79.8914 151.202 79.0404 151.199 78.1836C151.362 78.5804 151.462 79.0007 151.497 79.4291C151.596 79.8466 151.631 80.2772 151.6 80.7056Z" fill="#E0E0E0"/>
<path d="M148.052 74.6055C148.87 75.3755 149.535 76.2974 150.011 77.3215C149.638 76.9102 149.299 76.4676 148.999 75.9984C148.646 75.5615 148.329 75.0956 148.052 74.6055Z" fill="#E0E0E0"/>
<path d="M149.408 73.3789C149.624 74.0268 149.8 74.6877 149.935 75.3577C150.131 76.0113 150.285 76.6776 150.393 77.352C150.095 76.7363 149.875 76.0844 149.74 75.412C149.542 74.7521 149.43 74.0685 149.408 73.3789Z" fill="#E0E0E0"/>
<path d="M154.817 92.6251C155.138 92.2281 155.366 91.7625 155.485 91.2632C155.535 90.7509 155.471 90.234 155.298 89.75C155.298 89.75 155.443 89.8742 155.558 90.138C155.705 90.5 155.749 90.8966 155.684 91.2826C155.618 91.6702 155.448 92.0316 155.191 92.3263C154.993 92.5591 154.832 92.6445 154.817 92.6251Z" fill="#E0E0E0"/>
<path d="M145.179 89.8611C145.16 89.8611 145.049 89.7796 144.938 89.574C144.795 89.2998 144.728 88.9914 144.743 88.6816C144.754 88.3721 144.845 88.071 145.007 87.8086C145.133 87.6107 145.252 87.5253 145.271 87.5408C145.07 87.8919 144.956 88.2875 144.94 88.6933C144.924 89.099 145.006 89.5026 145.179 89.8689V89.8611Z" fill="#E0E0E0"/>
<path d="M152.544 78.4716L147.758 78.4406C147.675 78.4406 147.592 78.4239 147.516 78.3915C147.439 78.3591 147.369 78.3116 147.311 78.2517C147.252 78.1919 147.206 78.1208 147.174 78.0427C147.143 77.9646 147.127 77.8809 147.127 77.7965C147.128 77.7121 147.145 77.6287 147.177 77.5509C147.21 77.4732 147.257 77.4027 147.316 77.3436C147.375 77.2844 147.446 77.2378 147.523 77.2063C147.6 77.1749 147.682 77.1592 147.765 77.1602L152.552 77.1874C152.635 77.1879 152.717 77.205 152.794 77.2379C152.871 77.2707 152.941 77.3186 152.999 77.3787C153.058 77.4389 153.104 77.5102 153.135 77.5885C153.167 77.6669 153.183 77.7507 153.182 77.8353C153.18 78.0055 153.112 78.1679 152.992 78.2871C152.873 78.4063 152.712 78.4727 152.544 78.4716Z" fill="#E0E0E0"/>
<path d="M26.7399 81.7547C26.7365 81.725 26.7365 81.6951 26.7399 81.6654C26.7399 81.5956 26.7399 81.5141 26.7399 81.4093C26.7399 81.1727 26.7399 80.8467 26.7399 80.4238C26.7399 79.5625 26.7399 78.3247 26.7093 76.7611L26.7399 76.8271L8.15556 76.8659C8.19758 76.8232 8.06006 76.9629 8.24724 76.7689V81.7547L8.15556 81.6615L21.3995 81.7042L25.3074 81.7314H26.3655H26.6405H26.7399C26.7107 81.735 26.6812 81.735 26.652 81.7314H26.3884H25.3494L21.4644 81.7585L8.15556 81.8012H8.06006V76.7689L8.15556 76.6719L26.7399 76.7107H26.7972V76.7689C26.7972 78.348 26.7742 79.5974 26.7666 80.4665C26.7666 80.8817 26.7666 81.2076 26.7666 81.4365C26.7666 81.5374 26.7666 81.6189 26.7666 81.6848C26.7595 81.7088 26.7506 81.7321 26.7399 81.7547Z" fill="#E0E0E0"/>
<path d="M29.2534 76.7586C29.2534 76.7586 29.2534 76.7237 29.2534 76.6655C29.2534 76.6073 29.2534 76.5064 29.2534 76.3978C29.2534 76.1534 29.2534 75.8197 29.2534 75.3968C29.2534 74.5238 29.2534 73.286 29.219 71.7651L29.2839 71.8349L18.1181 71.8621L18.2136 71.7651V74.3298C18.2136 75.164 18.2136 75.9749 18.2136 76.7509L18.1219 76.6578L26.1095 76.7043L28.4397 76.7276H29.0662C29.14 76.7228 29.214 76.7228 29.2878 76.7276C29.2204 76.7331 29.1527 76.7331 29.0853 76.7276H28.4779L26.1859 76.7509L18.1372 76.7974H18.0493V76.7043C18.0493 75.9283 18.0493 75.1174 18.0493 74.2832V71.7806L18.1448 71.6836L29.3107 71.7108H29.3794V71.7806C29.3794 73.3326 29.3527 74.5703 29.3451 75.455C29.3451 75.8701 29.3451 76.1999 29.3451 76.4405C29.3237 76.549 29.293 76.6555 29.2534 76.7586Z" fill="#E0E0E0"/>
<path d="M137.902 88.4261C137.9 88.3964 137.9 88.3666 137.902 88.3369V88.0808C137.902 87.8441 137.902 87.5182 137.902 87.0992C137.902 86.2339 137.883 84.9962 137.868 83.4326L137.925 83.4908L119.34 83.5296L119.436 83.4326V85.9623C119.436 86.7965 119.436 87.6152 119.436 88.4184L119.344 88.3253L132.588 88.3679L136.5 88.3951H137.554H137.833H137.902C137.902 88.3951 137.875 88.3951 137.818 88.3951H137.52H136.485L132.596 88.4184L119.287 88.4611H119.195V88.3641C119.195 87.5622 119.195 86.7435 119.195 85.908V83.3783L119.291 83.2812L137.875 83.3201H137.936V83.4209C137.936 85.0001 137.913 86.2495 137.906 87.1186C137.906 87.5337 137.906 87.8597 137.906 88.0886C137.906 88.1895 137.906 88.2709 137.906 88.3369C137.906 88.4029 137.902 88.43 137.902 88.4261Z" fill="#E0E0E0"/>
<path d="M160.501 16.1609C160.498 16.1299 160.498 16.0987 160.501 16.0678V15.8117C160.501 15.5789 160.501 15.2491 160.501 14.83C160.501 13.9687 160.501 12.7271 160.47 11.1634L160.528 11.2255L141.917 11.2527L142.008 11.1596V16.1609L141.917 16.0639L155.161 16.1066L159.069 16.1337H160.127H160.402H160.501H160.413H160.15H159.111L155.226 16.1609L141.917 16.2036H141.821V11.1673L141.917 11.0703L160.501 11.1052H160.558V11.1634C160.558 12.7426 160.535 13.9958 160.528 14.865C160.528 15.2801 160.528 15.6022 160.528 15.835C160.528 15.9358 160.528 16.0173 160.528 16.0794C160.521 16.1071 160.512 16.1343 160.501 16.1609Z" fill="#E0E0E0"/>
<path d="M87.0961 117.954C87.0961 117.954 87.0961 117.919 87.0961 117.861C87.0961 117.803 87.0961 117.709 87.0961 117.605C87.0961 117.372 87.0961 117.042 87.0961 116.623C87.0961 115.762 87.0961 114.52 87.0655 112.96L87.1229 113.019L68.5385 113.053C68.5806 113.011 68.443 113.15 68.634 112.96V115.49C68.634 116.32 68.634 117.143 68.634 117.946L68.5424 117.849L81.7863 117.892L85.6942 117.919H86.7523H87.0312C87.0629 117.916 87.0949 117.916 87.1267 117.919H87.0426H86.7752H85.74L81.8512 117.946L68.5424 117.989H68.4507V117.954C68.4507 117.151 68.4507 116.328 68.4507 115.498V112.968L68.5462 112.871L87.0961 112.91H87.1534V112.968C87.1534 114.543 87.1305 115.797 87.1229 116.666C87.1229 117.081 87.1229 117.403 87.1229 117.636V117.88C87.1169 117.906 87.1079 117.931 87.0961 117.954Z" fill="#E0E0E0"/>
<path d="M89.6056 112.949C89.6028 112.917 89.6028 112.884 89.6056 112.852C89.6056 112.782 89.6056 112.693 89.6056 112.588C89.6056 112.344 89.6056 112.006 89.6056 111.587C89.6056 110.71 89.5827 109.472 89.5674 107.955L89.6362 108.021L78.4703 108.048L78.562 107.955V110.52C78.562 111.354 78.562 112.165 78.562 112.941L78.4741 112.848L86.4618 112.891L88.7881 112.918H89.4146H89.64C89.5726 112.923 89.5049 112.923 89.4375 112.918H88.8263L86.5343 112.941L78.4856 112.984H78.3939V112.895C78.3939 112.119 78.3939 111.308 78.3939 110.473V107.909C78.371 107.909 78.5735 107.726 78.4894 107.812L89.6553 107.839H89.724V107.909C89.724 109.461 89.6935 110.695 89.6858 111.583C89.6858 111.998 89.6858 112.324 89.6858 112.569C89.6858 112.813 89.6094 112.953 89.6056 112.949Z" fill="#E0E0E0"/>
<path d="M31.4309 149.875H14.3784V154.457H31.4309V149.875Z" fill="#EBEBEB"/>
<path d="M24.2226 159.282C24.2209 159.255 24.2209 159.228 24.2226 159.201C24.2226 159.139 24.2226 159.061 24.2226 158.964C24.2226 158.751 24.2226 158.448 24.2226 158.064C24.2226 157.288 24.2035 156.124 24.1921 154.7L24.2456 154.754L7.19307 154.789C7.23127 154.75 7.10521 154.878 7.27711 154.7V159.274L7.19307 159.189L19.3445 159.228L22.9315 159.255H23.9018H24.2456H24.1653H23.9247H22.9735L19.4056 159.282L7.18161 159.321H7.09375V154.665C7.26565 154.49 7.14341 154.618 7.18161 154.58L24.2341 154.611H24.2876V154.661C24.2876 156.108 24.2647 157.257 24.257 158.056C24.257 158.444 24.257 158.735 24.257 158.945C24.257 159.038 24.257 159.112 24.257 159.174C24.2513 159.211 24.2397 159.248 24.2226 159.282Z" fill="#E0E0E0"/>
<path d="M111.433 15.6523H94.3809V20.2346H111.433V15.6523Z" fill="#EBEBEB"/>
<path d="M104.225 25.0619C104.222 25.0335 104.222 25.0049 104.225 24.9765C104.225 24.9144 104.225 24.8407 104.225 24.7437C104.225 24.5264 104.225 24.2277 104.225 23.8397C104.225 23.0637 104.225 21.8997 104.198 20.4796L104.252 20.53L87.1688 20.5649L87.2566 20.4796V22.8076C87.2566 23.5836 87.2566 24.3247 87.2566 25.0619L87.1726 24.9726L99.3278 25.0153L102.915 25.0386H103.885H104.137H104.229H104.149H103.904H102.953L99.3851 25.0657L87.1611 25.1045H87.0962V25.0192C87.0962 24.282 87.0962 23.5293 87.0962 22.7649V20.4369L87.184 20.3477L104.24 20.3826H104.286V20.4369C104.286 21.8841 104.267 23.0326 104.259 23.828C104.259 24.216 104.259 24.507 104.259 24.7204C104.259 24.8135 104.259 24.8873 104.259 24.9455C104.259 25.0037 104.225 25.0619 104.225 25.0619Z" fill="#E0E0E0"/>
<path d="M63.8245 48.875H46.772V53.4573H63.8245V48.875Z" fill="#EBEBEB"/>
<path d="M56.6123 58.2884C56.6123 58.2884 56.6123 58.2574 56.6123 58.203C56.6123 58.1487 56.6123 58.0634 56.6123 57.9702C56.6123 57.753 56.6123 57.4542 56.6123 57.0662C56.6123 56.2902 56.6123 55.1262 56.5818 53.7061L56.6352 53.7566L39.5828 53.7915C39.621 53.7527 39.4949 53.8807 39.6706 53.7061V58.2884L39.5866 58.1992L51.738 58.2419L55.325 58.2651H56.2953H56.5359H56.6238H56.5359H56.2915H55.3403L51.7724 58.2923L39.5484 58.3311H39.4644V58.2457C39.4644 57.5085 39.4644 56.7558 39.4644 55.9915V53.6635L39.5522 53.5742L56.6047 53.6091H56.6582V53.6635C56.6582 55.1107 56.6353 56.2592 56.6276 57.0546C56.6276 57.4426 56.6276 57.7336 56.6276 57.947C56.6276 58.0401 56.6276 58.1138 56.6276 58.172C56.6276 58.2302 56.6161 58.2884 56.6123 58.2884Z" fill="#E0E0E0"/>
<path d="M96.9324 85.6328H79.8799V90.2151H96.9324V85.6328Z" fill="#EBEBEB"/>
<path d="M177.626 34.5312H160.574V39.1135H177.626V34.5312Z" fill="#EBEBEB"/>
<path d="M126.178 48.4844H109.126V53.0666H126.178V48.4844Z" fill="#F5F5F5"/>
<path d="M43.2234 11.2344H26.1709V15.8167H43.2234V11.2344Z" fill="#F5F5F5"/>
<path d="M130.006 175.333C129.731 174.22 130.453 173.106 131.266 172.303C132.08 171.5 133.043 170.778 133.47 169.715C134.158 167.984 133.256 165.738 134.425 164.283C135.113 163.437 136.335 163.158 136.947 162.254C137.228 161.754 137.416 161.205 137.501 160.636C138.162 157.763 139.57 155.122 141.576 152.988C141.696 155.549 141.135 158.095 139.953 160.36C139.479 161.264 138.899 162.149 138.734 163.162C138.475 164.803 139.368 166.506 138.964 168.12C138.498 169.963 136.446 171.189 136.339 173.091C136.248 174.701 137.619 176.121 137.508 177.727C137.421 178.409 137.176 179.061 136.794 179.628C135.556 181.689 133.738 183.12 131.022 183.043L127.683 183.14L130.006 175.333Z" fill="#F5F5F5"/>
<path d="M127.008 183.259C126.702 183.305 126.39 183.297 126.087 183.235C125.719 183.176 125.357 183.081 125.006 182.952C124.522 182.778 124.07 182.522 123.669 182.196C123.427 181.997 123.239 181.739 123.123 181.447C123.022 181.119 122.971 180.778 122.97 180.434C122.966 180.067 122.942 179.7 122.897 179.336C122.835 178.948 122.699 178.577 122.496 178.242C122.114 177.54 121.457 176.868 121.251 175.914C121.045 174.959 121.197 173.974 121.358 172.942C121.518 171.91 121.675 170.816 121.297 169.756C120.918 168.697 120.219 167.731 119.86 166.532C119.501 165.333 119.677 164.026 119.608 162.741C119.589 162.091 119.445 161.45 119.184 160.856C118.917 160.254 118.546 159.692 118.256 159.051C117.672 157.771 117.576 156.335 117.419 154.904C117.348 154.185 117.273 153.462 117.194 152.735C117.147 152 117.027 151.272 116.835 150.562C116.612 149.846 116.35 149.144 116.048 148.459C115.889 148.105 115.762 147.738 115.666 147.361C115.611 146.975 115.577 146.587 115.563 146.197C115.534 145.419 115.568 144.641 115.666 143.869C115.762 143.093 115.903 142.317 115.991 141.541C115.991 141.494 115.991 141.448 115.991 141.405L116.01 141.25L116.147 141.32C116.854 141.689 117.466 142.22 117.935 142.872C118.394 143.508 118.762 144.207 119.028 144.948C119.578 146.407 119.772 147.935 120.044 149.394C120.245 150.835 120.702 152.227 121.392 153.503C121.755 154.112 122.194 154.667 122.58 155.257C122.991 155.834 123.27 156.497 123.398 157.197C123.585 158.636 122.802 159.89 122.955 161.162C123.031 161.786 123.235 162.386 123.554 162.924C123.856 163.471 124.208 163.975 124.544 164.476C124.886 164.971 125.184 165.497 125.434 166.047C125.665 166.587 125.8 167.163 125.835 167.75C125.907 168.895 125.743 169.978 125.835 171.002C125.922 171.978 126.197 172.927 126.645 173.795C127.027 174.634 127.489 175.39 127.859 176.123C128.047 176.488 128.219 176.849 128.36 177.206C128.493 177.553 128.589 177.913 128.646 178.281C128.738 178.924 128.738 179.577 128.646 180.221C128.552 181.117 128.216 181.97 127.676 182.685C127.594 182.791 127.503 182.889 127.405 182.979C127.339 183.05 127.264 183.113 127.183 183.166L126.992 183.301C127.231 183.111 127.449 182.895 127.642 182.657C128.161 181.941 128.479 181.095 128.562 180.209C128.639 179.574 128.629 178.932 128.532 178.3C128.471 177.942 128.374 177.59 128.241 177.253C128.1 176.903 127.928 176.546 127.737 176.182C127.355 175.456 126.912 174.703 126.503 173.854C126.043 172.971 125.759 172.004 125.667 171.01C125.587 169.962 125.747 168.876 125.667 167.758C125.638 167.191 125.508 166.634 125.285 166.113C125.04 165.57 124.747 165.05 124.41 164.561C124.074 164.057 123.715 163.552 123.405 163.009C123.072 162.449 122.858 161.823 122.779 161.174C122.626 159.82 123.405 158.555 123.214 157.22C123.088 156.551 122.818 155.917 122.424 155.365C122.042 154.783 121.602 154.232 121.228 153.608C120.52 152.296 120.053 150.864 119.853 149.382C119.578 147.916 119.383 146.403 118.844 144.975C118.587 144.252 118.228 143.571 117.778 142.953C117.329 142.33 116.743 141.821 116.067 141.467L116.22 141.382V141.518C116.132 142.294 115.987 143.089 115.895 143.846C115.795 144.617 115.761 145.396 115.792 146.174C115.811 146.562 115.834 146.95 115.888 147.303C115.986 147.667 116.114 148.023 116.27 148.366C116.576 149.058 116.841 149.768 117.064 150.492C117.259 151.213 117.381 151.953 117.427 152.7C117.503 153.429 117.576 154.151 117.652 154.869C117.801 156.297 117.901 157.721 118.462 158.958C118.741 159.571 119.112 160.142 119.387 160.763C119.654 161.375 119.801 162.033 119.822 162.703C119.891 164.014 119.715 165.29 120.055 166.454C120.395 167.618 121.121 168.577 121.48 169.675C121.839 170.773 121.698 171.925 121.534 172.938C121.369 173.951 121.201 174.952 121.411 175.856C121.621 176.76 122.229 177.431 122.626 178.157C122.833 178.505 122.972 178.891 123.035 179.293C123.076 179.662 123.098 180.032 123.1 180.403C123.097 180.737 123.143 181.069 123.237 181.389C123.347 181.667 123.523 181.914 123.749 182.106C124.141 182.429 124.583 182.684 125.056 182.863C125.4 182.998 125.757 183.098 126.121 183.162C126.346 183.204 126.573 183.229 126.801 183.235C126.927 183.255 127.008 183.259 127.008 183.259Z" fill="#E0E0E0"/>
<path d="M116.678 143.238C116.694 143.272 116.706 143.307 116.712 143.343L116.785 143.646C116.846 143.913 116.923 144.317 117.045 144.81C117.167 145.302 117.476 145.884 117.729 146.587C117.981 147.289 118.263 148.092 118.512 148.996C118.76 149.9 118.982 150.909 119.211 151.988C119.407 153.138 119.761 154.254 120.261 155.305C120.532 155.856 120.834 156.419 121.079 157.028C121.313 157.653 121.47 158.304 121.549 158.968C121.707 160.355 121.937 161.734 122.24 163.096C122.893 165.882 123.516 168.528 124.085 170.945C124.654 173.363 125.189 175.52 125.632 177.347C126.075 179.175 126.396 180.63 126.656 181.666C126.771 182.162 126.858 182.558 126.923 182.83C126.95 182.954 126.973 183.055 126.988 183.136C126.994 183.171 126.994 183.206 126.988 183.241C126.972 183.209 126.96 183.175 126.954 183.14C126.931 183.059 126.9 182.962 126.866 182.838C126.793 182.554 126.69 182.166 126.56 181.674C126.297 180.641 125.926 179.175 125.468 177.371C125.01 175.566 124.475 173.382 123.879 170.98L122.015 163.131C121.71 161.77 121.478 160.393 121.319 159.007C121.248 158.356 121.097 157.717 120.869 157.105C120.636 156.508 120.334 155.941 120.063 155.394C119.561 154.327 119.209 153.193 119.016 152.026C118.794 150.944 118.584 149.943 118.344 149.039C118.103 148.135 117.851 147.328 117.58 146.629C117.308 145.931 117.049 145.353 116.926 144.833C116.804 144.313 116.755 143.917 116.701 143.646C116.682 143.518 116.667 143.417 116.651 143.335C116.656 143.302 116.665 143.269 116.678 143.238Z" fill="#E0E0E0"/>
<path d="M126.419 183.265C124.245 181.934 123.642 177.934 124.562 175.536C125.483 173.138 127.091 170.946 127.351 168.381C127.55 166.41 126.927 164.381 127.389 162.456C128.016 159.861 130.525 157.859 130.514 155.185C130.514 153.688 129.673 152.271 129.75 150.77C129.842 148.935 131.24 147.483 132.111 145.869C133.44 143.398 133.543 140.468 134.021 137.69C134.498 134.912 135.549 131.944 137.978 130.594C138.326 132.953 138.925 134.575 138.715 137.768C138.643 138.932 137.317 141.109 137.122 143.623C137.008 145.124 136.924 146.63 136.828 148.135C136.733 149.641 136.63 151.088 136.103 152.458C135.701 153.505 135.06 154.452 134.762 155.534C134.196 157.571 134.911 159.783 134.452 161.847C134.07 163.597 132.863 165.095 132.611 166.868C132.252 169.363 133.826 171.962 132.993 174.333C132.584 175.497 131.622 176.455 131.343 177.674C131.129 178.617 131.343 179.614 131.156 180.568C130.839 182.097 127.958 183.284 126.426 183.164" fill="#E0E0E0"/>
<path d="M137.348 132.93C137.352 132.975 137.352 133.02 137.348 133.065C137.348 133.162 137.317 133.291 137.294 133.453C137.245 133.791 137.184 134.292 137.069 134.94C136.954 135.587 136.607 136.321 136.339 137.202C136.072 138.082 135.774 139.095 135.522 140.232C135.27 141.369 135.052 142.622 134.827 143.976C134.641 145.434 134.255 146.859 133.681 148.209C133.371 148.915 133.024 149.621 132.76 150.374C132.505 151.148 132.346 151.951 132.286 152.764C132.155 154.495 131.931 156.218 131.618 157.925L129.681 167.768C129.055 170.783 128.489 173.503 128.012 175.788C127.534 178.073 127.141 179.901 126.866 181.189L126.545 182.656L126.453 183.044C126.447 183.088 126.436 183.131 126.419 183.172C126.413 183.128 126.413 183.084 126.419 183.04C126.434 182.944 126.457 182.815 126.488 182.652C126.553 182.303 126.648 181.806 126.767 181.177C127.026 179.885 127.393 178.039 127.844 175.745L129.498 167.729C130.09 164.703 130.739 161.378 131.408 157.886C131.721 156.185 131.945 154.469 132.08 152.745C132.141 151.914 132.305 151.094 132.569 150.304C132.837 149.528 133.188 148.826 133.501 148.124C134.166 146.739 134.403 145.291 134.647 143.945C134.892 142.599 135.106 141.334 135.369 140.197C135.633 139.06 135.927 138.04 136.221 137.163C136.515 136.286 136.848 135.553 136.985 134.92C137.123 134.288 137.187 133.779 137.252 133.446C137.283 133.287 137.306 133.159 137.325 133.058C137.33 133.015 137.338 132.972 137.348 132.93Z" fill="#EBEBEB"/>
<path d="M182.637 182.822C182.591 129.612 182.564 97.1208 182.564 96.5271C182.564 97.1208 182.534 129.581 182.488 182.745L12.1772 182.721V171.83H34.4325V160.047H56.6496V146.277H78.9049V146.183C78.9049 142.213 78.9049 138.315 78.9049 134.489H101.114V134.404C101.114 129.507 101.114 124.777 101.114 120.18H123.293H123.366V120.106C123.366 115.939 123.366 112.098 123.366 108.392H144.758H144.819V108.334C144.819 103.938 144.819 100.151 144.819 96.6009L182.568 96.5504L144.75 96.4961H144.701V96.5504C144.701 100.097 144.701 103.884 144.701 108.276H123.286H123.217V108.346C123.217 112.051 123.217 115.888 123.217 120.055H101.03H100.95V120.137C100.95 124.735 100.95 129.449 100.95 134.357H78.7216V146.137H56.4586V159.857H34.2377V171.636H11.9785V182.931H12.0893L182.564 182.904H182.637V182.822Z" fill="#263238"/>
<path d="M12.0904 183.135H11.9796C11.9289 183.135 11.8803 183.115 11.8445 183.078C11.8087 183.042 11.7886 182.992 11.7886 182.941V171.627C11.7886 171.575 11.8087 171.526 11.8445 171.49C11.8803 171.453 11.9289 171.433 11.9796 171.433H34.0477V159.855C34.0477 159.804 34.0678 159.754 34.1037 159.718C34.1395 159.681 34.1881 159.661 34.2387 159.661H56.2687V146.081C56.2687 146.03 56.2888 145.98 56.3246 145.944C56.3604 145.907 56.409 145.887 56.4597 145.887H78.5316V134.309C78.5316 134.258 78.5517 134.208 78.5875 134.172C78.6234 134.136 78.672 134.115 78.7226 134.115H100.756V120.011C100.757 119.959 100.778 119.909 100.814 119.872C100.85 119.836 100.898 119.817 100.947 119.817H101.028H123.023V108.251C123.023 108.2 123.043 108.15 123.079 108.114C123.115 108.077 123.163 108.057 123.214 108.057H144.507V96.4713C144.507 96.4199 144.527 96.3705 144.563 96.3342C144.599 96.2978 144.647 96.2773 144.698 96.2773H144.778L182.596 96.3317H182.646H182.672C182.701 96.3492 182.725 96.3736 182.742 96.4026C182.76 96.4317 182.77 96.4646 182.772 96.4985C182.772 96.8865 182.772 110.121 182.802 133.358L182.844 182.778V182.856C182.845 182.906 182.825 182.955 182.791 182.991C182.754 183.029 182.705 183.05 182.653 183.05H155.18L12.0904 183.135ZM12.3692 182.545L182.298 182.569C182.344 131.477 182.371 99.5365 182.374 96.7391L145.007 96.7895V108.387C145.007 108.438 144.987 108.488 144.951 108.524C144.915 108.56 144.867 108.581 144.816 108.581H123.543V120.174C123.543 120.226 123.523 120.275 123.487 120.311C123.451 120.348 123.402 120.368 123.352 120.368H101.291V134.484C101.291 134.535 101.271 134.585 101.235 134.621C101.199 134.657 101.151 134.678 101.1 134.678H79.0931V146.275C79.0922 146.326 79.0717 146.375 79.0361 146.411C79.0005 146.447 78.9525 146.468 78.9022 146.469H56.8417V160.049C56.8417 160.1 56.8215 160.15 56.7857 160.186C56.7499 160.223 56.7013 160.243 56.6507 160.243H34.6245V171.833C34.6245 171.884 34.6044 171.933 34.5686 171.97C34.5328 172.006 34.4842 172.027 34.4335 172.027H12.3692V182.545Z" fill="#263238"/>
<path d="M160.784 66.8867C160.784 66.8867 151.493 80.8547 151.478 87.7223C151.478 92.2891 152.624 96.1768 158.556 96.3126C164.489 96.4484 172.221 96.398 172.221 96.398C172.221 96.398 180.583 94.458 176.625 84.0053C173.13 74.7748 167.77 66.9333 167.77 66.9333L160.784 66.8867Z" fill="#FF6600"/>
<path d="M171.564 57.8727C171.464 57.1898 170.647 56.891 169.967 56.9027C167.583 56.9415 165.532 59.0056 163.148 58.8815C161.651 58.8077 160.348 57.8766 158.973 57.2713C158.645 57.1091 158.29 57.0129 157.926 56.988C157.744 56.9776 157.562 57.0116 157.395 57.0872C157.228 57.1628 157.082 57.2778 156.967 57.4226C156.631 57.9037 156.841 58.5672 157.063 59.1143C158.167 61.7915 159.997 64.4493 161.322 67.0256L168.217 67.3127C168.197 64.3737 169.167 61.516 170.968 59.2151C171.281 58.8194 171.636 58.3732 171.564 57.8727Z" fill="#FF6600"/>
<g opacity="0.3">
<path opacity="0.3" d="M165.024 88.4872V89.9151H163.767V88.526C162.651 88.4826 161.57 88.1223 160.646 87.4862L161.345 85.9342C162.062 86.4501 162.9 86.767 163.775 86.8537V84.7236C162.384 84.3744 160.833 83.8933 160.841 82.0697C160.841 80.7156 161.823 79.5632 163.809 79.3537V77.9375H165.066V79.3265C165.962 79.3792 166.833 79.645 167.61 80.1025L166.972 81.6545C166.385 81.3039 165.736 81.0745 165.062 80.9794V83.1483C166.456 83.4859 167.984 83.967 167.973 85.7635C167.969 87.1137 167.006 88.2544 165.024 88.4872ZM163.801 82.8457V81.0337C163.137 81.1812 162.869 81.5498 162.869 81.9727C162.869 82.3956 163.263 82.6633 163.813 82.8457H163.801ZM165.944 85.9303C165.944 85.4841 165.585 85.2397 165.047 85.0457V86.8033C165.673 86.6675 165.952 86.3377 165.956 85.9303H165.944Z" fill="black"/>
</g>
<path d="M160.944 70.8137C160.967 70.25 161.057 69.6911 161.211 69.1492C161.302 68.592 161.457 68.0476 161.673 67.5273C161.65 68.0911 161.561 68.6499 161.406 69.1919C161.316 69.7492 161.161 70.2937 160.944 70.8137Z" fill="#263238"/>
<path d="M161.502 75.1919C161.489 74.7947 161.513 74.3972 161.575 74.0046C161.651 73.2752 161.777 72.2703 161.957 71.1645C162.136 70.0587 162.339 69.0615 162.495 68.3476C162.561 67.9508 162.664 67.5612 162.801 67.1836C162.776 67.5756 162.72 67.9648 162.633 68.3476C162.499 69.1236 162.335 70.0975 162.155 71.1684C161.976 72.2392 161.834 73.2092 161.712 73.9969C161.674 74.4004 161.604 74.8001 161.502 75.1919Z" fill="#263238"/>
<path d="M166.403 71.4536C166.201 70.8136 166.062 70.1546 165.99 69.4865C165.852 68.8294 165.778 68.1601 165.769 67.4883C165.968 68.1283 166.103 68.7875 166.17 69.4554C166.313 70.1119 166.391 70.7813 166.403 71.4536Z" fill="#263238"/>
<path d="M160.822 61.8555C161.457 62.4602 162.024 63.1342 162.514 63.8653C163.055 64.5591 163.521 65.3096 163.905 66.1041C163.855 66.1351 163.205 65.1573 162.354 63.9856C161.502 62.8138 160.784 61.8943 160.822 61.8555Z" fill="#263238"/>
<path d="M162.953 59.9336C163.066 60.2281 163.15 60.5336 163.201 60.8454C163.354 61.4856 163.53 62.2305 163.729 63.057C163.927 63.8834 164.134 64.609 164.298 65.2569C164.398 65.5569 164.468 65.8662 164.508 66.1804C164.36 65.9013 164.245 65.6057 164.164 65.2996C163.981 64.7448 163.752 63.9727 163.534 63.1074C163.316 62.2422 163.152 61.4507 163.064 60.8726C162.99 60.5652 162.953 60.2499 162.953 59.9336Z" fill="#263238"/>
<path d="M171.457 90.1805C171.434 90.1572 171.648 89.9748 171.904 89.614C172.239 89.1548 172.466 88.6239 172.568 88.062C172.658 87.4927 172.619 86.9103 172.454 86.3587C172.324 85.9357 172.186 85.6913 172.213 85.6758C172.389 85.8532 172.521 86.0716 172.595 86.3121C172.813 86.8783 172.876 87.4942 172.775 88.0937C172.675 88.6932 172.416 89.2536 172.026 89.7149C171.876 89.9145 171.681 90.0743 171.457 90.1805Z" fill="#263238"/>
<path d="M156.31 85.8437C156.291 85.8437 156.131 85.7001 155.966 85.3742C155.756 84.9461 155.658 84.4706 155.68 83.9929C155.693 83.5149 155.825 83.048 156.062 82.6349C156.249 82.3245 156.425 82.1809 156.444 82.1964C156.463 82.212 156.337 82.3943 156.188 82.7047C155.996 83.1099 155.889 83.5505 155.871 83.9995C155.853 84.4486 155.926 84.8965 156.085 85.316C156.175 85.485 156.25 85.6615 156.31 85.8437Z" fill="#263238"/>
<g opacity="0.3">
<path opacity="0.3" d="M160.6 67.6462L160.348 67.8247C160.984 68.0827 161.662 68.2144 162.346 68.2127C162.273 69.6769 162.117 71.1355 161.88 72.5816C162.484 71.1563 163.02 69.7039 163.488 68.2244C164.941 68.4227 166.42 68.2314 167.778 67.6695C165.388 67.5298 162.992 67.5221 160.6 67.6462Z" fill="black"/>
</g>
<path d="M167.982 65.9112L160.293 65.8649C159.789 65.8618 159.377 66.2745 159.374 66.7867L159.374 66.9496C159.371 67.4618 159.777 67.8794 160.281 67.8824L167.971 67.9288C168.475 67.9318 168.886 67.5191 168.889 67.007L168.89 66.844C168.893 66.3319 168.487 65.9143 167.982 65.9112Z" fill="#263238"/>
<path d="M54.2709 39.3397C53.9424 37.2445 55.2603 35.1416 54.8783 33.0541C54.7037 32.115 54.1992 31.2722 53.4585 30.6826C52.7179 30.0931 51.7916 29.7969 50.852 29.8493C51.1385 28.2973 50.088 26.6948 48.6249 26.1206C47.1619 25.5463 45.4009 25.8878 44.0409 26.7259C43.021 27.3467 42.1539 28.2197 41.0805 28.7473C40.1063 29.2246 39.0062 29.3992 38.0245 29.9113C37.734 30.0649 37.4589 30.2468 37.2031 30.4545C37.058 30.5321 36.9128 30.6097 36.7715 30.699C36.4623 30.895 36.1776 31.1282 35.9235 31.3935C35.5004 31.702 35.1613 32.1145 34.9379 32.5924C34.4451 33.7293 34.7278 35.2231 33.8645 36.1077C33.154 36.8371 31.9545 36.8255 31.1905 37.5045C30.1094 38.4861 30.4265 40.399 29.4829 41.5048C28.7839 42.3041 27.5997 42.4399 26.553 42.3273C25.5063 42.2148 24.4596 41.9083 23.4168 42.0402C23.0577 42.0868 22.6528 42.2342 22.5496 42.5873C22.5296 42.7435 22.5427 42.9022 22.5882 43.0528C22.6337 43.2034 22.7104 43.3424 22.8132 43.4603L24.1961 45.5594L24.3871 45.8426C24.3886 45.8581 24.3886 45.8737 24.3871 45.8892C25.3828 47.4257 26.3785 48.9608 27.3743 50.4947L30.862 48.3297C31.1217 49.6954 28.952 50.5219 29.0436 51.9109C29.1289 52.4101 29.3652 52.8699 29.7198 53.2262L32.7758 56.9821C33.131 57.4205 33.5398 57.89 34.0822 57.9986C34.8691 58.1539 35.5797 57.5292 36.145 56.9549C37.8831 55.205 39.7587 53.4629 42.1004 52.6869C44.442 51.9109 47.116 52.1709 48.9955 50.6422C50.0765 49.7614 50.6916 48.4267 51.6695 47.4295C52.953 46.1065 54.9585 45.1908 55.2335 43.3633C55.3902 42.0053 54.4848 40.7404 54.2709 39.3397Z" fill="#263238"/>
<path d="M39.7853 36.2256L39.2964 52.1336C39.274 52.7769 39.3808 53.4181 39.6105 54.018C39.8401 54.6179 40.1877 55.164 40.6321 55.623C41.0764 56.0819 41.6082 56.4441 42.1949 56.6874C42.7816 56.9306 43.411 57.0499 44.0446 57.0379C46.5315 56.9914 48.3536 56.196 48.472 52.4673C48.5102 51.2684 48.6286 49.856 48.6401 49.7513C48.6401 49.7513 52.6129 49.1266 53.0255 45.1263C53.2241 43.1863 53.4075 39.9349 53.4342 36.2993C53.466 34.4089 52.7925 32.5762 51.549 31.1692C50.3054 29.7622 48.584 28.8851 46.7301 28.7139L46.3481 28.679C42.2263 28.5548 39.8083 32.0352 39.7853 36.2256Z" fill="#FFBE9D"/>
<path d="M48.6746 49.7367C46.8516 49.6014 45.1096 48.9179 43.6704 47.7734C43.6704 47.7734 44.6254 50.7688 48.5906 50.7766L48.6746 49.7367Z" fill="#EB996E"/>
<path d="M52.2731 39.7627C52.2605 39.9116 52.1911 40.0497 52.0798 40.1475C51.9686 40.2453 51.8241 40.2952 51.6772 40.2865C51.605 40.2855 51.5337 40.2699 51.4675 40.2406C51.4013 40.2112 51.3415 40.1687 51.2917 40.1156C51.2419 40.0625 51.203 39.9998 51.1774 39.9312C51.1518 39.8626 51.1399 39.7895 51.1424 39.7162C51.1551 39.5673 51.2244 39.4292 51.3357 39.3314C51.447 39.2336 51.5914 39.1837 51.7383 39.1924C51.8107 39.1928 51.8823 39.2081 51.9487 39.2373C52.0152 39.2664 52.0751 39.3089 52.125 39.3621C52.175 39.4154 52.2138 39.4783 52.2393 39.5471C52.2647 39.6159 52.2762 39.6893 52.2731 39.7627Z" fill="#263238"/>
<path d="M52.445 38.4124C52.3686 38.4784 51.9713 38.1175 51.364 38.0632C50.7566 38.0089 50.2867 38.2766 50.218 38.1951C50.1492 38.1136 50.2714 38.0283 50.4777 37.9041C50.7577 37.7448 51.0788 37.6758 51.3983 37.7062C51.7157 37.7401 52.0142 37.876 52.2502 38.0942C52.4297 38.2456 52.4794 38.3852 52.445 38.4124Z" fill="#263238"/>
<path d="M46.5165 39.3643C46.5058 39.5132 46.4375 39.6518 46.3266 39.7499C46.2157 39.848 46.0712 39.8977 45.9244 39.8881C45.8522 39.8881 45.7808 39.8734 45.7144 39.8446C45.6479 39.8159 45.5879 39.7738 45.538 39.7208C45.488 39.6679 45.4491 39.6052 45.4236 39.5366C45.3981 39.468 45.3866 39.3949 45.3897 39.3216C45.4014 39.172 45.4703 39.033 45.5817 38.9344C45.6931 38.8357 45.838 38.7853 45.9856 38.7939C46.0576 38.7949 46.1288 38.8105 46.1948 38.8399C46.2607 38.8693 46.3203 38.9119 46.3698 38.9651C46.4193 39.0182 46.4578 39.081 46.483 39.1496C46.5082 39.2181 46.5196 39.2911 46.5165 39.3643Z" fill="#263238"/>
<path d="M46.6348 38.0962C46.5584 38.166 46.1611 37.8052 45.5538 37.7509C44.9464 37.6966 44.4765 37.9604 44.4078 37.8789C44.339 37.7974 44.4574 37.716 44.6675 37.5918C44.946 37.4321 45.266 37.363 45.5843 37.3939C45.9012 37.4298 46.199 37.5655 46.4362 37.7819C46.6043 37.9255 46.673 38.069 46.6348 38.0962Z" fill="#263238"/>
<path d="M48.2544 42.481C48.5818 42.4095 48.9167 42.3795 49.2514 42.3917C49.408 42.3917 49.557 42.3723 49.5952 42.2676C49.6218 42.1071 49.6005 41.9423 49.5341 41.7942C49.4233 41.4062 49.3049 40.9872 49.1827 40.5526C48.7013 38.7911 48.369 37.3477 48.4187 37.3283C48.4683 37.3089 48.9382 38.7212 49.4195 40.4866C49.5341 40.9212 49.6449 41.3325 49.748 41.7321C49.8289 41.9309 49.837 42.1525 49.7709 42.3568C49.7439 42.4104 49.705 42.4569 49.6573 42.4926C49.6096 42.5283 49.5543 42.5522 49.4959 42.5624C49.4084 42.5736 49.3198 42.5736 49.2323 42.5624C48.9043 42.5777 48.5756 42.5503 48.2544 42.481Z" fill="#263238"/>
<path d="M46.6044 35.6656C46.528 35.8247 45.9321 35.6656 45.214 35.6656C44.4958 35.6656 43.8961 35.7936 43.8197 35.6307C43.7891 35.5531 43.9075 35.4095 44.1558 35.2776C44.4955 35.0832 44.8898 35.0107 45.2751 35.0719C45.6215 35.0607 45.9654 35.1367 46.2759 35.2931C46.528 35.4444 46.6426 35.5919 46.6044 35.6656Z" fill="#263238"/>
<path d="M52.8427 36.084C52.7052 36.212 52.2277 36.0297 51.6394 35.9753C51.0511 35.921 50.5469 35.9753 50.4437 35.824C50.4017 35.7503 50.4896 35.6145 50.7188 35.502C51.0299 35.3598 51.3735 35.3075 51.712 35.3507C52.0505 35.3793 52.3745 35.5029 52.6479 35.7076C52.8465 35.8628 52.9038 36.0103 52.8427 36.084Z" fill="#263238"/>
<path d="M48.3077 44.4699C48.2923 44.3441 48.2588 44.2212 48.2084 44.1052C48.1451 43.9761 48.0512 43.8649 47.9352 43.7816C47.8192 43.6983 47.6847 43.6456 47.5437 43.628C47.2602 43.5959 46.9755 43.6766 46.7492 43.853C46.6497 43.9284 46.5672 44.0245 46.5072 44.1349C46.4473 44.2454 46.4112 44.3675 46.4016 44.4932C46.3996 44.5609 46.4113 44.6282 46.436 44.6911C46.4949 44.8685 46.5951 45.0289 46.7281 45.1586C46.8612 45.2883 47.023 45.3835 47.2 45.4361C47.3783 45.4842 47.5664 45.479 47.7419 45.4212C47.9174 45.3634 48.0728 45.2554 48.1893 45.1101C48.2565 45.0241 48.3023 44.923 48.323 44.8153C48.3369 44.7001 48.3317 44.5834 48.3077 44.4699Z" fill="#EB996E"/>
<path d="M40.0602 41.6229C40.0543 41.621 40.0481 41.6206 40.0421 41.6217C40.0361 41.6228 40.0304 41.6253 40.0256 41.6291C40.0207 41.6328 40.0168 41.6377 40.0143 41.6433C40.0117 41.6489 40.0105 41.6551 40.0108 41.6613C40.0115 41.6673 40.0135 41.673 40.0168 41.678C40.0201 41.6831 40.0245 41.6873 40.0297 41.6903C40.0349 41.6932 40.0407 41.695 40.0466 41.6953C40.0526 41.6956 40.0585 41.6944 40.064 41.692C40.0687 41.688 40.0726 41.6831 40.0752 41.6774C40.0779 41.6718 40.0792 41.6656 40.0792 41.6594C40.0792 41.6531 40.0779 41.6469 40.0752 41.6413C40.0726 41.6357 40.0687 41.6307 40.064 41.6267C40.0589 41.6232 40.053 41.6214 40.0469 41.6214C40.0408 41.6214 40.0348 41.6232 40.0298 41.6267" fill="#263238"/>
<path d="M40.129 41.4549C40.1232 41.453 40.117 41.4526 40.111 41.4537C40.1049 41.4548 40.0993 41.4573 40.0944 41.4611C40.0896 41.4649 40.0857 41.4698 40.0831 41.4754C40.0805 41.481 40.0793 41.4871 40.0796 41.4933C40.0799 41.4994 40.0819 41.5053 40.0852 41.5104C40.0885 41.5155 40.0931 41.5197 40.0985 41.5224C40.1039 41.5251 40.1099 41.5264 40.1159 41.526C40.122 41.5256 40.1278 41.5236 40.1328 41.5202C40.1375 41.5166 40.1414 41.512 40.144 41.5066C40.1466 41.5013 40.148 41.4954 40.148 41.4895C40.148 41.4835 40.1466 41.4776 40.144 41.4723C40.1414 41.467 40.1375 41.4623 40.1328 41.4587C40.1278 41.4553 40.1218 41.4534 40.1157 41.4534C40.1096 41.4534 40.1037 41.4553 40.0986 41.4587" fill="#263238"/>
<path d="M48.8125 44.7811C48.8125 44.8276 48.6521 44.9052 48.3541 44.9324C47.9558 44.9679 47.5563 44.8799 47.2081 44.6802C46.8579 44.4744 46.5881 44.1524 46.4441 43.7684C46.341 43.4852 46.3486 43.295 46.3945 43.2795C46.5053 43.233 46.7268 43.9469 47.3991 44.3426C47.6959 44.5057 48.0196 44.6122 48.3541 44.6569C48.633 44.7035 48.8087 44.7229 48.8125 44.7811Z" fill="#263238"/>
<path d="M38.0894 39.6002C37.4056 36.3022 38.1123 32.6162 40.3241 30.1213C42.5359 27.6265 46.3138 26.4935 49.3737 27.7933C49.8109 27.9558 50.2038 28.2218 50.5197 28.5693C50.6759 28.7475 50.7844 28.9635 50.8346 29.1966C50.8847 29.4297 50.875 29.672 50.8062 29.9002C50.5464 30.6024 49.6602 30.8275 48.9382 30.812C48.2162 30.7964 47.4102 30.6451 46.757 30.9788C45.611 31.5686 45.504 33.2486 44.6369 34.2341C44.2128 34.723 43.6055 35.0101 43.212 35.5417C42.1539 36.9346 42.8911 37.8697 42.1653 39.4644C41.9629 39.9067 41.1568 40.2675 40.6755 40.3024C40.1942 40.3374 40.5762 40.3568 39.5715 40.1744L38.0894 39.6002Z" fill="#263238"/>
<path d="M40.9277 40.353C40.8627 40.3142 38.3416 39.2162 38.1009 41.9361C37.8602 44.6559 40.603 44.3417 40.6144 44.2641C40.6259 44.1865 40.9277 40.353 40.9277 40.353Z" fill="#FFBE9D"/>
<path d="M39.8887 43.1576C39.8887 43.1576 39.8391 43.1848 39.755 43.2158C39.6405 43.2536 39.5161 43.2453 39.4074 43.1926C39.2428 43.0664 39.1147 42.8974 39.0367 42.7035C38.9587 42.5095 38.9337 42.2978 38.9643 42.0906C38.9772 41.8568 39.0411 41.6289 39.1515 41.4233C39.1849 41.3411 39.2369 41.2681 39.3033 41.2101C39.3696 41.1522 39.4485 41.1109 39.5335 41.0896C39.5883 41.0806 39.6445 41.0912 39.6925 41.1194C39.7405 41.1477 39.7775 41.192 39.797 41.2448C39.8238 41.3263 39.797 41.3767 39.797 41.3845C39.797 41.3922 39.862 41.3457 39.8467 41.2293C39.839 41.1611 39.8079 41.0979 39.7588 41.0508C39.7254 41.0185 39.6857 40.9936 39.6423 40.9776C39.5989 40.9616 39.5528 40.9548 39.5067 40.9577C39.3934 40.9706 39.2852 41.0132 39.1928 41.0812C39.1005 41.1492 39.027 41.2403 38.9796 41.3457C38.8464 41.5719 38.769 41.8275 38.7542 42.0906C38.7236 42.6416 38.9528 43.177 39.331 43.3284C39.4016 43.3558 39.4773 43.3669 39.5526 43.3609C39.628 43.3548 39.701 43.3318 39.7665 43.2934C39.8773 43.2236 39.8964 43.1615 39.8887 43.1576Z" fill="#EB996E"/>
<path d="M23.6152 40.6799C23.7099 40.7039 23.803 40.7337 23.8941 40.7691C24.0736 40.8312 24.3372 40.9321 24.681 41.033C25.0971 41.161 25.5298 41.225 25.9645 41.2231C26.5287 41.2133 27.0708 40.9986 27.4925 40.6178C27.9586 40.1716 28.0694 39.4344 28.2183 38.6778C28.2845 38.273 28.4314 37.8861 28.65 37.541C28.918 37.1785 29.3135 36.9352 29.754 36.862C30.1876 36.7845 30.625 36.7301 31.0642 36.699C31.5045 36.6671 31.9263 36.5068 32.279 36.2373C32.6227 35.9287 32.8852 35.538 33.043 35.1005C33.2079 34.6423 33.3356 34.1713 33.425 33.692C33.523 33.1994 33.6742 32.7193 33.8758 32.2603C34.0825 31.8065 34.4075 31.4188 34.8155 31.139C35.6026 30.6706 36.4903 30.4043 37.4016 30.363C38.2033 30.3208 38.9971 30.1814 39.7662 29.9478C40.4134 29.6912 40.9975 29.2939 41.4776 28.7838C41.936 28.326 42.3332 27.8875 42.7305 27.55C43.0659 27.2539 43.4432 27.0106 43.8498 26.8283C44.1079 26.7143 44.3829 26.6448 44.6634 26.6227C44.7598 26.6102 44.8574 26.6102 44.9538 26.6227C44.5831 26.6437 44.2194 26.7331 43.8803 26.8865C43.4884 27.0787 43.1256 27.3269 42.8031 27.6237C42.4211 27.9613 42.0391 28.3997 41.5731 28.8731C41.0887 29.4109 40.4905 29.8301 39.8235 30.0991C39.0477 30.3407 38.2461 30.4866 37.436 30.5337C36.5549 30.5832 35.6988 30.8495 34.9415 31.3097C34.563 31.5721 34.2619 31.9343 34.0706 32.3573C33.8685 32.7976 33.716 33.2597 33.616 33.7347C33.5271 34.2242 33.3993 34.7056 33.234 35.1742C33.0636 35.6418 32.7798 36.0581 32.4089 36.3847C32.0296 36.6779 31.5741 36.8519 31.0986 36.8853C30.6479 36.9396 30.2086 36.9473 29.8036 37.0366C29.409 37.1007 29.0536 37.3159 28.8104 37.638C28.6023 37.9639 28.4619 38.3297 28.3979 38.7127C28.3306 39.0806 28.2439 39.4446 28.1381 39.803C28.0405 40.1459 27.8592 40.4582 27.611 40.7109C27.1574 41.1159 26.5722 41.3357 25.9684 41.3279C25.5238 41.321 25.083 41.2437 24.6619 41.0989C24.3143 40.9864 24.0545 40.8739 23.8788 40.8002C23.7875 40.7683 23.6993 40.7281 23.6152 40.6799Z" fill="#263238"/>
<path d="M43.6358 143.059L40.0068 154.446L54.752 159.343C55.1073 157.962 48.3573 152.72 48.3573 152.72L50.997 145.522L43.6358 143.059Z" fill="#FF6600"/>
<g opacity="0.6">
<path opacity="0.6" d="M43.995 150.591C43.9197 150.586 43.8441 150.595 43.7725 150.619C43.7009 150.643 43.6346 150.682 43.5775 150.732C43.5204 150.782 43.4736 150.843 43.4397 150.911C43.4058 150.98 43.3855 151.054 43.38 151.131C43.3744 151.207 43.3838 151.284 43.4075 151.357C43.4312 151.429 43.4688 151.497 43.5181 151.555C43.5674 151.613 43.6275 151.66 43.6949 151.695C43.7623 151.729 43.8357 151.75 43.9109 151.755C44.0705 151.767 44.2283 151.715 44.3519 151.612C44.4755 151.509 44.5555 151.362 44.5756 151.201C44.5613 151.038 44.4874 150.887 44.3685 150.777C44.2497 150.667 44.0946 150.606 43.9339 150.607" fill="white"/>
</g>
<g opacity="0.6">
<path opacity="0.6" d="M40.0068 154.445L40.4194 153.312L54.4044 158.43C54.4044 158.43 54.9698 158.923 54.752 159.342L40.0068 154.445Z" fill="white"/>
</g>
<path d="M48.6214 152.725C48.5947 152.795 48.2394 152.706 47.7963 152.811C47.3532 152.915 47.0896 153.144 47.0323 153.094C46.975 153.043 47.2118 152.682 47.7314 152.562C48.2509 152.442 48.6558 152.667 48.6214 152.725Z" fill="#263238"/>
<path d="M49.9659 153.856C49.9659 153.929 49.6106 153.941 49.2706 154.155C48.9307 154.368 48.7626 154.647 48.69 154.624C48.6174 154.601 48.69 154.189 49.1293 153.933C49.5686 153.677 49.9888 153.79 49.9659 153.856Z" fill="#263238"/>
<path d="M50.2677 155.922C50.199 155.922 50.2105 155.534 50.5199 155.22C50.8293 154.906 51.2113 154.863 51.2228 154.929C51.2342 154.995 50.963 155.131 50.7147 155.395C50.4664 155.658 50.3441 155.938 50.2677 155.922Z" fill="#263238"/>
<path d="M49.0301 151.018C48.9805 151.069 48.6825 150.863 48.2661 150.754C47.8497 150.646 47.5021 150.665 47.4754 150.595C47.4486 150.526 47.8574 150.378 48.3272 150.51C48.7971 150.642 49.0836 150.976 49.0301 151.018Z" fill="#263238"/>
<path d="M49.2246 149.222C48.9619 149.205 48.708 149.12 48.4874 148.974C48.2362 148.841 48.0015 148.678 47.7883 148.489C47.6623 148.378 47.5437 148.259 47.4331 148.132C47.3652 148.061 47.3085 147.98 47.265 147.891C47.2301 147.827 47.2198 147.752 47.236 147.68C47.2522 147.609 47.2938 147.546 47.3528 147.503C47.4079 147.465 47.4711 147.439 47.5375 147.43C47.6038 147.421 47.6714 147.427 47.7348 147.449C47.8287 147.477 47.9177 147.521 47.9984 147.577C48.1437 147.667 48.2816 147.768 48.411 147.88C48.6228 148.069 48.8045 148.29 48.9496 148.535C49.1941 148.954 49.2284 149.249 49.1979 149.257C49.1673 149.265 49.0604 148.997 48.8159 148.629C48.6584 148.414 48.4749 148.222 48.2696 148.054C48.1494 147.956 48.0217 147.868 47.8876 147.79C47.7463 147.697 47.6126 147.651 47.5515 147.705C47.4904 147.759 47.5209 147.736 47.5515 147.79C47.5861 147.854 47.6284 147.913 47.6775 147.965C47.7767 148.087 47.8839 148.203 47.9984 148.31C48.1934 148.494 48.4029 148.662 48.6249 148.811C48.833 148.935 49.0333 149.073 49.2246 149.222Z" fill="#263238"/>
<path d="M49.0989 149.29C49.0239 149.044 49.0334 148.78 49.1256 148.541C49.1986 148.273 49.319 148.02 49.4809 147.796C49.5754 147.663 49.6843 147.54 49.8056 147.431C49.8786 147.35 49.971 147.288 50.0739 147.253C50.1769 147.217 50.287 147.209 50.3939 147.23C50.4582 147.251 50.5153 147.29 50.5585 147.343C50.6018 147.396 50.6295 147.46 50.6384 147.528C50.6522 147.622 50.6522 147.718 50.6384 147.812C50.6121 147.978 50.5592 148.139 50.4817 148.289C50.3557 148.544 50.166 148.76 49.9317 148.917C49.7256 149.087 49.4627 149.169 49.1982 149.146C49.1982 149.104 49.4771 149.053 49.8132 148.758C50.0059 148.599 50.1601 148.398 50.264 148.168C50.324 148.038 50.3639 147.9 50.3824 147.757C50.4092 147.598 50.3824 147.458 50.3251 147.455C50.2628 147.453 50.2009 147.465 50.1436 147.49C50.0863 147.514 50.0348 147.551 49.9928 147.598C49.6888 147.864 49.4551 148.203 49.3128 148.584C49.1486 148.991 49.1409 149.29 49.0989 149.29Z" fill="#263238"/>
<path d="M26.7783 137.203L17.9541 145.114L28.1917 156.956C29.1887 155.951 26.0105 147.947 26.0105 147.947L31.8895 143.12L26.7783 137.203Z" fill="#FF6600"/>
<g opacity="0.6">
<path opacity="0.6" d="M23.3025 143.868C23.1779 143.782 23.0257 143.746 22.8763 143.768C22.7269 143.79 22.5912 143.869 22.4965 143.989C22.4176 144.121 22.39 144.279 22.4189 144.431C22.4478 144.583 22.5313 144.718 22.6531 144.811C22.7851 144.903 22.9465 144.941 23.1047 144.916C23.2629 144.892 23.406 144.807 23.505 144.679C23.5738 144.532 23.5857 144.364 23.5383 144.208C23.4909 144.052 23.3877 143.92 23.249 143.837" fill="white"/>
</g>
<g opacity="0.6">
<path opacity="0.6" d="M17.9541 145.112L18.8785 144.336L28.3483 155.976C28.3483 155.976 28.589 156.694 28.1917 156.942L17.9541 145.112Z" fill="white"/>
</g>
<path d="M26.2166 148.095C26.1631 148.141 25.8881 147.873 25.4526 147.745C25.0171 147.617 24.6886 147.664 24.6504 147.59C24.6122 147.517 25.0324 147.33 25.5175 147.497C26.0027 147.664 26.2777 148.064 26.2166 148.095Z" fill="#263238"/>
<path d="M26.813 149.767C26.771 149.825 26.4616 149.658 26.049 149.662C25.6364 149.666 25.3614 149.825 25.3156 149.767C25.2697 149.709 25.5409 149.402 26.0337 149.402C26.5265 149.402 26.8627 149.717 26.813 149.767Z" fill="#263238"/>
<path d="M26.0334 151.708C25.98 151.666 26.1786 151.347 26.6026 151.231C27.0266 151.115 27.3666 151.285 27.3666 151.351C27.3666 151.417 27.0419 151.386 26.6943 151.487C26.3467 151.588 26.0907 151.751 26.0334 151.708Z" fill="#263238"/>
<path d="M27.428 146.837C27.3593 146.856 27.2026 146.526 26.9009 146.216C26.5991 145.905 26.282 145.738 26.3011 145.669C26.3202 145.599 26.7251 145.669 27.0651 146.037C27.4051 146.406 27.5044 146.829 27.428 146.837Z" fill="#263238"/>
<path d="M28.4976 145.398C28.4747 145.398 28.2455 145.22 27.9857 144.801C27.8378 144.557 27.7173 144.296 27.6266 144.025C27.5752 143.863 27.5331 143.699 27.5006 143.532C27.4801 143.436 27.4724 143.339 27.4777 143.241C27.4817 143.17 27.5104 143.102 27.5586 143.05C27.6068 142.999 27.6715 142.966 27.7412 142.958C27.8055 142.954 27.8697 142.965 27.9291 142.99C27.9886 143.015 28.0419 143.053 28.085 143.101C28.1499 143.176 28.2039 143.259 28.2455 143.35C28.3282 143.5 28.396 143.659 28.4479 143.823C28.5365 144.096 28.5829 144.381 28.5855 144.669C28.5855 145.154 28.467 145.425 28.4365 145.414C28.4059 145.402 28.4365 145.119 28.4059 144.669C28.379 144.403 28.3186 144.143 28.2264 143.893C28.1717 143.746 28.1066 143.603 28.0316 143.466C27.9513 143.311 27.8597 143.206 27.7794 143.218C27.6992 143.229 27.7412 143.218 27.7298 143.287C27.7195 143.358 27.7195 143.43 27.7298 143.501C27.7548 143.657 27.7893 143.811 27.8329 143.963C27.9065 144.23 28.0037 144.489 28.1232 144.739C28.2637 144.949 28.3888 145.169 28.4976 145.398Z" fill="#263238"/>
<path d="M28.3525 145.39C28.3295 145.39 28.4212 145.092 28.7345 144.762C28.9313 144.568 29.1618 144.413 29.4144 144.304C29.5644 144.239 29.7205 144.189 29.8805 144.157C29.9845 144.125 30.0946 144.12 30.2008 144.143C30.307 144.166 30.4057 144.216 30.4878 144.288C30.5305 144.342 30.5583 144.406 30.5683 144.475C30.5784 144.543 30.5704 144.612 30.5451 144.676C30.5091 144.765 30.4587 144.846 30.3962 144.917C30.2871 145.047 30.1581 145.158 30.0142 145.247C29.7775 145.399 29.5067 145.487 29.2272 145.503C28.9589 145.545 28.6851 145.479 28.4632 145.321C28.7025 145.333 28.9422 145.333 29.1814 145.321C29.4268 145.284 29.6607 145.191 29.8652 145.049C29.9809 144.965 30.085 144.866 30.1746 144.754C30.2739 144.63 30.3312 144.502 30.2777 144.463C30.2215 144.427 30.158 144.404 30.0919 144.396C30.0258 144.388 29.9588 144.395 29.8957 144.416C29.751 144.443 29.6091 144.483 29.4717 144.537C29.2362 144.632 29.016 144.763 28.8185 144.925C28.5396 145.173 28.3907 145.414 28.3525 145.39Z" fill="#263238"/>
<path d="M54.4468 72.5971C54.4468 72.5971 55.1917 71.1887 55.5164 70.5019C55.8411 69.8152 58.0452 68.562 58.0452 68.562L60.5129 66.1719C60.6108 66.3202 60.6737 66.4893 60.6969 66.6663C60.7201 66.8432 60.7029 67.0232 60.6466 67.1923C60.4098 67.8247 60.2646 68.3563 60.15 68.0731C60.15 68.0731 61.869 67.7782 62.1937 68.2671C62.3848 68.5575 62.4859 68.8994 62.4841 69.2487L62.3198 70.7541C62.3198 70.7541 62.4841 72.0307 61.9378 72.5894C61.8884 72.9901 61.7666 73.3781 61.5787 73.734C60.8805 74.2624 60.1563 74.7545 59.409 75.2084L56.3262 76.2405L54.4506 72.7485" fill="#FFBE9D"/>
<path d="M62.1323 69.3547C61.7997 69.5162 61.4532 69.646 61.0971 69.7427L59.9511 70.0997C59.4848 70.2923 58.9833 70.381 58.4804 70.3597C58.3351 70.342 58.1984 70.2804 58.0881 70.1828C57.9777 70.0853 57.8988 69.9563 57.8615 69.8126C57.8343 69.6804 57.8384 69.5435 57.8736 69.4133C57.9088 69.2831 57.9741 69.1632 58.064 69.0637C58.3641 68.7715 58.7385 68.57 59.1451 68.4818C59.4736 68.3886 59.7372 68.3227 59.9091 68.2567C60.081 68.1908 60.1803 68.152 60.1879 68.1675C60.1955 68.183 60.1115 68.2451 59.9396 68.3304C59.6908 68.4416 59.4357 68.5375 59.1756 68.6176C58.8045 68.7168 58.4649 68.912 58.1901 69.184C58.1225 69.2627 58.0735 69.3561 58.0471 69.457C58.0206 69.5579 58.0172 69.6636 58.0372 69.766C58.068 69.8705 58.1288 69.9633 58.2119 70.0324C58.2949 70.1016 58.3964 70.1439 58.5033 70.154C58.9738 70.1626 59.4416 70.081 59.8823 69.9135L61.0283 69.5953C61.3878 69.4793 61.7575 69.3987 62.1323 69.3547Z" fill="#EB996E"/>
<path d="M62.0217 71.0041C61.9989 70.9261 61.9898 70.8447 61.9949 70.7635L62.0408 70.7946C61.8078 70.9071 61.3608 71.0972 60.7764 71.3339C60.4536 71.4755 60.1218 71.5947 59.7831 71.6908C59.5763 71.7424 59.3593 71.7343 59.1567 71.6676C59.0426 71.6305 58.9407 71.5625 58.8619 71.4709C58.7831 71.3792 58.7305 71.2675 58.7097 71.1476C58.6962 70.9999 58.72 70.8512 58.7788 70.7154C58.8377 70.5796 58.9296 70.4613 59.0459 70.3716C59.2457 70.2205 59.4656 70.099 59.6991 70.0108C60.0769 69.8473 60.468 69.7175 60.868 69.6228C61.1377 69.5574 61.4125 69.5158 61.6893 69.4986C61.7891 69.4796 61.8914 69.4796 61.9911 69.4986C61.9911 69.5336 61.5633 69.553 60.9024 69.747C60.5111 69.8619 60.1281 70.0045 59.7564 70.1738C59.5431 70.2613 59.3415 70.376 59.1567 70.5152C59.0668 70.5845 58.9953 70.6753 58.9486 70.7796C58.9019 70.8839 58.8815 70.9984 58.8893 71.1127C58.9054 71.1973 58.9437 71.2758 59.0002 71.34C59.0567 71.4042 59.1292 71.4517 59.2101 71.4774C59.3779 71.5343 59.5582 71.541 59.7297 71.4968C60.0604 71.4093 60.3857 71.3017 60.7038 71.1748C61.2921 70.9614 61.7505 70.7868 61.9988 70.7286H62.0484V70.779C62.0484 70.911 62.0331 71.0041 62.0217 71.0041Z" fill="#EB996E"/>
<path d="M62.0902 72.0912C61.7955 72.2282 61.4885 72.336 61.1734 72.4133L60.1649 72.7082C59.9701 72.7586 59.7829 72.8207 59.5614 72.8711C59.445 72.8986 59.325 72.9065 59.2061 72.8944C59.1347 72.8874 59.0657 72.8642 59.0042 72.8266C58.9428 72.789 58.8904 72.7379 58.8508 72.6771C58.7959 72.5513 58.7872 72.4096 58.8265 72.2778C58.8658 72.1461 58.9503 72.0331 59.0648 71.9593C59.2402 71.8374 59.424 71.7285 59.6148 71.6334C59.9317 71.4723 60.263 71.3423 60.6042 71.2454C60.9113 71.132 61.2363 71.0768 61.563 71.0824C61.563 71.1135 61.204 71.1794 60.6462 71.3812C60.32 71.4966 60.0032 71.638 59.6989 71.8041C59.5205 71.8953 59.3494 72.0004 59.187 72.1184C59.1122 72.1642 59.0552 72.2346 59.0253 72.3179C58.9954 72.4012 58.9945 72.4923 59.0227 72.5762C59.0991 72.7198 59.3322 72.7198 59.527 72.681C59.7218 72.6422 59.9319 72.5762 60.1191 72.5297L61.1352 72.2775C61.446 72.1805 61.7662 72.118 62.0902 72.0912Z" fill="#EB996E"/>
<path d="M61.7165 73.1647C61.5735 73.3256 61.3957 73.4504 61.197 73.5294C60.7344 73.7591 60.2259 73.8773 59.711 73.8748H59.4856C59.4326 73.8753 59.3804 73.8607 59.3352 73.8326C59.2899 73.8044 59.2534 73.7639 59.2297 73.7157C59.2154 73.6703 59.2104 73.6225 59.215 73.5751C59.2196 73.5278 59.2337 73.4818 59.2564 73.4402C59.2864 73.3765 59.3196 73.3143 59.3558 73.254C59.4863 73.0501 59.6631 72.8811 59.8714 72.7612C60.2305 72.5633 60.4941 72.5905 60.4903 72.6138C60.304 72.6924 60.1228 72.7832 59.9478 72.8854C59.7714 73.0069 59.6229 73.1657 59.5124 73.351C59.4551 73.448 59.3863 73.5993 59.4092 73.642C59.4322 73.6846 59.5735 73.6846 59.711 73.6808C60.4066 73.6458 61.0884 73.4704 61.7165 73.1647Z" fill="#EB996E"/>
<path d="M58.2168 74.2983C58.2691 74.0913 58.3341 73.8879 58.4116 73.6892C58.5454 73.2005 58.5727 72.6881 58.4918 72.1876C58.42 71.7516 58.2628 71.3347 58.0296 70.9615L57.999 70.9111L58.0334 70.8684C58.3581 70.4804 58.5759 70.2282 58.6026 70.2515C58.4878 70.5099 58.3373 70.7503 58.1556 70.9654V70.8723C58.4295 71.2521 58.6115 71.692 58.6866 72.1566C58.7737 72.6868 58.7237 73.231 58.5415 73.7357C58.4813 73.9479 58.3696 74.1413 58.2168 74.2983Z" fill="#EB996E"/>
<path d="M50.3251 73.5643L54.1145 71.5156L56.7923 76.7459L48.5182 81.9761L47.9414 77.6383L50.3251 73.5643Z" fill="#FF6600"/>
<path d="M53.9424 79.1519C54.0265 79.1519 58.79 79.2101 59.3324 79.5826C59.8367 80.0366 60.2414 80.5931 60.5205 81.2161C60.5778 81.3868 61.0323 82.5159 60.6656 82.8108C60.3918 83.0067 60.083 83.1464 59.7565 83.222C59.8546 83.5429 59.8343 83.8892 59.6992 84.1959C59.535 84.5079 59.2765 84.7581 58.9619 84.9098C58.9619 84.9098 58.9046 85.8566 58.5799 86.1708C58.3401 86.3738 58.0433 86.4946 57.7319 86.5162C57.7319 86.5162 56.88 87.1447 56.3414 86.7451C55.8028 86.3454 55.0349 85.8566 55.1763 85.6005C55.3176 85.3444 50.9743 83.9088 50.7795 83.191C50.5846 82.4732 50.3975 81.4334 50.3975 81.4334L52.0248 78.5117L53.9424 79.1519Z" fill="#FFBE9D"/>
<path d="M40.6067 50.4397C38.2651 51.1614 37.5507 52.7677 36.4047 54.9017C34.6323 58.2385 31.9162 63.5115 30.4723 66.9026C28.589 71.3258 29.4485 74.5423 31.2363 76.3931C33.024 78.2438 50.1644 85.1037 50.1644 85.1037L53.908 78.6784L39.3652 70.2277C39.3652 70.2277 45.2098 61.0321 45.7752 59.7246C46.3406 58.417 48.3193 53.664 44.3007 50.7812C42.8987 49.7918 42.1309 49.9625 40.6067 50.4397Z" fill="#FF6600"/>
<path d="M45.7751 52.2664C45.3931 51.9405 44.5756 50.5088 42.3371 49.9694C41.2102 49.694 38.9564 50.7648 38.1656 51.987C36.6605 54.315 35.2548 56.224 34.1508 59.6617C33.0048 63.2429 33.8108 76.2487 33.8108 76.2487L30.3193 83.6556C30.2129 83.9304 30.1623 84.2243 30.1708 84.5195C30.1793 84.8147 30.2467 85.1051 30.3688 85.3731C30.4909 85.6411 30.6653 85.8812 30.8813 86.0788C31.0974 86.2764 31.3506 86.4275 31.6258 86.5229L47.219 90.8336C48.6188 89.3037 49.4025 87.2961 49.4155 85.2076L49.4499 79.8338L50.913 74.3514C50.913 74.3514 52.9719 70.6343 52.9719 67.0686C52.9719 63.5029 49.3162 55.3432 48.7126 53.8106C48.7126 53.8223 46.2564 52.6777 45.7751 52.2664Z" fill="#FF6600"/>
<path d="M45.2712 60.3768C45.2712 60.3768 45.2483 60.4428 45.1871 60.5708C45.126 60.6989 45.0343 60.8812 44.9121 61.1218C44.66 61.6029 44.278 62.3052 43.7661 63.2053C42.7614 65.0018 41.2754 67.5936 39.4189 70.783L39.3922 70.6821L53.977 78.8029L54.0648 78.8534L54.0113 78.9387L50.2716 85.1467L50.2295 85.2166L50.1531 85.1855L46.4515 83.7267C43.9112 82.7062 41.4359 81.6935 39.0637 80.6731C36.6914 79.6527 34.4033 78.6555 32.3137 77.5031C32.0506 77.3599 31.7955 77.2019 31.5497 77.0298C31.4246 76.9443 31.3059 76.8497 31.1945 76.7465L30.8889 76.4206C30.5078 75.981 30.1843 75.4933 29.9262 74.9695C29.4413 73.9619 29.1892 72.8551 29.189 71.7336C29.1986 70.6914 29.3687 69.6571 29.6932 68.6684C30.0044 67.7684 30.3667 66.8875 30.7781 66.03C32.2488 62.7126 33.4788 60.047 34.3842 58.2312C34.8349 57.3233 35.1978 56.6249 35.4538 56.1554L35.7479 55.6277C35.8167 55.5074 35.8549 55.4492 35.8549 55.4492C35.8549 55.4492 35.8281 55.5152 35.767 55.6355L35.4881 56.1748C35.2475 56.652 34.8922 57.3388 34.4529 58.2661C33.5705 60.0936 32.3596 62.763 30.9041 66.0882C30.5032 66.9439 30.1474 67.8207 29.8384 68.7149C29.5249 69.6885 29.3613 70.7054 29.3532 71.7297C29.3637 72.8248 29.6184 73.9033 30.0981 74.8841C30.3496 75.3932 30.6655 75.8667 31.0378 76.2926C31.4284 76.7233 31.8948 77.0759 32.413 77.3324C34.4835 78.4731 36.7793 79.4587 39.1439 80.483C41.5085 81.5073 43.9915 82.5122 46.5318 83.5288L50.2295 84.9915L50.1111 85.0342L53.8547 78.8262L53.8891 78.962L39.3463 70.8101L39.2814 70.7752L39.3196 70.7093C41.1914 67.5277 42.6965 64.9513 43.7202 63.1627C44.2283 62.2741 44.6218 61.5796 44.893 61.1024C45.0229 60.8618 45.1222 60.6833 45.1871 60.5592C45.2119 60.4969 45.24 60.436 45.2712 60.3768Z" fill="#263238"/>
<path d="M53.0219 66.5039C53.0497 66.6404 53.06 66.7799 53.0525 66.9191C53.0525 67.1868 53.0525 67.5748 53.0143 68.052C52.8942 69.2952 52.6248 70.5187 52.2121 71.6954C51.7422 73.0766 51.2456 74.2911 50.9362 75.1874C50.6268 76.0836 50.4549 76.6462 50.4243 76.6385C50.4341 76.4989 50.4598 76.3609 50.5007 76.2272C50.558 75.9672 50.665 75.5948 50.8025 75.1408C51.0814 74.2251 51.5665 72.999 52.0249 71.6488C52.4303 70.4832 52.7145 69.2777 52.8729 68.052C52.9799 67.0937 52.9875 66.5039 53.0219 66.5039Z" fill="#263238"/>
<path d="M50.5924 76.9297C50.6382 76.953 49.9239 78.5088 48.9956 80.4217C48.4652 81.5811 47.8735 82.7105 47.2231 83.8051C47.6941 82.6138 48.2258 81.4482 48.8161 80.3131C49.3486 79.154 49.9415 78.0246 50.5924 76.9297Z" fill="#263238"/>
<path d="M49.2477 82.7666C49.2477 82.7395 49.4196 82.7045 49.5456 82.9102C49.5827 82.9671 49.6044 83.0329 49.6084 83.1011C49.6124 83.1692 49.5987 83.2372 49.5686 83.2982C49.5249 83.3755 49.4578 83.4366 49.3773 83.4722C49.2968 83.5079 49.2072 83.5162 49.1216 83.4961C49.0356 83.4826 48.9558 83.4427 48.8929 83.3816C48.8301 83.3205 48.7872 83.2413 48.7702 83.1546C48.7584 83.0853 48.7626 83.0142 48.7825 82.9469C48.8024 82.8796 48.8374 82.8179 48.8848 82.7666C49.0452 82.5998 49.2057 82.6386 49.198 82.6619C49.1904 82.6851 49.0796 82.7162 48.9956 82.8559C48.9661 82.8922 48.9465 82.9357 48.9389 82.9821C48.9313 83.0286 48.9358 83.0762 48.9521 83.1203C48.9683 83.1643 48.9958 83.2033 49.0316 83.2331C49.0674 83.263 49.1103 83.2828 49.156 83.2904C49.2024 83.3026 49.2513 83.3002 49.2963 83.2836C49.3413 83.267 49.3803 83.2369 49.4081 83.1973C49.4261 83.1591 49.4354 83.1174 49.4354 83.0751C49.4354 83.0328 49.4261 82.991 49.4081 82.9529C49.3661 82.8209 49.2439 82.7938 49.2477 82.7666Z" fill="#263238"/>
<path d="M54.3703 77.4043C53.7776 76.777 53.2643 76.0771 52.8423 75.3207C52.3678 74.5953 51.9829 73.8135 51.6963 72.9927C51.7498 72.9656 52.2769 73.9899 53.0104 75.2004C53.7438 76.411 54.4161 77.3655 54.3703 77.4043Z" fill="#263238"/>
<path d="M35.8701 71.3611C35.8701 71.3611 35.9924 71.1632 36.275 70.9381C36.6473 70.6461 37.0695 70.4265 37.5204 70.2902C37.9708 70.1537 38.4419 70.1011 38.9108 70.135C39.1066 70.1322 39.3002 70.1761 39.4762 70.263C38.833 70.2562 38.1914 70.3305 37.5662 70.4842C36.9666 70.7025 36.3967 70.9971 35.8701 71.3611Z" fill="#263238"/>
<path d="M46.0698 57.1383C46.0392 57.1383 46.1958 56.7697 46.3028 56.1606C46.448 55.3711 46.4101 54.558 46.192 53.786C45.9627 53.0155 45.5614 52.3091 45.0193 51.7219C44.6029 51.2718 44.282 51.0545 44.3011 51.0273C44.6119 51.1662 44.8914 51.3682 45.1224 51.621C45.7127 52.2018 46.1456 52.9275 46.3792 53.7278C46.6111 54.5296 46.6321 55.379 46.4403 56.1916C46.382 56.5297 46.2559 56.8519 46.0698 57.1383Z" fill="#263238"/>
<path d="M31.5267 86.4102C31.5267 86.4102 25.7165 91.9042 30.1782 99.1792C34.64 106.454 49.3699 121.966 49.3699 121.966C49.3699 121.966 45.5843 134.181 44.9081 137.203C44.232 140.226 41.6611 148.607 41.6611 148.607L49.3661 151.218C49.3661 151.218 62.526 121.749 62.7361 120.469C63.1181 118.215 62.3273 116.76 61.2463 114.975C60.1652 113.19 47.1925 91.0894 47.1925 91.0894L31.5267 86.4102Z" fill="#263238"/>
<path d="M39.2621 122.974C39.2621 122.974 31.2401 105.079 30.308 103.981C29.3759 102.883 24.9027 94.0986 30.308 88.4609L49.4997 103.562C49.4997 103.562 52.8804 121.546 51.5281 124.7C50.1758 127.855 47.9602 129.919 45.6224 131.564C43.2845 133.209 27.6684 147.084 27.6684 147.084L22.0645 140.771C22.0645 140.771 30.9269 130.702 32.8789 128.277C35.3122 125.259 39.2621 122.974 39.2621 122.974Z" fill="#263238"/>
<path d="M41.6614 148.606C41.6614 148.606 41.6614 148.559 41.6919 148.47L41.7989 148.082C41.8982 147.725 42.0396 147.213 42.2191 146.557C42.6011 145.218 43.1435 143.298 43.8235 140.912C45.1987 136.12 47.1125 129.466 49.2708 121.954L49.2937 122.051C48.4992 121.166 47.632 120.247 46.7687 119.308C40.8936 112.948 35.7518 107.027 32.4132 102.434C31.5728 101.289 30.8546 100.222 30.2587 99.2636C29.738 98.4488 29.2734 97.5983 28.8682 96.7183C28.6074 96.1638 28.4063 95.5823 28.2685 94.984C28.235 94.7732 28.212 94.5608 28.1997 94.3477C28.2156 94.4007 28.2258 94.4553 28.2303 94.5106C28.2532 94.6154 28.2646 94.7745 28.3105 94.9762C28.4632 95.5673 28.6757 96.1407 28.9446 96.6873C29.3619 97.5562 29.8354 98.3961 30.3618 99.2015C30.9616 100.152 31.6874 101.211 32.5316 102.348C35.8932 106.911 41.0502 112.824 46.9215 119.149C47.7887 120.088 48.6482 121.007 49.4465 121.896L49.4847 121.938V121.993C47.2997 129.493 45.3668 136.143 43.9725 140.931C43.2696 143.309 42.7042 145.226 42.3146 146.557C42.116 147.209 41.9632 147.721 41.8562 148.074C41.8065 148.237 41.7645 148.369 41.734 148.462C41.716 148.513 41.6916 148.561 41.6614 148.606Z" fill="#455A64"/>
<path d="M52.0169 120.836C51.5939 121.086 51.1534 121.304 50.699 121.488C50.2726 121.733 49.8282 121.945 49.3696 122.12C49.7287 121.771 50.1501 121.494 50.6111 121.305C51.0457 121.059 51.523 120.899 52.0169 120.836Z" fill="#455A64"/>
<path d="M31.8743 118.73C31.8743 118.788 28.4936 118.831 24.3222 118.831C20.1507 118.831 16.77 118.769 16.77 118.73C16.77 118.691 20.1507 118.629 24.3222 118.629C28.4936 118.629 31.8743 118.656 31.8743 118.73Z" fill="#263238"/>
<path d="M23.6843 116.374C23.6843 116.429 21.0867 116.475 17.8817 116.475C14.6767 116.475 12.0791 116.429 12.0791 116.374C12.0791 116.32 14.6767 116.273 17.8817 116.273C21.0867 116.273 23.6843 116.32 23.6843 116.374Z" fill="#263238"/>
<path d="M61.2305 42.2585L64.3399 42.6465C65.7758 44.6183 67.8859 45.9734 70.2555 46.4452C72.6251 46.9171 75.0827 46.4717 77.1453 45.1964C79.208 43.9212 80.7264 41.9085 81.4021 39.5539C82.0779 37.1993 81.8621 34.6731 80.7971 32.4719C79.7322 30.2707 77.8951 28.5537 75.6471 27.6584C73.399 26.7631 70.9026 26.7543 68.6484 27.6336C66.3943 28.513 64.5455 30.217 63.4655 32.4106C62.3855 34.6042 62.1524 37.1288 62.8119 39.4881L61.2305 42.2585Z" fill="white"/>
<path d="M61.2305 42.2582L61.326 42.0798C61.3947 41.9556 61.4902 41.7771 61.6163 41.5521L62.7623 39.4569C62.7707 39.4492 62.7816 39.445 62.7929 39.445C62.8041 39.445 62.815 39.4492 62.8234 39.4569L62.747 39.4879C62.1941 37.5144 62.262 35.4148 62.9411 33.4824C63.6202 31.5499 64.8766 29.8812 66.5348 28.7094C68.1931 27.5375 70.1703 26.921 72.1902 26.946C74.2102 26.9711 76.172 27.6364 77.8016 28.849C79.0749 29.784 80.1 31.0251 80.785 32.4612C81.1357 33.1818 81.3999 33.9426 81.572 34.7272C81.733 35.4919 81.8036 36.2734 81.7821 37.0552C81.7307 39.2079 80.9859 41.2842 79.6619 42.9661C78.338 44.6479 76.5077 45.8426 74.4515 46.3672C72.5911 46.8464 70.6324 46.7516 68.8253 46.0951C67.0182 45.4386 65.4447 44.25 64.3056 42.6812H64.3361L62.0098 42.3669L61.4215 42.2854L61.2305 42.2582H61.4444L62.0441 42.3242L64.3361 42.5803C64.3403 42.5782 64.3449 42.5772 64.3495 42.5772C64.3541 42.5772 64.3587 42.5782 64.3629 42.5803C65.5006 44.1272 67.0651 45.296 68.8579 45.9385C70.6506 46.5809 72.5908 46.668 74.4324 46.1887C75.723 45.8507 76.9303 45.2441 77.9779 44.4072C79.0254 43.5703 79.8903 42.5214 80.5176 41.327C81.1953 40.0068 81.5689 38.5474 81.6102 37.059C81.6624 35.4987 81.3288 33.95 80.6399 32.5544C79.977 31.185 79.0053 29.9938 77.8039 29.0776C76.6025 28.1614 75.2053 27.546 73.7257 27.2814C72.4143 27.052 71.0703 27.1026 69.7792 27.4299C68.4882 27.7573 67.2784 28.3542 66.227 29.1826C64.4896 30.5612 63.2673 32.5008 62.7623 34.6806C62.4046 36.2605 62.44 37.906 62.8654 39.4685C62.8679 39.4798 62.8661 39.4916 62.8605 39.5017C62.8548 39.5117 62.8457 39.5193 62.8349 39.5228C62.8277 39.5282 62.819 39.5311 62.81 39.5311C62.8011 39.5311 62.7924 39.5282 62.7852 39.5228H62.8578C62.3383 40.4075 61.9372 41.0748 61.6583 41.5637L61.3451 42.0953L61.2305 42.2582Z" fill="#263238"/>
<path d="M70.5435 32.4683L71.0515 37.5122C71.071 37.711 71.1614 37.8957 71.3057 38.0314C71.4499 38.1672 71.638 38.2448 71.8346 38.2494C72.0439 38.2538 72.2467 38.1752 72.4 38.0304C72.5533 37.8855 72.6451 37.6858 72.6559 37.4734L73.015 32.3829C73.0211 32.2921 73.0081 32.2011 72.977 32.1157C72.9459 32.0304 72.8973 31.9528 72.8345 31.8879C72.7717 31.823 72.6961 31.7723 72.6127 31.7393C72.5292 31.7063 72.4398 31.6915 72.3503 31.6961L71.1394 31.7621C71.0538 31.7664 70.9699 31.7883 70.893 31.8266C70.816 31.8649 70.7476 31.9188 70.6918 31.9849C70.636 32.051 70.5941 32.1279 70.5686 32.211C70.5431 32.2942 70.5345 32.3817 70.5435 32.4683Z" fill="#FF6600"/>
<path d="M73.2594 41.0188C73.1925 41.2531 73.0587 41.4621 72.8749 41.6192C72.6911 41.7764 72.4656 41.8746 72.2268 41.9015C71.988 41.9285 71.7468 41.8829 71.5335 41.7706C71.3202 41.6583 71.1445 41.4842 71.0286 41.2705C70.9127 41.0568 70.8618 40.8129 70.8824 40.5698C70.9029 40.3267 70.994 40.0952 71.144 39.9046C71.294 39.7141 71.4963 39.573 71.7253 39.4992C71.9543 39.4254 72.1997 39.4222 72.4305 39.4901C72.584 39.5347 72.7274 39.6097 72.8522 39.7108C72.9771 39.8119 73.0811 39.9371 73.1581 40.0792C73.2352 40.2213 73.2838 40.3775 73.3012 40.5387C73.3186 40.7 73.3044 40.8631 73.2594 41.0188Z" fill="#FF6600"/>
</svg>
